<?xml version="1.0" encoding="UTF-8"?>
<!DOCTYPE svg PUBLIC "-//W3C//DTD SVG 1.1//EN" "http://www.w3.org/Graphics/SVG/1.1/DTD/svg11.dtd">
<svg version="1.1" xmlns="http://www.w3.org/2000/svg" xmlns:xlink="http://www.w3.org/1999/xlink" x="0" y="0" width="240" height="240" viewBox="0, 0, 240, 240">
  <g id="Background">
    <rect x="0" y="0" width="240" height="240" fill="#FFFFFF"/>
  </g>
  <g id="Layer_1">
    <path d="M120,54.1 C156.396,54.1 185.9,83.604 185.9,120 C185.9,156.396 156.396,185.9 120,185.9 C83.604,185.9 54.1,156.396 54.1,120 C54.1,83.604 83.604,54.1 120,54.1 z M101.4,63.15 C92.25,63.15 86.25,73.5 86.25,78.3 C86.25,79.8 86.7,80.1 87.75,80.1 C88.8,80.1 94.2,74.25 98.1,74.25 C110.1,74.25 115.65,94.5 117.6,107.85 C117.9,110.25 117.75,110.25 116.85,113.1 C112.2,127.5 97.05,150.9 89.4,162.3 C87.9,164.55 87.9,164.1 87.9,166.2 C87.9,168.9 92.85,170.7 94.95,170.7 C96.15,170.7 97.95,166.2 98.4,165.3 C105.3,153 115.8,133.05 119.1,123.9 C119.4,123.15 119.85,123.3 120,124.05 C121.35,134.4 124.5,150.9 127.5,160.8 C129.75,168.3 132.6,170.25 137.55,170.25 C144,170.25 152.25,165.75 152.25,154.5 C152.25,153.75 151.35,153.15 150.6,153.15 C149.4,153.15 145.2,158.4 139.8,158.25 C137.4,158.25 132.75,156 130.95,149.7 C124.5,127.05 120.6,97.35 118.8,87.45 C116.85,76.95 111.6,63.15 101.4,63.15 z" fill="#000000"/>
    <path d="M120.5,236.5 C56.435,236.5 4.5,184.565 4.5,120.5 C4.5,56.435 56.435,4.5 120.5,4.5 C184.565,4.5 236.5,56.435 236.5,120.5 C236.5,184.565 184.565,236.5 120.5,236.5 z" fill-opacity="0" stroke="#000000" stroke-width="3"/>
  </g>
</svg>
