<?xml version="1.0" encoding="UTF-8" standalone="no"?>
<!-- Created with Inkscape (http://www.inkscape.org/) -->

<svg
   width="210mm"
   height="297mm"
   viewBox="0 0 210 297"
   version="1.1"
   id="svg5"
   inkscape:version="1.2.2 (b0a8486541, 2022-12-01)"
   sodipodi:docname="draft-faun-ai.svg"
   xmlns:inkscape="http://www.inkscape.org/namespaces/inkscape"
   xmlns:sodipodi="http://sodipodi.sourceforge.net/DTD/sodipodi-0.dtd"
   xmlns="http://www.w3.org/2000/svg"
   xmlns:svg="http://www.w3.org/2000/svg"
   xmlns:vectornator="http://vectornator.io">
  <sodipodi:namedview
     id="namedview7"
     pagecolor="#ffffff"
     bordercolor="#000000"
     borderopacity="0.25"
     inkscape:showpageshadow="2"
     inkscape:pageopacity="0.0"
     inkscape:pagecheckerboard="0"
     inkscape:deskcolor="#d1d1d1"
     inkscape:document-units="mm"
     showgrid="false"
     inkscape:zoom="4.97"
     inkscape:cx="633.60161"
     inkscape:cy="573.74245"
     inkscape:window-width="2494"
     inkscape:window-height="1529"
     inkscape:window-x="66"
     inkscape:window-y="32"
     inkscape:window-maximized="1"
     inkscape:current-layer="layer1" />
  <defs
     id="defs2">
    <inkscape:path-effect
       effect="skeletal"
       id="path-effect559"
       is_visible="true"
       lpeversion="1"
       pattern="m 72.061414,241.95149 a 14.279433,14.279433 0 0 0 -9.42734,3.56826 l -6.43474,0.57206 h 5.82083 13.16044 l -11.95896,1.0635 a 14.279433,14.279433 0 0 0 8.83977,3.07733 14.279433,14.279433 0 0 0 10.046926,-4.14703 14.279433,14.279433 0 0 0 -10.046926,-4.13412 z"
       copytype="single_stretched"
       prop_scale="1"
       scale_y_rel="false"
       spacing="0"
       normal_offset="0"
       tang_offset="0"
       prop_units="false"
       vertical_pattern="false"
       hide_knot="false"
       fuse_tolerance="0" />
    <inkscape:path-effect
       effect="skeletal"
       id="path-effect542"
       is_visible="true"
       lpeversion="1"
       pattern="m 72.061414,241.95149 a 14.279433,14.279433 0 0 0 -9.42734,3.56826 l -6.43474,0.57206 h 5.82083 13.16044 l -11.95896,1.0635 a 14.279433,14.279433 0 0 0 8.83977,3.07733 14.279433,14.279433 0 0 0 10.046926,-4.14703 14.279433,14.279433 0 0 0 -10.046926,-4.13412 z"
       copytype="single_stretched"
       prop_scale="1"
       scale_y_rel="false"
       spacing="0"
       normal_offset="0"
       tang_offset="0"
       prop_units="false"
       vertical_pattern="false"
       hide_knot="false"
       fuse_tolerance="0" />
    <inkscape:path-effect
       effect="skeletal"
       id="path-effect525"
       is_visible="true"
       lpeversion="1"
       pattern="m 72.061414,241.95149 a 14.279433,14.279433 0 0 0 -9.42734,3.56826 l -6.43474,0.57206 h 5.82083 13.16044 l -11.95896,1.0635 a 14.279433,14.279433 0 0 0 8.83977,3.07733 14.279433,14.279433 0 0 0 10.046926,-4.14703 14.279433,14.279433 0 0 0 -10.046926,-4.13412 z"
       copytype="single_stretched"
       prop_scale="1"
       scale_y_rel="false"
       spacing="0"
       normal_offset="0"
       tang_offset="0"
       prop_units="false"
       vertical_pattern="false"
       hide_knot="false"
       fuse_tolerance="0" />
    <inkscape:path-effect
       effect="skeletal"
       id="path-effect508"
       is_visible="true"
       lpeversion="1"
       pattern="m 72.061414,241.95149 a 14.279433,14.279433 0 0 0 -9.42734,3.56826 l -6.43474,0.57206 h 5.82083 13.16044 l -11.95896,1.0635 a 14.279433,14.279433 0 0 0 8.83977,3.07733 14.279433,14.279433 0 0 0 10.046926,-4.14703 14.279433,14.279433 0 0 0 -10.046926,-4.13412 z"
       copytype="single_stretched"
       prop_scale="1"
       scale_y_rel="false"
       spacing="0"
       normal_offset="0"
       tang_offset="0"
       prop_units="false"
       vertical_pattern="false"
       hide_knot="false"
       fuse_tolerance="0" />
    <inkscape:path-effect
       effect="skeletal"
       id="path-effect491"
       is_visible="true"
       lpeversion="1"
       pattern="m 72.061414,241.95149 a 14.279433,14.279433 0 0 0 -9.42734,3.56826 l -6.43474,0.57206 h 5.82083 13.16044 l -11.95896,1.0635 a 14.279433,14.279433 0 0 0 8.83977,3.07733 14.279433,14.279433 0 0 0 10.046926,-4.14703 14.279433,14.279433 0 0 0 -10.046926,-4.13412 z"
       copytype="single_stretched"
       prop_scale="1"
       scale_y_rel="false"
       spacing="0"
       normal_offset="0"
       tang_offset="0"
       prop_units="false"
       vertical_pattern="false"
       hide_knot="false"
       fuse_tolerance="0" />
    <inkscape:path-effect
       effect="skeletal"
       id="path-effect474"
       is_visible="true"
       lpeversion="1"
       pattern="m 72.061414,241.95149 a 14.279433,14.279433 0 0 0 -9.42734,3.56826 l -6.43474,0.57206 h 5.82083 13.16044 l -11.95896,1.0635 a 14.279433,14.279433 0 0 0 8.83977,3.07733 14.279433,14.279433 0 0 0 10.046926,-4.14703 14.279433,14.279433 0 0 0 -10.046926,-4.13412 z"
       copytype="single_stretched"
       prop_scale="1"
       scale_y_rel="false"
       spacing="0"
       normal_offset="0"
       tang_offset="0"
       prop_units="false"
       vertical_pattern="false"
       hide_knot="false"
       fuse_tolerance="0" />
    <inkscape:path-effect
       effect="skeletal"
       id="path-effect457"
       is_visible="true"
       lpeversion="1"
       pattern="m 72.061414,241.95149 a 14.279433,14.279433 0 0 0 -9.42734,3.56826 l -6.43474,0.57206 h 5.82083 13.16044 l -11.95896,1.0635 a 14.279433,14.279433 0 0 0 8.83977,3.07733 14.279433,14.279433 0 0 0 10.046926,-4.14703 14.279433,14.279433 0 0 0 -10.046926,-4.13412 z"
       copytype="single_stretched"
       prop_scale="1"
       scale_y_rel="false"
       spacing="0"
       normal_offset="0"
       tang_offset="0"
       prop_units="false"
       vertical_pattern="false"
       hide_knot="false"
       fuse_tolerance="0" />
    <inkscape:path-effect
       effect="skeletal"
       id="path-effect440"
       is_visible="true"
       lpeversion="1"
       pattern="m 72.061414,241.95149 a 14.279433,14.279433 0 0 0 -9.42734,3.56826 l -6.43474,0.57206 h 5.82083 13.16044 l -11.95896,1.0635 a 14.279433,14.279433 0 0 0 8.83977,3.07733 14.279433,14.279433 0 0 0 10.046926,-4.14703 14.279433,14.279433 0 0 0 -10.046926,-4.13412 z"
       copytype="single_stretched"
       prop_scale="0.92414729"
       scale_y_rel="false"
       spacing="0"
       normal_offset="0"
       tang_offset="0"
       prop_units="false"
       vertical_pattern="false"
       hide_knot="false"
       fuse_tolerance="0" />
    <inkscape:path-effect
       effect="skeletal"
       id="path-effect423"
       is_visible="true"
       lpeversion="1"
       pattern="m 72.061414,241.95149 a 14.279433,14.279433 0 0 0 -9.42734,3.56826 l -6.43474,0.57206 h 5.82083 13.16044 l -11.95896,1.0635 a 14.279433,14.279433 0 0 0 8.83977,3.07733 14.279433,14.279433 0 0 0 10.046926,-4.14703 14.279433,14.279433 0 0 0 -10.046926,-4.13412 z"
       copytype="single_stretched"
       prop_scale="1"
       scale_y_rel="false"
       spacing="0"
       normal_offset="0"
       tang_offset="0"
       prop_units="false"
       vertical_pattern="false"
       hide_knot="false"
       fuse_tolerance="0" />
    <inkscape:path-effect
       effect="skeletal"
       id="path-effect12"
       is_visible="true"
       lpeversion="1"
       pattern="m 79.389751,228.12589 a 14.279433,14.279433 0 0 0 -9.427331,3.56826 l -6.434749,0.57206 h 5.820833 13.160437 l -11.95896,1.0635 a 14.279433,14.279433 0 0 0 8.83977,3.07733 14.279433,14.279433 0 0 0 10.046932,-4.14703 14.279433,14.279433 0 0 0 -10.046932,-4.13412 z"
       copytype="single_stretched"
       prop_scale="1.9492353"
       scale_y_rel="false"
       spacing="0"
       normal_offset="0"
       tang_offset="0"
       prop_units="false"
       vertical_pattern="false"
       hide_knot="false"
       fuse_tolerance="0" />
    <inkscape:path-effect
       effect="skeletal"
       id="path-effect11"
       is_visible="true"
       lpeversion="1"
       pattern="m 79.389751,228.12589 a 14.279433,14.279433 0 0 0 -9.427331,3.56826 l -6.434749,0.57206 h 5.820833 13.160437 l -11.95896,1.0635 a 14.279433,14.279433 0 0 0 8.83977,3.07733 14.279433,14.279433 0 0 0 10.046932,-4.14703 14.279433,14.279433 0 0 0 -10.046932,-4.13412 z"
       copytype="single_stretched"
       prop_scale="1.9492353"
       scale_y_rel="false"
       spacing="0"
       normal_offset="0"
       tang_offset="0"
       prop_units="false"
       vertical_pattern="false"
       hide_knot="false"
       fuse_tolerance="0" />
    <inkscape:path-effect
       effect="skeletal"
       id="path-effect10"
       is_visible="true"
       lpeversion="1"
       pattern="m 79.389751,228.12589 a 14.279433,14.279433 0 0 0 -9.427331,3.56826 l -6.434749,0.57206 h 5.820833 13.160437 l -11.95896,1.0635 a 14.279433,14.279433 0 0 0 8.83977,3.07733 14.279433,14.279433 0 0 0 10.046932,-4.14703 14.279433,14.279433 0 0 0 -10.046932,-4.13412 z"
       copytype="single_stretched"
       prop_scale="1.9492353"
       scale_y_rel="false"
       spacing="0"
       normal_offset="0"
       tang_offset="0"
       prop_units="false"
       vertical_pattern="false"
       hide_knot="false"
       fuse_tolerance="0" />
    <inkscape:path-effect
       effect="skeletal"
       id="path-effect9"
       is_visible="true"
       lpeversion="1"
       pattern="m 79.389751,228.12589 a 14.279433,14.279433 0 0 0 -9.427331,3.56826 l -6.434749,0.57206 h 5.820833 13.160437 l -11.95896,1.0635 a 14.279433,14.279433 0 0 0 8.83977,3.07733 14.279433,14.279433 0 0 0 10.046932,-4.14703 14.279433,14.279433 0 0 0 -10.046932,-4.13412 z"
       copytype="single_stretched"
       prop_scale="1.9492353"
       scale_y_rel="false"
       spacing="0"
       normal_offset="0"
       tang_offset="0"
       prop_units="false"
       vertical_pattern="false"
       hide_knot="false"
       fuse_tolerance="0" />
    <inkscape:path-effect
       effect="skeletal"
       id="path-effect8"
       is_visible="true"
       lpeversion="1"
       pattern="m 79.389751,228.12589 a 14.279433,14.279433 0 0 0 -9.427331,3.56826 l -6.434749,0.57206 h 5.820833 13.160437 l -11.95896,1.0635 a 14.279433,14.279433 0 0 0 8.83977,3.07733 14.279433,14.279433 0 0 0 10.046932,-4.14703 14.279433,14.279433 0 0 0 -10.046932,-4.13412 z"
       copytype="single_stretched"
       prop_scale="1.9492353"
       scale_y_rel="false"
       spacing="0"
       normal_offset="0"
       tang_offset="0"
       prop_units="false"
       vertical_pattern="false"
       hide_knot="false"
       fuse_tolerance="0" />
    <inkscape:path-effect
       effect="skeletal"
       id="path-effect7"
       is_visible="true"
       lpeversion="1"
       pattern="m 79.389751,228.12589 a 14.279433,14.279433 0 0 0 -9.427331,3.56826 l -6.434749,0.57206 h 5.820833 13.160437 l -11.95896,1.0635 a 14.279433,14.279433 0 0 0 8.83977,3.07733 14.279433,14.279433 0 0 0 10.046932,-4.14703 14.279433,14.279433 0 0 0 -10.046932,-4.13412 z"
       copytype="single_stretched"
       prop_scale="1.9492353"
       scale_y_rel="false"
       spacing="0"
       normal_offset="0"
       tang_offset="0"
       prop_units="false"
       vertical_pattern="false"
       hide_knot="false"
       fuse_tolerance="0" />
    <inkscape:path-effect
       effect="skeletal"
       id="path-effect6"
       is_visible="true"
       lpeversion="1"
       pattern="m 79.389751,228.12589 a 14.279433,14.279433 0 0 0 -9.427331,3.56826 l -6.434749,0.57206 h 5.820833 13.160437 l -11.95896,1.0635 a 14.279433,14.279433 0 0 0 8.83977,3.07733 14.279433,14.279433 0 0 0 10.046932,-4.14703 14.279433,14.279433 0 0 0 -10.046932,-4.13412 z"
       copytype="single_stretched"
       prop_scale="1.9492353"
       scale_y_rel="false"
       spacing="0"
       normal_offset="0"
       tang_offset="0"
       prop_units="false"
       vertical_pattern="false"
       hide_knot="false"
       fuse_tolerance="0" />
    <inkscape:path-effect
       effect="skeletal"
       id="path-effect5"
       is_visible="true"
       lpeversion="1"
       pattern="m 48.200994,183.37893 a 14.279433,14.279433 0 0 0 -9.427331,3.56826 l -6.434749,0.57206 h 5.820833 13.160437 l -11.95896,1.0635 a 14.279433,14.279433 0 0 0 8.83977,3.07733 14.279433,14.279433 0 0 0 10.046932,-4.14703 14.279433,14.279433 0 0 0 -10.046932,-4.13412 z"
       copytype="single_stretched"
       prop_scale="1"
       scale_y_rel="false"
       spacing="0"
       normal_offset="0"
       tang_offset="0"
       prop_units="false"
       vertical_pattern="false"
       hide_knot="false"
       fuse_tolerance="0" />
    <inkscape:path-effect
       effect="skeletal"
       id="path-effect4"
       is_visible="true"
       lpeversion="1"
       pattern="m 48.200994,183.37893 a 14.279433,14.279433 0 0 0 -9.427331,3.56826 l -6.434749,0.57206 h 5.820833 13.160437 l -11.95896,1.0635 a 14.279433,14.279433 0 0 0 8.83977,3.07733 14.279433,14.279433 0 0 0 10.046932,-4.14703 14.279433,14.279433 0 0 0 -10.046932,-4.13412 z"
       copytype="single_stretched"
       prop_scale="1"
       scale_y_rel="false"
       spacing="0"
       normal_offset="0"
       tang_offset="0"
       prop_units="false"
       vertical_pattern="false"
       hide_knot="false"
       fuse_tolerance="0" />
    <inkscape:path-effect
       effect="skeletal"
       id="path-effect3"
       is_visible="true"
       lpeversion="1"
       pattern="m 48.200994,183.37893 a 14.279433,14.279433 0 0 0 -9.427331,3.56826 l -6.434749,0.57206 h 5.820833 13.160437 l -11.95896,1.0635 a 14.279433,14.279433 0 0 0 8.83977,3.07733 14.279433,14.279433 0 0 0 10.046932,-4.14703 14.279433,14.279433 0 0 0 -10.046932,-4.13412 z"
       copytype="single_stretched"
       prop_scale="1.9492353"
       scale_y_rel="false"
       spacing="0"
       normal_offset="0"
       tang_offset="0"
       prop_units="false"
       vertical_pattern="false"
       hide_knot="false"
       fuse_tolerance="0" />
    <inkscape:path-effect
       effect="skeletal"
       id="path-effect2"
       is_visible="true"
       lpeversion="1"
       pattern="m 48.200994,183.37893 a 14.279433,14.279433 0 0 0 -9.427331,3.56826 l -6.434749,0.57206 h 5.820833 13.160437 l -11.95896,1.0635 a 14.279433,14.279433 0 0 0 8.83977,3.07733 14.279433,14.279433 0 0 0 10.046932,-4.14703 14.279433,14.279433 0 0 0 -10.046932,-4.13412 z"
       copytype="single_stretched"
       prop_scale="1"
       scale_y_rel="false"
       spacing="0"
       normal_offset="0"
       tang_offset="0"
       prop_units="false"
       vertical_pattern="false"
       hide_knot="false"
       fuse_tolerance="0" />
    <inkscape:path-effect
       effect="fill_between_many"
       method="originald"
       linkedpaths="#path436,0,1"
       id="path-effect1387"
       is_visible="true"
       lpeversion="0"
       join="true"
       close="true"
       autoreverse="true" />
    <inkscape:path-effect
       effect="fill_between_many"
       method="originald"
       linkedpaths="#path436,0,1"
       id="path-effect1387-3"
       is_visible="true"
       lpeversion="0"
       join="true"
       close="true"
       autoreverse="true" />
    <inkscape:path-effect
       effect="skeletal"
       id="path-effect12-8"
       is_visible="true"
       lpeversion="1"
       pattern="m 79.389751,228.12589 a 14.279433,14.279433 0 0 0 -9.427331,3.56826 l -6.434749,0.57206 h 5.820833 13.160437 l -11.95896,1.0635 a 14.279433,14.279433 0 0 0 8.83977,3.07733 14.279433,14.279433 0 0 0 10.046932,-4.14703 14.279433,14.279433 0 0 0 -10.046932,-4.13412 z"
       copytype="single_stretched"
       prop_scale="1.9492353"
       scale_y_rel="false"
       spacing="0"
       normal_offset="0"
       tang_offset="0"
       prop_units="false"
       vertical_pattern="false"
       hide_knot="false"
       fuse_tolerance="0" />
    <inkscape:path-effect
       effect="skeletal"
       id="path-effect12-8-6"
       is_visible="true"
       lpeversion="1"
       pattern="m 79.389751,228.12589 a 14.279433,14.279433 0 0 0 -9.427331,3.56826 l -6.434749,0.57206 h 5.820833 13.160437 l -11.95896,1.0635 a 14.279433,14.279433 0 0 0 8.83977,3.07733 14.279433,14.279433 0 0 0 10.046932,-4.14703 14.279433,14.279433 0 0 0 -10.046932,-4.13412 z"
       copytype="single_stretched"
       prop_scale="1.9492353"
       scale_y_rel="false"
       spacing="0"
       normal_offset="0"
       tang_offset="0"
       prop_units="false"
       vertical_pattern="false"
       hide_knot="false"
       fuse_tolerance="0" />
    <inkscape:path-effect
       effect="skeletal"
       id="path-effect8-3"
       is_visible="true"
       lpeversion="1"
       pattern="m 79.389751,228.12589 a 14.279433,14.279433 0 0 0 -9.427331,3.56826 l -6.434749,0.57206 h 5.820833 13.160437 l -11.95896,1.0635 a 14.279433,14.279433 0 0 0 8.83977,3.07733 14.279433,14.279433 0 0 0 10.046932,-4.14703 14.279433,14.279433 0 0 0 -10.046932,-4.13412 z"
       copytype="single_stretched"
       prop_scale="1.9492353"
       scale_y_rel="false"
       spacing="0"
       normal_offset="0"
       tang_offset="0"
       prop_units="false"
       vertical_pattern="false"
       hide_knot="false"
       fuse_tolerance="0" />
    <inkscape:path-effect
       effect="skeletal"
       id="path-effect7-4"
       is_visible="true"
       lpeversion="1"
       pattern="m 79.389751,228.12589 a 14.279433,14.279433 0 0 0 -9.427331,3.56826 l -6.434749,0.57206 h 5.820833 13.160437 l -11.95896,1.0635 a 14.279433,14.279433 0 0 0 8.83977,3.07733 14.279433,14.279433 0 0 0 10.046932,-4.14703 14.279433,14.279433 0 0 0 -10.046932,-4.13412 z"
       copytype="single_stretched"
       prop_scale="1.9492353"
       scale_y_rel="false"
       spacing="0"
       normal_offset="0"
       tang_offset="0"
       prop_units="false"
       vertical_pattern="false"
       hide_knot="false"
       fuse_tolerance="0" />
    <inkscape:path-effect
       effect="skeletal"
       id="path-effect9-4"
       is_visible="true"
       lpeversion="1"
       pattern="m 79.389751,228.12589 a 14.279433,14.279433 0 0 0 -9.427331,3.56826 l -6.434749,0.57206 h 5.820833 13.160437 l -11.95896,1.0635 a 14.279433,14.279433 0 0 0 8.83977,3.07733 14.279433,14.279433 0 0 0 10.046932,-4.14703 14.279433,14.279433 0 0 0 -10.046932,-4.13412 z"
       copytype="single_stretched"
       prop_scale="1.9492353"
       scale_y_rel="false"
       spacing="0"
       normal_offset="0"
       tang_offset="0"
       prop_units="false"
       vertical_pattern="false"
       hide_knot="false"
       fuse_tolerance="0" />
  </defs>
  <g
     inkscape:label="Layer 1"
     inkscape:groupmode="layer"
     id="layer1">
    <path
       id="path1206"
       style="opacity:1;fill:#258a00;fill-opacity:1;stroke:none;stroke-width:1.27738;stroke-linecap:round"
       d="m 72.061414,241.95149 a 14.279433,14.279433 0 0 0 -9.42734,3.56826 l -6.43474,0.57206 h 5.82083 13.16044 l -11.95896,1.0635 a 14.279433,14.279433 0 0 0 8.83977,3.07733 14.279433,14.279433 0 0 0 10.046926,-4.14703 14.279433,14.279433 0 0 0 -10.046926,-4.13412 z" />
    <path
       id="path1206-3"
       style="opacity:1;fill:#258a00;fill-opacity:1;stroke:none;stroke-width:1.27738;stroke-linecap:round"
       d="m 70.772714,261.30684 a 14.279433,14.279433 0 0 0 -9.42733,3.56826 l -6.43475,0.57206 h 5.82083 13.16044 l -11.95896,1.0635 a 14.279433,14.279433 0 0 0 8.83977,3.07733 14.279433,14.279433 0 0 0 10.046926,-4.14703 14.279433,14.279433 0 0 0 -10.046926,-4.13412 z" />
    <path
       style="opacity:1;fill:none;fill-opacity:1;stroke:#000000;stroke-width:0.264583;stroke-opacity:1"
       d="m 124.28099,206.47433 c -0.51882,-0.25982 -1.05339,-0.52848 -1.61482,-0.80474 -4.541,-2.29246 -9.55915,-5.04907 -15.39602,-6.66677 0,0 0,0 0,0 -2.89827,-0.82029 -5.96098,-1.28145 -8.900419,-1.08063 -1.74284,0.10197 -3.406537,0.50101 -4.834717,1.15111 -0.991939,0.0219 -1.982635,0.14253 -2.953112,0.38084 -2.624069,0.67171 -4.877104,2.18619 -6.640461,4.05399 0,0 0,0 -10e-7,0 -2.52803,2.67783 -4.234073,5.92006 -5.625221,9.21665 1.562527,-3.21325 3.43067,-6.33955 6.019293,-8.80247 l 1e-6,0 c 1.795628,-1.70843 4.004845,-3.03419 6.435609,-3.51857 l 10e-7,0 c 0.247801,-0.0494 0.496788,-0.0901 0.746636,-0.12266 2.003823,-0.26106 4.063073,0.005 6.010458,0.56507 2.450422,0.70523 4.759203,1.83403 6.983773,3.08023 l 0,0 c 4.87341,2.73006 9.37869,6.08212 14.26903,8.78157 2.25968,1.24733 4.60847,2.36635 7.09588,3.05525 1.45498,0.40296 2.96769,0.64386 4.47421,0.64085 -1.50636,0.0834 -3.04493,-0.0765 -4.53871,-0.40797 -2.55101,-0.56484 -4.99988,-1.57305 -7.34781,-2.7149 -5.08535,-2.46862 -9.80549,-5.60153 -14.70957,-8.00355 0,0 0,0 0,0 -2.24351,-1.09342 -4.496718,-2.04883 -6.768042,-2.55087 -0.639667,-0.13762 -1.280072,-0.24285 -1.911844,-0.3063 0.55956,0.43302 1.092433,0.88767 1.611161,1.35107 1.714115,1.52894 3.262896,3.27326 5.066905,5.07955 0,0 0,0 0,0 3.43405,3.49722 7.54031,7.59322 13.14217,10.89613 0.68752,0.41305 1.41117,0.81206 2.17198,1.19045 2.0023,0.99317 4.24721,1.83588 6.71056,2.40433 3.23408,0.78388 6.85604,0.73492 10.41815,-0.30123 6.38563,-2.49998 9.05953,-6.71323 10.19784,-10.2476 0,0 0,0 0,0 0.73653,-1.89971 1.17754,-3.73027 1.58254,-5.39981 0.43833,-1.62885 0.62179,-3.00224 1.3899,-4.46867 -1.62857,0.0266 -3.36413,0.73747 -4.9231,1.54052 -1.76056,0.88845 -3.29673,1.88577 -4.8807,2.82292 0,0 -1e-5,0 -1e-5,0 -2.99559,1.54492 -5.36848,2.99985 -6.11834,1.99324 -0.94606,-0.12399 -2.12516,-0.61835 -3.46774,-1.09897 -1.12474,-0.42382 -2.33651,-1.02595 -3.69546,-1.70806 z"
       id="path5"
       inkscape:path-effect="#path-effect6"
       inkscape:original-d="m 78.316666,212.725 c 15.412103,-31.69409 36.273394,7.08573 54.504164,3.43958 6.68327,-1.33665 10.23416,-10.57198 14.55208,-13.22917"
       transform="translate(12.41684,46.905365)"
       class="UnoptimicedTransforms" />
    <path
       style="opacity:1;fill:none;fill-opacity:1;stroke:#000000;stroke-width:0.264583;stroke-opacity:1"
       d="m 185.86869,92.720526 c -0.4295,0.251132 -0.77757,0.527062 -1.12057,0.849542 0,0 0,0 0,0 -0.57356,1.004235 -1.6145,2.649079 -3.65871,4.745192 -0.51276,0.510751 -1.06408,1.030365 -1.65553,1.570908 -2.38611,-0.244556 -4.83002,-1.01677 -7.18988,-1.990763 1.96255,1.169879 4.03312,2.206445 6.21295,2.869015 0.69047,0.20987 1.39189,0.38222 2.10431,0.5094 2.22932,0.39796 4.56195,0.27497 6.70102,-0.46832 l 0,0 c 2.05671,-0.71465 3.87408,-1.88091 5.53391,-3.28659 -1.45291,1.650021 -3.13383,3.10701 -5.21829,4.1949 0,0 0,0 0,0 -2.20525,1.11297 -4.77262,1.62061 -7.36137,1.49116 0,0 0,0 0,0 -0.28313,-0.0147 -0.5657,-0.0353 -0.84757,-0.0614 0.19764,0.37545 0.4187,0.73931 0.6639,1.09024 2.02253,2.80057 5.60352,4.43143 9.74395,3.80816 0,0 0,0 0,0 1.44233,-0.29735 2.80804,-0.82013 4.01953,-1.51103 5.52273,-3.16697 6.56488,-9.339608 4.63151,-14.993201 -6.1299,-0.908252 -10.84867,0.191487 -12.55916,1.182767 z"
       id="path10"
       inkscape:path-effect="#path-effect11"
       inkscape:original-d="m 172.24375,97.895832 c 12.45856,7.426608 18.86005,2.450438 26.19375,-6.35"
       transform="translate(-123.27178,122.67046)"
       class="UnoptimicedTransforms" />
    <g
       id="g12"
       transform="matrix(0.81374214,0,0,0.81374214,-5.5430513,-6.578805)">
      <text
         xml:space="preserve"
         style="font-size:122.631px;fill:#006241;fill-opacity:1;stroke:#006241;stroke-width:2.41399;stroke-dasharray:none;stroke-opacity:1"
         x="19.393639"
         y="149.59148"
         id="text113"><tspan
           sodipodi:role="line"
           style="font-style:normal;font-variant:normal;font-weight:bold;font-stretch:normal;font-size:122.631px;font-family:'EB Garamond';-inkscape-font-specification:'EB Garamond';fill:#006241;fill-opacity:1;stroke:#006241;stroke-width:2.41399;stroke-dasharray:none;stroke-opacity:1"
           x="19.393639"
           y="149.59148"
           id="tspan273">λ</tspan></text>
      <path
         style="opacity:1;fill:none;stroke-width:0.264583"
         d="m 15.784801,137.2526 c 0.521847,-0.1982 1.072121,-0.36503 1.57848,-0.60133 0.18305,-0.0854 0.341094,-0.21969 0.52616,-0.30066 0.435531,-0.19054 0.909917,-0.27869 1.352982,-0.451 1.11187,-0.43239 2.225693,-0.92597 3.307292,-1.42814 1.079266,-0.50109 2.144042,-1.01972 3.232127,-1.50332 0.93748,-0.41666 1.848107,-0.89483 2.856296,-1.12748 0.321112,-0.0741 0.651743,-0.0983 0.977154,-0.15034 1.097767,-0.17564 2.193915,-0.39532 3.307292,-0.45099 0.50048,-0.025 1.002903,0.0264 1.503315,0 1.021175,-0.0537 0.343963,-0.12937 1.428149,-0.0752 0.502976,0.0252 1.000337,0.12519 1.503315,0.15034 0.250238,0.0125 0.502481,-0.0262 0.751655,0 0.483811,0.0509 0.950256,0.20963 1.428149,0.30066 0.27518,0.0524 0.557475,0.0734 0.826823,0.15033 0.518941,0.14827 0.996884,0.41475 1.503315,0.60133 1.430247,0.52693 2.814693,1.18416 4.20928,1.80397 0.958839,0.42615 1.965862,0.72092 2.931464,1.12749 1.819418,0.76607 3.604866,1.61471 5.41193,2.4053 0.589243,0.2578 1.199677,0.39989 1.803977,0.60133 0.80204,0.26734 1.621713,0.57933 2.405303,0.90199 1.077079,0.4435 2.175881,0.86006 3.232127,1.35298 0.893484,0.41696 0.144719,0.21905 1.127487,0.52616 1.511996,0.4725 3.446359,0.85313 5.036103,0.67649 1.171112,-0.13012 2.519931,-0.94624 3.532788,-1.50331 0.512045,-0.28163 0.975696,-0.65075 1.503315,-0.90199 0.264776,-0.12609 0.562258,-0.17414 0.826823,-0.30066 1.50233,-0.71851 2.820842,-1.77505 4.284445,-2.55564 0.511723,-0.27292 1.074513,-0.45768 1.578481,-0.75166 0.787148,-0.45917 0.106775,-0.15914 0.901988,-0.52616 0.31686,-0.14624 0.670787,-0.20872 0.977154,-0.37582 0.140843,-0.0768 0.23826,-0.21813 0.37583,-0.30067 0.115697,-0.0694 0.260128,-0.0809 0.375827,-0.15033 0.201473,-0.12088 0.460021,-0.4059 0.676492,-0.52616 0.117946,-0.0655 0.257882,-0.0848 0.375828,-0.15033 0.337801,-0.18767 0.252727,-0.22313 0.526161,-0.451 0.32019,-0.26682 0.688482,-0.4194 1.052319,-0.60132 0.115501,-0.0577 0.37583,-0.115 0.37583,-0.2255"
         id="path1" />
      <path
         style="opacity:1;fill:#33bc00;fill-opacity:1;stroke:none;stroke-width:0.264583;stroke-opacity:1"
         d="m 132.78872,150.5855 c -2.93706,-0.57957 -5.95701,-0.75817 -8.94661,-0.509 -8.56914,0.9985 -15.25442,5.05884 -19.36557,10.11431 -5.733451,2.51874 -11.109095,5.81343 -16.105973,9.40668 4.699599,-2.96609 9.67553,-5.65445 14.850673,-7.72567 6.5825,-2.63449 13.4873,-4.27056 20.55571,-4.20985 5.49591,0.0472 10.87062,1.26803 15.93979,3.34895 -5.1951,-1.77413 -10.59165,-2.65117 -15.94836,-2.3511 -5.79066,0.2946 -11.34543,1.76084 -16.64556,3.97119 5.61499,0.99276 11.24808,1.62427 16.58895,2.61756 2.0042,0.29218 3.96639,0.64079 5.97315,1.03844 8.40342,1.64971 17.66797,4.11322 26.69229,5.41826 -2.22422,-9.09093 -10.58302,-18.54388 -23.58849,-21.11977 z"
         id="path6"
         inkscape:path-effect="#path-effect7"
         inkscape:original-d="m 88.370832,169.59791 c 24.711518,-15.59634 47.038808,-16.93706 67.997918,2.11667"
         transform="matrix(-0.22954826,0.11765031,0.13252976,0.20377631,50.197833,95.486674)"
         class="UnoptimicedTransforms" />
      <path
         style="opacity:1;fill:#33bc00;fill-opacity:1;stroke:none;stroke-width:0.264583;stroke-opacity:1"
         d="m 158.31043,240.55528 c -1.51403,1.14347 -2.92848,2.30178 -4.26682,3.42606 -2.21732,1.8357 -4.14111,3.63641 -6.06918,5.24524 -2.0071,1.6786 -3.95656,3.26344 -6.26766,4.55653 -1.05211,0.60706 -2.19854,1.13955 -3.40033,1.60989 -1.87783,-0.2262 -3.75264,-0.73579 -5.54483,-1.4756 -3.8573,-1.59031 -7.35272,-4.16434 -10.52375,-7.0615 2.98931,3.07388 6.33621,5.86692 10.19064,7.74511 1.25822,0.61311 2.57401,1.11599 3.92404,1.48627 1.75249,0.48066 3.56267,0.73787 5.37951,0.7227 2.95195,-0.0247 5.87089,-0.74692 8.5996,-1.87339 l 0,0 c 2.85447,-1.17839 5.52113,-2.77136 8.07875,-4.50208 l 0,0 c 4.1423,-2.80304 8.00206,-6.01208 12.08306,-8.89811 -3.91033,3.12737 -7.56122,6.55157 -11.58577,9.633 -2.48165,1.90285 -5.11515,3.6884 -8.02838,5.09379 0,0 0,0 0,0 -2.7931,1.3495 -5.87179,2.29182 -9.1309,2.50566 -0.71193,0.0417 -1.42487,0.0469 -2.13615,0.0173 0.66118,0.39456 1.3765,0.74882 2.14508,1.05214 3.23369,1.2491 7.09854,1.5434 10.93202,0.80943 3.61447,-0.6725 7.04103,-2.03423 10.08844,-3.75916 1.87694,-1.0508 3.62309,-2.21344 5.24372,-3.42897 3.64226,-2.73958 6.62791,-5.73092 9.27625,-8.45537 0,0 0,0 0,0 1.88713,-1.9134 3.46745,-3.77281 5.23291,-5.39425 1.85825,-1.75345 3.97853,-3.32313 6.64889,-4.40775 -2.04357,-2.01911 -5.29504,-3.37131 -9.01112,-3.43896 -3.38503,-0.0804 -6.85121,0.68861 -9.99544,1.94465 0,0 0,0 0,0 -4.47647,1.74853 -8.42755,4.25757 -11.86258,6.84734 z"
         id="path7"
         inkscape:path-effect="#path-effect8"
         inkscape:original-d="m 122.2375,246.85625 c 28.5208,29.32771 45.62782,-15.90402 66.93958,-11.64167"
         transform="matrix(0.46658078,0,0,0.46658078,-6.1630798,7.2538242)"
         class="UnoptimicedTransforms" />
      <path
         style="opacity:1;fill:#33bc00;fill-opacity:1;stroke:none;stroke-width:0.264583;stroke-opacity:1"
         d="m 172.92255,119.56484 c -0.96201,-1.57513 -2.06701,-3.03964 -3.29132,-4.37569 -2.90123,-3.22314 -6.54877,-5.71462 -10.55711,-7.17774 -4.30597,-1.59778 -8.83387,-1.66245 -12.62681,-0.43661 -2.42859,0.82065 -4.36133,2.1262 -5.80657,3.62752 -1.73291,0.69558 -3.35448,1.62642 -4.82074,2.7258 -4.15739,3.12312 -7.19122,7.33888 -9.61417,11.7487 2.65649,-4.26433 5.89563,-8.27078 10.07283,-11.06238 0.92719,-0.61964 1.90528,-1.16957 2.92074,-1.63515 2.28946,-1.04968 4.76887,-1.67051 7.28306,-1.69433 3.27692,-0.031 6.52495,0.92325 9.39247,2.50955 l 0,0 c 2.9339,1.62303 5.50192,3.87093 7.63893,6.45455 2.09986,2.5387 3.80355,5.41438 4.94331,8.50556 0.49875,1.35266 0.89369,2.75483 1.13187,4.17759 -0.31612,-1.40971 -0.78675,-2.78166 -1.35418,-4.09562 -1.29877,-3.0017 -3.13496,-5.73014 -5.32082,-8.0914 -2.22659,-2.39983 -4.82503,-4.42177 -7.68266,-5.78735 0,0 0,0 -1e-5,0 -2.78348,-1.3263 -5.83045,-2.02644 -8.73122,-1.80491 -1.0997,0.0716 -2.185,0.27965 -3.24033,0.60057 1.16412,0.32249 2.26457,0.73145 3.25779,1.24305 2.37799,1.15236 4.37821,2.82083 6.15753,4.58214 1.70822,1.68598 3.24848,3.67079 4.72054,5.73096 0.61373,0.88553 1.20331,1.78384 1.7535,2.6807 0.70609,1.14638 1.35967,2.30964 1.93563,3.48256 0.87539,1.9405 1.74403,3.67605 2.09748,5.27304 0.35764,1.30066 0.66648,2.91533 0.28208,4.32115 -0.44297,2.26664 -3.09621,4.67282 -5.77182,6.58295 2.9193,1.50648 7.1312,2.40678 11.82867,-0.021 3.30135,-1.97326 5.91107,-5.40836 6.82944,-9.53964 0.94859,-4.12285 0.68872,-8.34361 -0.51911,-12.05383 -0.69736,-2.27928 -1.67897,-4.45408 -2.909,-6.47075 z"
         id="path8"
         inkscape:path-effect="#path-effect9"
         inkscape:original-d="m 126.20625,125.67708 c 25.8486,-41.493237 63.14221,19.69922 31.48541,21.96042"
         transform="matrix(0.37559654,0,0,0.38553887,0.23012405,54.153716)"
         class="UnoptimicedTransforms" />
      <path
         style="opacity:1;fill:#33bc00;fill-opacity:1;stroke:none;stroke-width:0.264583;stroke-opacity:1"
         d="m 32.803855,111.60147 c 2.40248,0.62349 4.96514,0.94316 7.53297,1.17554 -2.30456,0.12552 -4.62439,0.18408 -6.92199,-0.001 -0.76069,-0.0613 -1.51894,-0.14927 -2.27339,-0.27038 h -10e-6 c -2.2123,-0.35513 -4.4314,-1.03093 -6.20202,-2.40387 -1.64808,-1.2779 -2.75707,-3.16231 -3.33185,-5.16706 -0.0352,-0.12282 -0.0689,-0.24597 -0.10098,-0.36943 0.0141,0.12814 0.0299,0.25641 0.0473,0.38482 0.28477,2.09805 1.14317,4.23152 2.79261,5.91636 v 1e-5 c 1.77126,1.76009 4.14,2.8882 6.48634,3.56178 v 0 c 0.29863,0.0894 0.5984,0.17416 0.89908,0.2545 -0.34503,0.32273 -0.7066,0.62446 -1.085,0.90372 -2.63443,1.95502 -6.23786,2.64414 -10.39452,0.56003 v 0 c -1.63144,-0.9882 -3.00104,-2.28405 -4.00562,-3.76024 -1.14327,-1.68692 -1.76618,-3.53829 -1.87426,-5.37722 -0.20514,-5.16684 2.66342,-8.554656 6.66232,-10.634766 5.02509,3.2348 8.25737,8.570306 11.76902,15.227206 z"
         id="path9"
         sodipodi:nodetypes="ccsssssccssssccsscccc" />
      <path
         style="opacity:1;fill:#33bc00;fill-opacity:1;stroke:none;stroke-width:0.264583;stroke-opacity:1"
         d="m 188.50538,172.0265 c -1.72041,0.1569 -3.43368,0.59382 -5.04494,1.30448 -4.51346,2.04668 -7.32118,5.9913 -7.86616,10.31558 -2.50295,2.18779 -4.54561,4.7995 -5.99678,7.64691 1.5925,-2.38927 3.60102,-4.48824 5.89555,-6.20325 2.84079,-2.12331 6.11999,-3.65807 9.59088,-4.42655 2.86751,-0.63488 5.79667,-0.84437 8.73139,-0.75462 -2.94523,0.25401 -5.8148,0.80596 -8.50829,1.76228 -2.69363,0.94822 -5.14146,2.38076 -7.23687,4.14461 3.38166,0.9524 6.37996,1.80542 8.63752,2.18153 1.08619,0.11254 2.14213,0.13325 3.21802,0.0421 4.07694,-0.36037 9.08587,-2.55459 14.0707,-6.81225 -2.79655,-5.89509 -8.42594,-9.83573 -15.49102,-9.20078 z"
         id="path11"
         inkscape:path-effect="#path-effect12"
         inkscape:original-d="m 169.59791,191.29375 c 8.14286,-12.21696 21.68821,-12.77723 34.39584,-10.05417"
         transform="translate(-124.79789,-105.18819)"
         class="UnoptimicedTransforms" />
    </g>
    <path
       inkscape:original-d="M 0,0"
       inkscape:path-effect="#path-effect1387"
       d="M 0,0"
       id="path1389"
       class="UnoptimicedTransforms"
       transform="matrix(1.0004063,0,0,0.9999982,-20.654903,106.92609)"
       style="clip-rule:evenodd;fill-rule:nonzero;stroke-linecap:round;stroke-linejoin:round" />
    <text
       xml:space="preserve"
       style="font-style:normal;font-weight:normal;font-size:47.5054px;line-height:0;font-family:sans-serif;letter-spacing:0px;word-spacing:0px;clip-rule:evenodd;fill:#006b7b;fill-opacity:1;fill-rule:nonzero;stroke:none;stroke-width:1.32292;stroke-linecap:round;stroke-linejoin:round;stroke-miterlimit:10;stroke-dasharray:none"
       x="12.495953"
       y="157.40631"
       id="text2729"
       transform="scale(0.94522255,1.0579519)"><tspan
         sodipodi:role="line"
         id="tspan2727"
         x="12.495953"
         y="157.40631"
         style="font-style:normal;font-variant:normal;font-weight:normal;font-stretch:normal;font-size:47.5054px;line-height:0;font-family:Ubuntu;-inkscape-font-specification:Ubuntu;fill:#006b7b;fill-opacity:1;stroke:#006b7b;stroke-width:1.32292;stroke-miterlimit:10;stroke-dasharray:none;stroke-opacity:1" /></text>
    <text
       xml:space="preserve"
       style="font-size:50.8px;font-family:'Cambria Math';-inkscape-font-specification:'Cambria Math';clip-rule:evenodd;fill:#006b7b;fill-opacity:1;fill-rule:nonzero;stroke:#006b7b;stroke-width:1.32292;stroke-linecap:round;stroke-linejoin:round;stroke-dasharray:none;stroke-opacity:1"
       x="31.786184"
       y="186.0278"
       id="text392-8"><tspan
         sodipodi:role="line"
         id="tspan390-3"
         x="31.786184"
         y="186.0278"
         style="font-style:normal;font-variant:normal;font-weight:normal;font-stretch:normal;font-size:50.8px;font-family:'EB Garamond';-inkscape-font-specification:'EB Garamond';fill:#006b7b;fill-opacity:1;stroke:#006b7b;stroke-width:1.32292;stroke-dasharray:none;stroke-opacity:1" /></text>
    <g
       id="svg108"
       transform="matrix(0.26458333,0,0,0.26458333,-54.918602,215.66533)"
       style="fill:#006241;fill-opacity:1;stroke:#006241;stroke-opacity:1">
      <g
         id="Layer-1"
         vectornator:layerName="Layer 1"
         transform="translate(2)"
         style="clip-rule:evenodd;fill:#006241;fill-opacity:1;fill-rule:nonzero;stroke:#006241;stroke-linecap:round;stroke-linejoin:round;stroke-opacity:1">
        <path
           inkscape:original-d="M 0,0"
           inkscape:path-effect="#path-effect1387-3"
           d="M 0,0"
           id="path1389-7"
           class="UnoptimicedTransforms"
           transform="matrix(3.7810632,0,0,3.7795208,-13.659055,-147.78634)"
           style="fill:#006241;fill-opacity:1;stroke:#006241;stroke-opacity:1" />
        <text
           xml:space="preserve"
           style="font-size:192px;font-family:'Cambria Math';-inkscape-font-specification:'Cambria Math';fill:#006241;fill-opacity:1;stroke:#006241;stroke-width:5;stroke-dasharray:none;stroke-opacity:1"
           x="83.102226"
           y="233.05441"
           id="text392-8-2"><tspan
             sodipodi:role="line"
             id="tspan390-3-2"
             x="83.102226"
             y="233.05441"
             style="font-style:normal;font-variant:normal;font-weight:normal;font-stretch:normal;font-size:192px;font-family:'EB Garamond';-inkscape-font-specification:'EB Garamond';fill:#006241;fill-opacity:1;stroke:#006241;stroke-width:5;stroke-dasharray:none;stroke-opacity:1" /></text>
        <text
           xml:space="preserve"
           style="font-style:normal;font-weight:normal;font-size:269.747px;line-height:0;font-family:sans-serif;letter-spacing:0px;word-spacing:0px;clip-rule:evenodd;fill:#006241;fill-opacity:1;fill-rule:nonzero;stroke:#006241;stroke-width:7.51184;stroke-linecap:round;stroke-linejoin:round;stroke-miterlimit:10;stroke-dasharray:none;stroke-opacity:1"
           x="450.23154"
           y="-361.77408"
           id="text2729-5"
           transform="scale(0.95611044,1.0459043)"><tspan
             sodipodi:role="line"
             id="tspan2727-9"
             x="450.23154"
             y="-361.77408"
             style="font-style:normal;font-variant:normal;font-weight:normal;font-stretch:normal;font-size:269.747px;line-height:0;font-family:Ubuntu;-inkscape-font-specification:Ubuntu;fill:#006241;fill-opacity:1;stroke:#006241;stroke-width:7.51184;stroke-miterlimit:10;stroke-dasharray:none;stroke-opacity:1"
             dx="0 0 -132.01112 -14.723721"
             dy="0 0 140.17999">f<tspan
   style="font-size:202.667px;line-height:0;fill:#006241;fill-opacity:1;stroke:#006241;stroke-width:7.51184;stroke-dasharray:none;stroke-opacity:1"
   id="tspan4880"
   rotate="180 0"
   dx="154.49001"
   dy="-140.17999">A</tspan>μn</tspan></text>
      </g>
    </g>
    <path
       style="opacity:1;fill:#33bc00;stroke-width:0.7;stroke-linecap:round"
       d="m 89.254584,159.32956 c -1.259826,-0.15179 -2.49061,-0.008 -3.624923,0.38721 -1.507445,0.5201 -2.846515,1.45212 -3.905786,2.70936 -1.612558,0.25423 -3.205261,0.58256 -4.771151,0.98179 1.438798,-0.2033 2.886384,-0.34665 4.33741,-0.42945 1.418405,-0.0809 2.840097,-0.10403 4.26008,-0.0687 1.864322,0.0464 3.733702,0.19975 5.553276,0.60592 -1.864145,-0.2065 -3.722613,-0.14925 -5.568547,0.008 -1.109923,0.0954 -2.212981,0.22702 -3.306814,0.39365 1.021652,0.93794 2.114853,1.67669 3.242624,2.18616 0.971555,0.44587 1.93853,0.71442 2.87905,0.82462 0.731578,0.0835 1.446678,0.0726 2.172858,-0.0123 1.641736,-0.10582 3.111196,-0.97414 5.253103,-1.276 0.133641,-2.23821 -1.621779,-4.44817 -3.681536,-5.4328 -0.897763,-0.46507 -1.866094,-0.75873 -2.839644,-0.87733 z"
       id="path425"
       inkscape:original-d="m 76.952757,163.40815 c 2.167513,-0.30626 14.486039,-1.76743 18.818955,2.23592"
       inkscape:path-effect="#path-effect440"
       class="UnoptimicedTransforms"
       sodipodi:nodetypes="cc"
       transform="translate(25.979209,-5.3236083)" />
    <path
       style="opacity:1;fill:#33bc00;stroke-width:0.7;stroke-linecap:round"
       d="m 160.60476,168.27424 c 2.3517,0.43649 4.78065,0.83936 7.29496,1.03304 0,0 0,0 0,0 2.50687,0.20683 5.01545,0.21252 7.43279,-0.16685 2.00681,-0.30169 3.89125,-0.90128 5.41309,-1.84095 0.31923,-0.067 0.6366,-0.1449 0.95148,-0.2348 0,0 0,0 0,0 1.85691,-0.53195 3.56237,-1.57435 4.77787,-3.0389 0,0 0,0 0,0 1.51051,-1.83703 2.25395,-4.12407 2.64648,-6.39369 -0.48892,2.24867 -1.32767,4.48476 -2.8665,6.19581 -1.15222,1.28115 -2.70138,2.17198 -4.36205,2.63595 -0.10689,0.0299 -0.21424,0.058 -0.32198,0.0843 -1.96298,0.47949 -4.01596,0.46312 -6.02834,0.28028 l 0,0 c -2.32184,-0.21094 -4.61624,-0.65285 -6.89955,-1.12392 -4.53982,-0.93662 -9.07752,-2.07987 -13.70143,-2.29045 4.63294,0.0123 9.25965,0.9647 13.82191,1.70648 0,0 1e-5,0 1e-5,0 2.29852,0.37128 4.58845,0.71104 6.86015,0.81541 1.26895,0.0544 2.52864,0.0464 3.73289,-0.10743 -1.21644,-0.38434 -2.32585,-0.82908 -3.60386,-1.3128 -1.88577,-0.73163 -4.17413,-1.66871 -6.36625,-2.41458 0,0 0,0 0,0 -2.25577,-0.78769 -4.69361,-1.51177 -7.29569,-1.97834 -2.55482,-0.45553 -5.21721,-0.65236 -7.89104,-0.43304 0,0 0,0 0,0 -2.68187,0.21318 -5.3016,0.96382 -7.51552,2.27551 -2.60361,1.55718 -4.21546,3.79355 -4.88518,5.91917 2.07259,-0.81134 4.26612,-1.28805 6.41484,-1.315 1.88479,-0.0516 3.75438,0.20487 5.83165,0.51713 0,0 0,0 0,0 2.16488,0.32586 4.1994,0.74816 6.55927,1.18769 z"
       id="path476"
       inkscape:path-effect="#path-effect491"
       inkscape:original-d="m 189.12118,157.63204 c -4.80004,22.07648 -34.03263,-3.96659 -47.32688,10.24795"
       class="UnoptimicedTransforms"
       sodipodi:nodetypes="cc" />
    <path
       style="opacity:1;fill:#33bc00;stroke-width:0.7;stroke-linecap:round"
       d="m 90.177869,173.11813 c -2.833265,0.98551 -5.366267,2.3253 -7.631034,3.7308 -4.232927,2.51174 -7.497563,5.24706 -10.814656,7.35005 -0.258347,0.0587 -0.517946,0.11304 -0.778896,0.16264 0,0 0,0 0,0 -2.050388,0.39249 -4.182307,0.45507 -6.23742,0.0146 0,0 0,0 -10e-7,0 -2.306407,-0.49026 -4.487051,-1.61103 -6.395569,-3.08097 1.847536,1.54296 3.992936,2.76029 6.324763,3.35746 1.896093,0.48558 3.883511,0.55331 5.828374,0.31871 0.187205,-0.0226 0.374016,-0.048 0.560313,-0.076 4.587206,-0.69144 8.831395,-2.77114 13.046913,-4.70775 4.35722,-2.00172 8.787429,-4.04426 13.535645,-4.71297 l 10e-7,0 c 0.242766,-0.0342 0.4862,-0.0644 0.730122,-0.0904 -0.242892,0.0357 -0.48497,0.0755 -0.726067,0.11919 -4.716225,0.85514 -9.008674,3.05947 -13.290149,5.22738 0,0 -10e-7,0 -10e-7,0 -3.492896,1.78235 -7.045351,3.6785 -10.95812,4.78246 3.927088,0.35092 8.091683,-0.5973 12.24264,-1.98639 2.603055,-0.82251 4.944844,-1.74782 7.324147,-2.60746 1.806377,-0.65476 3.50324,-1.22095 5.216045,-1.62029 1.961001,-0.48449 3.903151,-0.79217 5.826651,-0.81225 2.40145,-0.10619 4.99735,0.3456 7.46781,0.97955 0.71043,0.19726 0.76347,0.10389 0.32825,0.002 0,0 0,0 0,0 0.0201,-0.1209 0.1634,0.0125 0.3484,0.13939 0.15785,0.14546 0.3413,0.20002 0.42151,0.38346 0.0796,-0.1849 0.0157,-0.45183 -0.0157,-0.62432 1.8e-4,-0.18464 -0.023,-0.43645 -0.33996,-0.72659 0,0 0,0 0,0 -0.55913,-0.16229 -0.67938,-0.10577 -0.0422,0.004 -1.37693,-2.14544 -3.65136,-4.3108 -6.89813,-5.71435 -2.48574,-1.02949 -5.303745,-1.47753 -8.174095,-1.28142 -2.399813,0.18106 -4.716457,0.71187 -6.899526,1.47001 z"
       id="path527"
       inkscape:path-effect="#path-effect542"
       inkscape:original-d="m 58.32013,181.29548 c 16.79832,14.02899 34.071487,-16.23726 53.47564,-2.23591 0.0439,0.0439 0.13078,-0.0278 0.18633,0 0.16541,0.0827 0.55898,0.75578 0.55898,0.93163"
       class="UnoptimicedTransforms"
       transform="translate(13.788146,-4.0991784)"
       sodipodi:nodetypes="cccc" />
    <path
       style="opacity:1;fill:#33bc00;stroke-width:0.7;stroke-linecap:round"
       d="m 180.42581,180.34606 c -0.94229,-0.25747 -1.90981,-0.46836 -2.89647,-0.62218 -2.18432,-0.34848 -4.51338,-0.37179 -6.77714,0.10719 -2.19157,0.42381 -4.25374,1.51092 -5.61657,3.04954 -0.63452,0.74173 -1.04254,1.53536 -1.27175,2.31118 -0.71,0.85686 -1.23784,1.84595 -1.58027,2.87618 -0.83871,2.53376 -0.81169,5.19574 -0.55264,7.76097 -0.1233,-2.57174 -0.007,-5.21494 0.93226,-7.61222 0.25288,-0.64539 0.58063,-1.26551 0.97813,-1.83406 0.60612,-0.86696 1.37442,-1.61399 2.28669,-2.14778 1.46906,-0.85958 3.2,-1.18125 4.90153,-1.22263 l 0,0 c 1.96402,-0.0478 3.92246,0.24885 5.84243,0.6652 l 0,0 c 2.60425,0.56473 5.1446,1.37164 7.67915,2.20072 -2.57833,-0.69525 -5.16011,-1.36772 -7.76861,-1.7882 0,0 0,0 0,0 -1.9248,-0.30946 -3.85934,-0.49749 -5.73514,-0.34463 0,0 0,0 0,0 -1.61884,0.13967 -3.20049,0.52091 -4.41286,1.35517 -0.27107,0.17761 -0.52421,0.38039 -0.75925,0.60379 0.35448,-0.0696 0.70466,-0.10966 1.04554,-0.1145 1.40626,-0.0843 2.71821,0.26794 4.18613,0.60426 1.54441,0.38187 3.13595,0.9291 4.90758,1.43749 0.78889,0.23091 1.60088,0.46629 2.42057,0.69262 2.94634,0.80925 6.07209,1.52156 9.27976,1.70053 0,0 1e-5,0 1e-5,0 1.71337,0.10227 3.51535,0.0821 5.20331,-0.34356 0.64078,-0.15352 1.31366,-0.38778 1.87691,-0.75079 0.46003,-0.27672 0.83899,-0.7109 0.93633,-1.1445 -0.42679,0.12327 -0.81027,-0.004 -1.15749,-0.14178 -0.46418,-0.18809 -0.84808,-0.47122 -1.31627,-0.76064 -1.19959,-0.76311 -2.34183,-1.67316 -3.77772,-2.54099 0,0 0,-1e-5 0,-1e-5 -2.5396,-1.58924 -5.49226,-3.07529 -8.85415,-3.99637 z"
       id="path544"
       inkscape:path-effect="#path-effect559"
       inkscape:original-d="m 161.73122,195.82893 c -1.24237,-25.91404 29.81602,-3.8097 33.80491,-8.03865"
       class="UnoptimicedTransforms"
       transform="translate(-54.64684,-0.71868711)"
       sodipodi:nodetypes="cc" />
  </g>
</svg>
