<?xml version="1.0" encoding="UTF-8" standalone="no"?>
<!-- Created with Inkscape (http://www.inkscape.org/) -->

<svg
   xmlns:osb="http://www.openswatchbook.org/uri/2009/osb"
   xmlns:dc="http://purl.org/dc/elements/1.1/"
   xmlns:cc="http://creativecommons.org/ns#"
   xmlns:rdf="http://www.w3.org/1999/02/22-rdf-syntax-ns#"
   xmlns:svg="http://www.w3.org/2000/svg"
   xmlns="http://www.w3.org/2000/svg"
   xmlns:sodipodi="http://sodipodi.sourceforge.net/DTD/sodipodi-0.dtd"
   xmlns:inkscape="http://www.inkscape.org/namespaces/inkscape"
   width="73mm"
   height="62mm"
   viewBox="0 0 73 62"
   version="1.1"
   id="svg8"
   inkscape:version="0.92.3 (2405546, 2018-03-11)"
   sodipodi:docname="logo.svg"
   inkscape:export-filename="/home/phdp/Dropbox/Photos/Logos/conjunction/logo.svg.png"
   inkscape:export-xdpi="96"
   inkscape:export-ydpi="96">
  <defs
     id="defs2">
    <linearGradient
       id="linearGradient6002"
       osb:paint="solid">
      <stop
         style="stop-color:#000000;stop-opacity:1;"
         offset="0"
         id="stop6000" />
    </linearGradient>
    <linearGradient
       id="linearGradient4532"
       osb:paint="solid">
      <stop
         style="stop-color:#000000;stop-opacity:1;"
         offset="0"
         id="stop4530" />
    </linearGradient>
    <linearGradient
       id="linearGradient4526"
       osb:paint="solid">
      <stop
         style="stop-color:#2fb300;stop-opacity:1;"
         offset="0"
         id="stop4524" />
    </linearGradient>
  </defs>
  <sodipodi:namedview
     id="base"
     pagecolor="#ffffff"
     bordercolor="#666666"
     borderopacity="1.0"
     inkscape:pageopacity="0.0"
     inkscape:pageshadow="2"
     inkscape:zoom="2.8284271"
     inkscape:cx="113.36789"
     inkscape:cy="124.7437"
     inkscape:document-units="mm"
     inkscape:current-layer="layer1"
     showgrid="false"
     inkscape:window-width="1920"
     inkscape:window-height="996"
     inkscape:window-x="0"
     inkscape:window-y="28"
     inkscape:window-maximized="1"
     inkscape:measure-start="0,0"
     inkscape:measure-end="0,0" />
  <metadata
     id="metadata5">
    <rdf:RDF>
      <cc:Work
         rdf:about="">
        <dc:format>image/svg+xml</dc:format>
        <dc:type
           rdf:resource="http://purl.org/dc/dcmitype/StillImage" />
        <dc:title />
      </cc:Work>
    </rdf:RDF>
  </metadata>
  <g
     inkscape:label="Layer 1"
     inkscape:groupmode="layer"
     id="layer1"
     transform="translate(0,-235)">
    <path
       inkscape:connector-curvature="0"
       style="fill:#005555;fill-opacity:1;stroke:none;stroke-width:0.52999997;stroke-linecap:round;stroke-linejoin:miter;stroke-miterlimit:4;stroke-dasharray:none;stroke-opacity:1"
       d="M 31.000236,236.0006 1,296 h 47.472038 c -7.4168,0 -12.293824,-5.84172 -12.293824,-13.10612 0,-7.07592 4.627856,-12.80038 11.722282,-13.09276 z m 16.90026,33.80052 1.736328,3.47266 c 5.22159,0.33348 8.130764,4.59672 8.130764,9.6201 0,1.69286 -0.33451,3.2968 -0.971508,4.69736 l 4.000788,8.00264 h 0.57774 v -25.4 h -3.80959 v 4.11442 c -1.879596,-2.7432 -4.87658,-4.52062 -9.09298,-4.52062 -0.19244,0 -0.382556,0.006 -0.571542,0.014 z m 12.896372,25.79276 h -3.23185 v -4.06384 C 55.685422,294.27324 52.688438,296 48.472038,296 h 12.52843 z m -4.000788,-8.00264 -7.159256,-14.31746 c -0.217276,-0.014 -0.43206,-0.0322 -0.657324,-0.0322 -5.6388,0 -8.9917,4.41976 -8.9917,9.65216 0,5.2324 3.3529,9.6521 8.9917,9.6521 3.814452,0 6.484698,-2.02638 7.81658,-4.95474 z M 67.862068,260.9479 v 4.9785 h 4.11448 v -4.9785 z m 0.15296,9.24598 v 25.4 h 3.80959 v -25.4 z"
       id="path6071-1" />
  </g>
</svg>
