<?xml version="1.0" encoding="UTF-8" standalone="no"?>
<!-- Created with Inkscape (http://www.inkscape.org/) -->

<svg
   xmlns:dc="http://purl.org/dc/elements/1.1/"
   xmlns:cc="http://creativecommons.org/ns#"
   xmlns:rdf="http://www.w3.org/1999/02/22-rdf-syntax-ns#"
   xmlns:svg="http://www.w3.org/2000/svg"
   xmlns="http://www.w3.org/2000/svg"
   xmlns:sodipodi="http://sodipodi.sourceforge.net/DTD/sodipodi-0.dtd"
   xmlns:inkscape="http://www.inkscape.org/namespaces/inkscape"
   width="225"
   height="225"
   id="svg2372"
   sodipodi:version="0.32"
   inkscape:version="0.48.4 r9939"
   version="1.0"
   sodipodi:docname="conquer-ai.svg"
   inkscape:output_extension="org.inkscape.output.svg.inkscape">
  <defs
     id="defs2374" />
  <sodipodi:namedview
     id="base"
     pagecolor="#ffffff"
     bordercolor="#666666"
     borderopacity="1.0"
     gridtolerance="10000"
     guidetolerance="10"
     objecttolerance="10"
     inkscape:pageopacity="0.0"
     inkscape:pageshadow="2"
     inkscape:zoom="2"
     inkscape:cx="292.56641"
     inkscape:cy="85.321428"
     inkscape:document-units="px"
     inkscape:current-layer="layer1"
     inkscape:window-width="3200"
     inkscape:window-height="1687"
     inkscape:window-x="0"
     inkscape:window-y="55"
     width="400px"
     height="400px"
     showgrid="false"
     inkscape:window-maximized="1" />
  <metadata
     id="metadata2377">
    <rdf:RDF>
      <cc:Work
         rdf:about="">
        <dc:format>image/svg+xml</dc:format>
        <dc:type
           rdf:resource="http://purl.org/dc/dcmitype/StillImage" />
        <dc:title></dc:title>
      </cc:Work>
    </rdf:RDF>
  </metadata>
  <g
     inkscape:label="Layer 1"
     inkscape:groupmode="layer"
     id="layer1"
     transform="translate(-20.06727,-101.91845)">
    <path
       style="fill:#571f15;fill-opacity:1;fill-rule:nonzero;stroke:none"
       d="m 138.47168,134.92648 c -0.69592,0.0758 -1.41742,0.41624 -2.23179,1.12782 -1.53794,1.68594 -2.8575,3.47351 -3.77723,5.59368 -1.66625,3.48052 -3.21806,7.01625 -4.86379,10.50649 -2.13589,4.69613 -4.35288,9.38839 -7.14829,13.73507 -2.25443,3.3121 -4.63235,6.54752 -7.63727,9.23089 -1.15513,1.13664 -2.74518,2.30614 -3.37882,3.69296 -0.4707,1.03019 1.3242,2.72008 2.33483,2.20876 1.41962,-0.71824 2.50741,-2.31419 3.58948,-3.54305 2.51359,-3.35955 4.40879,-7.12224 6.36318,-10.82044 2.45576,-4.58102 4.94122,-9.16779 7.47545,-13.7058 1.76795,-3.38392 3.80727,-6.5884 6.00943,-9.70213 0.8881,-1.52938 2.18009,-2.57748 3.53983,-3.60245 1.04353,1.30125 1.53084,3.01676 2.13683,4.56288 0.8522,2.21372 1.54975,4.47652 2.18108,6.76112 0.59901,2.27482 1.9771,3.20446 4.02096,4.01276 1.31283,0.2708 2.5548,-0.11117 3.82109,-0.41482 0.13602,-0.12201 0.14619,-0.12336 0.19725,-0.1726 -0.0732,0.0768 -0.0821,0.12412 0.28959,-0.11783 3.22757,1.77525 5.88222,4.29881 8.40032,6.94989 3.07232,3.4291 5.4068,7.37702 7.44515,11.48126 0.92587,1.59712 1.50017,3.30193 1.88664,5.04361 -0.34274,0.0669 -0.69488,0.13108 -1.03673,0.19894 -2.64748,0.85176 -2.82257,2.8146 -2.24672,5.16834 0.33081,1.09149 0.72173,2.15837 1.16806,3.19936 -0.59616,-0.22235 -1.18349,-0.44761 -1.7791,-0.6708 -1.57144,-0.50159 -3.18084,-0.5563 -4.80986,-0.53616 -1.78067,-0.0182 -3.08673,0.70654 -4.45516,1.73636 -0.5651,0.69035 -1.20873,1.29512 -1.84488,1.90655 -0.67787,0.41407 -1.49624,0.27358 -2.25581,0.30969 -2.27925,-0.27832 -4.55617,-0.39471 -6.84245,-0.35871 -2.76046,0.95349 -3.41554,3.38199 -4.48449,5.84325 -0.95215,2.45677 -2.54273,4.29282 -4.49192,5.97364 -1.4015,1.04936 -2.9554,1.0116 -4.56738,1.10059 -1.30442,-0.33482 -1.7355,-1.36618 -2.44107,-2.39161 -0.75525,-1.44136 -1.25517,-2.99197 -1.82871,-4.50993 -0.65319,-2.14781 -1.99523,-3.70481 -3.52936,-5.25404 -2.16315,-1.65719 -4.50794,-1.67144 -7.08591,-1.60658 -1.74564,0.19268 -3.47643,0.46134 -5.22303,0.6318 0.0237,-0.33066 -0.86523,-1.13583 -1.13209,-1.47538 -1.17239,-1.19996 -2.49413,-1.34559 -4.06771,-1.45907 -0.0235,-4.2e-4 -0.0409,0.007 -0.064,0.007 -0.008,-7e-5 -0.0137,0.002 -0.0214,0.002 -0.61695,-0.1004 -1.14293,-0.0549 -1.40426,0.19564 -0.87575,0.27769 -1.39692,0.87109 -2.13165,1.85129 -0.052,0.0694 -0.0307,0.16875 0.0255,0.23482 0.34186,0.40161 0.65803,0.75319 0.97669,1.03868 -0.30234,0.53436 -0.61878,1.0544 -0.90975,1.56746 -2.0552,3.34479 -4.605152,6.3414 -7.224732,9.2509 -3.52142,3.92985 -7.27594,7.63093 -10.94118,11.42543 -3.68105,3.89339 -7.56308,7.60644 -11.37969,11.36504 -3.78401,3.55625 -7.53449,7.14487 -11.34712,10.67036 -3.66027,3.6091 -7.4589,7.06519 -11.25429,10.53069 -4.04357,3.87893 -8.31209,7.48902 -12.74675,10.90869 -3.5195,2.40554 -7.11384,4.71446 -10.78742,6.87306 -5.12386,5.40479 1.21912,7.79174 6.35299,6.39461 6.17293,-2.15406 12.43332,-3.85818 18.88028,-4.94383 3.24272,-0.48353 6.51461,-0.88095 9.77406,-0.88828 -1.33422,2.53654 -2.80291,4.98731 -3.99097,7.60394 -2.09129,4.65929 -0.23143,8.47969 4.85416,9.30031 4.32753,-0.68251 8.50014,-2.07983 12.81899,-2.88191 3.43818,-0.46746 6.89853,-0.63269 10.35273,-0.92951 3.81043,-0.42922 7.61348,-0.87099 11.44838,-0.98365 1.82792,-0.22454 3.565772,-0.0691 5.201542,0.36406 -0.0758,0.16181 -0.12789,0.28805 -0.22653,0.49975 -1.79664,2.83168 -3.697962,5.43807 -3.591122,8.89963 1.413432,4.5523 5.428812,3.49611 8.905382,2.2514 2.77693,-1.11419 5.6634,-1.64742 8.61681,-1.79937 0.82758,0.41224 1.04912,0.81412 1.63186,1.70191 1.69858,2.35817 4.04039,3.94714 6.50486,5.40619 2.20693,1.27954 4.55027,1.93152 6.98002,2.22283 -0.42592,0.17037 -0.83822,0.34431 -1.26044,0.5256 -1.99253,1.19901 -3.46307,2.60857 -5.62853,3.46203 -0.0807,0.0318 0.009,0.25967 0.0895,0.22786 2.14,-0.84343 4.10333,-0.81086 6.38369,-1.08178 4.83113,-1.10198 9.64445,-2.37209 14.59492,-2.83713 4.10123,-0.4336 8.36674,-0.1413 12.28933,-1.59331 3.11536,-1.611 3.99359,-3.94336 2.75931,-7.21105 -0.65365,-1.96566 -1.30499,-3.56777 0.5125,-4.82889 1.93047,-1.39395 4.13947,-2.31063 6.52314,-2.7816 6.53295,-1.77465 13.11021,-3.36397 19.79905,-4.43882 8.12465,-1.23506 16.34745,-2.09781 24.5008,-0.52155 1.18152,0.1785 2.99419,0.44868 4.64786,0.83453 0.57127,1.20948 1.4297,1.97484 2.40435,2.84916 1.43665,0.99674 3.01144,0.96126 4.66641,1.00531 4.73574,-0.16081 5.98938,-7.12706 2.28214,-9.81586 -0.47293,-0.10222 -0.94795,-0.17671 -1.42925,-0.23361 0.0223,0.0195 0.0493,0.0357 0.071,0.0571 -0.0671,-0.028 -0.13535,-0.0603 -0.20371,-0.0859 -1.06399,-0.11705 -2.13708,-0.12827 -3.22703,-0.0816 0.36464,-0.2836 0.85599,-0.44882 1.46184,-0.46107 0.22377,0.054 0.45026,0.0666 0.68029,0.0989 -0.0531,-0.0287 -0.10996,-0.0578 -0.16102,-0.0905 -1.53348,-0.96107 -3.05742,-1.9227 -4.32641,-3.24525 -2.42692,-2.4924 -4.66025,-5.11244 -6.91152,-7.75947 -3.33996,-4.35431 -6.71371,-8.70188 -9.35354,-13.54192 -3.77175,-6.23118 -7.42056,-12.52316 -10.99047,-18.87182 -3.47456,-6.43619 -6.79323,-12.96609 -10.41313,-19.32327 -2.65488,-4.7266 -5.47348,-9.35485 -8.11676,-14.08656 -1.14107,-2.15458 -2.07965,-4.42375 -2.38479,-6.84699 0.32661,-0.0859 0.64098,-0.17271 0.96342,-0.27738 2.16199,-1.16657 3.40027,-2.66098 2.28942,-5.17297 -1.55254,-2.07693 -3.40019,-3.89051 -4.96692,-5.96193 -2.81774,-3.69342 -5.4198,-7.54267 -8.25914,-11.22011 -2.3229,-2.98925 -4.78046,-5.87566 -6.79672,-9.08943 -1.39433,-1.38893 -2.41095,-2.33208 -4.51966,-1.84198 -0.44721,0.10172 -0.86093,0.28831 -1.32862,0.29542 -0.3647,-0.17538 -0.94676,-0.1523 -1.09418,-0.52916 -1.18096,-1.9434 -2.19395,-3.9572 -2.84893,-6.14866 -0.64306,-2.2656 -1.07849,-4.63799 -2.15742,-6.74208 -1.28352,-0.91962 -2.38394,-1.53431 -3.5438,-1.40796 z"
       id="path3558"
       inkscape:connector-curvature="0" />
    <text
       xml:space="preserve"
       style="font-size:40px;font-style:normal;font-variant:normal;font-weight:normal;font-stretch:normal;line-height:125%;letter-spacing:0px;word-spacing:0px;fill:#005c8d;fill-opacity:1;stroke:none;font-family:Montserrat;-inkscape-font-specification:Montserrat"
       x="204.6125"
       y="254.64722"
       id="text2990"
       sodipodi:linespacing="125%"><tspan
         sodipodi:role="line"
         id="tspan2992"
         x="204.6125"
         y="254.64722"
         style="font-size:144px;font-style:normal;font-weight:bold;fill:#005c8d;fill-opacity:1;-inkscape-font-specification:Montserrat Bold"><tspan
           style="fill:#571f15;fill-opacity:1"
           id="tspan3006">i</tspan></tspan></text>
  </g>
</svg>
