<?xml version="1.0" encoding="UTF-8" standalone="no"?>
<!-- Created with Inkscape (http://www.inkscape.org/) -->

<svg
   xmlns:dc="http://purl.org/dc/elements/1.1/"
   xmlns:cc="http://creativecommons.org/ns#"
   xmlns:rdf="http://www.w3.org/1999/02/22-rdf-syntax-ns#"
   xmlns:svg="http://www.w3.org/2000/svg"
   xmlns="http://www.w3.org/2000/svg"
   xmlns:sodipodi="http://sodipodi.sourceforge.net/DTD/sodipodi-0.dtd"
   xmlns:inkscape="http://www.inkscape.org/namespaces/inkscape"
   version="1.1"
   width="313"
   height="313"
   id="svg3058"
   xml:space="preserve"
   inkscape:version="0.92.3 (2405546, 2018-03-11)"
   sodipodi:docname="gryffon-ai.svg"><sodipodi:namedview
   pagecolor="#ffffff"
   bordercolor="#666666"
   borderopacity="1"
   objecttolerance="10"
   gridtolerance="10"
   guidetolerance="10"
   inkscape:pageopacity="0"
   inkscape:pageshadow="2"
   inkscape:window-width="1920"
   inkscape:window-height="996"
   id="namedview8"
   showgrid="false"
   inkscape:zoom="1"
   inkscape:cx="117.31218"
   inkscape:cy="246.98172"
   inkscape:window-x="0"
   inkscape:window-y="28"
   inkscape:window-maximized="1"
   inkscape:current-layer="svg3058" /><metadata
   id="metadata3064"><rdf:RDF><cc:Work
       rdf:about=""><dc:format>image/svg+xml</dc:format><dc:type
         rdf:resource="http://purl.org/dc/dcmitype/StillImage" /><dc:title></dc:title></cc:Work></rdf:RDF></metadata><defs
   id="defs3062" /><path
   inkscape:connector-curvature="0"
   style="fill:#3d85c6;fill-opacity:1;fill-rule:evenodd;stroke:none;stroke-width:0.63828135"
   id="path3068"
   d="m 216.7429,70.51945 c 1.0763,0.60342 3.06519,1.33928 3.94378,1.62403 2.26008,0.73163 4.37263,0.64211 6.49563,2.78387 -1.80753,0.75308 -3.25515,1.11747 -5.56789,0.92797 C 218.86,74.8742 216.74155,72.6415 216.7429,70.51945" /><path
   inkscape:connector-curvature="0"
   style="fill:#4c6170;fill-opacity:1;fill-rule:evenodd;stroke:none;stroke-width:0.63828135"
   id="path3070"
   d="m 212.01811,276.67482 c 0.77638,1.68491 0.7775,4.8487 -2.23566,5.65589 -0.16979,-1.34654 -1.03011,-3.19563 -2.31968,-3.71201 -1.48368,-0.59455 -3.18686,0.26888 -4.87113,0.23203 -2.09356,-0.0466 -5.04592,-1.36577 -6.95973,-2.31993 -0.64179,-0.31889 -1.16677,-0.8884 -1.85589,-1.16095 -2.19537,-0.86232 -5.22481,-0.97337 -7.88875,-1.1588 -3.86855,-0.27007 -7.91206,0.50361 -11.59989,0.46388 -0.68911,-0.008 -1.5535,-0.0561 -2.31975,-0.23209 -0.65544,-0.15088 -1.23755,-0.62329 -1.85588,-0.69613 -2.07825,-0.24359 -4.32947,0.0694 -6.03176,1.62314 -0.83655,-4.0001 2.22703,-6.71631 6.26353,-6.72668 0.13508,-0.50073 0.0848,-1.35564 1.39185,-1.85613 2.95907,-0.98518 5.96617,-1.9229 8.1199,-3.712 0.67283,-1.69448 1.08173,-3.31444 0.92798,-6.03176 -0.32665,-5.76152 -2.00763,-12.90373 -3.01589,-18.56075 -0.51158,-2.87434 -0.95709,-6.85976 -1.15999,-9.74263 -0.59727,0.60883 -1.01207,0.84492 -1.87718,1.1473 -0.30757,-5.92277 1.42911,-13.51369 2.57395,-20.40393 -5.95301,0.40618 -12.42646,0.10316 -16.24027,-0.92791 -2.05719,5.41343 -6.02992,10.38037 -12.09791,13.76876 -3.11106,4.41468 -12.01732,7.94031 -12.91522,11.18126 -0.92814,0.83997 5.86006,16.32373 8.54148,23.30604 3.03646,1.97644 8.09596,4.07456 11.13577,5.79975 2.17575,1.23372 3.19005,5.9594 0.92823,8.58376 -0.73642,0.35074 -3.37237,0.57534 -5.00844,0.0531 -2.17023,0.63413 -5.22593,0.74496 -8.15292,0.45956 -6.65664,-0.81309 -12.38418,-0.31348 -14.91018,-0.97657 -1.20459,-3.16244 -1.22446,-7.18952 -0.44217,-9.77472 0.64546,-1.15529 1.20277,-1.47507 2.38327,-2.26008 -0.81462,-9.47983 -12.07844,-23.08918 -10.08166,-30.36479 8.73895,-11.14695 8.79616,-14.91704 9.06871,-27.66312 -1.88685,-0.66493 -4.50899,-2.22138 -5.65996,-3.05792 -1.34,4.95362 -3.17984,10.25463 -8.46505,14.28146 -4.24322,7.45274 -10.50771,13.0243 -16.177163,17.54388 -2.322226,3.72111 -3.948174,28.08717 -2.875698,32.65407 1.12338,1.04464 2.81754,2.38263 4.017341,3.20043 1.79939,1.78958 1.71769,4.76725 1.30297,6.97825 -1.11499,0.3702 -4.19063,1.61166 -7.988971,-0.19723 -1.17427,1.18417 -7.501389,1.29276 -10.56339,-0.21892 -3.503529,1.09624 -7.424016,0.0742 -8.805014,-0.4263 0.08346,-2.39283 -0.28156,-5.0792 0.719667,-7.07391 1.500595,-0.90038 4.079576,-2.53757 5.329327,-3.09192 1.072475,-6.47951 2.470789,-20.08344 2.766864,-29.04037 0.10404,-2.30482 -0.987656,-4.16454 0,-6.72812 1.903355,-4.93782 4.097128,-10.09362 5.10402,-15.31164 1.377571,-7.13663 2.269335,-13.88757 2.783626,-21.80848 -8.100904,9.62935 -19.341921,24.16868 -33.870796,21.80848 -3.577009,-0.58173 -6.961974,-2.72754 -8.318082,-4.87177 -4.580866,-7.24361 -0.105796,-14.17934 4.580306,-17.78093 -3.49443,-6.76928 2.882639,-11.97782 4.868095,-15.78955 0.441528,0.36095 0.733223,0.93651 0.725562,1.55509 4.630256,-7.51337 16.661376,-9.07341 14.151657,-16.93552 9.426055,1.57048 5.263264,19.45904 1.159754,22.96751 1.334407,-0.11831 2.321111,-0.55482 3.248378,-1.39201 0.977049,6.00256 -6.987268,12.9114 -12.296014,14.38367 -2.199594,0.6102 -5.102181,0.64299 -7.423773,-0.92814 -2.339617,1.01136 -5.442782,6.96078 -4.639983,9.27989 1.006729,2.90865 6.447919,3.36486 9.743841,2.55178 4.484966,-1.10567 8.176622,-3.67491 11.367551,-6.72765 10.929369,-10.24697 13.590842,-17.98374 16.007616,-23.89566 3.421355,-8.3689 8.286092,-15.65065 17.167539,-20.18341 6.73442,-3.43842 15.56289,-6.2862 23.43154,-6.49563 -1.04574,-1.60783 -4.6198,-4.56555 -2.78378,-8.35199 -6.06144,-1.7394 -10.8255,-4.40024 -12.02346,-6.56959 -0.69908,-1.26556 -0.1737,-2.96698 0.42357,-4.10192 -3.5553,-1.13941 -7.97676,-3.01539 -10.00929,-5.28042 -1.62769,-1.82333 -2.47126,-4.43869 -0.66245,-6.7835 -3.90246,-1.75599 -9.267691,-4.69041 -10.20779,-7.4236 -0.757001,-1.83961 -0.477436,-4.39545 0.927895,-5.33588 -3.017235,-1.87647 -18.60598,-7.57664 -16.239394,-12.29601 0.57717,-0.88768 1.557173,-1.07176 2.783862,-1.15975 C 80.738155,86.95849 73.102875,83.97812 69.657985,81.65517 63.528257,77.52207 63.956384,73.83201 70.122257,73.07141 64.834578,70.5644 51.316418,67.69461 50.170464,61.47176 49.324342,56.86801 55.326022,57.24451 57.594472,57.0634 49.315327,53.35793 38.639114,50.05595 36.250825,45.46375 35.178113,42.3187 37.990221,41.06894 40.890732,40.59175 35.112769,37.29765 19.998107,34.7194 18.61942,30.38435 18.078158,26.54612 26.335842,26.23241 28.363343,26.90412 23.07231,23.26475 2.9902242,23.25183 5.1638111,19.54166 16.968425,10.00462 41.690498,12.2773 55.506256,13.6804 c 14.562866,1.47914 29.054248,4.30186 42.918915,9.04764 13.535869,4.6269 30.617869,13.9099 41.906119,25.28774 -0.2214,-2.40815 -0.69205,-4.04534 -1.53898,-6.26385 3.43037,-0.72596 11.37211,10.38971 12.5278,12.99174 0.53782,-1.83602 0.2135,-3.50169 -0.0475,-5.53063 5.42787,1.18489 8.42387,11.31091 7.93536,19.4505 1.02587,-0.44192 2.07617,-2.40639 2.14693,-3.5924 1.74147,2.45635 0.81581,7.44803 -0.059,9.39207 -6.63509,12.08865 -10.47651,19.60314 -9.97577,33.87151 0.40706,11.50486 7.07415,25.35461 19.25551,28.07129 3.96708,-2.4774 7.52869,-5.31369 10.67262,-7.88764 -3.43268,-2.71987 -6.95296,-8.24412 -4.17699,-13.45576 -2.52057,-2.08974 -5.7932,-9.25189 -0.69477,-11.36788 -6.25843,-2.89461 -9.26657,-13.77012 -2.78411,-15.58619 -2.28448,-2.83724 -3.92478,-5.66427 -4.37103,-9.29848 -0.24741,-2.01329 0.79267,-3.16084 2.74629,-3.73617 -4.44842,-2.87386 -11.17631,-13.65117 -4.17564,-17.08209 -2.27427,-3.25467 -4.9679,-6.37052 -7.42401,-9.51191 -1.46844,-1.87901 -4.76325,-6.81501 -0.92797,-8.35223 -1.36394,-2.30299 -13.96345,-11.26789 -7.42401,-14.84754 -2.48412,-4.28334 -9.62864,-6.3801 -10.90353,-8.81586 -3.41752,-6.52866 14.39915,-3.84676 16.7035,-3.47951 17.44479,2.77278 35.82011,12.44641 47.79068,25.7513 5.31521,5.89996 10.26819,13.23213 13.58941,19.64407 -15.0636,-1.05644 -30.70524,-6.86879 -32.90372,-7.42784 0.21302,6.87556 6.52204,11.94615 10.03458,16.55127 -5.21891,12.36813 -4.31877,28.9076 -5.33491,44.31116 1.80992,-9.31612 1.91986,-17.6559 3.01492,-26.91162 0.73186,-6.17401 2.30443,-12.1768 4.40821,-17.6314 -2.48467,-2.45315 -9.95775,-10.72982 -10.20812,-14.3839 8.77063,2.42762 18.90111,6.24406 30.8554,6.26377 6.42662,0.0109 14.27468,-0.0742 18.32865,-3.48015 0.23768,1.61525 0.0719,3.70658 -0.46499,5.80038 3.60549,2.35662 11.65869,8.02017 12.29577,12.75965 5.37928,0.35751 11.03405,2.41174 14.38375,5.56788 2.04833,2.54116 2.27428,6.27893 1.85565,10.67166 -0.92097,-0.70969 -3.8857,-2.63275 -5.33564,-3.01588 -5.13593,-0.49658 -7.90056,1.37829 -12.064,1.85596 -0.99029,4.33848 -3.57357,7.67613 -2.78378,12.06392 2.48459,13.72448 12.03703,25.58695 13.22487,39.43868 -1.51847,-2.27834 -3.3576,-5.10696 -4.872,-6.95965 3.17306,5.46655 5.62374,17.91296 5.56677,26.67928 -0.0271,4.43031 -0.81126,8.23798 -2.31976,12.2949 -0.61745,-1.34343 -1.22876,-2.31753 -1.85612,-3.24702 0.25348,7.09992 0.70762,11.56342 -1.85588,17.86342 -0.55682,1.36871 -2.2347,4.30249 -3.47999,5.33587 -0.0271,-2.25505 -0.77822,-6.0123 -1.39178,-7.42449 -0.8651,5.34154 -2.73096,10.39313 -6.03198,14.15261 -1.25184,1.42664 -3.27981,2.24236 -3.47975,4.17477 -0.81581,3.80606 -1.18513,7.24664 -2.32024,10.90463 -1.48975,4.82492 -3.39127,10.62284 -2.51308,15.59433 0.21798,1.23603 0.58555,2.8015 0.88945,3.89344 -1.52773,-0.41776 -2.43368,-1.07998 -3.48015,-2.08798 0.18383,7.77666 2.79559,17.15133 4.63991,23.8943 0.28339,0.66357 1.22135,1.20682 2.32095,1.85707 5.16912,2.26997 23.64346,4.24147 23.43066,7.19192 2.7139,0.84293 4.16791,1.60464 5.33565,3.71209 0.51245,0.92271 1.09417,1.9158 0.69611,3.01564 -2.30594,-1.27353 -3.62878,-2.24922 -6.26313,-2.55185 1.2638,0.80199 1.77291,1.88963 1.62315,2.7841 -1.39424,-0.51677 -4.55692,-0.66741 -5.85966,-0.39199 -0.17641,0.38952 -0.75222,0.84796 -1.33209,0.85491 -2.6101,0.34315 -4.42641,-0.315 -6.49603,-0.69517 -2.17096,-0.39941 -3.20473,-1.11819 -5.10362,-1.62363 -5.04633,-1.34701 -15.73954,-0.63014 -20.64681,0.69589 -1.17044,-0.68441 -1.18305,-2.21955 -2.08885,-3.24886 -1.41691,-1.60959 -3.94203,-2.16162 -6.032,-1.62339 0.88425,0.0384 3.27869,0.15678 4.40884,0.92822 2.48524,1.69576 2.06397,4.27649 4.40695,5.10402 0.92614,1.9253 2.033,4.54496 1.16023,6.95967 -1.25901,-1.10001 -2.56062,-2.64609 -4.40813,-2.78379 -0.0667,0.54709 -5.06357,2.08159 -8.41231,0.84086 1.18848,-1.4418 -0.56201,-6.6051 -2.25936,-6.64084 1.31622,0.50032 3.44145,6.17744 1.53946,6.40786 z m -10.53827,-68.51479 c -2.82838,8.52585 -9.40141,13.98769 -8.84338,24.17132 -1.05461,-0.43404 -1.52008,-0.89177 -1.87719,-1.25024 0.47496,7.79717 0.0785,21.52101 4.40765,28.51394 0.97928,1.58038 2.01944,2.46991 3.71201,3.47999 3.26042,0.19603 6.02975,1.38611 9.04763,1.85604 1.36584,0.21103 4.07343,0.62879 5.2079,0.69868 0.28203,-1.78535 3.45525,-3.11042 5.69706,-3.01858 0.85848,-0.57222 2.47262,-1.46056 3.24702,-2.78475 -1.02859,-7.43127 -4.13726,-21.00648 -5.33612,-28.30267 -0.93244,0.47918 -2.08255,0.57509 -3.2479,0.23113 1.55821,-4.23404 1.89842,-8.14614 0.92815,-12.75875 -0.84971,-4.04177 -2.05312,-8.27078 -3.01612,-12.064 -0.0134,-0.14202 -0.0339,-0.27518 -0.2309,-0.23274 -2.64974,0.6903 -6.52483,1.42513 -9.69581,1.46063 z M 68.497994,167.26119 c -2.092443,1.35292 -5.490093,3.50664 -6.959736,5.33564 -1.51257,1.88237 -3.48334,4.41108 -2.319759,6.95902 4.450017,-7.30306 17.17096,-9.32401 15.920101,-20.19139 -0.05001,1.68745 -2.920938,5.49105 -6.640606,7.89673 z m 45.238836,33.17515 c 1.00353,-1.25932 3.39022,-4.93743 3.47998,-6.49562 -3.38201,-4.43758 -4.40342,-13.42593 -0.46386,-19.25663 0.46881,12.85531 5.25129,17.17112 13.60232,21.09871 11.51213,5.4139 33.84591,9.95224 45.09298,3.02968 -3.13483,-0.42541 -8.90985,-4.84807 -10.24721,-7.63161 6.16293,-0.93748 14.89238,-4.5251 19.29422,-8.84004 2.87385,-2.81482 6.90317,-10.50978 6.26401,-14.38463 -4.03426,2.75219 -12.94738,6.02745 -18.55979,5.79966 4.51009,-4.78582 6.80791,-9.23194 9.04876,-14.84665 -1.57137,1.1939 -2.96075,2.22616 -6.03288,1.85588 2.17519,-1.97461 3.46411,-3.38968 4.87201,-6.03177 -2.36093,1.41851 -5.76241,2.55928 -9.51176,2.08799 3.373,-2.37856 6.91355,-7.31391 8.81651,-11.13578 -2.29263,1.2701 -4.71124,2.52982 -7.42449,3.47992 -11.5872,4.06234 -23.64011,2.21435 -35.49507,2.78409 -5.29813,0.2558 -10.43518,0.75398 -15.54374,2.32 -6.63359,2.03292 -13.33274,4.42009 -18.09552,9.74376 -3.143374,3.50959 -4.881894,8.16059 -5.56789,12.75868 -1.482963,9.9584 0.195396,19.86412 -2.784025,29.69629 -0.349935,1.51168 0.556582,1.73309 1.39202,2.08709 3.712244,1.09146 8.227365,-0.52266 11.984365,-2.94965 2.40816,-1.55557 4.50491,-3.44537 5.87906,-5.16936 z m 86.07007,-46.3989 c 3.8348,-3.43084 8.36125,-8.41278 11.59965,-11.13577 3.9386,4.75439 8.10003,14.31537 10.20787,23.19841 5.93243,-5.74405 7.94238,-10.55118 11.33931,-15.72486 2.64001,2.66075 5.52042,8.96323 6.75621,14.56574 3.91123,-8.28003 6.91737,-19.14804 4.872,-29.69492 -0.0154,1.96854 -2.55974,14.52417 -4.872,17.16738 -1.79644,-5.5564 -4.39121,-12.38338 -8.5836,-16.70351 -0.22005,3.32976 -4.78057,15.20426 -7.42306,17.39939 -0.93723,-6.93413 -7.34262,-19.36179 -12.99261,-24.12704 -0.1,1.89658 -2.91432,11.86741 -6.03177,13.9194 0.1,-5.02694 -0.98151,-17.28945 -3.94409,-21.11139 0.20496,10.74339 0.0145,23.2719 -0.92791,32.24717 z m 40.59892,-41.29505 c -0.1791,-0.0168 -0.77733,-6.15773 -0.92774,-8.81554 -0.32089,-5.65972 1.71474,-9.55611 3.2479,-13.68762 -2.07864,0.20808 -9.96765,-1.73421 -11.36779,-4.40813 6.34564,-0.59009 7.54074,-8.43816 13.45577,-10.90352 -2.5007,-7.51792 -16.90297,-10.11269 -23.89454,-9.97602 -4.89099,0.0945 -9.81589,1.02357 -14.8485,0 -1.03058,3.77256 -3.12056,6.9011 -3.47928,11.13578 -0.0577,0.67754 -0.0677,1.37278 0,2.0879 0.56289,6.07659 2.89605,12.94354 1.39114,19.48775 1.7702,-1.10773 5.07147,-7.33034 5.33699,-9.51166 3.11242,3.15495 3.16691,14.07817 3.24678,17.6314 2.09021,-0.86104 4.56443,-5.00684 5.33675,-6.72788 5.2063,6.54669 4.92155,16.99951 6.26314,24.8234 0.95031,-2.97001 2.86611,-15.0324 2.78386,-18.09552 4.20867,5.64209 6.37595,11.49043 7.88764,17.86366 1.45489,-6.98503 0.15239,-13.68372 -1.62363,-20.41566 2.50294,0.81117 6.00073,7.03314 7.19151,9.51166 z M 84.501702,32.09324 c 0.03487,9.39167 5.402091,13.01432 12.713047,15.30606 -0.578278,7.44795 5.712461,11.42819 11.049611,14.30453 -2.30069,10.18952 7.51041,13.75616 12.14114,16.16975 -2.35366,8.8859 3.97139,24.82697 9.57119,30.22907 -2.1585,-5.43553 -5.852,-11.55034 -6.26377,-18.79156 -0.30765,-5.4053 -0.0891,-10.21945 1.62379,-14.84785 -6.16429,-2.05783 -14.14599,-7.44891 -11.3678,-16.93529 -7.17164,-0.53575 -13.52813,-5.97862 -11.83173,-14.61576 -7.736536,0.11968 -14.314506,-5.34465 -12.991261,-13.45601 -7.444116,-0.73139 -12.731802,-3.25922 -16.471807,-8.1199 -0.754054,4.04064 4.980028,9.7965 11.82759,10.75696 z m 47.330878,17.0828 C 125.54047,43.50771 119.44561,38.34058 111.88094,34.32795 105.30233,30.83734 85.152832,20.07408 77.900042,21.78683 91.8839,23.72545 114.29867,37.79389 125.56856,47.78395 c 4.78241,4.23971 16.81409,17.20487 19.32604,22.54912 -1.15545,4.85637 -3.78644,14.32375 -2.62237,21.06591 1.09824,-7.5495 2.53278,-15.42677 6.26385,-20.64752 -2.8094,-8.38948 -10.32755,-15.83679 -16.7035,-21.57542" /><text
   xml:space="preserve"
   style="font-style:normal;font-variant:normal;font-weight:normal;font-stretch:normal;font-size:18.72291946px;line-height:1.25;font-family:'Noto Mono';-inkscape-font-specification:'Noto Mono';letter-spacing:0px;word-spacing:0px;fill:#4c6170;fill-opacity:1;stroke:none;stroke-width:0.63828135"
   x="64.350464"
   y="304.48849"
   id="text818"><tspan
     sodipodi:role="line"
     id="tspan816"
     x="64.350464"
     y="304.48849"
     style="font-style:normal;font-variant:normal;font-weight:normal;font-stretch:normal;font-size:40.8500061px;font-family:'EB Garamond SC';-inkscape-font-specification:'EB Garamond SC';fill:#4c6170;fill-opacity:1;stroke-width:0.63828135"
     dx="0 0 -3.1914067 -0.76593757 0 0 -0.63828135">gryffon ai</tspan></text>



</svg>