<?xml version="1.0" encoding="UTF-8"?>
<!DOCTYPE svg PUBLIC "-//W3C//DTD SVG 1.1//EN" "http://www.w3.org/Graphics/SVG/1.1/DTD/svg11.dtd">
<svg version="1.1" xmlns="http://www.w3.org/2000/svg" xmlns:xlink="http://www.w3.org/1999/xlink" x="0" y="0" width="500" height="80" viewBox="0, 0, 500, 80">
  <g id="Layer_1">
    <g>
      <text transform="matrix(1, 0, 0, 1, 250, 40)">
        <tspan x="-211.626" y="22.5" font-family="Palatino-Roman" font-size="60" kerning="0" fill="#000000">(λ ai: </tspan>
        <tspan x="-63.53" y="22.5" font-family="Times-Roman" font-size="60" kerning="0" fill="#000000">τ</tspan>
        <tspan x="-36.899" y="22.5" font-family="Palatino-Roman" font-size="60" kerning="0" fill="#000000"> . faun ai)</tspan>
      </text>
      <path d="M54.897,72.461 Q48.657,67.188 45.288,59.922 Q41.919,52.656 41.919,44.043 Q41.919,39.004 43.018,34.873 Q44.116,30.742 45.962,27.388 Q47.808,24.033 50.327,20.986 Q52.847,17.939 55.161,16.27 L56.333,17.764 Q51.646,22.832 49.346,29.175 Q47.046,35.518 47.046,43.838 Q47.046,52.861 49.199,58.984 Q51.353,65.107 56.333,71.172 z M59.38,63.027 L58.354,61.914 Q60.229,58.164 61.987,55.146 Q63.745,52.129 65.942,48.921 Q68.14,45.713 70.747,42.432 L76.636,35.02 L74.878,27.812 Q74.263,25.293 73.354,24.355 Q72.446,23.418 70.337,23.418 Q69.634,23.418 67.993,23.564 L67.964,22.598 Q74.614,21.074 76.284,21.074 Q77.485,21.074 78.057,21.763 Q78.628,22.451 78.95,24.004 Q79.331,25.762 81.587,35.474 Q83.843,45.186 85.308,50.137 Q86.772,55.088 87.622,56.904 Q88.472,58.721 89.409,59.351 Q90.347,59.98 91.577,59.98 Q92.603,59.98 93.745,59.365 L93.745,60.361 Q91.196,62.061 89.688,62.676 Q88.179,63.291 86.919,63.291 Q84.224,63.291 83.022,60.273 Q81.821,57.256 78.774,44.043 L77.075,36.953 Q72.681,42.578 69.121,49.097 Q65.562,55.615 64.126,61.357 Q62.28,62.09 59.38,63.027 z M115.366,42.432 L113.813,42.021 Q113.843,41.348 113.843,40.176 Q113.843,38.945 113.813,38.213 Q117.534,35.781 119.907,34.932 Q121.724,34.316 123.979,34.316 Q127.319,34.316 129.604,35.576 Q131.89,36.836 133.003,39.18 Q133.765,40.82 133.765,43.662 L133.647,49.023 L133.647,57.754 Q133.647,59.16 133.882,59.775 Q134.058,60.215 134.438,60.42 Q134.731,60.596 135.669,60.654 L137.573,60.83 L137.573,62.5 Q135.171,62.295 133.354,62.295 Q131.597,62.295 128.667,62.5 L128.813,57.344 Q122.837,61.855 121.724,62.427 Q120.61,62.998 118.911,62.998 Q115.366,62.998 113.389,61.108 Q111.411,59.219 111.411,56.084 Q111.411,54.062 112.1,52.393 Q112.788,50.723 113.755,49.741 Q114.722,48.76 115.718,48.291 Q117.417,47.5 121.24,46.592 Q125.063,45.684 128.813,45.244 Q128.843,42.461 128.14,40.908 Q127.437,39.355 125.767,38.359 Q124.097,37.363 121.694,37.363 Q119.966,37.363 118.662,37.832 Q117.358,38.301 117.065,38.623 L116.538,39.678 Q115.747,41.436 115.366,42.432 z M128.813,47.031 Q125.005,47.676 122.31,48.467 Q119.614,49.258 118.501,50.107 Q117.827,50.605 117.329,51.602 Q116.567,53.066 116.567,54.854 Q116.567,57.021 117.769,58.237 Q118.97,59.453 121.108,59.453 Q123.071,59.453 124.99,58.325 Q126.909,57.197 128.813,54.941 z M147.476,21.25 Q148.853,21.25 149.805,22.217 Q150.757,23.184 150.757,24.561 Q150.757,25.908 149.79,26.875 Q148.823,27.842 147.476,27.842 Q146.099,27.842 145.132,26.875 Q144.165,25.908 144.165,24.561 Q144.165,23.184 145.132,22.217 Q146.099,21.25 147.476,21.25 z M140.327,38.389 L140.327,36.719 Q146.011,36.074 149.878,34.258 L150.522,34.727 Q150.288,40.967 150.288,44.277 L150.288,49.609 Q150.435,57.227 150.464,57.842 Q150.493,59.307 150.786,59.98 Q150.933,60.244 151.167,60.435 Q151.401,60.625 151.87,60.742 Q152.046,60.771 155.122,60.83 L155.122,62.5 Q150.669,62.295 148.003,62.295 Q145.659,62.295 140.327,62.5 L140.327,60.83 L143.11,60.801 Q143.726,60.771 144.062,60.581 Q144.399,60.391 144.575,60.098 Q144.897,59.512 144.985,58.018 Q144.985,57.637 145.161,49.609 L145.161,44.453 Q145.161,40.088 144.868,39.268 Q144.692,38.828 144.238,38.608 Q143.784,38.389 140.327,38.389 z M163.97,35.078 Q165.435,35.078 166.445,36.104 Q167.456,37.129 167.456,38.594 Q167.456,40.029 166.431,41.055 Q165.405,42.08 163.97,42.08 Q162.505,42.08 161.479,41.055 Q160.454,40.029 160.454,38.594 Q160.454,37.129 161.479,36.104 Q162.505,35.078 163.97,35.078 z M163.97,55.791 Q165.435,55.791 166.445,56.816 Q167.456,57.842 167.456,59.307 Q167.456,60.742 166.431,61.768 Q165.405,62.793 163.97,62.793 Q162.505,62.793 161.479,61.768 Q160.454,60.742 160.454,59.307 Q160.454,57.842 161.479,56.816 Q162.505,55.791 163.97,55.791 z M193.911,34.316 Q199.302,34.492 208.003,34.727 Q208.853,34.727 209.556,34.375 Q210.288,33.994 210.405,33.232 L211.606,33.232 Q211.548,35.752 210.405,37.422 Q209.263,39.268 206.509,39.268 Q203.931,39.268 201.646,39.092 L201.646,56.084 Q201.646,58.721 202.319,59.805 Q202.905,60.947 204.399,60.889 Q206.626,60.889 207.358,58.662 Q207.769,57.637 207.944,56.26 Q208.003,55 208.003,53.447 L209.497,53.447 Q209.497,55.352 209.38,57.109 Q209.146,58.779 208.442,60.156 Q207.71,61.533 206.392,62.266 Q205.073,63.086 202.847,63.086 Q201.821,63.086 200.737,62.734 Q199.683,62.5 198.657,61.709 Q197.69,60.889 197.017,59.395 Q196.372,57.871 196.372,55.469 L196.372,38.975 Q194.204,38.857 191.86,38.857 Q190.308,38.857 189.399,39.414 Q188.579,40.059 188.198,41.67 L186.997,41.67 Q187.202,37.949 188.755,36.104 Q190.19,34.316 193.911,34.316 z M235.601,55.791 Q237.065,55.791 238.076,56.816 Q239.087,57.842 239.087,59.307 Q239.087,60.742 238.062,61.768 Q237.036,62.793 235.601,62.793 Q234.136,62.793 233.11,61.768 Q232.085,60.742 232.085,59.307 Q232.085,57.842 233.11,56.816 Q234.136,55.791 235.601,55.791 z M260.327,39.59 L260.327,38.389 Q262.612,37.422 264.37,36.338 L264.37,34.58 Q264.37,30.771 264.854,29.204 Q265.337,27.637 266.216,26.406 Q267.534,24.59 270.376,21.777 Q272.28,19.932 273.188,19.463 Q274.39,18.848 276.001,18.848 Q277.144,18.848 278.345,19.229 L278.462,24.092 L277.788,24.355 Q276.88,23.594 275.986,23.242 Q275.093,22.891 273.892,22.891 Q272.31,22.891 271.313,23.535 Q270.317,24.18 269.863,25.381 Q269.409,26.582 269.409,30.273 L269.409,36.338 L272.515,36.338 Q274.858,36.338 277.114,36.162 L277.407,36.338 L276.821,39.355 Q274.272,39.238 273.071,39.238 Q271.841,39.238 269.409,39.355 L269.409,49.844 Q269.409,51.777 269.556,56.904 Q269.585,58.721 269.702,59.219 Q269.819,59.717 270.01,59.937 Q270.2,60.156 270.64,60.303 Q271.519,60.566 275.386,60.83 L275.386,62.5 Q268.56,62.295 267.065,62.295 Q265.718,62.295 259.536,62.5 L259.536,60.83 L262.319,60.801 Q262.935,60.771 263.271,60.581 Q263.608,60.391 263.784,60.098 Q264.106,59.512 264.194,58.018 Q264.194,57.637 264.37,49.609 L264.37,39.355 z M284.438,42.432 L282.886,42.021 Q282.915,41.348 282.915,40.176 Q282.915,38.945 282.886,38.213 Q286.606,35.781 288.979,34.932 Q290.796,34.316 293.052,34.316 Q296.392,34.316 298.677,35.576 Q300.962,36.836 302.075,39.18 Q302.837,40.82 302.837,43.662 L302.72,49.023 L302.72,57.754 Q302.72,59.16 302.954,59.775 Q303.13,60.215 303.511,60.42 Q303.804,60.596 304.741,60.654 L306.646,60.83 L306.646,62.5 Q304.243,62.295 302.427,62.295 Q300.669,62.295 297.739,62.5 L297.886,57.344 Q291.909,61.855 290.796,62.427 Q289.683,62.998 287.983,62.998 Q284.438,62.998 282.461,61.108 Q280.483,59.219 280.483,56.084 Q280.483,54.062 281.172,52.393 Q281.86,50.723 282.827,49.741 Q283.794,48.76 284.79,48.291 Q286.489,47.5 290.312,46.592 Q294.136,45.684 297.886,45.244 Q297.915,42.461 297.212,40.908 Q296.509,39.355 294.839,38.359 Q293.169,37.363 290.767,37.363 Q289.038,37.363 287.734,37.832 Q286.431,38.301 286.138,38.623 L285.61,39.678 Q284.819,41.436 284.438,42.432 z M297.886,47.031 Q294.077,47.676 291.382,48.467 Q288.687,49.258 287.573,50.107 Q286.899,50.605 286.401,51.602 Q285.64,53.066 285.64,54.854 Q285.64,57.021 286.841,58.237 Q288.042,59.453 290.181,59.453 Q292.144,59.453 294.062,58.325 Q295.981,57.197 297.886,54.941 z M342.739,60.83 L342.739,62.5 Q338.901,62.295 336.938,62.295 Q334.771,62.295 332.544,62.5 Q332.72,60.127 332.808,57.168 Q331.05,58.574 328.618,61.006 Q328.062,61.562 327.534,61.826 Q326.274,62.529 325.015,62.837 Q323.755,63.145 321.997,63.145 Q319.624,63.145 318.027,62.5 Q316.431,61.855 315.288,60.537 Q314.438,59.57 313.984,58.032 Q313.53,56.494 313.53,54.326 Q313.53,53.301 313.604,52.393 Q313.677,51.484 313.677,50.605 L313.677,45.596 Q313.677,44.834 313.589,41.758 Q313.53,39.824 313.325,39.238 Q313.208,38.945 312.944,38.77 Q312.505,38.477 311.392,38.477 Q309.78,38.477 308.843,38.447 L308.843,36.777 Q315.142,36.074 317.983,34.521 Q318.452,34.258 318.716,34.258 Q318.921,34.258 319.053,34.404 Q319.185,34.551 319.185,34.844 Q319.185,35.078 319.155,35.43 Q319.038,36.367 318.95,39.033 Q318.774,43.926 318.774,45.596 L318.774,51.309 Q318.774,54.883 319.258,56.333 Q319.741,57.783 321.133,58.647 Q322.524,59.512 324.575,59.512 Q325.981,59.512 327.373,59.028 Q328.765,58.545 329.878,57.637 Q330.698,56.963 331.548,55.82 Q332.192,54.971 332.397,54.517 Q332.603,54.062 332.661,53.184 Q332.808,50.605 332.808,48.057 L332.808,45.596 Q332.808,44.834 332.72,41.758 Q332.661,39.824 332.456,39.238 Q332.339,38.945 332.075,38.77 Q331.636,38.477 330.522,38.477 Q328.911,38.477 327.974,38.447 L327.974,36.777 Q334.272,36.074 337.114,34.521 Q337.583,34.258 337.847,34.258 Q338.052,34.258 338.184,34.404 Q338.315,34.551 338.315,34.844 Q338.315,35.078 338.286,35.43 Q338.198,36.367 338.081,39.15 Q337.905,43.926 337.905,45.596 L337.905,49.609 L337.964,53.682 Q338.052,57.227 338.081,57.842 Q338.11,59.307 338.403,59.98 Q338.55,60.244 338.784,60.435 Q339.019,60.625 339.487,60.742 Q339.663,60.771 342.739,60.83 z M345.083,62.5 L345.083,60.83 L347.866,60.801 Q348.481,60.771 348.818,60.581 Q349.155,60.391 349.331,60.098 Q349.653,59.512 349.741,58.018 Q349.741,57.637 349.917,49.609 L349.917,46.123 Q349.917,43.779 349.829,41.084 Q349.741,39.355 349.551,39.033 Q349.36,38.711 348.892,38.55 Q348.423,38.389 345.083,38.418 L345.083,36.748 Q351.001,35.928 353.726,34.609 Q354.312,34.316 354.517,34.316 Q354.722,34.316 354.839,34.463 Q354.956,34.609 354.956,34.902 Q354.956,35.107 354.927,35.371 Q354.839,36.426 354.751,39.824 L360.2,35.166 Q362.603,34.287 364.741,34.287 Q367.114,34.287 369.238,35.254 Q371.362,36.221 372.432,37.686 Q373.501,39.15 373.853,41.377 Q374.058,42.695 374.058,48.73 L374.058,53.916 Q374.058,57.725 374.263,59.102 Q374.409,59.98 374.717,60.317 Q375.024,60.654 375.669,60.742 L378.804,60.83 L378.804,62.5 Q375.933,62.295 374.028,62.295 Q372.388,62.295 368.579,62.5 Q368.989,55.264 368.989,53.359 L368.989,48.438 Q368.989,43.838 368.638,42.402 Q368.14,40.439 366.382,39.238 Q364.624,38.037 362.134,38.037 Q359.937,38.037 358.12,39.077 Q356.304,40.117 355.527,41.479 Q354.751,42.842 354.751,46.064 L354.751,49.609 Q354.927,57.227 354.927,57.842 Q354.985,59.307 355.278,59.98 Q355.396,60.244 355.63,60.435 Q355.864,60.625 356.362,60.742 Q356.538,60.771 359.585,60.83 L359.585,62.5 Q356.011,62.295 353.11,62.295 Q350.649,62.295 345.083,62.5 z M400.542,42.432 L398.989,42.021 Q399.019,41.348 399.019,40.176 Q399.019,38.945 398.989,38.213 Q402.71,35.781 405.083,34.932 Q406.899,34.316 409.155,34.316 Q412.495,34.316 414.78,35.576 Q417.065,36.836 418.179,39.18 Q418.94,40.82 418.94,43.662 L418.823,49.023 L418.823,57.754 Q418.823,59.16 419.058,59.775 Q419.233,60.215 419.614,60.42 Q419.907,60.596 420.845,60.654 L422.749,60.83 L422.749,62.5 Q420.347,62.295 418.53,62.295 Q416.772,62.295 413.843,62.5 L413.989,57.344 Q408.013,61.855 406.899,62.427 Q405.786,62.998 404.087,62.998 Q400.542,62.998 398.564,61.108 Q396.587,59.219 396.587,56.084 Q396.587,54.062 397.275,52.393 Q397.964,50.723 398.931,49.741 Q399.897,48.76 400.894,48.291 Q402.593,47.5 406.416,46.592 Q410.239,45.684 413.989,45.244 Q414.019,42.461 413.315,40.908 Q412.612,39.355 410.942,38.359 Q409.272,37.363 406.87,37.363 Q405.142,37.363 403.838,37.832 Q402.534,38.301 402.241,38.623 L401.714,39.678 Q400.923,41.436 400.542,42.432 z M413.989,47.031 Q410.181,47.676 407.485,48.467 Q404.79,49.258 403.677,50.107 Q403.003,50.605 402.505,51.602 Q401.743,53.066 401.743,54.854 Q401.743,57.021 402.944,58.237 Q404.146,59.453 406.284,59.453 Q408.247,59.453 410.166,58.325 Q412.085,57.197 413.989,54.941 z M432.651,21.25 Q434.028,21.25 434.98,22.217 Q435.933,23.184 435.933,24.561 Q435.933,25.908 434.966,26.875 Q433.999,27.842 432.651,27.842 Q431.274,27.842 430.308,26.875 Q429.341,25.908 429.341,24.561 Q429.341,23.184 430.308,22.217 Q431.274,21.25 432.651,21.25 z M425.503,38.389 L425.503,36.719 Q431.187,36.074 435.054,34.258 L435.698,34.727 Q435.464,40.967 435.464,44.277 L435.464,49.609 Q435.61,57.227 435.64,57.842 Q435.669,59.307 435.962,59.98 Q436.108,60.244 436.343,60.435 Q436.577,60.625 437.046,60.742 Q437.222,60.771 440.298,60.83 L440.298,62.5 Q435.845,62.295 433.179,62.295 Q430.835,62.295 425.503,62.5 L425.503,60.83 L428.286,60.801 Q428.901,60.771 429.238,60.581 Q429.575,60.391 429.751,60.098 Q430.073,59.512 430.161,58.018 Q430.161,57.637 430.337,49.609 L430.337,44.453 Q430.337,40.088 430.044,39.268 Q429.868,38.828 429.414,38.608 Q428.96,38.389 425.503,38.389 z M446.392,72.461 L445.19,70.967 Q449.878,65.898 452.178,59.541 Q454.478,53.184 454.478,44.863 Q454.478,35.84 452.324,29.717 Q450.171,23.594 445.19,17.529 L446.626,16.27 Q452.866,21.543 456.235,28.809 Q459.604,36.074 459.604,44.688 Q459.604,49.697 458.506,53.828 Q457.407,57.959 455.562,61.328 Q453.716,64.697 451.196,67.729 Q448.677,70.762 446.392,72.461 z" fill-opacity="0" stroke="#288069" stroke-width="1"/>
    </g>
  </g>
</svg>
