<?xml version="1.0" encoding="UTF-8" standalone="no"?>
<!DOCTYPE svg PUBLIC "-//W3C//DTD SVG 1.1//EN" "http://www.w3.org/Graphics/SVG/1.1/DTD/svg11.dtd"
[
<!ATTLIST g
  xmlns:vectornator CDATA #FIXED "http://vectornator.io"
  vectornator:layerName CDATA #IMPLIED >
<!ATTLIST g
  xmlns:vectornator CDATA #FIXED "http://vectornator.io"
  vectornator:mask CDATA #IMPLIED >
<!ATTLIST text
  xmlns:vectornator CDATA #FIXED "http://vectornator.io"
  vectornator:width CDATA #IMPLIED >
<!ATTLIST text
  xmlns:vectornator CDATA #FIXED "http://vectornator.io"
  vectornator:text CDATA #IMPLIED >

<!ATTLIST path
  xmlns:vectornator CDATA #FIXED "http://vectornator.io"
  vectornator:blendMode CDATA #IMPLIED >
<!ATTLIST path
  xmlns:vectornator CDATA #FIXED "http://vectornator.io"
  vectornator:shadowColor CDATA #IMPLIED >
<!ATTLIST path
  xmlns:vectornator CDATA #FIXED "http://vectornator.io"
  vectornator:shadowOpacity CDATA #IMPLIED >
<!ATTLIST path
  xmlns:vectornator CDATA #FIXED "http://vectornator.io"
  vectornator:shadowRadius CDATA #IMPLIED >
<!ATTLIST path
  xmlns:vectornator CDATA #FIXED "http://vectornator.io"
  vectornator:shadowOffset CDATA #IMPLIED >
<!ATTLIST path
  xmlns:vectornator CDATA #FIXED "http://vectornator.io"
  vectornator:shadowAngle CDATA #IMPLIED >

<!ATTLIST image
  xmlns:vectornator CDATA #FIXED "http://vectornator.io"
  vectornator:blendMode CDATA #IMPLIED >
<!ATTLIST image
  xmlns:vectornator CDATA #FIXED "http://vectornator.io"
  vectornator:shadowColor CDATA #IMPLIED >
<!ATTLIST image
  xmlns:vectornator CDATA #FIXED "http://vectornator.io"
  vectornator:shadowOpacity CDATA #IMPLIED >
<!ATTLIST image
  xmlns:vectornator CDATA #FIXED "http://vectornator.io"
  vectornator:shadowRadius CDATA #IMPLIED >
<!ATTLIST image
  xmlns:vectornator CDATA #FIXED "http://vectornator.io"
  vectornator:shadowOffset CDATA #IMPLIED >
<!ATTLIST image
  xmlns:vectornator CDATA #FIXED "http://vectornator.io"
  vectornator:shadowAngle CDATA #IMPLIED >

<!ATTLIST g
  xmlns:vectornator CDATA #FIXED "http://vectornator.io"
  vectornator:blendMode CDATA #IMPLIED >
<!ATTLIST g
  xmlns:vectornator CDATA #FIXED "http://vectornator.io"
  vectornator:shadowColor CDATA #IMPLIED >
<!ATTLIST g
  xmlns:vectornator CDATA #FIXED "http://vectornator.io"
  vectornator:shadowOpacity CDATA #IMPLIED >
<!ATTLIST g
  xmlns:vectornator CDATA #FIXED "http://vectornator.io"
  vectornator:shadowRadius CDATA #IMPLIED >
<!ATTLIST g
  xmlns:vectornator CDATA #FIXED "http://vectornator.io"
  vectornator:shadowOffset CDATA #IMPLIED >
<!ATTLIST g
  xmlns:vectornator CDATA #FIXED "http://vectornator.io"
  vectornator:shadowAngle CDATA #IMPLIED >

<!ENTITY % SVG.filter.extra.content  "| feDropShadow" >
<!ELEMENT feDropShadow EMPTY>
<!ATTLIST feDropShadow
  xmlns:svg CDATA #FIXED "http://www.w3.org/Graphics/SVG/1.1/DTD/svg11.dtd"
  dx CDATA #IMPLIED>
<!ATTLIST feDropShadow
  xmlns:svg CDATA #FIXED "http://www.w3.org/Graphics/SVG/1.1/DTD/svg11.dtd"
  dy CDATA #IMPLIED>
<!ATTLIST feDropShadow
  xmlns:svg CDATA #FIXED "http://www.w3.org/Graphics/SVG/1.1/DTD/svg11.dtd"
  stdDeviation CDATA #IMPLIED>
<!ATTLIST feDropShadow
  xmlns:svg CDATA #FIXED "http://www.w3.org/Graphics/SVG/1.1/DTD/svg11.dtd"
  flood-opacity CDATA #IMPLIED>
<!ATTLIST feDropShadow
  xmlns:svg CDATA #FIXED "http://www.w3.org/Graphics/SVG/1.1/DTD/svg11.dtd"
  in CDATA #IMPLIED>
<!ATTLIST feDropShadow
  xmlns:svg CDATA #FIXED "http://www.w3.org/Graphics/SVG/1.1/DTD/svg11.dtd"
  result CDATA #IMPLIED>
<!ATTLIST feDropShadow
  xmlns:svg CDATA #FIXED "http://www.w3.org/Graphics/SVG/1.1/DTD/svg11.dtd"
  flood-color CDATA #IMPLIED>
]
>
<!-- Created with Vectornator (http://vectornator.io/) -->
<svg height="100%" stroke-miterlimit="10" style="fill-rule:nonzero;clip-rule:evenodd;stroke-linecap:round;stroke-linejoin:round;" version="1.1" viewBox="0 0 512 512" width="100%" xml:space="preserve" xmlns="http://www.w3.org/2000/svg" xmlns:vectornator="http://vectornator.io" xmlns:xlink="http://www.w3.org/1999/xlink">
<defs/>
<g id="Layer-1" vectornator:layerName="Layer 1">
<path d="M487.789 251.237C488.844 252.571 489.5 254.271 489.588 256.107C489.369 260.677 485.63 264.285 481.29 264.208C481.224 264.208 481.164 264.226 481.104 264.219C474.08 263.984 467.559 266.549 462.743 270.477C460.305 272.446 458.425 274.791 456.883 277.387C455.167 279.967 453.997 282.815 453.522 285.915C452.811 290.124 453.718 294.426 455.385 298.508C460.125 295.562 465.525 293.54 471.604 293.271C470.833 291.802 470.5 290.177 470.757 288.488C471.407 284.237 475.523 281.181 479.967 281.655C479.984 281.655 480 281.655 480.011 281.655C486.986 282.45 493.802 280.252 498.531 275.6C503.39 270.986 506.621 263.952 506.97 256.107C506.73 250.75 505.167 245.627 502.439 241.317C498.711 246.296 493.666 249.766 487.789 251.237" fill="#0f7177" fill-rule="evenodd" opacity="1" stroke="none"/>
<path d="M484.455 216.74C485.63 217.914 486.456 219.516 486.729 221.337C487.429 225.906 484.389 230.062 479.967 230.559C473.014 231.362 467.154 234.827 462.634 239.452C458.233 244.098 455.653 249.849 456.014 256.107C455.768 260.386 456.867 264.486 459.223 268.297C463.388 264.661 468.789 261.875 474.758 260.709C473.84 259.366 473.348 257.813 473.435 256.107C473.211 251.805 476.638 248.181 481.104 247.995C481.164 247.989 481.224 247.974 481.29 247.968C488.216 247.684 494.365 244.541 498.673 239.256C500.81 236.604 502.614 233.416 503.57 229.925C504.855 225.251 504.423 220.073 503.232 215.471C502.882 214.122 502.45 212.787 501.92 211.491C501.395 210.223 500.777 208.989 500.056 207.819C499.853 207.496 497.683 204.795 497.732 204.708C494.879 210.163 490.041 214.417 484.455 216.74" fill="#000000" fill-rule="evenodd" opacity="1" stroke="none"/>
<path d="M476.135 183.102C477.513 184.073 478.726 185.478 479.24 187.244C480.388 191.672 477.901 196.21 473.73 197.416C473.665 197.437 473.61 197.472 473.544 197.486C466.761 199.329 461.295 203.687 457.862 208.846C454.675 213.986 452.614 220.112 453.522 226.299C454.041 230.542 456.391 234.358 458.933 237.806C462.852 233.57 467.209 230.083 472.992 228.044C471.817 226.863 471.014 225.415 470.757 223.726C470.106 219.467 473.129 215.346 477.518 214.498C477.546 214.493 477.568 214.483 477.595 214.477C484.362 213.208 490.484 209.07 493.589 203.249C496.863 197.416 497.853 189.735 495.852 182.122C494.147 177.033 491.053 172.622 487.194 169.293C485.111 175.158 481.317 179.962 476.135 183.102" fill="#0f7177" fill-rule="evenodd" opacity="1" stroke="none"/>
<path d="M462.738 151.124C464.208 151.899 465.465 153.184 466.263 154.839C468.269 159.011 466.591 163.876 462.513 165.669C456.069 168.511 451.576 173.529 448.618 179.279C447.153 182.132 446.235 185.337 446.005 188.529C445.749 192.103 446.317 195.099 447.52 198.422C448.17 200.205 448.919 201.893 449.985 203.474C450.269 203.894 453.773 207.91 453.849 207.797C456.747 203.117 461.081 198.87 466.433 196C465.159 194.991 464.224 193.656 463.803 191.999C462.431 187.927 464.552 183.477 468.789 181.974C468.838 181.959 468.882 181.925 468.936 181.903C475.485 179.591 480.437 174.766 482.985 168.435C484.225 165.27 485.051 161.668 484.859 158.07C484.592 154.513 483.624 150.827 481.919 147.291C479.481 142.502 476.387 138.279 471.779 135.731C470.855 141.695 467.346 147.27 462.738 151.124" fill="#000000" fill-rule="evenodd" opacity="1" stroke="none"/>
<path d="M448.974 124.53L448.974 124.53C451.543 128.324 450.351 133.521 446.727 135.872C446.689 135.9 446.656 135.938 446.612 135.966C440.676 139.733 436.735 145.525 434.958 151.485C434.04 154.491 433.816 157.48 433.974 160.509C434.018 163.598 434.658 166.609 436.019 169.43C437.773 173.322 441.069 176.305 444.595 178.81C447.011 173.645 450.209 168.987 455.118 165.33C453.647 164.548 452.456 163.4 451.712 161.858C449.843 157.982 451.521 153.146 455.462 151.03C455.473 151.024 455.484 151.013 455.5 151.009C461.694 147.74 466.11 142.082 467.406 135.56C468.789 129.035 467.63 121.299 463.328 114.729C460.13 110.411 455.976 107.044 451.319 104.999C451.023 111.236 448.799 116.964 444.77 121.502C446.383 122.017 447.875 123.061 448.974 124.53" fill="#0f7177" fill-rule="evenodd" opacity="1" stroke="none"/>
<path d="M427.048 97.3844C430.148 100.79 429.957 105.928 426.66 108.814C426.639 108.836 426.622 108.863 426.595 108.891C421.205 113.559 418.51 119.582 417.439 125.907C416.4 132.248 417.472 138.479 421.249 143.472C423.627 147.018 426.704 149.877 430.826 151.664C432.225 146.318 435.128 140.967 439.397 136.639C437.85 136.075 436.702 134.982 435.636 133.643C433.05 130.199 433.859 125.258 437.44 122.578C437.494 122.54 437.533 122.486 437.587 122.442C443.141 118.299 446.459 112.226 447.055 105.415C447.88 98.4006 445.032 91.4098 439.79 85.555C436.194 81.5668 431.799 78.6523 426.649 77.565C427.491 83.5609 426.021 89.6656 422.626 94.8328C424.244 95.1553 425.813 96.0244 427.048 97.3844" fill="#000000" fill-rule="evenodd" opacity="1" stroke="none"/>
<path d="M402.751 85.0854C398.181 90.4319 396.088 97.1494 396.11 103.408C396.126 106.54 396.689 109.568 397.821 112.329C398.957 115.086 400.286 117.949 402.439 120.227C405.304 123.405 409.07 125.521 413.465 126.629C413.957 121.218 415.897 115.609 419.45 110.723C417.827 110.395 416.362 109.634 415.209 108.373C412.322 105.185 412.525 100.054 415.657 96.8761C415.662 96.8722 415.662 96.8722 415.668 96.8657C420.68 91.8859 422.982 85.4293 422.435 78.6736C422.162 75.3059 421.183 71.8895 419.527 68.6486C417.854 65.4241 415.624 62.2493 412.399 59.9967C408.113 56.7656 403.183 54.7267 398.154 54.0992C399.679 60.1863 399.209 66.349 396.678 71.8747C398.362 71.907 400.084 72.4809 401.554 73.5785C405.348 76.2198 405.588 81.7352 402.8 85.0149C402.778 85.0362 402.767 85.0641 402.751 85.0854" fill="#0f7177" fill-rule="evenodd" opacity="1" stroke="none"/>
<path d="M367.751 52.7687C369.385 52.6107 371.129 52.9994 372.703 53.9494C376.622 56.3283 377.929 61.2971 375.671 65.0141C375.644 65.0633 375.633 65.1125 375.6 65.1617C371.878 71.1253 370.872 77.975 371.927 83.9922C372.769 90.3871 375.573 96.0949 380.602 99.8163C384.182 102.202 387.73 104.316 392.229 104.775C392.026 99.2167 393.251 93.2252 396.071 87.8185C394.513 87.6283 392.819 87.2616 391.474 86.2022C388.025 83.6315 387.375 78.6348 390.009 75.0287C390.053 74.9686 390.075 74.9024 390.119 74.8429C394.207 69.2504 395.612 62.4499 394.218 55.7259C392.846 48.9489 388.08 43.0553 381.405 38.907C379.088 37.5574 376.743 36.3657 374.19 35.8022C371.626 35.2621 369.024 35.0593 366.45 35.2063C368.921 40.8819 369.522 46.7581 367.751 52.7687" fill="#000000" fill-rule="evenodd" opacity="1" stroke="none"/>
<path d="M335.412 53.7635C334.467 53.4372 333.313 53.0059 332.641 52.3609C331.859 51.6159 331.324 50.638 330.952 49.6382C330.252 47.7507 330.028 45.4511 330.701 43.521C330.722 43.4614 330.722 43.4013 330.744 43.3461C333.013 36.7926 332.351 29.8385 329.033 23.7765C325.622 17.9944 319.402 13.5126 311.782 11.5503C306.611 10.0235 301.205 10.756 296.389 12.5003C300.439 17.1531 302.724 22.756 302.856 28.807C304.37 28.1773 306.152 28.0407 307.928 28.4999C312.356 29.6314 315.062 33.9764 314.039 38.1849C314.023 38.2576 314.028 38.3281 314.007 38.3942C312.219 45.1931 313.28 52.0532 316.062 57.5155C318.844 63.0796 323.108 67.9992 329.006 70.049C333.095 71.339 337.244 71.9562 341.589 71.2789C339.764 66.0308 339.239 59.7764 340.272 53.956C340.13 54.748 336.298 54.0757 335.839 53.9177C335.702 53.8685 335.56 53.8193 335.412 53.7635" fill="#000000" fill-rule="evenodd" opacity="1" stroke="none"/>
<path d="M336.129 38.5691C337.747 38.1105 339.556 38.1635 341.283 38.7976C343.448 39.5902 345.082 41.1656 345.929 43.0339C346.722 45.0176 346.749 47.2599 345.869 49.3162C343.076 55.7642 343.043 62.832 344.885 68.8448C346.684 75.0074 350.691 79.4935 355.889 83.0143C359.535 85.25 363.706 86.2344 368.243 85.9994C367.122 80.6846 367.368 74.6953 369.33 68.9771C367.691 69.1351 366.073 68.8235 364.613 67.933C362.766 66.8081 361.536 65.0037 361.011 62.9752C360.448 61.0238 360.568 58.8859 361.629 56.8749C364.919 50.6976 365.253 43.8052 362.755 37.4868C359.54 29.3515 352.768 23.7273 344.393 21.6135C343.032 21.2675 341.649 21.0155 340.25 20.8575C338.878 20.7105 337.495 20.6504 336.118 20.693C335.74 20.7061 332.379 21.1904 332.308 21.0773C335.555 26.4774 336.916 32.529 336.129 38.5691" fill="#0f7177" fill-rule="evenodd" opacity="1" stroke="none"/>
<path d="M273.425 23.3879C277.749 23.6633 281.455 27.3186 280.925 32.031C280.171 39.0223 282.231 45.7884 285.768 51.0047C287.55 53.6121 289.715 55.8369 292.196 57.509C293.443 58.3503 294.76 59.0504 296.159 59.5971C299.516 60.9144 303.074 62.0738 306.693 61.6578C307.207 61.5977 313.176 60.5815 313.137 60.5088C310.508 55.7429 308.972 49.9268 309.153 43.8752C307.633 44.5055 306.004 44.6738 304.348 44.2469C300.215 43.0301 297.406 39.0562 298.215 34.6105C299.51 27.7461 297.788 21.0669 293.536 15.763C289.299 10.5805 282.581 6.15455 274.71 6.04521C269.353 5.76153 264.138 6.8165 259.639 9.10521C264.324 13.3093 267.412 18.682 268.44 24.6839C268.385 24.351 270.725 23.6633 271.004 23.5972C271.818 23.4048 272.633 23.3408 273.425 23.3879" fill="#0f7177" fill-rule="evenodd" opacity="1" stroke="none"/>
<path d="M233.79 25.1813C235.052 24.1329 236.714 23.4709 238.545 23.3769C243.109 23.1424 246.974 26.4987 247.231 30.823C247.231 30.893 247.253 30.9553 247.258 31.0258C247.543 38.0482 250.576 44.2813 254.845 48.6691C257.087 50.9709 259.525 53.0311 262.394 54.5239C263.854 55.2799 265.39 55.8861 266.986 56.2895C270.594 57.2034 273.595 56.8471 277.284 56.2622C279.345 55.9353 281.368 55.2799 283.341 54.2954C280.045 49.8071 277.694 43.9736 276.951 38.1635C275.535 39.0775 273.945 39.5749 272.234 39.4874C267.932 39.2737 264.575 35.4906 264.718 31.0258C264.723 30.9553 264.701 30.8891 264.707 30.823C264.931 23.8984 262.252 17.4581 257.311 12.6582C252.353 8.02892 245.105 5.68446 237.261 6.04521C234.588 6.2207 231.986 6.57489 229.559 7.51456C227.137 8.52032 224.874 9.82291 222.824 11.3961C228.061 14.6698 231.871 19.2073 233.79 25.1813" fill="#000000" fill-rule="evenodd" opacity="1" stroke="none"/>
<path d="M199.664 31.2286C200.741 29.9364 202.266 28.9546 204.042 28.4999C208.492 27.2098 212.919 30.2764 213.75 34.6105C213.756 34.6318 213.761 34.6493 213.767 34.6707C215.095 41.5755 219.042 47.4244 223.945 51.3486C228.903 55.4034 234.735 56.8574 241.027 56.864C245.307 56.6612 249.314 55.1367 252.932 52.397C249.008 48.633 245.832 43.5319 244.225 37.7044C242.956 38.755 241.448 39.4044 239.742 39.4874C235.429 39.6137 231.559 36.3701 231.051 32.0354C231.051 32.025 231.046 32.0141 231.046 32.0097C230.286 25.0512 226.678 19.1685 221.059 15.3635C218.254 13.4569 214.964 12.069 211.394 11.3196C209.607 10.9413 207.754 10.7237 205.857 10.6811C203.988 10.7407 202.096 11.078 200.194 11.5503C194.979 12.872 190.3 15.4361 186.671 18.9613C192.388 21.5856 196.914 25.7984 199.664 31.2286" fill="#0f7177" fill-rule="evenodd" opacity="1" stroke="none"/>
<path d="M166.681 41.9303C167.577 40.5528 168.965 39.4279 170.693 38.7976C174.989 37.2179 179.685 39.2847 181.199 43.3564C181.221 43.4166 181.253 43.4614 181.275 43.521C183.62 50.1465 188.354 55.2072 193.717 58.1365C199.216 61.3736 205.447 62.8451 211.487 61.2369C215.581 59.9579 219.402 58.318 222.589 55.2176C218.123 51.8783 214.193 47.1445 211.739 41.5799C210.656 42.87 209.279 43.8222 207.623 44.2469C203.457 45.3254 199.145 42.7076 197.969 38.3942C197.947 38.3281 197.909 38.2685 197.893 38.198C196.067 31.5166 191.623 26.1658 185.484 23.0506C179.351 19.984 171.748 19.9671 164.341 22.6193C159.225 24.3122 155.092 27.7843 152.124 32.025C158.109 33.6157 163.095 36.8358 166.681 41.9303" fill="#000000" fill-rule="evenodd" opacity="1" stroke="none"/>
<path d="M139.273 53.9494C141.246 52.7578 143.493 52.4593 145.488 52.9671C147.51 53.5351 149.303 54.9443 150.336 56.8809C150.342 56.8853 150.353 56.8962 150.353 56.9022C153.671 63.1009 159.181 67.5296 165.03 69.8358C170.982 72.2891 176.973 71.896 182.97 70.049C186.982 68.595 190.355 65.9537 192.995 62.264C188.141 59.8256 183.604 55.897 180.352 50.802C179.45 52.1795 178.203 53.2448 176.596 53.8297C174.563 54.5731 172.387 54.4042 170.474 53.5525C168.616 52.8201 166.998 51.3661 166.107 49.3162C166.101 49.3053 166.096 49.2928 166.09 49.2818C163.302 42.87 158.109 38.3171 151.61 36.334C145.198 34.4591 137.157 34.5788 130.57 38.907C125.973 41.6849 122.245 45.4937 119.813 49.9115C126.061 50.7467 131.647 53.452 135.884 57.8315C136.529 56.2895 137.704 54.906 139.273 53.9494" fill="#0f7177" fill-rule="evenodd" opacity="1" stroke="none"/>
<path d="M110.422 73.5785C114.073 70.8454 119.162 71.4478 121.819 74.8642C121.863 74.9238 121.923 74.9686 121.967 75.0287C126.165 80.6633 132.199 84.1185 138.218 85.3653C144.258 86.5739 150.807 86.3646 156.087 83.0143C157.929 81.938 159.487 80.4348 160.99 78.9742C162.504 77.5415 163.805 75.8525 164.882 73.9289C159.64 72.0928 154.403 68.5781 150.511 64.1942C149.861 65.74 148.822 67.047 147.363 67.933C143.684 70.1753 138.775 68.9323 136.376 65.1617C136.343 65.1125 136.305 65.0802 136.272 65.0316C132.555 59.1658 126.7 55.3438 119.889 54.1588C115.905 53.4585 111.504 54.2358 107.749 55.5745C103.934 56.9345 100.014 59.198 97.1226 62.029C96.084 63.0457 95.1656 64.1772 94.3512 65.3748C93.5367 66.5665 92.8316 67.8286 92.203 69.1247C92.039 69.4685 90.9075 72.6351 90.738 72.6395C96.9203 72.3978 102.753 74.1427 107.552 77.8045C107.886 76.0832 108.979 74.7166 110.422 73.5785" fill="#000000" fill-rule="evenodd" opacity="1" stroke="none"/>
<path d="M82.7846 102.052C82.965 100.397 83.692 98.7406 84.9274 97.3844C88.0486 93.9533 93.1923 93.7182 96.3081 96.8657L96.3136 96.8722L96.3136 96.8722C101.266 101.779 107.875 104.437 114.172 104.945C117.331 105.195 120.436 104.9 123.311 104.021C126.203 103.162 128.761 101.578 131.369 99.8163C134.807 97.2691 137.278 93.7822 138.732 89.5076C133.347 88.5849 127.837 86.1464 123.218 82.2326C122.754 83.802 121.868 85.1795 120.496 86.2022C116.943 88.6494 112.22 88.5297 109.225 85.0854C109.208 85.0641 109.181 85.0472 109.165 85.0259C104.611 79.7412 98.3087 76.9075 91.4978 76.8927C88.0869 76.8758 84.5666 77.559 81.1666 78.9212C77.7721 80.2878 74.8749 82.7027 72.1856 85.555C68.5833 89.5355 66.0688 94.2031 65.0576 99.1505C71.2618 98.1125 77.4496 99.1073 82.7846 102.052" fill="#0f7177" fill-rule="evenodd" opacity="1" stroke="none"/>
<path d="M61.6576 129.515C61.3898 129.411 61.8216 127.147 61.8871 126.887C62.002 126.426 62.1386 125.903 62.3901 125.493C64.7733 121.622 70.1467 119.501 74.3611 122.475C74.4158 122.519 74.4814 122.54 74.536 122.578C80.2045 126.737 87.01 128.29 93.1705 127.743C99.156 127.006 105.382 124.908 109.536 120.227C112.384 117.035 114.139 113.051 115.216 108.88C109.515 108.52 103.791 107.016 98.7187 103.901C98.5383 105.569 97.9152 107.104 96.7618 108.373C93.8701 111.558 88.7811 111.789 85.2991 108.825C80.0952 104.343 73.0711 102.174 66.5116 103.299C59.9248 104.388 53.3271 108.411 48.6479 114.729C45.6524 119.172 44.1984 124.389 43.9852 129.466C49.8614 127.444 55.9782 127.416 61.6576 129.515" fill="#000000" fill-rule="evenodd" opacity="1" stroke="none"/>
<path d="M45.002 159.919C44.6958 158.283 44.9145 156.496 45.7126 154.839C47.7242 150.676 52.5782 148.959 56.4701 151.013C56.4865 151.024 56.4974 151.024 56.5139 151.03C62.729 154.293 69.4962 154.716 75.8261 153.434C82.1122 152.102 87.3325 148.718 90.727 143.472C93.3126 140.055 94.6846 136.03 94.8596 131.538C89.4043 132.21 83.3914 131.471 77.8158 129.078C77.8267 130.707 77.3676 132.276 76.3399 133.643C73.9293 137.2 69.1955 138.353 65.3637 135.966C65.32 135.938 65.2708 135.928 65.2271 135.9C59.3399 132.21 52.4798 131.345 45.9422 133.297C42.6842 134.292 39.3881 135.906 36.655 138.272C34.0367 140.7 31.7627 143.755 30.0572 147.291C27.8216 152.173 26.4769 157.239 27.3132 162.417C32.5881 159.443 39.1094 158.704 45.002 159.919" fill="#0f7177" fill-rule="evenodd" opacity="1" stroke="none"/>
<path d="M33.0035 192.426C32.3968 190.842 32.2711 189.02 32.7357 187.244C34.1897 182.898 38.9181 180.575 43.0286 181.936C43.0779 181.953 43.1325 181.959 43.1872 181.974C49.8341 184.269 56.8145 183.75 62.5759 181.427C65.5058 180.274 67.9438 178.574 70.256 176.591C72.6447 174.633 74.5962 172.257 75.9573 169.43C77.9142 165.635 78.1656 161.181 77.9634 156.885C72.3824 158.196 66.7795 158.602 60.8541 157.032C61.1602 158.672 61.0016 160.323 60.2637 161.858C58.3943 165.733 53.5675 167.439 49.4624 165.669C49.446 165.663 49.4296 165.663 49.4132 165.652C43.0232 162.849 35.8023 162.898 29.9096 165.947C23.9241 168.932 18.6711 174.689 16.1238 182.122C14.7572 187.32 14.7299 192.682 16.0473 197.608C21.0926 193.94 26.947 192.103 33.0035 192.426" fill="#000000" fill-rule="evenodd" opacity="1" stroke="none"/>
<path d="M26.0505 226.387C25.2797 224.922 24.9682 223.152 25.2415 221.337C25.9412 216.772 30.0627 213.699 34.381 214.493C34.4029 214.498 34.4302 214.493 34.4576 214.498C41.4653 215.794 47.8116 214.133 53.5403 211.054C59.1267 207.91 63.303 203.194 64.8225 197.132L64.8225 197.128C66.2055 193.092 66.446 188.884 65.2927 184.549C60.2473 186.778 54.2618 187.846 48.2107 187.201C48.719 188.757 48.6479 190.359 48.1724 191.999C47.1065 196.171 42.7499 198.618 38.4316 197.486C38.366 197.472 38.3004 197.476 38.2348 197.454C31.5332 195.695 24.7222 196.893 19.0373 200.685C13.0736 204.424 9.1981 210.979 8.05014 218.762C7.37233 224.085 7.49804 229.316 9.91962 234.012C13.9919 229.613 20.0813 226.978 26.0505 226.387" fill="#0f7177" fill-rule="evenodd" opacity="1" stroke="none"/>
<path d="M24.181 260.978C23.1315 259.643 22.4756 257.944 22.3827 256.107C22.6067 251.538 26.3402 247.929 30.6859 248.006C30.7515 248.006 30.8061 247.989 30.8717 247.995C37.8959 248.23 44.4171 245.666 49.2329 241.737C51.6653 239.769 53.5511 237.424 55.0926 234.827C56.8091 232.248 57.9788 229.4 58.4489 226.299C59.165 222.091 58.2576 217.788 56.5904 213.706C51.8457 216.652 46.4505 218.675 40.372 218.943C41.1428 220.412 41.4762 222.035 41.2193 223.726C40.5688 227.977 36.4473 231.033 32.0032 230.559C31.9923 230.559 31.9759 230.559 31.9649 230.559C24.99 229.765 18.1736 231.962 13.4453 236.615C8.58041 241.229 5.35532 248.263 5 256.107C5.24595 261.465 6.80936 266.587 9.53701 270.898C13.265 265.918 18.3103 262.449 24.181 260.978" fill="#000000" fill-rule="evenodd" opacity="1" stroke="none"/>
<path d="M27.5209 295.475C26.3457 294.3 25.5203 292.699 25.2415 290.878C24.5473 286.308 27.5865 282.153 31.9649 281.662C31.9759 281.662 31.9923 281.655 32.0032 281.655C38.9618 280.853 44.8161 277.387 49.3421 272.762C53.737 268.116 56.3171 262.365 55.9618 256.107C56.2078 251.826 55.1091 247.726 52.7476 243.917C48.5878 247.554 43.1872 250.34 37.218 251.503C38.1309 252.849 38.6283 254.401 38.5354 256.107C38.765 260.41 35.3376 264.033 30.8717 264.219C30.8061 264.226 30.7515 264.24 30.6859 264.247C23.7601 264.531 17.6106 267.674 13.3032 272.958C11.1659 275.611 9.36205 278.796 8.40546 282.29C7.61288 285.766 7.45981 289.571 8.05014 293.452C8.92479 298.748 10.7997 303.67 14.2434 307.506C17.0968 302.051 21.9344 297.798 27.5209 295.475" fill="#0f7177" fill-rule="evenodd" opacity="1" stroke="none"/>
<path d="M35.8406 329.113C34.4631 328.141 33.2496 326.73 32.7357 324.971C31.5878 320.542 34.0749 316.005 38.2457 314.798C38.3058 314.775 38.366 314.743 38.4316 314.726C45.2151 312.885 50.6814 308.527 54.1142 303.368C57.301 298.229 59.3617 292.103 58.4489 285.915C57.9296 281.673 55.5791 277.857 53.0428 274.409C49.1235 278.645 44.7669 282.132 38.9836 284.171C40.1588 285.351 40.9624 286.799 41.2193 288.488C41.8698 292.748 38.8415 296.869 34.4576 297.716C34.4302 297.721 34.4084 297.732 34.381 297.738C27.6138 299.006 21.4917 303.144 18.3868 308.965C15.1125 314.798 14.1231 322.477 16.1238 330.093C17.8293 335.181 20.9232 339.593 24.7823 342.921C26.865 337.056 30.6585 332.252 35.8406 329.113" fill="#000000" fill-rule="evenodd" opacity="1" stroke="none"/>
<path d="M49.2383 361.09C47.7679 360.315 46.5106 359.03 45.7126 357.373C43.7065 353.203 45.3846 348.339 49.4624 346.545C55.9071 343.703 60.4003 338.685 63.3576 332.935C66.211 327.189 66.8997 320.973 64.8225 315.087C63.784 310.938 61.51 307.353 58.1264 304.417C55.2293 309.098 50.8945 313.344 45.5377 316.214C46.8167 317.224 47.746 318.559 48.1724 320.215C49.5444 324.288 47.4235 328.737 43.1872 330.24C43.1325 330.256 43.0888 330.29 43.0396 330.311C36.491 332.624 31.5386 337.449 28.9913 343.78C27.7505 346.945 26.9196 350.547 27.1164 354.145C27.2203 356.117 27.6303 358.112 28.1769 360.008C29.128 363.315 30.4071 365.946 32.3038 368.831C33.3206 370.379 34.4685 371.844 35.7858 373.15C36.1685 373.532 40.2026 376.43 40.1917 376.483C41.1154 370.52 44.6248 364.945 49.2383 361.09" fill="#0f7177" fill-rule="evenodd" opacity="1" stroke="none"/>
<path d="M63.0023 387.685C60.4277 383.891 61.6248 378.691 65.2434 376.342C65.2872 376.314 65.32 376.276 65.3637 376.248C71.2946 372.482 75.2412 366.689 77.0177 360.73C77.9306 357.723 78.1547 354.734 78.0017 351.706C77.9579 348.616 77.3129 345.606 75.9573 342.785C74.1971 338.892 70.901 335.907 67.3807 333.405C64.9646 338.57 61.7669 343.227 56.8582 346.884C58.3287 347.666 59.5203 348.815 60.2637 350.354C62.1277 354.232 60.4495 359.069 56.5139 361.185C56.4974 361.188 56.492 361.201 56.4756 361.206C50.2823 364.475 45.8656 370.133 44.5701 376.654C43.1872 383.179 44.346 390.915 48.6479 397.486C51.8457 401.803 56.0001 405.17 60.6572 407.216C60.9524 400.978 63.1772 395.25 67.2059 390.712C65.5933 390.198 64.101 389.154 63.0023 387.685" fill="#000000" fill-rule="evenodd" opacity="1" stroke="none"/>
<path d="M84.9274 414.83C81.8281 411.424 82.0194 406.285 85.3811 403.323C90.7708 398.655 93.4602 392.632 94.5371 386.308C95.5756 379.966 94.5042 373.735 90.727 368.743C88.3492 365.196 85.2717 362.337 81.1502 360.55C79.7509 365.897 76.8482 371.248 72.5737 375.576C74.1261 376.14 75.274 377.233 76.3399 378.571C78.9254 382.016 78.1165 386.957 74.536 389.636C74.4814 389.675 74.4432 389.728 74.3884 389.773C68.8348 393.916 65.5167 399.988 64.9209 406.799C64.5984 410.472 65.0466 414.025 66.3968 417.469C67.102 419.273 68.0094 420.99 69.0698 422.613C70.8846 425.391 72.7377 427.539 75.3123 429.676C76.7608 430.879 78.3296 431.933 80.0132 432.781C80.5052 433.026 85.3155 434.583 85.3264 434.649C84.4846 428.653 85.955 422.546 89.3496 417.381C87.7316 417.059 86.1627 416.19 84.9274 414.83" fill="#0f7177" fill-rule="evenodd" opacity="1" stroke="none"/>
<path d="M109.225 427.129C113.795 421.782 115.888 415.065 115.866 408.807C115.844 405.674 115.287 402.644 114.15 399.885C113.018 397.129 111.685 394.265 109.536 391.985C106.667 388.81 102.906 386.694 98.511 385.586C98.0136 390.997 96.073 396.606 92.5255 401.491C94.1489 401.82 95.6139 402.574 96.7618 403.842C99.6535 407.03 99.4512 412.161 96.3136 415.338L96.3136 415.343L96.3136 415.343C91.2901 420.328 88.9943 426.783 89.5409 433.541C89.8142 436.908 90.7926 440.325 92.4489 443.566C94.1162 446.79 96.3518 449.966 99.5715 452.218C103.862 455.449 108.793 457.488 113.822 458.115C112.297 452.026 112.767 445.872 115.298 440.34C113.614 440.308 111.892 439.733 110.422 438.634C106.628 435.994 106.388 430.479 109.176 427.199C109.197 427.178 109.208 427.15 109.225 427.129" fill="#000000" fill-rule="evenodd" opacity="1" stroke="none"/>
<path d="M144.225 459.444C142.591 459.604 140.842 459.215 139.273 458.263C135.353 455.886 134.047 450.918 136.305 447.2C136.332 447.151 136.343 447.102 136.376 447.053C140.098 441.089 141.104 434.239 140.049 428.222C139.202 421.825 136.403 416.12 131.369 412.396C127.794 410.013 124.246 407.899 119.747 407.44C119.95 412.998 118.725 418.99 115.899 424.396C117.462 424.586 119.157 424.953 120.496 426.012C123.951 428.583 124.601 433.577 121.967 437.186C121.923 437.246 121.896 437.312 121.852 437.372C117.769 442.964 116.364 449.764 117.758 456.486C119.13 463.266 123.896 469.153 130.57 473.308C132.888 474.657 135.233 475.849 137.786 476.412C140.35 476.953 142.952 477.155 145.526 477.008C143.055 471.333 142.449 465.456 144.225 459.444" fill="#0f7177" fill-rule="evenodd" opacity="1" stroke="none"/>
<path d="M175.847 473.645C174.229 474.104 172.42 474.051 170.693 473.417C168.528 472.624 166.894 471.049 166.046 469.18C165.248 467.194 165.226 464.955 166.107 462.898C168.894 456.448 168.927 449.38 167.09 443.367C165.287 437.207 161.285 432.721 156.087 429.2C152.435 426.964 148.27 425.98 143.733 426.215C144.854 431.527 144.608 437.519 142.645 443.237C142.924 442.434 146.559 443.735 147.04 443.97C148.997 444.909 150.375 447.194 150.965 449.239C151.523 451.191 151.408 453.328 150.342 455.34C147.051 461.517 146.723 468.409 149.221 474.734C151.758 480.888 156.836 487.153 164.341 489.595C169.381 491.459 174.689 491.995 179.663 491.137C176.421 485.737 175.055 479.686 175.847 473.645" fill="#000000" fill-rule="evenodd" opacity="1" stroke="none"/>
<path d="M204.042 483.715C199.62 482.583 196.914 478.238 197.931 474.027C197.953 473.957 197.947 473.886 197.969 473.82C199.757 467.022 198.691 460.161 195.914 454.699C193.132 449.135 188.868 444.215 182.97 442.165C178.881 440.876 174.732 440.259 170.387 440.935C172.212 446.184 172.737 452.436 171.704 458.252C171.77 457.898 174.311 457.902 174.634 457.951C179.63 458.76 183.057 463.605 181.275 468.693C181.253 468.753 181.253 468.809 181.232 468.869C178.963 475.422 179.625 482.376 182.943 488.438C186.354 494.22 192.569 498.702 200.194 500.664C205.36 502.191 210.766 501.459 215.587 499.714C211.536 495.061 209.252 489.459 209.115 483.407C207.606 484.037 205.824 484.174 204.042 483.715" fill="#0f7177" fill-rule="evenodd" opacity="1" stroke="none"/>
<path d="M238.545 488.837C233.915 488.684 230.543 484.699 231.051 480.211C231.051 480.2 231.051 480.19 231.051 480.183C231.805 473.192 229.745 466.424 226.202 461.209C224.426 458.602 222.261 456.384 219.78 454.706C218.533 453.864 217.21 453.164 215.811 452.617C214.439 451.962 213.007 451.359 211.487 450.977C207.355 449.895 203.091 450.157 198.838 451.703C201.468 456.471 203.004 462.288 202.823 468.339C204.337 467.709 205.972 467.54 207.623 467.965C211.761 469.185 214.57 473.158 213.767 477.544C213.761 477.565 213.767 477.587 213.761 477.604C212.46 484.469 214.188 491.148 218.44 496.452C222.677 501.632 229.395 506.06 237.261 506.169C242.623 506.453 247.838 505.398 252.336 503.109C247.652 498.905 244.564 493.531 243.536 487.53C242.126 488.442 240.382 488.929 238.545 488.837" fill="#000000" fill-rule="evenodd" opacity="1" stroke="none"/>
<path d="M278.181 487.033C276.924 488.081 275.262 488.743 273.425 488.837C268.866 489.072 265.002 485.716 264.745 481.392C264.739 481.321 264.723 481.259 264.718 481.189C264.433 474.164 261.4 467.933 257.13 463.543C252.823 458.942 247.286 455.592 241.027 455.35C238.89 455.214 236.758 455.564 234.691 455.95C232.631 456.279 230.608 456.935 228.629 457.919C231.926 462.407 234.281 468.239 235.025 474.051C236.441 473.137 238.031 472.639 239.742 472.727C244.044 472.94 247.4 476.724 247.258 481.189C247.253 481.259 247.275 481.321 247.269 481.392C247.045 488.316 249.724 494.756 254.665 499.556C259.623 504.185 266.866 506.53 274.71 506.169C277.388 505.994 279.99 505.639 282.417 504.7C284.839 503.694 287.102 502.392 289.146 500.818C283.91 497.545 280.105 493.007 278.181 487.033" fill="#0f7177" fill-rule="evenodd" opacity="1" stroke="none"/>
<path d="M312.312 480.986C311.235 482.276 309.71 483.26 307.928 483.715C303.484 485.005 299.056 481.938 298.209 477.544C296.881 470.639 292.934 464.79 288.031 460.866C283.073 456.809 277.241 455.357 270.949 455.35C266.669 455.553 262.662 457.078 259.044 459.815C262.968 463.582 266.144 468.683 267.751 474.51C267.647 474.149 269.992 473.182 270.293 473.088C275.142 471.557 280.351 475.27 280.93 480.204C281.685 487.163 285.298 493.046 290.917 496.849C293.721 498.758 297.012 500.145 300.582 500.895C302.369 501.271 304.222 501.491 306.113 501.533C309.573 501.617 313.569 500.353 316.707 498.982C318.341 498.264 319.916 497.408 321.397 496.413C321.807 496.14 325.174 493.193 325.305 493.253C319.588 490.629 315.062 486.414 312.312 480.986" fill="#000000" fill-rule="evenodd" opacity="1" stroke="none"/>
<path d="M345.295 470.284C344.399 471.661 343.005 472.787 341.283 473.417C336.981 474.997 332.291 472.93 330.777 468.858C330.755 468.798 330.722 468.753 330.701 468.693C328.356 462.068 323.622 457.007 318.254 454.076C312.76 450.841 306.529 449.37 300.489 450.977C296.394 452.256 292.573 453.896 289.387 456.995C293.853 460.336 297.783 465.07 300.237 470.634C301.319 469.345 302.697 468.392 304.348 467.965C308.519 466.889 312.831 469.507 314.007 473.82C314.028 473.886 314.067 473.946 314.083 474.017C315.903 480.698 320.353 486.049 326.486 489.164C332.625 492.23 340.228 492.247 347.635 489.595C352.751 487.902 356.884 484.43 359.847 480.19C353.866 478.599 348.881 475.379 345.295 470.284" fill="#0f7177" fill-rule="evenodd" opacity="1" stroke="none"/>
<path d="M372.703 458.263C370.73 459.456 368.478 459.755 366.488 459.247C364.46 458.679 362.673 457.268 361.634 455.333C361.634 455.329 361.623 455.318 361.618 455.312C358.305 449.113 352.795 444.685 346.941 442.379C340.993 439.925 334.997 440.318 329.006 442.165C324.988 443.619 321.621 446.261 318.981 449.95C323.835 452.386 328.372 456.318 331.624 461.412C332.521 460.035 333.773 458.97 335.374 458.385C337.408 457.641 339.589 457.81 341.502 458.662C343.36 459.394 344.973 460.849 345.869 462.898C345.875 462.909 345.88 462.922 345.886 462.933C348.674 469.345 353.866 473.897 360.366 475.881C366.778 477.755 374.819 477.636 381.405 473.308C386.003 470.53 389.725 466.72 392.163 462.303C385.91 461.468 380.329 458.76 376.092 454.383C375.442 455.925 374.272 457.306 372.703 458.263" fill="#000000" fill-rule="evenodd" opacity="1" stroke="none"/>
<path d="M401.554 438.634L401.554 438.634C397.903 441.367 392.808 440.766 390.157 437.35C390.113 437.29 390.053 437.246 390.009 437.186C385.811 431.551 379.776 428.096 373.758 426.849C367.718 425.641 361.169 425.85 355.889 429.2C354.041 430.276 352.489 431.779 350.986 433.24C349.472 434.673 348.171 436.362 347.094 438.285C352.33 440.122 357.573 443.636 361.459 448.02C362.115 446.474 363.154 445.167 364.613 444.281C368.292 442.04 373.201 443.28 375.6 447.053C375.628 447.102 375.671 447.134 375.699 447.183C379.416 453.048 385.276 456.871 392.086 458.056C398.684 458.92 406.118 456.941 412.399 452.218C416.832 449.156 419.511 444.324 421.238 439.575C415.056 439.814 409.223 438.072 404.418 434.41C404.09 436.131 402.997 437.498 401.554 438.634" fill="#0f7177" fill-rule="evenodd" opacity="1" stroke="none"/>
<path d="M429.191 410.16C429.011 411.817 428.284 413.474 427.048 414.83C423.927 418.262 418.784 418.496 415.668 415.349C415.668 415.349 415.657 415.343 415.657 415.338C410.71 410.433 404.101 407.777 397.804 407.269C394.645 407.017 391.54 407.314 388.665 408.194C385.767 409.052 383.215 410.636 380.602 412.396C377.169 414.943 374.698 418.432 373.244 422.707C378.629 423.629 384.138 426.068 388.758 429.982C389.217 428.412 390.108 427.031 391.474 426.012C395.033 423.565 399.756 423.685 402.751 427.129C402.767 427.15 402.795 427.168 402.811 427.189C407.365 432.474 413.667 435.305 420.478 435.322C423.889 435.339 427.409 434.656 430.809 433.294C434.204 431.927 437.101 429.512 439.79 426.659C443.393 422.679 445.902 418.012 446.918 413.064C440.714 414.102 434.526 413.107 429.191 410.16" fill="#000000" fill-rule="evenodd" opacity="1" stroke="none"/>
<path d="M450.318 382.699C450.395 384.371 450.116 386.241 448.974 387.685C446.24 391.346 441.157 392.237 437.615 389.735C437.555 389.696 437.494 389.675 437.44 389.636C431.771 385.477 424.96 383.922 418.8 384.469C412.82 385.208 406.594 387.307 402.439 391.985C399.586 395.177 397.837 399.164 396.76 403.327C402.461 403.695 408.184 405.198 413.257 408.313C413.438 406.646 414.061 405.11 415.209 403.842C418.106 400.657 423.195 400.426 426.595 403.323C426.617 403.345 426.649 403.366 426.671 403.39C431.881 407.871 438.899 410.041 445.464 408.915C452.051 407.827 458.649 403.803 463.328 397.486C466.323 393.04 467.777 387.826 467.991 382.748C462.114 384.77 455.992 384.798 450.318 382.699" fill="#0f7177" fill-rule="evenodd" opacity="1" stroke="none"/>
<path d="M466.974 352.295C467.28 353.931 467.056 355.718 466.263 357.373C464.252 361.539 459.398 363.256 455.506 361.201C455.489 361.188 455.473 361.188 455.462 361.178C449.247 357.922 442.48 357.499 436.144 358.778C429.864 360.113 424.643 363.497 421.249 368.743C418.663 372.16 417.286 376.182 417.111 380.677C422.572 380.004 428.585 380.737 434.16 383.137C434.149 381.507 434.608 379.938 435.636 378.571C438.047 375.014 442.78 373.861 446.612 376.248C446.656 376.276 446.705 376.287 446.749 376.314C452.636 380.004 459.496 380.867 466.034 378.915C469.292 377.923 472.588 376.308 475.321 373.942C477.939 371.515 480.213 368.459 481.919 364.923C484.154 360.042 485.499 354.975 484.663 349.797C479.382 352.771 472.867 353.511 466.974 352.295" fill="#000000" fill-rule="evenodd" opacity="1" stroke="none"/>
<path d="M478.972 319.788C479.579 321.373 479.699 323.194 479.24 324.971C477.786 329.316 473.058 331.639 468.947 330.279C468.893 330.262 468.838 330.256 468.789 330.24C462.142 327.943 455.156 328.464 449.4 330.787C446.47 331.94 444.032 333.633 441.72 335.623C439.331 337.581 437.38 339.964 436.019 342.785C434.062 346.577 433.81 351.033 434.012 355.33C439.594 354.018 445.196 353.613 451.116 355.182C450.816 353.542 450.969 351.892 451.712 350.354C453.582 346.474 458.408 344.775 462.513 346.545C462.53 346.551 462.546 346.551 462.563 346.562C468.953 349.366 476.174 349.317 482.066 346.268C488.052 343.283 493.305 337.526 495.852 330.093C497.219 324.894 497.246 319.532 495.923 314.606C490.878 318.275 485.023 320.111 478.972 319.788" fill="#0f7177" fill-rule="evenodd" opacity="1" stroke="none"/>
<path d="M485.925 285.827C486.696 287.292 487.008 289.062 486.729 290.878C486.035 295.442 481.913 298.513 477.518 297.716C470.511 296.42 464.164 298.082 458.436 301.158C452.849 304.302 448.673 309.021 447.153 315.087C445.77 319.122 445.524 323.331 446.678 327.665C451.729 325.434 457.714 324.369 463.76 325.014C463.377 324.971 463.415 322.434 463.443 322.128C463.864 317.088 468.461 313.393 473.544 314.726C473.61 314.743 473.676 314.739 473.741 314.76C480.443 316.52 487.254 315.321 492.933 311.53C498.902 307.784 502.772 301.236 503.92 293.452C504.604 288.127 504.478 282.896 502.056 278.203C497.984 282.601 491.895 285.236 485.925 285.827" fill="#000000" fill-rule="evenodd" opacity="1" stroke="none"/>
<path d="M200.054 81.1586C170.742 81.1586 151.521 114.314 151.521 129.691C151.521 134.496 152.963 135.457 156.327 135.457C159.69 135.457 176.989 116.717 189.482 116.717C227.924 116.717 245.703 181.586 251.95 224.352C252.911 232.04 252.43 232.04 249.547 241.17C234.651 287.299 186.119 362.259 161.612 398.778C156.807 405.986 156.807 404.544 156.807 411.271C156.807 419.921 172.664 425.687 179.391 425.687C183.236 425.687 189.002 411.271 190.443 408.388C212.547 368.986 246.183 305.078 256.755 275.767C257.716 273.364 259.157 273.845 259.638 276.247C263.962 309.403 274.053 362.259 283.664 393.973C290.871 417.999 300.001 424.245 315.858 424.245C336.52 424.245 362.949 409.83 362.949 373.791C362.949 371.389 360.066 369.467 357.663 369.467C353.819 369.467 340.365 386.285 323.066 385.804C315.378 385.804 300.482 378.597 294.715 358.415C274.053 285.857 261.56 190.716 255.794 159.002C249.547 125.366 232.729 81.1586 200.054 81.1586Z" fill="#0f7177" fill-rule="evenodd" opacity="1" stroke="#0f7177" stroke-linecap="butt" stroke-linejoin="miter" stroke-width="5"/>
</g>
</svg>
