<?xml version="1.0" encoding="UTF-8" standalone="no"?>
<!-- Created with Vectornator (http://vectornator.io/) -->

<svg
   height="100%"
   stroke-miterlimit="10"
   style="fill-rule:nonzero;clip-rule:evenodd;stroke-linecap:round;stroke-linejoin:round;"
   version="1.1"
   viewBox="0 0 512 270"
   width="100%"
   xml:space="preserve"
   id="svg36"
   sodipodi:docname="logo-akarui.svg"
   inkscape:version="1.1.2 (0a00cf5339, 2022-02-04)"
   inkscape:export-filename="/home/phdp/Documents/AkaruiLogos/SVG/logo-akarui-500.png"
   inkscape:export-xdpi="96.442909"
   inkscape:export-ydpi="96.442909"
   xmlns:inkscape="http://www.inkscape.org/namespaces/inkscape"
   xmlns:sodipodi="http://sodipodi.sourceforge.net/DTD/sodipodi-0.dtd"
   xmlns="http://www.w3.org/2000/svg"
   xmlns:svg="http://www.w3.org/2000/svg"
   xmlns:vectornator="http://vectornator.io"><sodipodi:namedview
   id="namedview38"
   pagecolor="#ffffff"
   bordercolor="#666666"
   borderopacity="1.0"
   inkscape:pageshadow="2"
   inkscape:pageopacity="0.0"
   inkscape:pagecheckerboard="0"
   showgrid="false"
   inkscape:zoom="1.3066406"
   inkscape:cx="287.37818"
   inkscape:cy="287.37818"
   inkscape:window-width="1920"
   inkscape:window-height="1016"
   inkscape:window-x="0"
   inkscape:window-y="27"
   inkscape:window-maximized="1"
   inkscape:current-layer="g33" />
<defs
   id="defs5">
<clipPath
   id="TextBounds">
<rect
   height="145.654"
   width="532"
   x="-5.00001"
   y="161.444"
   id="rect2" />
</clipPath>
</defs>
<g
   id="Layer-1"
   vectornator:layerName="Layer 1">
<path
   d="M111.782 109.22C119.763 110.785 132.831 109.455 150.986 105.229C150.986 105.073 151.142 104.994 151.455 104.994C152.551 103.899 152.864 102.725 152.394 101.473C151.299 99.9079 148.716 98.4994 144.647 97.2474C141.83 96.7778 134.475 97.9516 122.58 100.769C119.294 100.925 116.007 101.395 112.721 102.177C113.816 98.2646 115.225 86.3703 116.946 66.4943C130.093 66.4943 141.126 65.0076 150.047 62.034C150.203 61.8775 150.36 61.7992 150.516 61.7992C151.925 60.7037 152.238 59.5299 151.455 58.2779C150.36 56.7129 147.699 55.3826 143.474 54.287C141.126 53.8175 134.083 54.9913 122.346 57.8084C120.781 57.9649 119.137 58.2779 117.416 58.7474C118.355 36.9934 119.059 25.1773 119.529 23.2993C119.685 23.2993 129.623 21.2647 149.342 17.1956C152.629 16.5696 155.055 17.1956 156.62 19.0737C158.654 20.9517 159.593 25.3338 159.437 32.22C161.315 85.9008 161.08 128.861 158.733 161.101C158.576 165.953 157.715 169.474 156.15 171.665C155.211 172.76 152.942 172.917 149.342 172.134L135.257 168.848C131.501 167.752 129.78 168.065 130.093 169.787C140.109 179.177 147.856 187.159 153.333 193.732C155.837 197.175 158.498 199.444 161.315 200.54C163.193 201.166 164.915 200.54 166.48 198.662C174.148 190.054 177.904 180.429 177.748 169.787C175.87 138.33 174.853 97.0909 174.696 46.0706C174.54 35.1153 175.792 27.2119 178.452 22.3603C180.8 18.6042 180.8 15.7871 178.452 13.9091C174.54 10.153 169.062 6.94464 162.019 4.28407C158.576 2.71903 155.524 2.56253 152.864 3.81456C143.474 8.97919 131.11 12.657 115.772 14.8481C107.791 10.9355 102.548 9.13569 100.044 9.4487C96.6007 10.0747 96.2094 12.2658 98.87 16.0219C102.626 22.282 104.504 29.7159 104.504 38.3237C105.443 49.7484 104.817 67.1986 102.626 90.6742C101.218 106.794 96.3659 124.323 88.0712 143.259C81.4981 159.223 68.8995 175.265 50.2756 191.384C47.7715 193.419 46.2847 195.062 45.8152 196.314C45.6587 197.41 46.5195 197.958 48.3975 197.958C51.2146 197.958 54.2664 196.706 57.553 194.201C67.5692 187.472 75.5509 180.742 81.4981 174.012C90.4188 163.996 97.4615 153.432 102.626 142.32C106.382 132.774 109.434 121.74 111.782 109.22Z"
   fill="#3d85c6"
   fill-rule="evenodd"
   opacity="1"
   stroke="#000000"
   stroke-linecap="butt"
   stroke-linejoin="miter"
   stroke-width="0.1"
   id="path7" />
<path
   d="M265.587 137.238C259.466 137.118 254.065 138.798 249.384 142.279C245.304 145.519 243.263 149.84 243.263 155.241C243.263 161.482 245.964 166.523 251.365 170.363C256.886 174.444 263.907 176.484 272.428 176.484C283.71 176.484 293.312 174.504 301.233 170.543C309.994 166.103 316.055 160.522 319.416 153.8C323.017 147.559 324.817 140.598 324.817 132.917C324.817 122.835 322.477 114.674 317.796 108.433C311.555 99.3113 302.133 94.7506 289.531 94.7506C281.25 94.7506 268.588 99.0113 251.545 107.533C261.026 96.3709 269.968 86.8893 278.369 79.088C290.971 67.566 299.373 61.0249 303.573 59.4647C307.654 58.0244 309.934 56.6442 310.415 55.324C310.895 53.8837 310.475 52.2635 309.154 50.4632C307.954 48.5428 305.194 46.0224 300.873 42.9019C297.992 40.9816 294.932 41.1016 291.691 43.2619C275.729 50.2231 262.046 53.8237 250.645 54.0638C246.564 53.3436 242.663 50.7032 238.943 46.1424L235.882 48.4828C238.883 55.804 241.943 61.0849 245.064 64.3255C246.984 66.2458 248.784 67.206 250.464 67.206C252.385 67.206 253.765 66.6659 254.605 65.5857C256.405 61.505 268.047 57.5443 289.531 53.7037C268.528 73.9871 246.684 97.451 224 124.095C222.56 125.536 221.84 127.936 221.84 131.297C221.84 134.297 222.38 136.638 223.46 138.318C224.54 139.878 226.4 139.278 229.041 136.518C251.845 113.474 272.008 102.012 289.531 102.132C297.212 102.012 303.753 105.492 309.154 112.574C312.395 117.614 314.015 124.396 314.015 132.917C314.015 139.038 312.275 145.099 308.794 151.1C305.194 156.261 300.393 160.402 294.392 163.522C294.032 158.121 292.472 153.32 289.711 149.12C284.55 141.078 276.509 137.118 265.587 137.238ZM278.719 172.335C271.877 172.335 266.656 171.074 263.056 168.554C259.695 166.034 258.015 163.033 258.015 159.553C258.015 155.952 259.275 153.191 261.796 151.271C263.956 149.711 267.317 148.931 271.877 148.931C276.678 148.811 281.179 151.271 285.38 156.312C288.62 160.273 290.06 165.314 289.7 171.435C286.34 171.915 282.679 172.215 278.719 172.335Z"
   fill="#000000"
   fill-rule="evenodd"
   opacity="1"
   stroke="#000000"
   stroke-linecap="butt"
   stroke-linejoin="miter"
   stroke-width="4"
   id="path9" />
<path
   d="M388.246 130.032C382.365 106.268 383.746 85.6246 392.387 68.1017C393.107 62.7008 389.867 57.8399 382.666 53.5192C378.585 50.9988 374.024 48.8384 368.983 47.0381L367.003 50.4587C372.524 54.8994 376.544 58.6801 379.065 61.8006C380.625 64.081 380.985 66.9615 380.145 70.4421C375.824 83.4042 374.384 97.8666 375.824 113.829C376.544 131.952 381.465 146.295 390.587 156.857C393.227 159.857 395.928 161.477 398.688 161.717C400.248 161.717 401.929 160.517 403.729 158.117C405.169 155.956 404.989 154.216 403.189 152.896C401.749 151.816 401.029 149.355 401.029 145.515C401.149 141.914 402.829 137.293 406.069 131.652L415.431 113.109L412.37 111.129L396.708 131.652C395.148 133.213 393.587 134.053 392.027 134.173C389.867 134.173 388.607 132.793 388.246 130.032ZM456.838 56.0396L455.398 60.1803C475.681 72.4224 487.083 88.6251 489.603 108.788C489.964 112.029 489.363 114.489 487.803 116.17C486.243 117.73 483.122 118.63 478.442 118.87L457.558 118.87L457.558 122.651L478.442 125.171C483.842 125.651 487.743 127.632 490.144 131.112C492.064 134.473 494.104 136.213 496.265 136.333C498.545 136.333 500.285 134.593 501.485 131.112C505.446 112.269 500.465 94.3861 486.543 77.4632C478.862 67.9816 468.96 60.8404 456.838 56.0396Z"
   fill="#000000"
   fill-rule="evenodd"
   opacity="1"
   stroke="#000000"
   stroke-linecap="butt"
   stroke-linejoin="miter"
   stroke-width="4"
   id="path11" />
<path
   d="M55.7815 21.0657C54.6077 21.0657 53.4929 21.3517 52.3974 21.8994C45.8242 25.186 34.6975 28.4708 19.0471 31.7574L18.5812 31.2915C14.1991 28.0049 10.6727 26.9741 8.01209 28.2262C6.91656 28.8522 6.85236 30.1887 7.79139 32.2233C7.94789 33.6318 8.40664 35.0326 9.18916 36.4411C13.5713 43.9533 14.1187 65.4819 10.8321 101.008C7.07606 114.781 8.01807 125.424 13.6522 132.936L14.1181 133.402C15.6832 135.437 17.3256 135.437 19.0471 133.402C20.1426 131.524 21.2376 126.992 22.3331 119.792C23.2721 119.792 24.367 119.704 25.6191 119.547C30.9402 118.452 38.9993 117.598 49.798 116.972C53.5541 121.824 56.7747 126.509 59.4353 131.048C60.5308 133.552 61.9316 134.736 63.6531 134.579C66.0007 134.423 68.2792 132.08 70.4703 127.541C72.9744 122.22 73.9806 116.262 73.5111 109.689C72.4155 94.9778 71.5623 73.9966 70.9362 46.765C70.7797 42.3829 71.8747 38.7036 74.2222 35.73C75.3177 34.1649 75.3177 32.6113 74.2222 31.0462C71.7181 28.2292 66.791 25.186 59.4353 21.8994C58.1833 21.3517 56.9552 21.0657 55.7815 21.0657ZM54.3837 33.1551C55.5575 33.116 56.3022 33.2047 56.6152 33.4004C60.0583 36.3739 61.0645 55.3823 59.656 90.4392C59.656 100.768 58.8914 107.644 57.3264 111.087C56.2308 109.991 54.6526 108.832 52.6181 107.58C50.114 106.015 46.4347 105.926 41.5831 107.335C34.8534 108.9 28.5255 110.325 22.5783 111.577C22.5783 101.092 22.6425 90.5123 22.799 79.8701C32.3457 78.4615 40.5823 77.0608 47.4684 75.6522C50.9115 75.0262 52.0064 73.6897 50.7544 71.6551C48.8764 69.3075 45.8974 67.971 41.8283 67.658C35.5681 67.1885 29.3044 68.8308 23.0442 72.587C23.2007 54.276 23.5066 44.3574 23.9761 42.7924C24.1326 40.9144 24.1326 39.4249 23.9761 38.3293C26.3236 38.1728 29.061 37.6254 32.191 36.6864C43.4593 34.4562 50.8624 33.2725 54.3837 33.1551Z"
   fill="#3d85c6"
   fill-rule="evenodd"
   opacity="1"
   stroke="#000000"
   stroke-linecap="butt"
   stroke-linejoin="miter"
   stroke-width="0.1"
   id="path13" />
<g
   fill="#000000"
   opacity="1"
   stroke="#000000"
   stroke-linecap="butt"
   stroke-linejoin="miter"
   stroke-width="1"
   id="g33">
<path
   clip-path="url(#TextBounds)"
   d="m 55.25,266.744 c 2.7,0 4.3241,-0.5 7.1,-0.5 3.8659,0 5.9,0.5 9.9,0.5 0.9,0 0.9,-2.2 0,-2.4 -1.3,-0.3 -3.1,-1.3 -4.2,-3 -0.4,-0.7 -0.3493,-2.037 -0.1,-3.3 0.3465,-1.756 0.4,-1.2 1.6,-4.3 0.4,-0.9 0.5382,-1.2 1.2,-1.2 h 14.2 c 1.4,0 1.7,0.1 1.9,0.7 1,2.7 0.9,1.8 1.4,4.3 0.3,1.3 0.6413,2.738 -0.2,4.1 -0.989,1.601 -2.4,2.4 -4,2.7 -0.6,0.1 -1.0368,2.4 -0.1,2.4 3.3,0 6.3393,-0.5 10.4,-0.5 3.8,0 5.851,0.5 9.6,0.5 1.2,0 0.7,-2.2 0,-2.4 -1.7,-0.4 -3.3,-1.6 -4.5,-2.9 -1.8,-1.9 -2.7,-3.4 -3.5,-5.7 -4.7,-12.5 -7.7,-21.6 -12.5,-34.7 -0.2,-0.6 -0.3,-0.9 -0.7,-0.9 -0.3,0 -0.6,0.5 -1.4,1.4 -0.6,0.7 -3.6,2.9 -4.5,3.1 -0.1,0.1 -0.244,1.963 -0.5,3.2 -0.2128,1.028 -0.5,2 -0.7,2.6 -4.8,11.7 -6.7202,16.509 -11.6,26.8 -0.8723,1.839 -1.5155,2.921 -3.1,4.2 -1.9411,1.566 -3.6,2.2 -5.7,2.9 -0.6,0.2 -0.8,2.4 0,2.4 z m 23.3,-34 c 0.6,-1.5 0.6,-1.5 1.2,0 1.1,3.1 4.8,13.4 5.5,16.1 0.3,1 0.2,1 -0.8,1 h -11.7 c -1.2,0 -1.7,-0.1 -1.3,-1 2.2,-4.8 5.4,-11.9 7.1,-16.1 z"
   fill-rule="evenodd"
   id="path15"
   transform="translate(55.778127)" />
<path
   clip-path="url(#TextBounds)"
   d="m 148.75,259.844 c -6.5,-7.4 -9.2,-11.2 -15.9,-18.8 -0.4,-0.5 -0.626,-0.844 -0.3,-1.2 4.469,-4.883 7.4,-7.6 12.2,-11.8 3.1,-2.8 4.5,-3.6 8.8,-4.1 0.4,-0.1 0.7,-2.9 0,-2.9 -3.8,0.4 -7.7,0.6 -8.8,0.6 -2.5,0 -4.4,0.1 -7.5,-0.2 -0.8,0 -1,3 -0.2,3.2 2.3,0.5 3.3,2.3 2.3,3.4 0,0 -10.3,10.6 -13.2,13.2 -0.5,0.5 -1,0.7 -1.5,0.7 -0.3,0 -0.3,-0.5 -0.3,-0.8 0,-4.3 0.1,-6.7 0.3,-12.2 0.049,-1.356 0.4,-2.7 1.1,-3.3 1.4,-1.2 2.2,-1.5 3.9,-1.7 0.7,-0.1 0.8,-2.5 0,-2.5 -3.8,0 -5.244,0.3 -8.6,0.3 -3.824,0 -5.8,-0.3 -9.8,-0.3 -0.6,0 -0.6,2.3 0,2.5 1.7,0.4 2.732,1.079 4.1,2.3 0.899,0.802 1.5,1.5 1.5,2.7 v 29.2 c 0,1.5 -0.162,2.545 -1.2,3.6 -1.554,1.579 -3.1,2.2 -5,2.7 -1.2,0.2 -0.8,2.4 0,2.4 3.5,0 6.341,-0.4 10.4,-0.4 3.358,0 4.9,0.4 8.6,0.4 1.1,0 1.1,-2.2 0,-2.4 -2,-0.5 -2.8,-1.1 -4.1,-2.4 -0.5,-0.5 -0.844,-2.34 -0.9,-3.9 -0.2,-5.6 -0.3,-8.3 -0.3,-12.7 0,-0.5 -0.1,-1.5 0.3,-1.5 0.3,0 1.001,0.641 1.5,1.2 5.359,6.001 9.9,11.7 13.5,15.6 1,1 1.1,1.4 1.1,2.1 0,0.9 -2.4,1.1 -4.1,1.6 -0.6,0.1 -0.6,2.4 0.2,2.4 1.5,0 7.5,-0.4 12.3,-0.4 3.3,0 5.8,0.7 7.8,0.7 1,0 0.6,-2.3 0,-2.5 -3.9,-1.1 -5.3,-1.5 -8.2,-4.8 z"
   fill-rule="evenodd"
   id="path17"
   transform="translate(55.778127)" />
<path
   clip-path="url(#TextBounds)"
   d="m 163.15,266.744 c 2.7,0 4.324,-0.5 7.1,-0.5 3.866,0 5.9,0.5 9.9,0.5 0.9,0 0.9,-2.2 0,-2.4 -1.3,-0.3 -3.1,-1.3 -4.2,-3 -0.4,-0.7 -0.349,-2.037 -0.1,-3.3 0.346,-1.756 0.4,-1.2 1.6,-4.3 0.4,-0.9 0.538,-1.2 1.2,-1.2 h 14.2 c 1.4,0 1.7,0.1 1.9,0.7 1,2.7 0.9,1.8 1.4,4.3 0.3,1.3 0.641,2.738 -0.2,4.1 -0.989,1.601 -2.4,2.4 -4,2.7 -0.6,0.1 -1.037,2.4 -0.1,2.4 3.3,0 6.339,-0.5 10.4,-0.5 3.8,0 5.851,0.5 9.6,0.5 1.2,0 0.7,-2.2 0,-2.4 -1.7,-0.4 -3.3,-1.6 -4.5,-2.9 -1.8,-1.9 -2.7,-3.4 -3.5,-5.7 -4.7,-12.5 -7.7,-21.6 -12.5,-34.7 -0.2,-0.6 -0.3,-0.9 -0.7,-0.9 -0.3,0 -0.6,0.5 -1.4,1.4 -0.6,0.7 -3.6,2.9 -4.5,3.1 -0.1,0.1 -0.244,1.963 -0.5,3.2 -0.213,1.028 -0.5,2 -0.7,2.6 -4.8,11.7 -6.72,16.509 -11.6,26.8 -0.872,1.839 -1.516,2.921 -3.1,4.2 -1.941,1.566 -3.6,2.2 -5.7,2.9 -0.6,0.2 -0.8,2.4 0,2.4 z m 23.3,-34 c 0.6,-1.5 0.6,-1.5 1.2,0 1.1,3.1 4.8,13.4 5.5,16.1 0.3,1 0.2,1 -0.8,1 h -11.7 c -1.2,0 -1.7,-0.1 -1.3,-1 2.2,-4.8 5.4,-11.9 7.1,-16.1 z"
   fill-rule="evenodd"
   id="path19"
   transform="translate(55.778127)" />
<path
   clip-path="url(#TextBounds)"
   d="m 230.65,247.544 c 0,-0.9 0.3,-1.5 1,-1.4 1.3,0.1 3.507,0.515 5.5,1.5 1.411,0.697 2.2,1.5 3,2.7 4.7,7.7 5.5,9.6 8.8,13.7 2.5,3 7.1,3.8 11.1,3.8 1.7,0 4,-0.9 4.9,-1.5 0.6,-0.4 0.9,-2 0.2,-2 -3.3,-0.1 -4.7,0.8 -7.5,-2 -6.3,-6.1 -8.1,-11 -12.4,-17.5 -0.3,-0.4 -0.3,-0.5 0,-0.6 0.9,-0.4 2.6,-1.5 4,-2.9 1.1,-1 3.5,-5.3 3.5,-8.4 0,-7.5 -7.3,-11.8 -17.4,-11.8 -4,0 -5.8,0.6 -8.4,0.6 -3.551,0 -6.2,-0.3 -9.1,-0.3 -0.976,0 -0.5,2.3 0.1,2.5 2.7,0.7 2.9,0.8 4.3,2.3 0.7,0.8 0.9,3.1 0.9,5 v 26.7 c 0,1.7 -0.732,2.851 -2,4.1 -1.404,1.382 -2.5,1.8 -4.5,2.3 -0.6,0.2 -0.6,2.5 0,2.5 1.9,0 6.826,-0.6 11.2,-0.6 3.751,0 8.2,0.6 9.6,0.6 0.7,0 0.6,-2.7 0,-2.9 -4.4,-1.1 -6.4,-2.8 -6.5,-5.6 -0.1,-3.7 -0.2,-6.8 -0.3,-10.8 z m 0,-6.9 c -0.1,-5.5 0.1,-7.8 0.3,-12.8 0.1,-2.1 0.6,-3.8 4.4,-3.8 7.8,0 9,5.1 9,9 0,4.1 -0.8,6.7 -3.1,8.1 -1.8,1.2 -3.2,2 -7.3,2 -2.1,0 -3.2,0.2 -3.3,-2.5 z"
   fill-rule="evenodd"
   id="path21"
   transform="translate(55.778127)" />
<path
   clip-path="url(#TextBounds)"
   d="m 269.65,246.044 c 0,11.886 7.5,21.7 21.4,21.7 14.5,0 18.1,-11.586 18.1,-23 0,-6.2 0.5,-13.6 0.7,-15.8 0.2,-3.7 2.743,-4.889 5.8,-5.5 0.5,-0.1 0.858,-2.2 0,-2.2 -3.2,0 -5,0.1 -8.1,0.1 h -7.2 c -1.015,0 -1,2.3 -0.1,2.6 3.3,0.8 4.6,1.4 4.5,7.5 v 15.7 c 0,12.3 -4,17.1 -12.4,17.1 -9.2,0 -15.2,-7.608 -15.2,-16.3 0,-3.5 -0.2,-12 0,-18 0.1,-3.9 1.1,-5.7 4,-6.1 0.8,-0.2 0.8,-2.4 0,-2.4 -3.9,0 -4.208,0.2 -6.9,0.2 -3.394,0 -5.5,-0.2 -8.7,-0.2 -0.978,0 -0.6,2.3 0.2,2.5 2.3,0.7 3.9,1 3.9,5.3 z"
   fill-rule="evenodd"
   id="path23"
   transform="translate(55.778127)" />
<path
   clip-path="url(#TextBounds)"
   d="m 338.25,228.744 c 0,-1.2 0.6,-2.1 1.4,-2.7 1.4,-1.3 2.9,-1.8 4.6,-2.5 0.7,-0.3 0.9,-2.3 0,-2.3 -4.1,0 -5.794,0.2 -9.5,0.2 -3.901,0 -5.7,-0.2 -10,-0.2 -0.6,0 -0.7,2 0,2.3 1.7,0.7 2.923,1.119 4.4,2.4 0.95,0.823 1.6,1.5 1.6,2.8 v 29.5 c 0,1.5 -0.169,2.67 -1.3,3.7 -1.704,1.551 -3.3,2 -5.4,2.4 -1.2,0.3 -0.8,2.4 0,2.4 3.8,0 6.522,-0.5 10.7,-0.5 3.983,0 6.2,0.5 10.2,0.5 1.2,0 1.2,-2.1 0,-2.4 -2.1,-0.4 -3.622,-0.873 -5.3,-2.4 -1.141,-1.039 -1.4,-2.2 -1.4,-3.7 z"
   fill-rule="evenodd"
   id="path25"
   transform="translate(55.778127)" />



</g>
</g>
</svg>
