<?xml version="1.0" encoding="UTF-8" standalone="no"?>
<!DOCTYPE svg PUBLIC "-//W3C//DTD SVG 1.1//EN" "http://www.w3.org/Graphics/SVG/1.1/DTD/svg11.dtd">

<!-- Created with Vectornator (http://vectornator.io/) -->
<svg height="100%" stroke-miterlimit="10" style="fill-rule:nonzero;clip-rule:evenodd;stroke-linecap:round;stroke-linejoin:round;" version="1.1" viewBox="0 0 512 512" width="100%" xml:space="preserve" xmlns="http://www.w3.org/2000/svg" xmlns:vectornator="http://vectornator.io" xmlns:xlink="http://www.w3.org/1999/xlink">
<metadata>
<vectornator:setting key="IsTimeLapseWatermarkDisabled" value="false"/>
<vectornator:setting key="UndoHistoryDisabled" value="true"/>
<vectornator:setting key="VNDimensionsVisible" value="true"/>
<vectornator:setting key="VNSnapToGuides" value="true"/>
<vectornator:setting key="WDCMYKEnabledKey" value="false"/>
<vectornator:setting key="WDDisplayWhiteBackground" value="false"/>
<vectornator:setting key="WDDynamicGuides" value="false"/>
<vectornator:setting key="WDGuidesVisible" value="true"/>
<vectornator:setting key="WDIsolateActiveLayer" value="false"/>
<vectornator:setting key="WDOutlineMode" value="false"/>
<vectornator:setting key="WDRulersVisible" value="true"/>
<vectornator:setting key="WDSnapToEdges" value="false"/>
<vectornator:setting key="WDSnapToGrid" value="false"/>
<vectornator:setting key="WDSnapToPoints" value="false"/>
<vectornator:setting key="WDUnits" value="Pixels"/>
</metadata>
<defs/>
<g id="Layer-1" vectornator:layerName="Layer 1">
<path d="M488.313 250.876C489.37 252.213 490.027 253.915 490.114 255.754C489.895 260.331 486.151 263.944 481.804 263.867C481.739 263.867 481.678 263.885 481.618 263.878C474.584 263.643 468.053 266.211 463.23 270.146C460.788 272.117 458.905 274.465 457.361 277.066C455.642 279.649 454.471 282.502 453.994 285.606C453.283 289.822 454.191 294.131 455.861 298.219C460.607 295.268 466.016 293.243 472.104 292.973C471.332 291.502 470.998 289.875 471.255 288.183C471.907 283.926 476.029 280.866 480.479 281.34C480.496 281.34 480.512 281.34 480.523 281.34C487.509 282.136 494.335 279.935 499.071 275.276C503.937 270.655 507.173 263.611 507.523 255.754C507.282 250.389 505.716 245.259 502.985 240.941C499.251 245.928 494.198 249.403 488.313 250.876" fill="#3d85c6" fill-rule="evenodd" opacity="1" stroke="none"/>
<path d="M484.974 216.328C486.151 217.504 486.978 219.108 487.251 220.932C487.952 225.508 484.908 229.67 480.479 230.168C473.516 230.972 467.647 234.442 463.12 239.074C458.713 243.727 456.129 249.486 456.491 255.754C456.244 260.039 457.345 264.145 459.704 267.962C463.876 264.321 469.284 261.53 475.262 260.362C474.343 259.017 473.85 257.463 473.938 255.754C473.713 251.445 477.146 247.816 481.618 247.63C481.678 247.624 481.739 247.609 481.804 247.603C488.74 247.318 494.899 244.17 499.213 238.878C501.353 236.221 503.16 233.029 504.118 229.533C505.404 224.852 504.972 219.666 503.778 215.057C503.428 213.706 502.996 212.37 502.465 211.072C501.939 209.801 501.32 208.565 500.598 207.393C500.395 207.07 498.222 204.365 498.271 204.278C495.414 209.741 490.569 214.001 484.974 216.328" fill="#000000" fill-rule="evenodd" opacity="1" stroke="none"/>
<path d="M476.642 182.639C478.021 183.612 479.237 185.019 479.751 186.788C480.901 191.223 478.41 195.767 474.233 196.975C474.168 196.996 474.113 197.031 474.047 197.046C467.253 198.891 461.779 203.256 458.341 208.422C455.149 213.569 453.086 219.705 453.994 225.902C454.514 230.151 456.868 233.972 459.414 237.426C463.339 233.183 467.702 229.691 473.494 227.649C472.317 226.466 471.512 225.016 471.255 223.325C470.604 219.059 473.631 214.932 478.027 214.082C478.054 214.078 478.076 214.068 478.104 214.061C484.881 212.791 491.012 208.646 494.122 202.817C497.401 196.975 498.392 189.283 496.388 181.658C494.68 176.562 491.581 172.144 487.717 168.81C485.631 174.684 481.832 179.495 476.642 182.639" fill="#3d85c6" fill-rule="evenodd" opacity="1" stroke="none"/>
<path d="M463.224 150.614C464.697 151.39 465.956 152.677 466.755 154.334C468.764 158.513 467.084 163.385 463 165.181C456.545 168.027 452.045 173.053 449.084 178.811C447.617 181.668 446.697 184.878 446.467 188.075C446.21 191.654 446.779 194.655 447.984 197.982C448.635 199.768 449.385 201.459 450.453 203.042C450.737 203.463 454.246 207.485 454.323 207.372C457.224 202.685 461.565 198.431 466.925 195.557C465.649 194.546 464.713 193.209 464.292 191.55C462.918 187.472 465.042 183.015 469.284 181.51C469.334 181.495 469.377 181.461 469.432 181.439C475.99 179.124 480.95 174.291 483.501 167.95C484.744 164.781 485.571 161.174 485.379 157.57C485.111 154.008 484.142 150.317 482.434 146.775C479.992 141.979 476.894 137.749 472.279 135.198C471.354 141.171 467.839 146.754 463.224 150.614" fill="#000000" fill-rule="evenodd" opacity="1" stroke="none"/>
<path d="M449.44 123.98L449.44 123.98C452.013 127.78 450.819 132.984 447.19 135.339C447.151 135.367 447.119 135.405 447.075 135.433C441.13 139.205 437.183 145.007 435.403 150.975C434.484 153.986 434.259 156.98 434.418 160.013C434.462 163.107 435.102 166.122 436.465 168.947C438.223 172.845 441.524 175.832 445.055 178.341C447.474 173.168 450.677 168.504 455.593 164.841C454.12 164.058 452.927 162.908 452.182 161.364C450.31 157.482 451.991 152.639 455.938 150.52C455.949 150.513 455.96 150.502 455.976 150.499C462.179 147.224 466.602 141.558 467.899 135.027C469.284 128.492 468.124 120.744 463.815 114.165C460.613 109.84 456.452 106.468 451.788 104.42C451.493 110.666 449.265 116.403 445.23 120.947C446.845 121.463 448.339 122.509 449.44 123.98" fill="#3d85c6" fill-rule="evenodd" opacity="1" stroke="none"/>
<path d="M427.482 96.7938C430.586 100.205 430.394 105.35 427.093 108.241C427.071 108.262 427.055 108.29 427.028 108.318C421.63 112.992 418.931 119.025 417.858 125.359C416.818 131.71 417.891 137.95 421.674 142.95C424.055 146.502 427.137 149.365 431.265 151.155C432.666 145.8 435.573 140.442 439.849 136.107C438.299 135.542 437.15 134.447 436.082 133.106C433.493 129.657 434.303 124.709 437.889 122.025C437.943 121.987 437.982 121.933 438.037 121.888C443.599 117.74 446.921 111.658 447.518 104.836C448.345 97.8115 445.493 90.8103 440.243 84.9467C436.641 80.9525 432.239 78.0336 427.082 76.9447C427.925 82.9496 426.453 89.0634 423.053 94.2383C424.674 94.5613 426.245 95.4317 427.482 96.7938" fill="#000000" fill-rule="evenodd" opacity="1" stroke="none"/>
<path d="M403.148 84.4764C398.572 89.8309 396.475 96.5584 396.497 102.827C396.513 105.963 397.077 108.996 398.21 111.761C399.349 114.521 400.679 117.389 402.836 119.671C405.705 122.853 409.477 124.972 413.878 126.082C414.371 120.663 416.314 115.045 419.873 110.152C418.247 109.823 416.78 109.062 415.624 107.798C412.734 104.606 412.937 99.4669 416.073 96.2846C416.079 96.2808 416.079 96.2808 416.084 96.2743C421.104 91.2871 423.409 84.8208 422.862 78.055C422.588 74.6822 421.608 71.2607 419.949 68.0149C418.274 64.7856 416.04 61.6061 412.811 59.3501C408.519 56.1141 403.581 54.0722 398.544 53.4437C400.072 59.54 399.601 65.7119 397.066 71.2459C398.752 71.2782 400.477 71.853 401.949 72.9523C405.749 75.5975 405.989 81.1211 403.198 84.4058C403.176 84.4271 403.165 84.455 403.148 84.4764" fill="#3d85c6" fill-rule="evenodd" opacity="1" stroke="none"/>
<path d="M368.096 52.1113C369.733 51.9531 371.479 52.3423 373.056 53.2938C376.981 55.6762 378.289 60.6524 376.028 64.375C376.001 64.4243 375.99 64.4735 375.957 64.5228C372.229 70.4954 371.222 77.3553 372.278 83.3815C373.121 89.786 375.93 95.5023 380.966 99.2293C384.552 101.618 388.105 103.735 392.61 104.195C392.408 98.6288 393.634 92.6283 396.459 87.2136C394.898 87.0231 393.201 86.6558 391.855 85.5948C388.4 83.0202 387.749 78.0161 390.388 74.4046C390.431 74.3444 390.453 74.2781 390.497 74.2185C394.592 68.6177 395.999 61.807 394.603 55.0729C393.229 48.2858 388.455 42.3833 381.771 38.2288C379.45 36.8772 377.101 35.6837 374.545 35.1194C371.977 34.5785 369.371 34.3754 366.793 34.5226C369.267 40.2067 369.87 46.0917 368.096 52.1113" fill="#000000" fill-rule="evenodd" opacity="1" stroke="none"/>
<path d="M335.709 53.1076C334.762 52.7808 333.607 52.3489 332.934 51.7029C332.151 50.9567 331.615 49.9774 331.242 48.9761C330.542 47.0858 330.317 44.7827 330.99 42.8497C331.012 42.79 331.012 42.7298 331.034 42.6745C333.306 36.1113 332.644 29.1468 329.321 23.0757C325.905 17.2849 319.675 12.7964 312.044 10.8312C306.865 9.30214 301.451 10.0357 296.628 11.7826C300.684 16.4424 302.973 22.0536 303.104 28.1138C304.62 27.4831 306.405 27.3463 308.184 27.8061C312.618 28.9393 315.328 33.2909 314.305 37.5056C314.288 37.5784 314.294 37.6491 314.272 37.7153C312.482 44.5243 313.544 51.3947 316.33 56.8652C319.117 62.4376 323.386 67.3646 329.293 69.4175C333.388 70.7094 337.543 71.3275 341.895 70.6492C340.067 65.3932 339.541 59.1294 340.576 53.3003C340.434 54.0936 336.596 53.4202 336.136 53.262C336 53.2127 335.857 53.1635 335.709 53.1076" fill="#000000" fill-rule="evenodd" opacity="1" stroke="none"/>
<path d="M336.427 37.8905C338.047 37.4312 339.859 37.4843 341.589 38.1193C343.757 38.9131 345.394 40.4908 346.242 42.362C347.036 44.3486 347.063 46.5942 346.182 48.6537C343.384 55.1113 343.352 62.1896 345.196 68.2115C346.998 74.3833 351.01 78.8761 356.216 82.4022C359.868 84.6412 364.045 85.6271 368.589 85.3917C367.466 80.069 367.713 74.0707 369.678 68.3439C368.036 68.5021 366.415 68.1901 364.954 67.2983C363.103 66.1717 361.871 64.3646 361.346 62.3331C360.782 60.3787 360.902 58.2377 361.965 56.2236C365.26 50.0371 365.594 43.1344 363.092 36.8065C359.873 28.659 353.091 23.0264 344.704 20.9095C343.341 20.563 341.956 20.3106 340.554 20.1524C339.18 20.0051 337.795 19.9449 336.416 19.9876C336.038 20.0007 332.671 20.4858 332.6 20.3724C335.852 25.7806 337.215 31.8413 336.427 37.8905" fill="#3d85c6" fill-rule="evenodd" opacity="1" stroke="none"/>
<path d="M273.63 22.6865C277.96 22.9624 281.672 26.6231 281.141 31.3426C280.385 38.3443 282.449 45.1205 285.991 50.3447C287.776 52.956 289.944 55.1841 292.429 56.8587C293.677 57.7012 294.996 58.4024 296.398 58.9499C299.759 60.2692 303.323 61.4303 306.947 61.0137C307.462 60.9535 313.44 59.9358 313.401 59.863C310.768 55.0899 309.23 49.2651 309.41 43.2045C307.889 43.8357 306.257 44.0043 304.598 43.5767C300.46 42.3581 297.646 38.3782 298.456 33.9259C299.754 27.0512 298.029 20.362 293.77 15.0502C289.527 9.85997 282.799 5.42737 274.916 5.31788C269.551 5.03377 264.329 6.09032 259.823 8.38245C264.515 12.5928 267.608 17.9736 268.637 23.9844C268.582 23.6511 270.925 22.9624 271.205 22.8962C272.02 22.7034 272.836 22.6394 273.63 22.6865" fill="#3d85c6" fill-rule="evenodd" opacity="1" stroke="none"/>
<path d="M233.935 24.4826C235.2 23.4326 236.864 22.7697 238.698 22.6755C243.269 22.4407 247.139 25.8019 247.397 30.1327C247.397 30.2028 247.419 30.2652 247.424 30.3358C247.709 37.3688 250.747 43.6112 255.022 48.0055C257.267 50.3108 259.708 52.3741 262.583 53.8691C264.044 54.6262 265.582 55.2333 267.181 55.6373C270.794 56.5527 273.8 56.1957 277.495 55.61C279.559 55.2826 281.584 54.6262 283.56 53.6403C280.259 49.1453 277.905 43.303 277.161 37.4843C275.743 38.3996 274.15 38.8978 272.436 38.8102C268.128 38.5961 264.767 34.8073 264.909 30.3358C264.915 30.2652 264.893 30.199 264.898 30.1327C265.123 23.1978 262.44 16.7479 257.491 11.9408C252.526 7.30455 245.267 4.95658 237.411 5.31788C234.734 5.49363 232.129 5.84834 229.698 6.78942C227.273 7.79669 225.006 9.10123 222.953 10.6768C228.198 13.9554 232.014 18.4997 233.935 24.4826" fill="#000000" fill-rule="evenodd" opacity="1" stroke="none"/>
<path d="M199.758 30.5389C200.837 29.2448 202.364 28.2616 204.143 27.8061C208.6 26.5141 213.034 29.5853 213.866 33.9259C213.871 33.9473 213.877 33.9648 213.882 33.9862C215.213 40.9014 219.165 46.759 224.076 50.689C229.041 54.7499 234.882 56.2061 241.183 56.2127C245.47 56.0096 249.482 54.4828 253.106 51.739C249.176 47.9694 245.995 42.8607 244.386 37.0244C243.116 38.0766 241.605 38.727 239.897 38.8102C235.577 38.9366 231.702 35.6881 231.192 31.3469C231.192 31.3365 231.187 31.3256 231.187 31.3212C230.426 24.3523 226.813 18.4608 221.185 14.6501C218.377 12.7406 215.081 11.3507 211.507 10.6001C209.716 10.2213 207.861 10.0034 205.961 9.96071C204.089 10.0204 202.195 10.3582 200.289 10.8312C195.067 12.1548 190.381 14.7229 186.746 18.2533C192.472 20.8815 197.005 25.1007 199.758 30.5389" fill="#3d85c6" fill-rule="evenodd" opacity="1" stroke="none"/>
<path d="M166.726 41.2567C167.624 39.8771 169.014 38.7505 170.744 38.1193C175.047 36.5372 179.75 38.6071 181.266 42.6849C181.288 42.7452 181.321 42.79 181.343 42.8497C183.691 49.4852 188.432 54.5534 193.802 57.4871C199.31 60.729 205.55 62.2028 211.6 60.5922C215.7 59.3112 219.526 57.6689 222.718 54.5638C218.246 51.2195 214.309 46.4787 211.851 40.9058C210.767 42.1977 209.388 43.1514 207.729 43.5767C203.558 44.6568 199.238 42.0351 198.061 37.7153C198.04 37.6491 198.001 37.5894 197.985 37.5188C196.156 30.8274 191.706 25.4686 185.558 22.3487C179.416 19.2776 171.801 19.2606 164.383 21.9168C159.259 23.6122 155.12 27.0895 152.148 31.3365C158.142 32.9296 163.135 36.1546 166.726 41.2567" fill="#000000" fill-rule="evenodd" opacity="1" stroke="none"/>
<path d="M139.278 53.2938C141.254 52.1003 143.504 51.8014 145.502 52.31C147.527 52.8788 149.323 54.2901 150.358 56.2297C150.363 56.234 150.374 56.245 150.374 56.251C153.697 62.459 159.215 66.8943 165.073 69.204C171.034 71.6609 177.034 71.2672 183.04 69.4175C187.058 67.9613 190.436 65.316 193.08 61.6208C188.219 59.1787 183.675 55.2443 180.418 50.1416C179.514 51.5212 178.266 52.5881 176.657 53.1739C174.62 53.9184 172.441 53.7492 170.525 52.8963C168.664 52.1628 167.044 50.7066 166.151 48.6537C166.146 48.6427 166.14 48.6301 166.135 48.6192C163.343 42.1977 158.142 37.6381 151.633 35.652C145.212 33.7743 137.159 33.8942 130.562 38.2288C125.958 41.0109 122.225 44.8254 119.789 49.2498C126.046 50.0863 131.641 52.7956 135.883 57.1817C136.529 55.6373 137.706 54.2518 139.278 53.2938" fill="#3d85c6" fill-rule="evenodd" opacity="1" stroke="none"/>
<path d="M110.384 72.9523C114.041 70.2151 119.137 70.8184 121.798 74.2399C121.842 74.2995 121.902 74.3444 121.946 74.4046C126.15 80.0476 132.194 83.508 138.221 84.7567C144.27 85.9671 150.828 85.7574 156.117 82.4022C157.962 81.3242 159.522 79.8188 161.027 78.356C162.544 76.9212 163.847 75.2296 164.925 73.3032C159.675 71.4643 154.431 67.9443 150.533 63.5538C149.881 65.102 148.841 66.4109 147.38 67.2983C143.695 69.5439 138.779 68.299 136.376 64.5228C136.343 64.4735 136.305 64.4412 136.272 64.3925C132.549 58.5179 126.686 54.6903 119.865 53.5034C115.875 52.8021 111.468 53.5806 107.707 54.9213C103.886 56.2833 99.9604 58.5503 97.0645 61.3854C96.0244 62.4037 95.1047 63.5369 94.289 64.7363C93.4733 65.9297 92.7672 67.1938 92.1376 68.4918C91.9733 68.8361 90.8402 72.0074 90.6704 72.0118C96.862 71.7698 102.703 73.5172 107.51 77.1845C107.844 75.4606 108.938 74.092 110.384 72.9523" fill="#000000" fill-rule="evenodd" opacity="1" stroke="none"/>
<path d="M82.7052 101.468C82.8859 99.8113 83.6139 98.152 84.8511 96.7938C87.9771 93.3575 93.1284 93.1221 96.2489 96.2743L96.2543 96.2808L96.2543 96.2808C101.214 101.195 107.833 103.857 114.139 104.366C117.303 104.616 120.413 104.321 123.292 103.44C126.188 102.58 128.75 100.994 131.362 99.2293C134.805 96.6783 137.279 93.1861 138.736 88.9052C133.343 87.9811 127.825 85.539 123.199 81.6193C122.734 83.191 121.847 84.5706 120.473 85.5948C116.915 88.0457 112.185 87.9258 109.185 84.4764C109.168 84.455 109.141 84.4381 109.125 84.4167C104.564 79.1241 98.2524 76.2862 91.4314 76.2714C88.0154 76.2544 84.4899 76.9387 81.0848 78.3029C77.6852 79.6715 74.7837 82.0901 72.0904 84.9467C68.4827 88.9331 65.9645 93.6077 64.9518 98.5625C71.1652 97.5229 77.3622 98.5193 82.7052 101.468" fill="#3d85c6" fill-rule="evenodd" opacity="1" stroke="none"/>
<path d="M61.5467 128.973C61.2785 128.868 61.7109 126.601 61.7766 126.341C61.8916 125.879 62.0285 125.355 62.2803 124.944C64.6671 121.067 70.0485 118.944 74.2692 121.922C74.3239 121.966 74.3896 121.987 74.4443 122.025C80.1213 126.191 86.9369 127.745 93.1066 127.198C99.101 126.46 105.336 124.358 109.497 119.671C112.349 116.474 114.106 112.483 115.185 108.307C109.475 107.946 103.743 106.44 98.663 103.32C98.4824 104.991 97.8583 106.528 96.7032 107.798C93.8072 110.989 88.7106 111.22 85.2234 108.252C80.0118 103.763 72.9772 101.59 66.408 102.717C59.8113 103.808 53.2038 107.837 48.5177 114.165C45.5177 118.614 44.0615 123.838 43.848 128.923C49.733 126.898 55.8588 126.871 61.5467 128.973" fill="#000000" fill-rule="evenodd" opacity="1" stroke="none"/>
<path d="M44.8663 159.422C44.5597 157.784 44.7787 155.994 45.5779 154.334C47.5925 150.165 52.4538 148.446 56.3515 150.502C56.3679 150.513 56.3789 150.513 56.3953 150.52C62.6197 153.787 69.397 154.211 75.7363 152.928C82.0318 151.593 87.2599 148.204 90.6595 142.95C93.2489 139.528 94.6229 135.497 94.7981 130.998C89.3347 131.672 83.3129 130.931 77.729 128.535C77.7399 130.166 77.2801 131.738 76.2509 133.106C73.8367 136.669 69.0959 137.824 65.2584 135.433C65.2145 135.405 65.1653 135.395 65.1215 135.367C59.2256 131.672 52.3552 130.806 45.8079 132.76C42.5451 133.757 39.2441 135.373 36.5069 137.743C33.8846 140.174 31.6073 143.234 29.8993 146.775C27.6603 151.664 26.3136 156.738 27.1511 161.924C32.4339 158.945 38.9649 158.205 44.8663 159.422" fill="#3d85c6" fill-rule="evenodd" opacity="1" stroke="none"/>
<path d="M32.85 191.977C32.2423 190.391 32.1164 188.567 32.5817 186.788C34.0379 182.436 38.7733 180.109 42.89 181.472C42.9393 181.489 42.994 181.495 43.0488 181.51C49.7056 183.809 56.6964 183.289 62.4664 180.962C65.4006 179.808 67.8423 178.105 70.1579 176.119C72.5502 174.158 74.5045 171.778 75.8677 168.947C77.8275 165.146 78.0793 160.686 77.8768 156.384C72.2875 157.696 66.6762 158.102 60.742 156.531C61.0485 158.173 60.8898 159.826 60.1507 161.364C58.2785 165.245 53.4446 166.953 49.3333 165.181C49.317 165.174 49.3005 165.174 49.2841 165.164C42.8846 162.356 35.6529 162.405 29.7515 165.459C23.757 168.449 18.4962 174.214 15.9451 181.658C14.5765 186.864 14.5491 192.234 15.8684 197.168C20.9213 193.494 26.7844 191.654 32.85 191.977" fill="#000000" fill-rule="evenodd" opacity="1" stroke="none"/>
<path d="M25.8866 225.989C25.1147 224.522 24.8027 222.749 25.0764 220.932C25.7771 216.36 29.9048 213.283 34.2295 214.078C34.2514 214.082 34.2788 214.078 34.3062 214.082C41.3243 215.38 47.6801 213.717 53.4173 210.633C59.0121 207.485 63.1945 202.761 64.7163 196.691L64.7163 196.687C66.1014 192.645 66.3423 188.43 65.1872 184.089C60.1343 186.321 54.1399 187.39 48.0797 186.745C48.5888 188.304 48.5177 189.908 48.0414 191.55C46.9739 195.728 42.6108 198.179 38.2861 197.046C38.2204 197.031 38.1547 197.035 38.089 197.013C31.3774 195.252 24.5563 196.451 18.863 200.249C12.8904 203.993 9.00907 210.559 7.85939 218.353C7.18057 223.684 7.30647 228.923 9.73166 233.625C13.81 229.22 19.9085 226.582 25.8866 225.989" fill="#3d85c6" fill-rule="evenodd" opacity="1" stroke="none"/>
<path d="M24.0143 260.632C22.9633 259.295 22.3063 257.593 22.2133 255.754C22.4377 251.178 26.1767 247.564 30.5288 247.641C30.5945 247.641 30.6493 247.624 30.7149 247.63C37.7496 247.865 44.2805 245.297 49.1035 241.362C51.5395 239.391 53.4282 237.043 54.972 234.442C56.6909 231.859 57.8625 229.007 58.3333 225.902C59.0504 221.687 58.1417 217.378 56.472 213.289C51.7202 216.24 46.3169 218.265 40.2294 218.535C41.0013 220.006 41.3353 221.631 41.078 223.325C40.4265 227.582 36.2989 230.642 31.8482 230.168C31.8372 230.168 31.8208 230.168 31.8098 230.168C24.8245 229.372 17.998 231.573 13.2626 236.232C8.39046 240.853 5.16056 247.898 4.80471 255.754C5.05103 261.119 6.61676 266.25 9.34848 270.567C13.082 265.58 18.1348 262.105 24.0143 260.632" fill="#000000" fill-rule="evenodd" opacity="1" stroke="none"/>
<path d="M27.3591 295.181C26.1822 294.004 25.3556 292.401 25.0764 290.577C24.3811 286 27.4248 281.839 31.8098 281.347C31.8208 281.347 31.8372 281.34 31.8482 281.34C38.8171 280.537 44.6801 277.066 49.2129 272.434C53.6143 267.781 56.1982 262.022 55.8424 255.754C56.0888 251.466 54.9884 247.361 52.6234 243.546C48.4574 247.188 43.0488 249.978 37.0707 251.143C37.9849 252.491 38.4831 254.045 38.39 255.754C38.62 260.063 35.1875 263.692 30.7149 263.878C30.6493 263.885 30.5945 263.899 30.5288 263.906C23.5928 264.19 17.4341 267.338 13.1203 272.63C10.9798 275.287 9.17326 278.477 8.21524 281.976C7.42148 285.457 7.26818 289.268 7.85939 293.155C8.73535 298.459 10.613 303.388 14.0619 307.23C16.9195 301.767 21.7643 297.507 27.3591 295.181" fill="#3d85c6" fill-rule="evenodd" opacity="1" stroke="none"/>
<path d="M35.6912 328.869C34.3117 327.896 33.0964 326.483 32.5817 324.721C31.4321 320.286 33.9229 315.741 38.0999 314.533C38.1602 314.509 38.2204 314.478 38.2861 314.46C45.0797 312.617 50.5541 308.253 53.992 303.086C57.1837 297.939 59.2474 291.804 58.3333 285.606C57.8132 281.358 55.4592 277.536 52.9191 274.083C48.9939 278.325 44.6309 281.818 38.839 283.86C40.0159 285.042 40.8207 286.492 41.078 288.183C41.7294 292.449 38.6966 296.577 34.3062 297.426C34.2788 297.43 34.2569 297.441 34.2295 297.447C27.4522 298.718 21.321 302.862 18.2115 308.691C14.9323 314.533 13.9414 322.223 15.9451 329.851C17.6531 334.946 20.7516 339.365 24.6165 342.698C26.7022 336.824 30.5014 332.013 35.6912 328.869" fill="#000000" fill-rule="evenodd" opacity="1" stroke="none"/>
<path d="M49.1089 360.894C47.6363 360.118 46.3772 358.831 45.5779 357.171C43.5689 352.995 45.2495 348.124 49.3333 346.327C55.7877 343.481 60.2876 338.456 63.2492 332.697C66.1069 326.942 66.7966 320.717 64.7163 314.822C63.6763 310.667 61.3989 307.076 58.0102 304.136C55.1088 308.824 50.7676 313.077 45.4028 315.951C46.6838 316.963 47.6144 318.299 48.0414 319.958C49.4155 324.037 47.2914 328.493 43.0488 329.998C42.994 330.013 42.9503 330.047 42.9009 330.069C36.3426 332.385 31.3829 337.218 28.8318 343.558C27.5891 346.727 26.757 350.335 26.954 353.938C27.0581 355.914 27.4687 357.912 28.0161 359.81C28.9687 363.123 30.2496 365.757 32.1492 368.646C33.1675 370.197 34.3171 371.664 35.6364 372.972C36.0197 373.355 40.0598 376.257 40.0488 376.31C40.9739 370.338 44.4885 364.754 49.1089 360.894" fill="#3d85c6" fill-rule="evenodd" opacity="1" stroke="none"/>
<path d="M62.8934 387.528C60.315 383.729 61.5138 378.521 65.1379 376.169C65.1817 376.141 65.2145 376.103 65.2584 376.075C71.1981 372.303 75.1506 366.501 76.9297 360.533C77.844 357.522 78.0684 354.528 77.9151 351.496C77.8713 348.401 77.2254 345.387 75.8677 342.561C74.1049 338.663 70.8039 335.673 67.2784 333.167C64.8587 338.341 61.6562 343.004 56.7402 346.667C58.2128 347.45 59.4062 348.601 60.1507 350.142C62.0175 354.026 60.3368 358.87 56.3953 360.989C56.3789 360.992 56.3734 361.006 56.357 361.01C50.1545 364.284 45.7312 369.951 44.4338 376.481C43.0488 383.016 44.2093 390.764 48.5177 397.344C51.7202 401.668 55.8807 405.04 60.5449 407.089C60.8405 400.842 63.0686 395.105 67.1032 390.561C65.4883 390.046 63.9938 389 62.8934 387.528" fill="#000000" fill-rule="evenodd" opacity="1" stroke="none"/>
<path d="M84.8511 414.714C81.7472 411.304 81.9388 406.156 85.3056 403.19C90.7033 398.516 93.3967 392.483 94.4752 386.149C95.5152 379.798 94.4423 373.558 90.6595 368.559C88.2781 365.006 85.196 362.143 81.0684 360.353C79.6669 365.708 76.76 371.067 72.4791 375.402C74.0338 375.966 75.1834 377.061 76.2509 378.402C78.8403 381.851 78.0301 386.799 74.4443 389.483C74.3896 389.522 74.3513 389.575 74.2965 389.62C68.7346 393.769 65.4116 399.85 64.8149 406.672C64.4919 410.35 64.9408 413.908 66.293 417.357C66.9992 419.164 67.908 420.884 68.97 422.509C70.7875 425.291 72.6433 427.442 75.2217 429.583C76.6724 430.787 78.2436 431.843 79.9297 432.692C80.4224 432.938 85.2399 434.497 85.2508 434.563C84.4078 428.558 85.8803 422.442 89.28 417.27C87.6595 416.947 86.0884 416.077 84.8511 414.714" fill="#3d85c6" fill-rule="evenodd" opacity="1" stroke="none"/>
<path d="M109.185 427.032C113.761 421.677 115.858 414.95 115.836 408.682C115.814 405.545 115.256 402.51 114.117 399.747C112.984 396.987 111.648 394.119 109.497 391.835C106.623 388.656 102.856 386.537 98.455 385.426C97.9569 390.845 96.0134 396.463 92.4606 401.356C94.0864 401.685 95.5536 402.44 96.7032 403.71C99.5992 406.903 99.3966 412.041 96.2543 415.223L96.2543 415.228L96.2543 415.228C91.2233 420.221 88.9241 426.685 89.4716 433.454C89.7453 436.826 90.7252 440.247 92.3839 443.494C94.0536 446.722 96.2926 449.903 99.517 452.159C103.814 455.394 108.752 457.436 113.789 458.065C112.261 451.966 112.732 445.803 115.267 440.262C113.581 440.23 111.856 439.655 110.384 438.554C106.584 435.911 106.344 430.387 109.136 427.102C109.157 427.081 109.168 427.053 109.185 427.032" fill="#000000" fill-rule="evenodd" opacity="1" stroke="none"/>
<path d="M144.237 459.395C142.6 459.555 140.849 459.166 139.278 458.212C135.352 455.832 134.044 450.856 136.305 447.133C136.332 447.084 136.343 447.034 136.376 446.985C140.104 441.013 141.111 434.153 140.055 428.127C139.206 421.72 136.403 416.006 131.362 412.277C127.781 409.89 124.228 407.773 119.723 407.313C119.926 412.88 118.699 418.88 115.869 424.294C117.435 424.485 119.132 424.853 120.473 425.913C123.933 428.488 124.584 433.49 121.946 437.104C121.902 437.164 121.874 437.23 121.831 437.29C117.741 442.89 116.334 449.701 117.73 456.433C119.104 463.223 123.878 469.118 130.562 473.28C132.883 474.631 135.232 475.824 137.788 476.389C140.356 476.93 142.962 477.133 145.54 476.986C143.066 471.302 142.458 465.417 144.237 459.395" fill="#3d85c6" fill-rule="evenodd" opacity="1" stroke="none"/>
<path d="M175.907 473.617C174.286 474.077 172.474 474.024 170.744 473.389C168.576 472.595 166.94 471.017 166.091 469.146C165.292 467.157 165.27 464.914 166.151 462.855C168.943 456.395 168.976 449.316 167.137 443.294C165.33 437.125 161.323 432.632 156.117 429.106C152.46 426.867 148.288 425.881 143.745 426.116C144.867 431.437 144.621 437.437 142.655 443.164C142.934 442.36 146.575 443.662 147.057 443.898C149.016 444.839 150.396 447.126 150.987 449.175C151.546 451.13 151.431 453.27 150.363 455.285C147.068 461.471 146.739 468.374 149.241 474.708C151.781 480.871 156.867 487.145 164.383 489.592C169.43 491.458 174.746 491.995 179.728 491.136C176.481 485.727 175.113 479.667 175.907 473.617" fill="#000000" fill-rule="evenodd" opacity="1" stroke="none"/>
<path d="M204.143 483.702C199.715 482.569 197.005 478.217 198.023 474C198.045 473.93 198.04 473.859 198.061 473.793C199.852 466.984 198.784 460.113 196.003 454.643C193.217 449.07 188.947 444.143 183.04 442.091C178.945 440.799 174.79 440.181 170.438 440.859C172.266 446.115 172.792 452.376 171.757 458.202C171.823 457.847 174.368 457.851 174.691 457.9C179.695 458.71 183.127 463.563 181.343 468.658C181.321 468.718 181.321 468.774 181.299 468.834C179.027 475.397 179.689 482.362 183.012 488.433C186.428 494.223 192.653 498.712 200.289 500.677C205.463 502.206 210.877 501.473 215.705 499.726C211.649 495.066 209.361 489.455 209.224 483.394C207.713 484.025 205.928 484.162 204.143 483.702" fill="#3d85c6" fill-rule="evenodd" opacity="1" stroke="none"/>
<path d="M238.698 488.832C234.061 488.678 230.683 484.688 231.192 480.193C231.192 480.182 231.192 480.172 231.192 480.165C231.948 473.164 229.884 466.385 226.337 461.163C224.557 458.552 222.39 456.33 219.904 454.65C218.656 453.807 217.331 453.106 215.93 452.558C214.556 451.902 213.121 451.298 211.6 450.916C207.461 449.832 203.191 450.095 198.932 451.643C201.565 456.418 203.103 462.243 202.923 468.304C204.439 467.673 206.076 467.504 207.729 467.929C211.873 469.15 214.687 473.13 213.882 477.522C213.877 477.544 213.882 477.565 213.877 477.582C212.574 484.457 214.304 491.146 218.563 496.458C222.806 501.646 229.534 506.081 237.411 506.19C242.782 506.475 248.004 505.418 252.51 503.126C247.818 498.915 244.725 493.533 243.696 487.524C242.284 488.437 240.537 488.924 238.698 488.832" fill="#000000" fill-rule="evenodd" opacity="1" stroke="none"/>
<path d="M278.393 487.025C277.133 488.075 275.469 488.738 273.63 488.832C269.064 489.068 265.194 485.706 264.937 481.376C264.931 481.305 264.915 481.243 264.909 481.173C264.624 474.137 261.586 467.897 257.311 463.501C252.997 458.892 247.451 455.537 241.183 455.295C239.043 455.159 236.908 455.509 234.838 455.896C232.775 456.226 230.749 456.882 228.767 457.868C232.068 462.363 234.428 468.203 235.172 474.024C236.59 473.109 238.183 472.61 239.897 472.698C244.205 472.912 247.566 476.701 247.424 481.173C247.419 481.243 247.44 481.305 247.435 481.376C247.21 488.311 249.893 494.76 254.842 499.567C259.807 504.203 267.061 506.551 274.916 506.19C277.599 506.015 280.205 505.66 282.635 504.719C285.06 503.712 287.327 502.407 289.374 500.831C284.13 497.553 280.32 493.009 278.393 487.025" fill="#3d85c6" fill-rule="evenodd" opacity="1" stroke="none"/>
<path d="M312.575 480.969C311.496 482.261 309.969 483.247 308.184 483.702C303.734 484.994 299.299 481.923 298.451 477.522C297.12 470.607 293.168 464.749 288.257 460.819C283.292 456.756 277.451 455.302 271.15 455.295C266.863 455.499 262.851 457.025 259.227 459.767C263.157 463.539 266.338 468.648 267.947 474.484C267.843 474.122 270.192 473.153 270.493 473.059C275.349 471.526 280.566 475.245 281.146 480.187C281.902 487.156 285.52 493.047 291.148 496.856C293.956 498.768 297.252 500.158 300.827 500.908C302.617 501.285 304.473 501.505 306.367 501.548C309.832 501.631 313.834 500.365 316.976 498.992C318.613 498.274 320.189 497.416 321.673 496.42C322.084 496.146 325.456 493.195 325.587 493.255C319.861 490.627 315.328 486.405 312.575 480.969" fill="#000000" fill-rule="evenodd" opacity="1" stroke="none"/>
<path d="M345.607 470.252C344.709 471.631 343.313 472.758 341.589 473.389C337.28 474.971 332.583 472.901 331.067 468.823C331.045 468.763 331.012 468.718 330.99 468.658C328.642 462.023 323.901 456.955 318.525 454.019C313.024 450.779 306.783 449.306 300.733 450.916C296.633 452.197 292.807 453.839 289.615 456.942C294.088 460.289 298.024 465.03 300.482 470.602C301.566 469.311 302.945 468.357 304.598 467.929C308.775 466.851 313.095 469.473 314.272 473.793C314.294 473.859 314.332 473.919 314.348 473.99C316.171 480.681 320.627 486.04 326.77 489.16C332.917 492.23 340.532 492.248 347.95 489.592C353.074 487.896 357.213 484.419 360.18 480.172C354.191 478.579 349.198 475.354 345.607 470.252" fill="#3d85c6" fill-rule="evenodd" opacity="1" stroke="none"/>
<path d="M373.056 458.212C371.079 459.408 368.824 459.707 366.831 459.198C364.8 458.629 363.01 457.216 361.97 455.278C361.97 455.274 361.959 455.263 361.954 455.257C358.636 449.049 353.118 444.614 347.255 442.305C341.299 439.847 335.293 440.241 329.293 442.091C325.27 443.547 321.897 446.192 319.253 449.887C324.115 452.327 328.658 456.264 331.916 461.366C332.813 459.987 334.067 458.92 335.671 458.334C337.708 457.59 339.892 457.759 341.808 458.612C343.669 459.346 345.284 460.802 346.182 462.855C346.187 462.865 346.193 462.878 346.198 462.889C348.99 469.311 354.191 473.87 360.7 475.856C367.121 477.734 375.174 477.614 381.771 473.28C386.375 470.498 390.103 466.683 392.544 462.258C386.282 461.422 380.692 458.71 376.45 454.327C375.798 455.871 374.627 457.254 373.056 458.212" fill="#000000" fill-rule="evenodd" opacity="1" stroke="none"/>
<path d="M401.949 438.554L401.949 438.554C398.293 441.291 393.19 440.69 390.535 437.268C390.492 437.209 390.431 437.164 390.388 437.104C386.183 431.46 380.139 428.001 374.112 426.752C368.063 425.542 361.505 425.751 356.216 429.106C354.366 430.184 352.811 431.689 351.306 433.152C349.79 434.587 348.487 436.278 347.408 438.205C352.653 440.044 357.903 443.564 361.795 447.954C362.452 446.406 363.492 445.097 364.954 444.21C368.638 441.965 373.554 443.207 375.957 446.985C375.984 447.034 376.028 447.067 376.056 447.116C379.778 452.99 385.647 456.818 392.468 458.005C399.075 458.871 406.521 456.889 412.811 452.159C417.25 449.092 419.933 444.252 421.663 439.497C415.471 439.736 409.63 437.991 404.818 434.324C404.49 436.047 403.395 437.416 401.949 438.554" fill="#3d85c6" fill-rule="evenodd" opacity="1" stroke="none"/>
<path d="M429.628 410.038C429.447 411.697 428.719 413.357 427.482 414.714C424.356 418.151 419.205 418.386 416.084 415.234C416.084 415.234 416.073 415.228 416.073 415.223C411.119 410.311 404.5 407.651 398.194 407.142C395.03 406.89 391.92 407.187 389.041 408.068C386.139 408.928 383.583 410.514 380.966 412.277C377.528 414.828 375.054 418.322 373.598 422.603C378.99 423.527 384.508 425.969 389.134 429.889C389.594 428.317 390.486 426.934 391.855 425.913C395.418 423.463 400.148 423.582 403.148 427.032C403.165 427.053 403.192 427.071 403.209 427.092C407.769 432.384 414.081 435.22 420.902 435.237C424.318 435.254 427.843 434.57 431.248 433.206C434.648 431.837 437.549 429.418 440.243 426.561C443.85 422.575 446.363 417.901 447.381 412.946C441.168 413.985 434.971 412.989 429.628 410.038" fill="#000000" fill-rule="evenodd" opacity="1" stroke="none"/>
<path d="M450.786 382.535C450.863 384.21 450.584 386.083 449.44 387.528C446.702 391.196 441.611 392.088 438.064 389.581C438.004 389.543 437.943 389.522 437.889 389.483C432.212 385.317 425.391 383.76 419.221 384.308C413.232 385.048 406.997 387.15 402.836 391.835C399.979 395.032 398.227 399.025 397.148 403.195C402.858 403.562 408.59 405.068 413.67 408.188C413.851 406.518 414.475 404.98 415.624 403.71C418.526 400.52 423.623 400.289 427.028 403.19C427.05 403.212 427.082 403.233 427.104 403.257C432.321 407.745 439.35 409.918 445.925 408.791C452.522 407.7 459.129 403.671 463.815 397.344C466.815 392.892 468.272 387.67 468.485 382.585C462.6 384.61 456.469 384.637 450.786 382.535" fill="#3d85c6" fill-rule="evenodd" opacity="1" stroke="none"/>
<path d="M467.467 352.086C467.773 353.724 467.549 355.514 466.755 357.171C464.741 361.343 459.879 363.063 455.982 361.006C455.965 360.992 455.949 360.992 455.938 360.982C449.713 357.721 442.936 357.297 436.591 358.578C430.301 359.915 425.073 363.304 421.674 368.559C419.084 371.98 417.705 376.009 417.53 380.51C422.998 379.836 429.02 380.57 434.604 382.974C434.593 381.342 435.053 379.77 436.082 378.402C438.496 374.839 443.237 373.684 447.075 376.075C447.119 376.103 447.168 376.114 447.212 376.141C453.108 379.836 459.978 380.7 466.525 378.746C469.788 377.752 473.089 376.135 475.826 373.765C478.448 371.334 480.726 368.274 482.434 364.733C484.673 359.845 486.02 354.77 485.182 349.584C479.894 352.563 473.368 353.303 467.467 352.086" fill="#000000" fill-rule="evenodd" opacity="1" stroke="none"/>
<path d="M479.483 319.531C480.091 321.118 480.211 322.942 479.751 324.721C478.295 329.072 473.56 331.399 469.443 330.037C469.388 330.02 469.334 330.013 469.284 329.998C462.628 327.697 455.631 328.219 449.867 330.546C446.932 331.701 444.491 333.396 442.175 335.389C439.783 337.35 437.829 339.737 436.465 342.561C434.506 346.359 434.254 350.822 434.456 355.125C440.046 353.812 445.657 353.406 451.586 354.977C451.285 353.335 451.438 351.682 452.182 350.142C454.055 346.257 458.888 344.555 463 346.327C463.016 346.334 463.033 346.334 463.049 346.345C469.449 349.152 476.68 349.103 482.582 346.05C488.576 343.06 493.837 337.294 496.388 329.851C497.757 324.644 497.784 319.274 496.459 314.341C491.406 318.015 485.543 319.854 479.483 319.531" fill="#3d85c6" fill-rule="evenodd" opacity="1" stroke="none"/>
<path d="M486.447 285.519C487.218 286.986 487.53 288.759 487.251 290.577C486.556 295.148 482.428 298.223 478.027 297.426C471.009 296.128 464.653 297.791 458.916 300.873C453.321 304.021 449.139 308.747 447.617 314.822C446.232 318.863 445.985 323.079 447.14 327.419C452.199 325.185 458.193 324.118 464.248 324.764C463.865 324.721 463.903 322.18 463.93 321.874C464.352 316.826 468.956 313.126 474.047 314.46C474.113 314.478 474.178 314.473 474.244 314.495C480.956 316.257 487.777 315.057 493.465 311.259C499.443 307.508 503.319 300.95 504.468 293.155C505.153 287.822 505.027 282.583 502.601 277.883C498.523 282.288 492.425 284.926 486.447 285.519" fill="#000000" fill-rule="evenodd" opacity="1" stroke="none"/>
<path d="M201.4 80.5437C172.045 80.5437 152.795 113.749 152.795 129.149C152.795 133.961 154.239 134.924 157.608 134.924C160.976 134.924 178.301 116.155 190.813 116.155C229.312 116.155 247.118 181.122 253.374 223.953C254.336 231.652 253.855 231.652 250.968 240.796C236.049 286.995 187.444 362.068 162.901 398.642C158.089 405.86 158.089 404.417 158.089 411.154C158.089 419.816 173.97 425.591 180.707 425.591C184.557 425.591 190.332 411.154 191.776 408.267C213.913 368.805 247.599 304.8 258.186 275.445C259.149 273.039 260.593 273.52 261.074 275.926C265.405 309.132 275.511 362.068 285.136 393.829C292.354 417.891 301.498 424.147 317.379 424.147C338.072 424.147 364.54 409.71 364.54 373.617C364.54 371.211 361.652 369.286 359.246 369.286C355.396 369.286 341.922 386.13 324.597 385.648C316.897 385.648 301.979 378.43 296.204 358.218C275.511 285.551 262.999 190.266 257.224 158.504C250.968 124.818 234.125 80.5437 201.4 80.5437Z" fill="#3d85c6" fill-rule="evenodd" opacity="1" stroke="#f4f4f4" stroke-linecap="butt" stroke-linejoin="miter" stroke-opacity="0" stroke-width="0.1"/>
</g>
</svg>
