<?xml version="1.0" encoding="UTF-8" standalone="no"?>
<!DOCTYPE svg PUBLIC "-//W3C//DTD SVG 1.1//EN" "http://www.w3.org/Graphics/SVG/1.1/DTD/svg11.dtd"
[
<!ATTLIST g
  xmlns:vectornator CDATA #FIXED "http://vectornator.io"
  vectornator:layerName CDATA #IMPLIED >
<!ATTLIST g
  xmlns:vectornator CDATA #FIXED "http://vectornator.io"
  vectornator:mask CDATA #IMPLIED >
<!ATTLIST text
  xmlns:vectornator CDATA #FIXED "http://vectornator.io"
  vectornator:width CDATA #IMPLIED >
<!ATTLIST text
  xmlns:vectornator CDATA #FIXED "http://vectornator.io"
  vectornator:text CDATA #IMPLIED >

<!ATTLIST path
  xmlns:vectornator CDATA #FIXED "http://vectornator.io"
  vectornator:blendMode CDATA #IMPLIED >
<!ATTLIST path
  xmlns:vectornator CDATA #FIXED "http://vectornator.io"
  vectornator:shadowColor CDATA #IMPLIED >
<!ATTLIST path
  xmlns:vectornator CDATA #FIXED "http://vectornator.io"
  vectornator:shadowOpacity CDATA #IMPLIED >
<!ATTLIST path
  xmlns:vectornator CDATA #FIXED "http://vectornator.io"
  vectornator:shadowRadius CDATA #IMPLIED >
<!ATTLIST path
  xmlns:vectornator CDATA #FIXED "http://vectornator.io"
  vectornator:shadowOffset CDATA #IMPLIED >
<!ATTLIST path
  xmlns:vectornator CDATA #FIXED "http://vectornator.io"
  vectornator:shadowAngle CDATA #IMPLIED >

<!ATTLIST image
  xmlns:vectornator CDATA #FIXED "http://vectornator.io"
  vectornator:blendMode CDATA #IMPLIED >
<!ATTLIST image
  xmlns:vectornator CDATA #FIXED "http://vectornator.io"
  vectornator:shadowColor CDATA #IMPLIED >
<!ATTLIST image
  xmlns:vectornator CDATA #FIXED "http://vectornator.io"
  vectornator:shadowOpacity CDATA #IMPLIED >
<!ATTLIST image
  xmlns:vectornator CDATA #FIXED "http://vectornator.io"
  vectornator:shadowRadius CDATA #IMPLIED >
<!ATTLIST image
  xmlns:vectornator CDATA #FIXED "http://vectornator.io"
  vectornator:shadowOffset CDATA #IMPLIED >
<!ATTLIST image
  xmlns:vectornator CDATA #FIXED "http://vectornator.io"
  vectornator:shadowAngle CDATA #IMPLIED >

<!ATTLIST g
  xmlns:vectornator CDATA #FIXED "http://vectornator.io"
  vectornator:blendMode CDATA #IMPLIED >
<!ATTLIST g
  xmlns:vectornator CDATA #FIXED "http://vectornator.io"
  vectornator:shadowColor CDATA #IMPLIED >
<!ATTLIST g
  xmlns:vectornator CDATA #FIXED "http://vectornator.io"
  vectornator:shadowOpacity CDATA #IMPLIED >
<!ATTLIST g
  xmlns:vectornator CDATA #FIXED "http://vectornator.io"
  vectornator:shadowRadius CDATA #IMPLIED >
<!ATTLIST g
  xmlns:vectornator CDATA #FIXED "http://vectornator.io"
  vectornator:shadowOffset CDATA #IMPLIED >
<!ATTLIST g
  xmlns:vectornator CDATA #FIXED "http://vectornator.io"
  vectornator:shadowAngle CDATA #IMPLIED >

<!ENTITY % SVG.filter.extra.content  "| feDropShadow" >
<!ELEMENT feDropShadow EMPTY>
<!ATTLIST feDropShadow
  xmlns:svg CDATA #FIXED "http://www.w3.org/Graphics/SVG/1.1/DTD/svg11.dtd"
  dx CDATA #IMPLIED>
<!ATTLIST feDropShadow
  xmlns:svg CDATA #FIXED "http://www.w3.org/Graphics/SVG/1.1/DTD/svg11.dtd"
  dy CDATA #IMPLIED>
<!ATTLIST feDropShadow
  xmlns:svg CDATA #FIXED "http://www.w3.org/Graphics/SVG/1.1/DTD/svg11.dtd"
  stdDeviation CDATA #IMPLIED>
<!ATTLIST feDropShadow
  xmlns:svg CDATA #FIXED "http://www.w3.org/Graphics/SVG/1.1/DTD/svg11.dtd"
  flood-opacity CDATA #IMPLIED>
<!ATTLIST feDropShadow
  xmlns:svg CDATA #FIXED "http://www.w3.org/Graphics/SVG/1.1/DTD/svg11.dtd"
  in CDATA #IMPLIED>
<!ATTLIST feDropShadow
  xmlns:svg CDATA #FIXED "http://www.w3.org/Graphics/SVG/1.1/DTD/svg11.dtd"
  result CDATA #IMPLIED>
<!ATTLIST feDropShadow
  xmlns:svg CDATA #FIXED "http://www.w3.org/Graphics/SVG/1.1/DTD/svg11.dtd"
  flood-color CDATA #IMPLIED>
]
>
<!-- Created with Vectornator (http://vectornator.io/) -->
<svg height="100%" stroke-miterlimit="10" style="fill-rule:nonzero;clip-rule:evenodd;stroke-linecap:round;stroke-linejoin:round;" version="1.1" viewBox="0 0 512 270" width="100%" xml:space="preserve" xmlns="http://www.w3.org/2000/svg" xmlns:vectornator="http://vectornator.io" xmlns:xlink="http://www.w3.org/1999/xlink">
<defs>
<clipPath id="TextBounds">
<rect height="145.654" width="532" x="-5.00001" y="161.444"/>
</clipPath>
</defs>
<g id="Layer-1" vectornator:layerName="Layer 1">
<path d="M111.782 109.22C119.763 110.785 132.831 109.455 150.986 105.229C150.986 105.073 151.142 104.994 151.455 104.994C152.551 103.899 152.864 102.725 152.394 101.473C151.299 99.9079 148.716 98.4994 144.647 97.2474C141.83 96.7778 134.475 97.9516 122.58 100.769C119.294 100.925 116.007 101.395 112.721 102.177C113.816 98.2646 115.225 86.3703 116.946 66.4943C130.093 66.4943 141.126 65.0076 150.047 62.034C150.203 61.8775 150.36 61.7992 150.516 61.7992C151.925 60.7037 152.238 59.5299 151.455 58.2779C150.36 56.7129 147.699 55.3826 143.474 54.287C141.126 53.8175 134.083 54.9913 122.346 57.8084C120.781 57.9649 119.137 58.2779 117.416 58.7474C118.355 36.9934 119.059 25.1773 119.529 23.2993C119.685 23.2993 129.623 21.2647 149.342 17.1956C152.629 16.5696 155.055 17.1956 156.62 19.0737C158.654 20.9517 159.593 25.3338 159.437 32.22C161.315 85.9008 161.08 128.861 158.733 161.101C158.576 165.953 157.715 169.474 156.15 171.665C155.211 172.76 152.942 172.917 149.342 172.134L135.257 168.848C131.501 167.752 129.78 168.065 130.093 169.787C140.109 179.177 147.856 187.159 153.333 193.732C155.837 197.175 158.498 199.444 161.315 200.54C163.193 201.166 164.915 200.54 166.48 198.662C174.148 190.054 177.904 180.429 177.748 169.787C175.87 138.33 174.853 97.0909 174.696 46.0706C174.54 35.1153 175.792 27.2119 178.452 22.3603C180.8 18.6042 180.8 15.7871 178.452 13.9091C174.54 10.153 169.062 6.94464 162.019 4.28407C158.576 2.71903 155.524 2.56253 152.864 3.81456C143.474 8.97919 131.11 12.657 115.772 14.8481C107.791 10.9355 102.548 9.13569 100.044 9.4487C96.6007 10.0747 96.2094 12.2658 98.87 16.0219C102.626 22.282 104.504 29.7159 104.504 38.3237C105.443 49.7484 104.817 67.1986 102.626 90.6742C101.218 106.794 96.3659 124.323 88.0712 143.259C81.4981 159.223 68.8995 175.265 50.2756 191.384C47.7715 193.419 46.2847 195.062 45.8152 196.314C45.6587 197.41 46.5195 197.958 48.3975 197.958C51.2146 197.958 54.2664 196.706 57.553 194.201C67.5692 187.472 75.5509 180.742 81.4981 174.012C90.4188 163.996 97.4615 153.432 102.626 142.32C106.382 132.774 109.434 121.74 111.782 109.22Z" fill="#ffd700" fill-rule="evenodd" opacity="1" stroke="#D3D3D3" stroke-linecap="butt" stroke-linejoin="miter" stroke-width="0.1"/>
<path d="M265.587 137.238C259.466 137.118 254.065 138.798 249.384 142.279C245.304 145.519 243.263 149.84 243.263 155.241C243.263 161.482 245.964 166.523 251.365 170.363C256.886 174.444 263.907 176.484 272.428 176.484C283.71 176.484 293.312 174.504 301.233 170.543C309.994 166.103 316.055 160.522 319.416 153.8C323.017 147.559 324.817 140.598 324.817 132.917C324.817 122.835 322.477 114.674 317.796 108.433C311.555 99.3113 302.133 94.7506 289.531 94.7506C281.25 94.7506 268.588 99.0113 251.545 107.533C261.026 96.3709 269.968 86.8893 278.369 79.088C290.971 67.566 299.373 61.0249 303.573 59.4647C307.654 58.0244 309.934 56.6442 310.415 55.324C310.895 53.8837 310.475 52.2635 309.154 50.4632C307.954 48.5428 305.194 46.0224 300.873 42.9019C297.992 40.9816 294.932 41.1016 291.691 43.2619C275.729 50.2231 262.046 53.8237 250.645 54.0638C246.564 53.3436 242.663 50.7032 238.943 46.1424L235.882 48.4828C238.883 55.804 241.943 61.0849 245.064 64.3255C246.984 66.2458 248.784 67.206 250.464 67.206C252.385 67.206 253.765 66.6659 254.605 65.5857C256.405 61.505 268.047 57.5443 289.531 53.7037C268.528 73.9871 246.684 97.451 224 124.095C222.56 125.536 221.84 127.936 221.84 131.297C221.84 134.297 222.38 136.638 223.46 138.318C224.54 139.878 226.4 139.278 229.041 136.518C251.845 113.474 272.008 102.012 289.531 102.132C297.212 102.012 303.753 105.492 309.154 112.574C312.395 117.614 314.015 124.396 314.015 132.917C314.015 139.038 312.275 145.099 308.794 151.1C305.194 156.261 300.393 160.402 294.392 163.522C294.032 158.121 292.472 153.32 289.711 149.12C284.55 141.078 276.509 137.118 265.587 137.238ZM278.719 172.335C271.877 172.335 266.656 171.074 263.056 168.554C259.695 166.034 258.015 163.033 258.015 159.553C258.015 155.952 259.275 153.191 261.796 151.271C263.956 149.711 267.317 148.931 271.877 148.931C276.678 148.811 281.179 151.271 285.38 156.312C288.62 160.273 290.06 165.314 289.7 171.435C286.34 171.915 282.679 172.215 278.719 172.335Z" fill="#D3D3D3" fill-rule="evenodd" opacity="1" stroke="#D3D3D3" stroke-linecap="butt" stroke-linejoin="miter" stroke-width="4"/>
<path d="M388.246 130.032C382.365 106.268 383.746 85.6246 392.387 68.1017C393.107 62.7008 389.867 57.8399 382.666 53.5192C378.585 50.9988 374.024 48.8384 368.983 47.0381L367.003 50.4587C372.524 54.8994 376.544 58.6801 379.065 61.8006C380.625 64.081 380.985 66.9615 380.145 70.4421C375.824 83.4042 374.384 97.8666 375.824 113.829C376.544 131.952 381.465 146.295 390.587 156.857C393.227 159.857 395.928 161.477 398.688 161.717C400.248 161.717 401.929 160.517 403.729 158.117C405.169 155.956 404.989 154.216 403.189 152.896C401.749 151.816 401.029 149.355 401.029 145.515C401.149 141.914 402.829 137.293 406.069 131.652L415.431 113.109L412.37 111.129L396.708 131.652C395.148 133.213 393.587 134.053 392.027 134.173C389.867 134.173 388.607 132.793 388.246 130.032ZM456.838 56.0396L455.398 60.1803C475.681 72.4224 487.083 88.6251 489.603 108.788C489.964 112.029 489.363 114.489 487.803 116.17C486.243 117.73 483.122 118.63 478.442 118.87L457.558 118.87L457.558 122.651L478.442 125.171C483.842 125.651 487.743 127.632 490.144 131.112C492.064 134.473 494.104 136.213 496.265 136.333C498.545 136.333 500.285 134.593 501.485 131.112C505.446 112.269 500.465 94.3861 486.543 77.4632C478.862 67.9816 468.96 60.8404 456.838 56.0396Z" fill="#D3D3D3" fill-rule="evenodd" opacity="1" stroke="#D3D3D3" stroke-linecap="butt" stroke-linejoin="miter" stroke-width="4"/>
<path d="M55.7815 21.0657C54.6077 21.0657 53.4929 21.3517 52.3974 21.8994C45.8242 25.186 34.6975 28.4708 19.0471 31.7574L18.5812 31.2915C14.1991 28.0049 10.6727 26.9741 8.01209 28.2262C6.91656 28.8522 6.85236 30.1887 7.79139 32.2233C7.94789 33.6318 8.40664 35.0326 9.18916 36.4411C13.5713 43.9533 14.1187 65.4819 10.8321 101.008C7.07606 114.781 8.01807 125.424 13.6522 132.936L14.1181 133.402C15.6832 135.437 17.3256 135.437 19.0471 133.402C20.1426 131.524 21.2376 126.992 22.3331 119.792C23.2721 119.792 24.367 119.704 25.6191 119.547C30.9402 118.452 38.9993 117.598 49.798 116.972C53.5541 121.824 56.7747 126.509 59.4353 131.048C60.5308 133.552 61.9316 134.736 63.6531 134.579C66.0007 134.423 68.2792 132.08 70.4703 127.541C72.9744 122.22 73.9806 116.262 73.5111 109.689C72.4155 94.9778 71.5623 73.9966 70.9362 46.765C70.7797 42.3829 71.8747 38.7036 74.2222 35.73C75.3177 34.1649 75.3177 32.6113 74.2222 31.0462C71.7181 28.2292 66.791 25.186 59.4353 21.8994C58.1833 21.3517 56.9552 21.0657 55.7815 21.0657ZM54.3837 33.1551C55.5575 33.116 56.3022 33.2047 56.6152 33.4004C60.0583 36.3739 61.0645 55.3823 59.656 90.4392C59.656 100.768 58.8914 107.644 57.3264 111.087C56.2308 109.991 54.6526 108.832 52.6181 107.58C50.114 106.015 46.4347 105.926 41.5831 107.335C34.8534 108.9 28.5255 110.325 22.5783 111.577C22.5783 101.092 22.6425 90.5123 22.799 79.8701C32.3457 78.4615 40.5823 77.0608 47.4684 75.6522C50.9115 75.0262 52.0064 73.6897 50.7544 71.6551C48.8764 69.3075 45.8974 67.971 41.8283 67.658C35.5681 67.1885 29.3044 68.8308 23.0442 72.587C23.2007 54.276 23.5066 44.3574 23.9761 42.7924C24.1326 40.9144 24.1326 39.4249 23.9761 38.3293C26.3236 38.1728 29.061 37.6254 32.191 36.6864C43.4593 34.4562 50.8624 33.2725 54.3837 33.1551Z" fill="#ffd700" fill-rule="evenodd" opacity="1" stroke="#D3D3D3" stroke-linecap="butt" stroke-linejoin="miter" stroke-width="0.1"/>
<g fill="#D3D3D3" opacity="1" stroke="#D3D3D3" stroke-linecap="butt" stroke-linejoin="miter" stroke-width="1">
<path clip-path="url(#TextBounds)" d="M55.25 266.744C57.95 266.744 59.5741 266.244 62.35 266.244C66.2159 266.244 68.25 266.744 72.25 266.744C73.15 266.744 73.15 264.544 72.25 264.344C70.95 264.044 69.15 263.044 68.05 261.344C67.65 260.644 67.7007 259.307 67.95 258.044C68.2965 256.288 68.35 256.844 69.55 253.744C69.95 252.844 70.0882 252.544 70.75 252.544L84.95 252.544C86.35 252.544 86.65 252.644 86.85 253.244C87.85 255.944 87.75 255.044 88.25 257.544C88.55 258.844 88.8913 260.282 88.05 261.644C87.061 263.245 85.65 264.044 84.05 264.344C83.45 264.444 83.0132 266.744 83.95 266.744C87.25 266.744 90.2893 266.244 94.35 266.244C98.15 266.244 100.201 266.744 103.95 266.744C105.15 266.744 104.65 264.544 103.95 264.344C102.25 263.944 100.65 262.744 99.45 261.444C97.65 259.544 96.75 258.044 95.95 255.744C91.25 243.244 88.25 234.144 83.45 221.044C83.25 220.444 83.15 220.144 82.75 220.144C82.45 220.144 82.15 220.644 81.35 221.544C80.75 222.244 77.75 224.444 76.85 224.644C76.75 224.744 76.606 226.607 76.35 227.844C76.1372 228.872 75.85 229.844 75.65 230.444C70.85 242.144 68.9298 246.953 64.05 257.244C63.1777 259.083 62.5345 260.165 60.95 261.444C59.0089 263.01 57.35 263.644 55.25 264.344C54.65 264.544 54.45 266.744 55.25 266.744ZM78.55 232.744C79.15 231.244 79.15 231.244 79.75 232.744C80.85 235.844 84.55 246.144 85.25 248.844C85.55 249.844 85.45 249.844 84.45 249.844L72.75 249.844C71.55 249.844 71.05 249.744 71.45 248.844C73.65 244.044 76.85 236.944 78.55 232.744Z" fill-rule="evenodd"/>
<path clip-path="url(#TextBounds)" d="M148.75 259.844C142.25 252.444 139.55 248.644 132.85 241.044C132.45 240.544 132.224 240.2 132.55 239.844C137.019 234.961 139.95 232.244 144.75 228.044C147.85 225.244 149.25 224.444 153.55 223.944C153.95 223.844 154.25 221.044 153.55 221.044C149.75 221.444 145.85 221.644 144.75 221.644C142.25 221.644 140.35 221.744 137.25 221.444C136.45 221.444 136.25 224.444 137.05 224.644C139.35 225.144 140.35 226.944 139.35 228.044C139.35 228.044 129.05 238.644 126.15 241.244C125.65 241.744 125.15 241.944 124.65 241.944C124.35 241.944 124.35 241.444 124.35 241.144C124.35 236.844 124.45 234.444 124.65 228.944C124.699 227.588 125.05 226.244 125.75 225.644C127.15 224.444 127.95 224.144 129.65 223.944C130.35 223.844 130.45 221.444 129.65 221.444C125.85 221.444 124.406 221.744 121.05 221.744C117.226 221.744 115.25 221.444 111.25 221.444C110.65 221.444 110.65 223.744 111.25 223.944C112.95 224.344 113.982 225.023 115.35 226.244C116.249 227.046 116.85 227.744 116.85 228.944L116.85 258.144C116.85 259.644 116.688 260.689 115.65 261.744C114.096 263.323 112.55 263.944 110.65 264.444C109.45 264.644 109.85 266.844 110.65 266.844C114.15 266.844 116.991 266.444 121.05 266.444C124.408 266.444 125.95 266.844 129.65 266.844C130.75 266.844 130.75 264.644 129.65 264.444C127.65 263.944 126.85 263.344 125.55 262.044C125.05 261.544 124.706 259.704 124.65 258.144C124.45 252.544 124.35 249.844 124.35 245.444C124.35 244.944 124.25 243.944 124.65 243.944C124.95 243.944 125.651 244.585 126.15 245.144C131.509 251.145 136.05 256.844 139.65 260.744C140.65 261.744 140.75 262.144 140.75 262.844C140.75 263.744 138.35 263.944 136.65 264.444C136.05 264.544 136.05 266.844 136.85 266.844C138.35 266.844 144.35 266.444 149.15 266.444C152.45 266.444 154.95 267.144 156.95 267.144C157.95 267.144 157.55 264.844 156.95 264.644C153.05 263.544 151.65 263.144 148.75 259.844Z" fill-rule="evenodd"/>
<path clip-path="url(#TextBounds)" d="M163.15 266.744C165.85 266.744 167.474 266.244 170.25 266.244C174.116 266.244 176.15 266.744 180.15 266.744C181.05 266.744 181.05 264.544 180.15 264.344C178.85 264.044 177.05 263.044 175.95 261.344C175.55 260.644 175.601 259.307 175.85 258.044C176.196 256.288 176.25 256.844 177.45 253.744C177.85 252.844 177.988 252.544 178.65 252.544L192.85 252.544C194.25 252.544 194.55 252.644 194.75 253.244C195.75 255.944 195.65 255.044 196.15 257.544C196.45 258.844 196.791 260.282 195.95 261.644C194.961 263.245 193.55 264.044 191.95 264.344C191.35 264.444 190.913 266.744 191.85 266.744C195.15 266.744 198.189 266.244 202.25 266.244C206.05 266.244 208.101 266.744 211.85 266.744C213.05 266.744 212.55 264.544 211.85 264.344C210.15 263.944 208.55 262.744 207.35 261.444C205.55 259.544 204.65 258.044 203.85 255.744C199.15 243.244 196.15 234.144 191.35 221.044C191.15 220.444 191.05 220.144 190.65 220.144C190.35 220.144 190.05 220.644 189.25 221.544C188.65 222.244 185.65 224.444 184.75 224.644C184.65 224.744 184.506 226.607 184.25 227.844C184.037 228.872 183.75 229.844 183.55 230.444C178.75 242.144 176.83 246.953 171.95 257.244C171.078 259.083 170.434 260.165 168.85 261.444C166.909 263.01 165.25 263.644 163.15 264.344C162.55 264.544 162.35 266.744 163.15 266.744ZM186.45 232.744C187.05 231.244 187.05 231.244 187.65 232.744C188.75 235.844 192.45 246.144 193.15 248.844C193.45 249.844 193.35 249.844 192.35 249.844L180.65 249.844C179.45 249.844 178.95 249.744 179.35 248.844C181.55 244.044 184.75 236.944 186.45 232.744Z" fill-rule="evenodd"/>
<path clip-path="url(#TextBounds)" d="M230.65 247.544C230.65 246.644 230.95 246.044 231.65 246.144C232.95 246.244 235.157 246.659 237.15 247.644C238.561 248.341 239.35 249.144 240.15 250.344C244.85 258.044 245.65 259.944 248.95 264.044C251.45 267.044 256.05 267.844 260.05 267.844C261.75 267.844 264.05 266.944 264.95 266.344C265.55 265.944 265.85 264.344 265.15 264.344C261.85 264.244 260.45 265.144 257.65 262.344C251.35 256.244 249.55 251.344 245.25 244.844C244.95 244.444 244.95 244.344 245.25 244.244C246.15 243.844 247.85 242.744 249.25 241.344C250.35 240.344 252.75 236.044 252.75 232.944C252.75 225.444 245.45 221.144 235.35 221.144C231.35 221.144 229.55 221.744 226.95 221.744C223.399 221.744 220.75 221.444 217.85 221.444C216.874 221.444 217.35 223.744 217.95 223.944C220.65 224.644 220.85 224.744 222.25 226.244C222.95 227.044 223.15 229.344 223.15 231.244L223.15 257.944C223.15 259.644 222.418 260.795 221.15 262.044C219.746 263.426 218.65 263.844 216.65 264.344C216.05 264.544 216.05 266.844 216.65 266.844C218.55 266.844 223.476 266.244 227.85 266.244C231.601 266.244 236.05 266.844 237.45 266.844C238.15 266.844 238.05 264.144 237.45 263.944C233.05 262.844 231.05 261.144 230.95 258.344C230.85 254.644 230.75 251.544 230.65 247.544ZM230.65 240.644C230.55 235.144 230.75 232.844 230.95 227.844C231.05 225.744 231.55 224.044 235.35 224.044C243.15 224.044 244.35 229.144 244.35 233.044C244.35 237.144 243.55 239.744 241.25 241.144C239.45 242.344 238.05 243.144 233.95 243.144C231.85 243.144 230.75 243.344 230.65 240.644Z" fill-rule="evenodd"/>
<path clip-path="url(#TextBounds)" d="M269.65 246.044C269.65 257.93 277.15 267.744 291.05 267.744C305.55 267.744 309.15 256.158 309.15 244.744C309.15 238.544 309.65 231.144 309.85 228.944C310.05 225.244 312.593 224.055 315.65 223.444C316.15 223.344 316.508 221.244 315.65 221.244C312.45 221.244 310.65 221.344 307.55 221.344L300.35 221.344C299.335 221.344 299.35 223.644 300.25 223.944C303.55 224.744 304.85 225.344 304.75 231.444L304.75 247.144C304.75 259.444 300.75 264.244 292.35 264.244C283.15 264.244 277.15 256.636 277.15 247.944C277.15 244.444 276.95 235.944 277.15 229.944C277.25 226.044 278.25 224.244 281.15 223.844C281.95 223.644 281.95 221.444 281.15 221.444C277.25 221.444 276.942 221.644 274.25 221.644C270.856 221.644 268.75 221.444 265.55 221.444C264.572 221.444 264.95 223.744 265.75 223.944C268.05 224.644 269.65 224.944 269.65 229.244L269.65 246.044Z" fill-rule="evenodd"/>
<path clip-path="url(#TextBounds)" d="M338.25 228.744C338.25 227.544 338.85 226.644 339.65 226.044C341.05 224.744 342.55 224.244 344.25 223.544C344.95 223.244 345.15 221.244 344.25 221.244C340.15 221.244 338.456 221.444 334.75 221.444C330.849 221.444 329.05 221.244 324.75 221.244C324.15 221.244 324.05 223.244 324.75 223.544C326.45 224.244 327.673 224.663 329.15 225.944C330.1 226.767 330.75 227.444 330.75 228.744L330.75 258.244C330.75 259.744 330.581 260.914 329.45 261.944C327.746 263.495 326.15 263.944 324.05 264.344C322.85 264.644 323.25 266.744 324.05 266.744C327.85 266.744 330.572 266.244 334.75 266.244C338.733 266.244 340.95 266.744 344.95 266.744C346.15 266.744 346.15 264.644 344.95 264.344C342.85 263.944 341.328 263.471 339.65 261.944C338.509 260.905 338.25 259.744 338.25 258.244L338.25 228.744Z" fill-rule="evenodd"/>
<path clip-path="url(#TextBounds)" d="M361.45 256.844C358.416 256.844 355.95 259.31 355.95 262.344C355.95 265.377 358.416 267.844 361.45 267.844C364.483 267.844 366.95 265.377 366.95 262.344C366.95 259.31 364.483 256.844 361.45 256.844Z" fill-rule="evenodd"/>
<path clip-path="url(#TextBounds)" d="M376.65 266.744C379.35 266.744 380.974 266.244 383.75 266.244C387.616 266.244 389.65 266.744 393.65 266.744C394.55 266.744 394.55 264.544 393.65 264.344C392.35 264.044 390.55 263.044 389.45 261.344C389.05 260.644 389.101 259.307 389.35 258.044C389.696 256.288 389.75 256.844 390.95 253.744C391.35 252.844 391.488 252.544 392.15 252.544L406.35 252.544C407.75 252.544 408.05 252.644 408.25 253.244C409.25 255.944 409.15 255.044 409.65 257.544C409.95 258.844 410.291 260.282 409.45 261.644C408.461 263.245 407.05 264.044 405.45 264.344C404.85 264.444 404.413 266.744 405.35 266.744C408.65 266.744 411.689 266.244 415.75 266.244C419.55 266.244 421.601 266.744 425.35 266.744C426.55 266.744 426.05 264.544 425.35 264.344C423.65 263.944 422.05 262.744 420.85 261.444C419.05 259.544 418.15 258.044 417.35 255.744C412.65 243.244 409.65 234.144 404.85 221.044C404.65 220.444 404.55 220.144 404.15 220.144C403.85 220.144 403.55 220.644 402.75 221.544C402.15 222.244 399.15 224.444 398.25 224.644C398.15 224.744 398.006 226.607 397.75 227.844C397.537 228.872 397.25 229.844 397.05 230.444C392.25 242.144 390.33 246.953 385.45 257.244C384.578 259.083 383.934 260.165 382.35 261.444C380.409 263.01 378.75 263.644 376.65 264.344C376.05 264.544 375.85 266.744 376.65 266.744ZM399.95 232.744C400.55 231.244 400.55 231.244 401.15 232.744C402.25 235.844 405.95 246.144 406.65 248.844C406.95 249.844 406.85 249.844 405.85 249.844L394.15 249.844C392.95 249.844 392.45 249.744 392.85 248.844C395.05 244.044 398.25 236.944 399.95 232.744Z" fill-rule="evenodd"/>
<path clip-path="url(#TextBounds)" d="M448.75 228.744C448.75 227.544 449.35 226.644 450.15 226.044C451.55 224.744 453.05 224.244 454.75 223.544C455.45 223.244 455.65 221.244 454.75 221.244C450.65 221.244 448.956 221.444 445.25 221.444C441.349 221.444 439.55 221.244 435.25 221.244C434.65 221.244 434.55 223.244 435.25 223.544C436.95 224.244 438.173 224.663 439.65 225.944C440.6 226.767 441.25 227.444 441.25 228.744L441.25 258.244C441.25 259.744 441.081 260.914 439.95 261.944C438.246 263.495 436.65 263.944 434.55 264.344C433.35 264.644 433.75 266.744 434.55 266.744C438.35 266.744 441.072 266.244 445.25 266.244C449.233 266.244 451.45 266.744 455.45 266.744C456.65 266.744 456.65 264.644 455.45 264.344C453.35 263.944 451.828 263.471 450.15 261.944C449.009 260.905 448.75 259.744 448.75 258.244L448.75 228.744Z" fill-rule="evenodd"/>
</g>
</g>
</svg>
