<?xml version="1.0" encoding="UTF-8" standalone="no"?>
<!DOCTYPE svg PUBLIC "-//W3C//DTD SVG 1.1//EN" "http://www.w3.org/Graphics/SVG/1.1/DTD/svg11.dtd">

<!-- Created with Vectornator (http://vectornator.io/) -->
<svg height="100%" stroke-miterlimit="10" style="fill-rule:nonzero;clip-rule:evenodd;stroke-linecap:round;stroke-linejoin:round;" version="1.1" viewBox="0 0 240 240" width="100%" xml:space="preserve" xmlns="http://www.w3.org/2000/svg" xmlns:vectornator="http://vectornator.io" xmlns:xlink="http://www.w3.org/1999/xlink">
<metadata>
<vectornator:setting key="IsTimeLapseWatermarkDisabled" value="false"/>
<vectornator:setting key="UndoHistoryDisabled" value="true"/>
<vectornator:setting key="VNDimensionsVisible" value="true"/>
<vectornator:setting key="VNSnapToGuides" value="true"/>
<vectornator:setting key="WDCMYKEnabledKey" value="false"/>
<vectornator:setting key="WDDisplayWhiteBackground" value="false"/>
<vectornator:setting key="WDDynamicGuides" value="false"/>
<vectornator:setting key="WDGuidesVisible" value="true"/>
<vectornator:setting key="WDIsolateActiveLayer" value="false"/>
<vectornator:setting key="WDOutlineMode" value="false"/>
<vectornator:setting key="WDRulersVisible" value="true"/>
<vectornator:setting key="WDSnapToEdges" value="false"/>
<vectornator:setting key="WDSnapToGrid" value="false"/>
<vectornator:setting key="WDSnapToPoints" value="false"/>
<vectornator:setting key="WDUnits" value="Points"/>
</metadata>
<defs/>
<g id="Background" vectornator:layerName="Background">
<path d="M0 0L240 0L240 0L240 240L240 240L0 240L0 240L0 0L0 0Z" fill="#000000" fill-opacity="0" fill-rule="evenodd" opacity="1" stroke="none"/>
</g>
<g id="Layer_1" vectornator:layerName="Layer_1">
<path d="M120 54.1C156.396 54.1 185.9 83.604 185.9 120C185.9 156.396 156.396 185.9 120 185.9C83.604 185.9 54.1 156.396 54.1 120C54.1 83.604 83.604 54.1 120 54.1ZM101.4 63.15C92.25 63.15 86.25 73.5 86.25 78.3C86.25 79.8 86.7 80.1 87.75 80.1C88.8 80.1 94.2 74.25 98.1 74.25C110.1 74.25 115.65 94.5 117.6 107.85C117.9 110.25 117.75 110.25 116.85 113.1C112.2 127.5 97.05 150.9 89.4 162.3C87.9 164.55 87.9 164.1 87.9 166.2C87.9 168.9 92.85 170.7 94.95 170.7C96.15 170.7 97.95 166.2 98.4 165.3C105.3 153 115.8 133.05 119.1 123.9C119.4 123.15 119.85 123.3 120 124.05C121.35 134.4 124.5 150.9 127.5 160.8C129.75 168.3 132.6 170.25 137.55 170.25C144 170.25 152.25 165.75 152.25 154.5C152.25 153.75 151.35 153.15 150.6 153.15C149.4 153.15 145.2 158.4 139.8 158.25C137.4 158.25 132.75 156 130.95 149.7C124.5 127.05 120.6 97.35 118.8 87.45C116.85 76.95 111.6 63.15 101.4 63.15Z" fill="#000000" fill-rule="evenodd" opacity="1" stroke="none"/>
<path d="M120.5 236.5C56.435 236.5 4.5 184.565 4.5 120.5C4.5 56.435 56.435 4.5 120.5 4.5C184.565 4.5 236.5 56.435 236.5 120.5C236.5 184.565 184.565 236.5 120.5 236.5Z" fill="#000000" fill-opacity="0" fill-rule="evenodd" opacity="1" stroke="#000000" stroke-linecap="butt" stroke-linejoin="miter" stroke-width="3"/>
</g>
</svg>
