<?xml version="1.0" encoding="UTF-8"?>
<!DOCTYPE svg PUBLIC "-//W3C//DTD SVG 1.1//EN" "http://www.w3.org/Graphics/SVG/1.1/DTD/svg11.dtd">
<svg version="1.1" xmlns="http://www.w3.org/2000/svg" xmlns:xlink="http://www.w3.org/1999/xlink" x="0" y="0" width="285" height="285" viewBox="0, 0, 285, 285">
  <g id="Background">
    <rect x="0" y="0" width="285" height="285" fill="#000000" fill-opacity="0"/>
  </g>
  <g id="Layer_1">
    <g>
      <text transform="matrix(1, 0, 0, 1, 142.5, 263.25)">
        <tspan x="-143.296" y="17" font-family="Norse-Bold" font-size="128" fill="#000000">kjarni</tspan>
      </text>
      <path d="M6.756,186.81 L8.164,195.898 L7.908,206.138 L8.548,222.266 L9.7,229.178 L8.932,256.826 L8.932,257.594 L8.676,259.642 L10.212,261.434 L8.036,266.554 L8.164,267.066 L7.78,267.194 L7.652,280.506 L14.436,280.634 L21.22,280.378 L21.348,273.85 L20.836,271.418 L20.708,270.01 L20.58,263.738 L20.068,257.594 L20.068,236.602 L25.188,247.226 L25.06,247.482 L29.412,254.522 L28.772,256.186 L35.556,271.418 L39.268,280.89 L42.468,281.018 L51.684,275.898 L47.972,267.578 L46.18,267.194 L46.82,265.402 L42.468,258.106 L37.988,248.25 L30.436,230.97 L29.796,229.946 L39.012,212.41 L38.628,212.026 L39.012,211.386 L46.82,198.458 L50.532,191.674 L46.564,188.602 L38.756,185.53 L34.788,194.874 L35.3,198.074 L31.716,201.658 L29.54,207.162 L24.42,219.45 L22.244,222.906 L20.324,227.898 L19.94,228.922 L19.94,225.082 L19.684,218.938 L20.964,187.194 L16.1,185.53 z M67.94,224.826 L67.3,231.866 L67.428,239.802 L67.556,241.594 L67.556,246.586 L67.044,260.538 L67.3,261.69 L65.38,264.378 L59.748,268.09 L54.116,270.394 L54.116,277.05 L61.156,282.298 L70.628,274.618 L70.5,272.058 L73.956,271.546 L78.052,267.962 L80.1,264.378 L78.564,242.362 L77.54,238.522 L78.948,237.498 L78.436,201.786 L79.972,190.522 L78.308,186.042 L66.148,186.298 L66.148,193.466 L68.452,194.746 L66.788,196.794 L67.172,218.426 z M124.132,254.01 L125.156,258.234 L126.308,259.002 L125.284,260.282 L125.796,263.866 L127.46,279.994 L129.636,281.146 L131.3,281.146 L140.772,278.074 L139.364,272.57 L137.444,270.522 L138.212,269.498 L136.932,261.434 L133.732,249.53 L133.732,247.738 L127.588,216.89 L126.052,215.738 L126.948,213.434 L122.852,193.85 L122.34,192.57 L121.956,191.546 L122.084,187.066 L119.908,186.042 L109.412,186.554 L108.132,194.618 L106.98,199.994 L106.084,205.114 L107.492,207.034 L105.188,209.722 L101.348,226.874 L101.348,229.178 L100.58,231.866 L100.196,234.298 L97.636,250.042 L97.764,252.602 L96.356,254.01 L95.076,262.074 L91.62,277.69 L96.1,280.506 L104.036,281.274 L105.444,272.698 L104.548,269.114 L105.7,267.706 L107.108,258.618 L109.668,257.594 L110.82,257.082 L119.396,255.034 L121.956,253.242 L122.084,253.242 L123.876,252.986 z M112.356,224.698 L111.716,222.65 L112.996,222.01 L115.556,206.394 L117.476,219.962 L117.988,222.266 L118.5,228.922 L121.06,242.746 L117.476,243.642 L109.156,246.202 L109.284,245.306 L110.82,236.986 L110.692,237.114 z M164.068,240.826 L169.188,251.194 L170.34,254.138 L175.076,263.098 L176.612,263.866 L176.484,266.042 L180.964,276.282 L184.036,281.274 L194.404,275.514 L194.532,271.802 L190.308,267.322 L188.004,262.458 L188.004,262.586 L186.212,258.874 L185.444,258.49 L185.444,256.826 L180.324,248.122 C179.428,246.842 178.66,246.202 177.636,245.05 L177.636,242.874 C176.868,241.338 175.332,239.162 174.436,237.37 L178.02,232.506 L180.196,229.818 L184.292,224.954 L190.18,217.786 L191.076,210.106 L184.932,204.474 C184.804,204.474 182.756,205.114 182.628,204.986 L181.86,201.786 L161.508,184.122 L151.396,188.218 L151.908,199.226 L152.548,223.674 L151.524,226.234 L151.78,232.89 L152.292,247.866 L152.292,252.858 L153.444,254.522 L151.524,259.514 L150.756,279.866 L159.204,280.634 L164.324,278.586 L164.196,267.962 L163.812,266.81 L163.428,254.01 L163.3,240.058 z M163.556,228.794 L163.044,217.402 L162.788,215.994 L162.532,215.226 L162.02,212.922 L163.044,210.49 L163.044,209.21 L163.3,199.354 L175.076,211.002 L175.972,211.642 L178.532,214.842 L177.124,216.634 C175.46,218.938 172.388,222.906 170.596,225.082 L164.196,233.018 L163.3,233.53 z M246.244,268.986 L246.244,264.89 L245.348,236.858 L243.94,232.634 L244.964,227.258 L246.244,195.77 L246.5,187.066 L241.252,186.17 L233.828,186.298 L233.828,196.538 L235.108,198.33 L233.828,202.298 L233.828,213.306 L229.604,206.394 L228.58,205.882 L225.38,200.762 L213.86,184.89 L203.748,187.706 L203.748,194.362 L204.26,207.674 L204.772,214.97 L204.26,241.594 L205.412,244.154 L204.388,247.866 L203.62,266.042 L203.62,268.218 L204.004,269.37 L203.108,279.61 L208.612,280.634 L216.164,280.378 L216.42,272.186 L216.036,270.394 L216.164,257.082 L215.012,252.218 L215.652,247.61 L215.908,218.426 L214.372,216.762 L214.244,216.506 L216.036,211.898 L216.036,204.986 L219.364,209.594 L224.612,216.89 L228.324,221.37 L230.116,224.186 L231.908,226.106 L233.956,229.562 L234.084,242.874 L234.468,245.306 L234.084,245.946 L233.956,258.234 L234.084,270.394 L233.956,280.378 L238.308,280.634 L245.348,280.506 L247.012,276.154 z M265.444,224.57 L265.06,231.61 L264.676,235.578 L264.676,259.514 L264.676,264.122 L266.212,266.298 L264.676,268.858 L262.884,280.25 L268.772,280.378 L271.46,280.506 L277.092,278.714 L277.22,273.978 L276.964,271.546 L276.708,269.626 L276.708,234.17 L275.3,233.274 L276.452,230.586 L276.196,227.386 L275.684,222.394 L276.068,215.866 L276.452,199.098 L277.092,195.898 L277.732,186.554 L269.412,186.042 L263.396,186.426 L264.036,192.826 L265.188,193.466 L264.164,195.77 L264.548,221.37 z" fill-opacity="0" stroke="#217FDB" stroke-width="2"/>
    </g>
    <g>
      <path d="M143,235.5 C78.935,235.5 27,183.565 27,119.5 C27,55.435 78.935,3.5 143,3.5 C207.065,3.5 259,55.435 259,119.5 C259,183.565 207.065,235.5 143,235.5 z" fill="#000000"/>
      <path d="M143,235.5 C78.935,235.5 27,183.565 27,119.5 C27,55.435 78.935,3.5 143,3.5 C207.065,3.5 259,55.435 259,119.5 C259,183.565 207.065,235.5 143,235.5 z" fill-opacity="0" stroke="#217FDB" stroke-width="2"/>
    </g>
    <text transform="matrix(1, 0, 0, 1, 152.5, 117.5)">
      <tspan x="-89.269" y="48" font-family="EBGaramond08-Regular" font-size="150" kerning="0" fill="#217FDB">λ</tspan>
      <tspan x="-24.769" y="48" font-family="Baskerville" font-size="150" kerning="0" fill="#217FDB">D</tspan>
    </text>
    <g>
      <path d="M162.136,185.114 L182.488,202.778 L183.256,205.978 C183.384,206.106 185.432,205.466 185.56,205.466 L191.704,211.098 L190.808,218.778 L184.92,225.946 L182.166,229.216 C169.804,233.06 175.554,231.638 164.996,233.796 L171.224,226.074 C173.016,223.898 176.088,219.93 177.752,217.626 L179.16,215.834 L176.6,212.634 L175.704,211.994 L163.928,200.346 L163.672,210.202 L163.672,211.482 L162.648,213.914 L163.16,216.218 L163.416,216.986 L163.672,218.394 L164.184,229.786 L163.956,234.009 C158.059,235.215 161.864,234.547 152.463,235.5 L152.408,233.882 L152.152,227.226 L153.176,224.666 L152.536,200.218 L152.024,189.21 L162.136,185.114 z" fill="#217FDB"/>
      <path d="M162.136,185.114 L182.488,202.778 L183.256,205.978 C183.384,206.106 185.432,205.466 185.56,205.466 L191.704,211.098 L190.808,218.778 L184.92,225.946 L182.166,229.216 C169.804,233.06 175.554,231.638 164.996,233.796 L171.224,226.074 C173.016,223.898 176.088,219.93 177.752,217.626 L179.16,215.834 L176.6,212.634 L175.704,211.994 L163.928,200.346 L163.672,210.202 L163.672,211.482 L162.648,213.914 L163.16,216.218 L163.416,216.986 L163.672,218.394 L164.184,229.786 L163.956,234.009 C158.059,235.215 161.864,234.547 152.463,235.5 L152.408,233.882 L152.152,227.226 L153.176,224.666 L152.536,200.218 L152.024,189.21 L162.136,185.114 z" fill-opacity="0" stroke="#217FDB" stroke-width="2"/>
    </g>
    <g>
      <path d="M120.536,187.034 L122.712,188.058 L122.584,192.538 L122.968,193.562 L123.48,194.842 L127.576,214.426 L126.68,216.73 L128.216,217.882 L131.682,235.286 C123.543,234.461 127.504,235.073 119.791,233.496 L119.128,229.914 L118.616,223.258 L118.104,220.954 L116.184,207.386 L113.624,223.002 L112.344,223.642 L112.984,225.69 L112.174,231.73 C102.805,228.817 106.115,230.168 101.976,228.417 L101.976,227.866 L105.816,210.714 L108.12,208.026 L106.712,206.106 L107.608,200.986 L108.76,195.61 L110.04,187.546 L120.536,187.034 z" fill="#217FDB"/>
      <path d="M120.536,187.034 L122.712,188.058 L122.584,192.538 L122.968,193.562 L123.48,194.842 L127.576,214.426 L126.68,216.73 L128.216,217.882 L131.682,235.286 C123.543,234.461 127.504,235.073 119.791,233.496 L119.128,229.914 L118.616,223.258 L118.104,220.954 L116.184,207.386 L113.624,223.002 L112.344,223.642 L112.984,225.69 L112.174,231.73 C102.805,228.817 106.115,230.168 101.976,228.417 L101.976,227.866 L105.816,210.714 L108.12,208.026 L106.712,206.106 L107.608,200.986 L108.76,195.61 L110.04,187.546 L120.536,187.034 z" fill-opacity="0" stroke="#217FDB" stroke-width="2"/>
    </g>
    <g>
      <path d="M214.488,185.908 L225.68,201.328 C220.253,206.754 222.78,204.517 218.275,208.235 L216.664,206.004 L216.664,209.564 C210.309,214.809 214.012,211.974 205.365,217.815 L205.4,215.988 L204.888,208.692 L204.376,195.38 L204.376,188.724 L214.488,185.908 z" fill="#217FDB"/>
      <path d="M214.488,185.908 L225.68,201.328 C220.253,206.754 222.78,204.517 218.275,208.235 L216.664,206.004 L216.664,209.564 C210.309,214.809 214.012,211.974 205.365,217.815 L205.4,215.988 L204.888,208.692 L204.376,195.38 L204.376,188.724 L214.488,185.908 z" fill-opacity="0" stroke="#217FDB" stroke-width="2"/>
    </g>
    <g>
      <path d="M78.936,187.034 L80.6,191.514 L79.064,202.778 L79.263,216.689 C71.529,211.465 75.442,214.365 67.595,207.89 L67.416,197.786 L69.08,195.738 L66.776,194.458 L66.776,187.29 L78.936,187.034 z" fill="#217FDB"/>
      <path d="M78.936,187.034 L80.6,191.514 L79.064,202.778 L79.263,216.689 C71.529,211.465 75.442,214.365 67.595,207.89 L67.416,197.786 L69.08,195.738 L66.776,194.458 L66.776,187.29 L78.936,187.034 z" fill-opacity="0" stroke="#217FDB" stroke-width="2"/>
    </g>
    <path d="M237.042,186.737 C235.106,189.603 236.136,188.227 233.956,190.868 L233.956,186.79 L237.042,186.737 z" fill="#217FDB"/>
  </g>
</svg>
