<?xml version="1.0" encoding="UTF-8" standalone="no"?>
<!DOCTYPE svg PUBLIC "-//W3C//DTD SVG 1.1//EN" "http://www.w3.org/Graphics/SVG/1.1/DTD/svg11.dtd">

<!-- Created with Vectornator (http://vectornator.io/) -->
<svg height="100%" stroke-miterlimit="10" style="fill-rule:nonzero;clip-rule:evenodd;stroke-linecap:round;stroke-linejoin:round;" version="1.1" viewBox="0 0 300 300" width="100%" xml:space="preserve" xmlns="http://www.w3.org/2000/svg" xmlns:vectornator="http://vectornator.io" xmlns:xlink="http://www.w3.org/1999/xlink">
<metadata>
<vectornator:setting key="IsTimeLapseWatermarkDisabled" value="false"/>
<vectornator:setting key="UndoHistoryDisabled" value="true"/>
<vectornator:setting key="VNDimensionsVisible" value="true"/>
<vectornator:setting key="VNSnapToGuides" value="true"/>
<vectornator:setting key="WDCMYKEnabledKey" value="false"/>
<vectornator:setting key="WDDisplayWhiteBackground" value="false"/>
<vectornator:setting key="WDDynamicGuides" value="false"/>
<vectornator:setting key="WDGuidesVisible" value="true"/>
<vectornator:setting key="WDIsolateActiveLayer" value="false"/>
<vectornator:setting key="WDOutlineMode" value="false"/>
<vectornator:setting key="WDRulersVisible" value="true"/>
<vectornator:setting key="WDSnapToEdges" value="false"/>
<vectornator:setting key="WDSnapToGrid" value="false"/>
<vectornator:setting key="WDSnapToPoints" value="false"/>
<vectornator:setting key="WDUnits" value="Points"/>
</metadata>
<defs>
<clipPath id="TextBounds">
<rect height="0" width="289.592" x="6.70399" y="-2.20005e+78"/>
</clipPath>
</defs>
<g id="Background" vectornator:layerName="Background">
<path d="M0 0L300 0L300 0L300 300L300 300L0 300L0 300L0 0L0 0Z" fill="#000000" fill-opacity="0" fill-rule="evenodd" opacity="1" stroke="none"/>
</g>
<g id="Layer_1" vectornator:layerName="Layer_1">
<path d="M150 54.433C186.396 54.433 215.9 83.938 215.9 120.333C215.9 156.729 186.396 186.233 150 186.233C113.604 186.233 84.1 156.729 84.1 120.333C84.1 83.938 113.604 54.433 150 54.433ZM131.4 63.483C122.25 63.483 116.25 73.833 116.25 78.633C116.25 80.133 116.7 80.433 117.75 80.433C118.8 80.433 124.2 74.583 128.1 74.583C140.1 74.583 145.65 94.833 147.6 108.183C147.9 110.583 147.75 110.583 146.85 113.433C142.2 127.833 127.05 151.233 119.4 162.633C117.9 164.883 117.9 164.433 117.9 166.533C117.9 169.233 122.85 171.033 124.95 171.033C126.15 171.033 127.95 166.533 128.4 165.633C135.3 153.333 145.8 133.383 149.1 124.233C149.4 123.483 149.85 123.633 150 124.383C151.35 134.733 154.5 151.233 157.5 161.133C159.75 168.633 162.6 170.583 167.55 170.583C174 170.583 182.25 166.083 182.25 154.833C182.25 154.083 181.35 153.483 180.6 153.483C179.4 153.483 175.2 158.733 169.8 158.583C167.4 158.583 162.75 156.333 160.95 150.033C154.5 127.383 150.6 97.683 148.8 87.783C146.85 77.283 141.6 63.483 131.4 63.483Z" fill="#000000" fill-rule="evenodd" opacity="1" stroke="none"/>
<path d="M150.23 3.75163C214.295 3.75163 266.23 55.6866 266.23 119.752C265.783 152.257 252.4 185.668 226.901 206.711L221.59 199.392L211.478 202.208L211.478 208.864L211.828 217.98C207.763 220.83 203.321 223.129 198.753 225.061L198.806 224.608L192.662 218.976C192.534 218.976 190.486 219.616 190.358 219.488L189.59 216.288L169.238 198.624L159.126 202.72L159.638 213.728L160.2 235.196C154.219 235.802 157.539 235.568 150.23 235.752C141.49 235.531 146.241 235.802 135.989 234.763L135.318 231.392L133.782 230.24L134.678 227.936L130.582 208.352L130.07 207.072L129.686 206.048L129.814 201.568L127.638 200.544L117.142 201.056L115.862 209.12L114.71 214.496L113.814 219.616L115.222 221.536L112.918 224.224L111.811 229.169C102.671 226.221 94.099 221.674 86.166 216.315L86.166 216.288L87.702 205.024L86.038 200.544L73.878 200.8L73.878 206.974C47.949 185.409 35.067 152.864 34.23 119.752C34.23 55.6866 86.165 3.75163 150.23 3.75163Z" fill="#000000" fill-opacity="0" fill-rule="evenodd" opacity="1" stroke="#000000" stroke-linecap="butt" stroke-linejoin="miter" stroke-width="3"/>
<g fill="#000000" fill-opacity="0" opacity="1" stroke="#ffcc00" stroke-linecap="butt" stroke-linejoin="miter" stroke-width="4">
<path clip-path="url(#TextBounds)" d="M15.756-2.20005e+78L17.164-2.20005e+78L16.908-2.20005e+78L17.548-2.20005e+78L18.7-2.20005e+78L17.932-2.20005e+78L17.932-2.20005e+78L17.676-2.20005e+78L19.212-2.20005e+78L17.036-2.20005e+78L17.164-2.20005e+78L16.78-2.20005e+78L16.652-2.20005e+78L23.436-2.20005e+78L30.22-2.20005e+78L30.348-2.20005e+78L29.836-2.20005e+78L29.708-2.20005e+78L29.58-2.20005e+78L29.068-2.20005e+78L29.068-2.20005e+78L34.188-2.20005e+78L34.06-2.20005e+78L38.412-2.20005e+78L37.772-2.20005e+78L44.556-2.20005e+78L48.268-2.20005e+78L51.468-2.20005e+78L60.684-2.20005e+78L56.972-2.20005e+78L55.18-2.20005e+78L55.82-2.20005e+78L51.468-2.20005e+78L46.988-2.20005e+78L39.436-2.20005e+78L38.796-2.20005e+78L48.012-2.20005e+78L47.628-2.20005e+78L48.012-2.20005e+78L55.82-2.20005e+78L59.532-2.20005e+78L55.564-2.20005e+78L47.756-2.20005e+78L43.788-2.20005e+78L44.3-2.20005e+78L40.716-2.20005e+78L38.54-2.20005e+78L33.42-2.20005e+78L31.244-2.20005e+78L29.324-2.20005e+78L28.94-2.20005e+78L28.94-2.20005e+78L28.684-2.20005e+78L29.964-2.20005e+78L25.1-2.20005e+78L15.756-2.20005e+78Z" fill-rule="evenodd"/>
<path clip-path="url(#TextBounds)" d="M76.94-2.20005e+78L76.3-2.20005e+78L76.428-2.20005e+78L76.556-2.20005e+78L76.556-2.20005e+78L76.044-2.20005e+78L76.3-2.20005e+78L74.38-2.20005e+78L68.748-2.20005e+78L63.116-2.20005e+78L63.116-2.20005e+78L70.156-2.20005e+78L79.628-2.20005e+78L79.5-2.20005e+78L82.956-2.20005e+78L87.052-2.20005e+78L89.1-2.20005e+78L87.564-2.20005e+78L86.54-2.20005e+78L87.948-2.20005e+78L87.436-2.20005e+78L88.972-2.20005e+78L87.308-2.20005e+78L75.148-2.20005e+78L75.148-2.20005e+78L77.452-2.20005e+78L75.788-2.20005e+78L76.172-2.20005e+78L76.94-2.20005e+78Z" fill-rule="evenodd"/>
<path clip-path="url(#TextBounds)" d="M133.132-2.20005e+78L134.156-2.20005e+78L135.308-2.20005e+78L134.284-2.20005e+78L134.796-2.20005e+78L136.46-2.20005e+78L138.636-2.20005e+78L140.3-2.20005e+78L149.772-2.20005e+78L148.364-2.20005e+78L146.444-2.20005e+78L147.212-2.20005e+78L145.932-2.20005e+78L142.732-2.20005e+78L142.732-2.20005e+78L136.588-2.20005e+78L135.052-2.20005e+78L135.948-2.20005e+78L131.852-2.20005e+78L131.34-2.20005e+78L130.956-2.20005e+78L131.084-2.20005e+78L128.908-2.20005e+78L118.412-2.20005e+78L117.132-2.20005e+78L115.98-2.20005e+78L115.084-2.20005e+78L116.492-2.20005e+78L114.188-2.20005e+78L110.348-2.20005e+78L110.348-2.20005e+78L109.58-2.20005e+78L109.196-2.20005e+78L106.636-2.20005e+78L106.764-2.20005e+78L105.356-2.20005e+78L104.076-2.20005e+78L100.62-2.20005e+78L105.1-2.20005e+78L113.036-2.20005e+78L114.444-2.20005e+78L113.548-2.20005e+78L114.7-2.20005e+78L116.108-2.20005e+78L118.668-2.20005e+78L119.82-2.20005e+78L128.396-2.20005e+78L130.956-2.20005e+78L131.084-2.20005e+78L132.876-2.20005e+78L133.132-2.20005e+78ZM121.356-2.20005e+78L120.716-2.20005e+78L121.996-2.20005e+78L124.556-2.20005e+78L126.476-2.20005e+78L126.988-2.20005e+78L127.5-2.20005e+78L130.06-2.20005e+78L126.476-2.20005e+78L118.156-2.20005e+78L118.284-2.20005e+78L119.82-2.20005e+78L119.692-2.20005e+78L121.356-2.20005e+78Z" fill-rule="evenodd"/>
<path clip-path="url(#TextBounds)" d="M173.068-2.20005e+78L178.188-2.20005e+78L179.34-2.20005e+78L184.076-2.20005e+78L185.612-2.20005e+78L185.484-2.20005e+78L189.964-2.20005e+78L193.036-2.20005e+78L203.404-2.20005e+78L203.532-2.20005e+78L199.308-2.20005e+78L197.004-2.20005e+78L197.004-2.20005e+78L195.212-2.20005e+78L194.444-2.20005e+78L194.444-2.20005e+78L189.324-2.20005e+78C188.428-2.20005e+78 187.66-2.20005e+78 186.636-2.20005e+78L186.636-2.20005e+78C185.868-2.20005e+78 184.332-2.20005e+78 183.436-2.20005e+78L187.02-2.20005e+78L189.196-2.20005e+78L193.292-2.20005e+78L199.18-2.20005e+78L200.076-2.20005e+78L193.932-2.20005e+78C193.804-2.20005e+78 191.756-2.20005e+78 191.628-2.20005e+78L190.86-2.20005e+78L170.508-2.20005e+78L160.396-2.20005e+78L160.908-2.20005e+78L161.548-2.20005e+78L160.524-2.20005e+78L160.78-2.20005e+78L161.292-2.20005e+78L161.292-2.20005e+78L162.444-2.20005e+78L160.524-2.20005e+78L159.756-2.20005e+78L168.204-2.20005e+78L173.324-2.20005e+78L173.196-2.20005e+78L172.812-2.20005e+78L172.428-2.20005e+78L172.3-2.20005e+78L173.068-2.20005e+78ZM172.556-2.20005e+78L172.044-2.20005e+78L171.788-2.20005e+78L171.532-2.20005e+78L171.02-2.20005e+78L172.044-2.20005e+78L172.044-2.20005e+78L172.3-2.20005e+78L184.076-2.20005e+78L184.972-2.20005e+78L187.532-2.20005e+78L186.124-2.20005e+78C184.46-2.20005e+78 181.388-2.20005e+78 179.596-2.20005e+78L173.196-2.20005e+78L172.3-2.20005e+78L172.556-2.20005e+78Z" fill-rule="evenodd"/>
<path clip-path="url(#TextBounds)" d="M255.244-2.20005e+78L255.244-2.20005e+78L254.348-2.20005e+78L252.94-2.20005e+78L253.964-2.20005e+78L255.244-2.20005e+78L255.5-2.20005e+78L250.252-2.20005e+78L242.828-2.20005e+78L242.828-2.20005e+78L244.108-2.20005e+78L242.828-2.20005e+78L242.828-2.20005e+78L238.604-2.20005e+78L237.58-2.20005e+78L234.38-2.20005e+78L222.86-2.20005e+78L212.748-2.20005e+78L212.748-2.20005e+78L213.26-2.20005e+78L213.772-2.20005e+78L213.26-2.20005e+78L214.412-2.20005e+78L213.388-2.20005e+78L212.62-2.20005e+78L212.62-2.20005e+78L213.004-2.20005e+78L212.108-2.20005e+78L217.612-2.20005e+78L225.164-2.20005e+78L225.42-2.20005e+78L225.036-2.20005e+78L225.164-2.20005e+78L224.012-2.20005e+78L224.652-2.20005e+78L224.908-2.20005e+78L223.372-2.20005e+78L223.244-2.20005e+78L225.036-2.20005e+78L225.036-2.20005e+78L228.364-2.20005e+78L233.612-2.20005e+78L237.324-2.20005e+78L239.116-2.20005e+78L240.908-2.20005e+78L242.956-2.20005e+78L243.084-2.20005e+78L243.468-2.20005e+78L243.084-2.20005e+78L242.956-2.20005e+78L243.084-2.20005e+78L242.956-2.20005e+78L247.308-2.20005e+78L254.348-2.20005e+78L256.012-2.20005e+78L255.244-2.20005e+78Z" fill-rule="evenodd"/>
<path clip-path="url(#TextBounds)" d="M274.444-2.20005e+78L274.06-2.20005e+78L273.676-2.20005e+78L273.676-2.20005e+78L273.676-2.20005e+78L275.212-2.20005e+78L273.676-2.20005e+78L271.884-2.20005e+78L277.772-2.20005e+78L280.46-2.20005e+78L286.092-2.20005e+78L286.22-2.20005e+78L285.964-2.20005e+78L285.708-2.20005e+78L285.708-2.20005e+78L284.3-2.20005e+78L285.452-2.20005e+78L285.196-2.20005e+78L284.684-2.20005e+78L285.068-2.20005e+78L285.452-2.20005e+78L286.092-2.20005e+78L286.732-2.20005e+78L278.412-2.20005e+78L272.396-2.20005e+78L273.036-2.20005e+78L274.188-2.20005e+78L273.164-2.20005e+78L273.548-2.20005e+78L274.444-2.20005e+78Z" fill-rule="evenodd"/>
</g>
<path d="M14.256 201.81L15.664 210.898L15.408 221.138L16.048 237.266L17.2 244.178L16.432 271.826L16.432 272.594L16.176 274.642L17.712 276.434L15.536 281.554L15.664 282.066L15.28 282.194L15.152 295.506L21.936 295.634L28.72 295.378L28.848 288.85L28.336 286.418L28.208 285.01L28.08 278.738L27.568 272.594L27.568 251.602L32.688 262.226L32.56 262.482L36.912 269.522L36.272 271.186L43.056 286.418L46.768 295.89L49.968 296.018L59.184 290.898L55.472 282.578L53.68 282.194L54.32 280.402L49.968 273.106L45.488 263.25L37.936 245.97L37.296 244.946L46.512 227.41L46.128 227.026L46.512 226.386L54.32 213.458L58.032 206.674L54.064 203.602L46.256 200.53L42.288 209.874L42.8 213.074L39.216 216.658L37.04 222.162L31.92 234.45L29.744 237.906L27.824 242.898L27.44 243.922L27.44 240.082L27.184 233.938L28.464 202.194L23.6 200.53L14.256 201.81ZM75.44 239.826L74.8 246.866L74.928 254.802L75.056 256.594L75.056 261.586L74.544 275.538L74.8 276.69L72.88 279.378L67.248 283.09L61.616 285.394L61.616 292.05L68.656 297.298L78.128 289.618L78 287.058L81.456 286.546L85.552 282.962L87.6 279.378L86.064 257.362L85.04 253.522L86.448 252.498L85.936 216.786L87.472 205.522L85.808 201.042L73.648 201.298L73.648 208.466L75.952 209.746L74.288 211.794L74.672 233.426L75.44 239.826ZM131.632 269.01L132.656 273.234L133.808 274.002L132.784 275.282L133.296 278.866L134.96 294.994L137.136 296.146L138.8 296.146L148.272 293.074L146.864 287.57L144.944 285.522L145.712 284.498L144.432 276.434L141.232 264.53L141.232 262.738L135.088 231.89L133.552 230.738L134.448 228.434L130.352 208.85L129.84 207.57L129.456 206.546L129.584 202.066L127.408 201.042L116.912 201.554L115.632 209.618L114.48 214.994L113.584 220.114L114.992 222.034L112.688 224.722L108.848 241.874L108.848 244.178L108.08 246.866L107.696 249.298L105.136 265.042L105.264 267.602L103.856 269.01L102.576 277.074L99.12 292.69L103.6 295.506L111.536 296.274L112.944 287.698L112.048 284.114L113.2 282.706L114.608 273.618L117.168 272.594L118.32 272.082L126.896 270.034L129.456 268.242L129.584 268.242L131.376 267.986L131.632 269.01ZM119.856 239.698L119.216 237.65L120.496 237.01L123.056 221.394L124.976 234.962L125.488 237.266L126 243.922L128.56 257.746L124.976 258.642L116.656 261.202L116.784 260.306L118.32 251.986L118.192 252.114L119.856 239.698ZM171.568 255.826L176.688 266.194L177.84 269.138L182.576 278.098L184.112 278.866L183.984 281.042L188.464 291.282L191.536 296.274L201.904 290.514L202.032 286.802L197.808 282.322L195.504 277.458L195.504 277.586L193.712 273.874L192.944 273.49L192.944 271.826L187.824 263.122C186.928 261.842 186.16 261.202 185.136 260.05L185.136 257.874C184.368 256.338 182.832 254.162 181.936 252.37L185.52 247.506L187.696 244.818L191.792 239.954L197.68 232.786L198.576 225.106L192.432 219.474C192.304 219.474 190.256 220.114 190.128 219.986L189.36 216.786L169.008 199.122L158.896 203.218L159.408 214.226L160.048 238.674L159.024 241.234L159.28 247.89L159.792 262.866L159.792 267.858L160.944 269.522L159.024 274.514L158.256 294.866L166.704 295.634L171.824 293.586L171.696 282.962L171.312 281.81L170.928 269.01L170.8 255.058L171.568 255.826ZM171.056 243.794L170.544 232.402L170.288 230.994L170.032 230.226L169.52 227.922L170.544 225.49L170.544 224.21L170.8 214.354L182.576 226.002L183.472 226.642L186.032 229.842L184.624 231.634C182.96 233.938 179.888 237.906 178.096 240.082L171.696 248.018L170.8 248.53L171.056 243.794ZM253.744 283.986L253.744 279.89L252.848 251.858L251.44 247.634L252.464 242.258L253.744 210.77L254 202.066L248.752 201.17L241.328 201.298L241.328 211.538L242.608 213.33L241.328 217.298L241.328 228.306L237.104 221.394L236.08 220.882L232.88 215.762L221.36 199.89L211.248 202.706L211.248 209.362L211.76 222.674L212.272 229.97L211.76 256.594L212.912 259.154L211.888 262.866L211.12 281.042L211.12 283.218L211.504 284.37L210.608 294.61L216.112 295.634L223.664 295.378L223.92 287.186L223.536 285.394L223.664 272.082L222.512 267.218L223.152 262.61L223.408 233.426L221.872 231.762L221.744 231.506L223.536 226.898L223.536 219.986L226.864 224.594L232.112 231.89L235.824 236.37L237.616 239.186L239.408 241.106L241.456 244.562L241.584 257.874L241.968 260.306L241.584 260.946L241.456 273.234L241.584 285.394L241.456 295.378L245.808 295.634L252.848 295.506L254.512 291.154L253.744 283.986ZM272.944 239.57L272.56 246.61L272.176 250.578L272.176 274.514L272.176 279.122L273.712 281.298L272.176 283.858L270.384 295.25L276.272 295.378L278.96 295.506L284.592 293.714L284.72 288.978L284.464 286.546L284.208 284.626L284.208 249.17L282.8 248.274L283.952 245.586L283.696 242.386L283.184 237.394L283.568 230.866L283.952 214.098L284.592 210.898L285.232 201.554L276.912 201.042L270.896 201.426L271.536 207.826L272.688 208.466L271.664 210.77L272.048 236.37L272.944 239.57Z" fill="#000000" fill-opacity="0" fill-rule="evenodd" opacity="1" stroke="#000000" stroke-linecap="butt" stroke-linejoin="miter" stroke-width="4"/>
</g>
</svg>
