<?xml version="1.0" encoding="UTF-8" standalone="no"?>
<!-- Created with Vectornator (http://vectornator.io/) -->

<svg
   height="100%"
   stroke-miterlimit="10"
   style="fill-rule:nonzero;clip-rule:evenodd;stroke-linecap:round;stroke-linejoin:round;"
   version="1.1"
   viewBox="0 0 512 512"
   width="100%"
   xml:space="preserve"
   id="svg108"
   sodipodi:docname="logo-faun-dm.svg"
   inkscape:version="1.1.2 (0a00cf5339, 2022-02-04)"
   xmlns:inkscape="http://www.inkscape.org/namespaces/inkscape"
   xmlns:sodipodi="http://sodipodi.sourceforge.net/DTD/sodipodi-0.dtd"
   xmlns="http://www.w3.org/2000/svg"
   xmlns:svg="http://www.w3.org/2000/svg"
   xmlns:vectornator="http://vectornator.io"><sodipodi:namedview
   id="namedview110"
   pagecolor="#ffffff"
   bordercolor="#666666"
   borderopacity="1.0"
   inkscape:pageshadow="2"
   inkscape:pageopacity="0.0"
   inkscape:pagecheckerboard="0"
   showgrid="false"
   inkscape:zoom="1.0432543"
   inkscape:cx="244.90673"
   inkscape:cy="133.7162"
   inkscape:window-width="1920"
   inkscape:window-height="1016"
   inkscape:window-x="0"
   inkscape:window-y="27"
   inkscape:window-maximized="1"
   inkscape:current-layer="Layer-1" />
<defs
   id="defs5">
<clipPath
   id="TextBounds">
<rect
   height="148.157"
   width="54.306"
   x="313.631"
   y="370.274"
   id="rect2" />
</clipPath>
</defs>
<g
   id="Layer-1"
   vectornator:layerName="Layer 1">
<path
   d="M427.994 186.915C428.777 187.905 429.263 189.166 429.328 190.529C429.166 193.919 426.392 196.597 423.171 196.539C423.123 196.539 423.078 196.552 423.034 196.548C417.822 196.373 412.983 198.276 409.41 201.191C407.601 202.652 406.206 204.392 405.062 206.318C403.788 208.232 402.92 210.346 402.568 212.646C402.04 215.769 402.714 218.961 403.951 221.99C407.467 219.804 411.474 218.304 415.984 218.104C415.412 217.014 415.165 215.808 415.356 214.555C415.838 211.401 418.892 209.133 422.19 209.485C422.202 209.485 422.214 209.485 422.222 209.485C427.398 210.075 432.455 208.444 435.964 204.992C439.569 201.568 441.966 196.35 442.226 190.529C442.048 186.554 440.888 182.753 438.864 179.554C436.098 183.249 432.354 185.823 427.994 186.915"
   fill="#0f5d77"
   fill-rule="nonzero"
   opacity="1"
   stroke="none"
   id="path7"
   style="fill:#00905d;fill-opacity:1" />
<path
   d="M425.52 161.319C426.392 162.19 427.004 163.378 427.207 164.73C427.726 168.12 425.471 171.203 422.19 171.572C417.031 172.168 412.683 174.739 409.329 178.171C406.064 181.618 404.149 185.885 404.417 190.529C404.235 193.704 405.05 196.746 406.798 199.574C409.888 196.876 413.896 194.808 418.325 193.943C417.643 192.946 417.278 191.795 417.343 190.529C417.177 187.336 419.72 184.648 423.034 184.51C423.078 184.505 423.123 184.494 423.171 184.49C428.31 184.279 432.873 181.947 436.069 178.025C437.655 176.057 438.993 173.692 439.703 171.102C440.656 167.634 440.336 163.792 439.452 160.377C439.192 159.376 438.872 158.386 438.478 157.424C438.089 156.483 437.631 155.568 437.095 154.699C436.945 154.46 435.335 152.456 435.371 152.391C433.254 156.439 429.665 159.595 425.52 161.319"
   fill="#000000"
   fill-rule="nonzero"
   opacity="1"
   stroke="none"
   id="path9"
   style="fill:#cccccc" />
<path
   d="M419.347 136.359C420.369 137.08 421.269 138.123 421.65 139.433C422.502 142.719 420.657 146.085 417.562 146.981C417.513 146.996 417.473 147.022 417.424 147.033C412.391 148.4 408.335 151.634 405.788 155.461C403.423 159.275 401.894 163.82 402.568 168.412C402.953 171.56 404.697 174.391 406.583 176.95C409.491 173.806 412.723 171.219 417.015 169.706C416.143 168.83 415.546 167.756 415.356 166.503C414.873 163.342 417.116 160.284 420.373 159.655C420.393 159.652 420.409 159.644 420.43 159.639C425.451 158.698 429.993 155.628 432.297 151.309C434.727 146.981 435.461 141.282 433.976 135.632C432.711 131.857 430.415 128.584 427.552 126.114C426.006 130.466 423.192 134.03 419.347 136.359"
   fill="#0f5d77"
   fill-rule="nonzero"
   opacity="1"
   stroke="none"
   id="path11"
   style="fill:#00905d;fill-opacity:1" />
<path
   d="M409.406 112.633C410.497 113.208 411.43 114.161 412.022 115.389C413.51 118.485 412.265 122.094 409.239 123.425C404.458 125.534 401.124 129.257 398.929 133.523C397.842 135.64 397.161 138.018 396.991 140.387C396.8 143.039 397.222 145.262 398.114 147.727C398.597 149.05 399.152 150.303 399.943 151.475C400.154 151.788 402.754 154.767 402.811 154.683C404.961 151.211 408.177 148.059 412.148 145.93C411.202 145.181 410.509 144.191 410.197 142.961C409.179 139.94 410.752 136.638 413.896 135.523C413.932 135.512 413.965 135.486 414.005 135.47C418.864 133.755 422.539 130.174 424.429 125.477C425.349 123.128 425.962 120.456 425.82 117.787C425.621 115.147 424.903 112.412 423.638 109.789C421.829 106.235 419.533 103.101 416.114 101.211C415.429 105.636 412.825 109.773 409.406 112.633"
   fill="#000000"
   fill-rule="nonzero"
   opacity="1"
   stroke="none"
   id="path13"
   style="fill:#cccccc" />
<path
   d="M399.193 92.8997L399.193 92.8997C401.099 95.7153 400.215 99.5712 397.526 101.316C397.498 101.336 397.473 101.365 397.441 101.385C393.036 104.18 390.112 108.478 388.794 112.9C388.112 115.131 387.946 117.349 388.064 119.596C388.096 121.888 388.571 124.122 389.581 126.215C390.883 129.103 393.328 131.316 395.944 133.175C397.737 129.342 400.11 125.887 403.752 123.173C402.661 122.593 401.777 121.741 401.225 120.597C399.838 117.721 401.083 114.133 404.007 112.563C404.015 112.558 404.024 112.55 404.036 112.547C408.631 110.121 411.908 105.923 412.87 101.084C413.896 96.2426 413.036 90.5027 409.844 85.628C407.471 82.4243 404.389 79.9259 400.933 78.4082C400.714 83.0359 399.063 87.2865 396.074 90.6532C397.271 91.0353 398.378 91.81 399.193 92.8997"
   fill="#0f5d77"
   fill-rule="nonzero"
   opacity="1"
   stroke="none"
   id="path15"
   style="fill:#00905d;fill-opacity:1" />
<path
   d="M382.925 72.7584C385.225 75.2856 385.083 79.0973 382.637 81.2392C382.621 81.255 382.608 81.2757 382.588 81.2964C378.589 84.7597 376.59 89.2288 375.795 93.9218C375.024 98.627 375.819 103.25 378.622 106.955C380.386 109.586 382.669 111.707 385.728 113.033C386.766 109.066 388.919 105.096 392.087 101.885C390.939 101.466 390.088 100.655 389.297 99.6617C387.378 97.1061 387.979 93.44 390.635 91.4518C390.676 91.4234 390.704 91.3837 390.745 91.3504C394.865 88.2769 397.327 83.7708 397.769 78.7168C398.382 73.5124 396.269 68.3253 392.379 63.9811C389.71 61.0219 386.449 58.8594 382.629 58.0526C383.253 62.5015 382.162 67.0311 379.644 70.8651C380.844 71.1044 382.008 71.7493 382.925 72.7584"
   fill="#000000"
   fill-rule="nonzero"
   opacity="1"
   stroke="none"
   id="path17"
   style="fill:#cccccc" />
<path
   d="M364.896 63.6327C361.506 67.5997 359.952 72.584 359.969 77.2279C359.981 79.5519 360.399 81.7985 361.238 83.8471C362.082 85.8925 363.067 88.0169 364.665 89.7074C366.791 92.0651 369.585 93.6351 372.846 94.4572C373.211 90.4427 374.651 86.2806 377.287 82.6555C376.083 82.4117 374.996 81.8475 374.14 80.9114C371.998 78.5461 372.148 74.7388 374.472 72.3812C374.476 72.3783 374.476 72.3783 374.481 72.3735C378.2 68.6786 379.907 63.8878 379.502 58.8752C379.299 56.3764 378.573 53.8414 377.344 51.4367C376.103 49.0442 374.448 46.6885 372.055 45.0171C368.875 42.6197 365.217 41.1069 361.485 40.6412C362.617 45.1578 362.268 49.7304 360.39 53.8305C361.64 53.8544 362.917 54.2803 364.008 55.0947C366.823 57.0545 367.001 61.1468 364.933 63.5804C364.917 63.5962 364.909 63.6169 364.896 63.6327"
   fill="#0f5d77"
   fill-rule="nonzero"
   opacity="1"
   stroke="none"
   id="path19"
   style="fill:#00905d;fill-opacity:1" />
<path
   d="M338.927 39.6541C340.139 39.5369 341.433 39.8252 342.601 40.5301C345.509 42.2952 346.479 45.982 344.804 48.74C344.783 48.7765 344.775 48.813 344.751 48.8495C341.989 53.2744 341.243 58.3568 342.025 62.8215C342.65 67.5665 344.731 71.8016 348.462 74.5628C351.119 76.3328 353.751 77.9012 357.089 78.2419C356.939 74.1179 357.847 69.6723 359.94 65.6606C358.784 65.5195 357.527 65.2473 356.529 64.4613C353.97 62.5538 353.487 58.8464 355.442 56.1707C355.475 56.1261 355.491 56.077 355.523 56.0328C358.557 51.8833 359.599 46.8374 358.565 41.8483C357.547 36.8198 354.01 32.4468 349.058 29.3688C347.339 28.3674 345.599 27.4832 343.704 27.0651C341.802 26.6644 339.872 26.5139 337.961 26.623C339.795 30.8342 340.241 35.1942 338.927 39.6541"
   fill="#000000"
   fill-rule="nonzero"
   opacity="1"
   stroke="none"
   id="path21"
   style="fill:#cccccc" />
<path
   d="M314.932 40.3922C314.23 40.1501 313.375 39.8301 312.876 39.3515C312.296 38.7987 311.898 38.0731 311.622 37.3313C311.103 35.9308 310.937 34.2245 311.436 32.7924C311.452 32.7481 311.452 32.7035 311.468 32.6626C313.151 27.8 312.661 22.6401 310.199 18.1422C307.668 13.8519 303.052 10.5265 297.398 9.07047C293.562 7.93765 289.55 8.48115 285.977 9.77537C288.982 13.2277 290.678 17.385 290.775 21.8748C291.899 21.4076 293.221 21.3062 294.539 21.6469C297.824 22.4864 299.832 25.7104 299.074 28.833C299.061 28.887 299.065 28.9393 299.049 28.9884C297.723 34.0331 298.51 39.1231 300.574 43.1762C302.639 47.3046 305.802 50.9549 310.179 52.4758C313.212 53.433 316.291 53.8909 319.515 53.3884C318.161 49.4944 317.771 44.8537 318.538 40.535C318.432 41.1227 315.589 40.6238 315.248 40.5066C315.147 40.4701 315.042 40.4336 314.932 40.3922"
   fill="#000000"
   fill-rule="nonzero"
   opacity="1"
   stroke="none"
   id="path23"
   style="fill:#cccccc" />
<path
   d="M315.463 29.1181C316.664 28.7779 318.006 28.8172 319.288 29.2877C320.894 29.8758 322.107 31.0447 322.736 32.431C323.324 33.9028 323.344 35.5666 322.691 37.0924C320.618 41.8767 320.594 47.1209 321.961 51.5823C323.295 56.1549 326.268 59.4836 330.125 62.0959C332.831 63.7548 335.925 64.4852 339.292 64.3108C338.46 60.3673 338.643 55.9233 340.099 51.6805C338.882 51.7977 337.682 51.5665 336.599 50.9058C335.228 50.0711 334.315 48.7323 333.926 47.2272C333.508 45.7792 333.597 44.193 334.384 42.7008C336.826 38.1173 337.073 33.0033 335.22 28.3151C332.835 22.2788 327.809 18.1057 321.596 16.5373C320.586 16.2806 319.56 16.0936 318.522 15.9764C317.503 15.8673 316.477 15.8226 315.455 15.8543C315.175 15.864 312.681 16.2234 312.628 16.1394C315.037 20.1462 316.047 24.6364 315.463 29.1181"
   fill="#0f5d77"
   fill-rule="nonzero"
   opacity="1"
   stroke="none"
   id="path25"
   style="fill:#00905d;fill-opacity:1" />
<path
   d="M268.938 17.8538C272.146 18.0582 274.896 20.7704 274.503 24.2669C273.943 29.4544 275.472 34.4747 278.096 38.3452C279.419 40.2799 281.025 41.9306 282.866 43.1713C283.791 43.7955 284.768 44.315 285.807 44.7206C288.297 45.6981 290.937 46.5583 293.622 46.2497C294.004 46.2051 298.433 45.4511 298.404 45.3972C296.453 41.8609 295.314 37.5454 295.448 33.0552C294.32 33.5228 293.111 33.6477 291.882 33.331C288.816 32.4281 286.731 29.4795 287.332 26.1809C288.293 21.0876 287.015 16.1317 283.86 12.1963C280.717 8.35094 275.732 5.06692 269.891 4.9858C265.917 4.7753 262.047 5.55808 258.709 7.25627C262.185 10.3756 264.477 14.3621 265.239 18.8155C265.199 18.5685 266.935 18.0582 267.142 18.0092C267.746 17.8664 268.35 17.8189 268.938 17.8538"
   fill="#0f5d77"
   fill-rule="nonzero"
   opacity="1"
   stroke="none"
   id="path27"
   style="fill:#00905d;fill-opacity:1" />
<path
   d="M239.529 19.1845C240.466 18.4066 241.699 17.9155 243.058 17.8457C246.444 17.6717 249.312 20.162 249.502 23.3706C249.502 23.4225 249.519 23.4688 249.523 23.5211C249.734 28.7316 251.985 33.3565 255.152 36.6122C256.815 38.3201 258.624 39.8487 260.754 40.9564C261.836 41.5173 262.976 41.9671 264.16 42.2664C266.837 42.9446 269.064 42.6801 271.802 42.2462C273.331 42.0036 274.831 41.5173 276.296 40.7869C273.85 37.4566 272.106 33.1282 271.554 28.8172C270.504 29.4953 269.324 29.8644 268.054 29.7995C264.862 29.6409 262.372 26.8339 262.477 23.5211C262.481 23.4688 262.465 23.4197 262.469 23.3706C262.635 18.2326 260.648 13.454 256.982 9.89258C253.303 6.45768 247.925 4.71812 242.105 4.9858C240.121 5.11601 238.191 5.37881 236.39 6.07603C234.593 6.82229 232.914 7.7888 231.393 8.95607C235.278 11.3851 238.105 14.7519 239.529 19.1845"
   fill="#000000"
   fill-rule="nonzero"
   opacity="1"
   stroke="none"
   id="path29"
   style="fill:#cccccc" />
<path
   d="M214.208 23.6716C215.007 22.7127 216.139 21.9843 217.457 21.6469C220.758 20.6897 224.044 22.965 224.66 26.1809C224.664 26.1967 224.668 26.2097 224.672 26.2255C225.658 31.3489 228.586 35.6886 232.224 38.6003C235.903 41.609 240.231 42.6878 244.899 42.6927C248.075 42.5422 251.048 41.4111 253.733 39.3782C250.821 36.5854 248.464 32.8005 247.272 28.4765C246.331 29.2561 245.211 29.7379 243.946 29.7995C240.746 29.8932 237.874 27.4865 237.497 24.2702C237.497 24.2625 237.493 24.2544 237.493 24.2511C236.929 19.088 234.252 14.7231 230.083 11.8998C228.002 10.4851 225.561 9.45536 222.912 8.89931C221.586 8.61864 220.211 8.45721 218.803 8.42558C217.416 8.46979 216.013 8.72004 214.602 9.07047C210.732 10.0512 207.26 11.9538 204.567 14.5694C208.81 16.5166 212.168 19.6425 214.208 23.6716"
   fill="#0f5d77"
   fill-rule="nonzero"
   opacity="1"
   stroke="none"
   id="path31"
   style="fill:#00905d;fill-opacity:1" />
<path
   d="M189.735 31.6121C190.4 30.59 191.43 29.7553 192.712 29.2877C195.9 28.1155 199.384 29.6491 200.507 32.6703C200.524 32.7149 200.548 32.7481 200.564 32.7924C202.304 37.7084 205.817 41.4634 209.795 43.6369C213.876 46.0388 218.499 47.1306 222.981 45.9374C226.019 44.9883 228.854 43.7716 231.219 41.4711C227.905 38.9934 224.989 35.481 223.168 31.3521C222.365 32.3093 221.342 33.0158 220.114 33.331C217.023 34.1312 213.823 32.1889 212.951 28.9884C212.935 28.9393 212.906 28.8951 212.894 28.8428C211.539 23.8853 208.242 19.915 203.687 17.6036C199.136 15.3282 193.495 15.3157 187.999 17.2836C184.203 18.5397 181.136 21.1159 178.934 24.2625C183.375 25.4427 187.074 27.8321 189.735 31.6121"
   fill="#000000"
   fill-rule="nonzero"
   opacity="1"
   stroke="none"
   id="path33"
   style="fill:#cccccc" />
<path
   d="M169.399 40.5301C170.863 39.6459 172.53 39.4245 174.01 39.8013C175.511 40.2227 176.841 41.2683 177.608 42.7053C177.612 42.7085 177.62 42.7166 177.62 42.7211C180.082 47.3204 184.17 50.6065 188.51 52.3177C192.927 54.1379 197.372 53.8463 201.821 52.4758C204.799 51.397 207.301 49.4372 209.26 46.6995C205.658 44.8902 202.292 41.9752 199.879 38.1948C199.21 39.2168 198.285 40.0073 197.092 40.4413C195.584 40.9929 193.969 40.8676 192.55 40.2357C191.171 39.6922 189.97 38.6133 189.309 37.0924C189.305 37.0843 189.301 37.0749 189.297 37.0668C187.228 32.3093 183.375 28.9312 178.553 27.4597C173.795 26.0686 167.829 26.1574 162.942 29.3688C159.531 31.43 156.765 34.2561 154.96 37.5341C159.596 38.1538 163.741 40.1611 166.884 43.4106C167.363 42.2664 168.235 41.2399 169.399 40.5301"
   fill="#0f5d77"
   fill-rule="nonzero"
   opacity="1"
   stroke="none"
   id="path35"
   style="fill:#00905d;fill-opacity:1" />
<path
   d="M147.992 55.0947C150.701 53.0668 154.477 53.5137 156.448 56.0487C156.481 56.0928 156.525 56.1261 156.558 56.1707C159.673 60.3515 164.15 62.9152 168.616 63.8404C173.098 64.7371 177.957 64.5818 181.875 62.0959C183.242 61.2973 184.397 60.182 185.513 59.0982C186.636 58.0352 187.602 56.7819 188.401 55.3547C184.511 53.9923 180.625 51.3844 177.738 48.1316C177.255 49.2786 176.484 50.2484 175.401 50.9058C172.672 52.5695 169.03 51.6472 167.249 48.8495C167.225 48.813 167.196 48.7891 167.172 48.753C164.414 44.4006 160.07 41.5648 155.017 40.6855C152.06 40.1659 148.795 40.7426 146.008 41.7359C143.177 42.745 140.269 44.4246 138.124 46.5251C137.353 47.2795 136.672 48.119 136.067 49.0077C135.463 49.8918 134.94 50.8283 134.474 51.79C134.352 52.0451 133.512 54.3947 133.387 54.3979C137.974 54.2186 142.301 55.5133 145.862 58.2303C146.11 56.9531 146.921 55.9391 147.992 55.0947"
   fill="#000000"
   fill-rule="nonzero"
   opacity="1"
   stroke="none"
   id="path37"
   style="fill:#cccccc" />
<path
   d="M127.485 76.2217C127.619 74.994 128.159 73.7646 129.075 72.7584C131.391 70.2125 135.208 70.0381 137.52 72.3735L137.524 72.3783L137.524 72.3783C141.198 76.0189 146.102 77.9912 150.774 78.3684C153.118 78.5538 155.422 78.3352 157.556 77.6826C159.701 77.0454 161.599 75.87 163.534 74.5628C166.085 72.6728 167.918 70.0855 168.997 66.9139C165.002 66.2292 160.914 64.4199 157.487 61.5159C157.142 62.6804 156.485 63.7025 155.467 64.4613C152.83 66.2771 149.326 66.1883 147.104 63.6327C147.091 63.6169 147.071 63.6043 147.059 63.5885C143.68 59.6673 139.004 57.5647 133.95 57.5538C131.419 57.5412 128.807 58.0482 126.285 59.0589C123.766 60.0729 121.616 61.8647 119.621 63.9811C116.948 66.9346 115.082 70.3979 114.332 74.0688C118.935 73.2986 123.527 74.0368 127.485 76.2217"
   fill="#0f5d77"
   fill-rule="nonzero"
   opacity="1"
   stroke="none"
   id="path39"
   style="fill:#00905d;fill-opacity:1" />
<path
   d="M111.809 96.5991C111.611 96.5216 111.931 94.8421 111.98 94.6491C112.065 94.3067 112.166 93.9186 112.353 93.6144C114.121 90.7421 118.108 89.1688 121.235 91.3756C121.276 91.4076 121.324 91.4234 121.365 91.4518C125.571 94.5379 130.62 95.6898 135.191 95.2842C139.633 94.7375 144.252 93.1804 147.335 89.7074C149.448 87.3388 150.75 84.3824 151.549 81.2882C147.319 81.0205 143.072 79.9052 139.308 77.5938C139.174 78.8312 138.712 79.9701 137.856 80.9114C135.711 83.2752 131.935 83.4464 129.351 81.2473C125.49 77.9219 120.278 76.3121 115.411 77.1468C110.524 77.9551 105.628 80.9398 102.156 85.628C99.9336 88.9246 98.8547 92.7951 98.6965 96.5626C103.057 95.0623 107.595 95.0416 111.809 96.5991"
   fill="#000000"
   fill-rule="nonzero"
   opacity="1"
   stroke="none"
   id="path41"
   style="fill:#cccccc" />
<path
   d="M99.451 119.158C99.2238 117.945 99.3861 116.619 99.9782 115.389C101.471 112.3 105.072 111.026 107.96 112.55C107.972 112.558 107.98 112.558 107.993 112.563C112.604 114.983 117.625 115.297 122.322 114.347C126.986 113.358 130.86 110.847 133.378 106.955C135.297 104.42 136.315 101.433 136.445 98.0998C132.397 98.5986 127.935 98.0503 123.798 96.2746C123.807 97.4833 123.466 98.6477 122.703 99.6617C120.915 102.301 117.402 103.157 114.559 101.385C114.527 101.365 114.49 101.357 114.458 101.336C110.09 98.5986 104.999 97.957 100.149 99.4049C97.7312 100.144 95.2856 101.341 93.2576 103.097C91.3149 104.898 89.6276 107.165 88.3622 109.789C86.7033 113.411 85.7056 117.17 86.3261 121.012C90.24 118.805 95.0787 118.257 99.451 119.158"
   fill="#0f5d77"
   fill-rule="nonzero"
   opacity="1"
   stroke="none"
   id="path43"
   style="fill:#00905d;fill-opacity:1" />
<path
   d="M90.5483 143.278C90.0981 142.103 90.0048 140.751 90.3496 139.433C91.4284 136.209 94.9368 134.485 97.9868 135.494C98.0233 135.507 98.0639 135.512 98.1044 135.523C103.036 137.226 108.216 136.841 112.491 135.117C114.665 134.262 116.474 133 118.189 131.529C119.962 130.076 121.41 128.313 122.419 126.215C123.871 123.399 124.058 120.095 123.908 116.907C119.767 117.88 115.61 118.181 111.213 117.016C111.44 118.233 111.323 119.458 110.775 120.597C109.388 123.472 105.807 124.738 102.761 123.425C102.748 123.42 102.736 123.42 102.724 123.412C97.9828 121.332 92.6249 121.369 88.2526 123.631C83.8115 125.846 79.9138 130.117 78.0237 135.632C77.0097 139.49 76.9895 143.468 77.9669 147.123C81.7105 144.401 86.0544 143.039 90.5483 143.278"
   fill="#000000"
   fill-rule="nonzero"
   opacity="1"
   stroke="none"
   id="path45"
   style="fill:#cccccc" />
<path
   d="M85.3892 168.477C84.8173 167.39 84.5862 166.076 84.789 164.73C85.3081 161.342 88.3662 159.063 91.5704 159.652C91.5866 159.655 91.6069 159.652 91.6272 159.655C96.8268 160.617 101.536 159.384 105.786 157.1C109.931 154.767 113.03 151.268 114.158 146.77L114.158 146.767C115.184 143.772 115.362 140.65 114.506 137.433C110.763 139.087 106.322 139.88 101.832 139.401C102.209 140.556 102.156 141.744 101.803 142.961C101.012 146.057 97.78 147.872 94.5758 147.033C94.5271 147.022 94.4785 147.025 94.4298 147.009C89.4573 145.704 84.4036 146.592 80.1855 149.406C75.7606 152.18 72.8849 157.044 72.0332 162.819C71.5302 166.769 71.6235 170.65 73.4203 174.134C76.4419 170.87 80.9602 168.915 85.3892 168.477"
   fill="#0f5d77"
   fill-rule="nonzero"
   opacity="1"
   stroke="none"
   id="path47"
   style="fill:#00905d;fill-opacity:1" />
<path
   d="M84.0021 194.142C83.2234 193.152 82.7367 191.891 82.6677 190.529C82.834 187.138 85.6042 184.461 88.8286 184.518C88.8773 184.518 88.9178 184.505 88.9665 184.51C94.1783 184.684 99.017 182.782 102.59 179.866C104.395 178.406 105.794 176.666 106.938 174.739C108.212 172.826 109.08 170.712 109.428 168.412C109.96 165.289 109.287 162.097 108.049 159.067C104.529 161.254 100.526 162.754 96.0156 162.954C96.5875 164.044 96.8349 165.248 96.6443 166.503C96.1616 169.657 93.1035 171.924 89.8061 171.572C89.798 171.572 89.7858 171.572 89.7777 171.572C84.6023 170.983 79.5447 172.613 76.0363 176.066C72.4266 179.489 70.0336 184.708 69.77 190.529C69.9525 194.504 71.1125 198.305 73.1364 201.503C75.9025 197.809 79.6461 195.234 84.0021 194.142"
   fill="#000000"
   fill-rule="nonzero"
   opacity="1"
   stroke="none"
   id="path49"
   style="fill:#cccccc" />
<path
   d="M86.4802 219.739C85.6083 218.867 84.9958 217.679 84.789 216.328C84.2738 212.937 86.5289 209.854 89.7777 209.49C89.7858 209.49 89.798 209.485 89.8061 209.485C94.9692 208.89 99.3131 206.318 102.671 202.886C105.932 199.439 107.847 195.172 107.583 190.529C107.766 187.352 106.95 184.31 105.198 181.484C102.112 184.182 98.1044 186.249 93.6754 187.113C94.3527 188.111 94.7218 189.263 94.6528 190.529C94.8232 193.721 92.2802 196.41 88.9665 196.548C88.9178 196.552 88.8773 196.563 88.8286 196.568C83.6898 196.779 79.1269 199.111 75.9309 203.032C74.3451 205 73.0066 207.364 72.2968 209.956C71.7087 212.535 71.5951 215.358 72.0332 218.238C72.6821 222.168 74.0733 225.82 76.6285 228.666C78.7457 224.619 82.3351 221.463 86.4802 219.739"
   fill="#0f5d77"
   fill-rule="nonzero"
   opacity="1"
   stroke="none"
   id="path51"
   style="fill:#00905d;fill-opacity:1" />
<path
   d="M92.6533 244.698C91.6312 243.977 90.7308 242.93 90.3496 241.625C89.4978 238.339 91.3432 234.972 94.4379 234.077C94.4825 234.059 94.5271 234.036 94.5758 234.023C99.6091 232.657 103.665 229.424 106.212 225.596C108.577 221.783 110.106 217.237 109.428 212.646C109.043 209.498 107.299 206.667 105.417 204.108C102.509 207.251 99.2766 209.839 94.9855 211.351C95.8574 212.228 96.4537 213.302 96.6443 214.555C97.1269 217.716 94.88 220.773 91.6272 221.402C91.6069 221.406 91.5907 221.414 91.5704 221.418C86.5492 222.359 82.0066 225.43 79.7029 229.748C77.2734 234.077 76.5392 239.774 78.0237 245.426C79.2892 249.201 81.5848 252.474 84.4482 254.944C85.9935 250.592 88.8083 247.027 92.6533 244.698"
   fill="#000000"
   fill-rule="nonzero"
   opacity="1"
   stroke="none"
   id="path53"
   style="fill:#cccccc" />
<path
   d="M102.594 268.425C101.503 267.85 100.57 266.896 99.9782 265.667C98.4897 262.572 99.7349 258.964 102.761 257.632C107.542 255.524 110.876 251.801 113.071 247.534C115.188 243.271 115.699 238.659 114.158 234.291C113.387 231.213 111.7 228.552 109.189 226.374C107.04 229.847 103.823 232.998 99.8485 235.127C100.798 235.877 101.487 236.867 101.803 238.096C102.821 241.118 101.248 244.419 98.1044 245.535C98.0639 245.546 98.0314 245.571 97.9949 245.587C93.1359 247.303 89.4613 250.884 87.5713 255.581C86.6506 257.929 86.0341 260.602 86.1801 263.271C86.2572 264.735 86.5614 266.215 86.967 267.622C87.6727 270.076 88.6217 272.028 90.0291 274.168C90.7836 275.317 91.6353 276.404 92.6127 277.373C92.8967 277.657 95.8899 279.807 95.8818 279.846C96.5672 275.421 99.1711 271.285 102.594 268.425"
   fill="#0f5d77"
   fill-rule="nonzero"
   opacity="1"
   stroke="none"
   id="path55"
   style="fill:#00905d;fill-opacity:1" />
<path
   d="M112.807 288.158C110.897 285.342 111.785 281.485 114.47 279.742C114.502 279.721 114.527 279.693 114.559 279.672C118.96 276.878 121.888 272.579 123.206 268.157C123.884 265.927 124.05 263.709 123.936 261.462C123.904 259.169 123.425 256.936 122.419 254.842C121.113 251.954 118.668 249.739 116.056 247.883C114.263 251.715 111.89 255.171 108.248 257.884C109.339 258.464 110.223 259.317 110.775 260.459C112.158 263.336 110.913 266.925 107.993 268.495C107.98 268.498 107.976 268.507 107.964 268.511C103.369 270.936 100.092 275.135 99.1306 279.973C98.1044 284.815 98.9643 290.555 102.156 295.43C104.529 298.633 107.611 301.132 111.067 302.65C111.286 298.021 112.937 293.771 115.926 290.404C114.729 290.023 113.622 289.248 112.807 288.158"
   fill="#000000"
   fill-rule="nonzero"
   opacity="1"
   stroke="none"
   id="path57"
   style="fill:#cccccc" />
<path
   d="M129.075 308.299C126.775 305.772 126.917 301.959 129.412 299.761C133.411 296.298 135.406 291.829 136.205 287.136C136.976 282.43 136.181 277.808 133.378 274.103C131.614 271.471 129.331 269.35 126.273 268.024C125.234 271.991 123.081 275.962 119.909 279.173C121.061 279.591 121.912 280.402 122.703 281.396C124.622 283.951 124.022 287.617 121.365 289.606C121.324 289.634 121.296 289.674 121.255 289.707C117.135 292.781 114.673 297.287 114.231 302.341C113.991 305.066 114.324 307.702 115.326 310.257C115.849 311.596 116.522 312.87 117.309 314.074C118.656 316.135 120.031 317.729 121.941 319.315C123.016 320.207 124.18 320.989 125.429 321.618C125.794 321.801 129.363 322.956 129.371 323.005C128.747 318.556 129.838 314.025 132.356 310.192C131.156 309.953 129.992 309.309 129.075 308.299"
   fill="#0f5d77"
   fill-rule="nonzero"
   opacity="1"
   stroke="none"
   id="path59"
   style="fill:#00905d;fill-opacity:1" />
<path
   d="M147.104 317.425C150.494 313.458 152.048 308.473 152.031 303.83C152.015 301.505 151.602 299.257 150.758 297.21C149.918 295.165 148.929 293.04 147.335 291.348C145.205 288.993 142.415 287.423 139.154 286.6C138.785 290.615 137.345 294.777 134.713 298.402C135.917 298.646 137.004 299.205 137.856 300.146C140.002 302.512 139.852 306.319 137.524 308.676L137.524 308.679L137.524 308.679C133.796 312.379 132.093 317.168 132.498 322.183C132.701 324.681 133.427 327.216 134.656 329.621C135.893 332.013 137.552 334.369 139.941 336.041C143.125 338.438 146.783 339.951 150.515 340.416C149.383 335.898 149.732 331.332 151.61 327.227C150.36 327.203 149.083 326.777 147.992 325.961C145.177 324.003 144.999 319.911 147.067 317.477C147.083 317.461 147.091 317.441 147.104 317.425"
   fill="#000000"
   fill-rule="nonzero"
   opacity="1"
   stroke="none"
   id="path61"
   style="fill:#cccccc" />
<path
   d="M173.073 341.402C171.861 341.521 170.563 341.232 169.399 340.526C166.491 338.762 165.521 335.076 167.196 332.317C167.217 332.281 167.225 332.244 167.249 332.208C170.011 327.783 170.757 322.701 169.975 318.236C169.346 313.489 167.269 309.256 163.534 306.493C160.881 304.725 158.249 303.157 154.911 302.816C155.061 306.94 154.153 311.386 152.056 315.397C153.216 315.538 154.473 315.81 155.467 316.596C158.03 318.504 158.513 322.209 156.558 324.887C156.525 324.931 156.505 324.98 156.473 325.025C153.443 329.174 152.401 334.22 153.435 339.208C154.453 344.238 157.99 348.606 162.942 351.689C164.661 352.69 166.401 353.574 168.296 353.992C170.198 354.393 172.128 354.544 174.039 354.434C172.205 350.223 171.755 345.863 173.073 341.402"
   fill="#0f5d77"
   fill-rule="nonzero"
   opacity="1"
   stroke="none"
   id="path63"
   style="fill:#00905d;fill-opacity:1" />
<path
   d="M196.537 351.939C195.336 352.28 193.994 352.24 192.712 351.77C191.106 351.182 189.893 350.013 189.264 348.626C188.672 347.153 188.656 345.491 189.309 343.965C191.378 339.179 191.402 333.935 190.039 329.473C188.701 324.903 185.732 321.574 181.875 318.961C179.165 317.303 176.075 316.573 172.708 316.747C173.54 320.688 173.357 325.134 171.901 329.377C172.108 328.781 174.805 329.746 175.162 329.92C176.614 330.618 177.636 332.313 178.074 333.83C178.488 335.279 178.403 336.864 177.612 338.357C175.17 342.94 174.927 348.054 176.78 352.747C178.662 357.313 182.43 361.962 187.999 363.774C191.739 365.157 195.677 365.555 199.368 364.918C196.963 360.911 195.949 356.421 196.537 351.939"
   fill="#000000"
   fill-rule="nonzero"
   opacity="1"
   stroke="none"
   id="path65"
   style="fill:#cccccc" />
<path
   d="M217.457 359.411C214.176 358.571 212.168 355.347 212.922 352.223C212.939 352.171 212.935 352.118 212.951 352.069C214.277 347.025 213.486 341.934 211.426 337.882C209.361 333.753 206.198 330.103 201.821 328.582C198.788 327.625 195.709 327.167 192.485 327.669C193.84 331.563 194.229 336.202 193.462 340.518C193.511 340.255 195.397 340.258 195.636 340.294C199.343 340.895 201.886 344.49 200.564 348.265C200.548 348.31 200.548 348.351 200.532 348.395C198.849 353.257 199.339 358.418 201.801 362.915C204.332 367.206 208.944 370.531 214.602 371.987C218.434 373.12 222.446 372.577 226.023 371.282C223.018 367.83 221.322 363.673 221.221 359.183C220.101 359.65 218.779 359.751 217.457 359.411"
   fill="#0f5d77"
   fill-rule="nonzero"
   opacity="1"
   stroke="none"
   id="path67"
   style="fill:#00905d;fill-opacity:1" />
<path
   d="M243.058 363.212C239.622 363.098 237.12 360.141 237.497 356.811C237.497 356.803 237.497 356.795 237.497 356.79C238.057 351.603 236.528 346.581 233.9 342.712C232.581 340.778 230.975 339.132 229.134 337.886C228.209 337.262 227.228 336.742 226.189 336.337C225.171 335.85 224.109 335.404 222.981 335.12C219.915 334.317 216.751 334.512 213.596 335.659C215.547 339.197 216.686 343.512 216.552 348.002C217.676 347.535 218.889 347.41 220.114 347.725C223.184 348.63 225.269 351.578 224.672 354.832C224.668 354.848 224.672 354.864 224.668 354.877C223.703 359.97 224.985 364.926 228.14 368.861C231.283 372.705 236.268 375.991 242.105 376.072C246.083 376.282 249.953 375.5 253.291 373.801C249.815 370.682 247.523 366.694 246.761 362.242C245.714 362.919 244.42 363.28 243.058 363.212"
   fill="#000000"
   fill-rule="nonzero"
   opacity="1"
   stroke="none"
   id="path69"
   style="fill:#cccccc" />
<path
   d="M272.467 361.873C271.534 362.651 270.301 363.142 268.938 363.212C265.556 363.386 262.688 360.895 262.498 357.687C262.494 357.635 262.481 357.589 262.477 357.537C262.266 352.324 260.015 347.701 256.848 344.444C253.652 341.03 249.543 338.544 244.899 338.365C243.313 338.263 241.731 338.523 240.198 338.81C238.669 339.054 237.169 339.54 235.7 340.271C238.146 343.601 239.894 347.928 240.446 352.24C241.496 351.562 242.676 351.193 243.946 351.258C247.138 351.416 249.628 354.224 249.523 357.537C249.519 357.589 249.535 357.635 249.531 357.687C249.365 362.825 251.352 367.603 255.018 371.165C258.697 374.6 264.071 376.339 269.891 376.072C271.879 375.942 273.809 375.679 275.61 374.982C277.407 374.235 279.086 373.269 280.603 372.101C276.717 369.673 273.895 366.306 272.467 361.873"
   fill="#0f5d77"
   fill-rule="nonzero"
   opacity="1"
   stroke="none"
   id="path71"
   style="fill:#00905d;fill-opacity:1" />
<path
   d="M297.792 357.386C296.993 358.343 295.861 359.073 294.539 359.411C291.242 360.368 287.956 358.093 287.328 354.832C286.342 349.708 283.414 345.369 279.776 342.457C276.097 339.447 271.769 338.37 267.101 338.365C263.925 338.515 260.952 339.646 258.267 341.678C261.179 344.472 263.536 348.257 264.728 352.581C264.651 352.313 266.391 351.595 266.614 351.526C270.212 350.39 274.077 353.145 274.507 356.806C275.067 361.97 277.748 366.334 281.917 369.156C283.998 370.572 286.439 371.602 289.088 372.158C290.414 372.437 291.789 372.6 293.192 372.632C295.76 372.694 298.725 371.756 301.053 370.739C302.265 370.206 303.434 369.571 304.533 368.833C304.837 368.63 307.335 366.444 307.433 366.488C303.19 364.541 299.832 361.413 297.792 357.386"
   fill="#000000"
   fill-rule="nonzero"
   opacity="1"
   stroke="none"
   id="path73"
   style="fill:#cccccc" />
<path
   d="M322.265 349.446C321.6 350.467 320.566 351.302 319.288 351.77C316.096 352.942 312.616 351.408 311.493 348.387C311.476 348.343 311.452 348.31 311.436 348.265C309.696 343.349 306.183 339.594 302.201 337.419C298.124 335.019 293.501 333.927 289.019 335.12C285.981 336.069 283.146 337.286 280.781 339.585C284.095 342.064 287.011 345.577 288.832 349.705C289.635 348.748 290.658 348.042 291.882 347.725C294.977 346.926 298.177 348.869 299.049 352.069C299.065 352.118 299.094 352.163 299.106 352.215C300.457 357.172 303.758 361.143 308.309 363.454C312.864 365.729 318.505 365.742 324.001 363.774C327.797 362.518 330.864 359.942 333.062 356.795C328.625 355.615 324.926 353.226 322.265 349.446"
   fill="#0f5d77"
   fill-rule="nonzero"
   opacity="1"
   stroke="none"
   id="path75"
   style="fill:#00905d;fill-opacity:1" />
<path
   d="M342.601 340.526C341.137 341.411 339.466 341.633 337.99 341.256C336.485 340.835 335.159 339.787 334.388 338.352C334.388 338.349 334.38 338.341 334.376 338.336C331.918 333.737 327.83 330.451 323.486 328.74C319.073 326.919 314.624 327.211 310.179 328.582C307.197 329.66 304.699 331.62 302.74 334.358C306.342 336.166 309.708 339.082 312.121 342.863C312.786 341.841 313.715 341.05 314.904 340.616C316.412 340.065 318.031 340.19 319.45 340.822C320.829 341.365 322.026 342.444 322.691 343.965C322.695 343.973 322.699 343.983 322.703 343.991C324.772 348.748 328.625 352.126 333.447 353.598C338.205 354.989 344.171 354.9 349.058 351.689C352.469 349.628 355.231 346.801 357.04 343.523C352.4 342.904 348.259 340.895 345.116 337.647C344.633 338.791 343.765 339.816 342.601 340.526"
   fill="#000000"
   fill-rule="nonzero"
   opacity="1"
   stroke="none"
   id="path77"
   style="fill:#cccccc" />
<path
   d="M364.008 325.961L364.008 325.961C361.299 327.989 357.519 327.544 355.552 325.009C355.519 324.965 355.475 324.931 355.442 324.887C352.327 320.706 347.85 318.143 343.384 317.217C338.902 316.321 334.043 316.476 330.125 318.961C328.754 319.76 327.603 320.875 326.487 321.959C325.364 323.022 324.398 324.275 323.599 325.703C327.485 327.065 331.375 329.673 334.258 332.926C334.745 331.779 335.516 330.809 336.599 330.152C339.328 328.488 342.97 329.409 344.751 332.208C344.771 332.244 344.804 332.268 344.824 332.305C347.582 336.657 351.93 339.493 356.983 340.372C361.879 341.014 367.395 339.545 372.055 336.041C375.344 333.769 377.332 330.183 378.613 326.66C374.026 326.837 369.699 325.545 366.133 322.828C365.89 324.104 365.079 325.118 364.008 325.961"
   fill="#0f5d77"
   fill-rule="nonzero"
   opacity="1"
   stroke="none"
   id="path79"
   style="fill:#00905d;fill-opacity:1" />
<path
   d="M384.515 304.834C384.381 306.064 383.842 307.293 382.925 308.299C380.609 310.845 376.792 311.019 374.481 308.684C374.481 308.684 374.472 308.679 374.472 308.676C370.802 305.037 365.898 303.066 361.226 302.689C358.882 302.502 356.578 302.722 354.444 303.375C352.295 304.012 350.401 305.187 348.462 306.493C345.915 308.383 344.082 310.972 343.003 314.144C346.998 314.828 351.086 316.637 354.513 319.541C354.854 318.377 355.515 317.352 356.529 316.596C359.17 314.781 362.674 314.869 364.896 317.425C364.909 317.441 364.929 317.454 364.941 317.469C368.32 321.391 372.996 323.491 378.05 323.504C380.581 323.517 383.193 323.01 385.715 321.999C388.234 320.985 390.384 319.193 392.379 317.076C395.052 314.123 396.914 310.66 397.668 306.989C393.065 307.759 388.473 307.021 384.515 304.834"
   fill="#000000"
   fill-rule="nonzero"
   opacity="1"
   stroke="none"
   id="path81"
   style="fill:#cccccc" />
<path
   d="M400.191 284.458C400.248 285.699 400.041 287.086 399.193 288.158C397.165 290.875 393.393 291.535 390.765 289.679C390.72 289.65 390.676 289.634 390.635 289.606C386.429 286.519 381.376 285.366 376.805 285.772C372.367 286.32 367.748 287.877 364.665 291.348C362.548 293.717 361.25 296.675 360.451 299.764C364.682 300.037 368.928 301.152 372.692 303.464C372.826 302.227 373.288 301.087 374.14 300.146C376.289 297.783 380.066 297.611 382.588 299.761C382.604 299.777 382.629 299.793 382.645 299.811C386.51 303.136 391.718 304.746 396.589 303.911C401.476 303.103 406.372 300.118 409.844 295.43C412.066 292.131 413.145 288.262 413.303 284.495C408.943 285.995 404.401 286.016 400.191 284.458"
   fill="#0f5d77"
   fill-rule="nonzero"
   opacity="1"
   stroke="none"
   id="path83"
   style="fill:#00905d;fill-opacity:1" />
<path
   d="M412.549 261.899C412.776 263.113 412.61 264.439 412.022 265.667C410.529 268.758 406.928 270.032 404.04 268.507C404.028 268.498 404.015 268.498 404.007 268.49C399.396 266.074 394.375 265.76 389.674 266.709C385.014 267.699 381.14 270.21 378.622 274.103C376.703 276.638 375.681 279.623 375.551 282.958C379.603 282.459 384.065 283.002 388.202 284.783C388.193 283.574 388.534 282.41 389.297 281.396C391.085 278.756 394.598 277.901 397.441 279.672C397.473 279.693 397.51 279.701 397.542 279.721C401.91 282.459 407.001 283.099 411.851 281.651C414.269 280.914 416.714 279.717 418.742 277.961C420.685 276.16 422.372 273.892 423.638 271.269C425.297 267.647 426.294 263.887 425.674 260.046C421.756 262.252 416.921 262.801 412.549 261.899"
   fill="#000000"
   fill-rule="nonzero"
   opacity="1"
   stroke="none"
   id="path85"
   style="fill:#cccccc" />
<path
   d="M421.452 237.779C421.902 238.955 421.991 240.307 421.65 241.625C420.572 244.849 417.063 246.573 414.013 245.563C413.973 245.55 413.932 245.546 413.896 245.535C408.964 243.83 403.78 244.216 399.509 245.94C397.335 246.796 395.527 248.052 393.811 249.529C392.038 250.982 390.591 252.75 389.581 254.842C388.129 257.656 387.942 260.963 388.092 264.151C392.233 263.178 396.39 262.877 400.783 264.041C400.56 262.824 400.673 261.6 401.225 260.459C402.612 257.58 406.193 256.319 409.239 257.632C409.252 257.637 409.264 257.637 409.276 257.645C414.017 259.726 419.375 259.689 423.747 257.427C428.189 255.212 432.086 250.94 433.976 245.426C434.99 241.568 435.011 237.589 434.029 233.934C430.285 236.656 425.942 238.019 421.452 237.779"
   fill="#0f5d77"
   fill-rule="nonzero"
   opacity="1"
   stroke="none"
   id="path87"
   style="fill:#00905d;fill-opacity:1" />
<path
   d="M426.611 212.581C427.183 213.668 427.414 214.981 427.207 216.328C426.692 219.715 423.634 221.993 420.373 221.402C415.173 220.441 410.464 221.673 406.214 223.956C402.069 226.288 398.97 229.79 397.842 234.291C396.816 237.285 396.634 240.408 397.49 243.624C401.237 241.968 405.678 241.178 410.164 241.656C409.88 241.625 409.909 239.742 409.929 239.516C410.241 235.775 413.652 233.034 417.424 234.023C417.473 234.036 417.522 234.033 417.57 234.048C422.543 235.354 427.596 234.465 431.81 231.651C436.24 228.872 439.111 224.013 439.963 218.238C440.47 214.287 440.376 210.406 438.58 206.923C435.558 210.187 431.04 212.142 426.611 212.581"
   fill="#000000"
   fill-rule="nonzero"
   opacity="1"
   stroke="none"
   id="path89"
   style="fill:#cccccc" />
<path
   d="M214.497 60.719C192.749 60.719 178.487 85.32 178.487 96.7291C178.487 100.294 179.557 101.008 182.053 101.008C184.548 101.008 197.384 87.1027 206.654 87.1027C235.177 87.1027 248.369 135.235 253.004 166.967C253.717 172.671 253.36 172.671 251.221 179.445C240.168 213.673 204.158 269.292 185.974 296.389C182.409 301.737 182.409 300.667 182.409 305.659C182.409 312.076 194.175 316.355 199.166 316.355C202.019 316.355 206.297 305.659 207.367 303.52C223.767 274.284 248.725 226.864 256.569 205.116C257.282 203.333 258.352 203.69 258.708 205.472C261.917 230.073 269.404 269.292 276.535 292.823C281.883 310.65 288.657 315.285 300.423 315.285C315.754 315.285 335.364 304.589 335.364 277.849C335.364 276.066 333.225 274.64 331.442 274.64C328.59 274.64 318.606 287.119 305.771 286.762C300.066 286.762 289.014 281.414 284.735 266.44C269.404 212.603 260.134 142.009 255.856 118.478C251.221 93.5203 238.742 60.719 214.497 60.719Z"
   fill="#0f5d77"
   fill-rule="nonzero"
   opacity="1"
   stroke="#0f5d77"
   stroke-linecap="butt"
   stroke-linejoin="miter"
   stroke-width="5"
   id="path91"
   style="fill:#00905d;fill-opacity:1;stroke:#00905d;stroke-opacity:1" />







<text
   xml:space="preserve"
   style="font-style:normal;font-weight:normal;font-size:120px;line-height:0;font-family:sans-serif;letter-spacing:0px;word-spacing:0px;fill:#00905d;fill-opacity:1;stroke:none;stroke-width:2;stroke-miterlimit:10;stroke-dasharray:none"
   x="61.650002"
   y="483.11194"
   id="text2729"><tspan
     sodipodi:role="line"
     id="tspan2727"
     x="61.650002"
     y="483.11194"
     style="font-style:normal;font-variant:normal;font-weight:normal;font-stretch:normal;font-size:120px;line-height:0;font-family:Ubuntu;-inkscape-font-specification:Ubuntu;fill:#00905d;fill-opacity:1;stroke-width:2;stroke-miterlimit:10;stroke-dasharray:none"
     dx="0 0 -62 -6.5500002 0 -15.36998"
     dy="0 0 61.25"><tspan
   style="font-size:120px;line-height:0;fill:#00905d;fill-opacity:1;stroke:#00905d;stroke-width:2;stroke-miterlimit:10;stroke-dasharray:none;stroke-opacity:1"
   id="tspan15499">f<tspan
   style="font-size:86.6667px;line-height:0"
   id="tspan4880"
   rotate="180 0"
   dx="62"
   dy="-61.25">A</tspan></tspan>μn: AI</tspan></text></g>
</svg>
