<?xml version="1.0" encoding="UTF-8"?>
<!DOCTYPE svg PUBLIC "-//W3C//DTD SVG 1.1//EN" "http://www.w3.org/Graphics/SVG/1.1/DTD/svg11.dtd">
<svg version="1.1" xmlns="http://www.w3.org/2000/svg" xmlns:xlink="http://www.w3.org/1999/xlink" x="0" y="0" width="300" height="300" viewBox="0, 0, 300, 300">
  <g id="Background">
    <rect x="0" y="0" width="300" height="300" fill="#000000" fill-opacity="0"/>
  </g>
  <g id="Layer_1">
    <g>
      <path d="M150.5,54.933 C186.896,54.933 216.4,84.438 216.4,120.833 C216.4,157.229 186.896,186.733 150.5,186.733 C114.104,186.733 84.6,157.229 84.6,120.833 C84.6,84.438 114.104,54.933 150.5,54.933 z M131.9,63.983 C122.75,63.983 116.75,74.333 116.75,79.133 C116.75,80.633 117.2,80.933 118.25,80.933 C119.3,80.933 124.7,75.083 128.6,75.083 C140.6,75.083 146.15,95.333 148.1,108.683 C148.4,111.083 148.25,111.083 147.35,113.933 C142.7,128.333 127.55,151.733 119.9,163.133 C118.4,165.383 118.4,164.933 118.4,167.033 C118.4,169.733 123.35,171.533 125.45,171.533 C126.65,171.533 128.45,167.033 128.9,166.133 C135.8,153.833 146.3,133.883 149.6,124.733 C149.9,123.983 150.35,124.133 150.5,124.883 C151.85,135.233 155,151.733 158,161.633 C160.25,169.133 163.1,171.083 168.05,171.083 C174.5,171.083 182.75,166.583 182.75,155.333 C182.75,154.583 181.85,153.983 181.1,153.983 C179.9,153.983 175.7,159.233 170.3,159.083 C167.9,159.083 163.25,156.833 161.45,150.533 C155,127.883 151.1,98.183 149.3,88.283 C147.35,77.783 142.1,63.983 131.9,63.983 z" fill="#2C717F"/>
      <path d="M150.5,54.933 C186.896,54.933 216.4,84.438 216.4,120.833 C216.4,157.229 186.896,186.733 150.5,186.733 C114.104,186.733 84.6,157.229 84.6,120.833 C84.6,84.438 114.104,54.933 150.5,54.933 z M131.9,63.983 C122.75,63.983 116.75,74.333 116.75,79.133 C116.75,80.633 117.2,80.933 118.25,80.933 C119.3,80.933 124.7,75.083 128.6,75.083 C140.6,75.083 146.15,95.333 148.1,108.683 C148.4,111.083 148.25,111.083 147.35,113.933 C142.7,128.333 127.55,151.733 119.9,163.133 C118.4,165.383 118.4,164.933 118.4,167.033 C118.4,169.733 123.35,171.533 125.45,171.533 C126.65,171.533 128.45,167.033 128.9,166.133 C135.8,153.833 146.3,133.883 149.6,124.733 C149.9,123.983 150.35,124.133 150.5,124.883 C151.85,135.233 155,151.733 158,161.633 C160.25,169.133 163.1,171.083 168.05,171.083 C174.5,171.083 182.75,166.583 182.75,155.333 C182.75,154.583 181.85,153.983 181.1,153.983 C179.9,153.983 175.7,159.233 170.3,159.083 C167.9,159.083 163.25,156.833 161.45,150.533 C155,127.883 151.1,98.183 149.3,88.283 C147.35,77.783 142.1,63.983 131.9,63.983 z" fill-opacity="0" stroke="#2C717F" stroke-width="0.25"/>
    </g>
    <g>
      <text transform="matrix(1, 0, 0, 1, 150, 278.25)">
        <tspan x="-143.296" y="17" font-family="Norse-Bold" font-size="128" fill="#FFFFFF" fill-opacity="0">kjarni</tspan>
      </text>
      <path d="M14.256,201.81 L15.664,210.898 L15.408,221.138 L16.048,237.266 L17.2,244.178 L16.432,271.826 L16.432,272.594 L16.176,274.642 L17.712,276.434 L15.536,281.554 L15.664,282.066 L15.28,282.194 L15.152,295.506 L21.936,295.634 L28.72,295.378 L28.848,288.85 L28.336,286.418 L28.208,285.01 L28.08,278.738 L27.568,272.594 L27.568,251.602 L32.688,262.226 L32.56,262.482 L36.912,269.522 L36.272,271.186 L43.056,286.418 L46.768,295.89 L49.968,296.018 L59.184,290.898 L55.472,282.578 L53.68,282.194 L54.32,280.402 L49.968,273.106 L45.488,263.25 L37.936,245.97 L37.296,244.946 L46.512,227.41 L46.128,227.026 L46.512,226.386 L54.32,213.458 L58.032,206.674 L54.064,203.602 L46.256,200.53 L42.288,209.874 L42.8,213.074 L39.216,216.658 L37.04,222.162 L31.92,234.45 L29.744,237.906 L27.824,242.898 L27.44,243.922 L27.44,240.082 L27.184,233.938 L28.464,202.194 L23.6,200.53 z M75.44,239.826 L74.8,246.866 L74.928,254.802 L75.056,256.594 L75.056,261.586 L74.544,275.538 L74.8,276.69 L72.88,279.378 L67.248,283.09 L61.616,285.394 L61.616,292.05 L68.656,297.298 L78.128,289.618 L78,287.058 L81.456,286.546 L85.552,282.962 L87.6,279.378 L86.064,257.362 L85.04,253.522 L86.448,252.498 L85.936,216.786 L87.472,205.522 L85.808,201.042 L73.648,201.298 L73.648,208.466 L75.952,209.746 L74.288,211.794 L74.672,233.426 z M131.632,269.01 L132.656,273.234 L133.808,274.002 L132.784,275.282 L133.296,278.866 L134.96,294.994 L137.136,296.146 L138.8,296.146 L148.272,293.074 L146.864,287.57 L144.944,285.522 L145.712,284.498 L144.432,276.434 L141.232,264.53 L141.232,262.738 L135.088,231.89 L133.552,230.738 L134.448,228.434 L130.352,208.85 L129.84,207.57 L129.456,206.546 L129.584,202.066 L127.408,201.042 L116.912,201.554 L115.632,209.618 L114.48,214.994 L113.584,220.114 L114.992,222.034 L112.688,224.722 L108.848,241.874 L108.848,244.178 L108.08,246.866 L107.696,249.298 L105.136,265.042 L105.264,267.602 L103.856,269.01 L102.576,277.074 L99.12,292.69 L103.6,295.506 L111.536,296.274 L112.944,287.698 L112.048,284.114 L113.2,282.706 L114.608,273.618 L117.168,272.594 L118.32,272.082 L126.896,270.034 L129.456,268.242 L129.584,268.242 L131.376,267.986 z M119.856,239.698 L119.216,237.65 L120.496,237.01 L123.056,221.394 L124.976,234.962 L125.488,237.266 L126,243.922 L128.56,257.746 L124.976,258.642 L116.656,261.202 L116.784,260.306 L118.32,251.986 L118.192,252.114 z M171.568,255.826 L176.688,266.194 L177.84,269.138 L182.576,278.098 L184.112,278.866 L183.984,281.042 L188.464,291.282 L191.536,296.274 L201.904,290.514 L202.032,286.802 L197.808,282.322 L195.504,277.458 L195.504,277.586 L193.712,273.874 L192.944,273.49 L192.944,271.826 L187.824,263.122 C186.928,261.842 186.16,261.202 185.136,260.05 L185.136,257.874 C184.368,256.338 182.832,254.162 181.936,252.37 L185.52,247.506 L187.696,244.818 L191.792,239.954 L197.68,232.786 L198.576,225.106 L192.432,219.474 C192.304,219.474 190.256,220.114 190.128,219.986 L189.36,216.786 L169.008,199.122 L158.896,203.218 L159.408,214.226 L160.048,238.674 L159.024,241.234 L159.28,247.89 L159.792,262.866 L159.792,267.858 L160.944,269.522 L159.024,274.514 L158.256,294.866 L166.704,295.634 L171.824,293.586 L171.696,282.962 L171.312,281.81 L170.928,269.01 L170.8,255.058 z M171.056,243.794 L170.544,232.402 L170.288,230.994 L170.032,230.226 L169.52,227.922 L170.544,225.49 L170.544,224.21 L170.8,214.354 L182.576,226.002 L183.472,226.642 L186.032,229.842 L184.624,231.634 C182.96,233.938 179.888,237.906 178.096,240.082 L171.696,248.018 L170.8,248.53 z M253.744,283.986 L253.744,279.89 L252.848,251.858 L251.44,247.634 L252.464,242.258 L253.744,210.77 L254,202.066 L248.752,201.17 L241.328,201.298 L241.328,211.538 L242.608,213.33 L241.328,217.298 L241.328,228.306 L237.104,221.394 L236.08,220.882 L232.88,215.762 L221.36,199.89 L211.248,202.706 L211.248,209.362 L211.76,222.674 L212.272,229.97 L211.76,256.594 L212.912,259.154 L211.888,262.866 L211.12,281.042 L211.12,283.218 L211.504,284.37 L210.608,294.61 L216.112,295.634 L223.664,295.378 L223.92,287.186 L223.536,285.394 L223.664,272.082 L222.512,267.218 L223.152,262.61 L223.408,233.426 L221.872,231.762 L221.744,231.506 L223.536,226.898 L223.536,219.986 L226.864,224.594 L232.112,231.89 L235.824,236.37 L237.616,239.186 L239.408,241.106 L241.456,244.562 L241.584,257.874 L241.968,260.306 L241.584,260.946 L241.456,273.234 L241.584,285.394 L241.456,295.378 L245.808,295.634 L252.848,295.506 L254.512,291.154 z M272.944,239.57 L272.56,246.61 L272.176,250.578 L272.176,274.514 L272.176,279.122 L273.712,281.298 L272.176,283.858 L270.384,295.25 L276.272,295.378 L278.96,295.506 L284.592,293.714 L284.72,288.978 L284.464,286.546 L284.208,284.626 L284.208,249.17 L282.8,248.274 L283.952,245.586 L283.696,242.386 L283.184,237.394 L283.568,230.866 L283.952,214.098 L284.592,210.898 L285.232,201.554 L276.912,201.042 L270.896,201.426 L271.536,207.826 L272.688,208.466 L271.664,210.77 L272.048,236.37 z" fill-opacity="0" stroke="#2C717F" stroke-width="4"/>
    </g>
    <path d="M150.5,4.833 C214.565,4.833 266.5,56.768 266.5,120.833 C266.053,153.338 252.67,186.749 227.171,207.792 L221.86,200.473 L211.748,203.289 L211.748,209.945 L212.098,219.061 C208.033,221.911 203.591,224.21 199.023,226.142 L199.076,225.689 L192.932,220.057 C192.804,220.057 190.756,220.697 190.628,220.569 L189.86,217.369 L169.508,199.705 L159.396,203.801 L159.908,214.809 L160.47,236.277 C154.489,236.883 157.809,236.649 150.5,236.833 C141.76,236.612 146.511,236.883 136.259,235.844 L135.588,232.473 L134.052,231.321 L134.948,229.017 L130.852,209.433 L130.34,208.153 L129.956,207.129 L130.084,202.649 L127.908,201.625 L117.412,202.137 L116.132,210.201 L114.98,215.577 L114.084,220.697 L115.492,222.617 L113.188,225.305 L112.081,230.25 C102.941,227.302 94.369,222.755 86.436,217.396 L86.436,217.369 L87.972,206.105 L86.308,201.625 L74.148,201.881 L74.148,208.055 C48.219,186.49 35.337,153.945 34.5,120.833 C34.5,56.768 86.435,4.833 150.5,4.833 z" fill-opacity="0" stroke="#2C717F" stroke-width="3"/>
  </g>
</svg>
