<?xml version="1.0" encoding="UTF-8" standalone="no"?>
<!DOCTYPE svg PUBLIC "-//W3C//DTD SVG 1.1//EN" "http://www.w3.org/Graphics/SVG/1.1/DTD/svg11.dtd">

<!-- Created with Vectornator (http://vectornator.io/) -->
<svg height="100%" stroke-miterlimit="10" style="fill-rule:nonzero;clip-rule:evenodd;stroke-linecap:round;stroke-linejoin:round;" version="1.1" viewBox="0 0 512 512" width="100%" xml:space="preserve" xmlns="http://www.w3.org/2000/svg" xmlns:vectornator="http://vectornator.io" xmlns:xlink="http://www.w3.org/1999/xlink">
<metadata>
<vectornator:setting key="IsTimeLapseWatermarkDisabled" value="false"/>
<vectornator:setting key="UndoHistoryDisabled" value="true"/>
<vectornator:setting key="VNDimensionsVisible" value="true"/>
<vectornator:setting key="VNSnapToGuides" value="true"/>
<vectornator:setting key="WDCMYKEnabledKey" value="false"/>
<vectornator:setting key="WDDisplayWhiteBackground" value="false"/>
<vectornator:setting key="WDDynamicGuides" value="false"/>
<vectornator:setting key="WDGuidesVisible" value="true"/>
<vectornator:setting key="WDIsolateActiveLayer" value="false"/>
<vectornator:setting key="WDOutlineMode" value="false"/>
<vectornator:setting key="WDRulersVisible" value="true"/>
<vectornator:setting key="WDSnapToEdges" value="false"/>
<vectornator:setting key="WDSnapToGrid" value="false"/>
<vectornator:setting key="WDSnapToPoints" value="false"/>
<vectornator:setting key="WDUnits" value="Pixels"/>
</metadata>
<defs/>
<g id="Layer-1" vectornator:layerName="Layer 1">
<path d="M489.104 251.385C490.165 252.726 490.825 254.436 490.913 256.283C490.693 260.878 486.933 264.507 482.568 264.429C482.502 264.429 482.442 264.447 482.381 264.44C475.317 264.204 468.759 266.783 463.916 270.734C461.465 272.714 459.574 275.071 458.024 277.683C456.298 280.277 455.121 283.141 454.643 286.259C453.928 290.491 454.841 294.818 456.517 298.923C461.283 295.96 466.714 293.927 472.827 293.656C472.052 292.179 471.717 290.545 471.975 288.846C472.629 284.571 476.769 281.498 481.238 281.975C481.254 281.975 481.271 281.975 481.282 281.975C488.296 282.774 495.151 280.564 499.906 275.885C504.793 271.245 508.041 264.172 508.393 256.283C508.151 250.895 506.579 245.744 503.836 241.409C500.087 246.416 495.013 249.905 489.104 251.385" fill="#3d85c6" fill-rule="evenodd" opacity="1" stroke="none"/>
<path d="M485.751 216.693C486.933 217.874 487.763 219.485 488.038 221.316C488.741 225.911 485.685 230.09 481.238 230.59C474.245 231.398 468.353 234.882 463.807 239.534C459.381 244.206 456.787 249.989 457.15 256.283C456.902 260.586 458.007 264.708 460.376 268.542C464.565 264.885 469.996 262.082 475.999 260.91C475.075 259.559 474.581 257.998 474.669 256.283C474.443 251.956 477.89 248.312 482.381 248.125C482.442 248.119 482.502 248.103 482.568 248.097C489.533 247.812 495.717 244.651 500.049 239.336C502.198 236.669 504.012 233.463 504.974 229.953C506.266 225.252 505.832 220.045 504.633 215.417C504.281 214.061 503.847 212.718 503.314 211.415C502.786 210.14 502.165 208.898 501.439 207.721C501.236 207.397 499.054 204.681 499.103 204.593C496.234 210.079 491.369 214.357 485.751 216.693" fill="#000000" fill-rule="evenodd" opacity="1" stroke="none"/>
<path d="M477.384 182.865C478.77 183.842 479.99 185.254 480.507 187.031C481.661 191.484 479.16 196.047 474.966 197.26C474.9 197.281 474.845 197.316 474.779 197.331C467.957 199.184 462.46 203.567 459.008 208.754C455.803 213.923 453.73 220.084 454.643 226.307C455.165 230.573 457.529 234.41 460.085 237.878C464.026 233.618 468.408 230.112 474.223 228.061C473.042 226.873 472.234 225.418 471.975 223.719C471.321 219.435 474.361 215.291 478.775 214.438C478.803 214.434 478.825 214.424 478.852 214.417C485.657 213.142 491.814 208.98 494.936 203.126C498.229 197.26 499.224 189.536 497.212 181.879C495.497 176.762 492.386 172.326 488.505 168.978C486.41 174.877 482.595 179.708 477.384 182.865" fill="#3d85c6" fill-rule="evenodd" opacity="1" stroke="none"/>
<path d="M463.911 150.707C465.39 151.487 466.654 152.779 467.457 154.443C469.474 158.639 467.786 163.531 463.686 165.334C457.205 168.192 452.686 173.238 449.712 179.021C448.239 181.89 447.315 185.113 447.084 188.323C446.826 191.917 447.398 194.93 448.607 198.271C449.261 200.065 450.014 201.763 451.086 203.352C451.372 203.775 454.896 207.814 454.973 207.7C457.886 202.993 462.245 198.722 467.627 195.836C466.346 194.821 465.406 193.479 464.983 191.812C463.603 187.718 465.736 183.242 469.996 181.731C470.046 181.716 470.09 181.681 470.145 181.66C476.73 179.335 481.71 174.482 484.272 168.115C485.52 164.932 486.35 161.31 486.158 157.692C485.888 154.115 484.915 150.409 483.2 146.853C480.748 142.036 477.637 137.789 473.003 135.227C472.074 141.225 468.545 146.831 463.911 150.707" fill="#000000" fill-rule="evenodd" opacity="1" stroke="none"/>
<path d="M450.069 123.962L450.069 123.962C452.653 127.778 451.455 133.004 447.81 135.369C447.772 135.397 447.739 135.435 447.695 135.463C441.725 139.251 437.761 145.076 435.975 151.07C435.051 154.093 434.826 157.099 434.985 160.144C435.029 163.251 435.673 166.279 437.041 169.116C438.806 173.03 442.121 176.03 445.666 178.549C448.096 173.354 451.312 168.671 456.248 164.993C454.769 164.207 453.571 163.052 452.823 161.501C450.943 157.604 452.631 152.74 456.594 150.612C456.605 150.606 456.616 150.595 456.633 150.591C462.861 147.303 467.303 141.613 468.605 135.055C469.996 128.493 468.831 120.713 464.505 114.107C461.289 109.764 457.111 106.378 452.428 104.321C452.131 110.593 449.893 116.354 445.842 120.917C447.464 121.435 448.964 122.485 450.069 123.962" fill="#3d85c6" fill-rule="evenodd" opacity="1" stroke="none"/>
<path d="M428.021 96.6638C431.137 100.089 430.945 105.255 427.63 108.158C427.608 108.18 427.592 108.208 427.564 108.236C422.144 112.93 419.434 118.987 418.357 125.347C417.312 131.725 418.39 137.991 422.188 143.011C424.579 146.578 427.674 149.453 431.819 151.25C433.226 145.873 436.145 140.492 440.438 136.14C438.883 135.573 437.728 134.473 436.657 133.127C434.056 129.663 434.87 124.694 438.471 122C438.526 121.961 438.564 121.907 438.619 121.862C444.204 117.697 447.541 111.589 448.14 104.739C448.97 97.6857 446.106 90.6555 440.834 84.7676C437.217 80.7569 432.798 77.8259 427.619 76.7325C428.466 82.7622 426.987 88.9014 423.574 94.0977C425.201 94.4221 426.778 95.2961 428.021 96.6638" fill="#000000" fill-rule="evenodd" opacity="1" stroke="none"/>
<path d="M403.586 84.2954C398.991 89.6721 396.885 96.4274 396.907 102.722C396.924 105.871 397.49 108.916 398.628 111.693C399.771 114.465 401.107 117.344 403.273 119.635C406.153 122.831 409.941 124.959 414.36 126.073C414.855 120.632 416.807 114.991 420.38 110.078C418.747 109.747 417.274 108.983 416.114 107.714C413.212 104.508 413.415 99.348 416.565 96.1525C416.57 96.1487 416.57 96.1487 416.576 96.1421C421.617 91.1343 423.931 84.6412 423.381 77.8473C423.106 74.4606 422.122 71.0249 420.457 67.7657C418.775 64.523 416.532 61.3303 413.289 59.0649C408.979 55.8156 404.02 53.7652 398.963 53.1342C400.497 59.2557 400.024 65.4531 397.479 71.0101C399.172 71.0425 400.904 71.6197 402.382 72.7235C406.197 75.3797 406.439 80.9262 403.636 84.2244C403.614 84.2459 403.603 84.2739 403.586 84.2954" fill="#3d85c6" fill-rule="evenodd" opacity="1" stroke="none"/>
<path d="M368.389 51.7962C370.032 51.6373 371.786 52.0282 373.369 52.9836C377.31 55.3759 378.624 60.3727 376.354 64.1107C376.326 64.1602 376.315 64.2097 376.282 64.2591C372.539 70.2564 371.527 77.1448 372.588 83.196C373.435 89.627 376.255 95.367 381.312 99.1094C384.913 101.508 388.48 103.634 393.004 104.096C392.801 98.5064 394.032 92.481 396.869 87.0439C395.302 86.8526 393.598 86.4838 392.246 85.4184C388.777 82.8332 388.123 77.8083 390.773 74.1819C390.817 74.1214 390.839 74.0549 390.883 73.995C394.994 68.3709 396.407 61.5321 395.005 54.7701C393.626 47.9548 388.832 42.0279 382.12 37.8562C379.789 36.499 377.431 35.3006 374.864 34.7339C372.286 34.1907 369.669 33.9868 367.08 34.1347C369.565 39.8423 370.17 45.7516 368.389 51.7962" fill="#000000" fill-rule="evenodd" opacity="1" stroke="none"/>
<path d="M335.868 52.7966C334.917 52.4685 333.757 52.0348 333.081 51.3861C332.295 50.6369 331.756 49.6534 331.382 48.648C330.679 46.7499 330.453 44.4373 331.129 42.4963C331.151 42.4363 331.151 42.3759 331.173 42.3203C333.455 35.7299 332.79 28.7366 329.453 22.6403C326.023 16.8255 319.767 12.3185 312.104 10.3451C306.904 8.80971 301.467 9.54633 296.624 11.3004C300.698 15.9795 302.995 21.614 303.127 27.6992C304.65 27.066 306.442 26.9286 308.229 27.3903C312.681 28.5282 315.402 32.8978 314.374 37.13C314.358 37.2031 314.363 37.274 314.341 37.3405C312.544 44.1778 313.61 51.0766 316.408 56.5698C319.206 62.1653 323.494 67.1127 329.425 69.1741C333.537 70.4714 337.709 71.092 342.08 70.4109C340.244 65.1332 339.716 58.8434 340.755 52.9902C340.612 53.7867 336.758 53.1105 336.297 52.9517C336.159 52.9022 336.016 52.8527 335.868 52.7966" fill="#000000" fill-rule="evenodd" opacity="1" stroke="none"/>
<path d="M336.588 37.5165C338.215 37.0553 340.035 37.1086 341.772 37.7463C343.949 38.5433 345.592 40.1276 346.444 42.0065C347.241 44.0013 347.269 46.2563 346.384 48.3242C343.575 54.8086 343.542 61.9163 345.394 67.9631C347.203 74.1604 351.232 78.6719 356.46 82.2125C360.126 84.4608 364.321 85.4508 368.883 85.2145C367.756 79.8697 368.004 73.8466 369.977 68.0961C368.328 68.2549 366.701 67.9416 365.233 67.0461C363.375 65.9148 362.138 64.1003 361.611 62.0603C361.044 60.0979 361.165 57.948 362.232 55.9256C365.541 49.7134 365.876 42.7821 363.364 36.428C360.132 28.2468 353.321 22.5908 344.9 20.4651C343.531 20.1172 342.14 19.8638 340.733 19.7049C339.353 19.557 337.962 19.4965 336.577 19.5394C336.198 19.5526 332.817 20.0397 332.746 19.9259C336.011 25.3564 337.38 31.4422 336.588 37.5165" fill="#3d85c6" fill-rule="evenodd" opacity="1" stroke="none"/>
<path d="M273.531 22.2495C277.879 22.5265 281.606 26.2024 281.073 30.9414C280.315 37.9722 282.387 44.7764 285.944 50.0223C287.736 52.6444 289.912 54.8817 292.408 56.5633C293.661 57.4093 294.986 58.1134 296.394 58.6631C299.769 59.9879 303.347 61.1538 306.986 60.7355C307.503 60.675 313.506 59.6531 313.467 59.58C310.823 54.7871 309.279 48.9383 309.46 42.8525C307.932 43.4863 306.294 43.6556 304.628 43.2263C300.472 42.0026 297.647 38.0062 298.46 33.5355C299.763 26.6323 298.032 19.9154 293.755 14.5816C289.495 9.36985 282.739 4.91888 274.823 4.80893C269.436 4.52365 264.192 5.58458 259.668 7.8862C264.379 12.114 267.484 17.5171 268.518 23.5528C268.463 23.2181 270.816 22.5265 271.096 22.46C271.915 22.2665 272.734 22.2022 273.531 22.2495" fill="#3d85c6" fill-rule="evenodd" opacity="1" stroke="none"/>
<path d="M233.672 24.053C234.942 22.9987 236.613 22.333 238.454 22.2385C243.044 22.0027 246.931 25.3779 247.189 29.7266C247.189 29.7969 247.211 29.8596 247.217 29.9305C247.503 36.9926 250.553 43.2609 254.847 47.6734C257.101 49.9882 259.552 52.0601 262.438 53.5613C263.906 54.3216 265.451 54.9311 267.056 55.3369C270.684 56.256 273.702 55.8976 277.412 55.3094C279.485 54.9806 281.518 54.3216 283.503 53.3315C280.188 48.8179 277.824 42.9514 277.077 37.1086C275.653 38.0277 274.053 38.5279 272.333 38.44C268.007 38.225 264.631 34.4205 264.774 29.9305C264.78 29.8596 264.758 29.7931 264.763 29.7266C264.989 22.7629 262.295 16.2863 257.326 11.4593C252.34 6.80383 245.051 4.44614 237.163 4.80893C234.475 4.98542 231.858 5.3416 229.417 6.28657C226.982 7.29801 224.706 8.60796 222.645 10.19C227.911 13.4822 231.743 18.0453 233.672 24.053" fill="#000000" fill-rule="evenodd" opacity="1" stroke="none"/>
<path d="M199.354 30.1345C200.437 28.835 201.97 27.8477 203.757 27.3903C208.232 26.093 212.684 29.1769 213.52 33.5355C213.525 33.5569 213.531 33.5745 213.536 33.596C214.872 40.5398 218.841 46.4217 223.772 50.3681C228.758 54.4458 234.623 55.908 240.95 55.9146C245.254 55.7106 249.284 54.1775 252.923 51.4224C248.976 47.6371 245.782 42.5073 244.166 36.6468C242.891 37.7034 241.373 38.3564 239.658 38.44C235.321 38.567 231.429 35.305 230.918 30.9458C230.918 30.9354 230.912 30.9244 230.912 30.92C230.148 23.9222 226.52 18.0063 220.869 14.1798C218.049 12.2624 214.74 10.8667 211.151 10.1131C209.353 9.73267 207.49 9.51388 205.582 9.471C203.702 9.53093 201.8 9.8701 199.887 10.3451C194.643 11.6742 189.937 14.2529 186.287 17.798C192.037 20.4371 196.589 24.6737 199.354 30.1345" fill="#3d85c6" fill-rule="evenodd" opacity="1" stroke="none"/>
<path d="M166.185 40.8966C167.086 39.5114 168.482 38.3801 170.219 37.7463C174.54 36.1576 179.262 38.236 180.785 42.3308C180.807 42.3913 180.84 42.4363 180.862 42.4963C183.22 49.1592 187.98 54.2484 193.373 57.1943C198.903 60.4496 205.17 61.9295 211.244 60.3122C215.361 59.0259 219.204 57.3768 222.409 54.2589C217.917 50.9007 213.965 46.1403 211.497 40.5442C210.408 41.8416 209.023 42.7992 207.358 43.2263C203.169 44.3109 198.832 41.6783 197.65 37.3405C197.628 37.274 197.589 37.2141 197.573 37.1432C195.737 30.4242 191.268 25.0431 185.094 21.9103C178.927 18.8264 171.28 18.8094 163.832 21.4766C158.687 23.179 154.531 26.6708 151.546 30.9354C157.565 32.535 162.578 35.7734 166.185 40.8966" fill="#000000" fill-rule="evenodd" opacity="1" stroke="none"/>
<path d="M138.622 52.9836C140.607 51.7852 142.866 51.485 144.872 51.9957C146.906 52.5669 148.709 53.984 149.748 55.9316C149.754 55.936 149.765 55.947 149.765 55.9531C153.102 62.1867 158.643 66.6405 164.524 68.9597C170.511 71.4268 176.536 71.0315 182.566 69.1741C186.601 67.7118 189.992 65.0557 192.647 61.3451C187.766 58.8929 183.203 54.9422 179.933 49.8183C179.026 51.2036 177.772 52.275 176.156 52.8632C174.111 53.6108 171.923 53.4409 170 52.5845C168.13 51.8479 166.503 50.3856 165.607 48.3242C165.602 48.3132 165.596 48.3006 165.591 48.2896C162.787 41.8416 157.565 37.263 151.029 35.2687C144.581 33.3832 136.495 33.5036 129.871 37.8562C125.248 40.6498 121.499 44.4802 119.053 48.9229C125.336 49.7628 130.954 52.4833 135.214 56.8876C135.863 55.3369 137.045 53.9455 138.622 52.9836" fill="#3d85c6" fill-rule="evenodd" opacity="1" stroke="none"/>
<path d="M109.609 72.7235C113.281 69.975 118.399 70.5808 121.07 74.0164C121.114 74.0763 121.175 74.1214 121.219 74.1819C125.44 79.8482 131.509 83.323 137.561 84.5768C143.636 85.7922 150.221 85.5817 155.531 82.2125C157.384 81.1302 158.95 79.6185 160.462 78.1497C161.985 76.7089 163.293 75.0103 164.376 73.0759C159.104 71.2294 153.838 67.6948 149.924 63.2862C149.27 64.8407 148.226 66.1551 146.758 67.0461C143.058 69.301 138.122 68.051 135.709 64.2591C135.676 64.2097 135.637 64.1772 135.604 64.1283C131.866 58.2294 125.979 54.3859 119.13 53.1941C115.122 52.4899 110.697 53.2716 106.921 54.6178C103.084 55.9855 99.1424 58.2618 96.2345 61.1088C95.19 62.1312 94.2665 63.2691 93.4474 64.4735C92.6284 65.6719 91.9193 66.9411 91.2871 68.2445C91.1222 68.5903 89.9843 71.7747 89.8139 71.7791C96.0311 71.5361 101.896 73.2908 106.723 76.9733C107.058 75.2423 108.158 73.868 109.609 72.7235" fill="#000000" fill-rule="evenodd" opacity="1" stroke="none"/>
<path d="M81.8157 101.358C81.9971 99.6938 82.7281 98.0276 83.9705 96.6638C87.1094 93.2133 92.282 92.9769 95.4154 96.1421L95.4209 96.1487L95.4209 96.1487C100.401 101.083 107.047 103.756 113.38 104.267C116.557 104.519 119.679 104.222 122.571 103.338C125.479 102.474 128.051 100.881 130.674 99.1094C134.131 96.5478 136.616 93.0412 138.078 88.7425C132.664 87.8146 127.122 85.3623 122.477 81.4265C122.01 83.0047 121.12 84.3899 119.74 85.4184C116.167 87.8795 111.417 87.7591 108.405 84.2954C108.388 84.2739 108.361 84.2569 108.345 84.2355C103.765 78.9209 97.4273 76.0712 90.578 76.0564C87.1478 76.0393 83.6077 76.7265 80.1885 78.0963C76.7748 79.4706 73.8614 81.8992 71.1569 84.7676C67.5343 88.7705 65.0056 93.4645 63.9887 98.4399C70.2278 97.396 76.4505 98.3964 81.8157 101.358" fill="#3d85c6" fill-rule="evenodd" opacity="1" stroke="none"/>
<path d="M60.5695 128.976C60.3002 128.871 60.7344 126.595 60.8004 126.333C60.9158 125.869 61.0533 125.343 61.3061 124.931C63.7028 121.038 69.1065 118.905 73.3447 121.896C73.3996 121.94 73.4656 121.961 73.5206 122C79.221 126.182 86.0649 127.744 92.2601 127.194C98.2794 126.453 104.541 124.343 108.718 119.635C111.582 116.425 113.347 112.418 114.43 108.225C108.696 107.862 102.941 106.35 97.8396 103.217C97.6582 104.895 97.0315 106.438 95.8716 107.714C92.9637 110.918 87.8459 111.15 84.3443 108.169C79.1111 103.662 72.0474 101.48 65.4509 102.612C58.8269 103.707 52.192 107.752 47.4865 114.107C44.4741 118.575 43.0119 123.82 42.7975 128.927C48.7068 126.893 54.8581 126.865 60.5695 128.976" fill="#000000" fill-rule="evenodd" opacity="1" stroke="none"/>
<path d="M43.82 159.551C43.5121 157.907 43.732 156.11 44.5346 154.443C46.5575 150.256 51.4389 148.53 55.3528 150.595C55.3693 150.606 55.3803 150.606 55.3968 150.612C61.6469 153.893 68.4523 154.319 74.8179 153.03C81.1395 151.69 86.3892 148.287 89.8029 143.011C92.403 139.575 93.7827 135.527 93.9587 131.01C88.4726 131.686 82.4258 130.943 76.8188 128.536C76.8298 130.174 76.3681 131.753 75.3346 133.127C72.9104 136.704 68.1499 137.864 64.2965 135.463C64.2525 135.435 64.2031 135.425 64.1591 135.397C58.2388 131.686 51.3399 130.816 44.7655 132.779C41.4892 133.78 38.1745 135.403 35.426 137.782C32.7928 140.224 30.506 143.296 28.791 146.853C26.5427 151.761 25.1904 156.857 26.0314 162.064C31.3361 159.072 37.8941 158.33 43.82 159.551" fill="#3d85c6" fill-rule="evenodd" opacity="1" stroke="none"/>
<path d="M31.7539 192.242C31.1437 190.649 31.0173 188.817 31.4845 187.031C32.9468 182.66 37.7018 180.324 41.8355 181.692C41.885 181.709 41.94 181.716 41.9949 181.731C48.6794 184.039 55.6991 183.517 61.493 181.181C64.4394 180.022 66.8911 178.312 69.2164 176.317C71.6186 174.348 73.581 171.959 74.9499 169.116C76.9178 165.3 77.1706 160.821 76.9672 156.5C71.3548 157.819 65.7203 158.226 59.7615 156.648C60.0693 158.297 59.9098 159.957 59.1677 161.501C57.2878 165.398 52.4338 167.114 48.3055 165.334C48.2891 165.328 48.2726 165.328 48.2561 165.317C41.83 162.498 34.5684 162.547 28.6425 165.613C22.6233 168.615 17.3406 174.404 14.779 181.879C13.4047 187.107 13.3772 192.5 14.702 197.454C19.7758 193.764 25.6632 191.917 31.7539 192.242" fill="#000000" fill-rule="evenodd" opacity="1" stroke="none"/>
<path d="M24.7616 226.394C23.9865 224.921 23.6732 223.141 23.9481 221.316C24.6517 216.725 28.7965 213.635 33.1392 214.434C33.1612 214.438 33.1886 214.434 33.2161 214.438C40.2633 215.742 46.6454 214.071 52.4064 210.975C58.0244 207.814 62.2241 203.07 63.7523 196.975L63.7523 196.97C65.143 192.912 65.3849 188.68 64.2251 184.32C59.1512 186.562 53.132 187.636 47.0468 186.988C47.5579 188.553 47.4865 190.163 47.0082 191.812C45.9363 196.008 41.5552 198.469 37.2125 197.331C37.1465 197.316 37.0806 197.32 37.0146 197.298C30.2752 195.53 23.4258 196.734 17.7089 200.548C11.7116 204.307 7.81422 210.9 6.65979 218.727C5.97816 224.08 6.10458 229.34 8.53981 234.062C12.6351 229.639 18.7588 226.989 24.7616 226.394" fill="#3d85c6" fill-rule="evenodd" opacity="1" stroke="none"/>
<path d="M22.8816 261.18C21.8262 259.839 21.1665 258.13 21.0731 256.283C21.2985 251.688 25.053 248.058 29.4231 248.136C29.4891 248.136 29.5441 248.119 29.61 248.125C36.6738 248.361 43.2318 245.783 48.0747 241.831C50.5209 239.852 52.4173 237.494 53.9675 234.882C55.6936 232.289 56.87 229.424 57.3427 226.307C58.0628 222.074 57.1504 217.748 55.4737 213.642C50.7022 216.605 45.2767 218.639 39.1639 218.909C39.939 220.386 40.2743 222.018 40.016 223.719C39.3618 227.994 35.2171 231.067 30.748 230.59C30.7369 230.59 30.7204 230.59 30.7094 230.59C23.6952 229.792 16.8404 232.001 12.0854 236.68C7.19305 241.32 3.94977 248.394 3.59245 256.283C3.83979 261.67 5.41201 266.821 8.15504 271.157C11.904 266.149 16.9778 262.66 22.8816 261.18" fill="#000000" fill-rule="evenodd" opacity="1" stroke="none"/>
<path d="M26.2403 295.872C25.0585 294.691 24.2284 293.081 23.9481 291.249C23.25 286.654 26.3063 282.475 30.7094 281.981C30.7204 281.981 30.7369 281.975 30.748 281.975C37.7457 281.168 43.633 277.683 48.1846 273.032C52.6043 268.359 55.1989 262.576 54.8416 256.283C55.089 251.977 53.984 247.854 51.6093 244.024C47.426 247.681 41.9949 250.483 35.9921 251.653C36.9101 253.006 37.4104 254.567 37.3169 256.283C37.5478 260.609 34.1011 264.253 29.61 264.44C29.5441 264.447 29.4891 264.462 29.4231 264.468C22.4583 264.753 16.2741 267.914 11.9425 273.229C9.79315 275.896 7.9791 279.1 7.01711 282.613C6.22006 286.108 6.06613 289.935 6.65979 293.838C7.53937 299.164 9.42483 304.114 12.888 307.972C15.7575 302.486 20.6223 298.209 26.2403 295.872" fill="#3d85c6" fill-rule="evenodd" opacity="1" stroke="none"/>
<path d="M34.6069 329.701C33.2216 328.723 32.0013 327.304 31.4845 325.535C30.3302 321.081 32.8313 316.518 37.0256 315.305C37.0861 315.281 37.1465 315.25 37.2125 315.232C44.0343 313.381 49.5314 308.999 52.9835 303.811C56.1884 298.642 58.2607 292.482 57.3427 286.259C56.8205 281.992 54.4568 278.155 51.9061 274.687C47.9647 278.947 43.5836 282.454 37.7677 284.504C38.9495 285.692 39.7576 287.148 40.016 288.846C40.6701 293.13 37.6248 297.274 33.2161 298.127C33.1886 298.131 33.1667 298.142 33.1392 298.148C26.3338 299.424 20.1771 303.585 17.0548 309.439C13.762 315.305 12.767 323.027 14.779 330.686C16.494 335.803 19.6054 340.24 23.4863 343.587C25.5807 337.689 29.3956 332.857 34.6069 329.701" fill="#000000" fill-rule="evenodd" opacity="1" stroke="none"/>
<path d="M48.0802 361.859C46.6015 361.079 45.3371 359.786 44.5346 358.12C42.5172 353.926 44.2048 349.035 48.3055 347.231C54.7866 344.373 59.3052 339.327 62.2791 333.544C65.1485 327.766 65.8412 321.515 63.7523 315.595C62.7079 311.423 60.4211 307.817 57.0184 304.865C54.105 309.572 49.7458 313.843 44.3587 316.729C45.645 317.745 46.5795 319.086 47.0082 320.753C48.388 324.848 46.2551 329.323 41.9949 330.834C41.94 330.85 41.896 330.884 41.8465 330.905C35.261 333.231 30.2807 338.084 27.7191 344.45C26.4712 347.633 25.6357 351.255 25.8335 354.873C25.938 356.857 26.3503 358.863 26.9 360.77C27.8565 364.096 29.1428 366.742 31.0503 369.642C32.0728 371.199 33.2271 372.672 34.5519 373.986C34.9367 374.37 38.9935 377.284 38.9825 377.338C39.9115 371.341 43.4407 365.735 48.0802 361.859" fill="#3d85c6" fill-rule="evenodd" opacity="1" stroke="none"/>
<path d="M61.9218 388.603C59.3327 384.787 60.5365 379.559 64.1756 377.196C64.2196 377.168 64.2525 377.13 64.2965 377.102C70.2608 373.314 74.2297 367.489 76.0162 361.496C76.9343 358.472 77.1596 355.466 77.0057 352.421C76.9617 349.314 76.3131 346.286 74.9499 343.449C73.1797 339.535 69.8651 336.533 66.3249 334.016C63.8952 339.211 60.6794 343.894 55.7431 347.572C57.2218 348.358 58.4201 349.514 59.1677 351.062C61.0423 354.961 59.3546 359.825 55.3968 361.953C55.3803 361.957 55.3748 361.97 55.3583 361.975C49.1301 365.262 44.6885 370.952 43.3857 377.51C41.9949 384.072 43.1603 391.852 47.4865 398.459C50.7022 402.801 54.8801 406.187 59.5635 408.244C59.8604 401.972 62.0977 396.211 66.149 391.648C64.5274 391.13 63.0267 390.08 61.9218 388.603" fill="#000000" fill-rule="evenodd" opacity="1" stroke="none"/>
<path d="M83.9705 415.901C80.8537 412.477 81.0461 407.308 84.4268 404.329C89.8469 399.635 92.5514 393.578 93.6344 387.218C94.6788 380.84 93.6013 374.575 89.8029 369.554C87.4116 365.987 84.3168 363.112 80.1721 361.315C78.7648 366.692 75.8458 372.073 71.5471 376.426C73.1083 376.993 74.2627 378.092 75.3346 379.438C77.9347 382.902 77.1212 387.871 73.5206 390.565C73.4656 390.604 73.4272 390.658 73.3721 390.703C67.7872 394.869 64.4504 400.976 63.8512 407.826C63.5269 411.519 63.9777 415.092 65.3354 418.555C66.0446 420.37 66.9571 422.096 68.0235 423.729C69.8486 426.522 71.7121 428.682 74.3012 430.831C75.7579 432.041 77.3356 433.101 79.0286 433.954C79.5234 434.2 84.3608 435.766 84.3718 435.833C83.5253 429.803 85.0039 423.661 88.4177 418.467C86.7905 418.143 85.2128 417.269 83.9705 415.901" fill="#3d85c6" fill-rule="evenodd" opacity="1" stroke="none"/>
<path d="M108.405 428.27C113.001 422.893 115.106 416.138 115.084 409.844C115.062 406.694 114.501 403.647 113.358 400.872C112.22 398.1 110.879 395.221 108.718 392.927C105.832 389.735 102.05 387.607 97.6307 386.492C97.1305 391.934 95.179 397.574 91.6114 402.487C93.244 402.818 94.7173 403.576 95.8716 404.852C98.7796 408.058 98.5762 413.217 95.4209 416.413L95.4209 416.417L95.4209 416.417C90.3691 421.431 88.0603 427.922 88.61 434.718C88.8849 438.104 89.8688 441.54 91.5344 444.8C93.2111 448.042 95.4594 451.235 98.6971 453.501C103.012 456.749 107.971 458.8 113.028 459.431C111.494 453.307 111.967 447.119 114.512 441.555C112.819 441.523 111.088 440.945 109.609 439.839C105.794 437.185 105.552 431.639 108.355 428.341C108.377 428.319 108.388 428.291 108.405 428.27" fill="#000000" fill-rule="evenodd" opacity="1" stroke="none"/>
<path d="M143.603 460.767C141.959 460.928 140.2 460.537 138.622 459.579C134.681 457.189 133.367 452.193 135.637 448.454C135.665 448.405 135.676 448.355 135.709 448.306C139.452 442.309 140.464 435.42 139.403 429.369C138.551 422.936 135.736 417.199 130.674 413.453C127.078 411.057 123.511 408.932 118.987 408.47C119.19 414.059 117.959 420.085 115.117 425.521C116.689 425.712 118.393 426.082 119.74 427.147C123.214 429.732 123.868 434.755 121.219 438.384C121.175 438.444 121.147 438.51 121.103 438.571C116.997 444.194 115.584 451.033 116.986 457.793C118.366 464.611 123.159 470.531 129.871 474.709C132.202 476.066 134.56 477.265 137.127 477.831C139.705 478.375 142.322 478.579 144.911 478.43C142.426 472.723 141.816 466.814 143.603 460.767" fill="#3d85c6" fill-rule="evenodd" opacity="1" stroke="none"/>
<path d="M175.403 475.049C173.776 475.51 171.956 475.457 170.219 474.819C168.043 474.022 166.399 472.437 165.547 470.559C164.744 468.562 164.722 466.309 165.607 464.241C168.411 457.754 168.444 450.647 166.597 444.6C164.783 438.405 160.759 433.894 155.531 430.353C151.859 428.104 147.67 427.115 143.108 427.351C144.235 432.693 143.987 438.718 142.014 444.469C142.294 443.661 145.95 444.969 146.434 445.206C148.402 446.151 149.787 448.448 150.381 450.505C150.941 452.468 150.826 454.617 149.754 456.64C146.445 462.852 146.115 469.783 148.627 476.144C151.178 482.332 156.284 488.632 163.832 491.089C168.9 492.963 174.238 493.502 179.24 492.639C175.98 487.209 174.606 481.123 175.403 475.049" fill="#000000" fill-rule="evenodd" opacity="1" stroke="none"/>
<path d="M203.757 485.175C199.31 484.037 196.589 479.667 197.611 475.433C197.633 475.362 197.628 475.291 197.65 475.225C199.447 468.388 198.375 461.488 195.583 455.996C192.785 450.4 188.497 445.452 182.566 443.391C178.454 442.094 174.282 441.474 169.912 442.154C171.748 447.432 172.275 453.719 171.236 459.569C171.302 459.212 173.858 459.217 174.183 459.266C179.207 460.08 182.654 464.952 180.862 470.069C180.84 470.129 180.84 470.185 180.818 470.245C178.536 476.835 179.202 483.829 182.538 489.925C185.969 495.74 192.219 500.247 199.887 502.22C205.082 503.756 210.518 503.019 215.367 501.265C211.293 496.586 208.996 490.951 208.858 484.866C207.341 485.499 205.549 485.637 203.757 485.175" fill="#3d85c6" fill-rule="evenodd" opacity="1" stroke="none"/>
<path d="M238.454 490.327C233.798 490.172 230.407 486.165 230.918 481.651C230.918 481.641 230.918 481.63 230.918 481.623C231.677 474.593 229.604 467.786 226.042 462.543C224.256 459.921 222.079 457.69 219.583 456.002C218.33 455.156 216.999 454.452 215.592 453.902C214.212 453.243 212.772 452.637 211.244 452.253C207.088 451.164 202.801 451.428 198.524 452.983C201.168 457.778 202.713 463.627 202.531 469.713C204.054 469.079 205.697 468.909 207.358 469.337C211.519 470.563 214.344 474.559 213.536 478.969C213.531 478.991 213.536 479.012 213.531 479.03C212.222 485.933 213.96 492.65 218.236 497.984C222.496 503.193 229.252 507.647 237.163 507.756C242.555 508.042 247.799 506.981 252.324 504.679C247.613 500.451 244.507 495.046 243.473 489.012C242.055 489.929 240.301 490.419 238.454 490.327" fill="#000000" fill-rule="evenodd" opacity="1" stroke="none"/>
<path d="M278.314 488.512C277.049 489.566 275.378 490.232 273.531 490.327C268.947 490.563 265.06 487.187 264.802 482.839C264.796 482.768 264.78 482.706 264.774 482.635C264.489 475.57 261.438 469.305 257.144 464.89C252.813 460.262 247.244 456.893 240.95 456.651C238.801 456.513 236.657 456.865 234.579 457.254C232.507 457.585 230.473 458.244 228.483 459.234C231.798 463.747 234.167 469.612 234.914 475.457C236.338 474.537 237.938 474.037 239.658 474.125C243.985 474.34 247.36 478.145 247.217 482.635C247.211 482.706 247.233 482.768 247.228 482.839C247.002 489.803 249.696 496.279 254.665 501.106C259.651 505.761 266.935 508.119 274.823 507.756C277.517 507.58 280.133 507.224 282.574 506.279C285.009 505.267 287.285 503.957 289.341 502.375C284.075 499.083 280.249 494.52 278.314 488.512" fill="#3d85c6" fill-rule="evenodd" opacity="1" stroke="none"/>
<path d="M312.637 482.431C311.554 483.728 310.021 484.718 308.229 485.175C303.76 486.472 299.307 483.389 298.455 478.969C297.119 472.025 293.15 466.144 288.219 462.197C283.234 458.117 277.368 456.657 271.041 456.651C266.737 456.855 262.707 458.388 259.068 461.141C263.015 464.928 266.209 470.058 267.825 475.918C267.721 475.555 270.079 474.583 270.381 474.488C275.257 472.948 280.496 476.683 281.079 481.645C281.837 488.643 285.471 494.559 291.122 498.383C293.942 500.303 297.251 501.699 300.841 502.452C302.638 502.83 304.502 503.051 306.404 503.094C309.883 503.178 313.902 501.907 317.057 500.528C318.701 499.807 320.284 498.946 321.773 497.945C322.186 497.67 325.572 494.707 325.704 494.767C319.954 492.128 315.402 487.889 312.637 482.431" fill="#000000" fill-rule="evenodd" opacity="1" stroke="none"/>
<path d="M345.807 471.669C344.905 473.054 343.503 474.185 341.772 474.819C337.446 476.408 332.729 474.329 331.206 470.234C331.184 470.174 331.151 470.129 331.129 470.069C328.771 463.406 324.011 458.317 318.613 455.369C313.088 452.115 306.821 450.636 300.747 452.253C296.63 453.539 292.787 455.188 289.583 458.304C294.074 461.664 298.026 466.425 300.494 472.021C301.583 470.724 302.968 469.766 304.628 469.337C308.822 468.254 313.16 470.887 314.341 475.225C314.363 475.291 314.402 475.351 314.418 475.422C316.249 482.141 320.724 487.522 326.891 490.655C333.064 493.739 340.711 493.756 348.159 491.089C353.305 489.386 357.46 485.894 360.44 481.63C354.426 480.03 349.413 476.792 345.807 471.669" fill="#3d85c6" fill-rule="evenodd" opacity="1" stroke="none"/>
<path d="M373.369 459.579C371.384 460.78 369.12 461.08 367.119 460.569C365.079 459.998 363.282 458.579 362.237 456.633C362.237 456.629 362.226 456.618 362.221 456.612C358.89 450.378 353.349 445.925 347.461 443.606C341.48 441.138 335.45 441.534 329.425 443.391C325.385 444.853 321.999 447.509 319.344 451.22C324.225 453.67 328.788 457.623 332.058 462.747C332.96 461.362 334.219 460.29 335.829 459.702C337.874 458.955 340.068 459.124 341.992 459.981C343.861 460.718 345.482 462.18 346.384 464.241C346.389 464.252 346.395 464.265 346.4 464.276C349.204 470.724 354.426 475.302 360.962 477.297C367.41 479.182 375.496 479.062 382.12 474.709C386.743 471.916 390.487 468.085 392.938 463.642C386.65 462.803 381.037 460.08 376.777 455.678C376.123 457.228 374.947 458.617 373.369 459.579" fill="#000000" fill-rule="evenodd" opacity="1" stroke="none"/>
<path d="M402.382 439.839L402.382 439.839C398.71 442.588 393.587 441.984 390.921 438.549C390.877 438.489 390.817 438.444 390.773 438.384C386.551 432.717 380.482 429.243 374.43 427.989C368.356 426.773 361.77 426.983 356.46 430.353C354.602 431.435 353.041 432.947 351.529 434.415C350.006 435.856 348.698 437.555 347.615 439.489C352.881 441.336 358.153 444.87 362.061 449.279C362.721 447.724 363.765 446.41 365.233 445.519C368.933 443.265 373.869 444.512 376.282 448.306C376.31 448.355 376.354 448.388 376.381 448.437C380.119 454.336 386.012 458.179 392.861 459.371C399.496 460.241 406.972 458.25 413.289 453.501C417.747 450.421 420.44 445.562 422.177 440.786C415.96 441.027 410.095 439.275 405.263 435.592C404.933 437.323 403.834 438.697 402.382 439.839" fill="#3d85c6" fill-rule="evenodd" opacity="1" stroke="none"/>
<path d="M430.176 411.205C429.994 412.872 429.263 414.538 428.021 415.901C424.882 419.352 419.709 419.588 416.576 416.423C416.576 416.423 416.565 416.417 416.565 416.413C411.59 411.48 404.944 408.809 398.611 408.298C395.434 408.044 392.312 408.343 389.42 409.228C386.507 410.091 383.94 411.684 381.312 413.453C377.86 416.015 375.375 419.524 373.913 423.823C379.328 424.75 384.869 427.203 389.514 431.139C389.975 429.56 390.872 428.171 392.246 427.147C395.824 424.686 400.574 424.806 403.586 428.27C403.603 428.291 403.63 428.309 403.647 428.33C408.226 433.645 414.564 436.492 421.413 436.509C424.843 436.526 428.383 435.839 431.803 434.469C435.216 433.095 438.13 430.666 440.834 427.797C444.457 423.795 446.98 419.101 448.002 414.126C441.763 415.169 435.541 414.169 430.176 411.205" fill="#000000" fill-rule="evenodd" opacity="1" stroke="none"/>
<path d="M451.422 383.589C451.499 385.271 451.218 387.151 450.069 388.603C447.321 392.285 442.209 393.181 438.647 390.664C438.586 390.626 438.526 390.604 438.471 390.565C432.77 386.383 425.921 384.819 419.726 385.369C413.712 386.112 407.451 388.223 403.273 392.927C400.403 396.138 398.644 400.147 397.561 404.334C403.295 404.703 409.05 406.215 414.152 409.348C414.333 407.671 414.96 406.127 416.114 404.852C419.027 401.648 424.145 401.416 427.564 404.329C427.586 404.351 427.619 404.373 427.641 404.396C432.88 408.904 439.938 411.085 446.54 409.953C453.164 408.858 459.799 404.813 464.505 398.459C467.517 393.988 468.979 388.745 469.194 383.638C463.284 385.672 457.128 385.7 451.422 383.589" fill="#3d85c6" fill-rule="evenodd" opacity="1" stroke="none"/>
<path d="M468.171 353.014C468.479 354.659 468.254 356.456 467.457 358.12C465.434 362.309 460.552 364.036 456.638 361.97C456.622 361.957 456.605 361.957 456.594 361.947C450.344 358.672 443.539 358.246 437.168 359.533C430.852 360.875 425.602 364.278 422.188 369.554C419.588 372.99 418.203 377.035 418.027 381.556C423.519 380.879 429.565 381.616 435.172 384.029C435.161 382.391 435.623 380.812 436.657 379.438C439.081 375.861 443.841 374.701 447.695 377.102C447.739 377.13 447.788 377.141 447.832 377.168C453.752 380.879 460.651 381.746 467.226 379.784C470.502 378.786 473.817 377.162 476.565 374.783C479.198 372.341 481.485 369.269 483.2 365.713C485.448 360.804 486.801 355.708 485.96 350.502C480.65 353.493 474.097 354.236 468.171 353.014" fill="#000000" fill-rule="evenodd" opacity="1" stroke="none"/>
<path d="M480.237 320.323C480.847 321.917 480.968 323.749 480.507 325.535C479.044 329.905 474.289 332.241 470.156 330.873C470.101 330.856 470.046 330.85 469.996 330.834C463.312 328.524 456.287 329.048 450.498 331.384C447.552 332.544 445.1 334.246 442.775 336.248C440.373 338.217 438.41 340.613 437.041 343.449C435.073 347.263 434.821 351.745 435.024 356.065C440.636 354.746 446.271 354.339 452.224 355.917C451.922 354.268 452.076 352.608 452.823 351.062C454.703 347.16 459.557 345.451 463.686 347.231C463.702 347.237 463.719 347.237 463.735 347.248C470.161 350.068 477.423 350.018 483.349 346.952C489.368 343.95 494.651 338.161 497.212 330.686C498.586 325.458 498.614 320.065 497.284 315.112C492.21 318.801 486.323 320.648 480.237 320.323" fill="#3d85c6" fill-rule="evenodd" opacity="1" stroke="none"/>
<path d="M487.23 286.171C488.005 287.644 488.318 289.424 488.038 291.249C487.339 295.84 483.195 298.928 478.775 298.127C471.728 296.823 465.346 298.494 459.585 301.588C453.967 304.749 449.767 309.495 448.239 315.595C446.848 319.653 446.601 323.886 447.761 328.245C452.84 326.001 458.859 324.929 464.939 325.578C464.554 325.535 464.593 322.984 464.62 322.677C465.043 317.607 469.666 313.892 474.779 315.232C474.845 315.25 474.911 315.245 474.977 315.267C481.716 317.036 488.565 315.831 494.277 312.018C500.28 308.251 504.171 301.666 505.326 293.838C506.013 288.483 505.887 283.223 503.451 278.503C499.356 282.926 493.232 285.576 487.23 286.171" fill="#000000" fill-rule="evenodd" opacity="1" stroke="none"/>
<path d="M200.514 87.2168C171.621 87.2168 152.675 119.899 152.675 135.055C152.675 139.792 154.096 140.739 157.412 140.739C160.727 140.739 177.779 122.267 190.094 122.267C227.986 122.267 245.511 186.209 251.668 228.364C252.615 235.943 252.142 235.943 249.3 244.942C234.617 290.412 186.778 364.301 162.622 400.299C157.885 407.404 157.885 405.983 157.885 412.614C157.885 421.139 173.516 426.823 180.147 426.823C183.936 426.823 189.62 412.614 191.041 409.772C212.829 370.933 245.984 307.937 256.405 279.045C257.352 276.676 258.773 277.15 259.246 279.518C263.509 312.2 273.456 364.301 282.929 395.562C290.034 419.245 299.033 425.402 314.663 425.402C335.03 425.402 361.081 411.193 361.081 375.669C361.081 373.301 358.239 371.406 355.871 371.406C352.082 371.406 338.819 387.984 321.768 387.51C314.19 387.51 299.507 380.406 293.823 360.512C273.456 288.991 261.141 195.209 255.457 163.948C249.3 130.792 232.722 87.2168 200.514 87.2168Z" fill="#3d85c6" fill-rule="evenodd" opacity="1" stroke="#000000" stroke-linecap="butt" stroke-linejoin="miter" stroke-width="5"/>
</g>
</svg>
