<?xml version="1.0" encoding="UTF-8" standalone="no"?>
<!DOCTYPE svg PUBLIC "-//W3C//DTD SVG 1.1//EN" "http://www.w3.org/Graphics/SVG/1.1/DTD/svg11.dtd">
<!-- Created with Vectornator (http://vectornator.io/) -->
<svg height="100%" stroke-miterlimit="10" style="fill-rule:nonzero;clip-rule:evenodd;stroke-linecap:round;stroke-linejoin:round;" version="1.1" viewBox="0 0 512 512" width="100%" xml:space="preserve" xmlns="http://www.w3.org/2000/svg" xmlns:vectornator="http://vectornator.io" xmlns:xlink="http://www.w3.org/1999/xlink">
<defs>
<clipPath id="TextBounds">
<rect height="120.281" width="501.959" x="4" y="401.123"/>
</clipPath>
</defs>
<g id="Layer-1" vectornator:layerName="Layer 1">
<path d="M450.653 212.71C451.539 213.83 452.09 215.258 452.163 216.799C451.98 220.637 448.84 223.667 445.195 223.602C445.14 223.602 445.09 223.617 445.039 223.611C439.141 223.414 433.665 225.567 429.621 228.866C427.574 230.52 425.995 232.488 424.7 234.669C423.259 236.835 422.277 239.227 421.877 241.83C421.281 245.364 422.043 248.977 423.443 252.405C427.422 249.931 431.957 248.233 437.062 248.007C436.414 246.773 436.134 245.409 436.35 243.99C436.896 240.421 440.353 237.855 444.085 238.253C444.098 238.253 444.112 238.253 444.121 238.253C449.978 238.92 455.702 237.075 459.673 233.168C463.753 229.293 466.466 223.387 466.76 216.799C466.558 212.301 465.245 207.999 462.955 204.379C459.824 208.561 455.587 211.474 450.653 212.71" fill="#0f5d77" fill-rule="evenodd" opacity="1" stroke="none"/>
<path d="M447.853 183.742C448.84 184.728 449.533 186.073 449.763 187.602C450.35 191.439 447.798 194.928 444.085 195.346C438.246 196.02 433.325 198.93 429.529 202.814C425.834 206.715 423.667 211.544 423.97 216.799C423.764 220.393 424.686 223.835 426.665 227.036C430.163 223.982 434.698 221.642 439.71 220.663C438.939 219.536 438.526 218.232 438.599 216.799C438.411 213.186 441.289 210.144 445.039 209.988C445.09 209.983 445.14 209.97 445.195 209.965C451.011 209.726 456.175 207.087 459.792 202.649C461.587 200.422 463.102 197.745 463.905 194.814C464.984 190.889 464.621 186.54 463.62 182.676C463.327 181.543 462.964 180.423 462.519 179.334C462.078 178.269 461.559 177.233 460.953 176.25C460.784 175.979 458.961 173.711 459.003 173.638C456.606 178.219 452.544 181.791 447.853 183.742" fill="#000000" fill-rule="evenodd" opacity="1" stroke="none"/>
<path d="M440.867 155.494C442.024 156.31 443.043 157.49 443.474 158.973C444.438 162.691 442.349 166.502 438.847 167.515C438.792 167.533 438.746 167.561 438.691 167.574C432.995 169.121 428.405 172.781 425.522 177.113C422.846 181.429 421.115 186.573 421.877 191.769C422.313 195.332 424.287 198.536 426.422 201.432C429.713 197.874 433.371 194.946 438.227 193.234C437.241 192.242 436.566 191.027 436.35 189.608C435.804 186.031 438.342 182.571 442.028 181.859C442.051 181.855 442.069 181.846 442.092 181.841C447.775 180.776 452.916 177.301 455.523 172.413C458.273 167.515 459.104 161.065 457.424 154.671C455.991 150.398 453.393 146.694 450.153 143.899C448.404 148.824 445.218 152.858 440.867 155.494" fill="#0f5d77" fill-rule="evenodd" opacity="1" stroke="none"/>
<path d="M429.616 128.642C430.851 129.293 431.907 130.372 432.577 131.762C434.262 135.265 432.852 139.35 429.428 140.856C424.016 143.242 420.243 147.456 417.76 152.285C416.53 154.68 415.759 157.371 415.566 160.052C415.35 163.053 415.827 165.569 416.837 168.359C417.384 169.856 418.012 171.274 418.907 172.601C419.146 172.955 422.088 176.327 422.153 176.232C424.586 172.302 428.225 168.736 432.719 166.326C431.65 165.478 430.865 164.357 430.511 162.966C429.359 159.547 431.14 155.81 434.698 154.547C434.739 154.535 434.776 154.506 434.822 154.488C440.321 152.547 444.479 148.494 446.618 143.178C447.66 140.52 448.353 137.496 448.193 134.475C447.968 131.488 447.155 128.393 445.723 125.423C443.676 121.402 441.078 117.855 437.208 115.716C436.433 120.724 433.486 125.406 429.616 128.642" fill="#000000" fill-rule="evenodd" opacity="1" stroke="none"/>
<path d="M418.058 106.31L418.058 106.31C420.216 109.496 419.215 113.86 416.172 115.834C416.14 115.858 416.112 115.89 416.075 115.913C411.09 119.076 407.781 123.94 406.289 128.945C405.518 131.47 405.33 133.979 405.463 136.522C405.5 139.117 406.037 141.645 407.18 144.014C408.653 147.282 411.421 149.787 414.382 151.89C416.41 147.553 419.096 143.642 423.218 140.571C421.983 139.915 420.982 138.95 420.358 137.655C418.788 134.401 420.197 130.34 423.507 128.563C423.516 128.558 423.525 128.548 423.539 128.545C428.74 125.8 432.448 121.049 433.536 115.573C434.698 110.093 433.724 103.597 430.112 98.08C427.427 94.4543 423.938 91.6267 420.027 89.9091C419.78 95.1465 417.911 99.9569 414.528 103.767C415.883 104.2 417.136 105.076 418.058 106.31" fill="#0f5d77" fill-rule="evenodd" opacity="1" stroke="none"/>
<path d="M399.647 83.5151C402.25 86.3752 402.089 90.689 399.321 93.113C399.303 93.1309 399.289 93.1543 399.266 93.1778C394.74 97.0973 392.477 102.155 391.578 107.466C390.705 112.791 391.605 118.024 394.777 122.216C396.774 125.194 399.358 127.595 402.819 129.096C403.994 124.606 406.431 120.113 410.016 116.478C408.717 116.005 407.753 115.086 406.858 113.962C404.687 111.07 405.366 106.921 408.373 104.671C408.419 104.639 408.451 104.594 408.497 104.556C413.161 101.078 415.947 95.9782 416.447 90.2584C417.14 84.3684 414.749 78.498 410.347 73.5815C407.326 70.2326 403.636 67.7851 399.312 66.8721C400.019 71.9071 398.784 77.0333 395.934 81.3724C397.292 81.6432 398.61 82.373 399.647 83.5151" fill="#000000" fill-rule="evenodd" opacity="1" stroke="none"/>
<path d="M379.244 73.1872C375.406 77.6769 373.648 83.3177 373.667 88.5734C373.681 91.2035 374.153 93.746 375.103 96.0645C376.058 98.3793 377.174 100.784 378.982 102.697C381.387 105.365 384.55 107.142 388.241 108.072C388.654 103.529 390.283 98.8186 393.267 94.7159C391.903 94.4401 390.673 93.8015 389.705 92.7421C387.281 90.0652 387.451 85.7564 390.081 83.0882C390.086 83.085 390.086 83.085 390.09 83.0795C394.3 78.8978 396.232 73.476 395.773 67.803C395.543 64.975 394.722 62.1062 393.331 59.3847C391.926 56.677 390.054 54.011 387.345 52.1194C383.747 49.4062 379.606 47.6941 375.383 47.1671C376.664 52.2787 376.269 57.4536 374.144 62.0938C375.558 62.1209 377.004 62.6028 378.239 63.5245C381.424 65.7425 381.626 70.3739 379.285 73.128C379.267 73.1459 379.258 73.1693 379.244 73.1872" fill="#0f5d77" fill-rule="evenodd" opacity="1" stroke="none"/>
<path d="M349.853 46.0499C351.225 45.9172 352.69 46.2436 354.012 47.0413C357.303 49.039 358.4 53.2114 356.504 56.3327C356.481 56.374 356.472 56.4153 356.444 56.4567C353.319 61.4645 352.474 67.2164 353.36 72.2692C354.067 77.6392 356.421 82.4322 360.644 85.5572C363.651 87.5603 366.63 89.3353 370.408 89.7209C370.238 85.0537 371.266 80.0224 373.635 75.4823C372.326 75.3226 370.903 75.0146 369.774 74.125C366.878 71.9663 366.332 67.7704 368.544 64.7423C368.581 64.6918 368.599 64.6363 368.636 64.5862C372.069 59.8901 373.249 54.1795 372.079 48.5331C370.926 42.8423 366.924 37.8932 361.319 34.4098C359.373 33.2764 357.404 32.2758 355.26 31.8026C353.107 31.349 350.922 31.1788 348.76 31.3022C350.835 36.0682 351.34 41.0026 349.853 46.0499" fill="#000000" fill-rule="evenodd" opacity="1" stroke="none"/>
<path d="M322.697 46.8853C321.903 46.6112 320.935 46.2491 320.37 45.7075C319.714 45.0818 319.264 44.2606 318.952 43.4211C318.364 41.8361 318.176 39.9051 318.741 38.2843C318.759 38.2342 318.759 38.1838 318.777 38.1374C320.682 32.6343 320.127 26.7947 317.341 21.7042C314.476 16.8488 309.253 13.0853 302.854 11.4375C298.512 10.1554 293.972 10.7705 289.928 12.2352C293.33 16.1424 295.248 20.8473 295.358 25.9285C296.63 25.3998 298.126 25.285 299.618 25.6706C303.336 26.6207 305.608 30.2694 304.75 33.8034C304.736 33.8644 304.741 33.9236 304.722 33.9792C303.221 39.6884 304.112 45.449 306.448 50.0359C308.785 54.7083 312.365 58.8394 317.318 60.5607C320.751 61.644 324.235 62.1622 327.884 61.5935C326.351 57.1865 325.911 51.9344 326.778 47.0469C326.659 47.712 323.441 47.1474 323.055 47.0147C322.941 46.9734 322.821 46.9321 322.697 46.8853" fill="#000000" fill-rule="evenodd" opacity="1" stroke="none"/>
<path d="M323.299 34.1261C324.657 33.741 326.177 33.7855 327.627 34.3179C329.445 34.9835 330.817 36.3064 331.529 37.8753C332.195 39.541 332.217 41.4239 331.478 43.1507C329.133 48.5653 329.105 54.5003 330.652 59.5495C332.162 64.7244 335.527 68.4915 339.892 71.448C342.954 73.3254 346.456 74.1521 350.266 73.9547C349.325 69.4917 349.532 64.4623 351.179 59.6606C349.802 59.7932 348.444 59.5316 347.218 58.7838C345.667 57.8392 344.634 56.324 344.193 54.6206C343.72 52.9819 343.821 51.1867 344.712 49.498C347.475 44.3107 347.755 38.523 345.657 33.2172C342.958 26.3857 337.271 21.6629 330.239 19.8879C329.096 19.5974 327.935 19.3858 326.76 19.2531C325.608 19.1296 324.446 19.0791 323.29 19.1149C322.973 19.126 320.15 19.5326 320.09 19.4376C322.817 23.9722 323.96 29.054 323.299 34.1261" fill="#0f5d77" fill-rule="evenodd" opacity="1" stroke="none"/>
<path d="M270.645 21.3779C274.276 21.6092 277.388 24.6787 276.943 28.6358C276.309 34.5066 278.04 40.1883 281.01 44.5686C282.506 46.7581 284.324 48.6263 286.408 50.0305C287.454 50.7369 288.56 51.3249 289.735 51.7839C292.554 52.8901 295.542 53.8637 298.581 53.5144C299.012 53.4639 304.025 52.6106 303.992 52.5495C301.785 48.5474 300.495 43.6635 300.646 38.5817C299.37 39.111 298.002 39.2523 296.612 38.8939C293.141 37.8721 290.782 34.535 291.461 30.8019C292.549 25.0376 291.103 19.4289 287.532 14.9751C283.975 10.6232 278.333 6.90654 271.724 6.81473C267.225 6.57651 262.846 7.46241 259.069 9.3843C263.002 12.9146 265.596 17.4262 266.459 22.4662C266.413 22.1867 268.377 21.6092 268.611 21.5537C269.295 21.3921 269.979 21.3384 270.645 21.3779" fill="#0f5d77" fill-rule="evenodd" opacity="1" stroke="none"/>
<path d="M237.362 22.8839C238.422 22.0035 239.817 21.4477 241.355 21.3687C245.188 21.1718 248.433 23.9901 248.649 27.6214C248.649 27.6801 248.667 27.7325 248.672 27.7917C248.91 33.6886 251.458 38.9228 255.043 42.6073C256.925 44.5402 258.972 46.2702 261.382 47.5238C262.608 48.1586 263.897 48.6676 265.238 49.0064C268.267 49.7739 270.787 49.4746 273.886 48.9834C275.616 48.7089 277.314 48.1586 278.971 47.3319C276.204 43.5629 274.23 38.6643 273.606 33.7855C272.417 34.5529 271.081 34.9707 269.644 34.8972C266.032 34.7177 263.213 31.5409 263.333 27.7917C263.337 27.7325 263.319 27.6769 263.324 27.6214C263.512 21.8066 261.263 16.3985 257.113 12.3679C252.95 8.48051 246.863 6.5118 240.276 6.81473C238.032 6.9621 235.847 7.25951 233.809 8.04858C231.775 8.89315 229.875 9.98698 228.154 11.308C232.551 14.0571 235.75 17.8673 237.362 22.8839" fill="#000000" fill-rule="evenodd" opacity="1" stroke="none"/>
<path d="M208.705 27.962C209.609 26.8769 210.89 26.0525 212.382 25.6706C216.118 24.5873 219.836 27.1624 220.534 30.8019C220.539 30.8198 220.543 30.8345 220.548 30.8524C221.663 36.6506 224.977 41.5621 229.095 44.8574C233.258 48.2623 238.156 49.4833 243.439 49.4888C247.033 49.3185 250.398 48.0383 253.436 45.7377C250.141 42.577 247.474 38.2935 246.124 33.3999C245.059 34.2821 243.792 34.8274 242.36 34.8972C238.739 35.0032 235.489 32.2795 235.062 28.6395C235.062 28.6308 235.057 28.6216 235.057 28.6179C234.419 22.7747 231.39 17.8347 226.671 14.6395C224.316 13.0385 221.553 11.8731 218.556 11.2438C217.055 10.9261 215.499 10.7434 213.906 10.7076C212.336 10.7577 210.748 11.0409 209.15 11.4375C204.771 12.5474 200.842 14.7006 197.794 17.6608C202.596 19.8645 206.396 23.4021 208.705 27.962" fill="#0f5d77" fill-rule="evenodd" opacity="1" stroke="none"/>
<path d="M181.008 36.9486C181.761 35.7918 182.927 34.8472 184.377 34.3179C187.985 32.9914 191.928 34.7269 193.2 38.1461C193.218 38.1966 193.245 38.2342 193.264 38.2843C195.233 43.848 199.208 48.0976 203.711 50.5574C208.329 53.2757 213.562 54.5113 218.634 53.1609C222.072 52.0868 225.28 50.7098 227.956 48.1063C224.206 45.3021 220.906 41.3271 218.845 36.6543C217.936 37.7376 216.779 38.5372 215.388 38.8939C211.891 39.7995 208.269 37.6013 207.282 33.9792C207.264 33.9236 207.232 33.8736 207.218 33.8144C205.685 28.2039 201.953 23.7106 196.798 21.0947C191.648 18.5196 185.263 18.5054 179.043 20.7325C174.747 22.1541 171.277 25.0697 168.784 28.6308C173.811 29.9665 177.997 32.6705 181.008 36.9486" fill="#000000" fill-rule="evenodd" opacity="1" stroke="none"/>
<path d="M157.993 47.0413C159.65 46.0407 161.537 45.7901 163.212 46.2165C164.91 46.6934 166.416 47.8768 167.283 49.503C167.288 49.5067 167.297 49.5159 167.297 49.5209C170.083 54.7262 174.71 58.4451 179.622 60.3817C184.621 62.4417 189.651 62.1117 194.687 60.5607C198.056 59.3397 200.888 57.1218 203.105 54.0234C199.029 51.9757 195.219 48.6768 192.488 44.3983C191.731 45.5551 190.684 46.4497 189.335 46.9408C187.627 47.5651 185.8 47.4232 184.194 46.7081C182.633 46.093 181.274 44.872 180.526 43.1507C180.521 43.1416 180.517 43.131 180.512 43.1218C178.171 37.7376 173.811 33.9145 168.353 32.2492C162.969 30.6747 156.217 30.7753 150.685 34.4098C146.825 36.7424 143.695 39.9409 141.652 43.6506C146.898 44.352 151.59 46.6237 155.147 50.3013C155.689 49.0064 156.676 47.8446 157.993 47.0413" fill="#0f5d77" fill-rule="evenodd" opacity="1" stroke="none"/>
<path d="M133.766 63.5245C136.832 61.2295 141.106 61.7353 143.337 64.6042C143.373 64.6542 143.424 64.6918 143.46 64.7423C146.986 69.4738 152.053 72.3753 157.107 73.4223C162.179 74.4371 167.678 74.2613 172.112 71.448C173.659 70.5442 174.967 69.282 176.23 68.0555C177.501 66.8524 178.594 65.434 179.498 63.8188C175.096 62.2769 170.699 59.3255 167.43 55.6442C166.884 56.9423 166.012 58.0398 164.786 58.7838C161.697 60.6667 157.575 59.6229 155.56 56.4567C155.533 56.4153 155.5 56.3882 155.473 56.3474C152.352 51.4217 147.436 48.2123 141.716 47.2171C138.37 46.6291 134.675 47.2819 131.521 48.406C128.317 49.548 125.026 51.4488 122.598 53.826C121.726 54.6798 120.955 55.63 120.271 56.6356C119.587 57.6363 118.995 58.6962 118.467 59.7845C118.329 60.0732 117.379 62.7323 117.237 62.736C122.428 62.5331 127.326 63.9982 131.356 67.0732C131.636 65.6277 132.554 64.4802 133.766 63.5245" fill="#000000" fill-rule="evenodd" opacity="1" stroke="none"/>
<path d="M110.558 87.4346C110.71 86.0452 111.32 84.6539 112.357 83.5151C114.978 80.6338 119.298 80.4364 121.914 83.0795L121.919 83.085L121.919 83.085C126.077 87.2051 131.627 89.4372 136.915 89.8641C139.568 90.0739 142.175 89.8265 144.59 89.0879C147.018 88.3668 149.166 87.0366 151.356 85.5572C154.243 83.4182 156.318 80.4901 157.539 76.9007C153.017 76.1258 148.39 74.0782 144.512 70.7917C144.121 72.1095 143.378 73.2662 142.226 74.125C139.242 76.18 135.276 76.0795 132.761 73.1872C132.747 73.1693 132.724 73.1551 132.71 73.1372C128.887 68.6995 123.594 66.3199 117.875 66.3076C115.011 66.2933 112.055 66.8671 109.199 68.011C106.349 69.1585 103.916 71.1864 101.658 73.5815C98.6328 76.9241 96.5214 80.8436 95.6722 84.9981C100.882 84.1264 106.078 84.9619 110.558 87.4346" fill="#0f5d77" fill-rule="evenodd" opacity="1" stroke="none"/>
<path d="M92.8171 110.496C92.5922 110.409 92.9548 108.508 93.0099 108.289C93.1063 107.902 93.2211 107.463 93.4322 107.118C95.4335 103.868 99.9457 102.087 103.485 104.585C103.531 104.621 103.586 104.639 103.632 104.671C108.392 108.164 114.106 109.467 119.279 109.008C124.306 108.389 129.534 106.627 133.022 102.697C135.414 100.016 136.887 96.6704 137.792 93.1686C133.004 92.8656 128.198 91.6033 123.938 88.9874C123.787 90.3879 123.264 91.6768 122.295 92.7421C119.867 95.4173 115.594 95.611 112.67 93.1222C108.3 89.3588 102.401 87.5369 96.8932 88.4816C91.362 89.3964 85.8217 92.7743 81.8925 98.08C79.3771 101.811 78.1561 106.191 77.9771 110.455C82.9115 108.757 88.0479 108.734 92.8171 110.496" fill="#000000" fill-rule="evenodd" opacity="1" stroke="none"/>
<path d="M78.8309 136.027C78.5738 134.654 78.7574 133.153 79.4276 131.762C81.1168 128.265 85.1929 126.824 88.4611 128.548C88.4748 128.558 88.484 128.558 88.4978 128.563C93.7168 131.303 99.3994 131.658 104.715 130.582C109.994 129.463 114.377 126.621 117.228 122.216C119.399 119.347 120.551 115.967 120.698 112.195C116.117 112.759 111.068 112.139 106.386 110.129C106.395 111.497 106.009 112.815 105.146 113.962C103.122 116.95 99.1469 117.918 95.9293 115.913C95.8925 115.89 95.8512 115.881 95.8145 115.858C90.8709 112.759 85.1102 112.033 79.6204 113.672C76.8846 114.508 74.1168 115.863 71.8217 117.85C69.623 119.888 67.7135 122.454 66.2813 125.423C64.404 129.522 63.2748 133.777 63.9771 138.125C68.4066 135.627 73.8827 135.007 78.8309 136.027" fill="#0f5d77" fill-rule="evenodd" opacity="1" stroke="none"/>
<path d="M68.7554 163.324C68.2459 161.994 68.1404 160.465 68.5305 158.973C69.7515 155.324 73.722 153.373 77.1738 154.515C77.2151 154.53 77.261 154.535 77.3069 154.547C82.8886 156.475 88.7502 156.039 93.5882 154.088C96.0486 153.12 98.0958 151.693 100.037 150.027C102.043 148.383 103.682 146.388 104.825 144.014C106.468 140.827 106.679 137.087 106.51 133.48C101.823 134.58 97.1181 134.921 92.1424 133.603C92.3994 134.98 92.2663 136.366 91.6466 137.655C90.0768 140.91 86.0237 142.342 82.5764 140.856C82.5627 140.85 82.5489 140.85 82.5351 140.842C77.1693 138.487 71.1056 138.529 66.1574 141.089C61.1312 143.596 56.72 148.43 54.581 154.671C53.4334 159.037 53.4105 163.54 54.5167 167.676C58.7534 164.596 63.6695 163.053 68.7554 163.324" fill="#000000" fill-rule="evenodd" opacity="1" stroke="none"/>
<path d="M62.9168 191.842C62.2695 190.612 62.0079 189.126 62.2374 187.602C62.825 183.768 66.2859 181.188 69.9122 181.855C69.9305 181.859 69.9535 181.855 69.9764 181.859C75.861 182.947 81.1902 181.552 86.0007 178.967C90.6919 176.327 94.1988 172.366 95.4748 167.276L95.4748 167.273C96.6361 163.884 96.8381 160.35 95.8696 156.71C91.6328 158.582 86.6066 159.478 81.5253 158.937C81.9522 160.244 81.8925 161.589 81.4932 162.966C80.5981 166.469 76.9397 168.524 73.3135 167.574C73.2584 167.561 73.2033 167.565 73.1483 167.547C67.5207 166.07 61.8013 167.075 57.0276 170.26C52.0197 173.399 48.7653 178.904 47.8013 185.44C47.2321 189.909 47.3377 194.302 49.3712 198.245C52.7908 194.551 57.9043 192.339 62.9168 191.842" fill="#0f5d77" fill-rule="evenodd" opacity="1" stroke="none"/>
<path d="M61.3469 220.889C60.4656 219.769 59.9148 218.342 59.8368 216.799C60.0249 212.962 63.16 209.932 66.8092 209.997C66.8643 209.997 66.9102 209.983 66.9653 209.988C72.8637 210.185 78.3397 208.032 82.3837 204.732C84.4263 203.079 86.0099 201.11 87.3043 198.93C88.7457 196.764 89.728 194.372 90.1227 191.769C90.724 188.235 89.9621 184.622 88.562 181.194C84.5777 183.668 80.0472 185.366 74.943 185.592C75.5902 186.825 75.8702 188.188 75.6545 189.608C75.1082 193.178 71.6473 195.744 67.9155 195.346C67.9063 195.346 67.8925 195.346 67.8833 195.346C62.0262 194.679 56.3023 196.524 52.3318 200.431C48.2466 204.305 45.5384 210.212 45.24 216.799C45.4465 221.298 46.7594 225.6 49.0499 229.22C52.1803 225.038 56.4171 222.125 61.3469 220.889" fill="#000000" fill-rule="evenodd" opacity="1" stroke="none"/>
<path d="M64.1515 249.858C63.1646 248.871 62.4715 247.527 62.2374 245.997C61.6545 242.16 64.2066 238.671 67.8833 238.258C67.8925 238.258 67.9063 238.253 67.9155 238.253C73.7587 237.579 78.6748 234.669 82.4755 230.785C86.166 226.883 88.3325 222.055 88.0342 216.799C88.2407 213.204 87.3181 209.762 85.3351 206.563C81.842 209.617 77.3069 211.956 72.2944 212.934C73.061 214.063 73.4787 215.367 73.4007 216.799C73.5935 220.412 70.7154 223.455 66.9653 223.611C66.9102 223.617 66.8643 223.629 66.8092 223.635C60.9934 223.873 55.8295 226.512 52.2124 230.95C50.4177 233.177 48.9029 235.852 48.0997 238.786C47.4341 241.705 47.3056 244.9 47.8013 248.159C48.5358 252.606 50.1102 256.739 53.002 259.961C55.3981 255.38 59.4603 251.808 64.1515 249.858" fill="#0f5d77" fill-rule="evenodd" opacity="1" stroke="none"/>
<path d="M71.1378 278.105C69.981 277.289 68.962 276.104 68.5305 274.626C67.5666 270.907 69.6551 267.097 73.1574 266.084C73.2079 266.064 73.2584 266.038 73.3135 266.023C79.0099 264.478 83.6 260.818 86.4827 256.486C89.1588 252.171 90.8892 247.026 90.1227 241.83C89.6866 238.267 87.7129 235.063 85.583 232.168C82.2918 235.725 78.6335 238.653 73.7771 240.365C74.764 241.357 75.4388 242.573 75.6545 243.99C76.2007 247.568 73.6578 251.028 69.9764 251.74C69.9535 251.744 69.9351 251.753 69.9122 251.758C64.2295 252.823 59.0886 256.298 56.4813 261.186C53.7318 266.084 52.901 272.532 54.581 278.928C56.0131 283.2 58.6112 286.905 61.8518 289.7C63.6007 284.775 66.7862 280.74 71.1378 278.105" fill="#000000" fill-rule="evenodd" opacity="1" stroke="none"/>
<path d="M82.3883 304.957C81.1535 304.306 80.0977 303.227 79.4276 301.835C77.743 298.334 79.1522 294.249 82.5764 292.743C87.9883 290.356 91.7614 286.143 94.2447 281.314C96.6407 276.489 97.2191 271.27 95.4748 266.327C94.6027 262.843 92.6932 259.832 89.8518 257.367C87.4191 261.297 83.7791 264.863 79.2807 267.273C80.3548 268.121 81.1351 269.242 81.4932 270.633C82.6453 274.053 80.8643 277.789 77.3069 279.051C77.261 279.064 77.2243 279.093 77.183 279.111C71.684 281.053 67.5253 285.105 65.3863 290.421C64.3443 293.078 63.6466 296.103 63.8118 299.124C63.8991 300.781 64.2433 302.456 64.7023 304.048C65.501 306.825 66.5751 309.035 68.1679 311.457C69.0217 312.757 69.9856 313.987 71.0918 315.084C71.4132 315.405 74.8007 317.838 74.7915 317.883C75.5672 312.875 78.5141 308.194 82.3883 304.957" fill="#0f5d77" fill-rule="evenodd" opacity="1" stroke="none"/>
<path d="M93.9463 327.289C91.7843 324.103 92.7896 319.737 95.8283 317.765C95.865 317.741 95.8925 317.709 95.9293 317.686C100.91 314.523 104.224 309.658 105.716 304.654C106.482 302.13 106.67 299.619 106.542 297.077C106.505 294.482 105.963 291.954 104.825 289.585C103.347 286.317 100.579 283.81 97.623 281.709C95.5942 286.046 92.9089 289.957 88.7869 293.028C90.0217 293.684 91.0224 294.649 91.6466 295.942C93.2119 299.198 91.8027 303.259 88.4978 305.036C88.484 305.039 88.4794 305.05 88.4657 305.054C83.265 307.799 79.5561 312.551 78.4683 318.026C77.3069 323.506 78.28 330.002 81.8925 335.519C84.5777 339.145 88.0663 341.972 91.9771 343.69C92.225 338.452 94.0932 333.642 97.4762 329.832C96.122 329.4 94.8689 328.523 93.9463 327.289" fill="#000000" fill-rule="evenodd" opacity="1" stroke="none"/>
<path d="M112.357 350.084C109.755 347.224 109.916 342.908 112.738 340.421C117.264 336.502 119.523 331.444 120.427 326.133C121.299 320.807 120.399 315.576 117.228 311.383C115.231 308.405 112.647 306.004 109.186 304.503C108.011 308.993 105.573 313.487 101.984 317.121C103.287 317.594 104.251 318.512 105.146 319.636C107.317 322.529 106.638 326.678 103.632 328.928C103.586 328.96 103.554 329.005 103.508 329.043C98.844 332.521 96.0578 337.621 95.5574 343.34C95.2866 346.424 95.663 349.408 96.7968 352.3C97.3889 353.815 98.1509 355.257 99.0414 356.62C100.565 358.952 102.121 360.756 104.283 362.551C105.5 363.56 106.817 364.446 108.231 365.158C108.644 365.364 112.683 366.671 112.693 366.727C111.986 361.692 113.22 356.564 116.071 352.226C114.712 351.956 113.395 351.226 112.357 350.084" fill="#0f5d77" fill-rule="evenodd" opacity="1" stroke="none"/>
<path d="M132.761 360.412C136.598 355.922 138.356 350.281 138.338 345.026C138.319 342.395 137.851 339.851 136.897 337.534C135.946 335.219 134.826 332.815 133.022 330.9C130.613 328.234 127.455 326.457 123.764 325.526C123.346 330.07 121.717 334.78 118.738 338.883C120.101 339.159 121.331 339.792 122.295 340.857C124.723 343.534 124.554 347.842 121.919 350.511L121.919 350.514L121.919 350.514C117.7 354.701 115.773 360.121 116.232 365.796C116.461 368.624 117.283 371.493 118.674 374.215C120.074 376.922 121.951 379.588 124.655 381.48C128.258 384.193 132.398 385.905 136.621 386.432C135.34 381.318 135.735 376.151 137.86 371.505C136.447 371.478 135.001 370.996 133.766 370.072C130.58 367.856 130.378 363.225 132.719 360.471C132.738 360.453 132.747 360.429 132.761 360.412" fill="#000000" fill-rule="evenodd" opacity="1" stroke="none"/>
<path d="M162.152 387.547C160.779 387.682 159.31 387.355 157.993 386.556C154.702 384.56 153.605 380.388 155.5 377.266C155.523 377.225 155.533 377.183 155.56 377.142C158.686 372.134 159.531 366.382 158.645 361.33C157.933 355.958 155.583 351.167 151.356 348.04C148.354 346.039 145.375 344.264 141.597 343.878C141.767 348.546 140.739 353.577 138.365 358.116C139.678 358.276 141.101 358.585 142.226 359.474C145.127 361.633 145.673 365.827 143.46 368.857C143.424 368.907 143.401 368.963 143.364 369.013C139.935 373.709 138.756 379.419 139.926 385.064C141.078 390.757 145.081 395.7 150.685 399.189C152.632 400.323 154.601 401.323 156.744 401.796C158.897 402.25 161.082 402.42 163.244 402.297C161.169 397.531 160.66 392.596 162.152 387.547" fill="#0f5d77" fill-rule="evenodd" opacity="1" stroke="none"/>
<path d="M188.706 399.473C187.347 399.858 185.828 399.813 184.377 399.281C182.56 398.616 181.187 397.292 180.476 395.723C179.805 394.056 179.787 392.175 180.526 390.448C182.867 385.032 182.895 379.097 181.352 374.047C179.838 368.875 176.478 365.108 172.112 362.151C169.046 360.273 165.548 359.447 161.739 359.644C162.68 364.105 162.473 369.136 160.825 373.938C161.059 373.264 164.112 374.356 164.516 374.553C166.159 375.342 167.316 377.261 167.811 378.978C168.28 380.617 168.183 382.412 167.288 384.101C164.525 389.288 164.249 395.076 166.347 400.387C168.477 405.555 172.741 410.815 179.043 412.867C183.276 414.432 187.733 414.882 191.91 414.161C189.188 409.627 188.04 404.545 188.706 399.473" fill="#000000" fill-rule="evenodd" opacity="1" stroke="none"/>
<path d="M212.382 407.929C208.668 406.978 206.396 403.329 207.25 399.794C207.268 399.734 207.264 399.675 207.282 399.62C208.783 393.911 207.888 388.15 205.556 383.563C203.22 378.891 199.64 374.759 194.687 373.038C191.253 371.955 187.769 371.437 184.12 372.005C185.653 376.413 186.094 381.663 185.226 386.547C185.282 386.249 187.416 386.253 187.687 386.294C191.882 386.973 194.76 391.042 193.264 395.315C193.245 395.365 193.245 395.411 193.227 395.462C191.322 400.964 191.878 406.804 194.664 411.895C197.528 416.75 202.747 420.514 209.15 422.162C213.488 423.444 218.028 422.829 222.076 421.364C218.675 417.457 216.756 412.752 216.642 407.67C215.375 408.199 213.878 408.314 212.382 407.929" fill="#0f5d77" fill-rule="evenodd" opacity="1" stroke="none"/>
<path d="M241.355 412.23C237.467 412.101 234.635 408.755 235.062 404.986C235.062 404.977 235.062 404.968 235.062 404.963C235.695 399.093 233.965 393.409 230.99 389.03C229.499 386.841 227.681 384.978 225.597 383.569C224.55 382.862 223.44 382.274 222.265 381.815C221.112 381.265 219.91 380.759 218.634 380.438C215.164 379.529 211.583 379.749 208.012 381.047C210.22 385.051 211.51 389.936 211.358 395.017C212.63 394.488 214.002 394.346 215.388 394.703C218.863 395.727 221.223 399.064 220.548 402.747C220.543 402.765 220.548 402.783 220.543 402.797C219.451 408.562 220.901 414.17 224.472 418.624C228.03 422.974 233.671 426.693 240.276 426.784C244.779 427.022 249.158 426.137 252.936 424.215C249.002 420.684 246.409 416.171 245.546 411.133C244.362 411.898 242.897 412.307 241.355 412.23" fill="#000000" fill-rule="evenodd" opacity="1" stroke="none"/>
<path d="M274.638 410.715C273.583 411.595 272.187 412.151 270.645 412.23C266.817 412.427 263.571 409.609 263.356 405.978C263.351 405.919 263.337 405.867 263.333 405.807C263.094 399.908 260.547 394.676 256.962 390.99C253.345 387.126 248.695 384.313 243.439 384.11C241.644 383.995 239.854 384.289 238.119 384.614C236.389 384.89 234.69 385.44 233.028 386.267C235.796 390.036 237.775 394.933 238.399 399.813C239.588 399.046 240.924 398.628 242.36 398.702C245.973 398.881 248.791 402.058 248.672 405.807C248.667 405.867 248.686 405.919 248.681 405.978C248.493 411.793 250.742 417.2 254.891 421.231C259.055 425.118 265.137 427.087 271.724 426.784C273.973 426.637 276.158 426.339 278.196 425.55C280.229 424.706 282.13 423.612 283.846 422.291C279.449 419.542 276.254 415.732 274.638 410.715" fill="#0f5d77" fill-rule="evenodd" opacity="1" stroke="none"/>
<path d="M303.299 405.637C302.395 406.72 301.114 407.547 299.618 407.929C295.886 409.012 292.168 406.437 291.457 402.747C290.341 396.948 287.027 392.037 282.91 388.741C278.747 385.335 273.849 384.115 268.566 384.11C264.971 384.28 261.607 385.561 258.568 387.859C261.864 391.022 264.531 395.306 265.88 400.199C265.793 399.896 267.762 399.084 268.015 399.005C272.086 397.719 276.461 400.837 276.947 404.981C277.581 410.824 280.615 415.764 285.333 418.957C287.688 420.56 290.451 421.726 293.449 422.355C294.95 422.671 296.506 422.855 298.094 422.891C301 422.961 304.355 421.9 306.99 420.749C308.362 420.146 309.684 419.427 310.928 418.592C311.273 418.362 314.1 415.888 314.21 415.938C309.409 413.734 305.608 410.195 303.299 405.637" fill="#000000" fill-rule="evenodd" opacity="1" stroke="none"/>
<path d="M330.997 396.65C330.244 397.807 329.073 398.752 327.627 399.281C324.015 400.608 320.076 398.872 318.805 395.453C318.787 395.403 318.759 395.365 318.741 395.315C316.772 389.751 312.796 385.501 308.289 383.04C303.676 380.323 298.443 379.088 293.371 380.438C289.933 381.512 286.724 382.889 284.048 385.491C287.798 388.297 291.099 392.272 293.16 396.945C294.069 395.862 295.225 395.062 296.612 394.703C300.114 393.8 303.735 395.998 304.722 399.62C304.741 399.675 304.773 399.725 304.787 399.785C306.315 405.395 310.052 409.888 315.202 412.504C320.356 415.079 326.741 415.094 332.961 412.867C337.258 411.445 340.728 408.529 343.216 404.968C338.194 403.632 334.008 400.929 330.997 396.65" fill="#0f5d77" fill-rule="evenodd" opacity="1" stroke="none"/>
<path d="M354.012 386.556C352.355 387.558 350.463 387.809 348.793 387.382C347.09 386.905 345.589 385.72 344.717 384.096C344.717 384.092 344.707 384.083 344.703 384.078C341.921 378.873 337.294 375.154 332.378 373.218C327.384 371.157 322.349 371.487 317.318 373.038C313.944 374.259 311.116 376.477 308.899 379.575C312.975 381.621 316.785 384.922 319.516 389.2C320.269 388.044 321.32 387.149 322.665 386.658C324.373 386.034 326.204 386.176 327.811 386.891C329.372 387.506 330.726 388.727 331.478 390.448C331.483 390.457 331.488 390.468 331.492 390.477C333.833 395.862 338.194 399.684 343.652 401.35C349.036 402.924 355.788 402.824 361.319 399.189C365.179 396.857 368.305 393.658 370.353 389.948C365.101 389.247 360.415 386.973 356.858 383.298C356.311 384.592 355.329 385.752 354.012 386.556" fill="#000000" fill-rule="evenodd" opacity="1" stroke="none"/>
<path d="M378.239 370.072L378.239 370.072C375.172 372.367 370.894 371.863 368.668 368.995C368.631 368.945 368.581 368.907 368.544 368.857C365.019 364.125 359.951 361.224 354.898 360.177C349.825 359.162 344.326 359.337 339.892 362.151C338.341 363.055 337.037 364.317 335.775 365.543C334.503 366.746 333.411 368.165 332.507 369.78C336.904 371.322 341.306 374.273 344.57 377.955C345.12 376.657 345.993 375.559 347.218 374.815C350.307 372.933 354.429 373.974 356.444 377.142C356.467 377.183 356.504 377.211 356.527 377.252C359.648 382.177 364.569 385.387 370.288 386.382C375.829 387.108 382.071 385.446 387.345 381.48C391.068 378.908 393.317 374.851 394.768 370.863C389.576 371.064 384.679 369.601 380.644 366.526C380.368 367.971 379.45 369.119 378.239 370.072" fill="#0f5d77" fill-rule="evenodd" opacity="1" stroke="none"/>
<path d="M401.446 346.162C401.295 347.554 400.684 348.945 399.647 350.084C397.026 352.965 392.707 353.162 390.09 350.519C390.09 350.519 390.081 350.514 390.081 350.511C385.927 346.392 380.378 344.162 375.09 343.735C372.437 343.523 369.829 343.772 367.415 344.511C364.982 345.232 362.839 346.562 360.644 348.04C357.762 350.179 355.687 353.109 354.466 356.698C358.987 357.473 363.614 359.521 367.493 362.807C367.879 361.489 368.627 360.329 369.774 359.474C372.762 357.419 376.728 357.519 379.244 360.412C379.258 360.429 379.28 360.444 379.294 360.462C383.118 364.9 388.41 367.277 394.13 367.292C396.994 367.306 399.95 366.732 402.805 365.588C405.656 364.441 408.088 362.413 410.347 360.017C413.372 356.675 415.479 352.756 416.332 348.601C411.123 349.472 405.926 348.637 401.446 346.162" fill="#000000" fill-rule="evenodd" opacity="1" stroke="none"/>
<path d="M419.187 323.102C419.252 324.507 419.018 326.077 418.058 327.289C415.763 330.364 411.494 331.112 408.52 329.01C408.469 328.978 408.419 328.96 408.373 328.928C403.613 325.435 397.894 324.13 392.721 324.589C387.699 325.209 382.471 326.972 378.982 330.9C376.586 333.581 375.117 336.928 374.213 340.425C379 340.733 383.806 341.995 388.066 344.611C388.218 343.211 388.741 341.922 389.705 340.857C392.138 338.182 396.411 337.988 399.266 340.421C399.284 340.439 399.312 340.457 399.33 340.477C403.705 344.24 409.599 346.062 415.111 345.117C420.643 344.203 426.183 340.825 430.112 335.519C432.627 331.786 433.848 327.408 434.027 323.144C429.093 324.842 423.952 324.865 419.187 323.102" fill="#0f5d77" fill-rule="evenodd" opacity="1" stroke="none"/>
<path d="M433.174 297.572C433.431 298.945 433.243 300.446 432.577 301.835C430.888 305.334 426.812 306.775 423.544 305.05C423.53 305.039 423.516 305.039 423.507 305.031C418.288 302.296 412.605 301.941 407.285 303.015C402.011 304.136 397.627 306.978 394.777 311.383C392.606 314.252 391.449 317.63 391.302 321.405C395.888 320.839 400.937 321.455 405.619 323.47C405.61 322.102 405.995 320.784 406.858 319.636C408.882 316.649 412.858 315.681 416.075 317.686C416.112 317.709 416.153 317.718 416.19 317.741C421.134 320.839 426.894 321.564 432.384 319.925C435.12 319.092 437.888 317.736 440.183 315.749C442.382 313.711 444.291 311.145 445.723 308.175C447.601 304.077 448.73 299.822 448.027 295.474C443.593 297.971 438.122 298.592 433.174 297.572" fill="#000000" fill-rule="evenodd" opacity="1" stroke="none"/>
<path d="M443.249 270.275C443.759 271.605 443.86 273.135 443.474 274.626C442.253 278.275 438.283 280.226 434.831 279.084C434.785 279.069 434.739 279.064 434.698 279.051C429.116 277.122 423.25 277.56 418.416 279.51C415.956 280.479 413.909 281.9 411.967 283.572C409.961 285.216 408.323 287.217 407.18 289.585C405.536 292.77 405.325 296.512 405.495 300.12C410.182 299.018 414.886 298.678 419.858 299.996C419.605 298.619 419.734 297.233 420.358 295.942C421.928 292.684 425.981 291.257 429.428 292.743C429.442 292.748 429.456 292.748 429.469 292.757C434.835 295.112 440.899 295.07 445.847 292.51C450.873 290.003 455.285 285.169 457.424 278.928C458.571 274.562 458.594 270.059 457.483 265.923C453.247 269.004 448.33 270.545 443.249 270.275" fill="#0f5d77" fill-rule="evenodd" opacity="1" stroke="none"/>
<path d="M449.088 241.756C449.735 242.987 449.997 244.473 449.763 245.997C449.18 249.83 445.719 252.409 442.028 251.74C436.144 250.652 430.814 252.047 426.004 254.63C421.313 257.27 417.806 261.232 416.53 266.327C415.368 269.715 415.162 273.249 416.13 276.889C420.372 275.015 425.398 274.121 430.475 274.662C430.153 274.626 430.185 272.496 430.208 272.24C430.562 268.007 434.422 264.905 438.691 266.023C438.746 266.038 438.801 266.034 438.856 266.052C444.484 267.53 450.203 266.523 454.972 263.339C459.985 260.194 463.235 254.695 464.199 248.159C464.772 243.688 464.667 239.295 462.633 235.354C459.214 239.047 454.1 241.26 449.088 241.756" fill="#000000" fill-rule="evenodd" opacity="1" stroke="none"/>
<path d="M209.033 69.8898C184.419 69.8898 168.279 97.7314 168.279 110.643C168.279 114.679 169.489 115.486 172.314 115.486C175.138 115.486 189.664 99.7489 200.155 99.7489C232.436 99.7489 247.365 154.222 252.611 190.133C253.418 196.589 253.015 196.589 250.594 204.256C238.085 242.992 197.331 305.938 176.752 336.605C172.717 342.657 172.717 341.447 172.717 347.096C172.717 354.359 186.033 359.201 191.682 359.201C194.91 359.201 199.752 347.096 200.962 344.675C219.524 311.587 247.769 257.922 256.646 233.308C257.453 231.291 258.664 231.694 259.067 233.712C262.699 261.553 271.172 305.938 279.242 332.57C285.295 352.745 292.962 357.99 306.277 357.99C323.628 357.99 345.821 345.885 345.821 315.622C345.821 313.605 343.4 311.991 341.382 311.991C338.154 311.991 326.856 326.114 312.33 325.71C305.874 325.71 293.365 319.657 288.523 302.71C271.172 241.782 260.681 161.888 255.839 135.257C250.594 107.012 236.471 69.8898 209.033 69.8898Z" fill="#0f5d77" fill-rule="evenodd" opacity="1" stroke="#0f5d77" stroke-linecap="butt" stroke-linejoin="miter" stroke-width="5"/>
<g fill="#0f5d77" opacity="1" stroke="none">
<path clip-path="url(#TextBounds)" d="M72.8753 430.219L72.8753 503.123L91.9073 503.123L91.9073 476.811L124.563 476.811L124.563 461.627L91.9073 461.627L91.9073 445.403L127.267 445.403L127.371 430.219L72.8753 430.219Z" fill-rule="evenodd"/>
<path clip-path="url(#TextBounds)" d="M161.379 446.131C152.123 446.131 144.011 448.315 135.171 452.267L140.267 464.747C146.299 461.835 152.435 460.275 157.115 460.275C164.187 460.275 167.827 463.395 167.827 468.699L167.827 469.323L153.163 469.323C139.227 469.531 131.635 475.667 131.635 486.379C131.635 496.675 138.811 503.955 150.875 503.955C158.467 503.955 164.187 501.459 167.827 496.779L167.827 503.123L186.027 503.123L186.027 466.515C185.923 453.619 176.875 446.131 161.379 446.131ZM156.595 491.371C151.811 491.371 149.003 488.875 149.003 485.027C149.003 481.075 151.603 479.203 156.803 479.203L167.827 479.203L167.827 484.091C166.683 488.355 162.107 491.371 156.595 491.371Z" fill-rule="evenodd"/>
<path clip-path="url(#TextBounds)" d="M234.907 446.859L234.907 474.627C234.907 482.011 230.955 487.211 224.403 487.315C218.891 487.315 215.355 483.467 215.355 477.123L215.355 446.859L196.843 446.859L196.843 482.427C196.843 495.531 204.747 503.955 216.915 503.955C224.923 503.851 231.059 500.523 234.907 493.971L234.907 503.123L253.419 503.123L253.419 446.859L234.907 446.859Z" fill-rule="evenodd"/>
<path clip-path="url(#TextBounds)" d="M304.691 446.131C296.475 446.131 290.027 449.563 286.075 456.011L286.075 446.859L267.563 446.859L267.563 503.123L286.075 503.123L286.075 473.379C286.803 467.035 290.859 462.771 297.099 462.667C302.923 462.667 306.667 466.619 306.667 472.963L306.667 503.123L325.075 503.123L325.075 467.659C325.075 454.451 316.963 446.131 304.691 446.131Z" fill-rule="evenodd"/>
<path clip-path="url(#TextBounds)" d="M391.219 503.123L411.499 503.123L380.923 430.219L361.371 430.219L330.067 503.123L349.619 503.123L354.715 490.227L386.227 490.227L391.219 503.123ZM360.435 475.667L370.627 449.667L380.611 475.667L360.435 475.667Z" fill-rule="evenodd"/>
<path clip-path="url(#TextBounds)" d="M418.051 430.219L418.051 503.123L437.083 503.123L437.083 430.219L418.051 430.219Z" fill-rule="evenodd"/>
</g>
</g>
</svg>
