<?xml version="1.0" encoding="UTF-8"?>
<!DOCTYPE svg PUBLIC "-//W3C//DTD SVG 1.1//EN" "http://www.w3.org/Graphics/SVG/1.1/DTD/svg11.dtd">
<svg version="1.1" xmlns="http://www.w3.org/2000/svg" xmlns:xlink="http://www.w3.org/1999/xlink" x="0" y="0" width="280" height="280" viewBox="0, 0, 280, 280">
  <g id="Background">
    <rect x="0" y="0" width="280" height="280" fill="#000000" fill-opacity="0"/>
  </g>
  <g id="Layer_1">
    <text transform="matrix(1, 0, 0, 1, 140, 261.25)">
      <tspan x="-143.296" y="17" font-family="Norse-Bold" font-size="128" fill="#000000">kjarni</tspan>
    </text>
    <path d="M140,233 C75.935,233 24,181.065 24,117 C24,52.935 75.935,1 140,1 C204.065,1 256,52.935 256,117 C256,181.065 204.065,233 140,233 z" fill="#000000"/>
    <text transform="matrix(1, 0, 0, 1, 140, 117)">
      <tspan x="-36.55" y="54.5" font-family="EBGaramond08-Regular" font-size="170" kerning="0" fill="#217FDB">λ</tspan>
    </text>
    <path d="M159.136,182.614 L179.488,200.278 L180.256,203.478 C180.384,203.606 182.432,202.966 182.56,202.966 L188.704,208.598 L187.808,216.278 L181.92,223.446 L179.166,226.716 C166.804,230.56 172.554,229.138 161.996,231.296 L168.224,223.574 C170.016,221.398 173.088,217.43 174.752,215.126 L176.16,213.334 L173.6,210.134 L172.704,209.494 L160.928,197.846 L160.672,207.702 L160.672,208.982 L159.648,211.414 L160.16,213.718 L160.416,214.486 L160.672,215.894 L161.184,227.286 L160.956,231.509 C155.059,232.715 158.864,232.047 149.463,233 L149.408,231.382 L149.152,224.726 L150.176,222.166 L149.536,197.718 L149.024,186.71 L159.136,182.614 z" fill="#217FDB"/>
    <path d="M117.536,184.534 L119.712,185.558 L119.584,190.038 L119.968,191.062 L120.48,192.342 L124.576,211.926 L123.68,214.23 L125.216,215.382 L128.682,232.786 C120.543,231.961 124.504,232.573 116.791,230.996 L116.128,227.414 L115.616,220.758 L115.104,218.454 L113.184,204.886 L110.624,220.502 L109.344,221.142 L109.984,223.19 L109.174,229.23 C99.805,226.317 103.115,227.668 98.976,225.917 L98.976,225.366 L102.816,208.214 L105.12,205.526 L103.712,203.606 L104.608,198.486 L105.76,193.11 L107.04,185.046 L117.536,184.534 z" fill="#217FDB"/>
    <path d="M211.488,183.382 L222.68,198.802 C217.253,204.228 219.78,201.991 215.275,205.709 L213.664,203.478 L213.664,207.038 C207.309,212.282 211.012,209.448 202.365,215.289 L202.4,213.462 L201.888,206.166 L201.376,192.854 L201.376,186.198 L211.488,183.382 z" fill="#217FDB"/>
    <path d="M75.936,184.534 L77.6,189.014 L76.064,200.278 L76.263,214.189 C68.529,208.965 72.442,211.865 64.595,205.39 L64.416,195.286 L66.08,193.238 L63.776,191.958 L63.776,184.79 L75.936,184.534 z" fill="#217FDB"/>
    <path d="M234.542,184.737 C232.606,187.603 233.636,186.227 231.456,188.868 L231.456,184.79 L234.542,184.737 z" fill="#217FDB"/>
  </g>
</svg>
