<?xml version="1.0" encoding="UTF-8" standalone="no"?>
<!DOCTYPE svg PUBLIC "-//W3C//DTD SVG 1.1//EN" "http://www.w3.org/Graphics/SVG/1.1/DTD/svg11.dtd">

<!-- Created with Vectornator (http://vectornator.io/) -->
<svg height="100%" stroke-miterlimit="10" style="fill-rule:nonzero;clip-rule:evenodd;stroke-linecap:round;stroke-linejoin:round;" version="1.1" viewBox="0 0 512 512" width="100%" xml:space="preserve" xmlns="http://www.w3.org/2000/svg" xmlns:vectornator="http://vectornator.io" xmlns:xlink="http://www.w3.org/1999/xlink">
<metadata>
<vectornator:setting key="IsTimeLapseWatermarkDisabled" value="false"/>
<vectornator:setting key="UndoHistoryDisabled" value="true"/>
<vectornator:setting key="VNDimensionsVisible" value="true"/>
<vectornator:setting key="VNSnapToGuides" value="true"/>
<vectornator:setting key="WDCMYKEnabledKey" value="false"/>
<vectornator:setting key="WDDisplayWhiteBackground" value="false"/>
<vectornator:setting key="WDDynamicGuides" value="false"/>
<vectornator:setting key="WDGuidesVisible" value="true"/>
<vectornator:setting key="WDIsolateActiveLayer" value="false"/>
<vectornator:setting key="WDOutlineMode" value="false"/>
<vectornator:setting key="WDRulersVisible" value="true"/>
<vectornator:setting key="WDSnapToEdges" value="false"/>
<vectornator:setting key="WDSnapToGrid" value="false"/>
<vectornator:setting key="WDSnapToPoints" value="false"/>
<vectornator:setting key="WDUnits" value="Pixels"/>
</metadata>
<defs/>
<g id="Layer-1" vectornator:layerName="Layer 1">
<path d="M487.508 251.123C488.562 252.455 489.217 254.153 489.304 255.987C489.086 260.551 485.352 264.154 481.017 264.078C480.952 264.078 480.892 264.095 480.831 264.088C473.816 263.854 467.304 266.415 462.494 270.339C460.059 272.305 458.181 274.647 456.642 277.24C454.928 279.816 453.759 282.661 453.284 285.757C452.575 289.96 453.481 294.257 455.146 298.334C459.879 295.392 465.273 293.372 471.343 293.103C470.574 291.636 470.241 290.013 470.497 288.326C471.147 284.081 475.258 281.029 479.696 281.502C479.712 281.502 479.729 281.502 479.74 281.502C486.706 282.296 493.513 280.101 498.235 275.454C503.089 270.846 506.315 263.822 506.664 255.987C506.424 250.636 504.863 245.521 502.139 241.215C498.416 246.188 493.377 249.654 487.508 251.123" fill="#3d85c6" fill-rule="evenodd" opacity="1" stroke="none"/>
<path d="M484.178 216.67C485.352 217.843 486.176 219.442 486.449 221.262C487.148 225.825 484.112 229.975 479.696 230.472C472.752 231.274 466.9 234.734 462.385 239.353C457.99 243.994 455.413 249.737 455.774 255.987C455.528 260.26 456.625 264.355 458.978 268.162C463.138 264.53 468.532 261.747 474.493 260.583C473.576 259.241 473.085 257.691 473.172 255.987C472.948 251.69 476.371 248.071 480.831 247.886C480.892 247.879 480.952 247.864 481.017 247.858C487.934 247.574 494.076 244.435 498.377 239.157C500.512 236.509 502.313 233.325 503.269 229.838C504.552 225.17 504.12 219.999 502.93 215.403C502.581 214.056 502.15 212.723 501.62 211.428C501.096 210.162 500.479 208.929 499.758 207.76C499.557 207.438 497.389 204.741 497.438 204.654C494.589 210.102 489.757 214.35 484.178 216.67" fill="#000000" fill-rule="evenodd" opacity="1" stroke="none"/>
<path d="M475.869 183.075C477.245 184.045 478.457 185.448 478.97 187.212C480.116 191.634 477.632 196.166 473.467 197.371C473.401 197.392 473.347 197.427 473.281 197.441C466.507 199.282 461.047 203.634 457.619 208.786C454.436 213.919 452.378 220.038 453.284 226.217C453.803 230.455 456.15 234.265 458.689 237.71C462.603 233.479 466.954 229.996 472.73 227.959C471.556 226.78 470.754 225.335 470.497 223.648C469.848 219.393 472.866 215.278 477.25 214.431C477.278 214.427 477.299 214.416 477.327 214.41C484.085 213.143 490.199 209.01 493.3 203.197C496.57 197.371 497.558 189.7 495.56 182.096C493.857 177.014 490.767 172.608 486.913 169.284C484.833 175.142 481.044 179.94 475.869 183.075" fill="#3d85c6" fill-rule="evenodd" opacity="1" stroke="none"/>
<path d="M462.489 151.139C463.957 151.913 465.213 153.196 466.01 154.849C468.013 159.016 466.337 163.874 462.265 165.665C455.828 168.503 451.341 173.515 448.387 179.257C446.924 182.106 446.007 185.307 445.778 188.495C445.521 192.065 446.089 195.057 447.29 198.375C447.94 200.156 448.688 201.843 449.752 203.421C450.036 203.841 453.535 207.852 453.612 207.739C456.505 203.065 460.834 198.823 466.179 195.957C464.907 194.949 463.973 193.616 463.553 191.961C462.183 187.894 464.301 183.45 468.532 181.949C468.581 181.934 468.625 181.9 468.679 181.878C475.219 179.569 480.165 174.75 482.709 168.427C483.949 165.266 484.773 161.669 484.582 158.076C484.314 154.523 483.348 150.842 481.645 147.311C479.21 142.527 476.12 138.309 471.518 135.765C470.595 141.721 467.091 147.289 462.489 151.139" fill="#000000" fill-rule="evenodd" opacity="1" stroke="none"/>
<path d="M448.742 124.578L448.742 124.578C451.308 128.368 450.118 133.558 446.499 135.906C446.46 135.934 446.428 135.972 446.384 136C440.455 139.762 436.519 145.547 434.745 151.499C433.828 154.501 433.604 157.486 433.762 160.511C433.806 163.596 434.445 166.603 435.804 169.42C437.556 173.308 440.848 176.287 444.369 178.788C446.782 173.63 449.976 168.979 454.878 165.326C453.41 164.545 452.22 163.398 451.477 161.858C449.61 157.988 451.286 153.158 455.222 151.045C455.233 151.038 455.244 151.027 455.261 151.023C461.446 147.758 465.857 142.107 467.151 135.595C468.532 129.077 467.375 121.351 463.078 114.79C459.884 110.478 455.736 107.115 451.084 105.072C450.789 111.301 448.568 117.022 444.544 121.554C446.155 122.068 447.645 123.111 448.742 124.578" fill="#3d85c6" fill-rule="evenodd" opacity="1" stroke="none"/>
<path d="M426.845 97.4674C429.941 100.869 429.75 106 426.458 108.883C426.436 108.904 426.42 108.932 426.392 108.96C421.009 113.621 418.318 119.637 417.248 125.954C416.211 132.287 417.281 138.51 421.053 143.496C423.428 147.038 426.501 149.893 430.618 151.678C432.015 146.338 434.914 140.994 439.178 136.672C437.633 136.108 436.486 135.016 435.422 133.679C432.84 130.24 433.648 125.305 437.223 122.629C437.278 122.591 437.316 122.537 437.371 122.492C442.917 118.355 446.231 112.29 446.826 105.488C447.65 98.4823 444.806 91.5005 439.571 85.6532C435.979 81.6701 431.589 78.7593 426.447 77.6734C427.288 83.6616 425.819 89.7585 422.429 94.9191C424.045 95.2412 425.612 96.1092 426.845 97.4674" fill="#000000" fill-rule="evenodd" opacity="1" stroke="none"/>
<path d="M402.579 85.1842C398.015 90.5239 395.924 97.2327 395.946 103.483C395.963 106.612 396.525 109.635 397.655 112.393C398.79 115.146 400.117 118.005 402.268 120.281C405.129 123.454 408.89 125.568 413.279 126.674C413.771 121.271 415.709 115.668 419.257 110.789C417.636 110.461 416.173 109.701 415.021 108.442C412.138 105.258 412.34 100.133 415.468 96.9597C415.474 96.9559 415.474 96.9559 415.479 96.9494C420.485 91.976 422.784 85.5276 422.238 78.7806C421.965 75.4171 420.988 72.0051 419.333 68.7684C417.663 65.548 415.436 62.3773 412.215 60.1275C407.935 56.9006 403.01 54.8643 397.988 54.2376C399.511 60.317 399.042 66.4717 396.514 71.9904C398.195 72.0226 399.915 72.5958 401.384 73.692C405.172 76.3299 405.413 81.8382 402.628 85.1138C402.606 85.1351 402.596 85.1629 402.579 85.1842" fill="#3d85c6" fill-rule="evenodd" opacity="1" stroke="none"/>
<path d="M367.624 52.9088C369.256 52.7511 370.998 53.1392 372.57 54.088C376.484 56.4639 377.789 61.4263 375.534 65.1386C375.507 65.1877 375.496 65.2368 375.463 65.286C371.746 71.2419 370.741 78.0829 371.795 84.0924C372.635 90.4791 375.436 96.1796 380.458 99.8962C384.034 102.279 387.577 104.39 392.07 104.848C391.868 99.2973 393.091 93.3135 395.908 87.9138C394.352 87.7238 392.66 87.3575 391.317 86.2995C387.872 83.7321 387.222 78.7418 389.854 75.1404C389.897 75.0803 389.919 75.0142 389.963 74.9548C394.046 69.3694 395.449 62.5776 394.057 55.8623C392.687 49.0939 387.927 43.2078 381.261 39.0648C378.946 37.717 376.604 36.5268 374.055 35.964C371.494 35.4246 368.896 35.2221 366.325 35.3689C368.792 41.0372 369.393 46.9059 367.624 52.9088" fill="#000000" fill-rule="evenodd" opacity="1" stroke="none"/>
<path d="M335.327 53.9024C334.383 53.5765 333.231 53.1458 332.559 52.5016C331.779 51.7575 331.244 50.7808 330.873 49.7823C330.174 47.8973 329.95 45.6006 330.621 43.6729C330.643 43.6134 330.643 43.5534 330.665 43.4982C332.931 36.9532 332.27 30.008 328.956 23.9538C325.55 18.179 319.337 13.703 311.727 11.7431C306.563 10.2184 301.164 10.9499 296.354 12.6919C300.399 17.3388 302.681 22.9345 302.812 28.9778C304.324 28.3489 306.104 28.2125 307.878 28.6711C312.3 29.8011 315.003 34.1406 313.982 38.3437C313.965 38.4163 313.971 38.4867 313.949 38.5527C312.164 45.3429 313.223 52.1942 316.002 57.6496C318.78 63.2065 323.039 68.1198 328.929 70.167C333.013 71.4554 337.156 72.0718 341.496 71.3953C339.673 66.154 339.149 59.9075 340.18 54.0946C340.039 54.8856 336.212 54.2141 335.753 54.0564C335.617 54.0072 335.475 53.9581 335.327 53.9024" fill="#000000" fill-rule="evenodd" opacity="1" stroke="none"/>
<path d="M336.042 38.7274C337.658 38.2694 339.465 38.3224 341.19 38.9556C343.352 39.7472 344.985 41.3206 345.831 43.1865C346.622 45.1677 346.65 47.4071 345.771 49.4608C342.981 55.9005 342.948 62.9592 344.788 68.9644C346.584 75.1191 350.586 79.5995 355.777 83.1157C359.419 85.3485 363.584 86.3317 368.115 86.097C366.996 80.789 367.242 74.8074 369.202 69.0965C367.564 69.2542 365.948 68.9431 364.49 68.0537C362.645 66.9303 361.417 65.1282 360.893 63.1023C360.33 61.1533 360.45 59.0182 361.51 57.0098C364.796 50.8404 365.129 43.9568 362.634 37.6465C359.424 29.5216 352.66 23.9046 344.297 21.7935C342.937 21.448 341.556 21.1963 340.159 21.0385C338.788 20.8917 337.407 20.8316 336.031 20.8742C335.655 20.8873 332.297 21.371 332.226 21.258C335.469 26.6511 336.828 32.695 336.042 38.7274" fill="#3d85c6" fill-rule="evenodd" opacity="1" stroke="none"/>
<path d="M273.42 23.5656C277.738 23.8407 281.439 27.4913 280.91 32.1977C280.156 39.18 282.215 45.9374 285.747 51.1471C287.526 53.7512 289.688 55.9731 292.167 57.6431C293.411 58.4832 294.727 59.1825 296.125 59.7285C299.477 61.0441 303.031 62.202 306.645 61.7866C307.158 61.7265 313.119 60.7117 313.081 60.6391C310.455 55.8792 308.921 50.0706 309.101 44.0267C307.584 44.6562 305.957 44.8243 304.303 44.3979C300.175 43.1827 297.369 39.2138 298.177 34.7739C299.471 27.9182 297.752 21.2476 293.504 15.9505C289.273 10.7747 282.564 6.35435 274.703 6.24516C269.353 5.96183 264.145 7.01546 259.652 9.30123C264.33 13.4999 267.415 18.8658 268.441 24.86C268.386 24.5275 270.723 23.8407 271.001 23.7747C271.815 23.5825 272.628 23.5186 273.42 23.5656" fill="#3d85c6" fill-rule="evenodd" opacity="1" stroke="none"/>
<path d="M233.835 25.3567C235.096 24.3097 236.756 23.6486 238.585 23.5547C243.143 23.3205 247.003 26.6724 247.259 30.9912C247.259 31.0611 247.281 31.1233 247.287 31.1937C247.57 38.2072 250.6 44.4323 254.864 48.8144C257.102 51.1133 259.537 53.1709 262.403 54.6618C263.861 55.4168 265.395 56.0222 266.989 56.4251C270.592 57.3379 273.589 56.982 277.274 56.3978C279.332 56.0713 281.352 55.4168 283.323 54.4336C280.031 49.951 277.683 44.125 276.941 38.3224C275.527 39.2351 273.938 39.7319 272.23 39.6446C267.933 39.4311 264.581 35.6528 264.723 31.1937C264.729 31.1233 264.707 31.0573 264.712 30.9912C264.936 24.0755 262.261 17.6435 257.326 12.8497C252.375 8.22632 245.136 5.88486 237.302 6.24516C234.632 6.42042 232.034 6.77415 229.61 7.71262C227.191 8.71709 224.931 10.018 222.884 11.5892C228.114 14.8587 231.919 19.3904 233.835 25.3567" fill="#000000" fill-rule="evenodd" opacity="1" stroke="none"/>
<path d="M199.753 31.3963C200.829 30.1057 202.352 29.1252 204.126 28.6711C208.57 27.3827 212.992 30.4453 213.822 34.7739C213.827 34.7952 213.833 34.8127 213.838 34.834C215.165 41.73 219.106 47.5714 224.003 51.4905C228.955 55.5402 234.78 56.9923 241.063 56.9989C245.338 56.7963 249.339 55.2738 252.953 52.5376C249.034 48.7784 245.862 43.6839 244.257 37.8638C242.99 38.9131 241.483 39.5616 239.78 39.6446C235.473 39.7707 231.608 36.5312 231.1 32.202C231.1 32.1917 231.095 32.1808 231.095 32.1764C230.336 25.2268 226.733 19.3516 221.121 15.5515C218.32 13.6473 215.034 12.2612 211.469 11.5128C209.684 11.135 207.833 10.9177 205.939 10.8751C204.072 10.9346 202.183 11.2715 200.283 11.7431C195.075 13.0632 190.402 15.6241 186.777 19.1447C192.487 21.7657 197.007 25.9731 199.753 31.3963" fill="#3d85c6" fill-rule="evenodd" opacity="1" stroke="none"/>
<path d="M166.812 42.0843C167.708 40.7086 169.094 39.5851 170.819 38.9556C175.11 37.3779 179.8 39.4421 181.312 43.5086C181.334 43.5687 181.367 43.6134 181.388 43.6729C183.731 50.29 188.458 55.3442 193.814 58.2698C199.306 61.5027 205.529 62.9723 211.562 61.3662C215.65 60.0888 219.466 58.451 222.649 55.3546C218.189 52.0195 214.264 47.2919 211.813 41.7344C210.732 43.0228 209.356 43.9738 207.702 44.3979C203.542 45.475 199.235 42.8606 198.061 38.5527C198.039 38.4867 198.001 38.4272 197.984 38.3568C196.161 31.684 191.723 26.34 185.592 23.2288C179.467 20.1661 171.873 20.1492 164.476 22.798C159.366 24.4888 155.239 27.9564 152.275 32.1917C158.252 33.7803 163.231 36.9963 166.812 42.0843" fill="#000000" fill-rule="evenodd" opacity="1" stroke="none"/>
<path d="M139.44 54.088C141.411 52.8979 143.654 52.5998 145.647 53.107C147.667 53.6742 149.458 55.0816 150.489 57.0158C150.495 57.0201 150.506 57.0311 150.506 57.0371C153.82 63.2278 159.322 67.6509 165.164 69.9541C171.109 72.4042 177.092 72.0117 183.081 70.167C187.088 68.7149 190.456 66.077 193.093 62.392C188.245 59.9567 183.714 56.0331 180.466 50.9446C179.565 52.3203 178.32 53.3843 176.715 53.9685C174.685 54.7109 172.512 54.5422 170.601 53.6917C168.745 52.9602 167.129 51.508 166.239 49.4608C166.234 49.4499 166.228 49.4373 166.223 49.4264C163.439 43.0228 158.252 38.4758 151.761 36.4952C145.358 34.6227 137.327 34.7422 130.749 39.0648C126.158 41.8392 122.435 45.6432 120.005 50.0553C126.245 50.8895 131.824 53.5912 136.055 57.9651C136.699 56.4251 137.873 55.0434 139.44 54.088" fill="#3d85c6" fill-rule="evenodd" opacity="1" stroke="none"/>
<path d="M110.626 73.692C114.273 70.9624 119.356 71.564 122.009 74.9761C122.052 75.0355 122.112 75.0803 122.156 75.1404C126.349 80.7677 132.376 84.2185 138.386 85.4637C144.419 86.6708 150.959 86.4617 156.232 83.1157C158.072 82.0408 159.628 80.5395 161.129 79.0808C162.642 77.6499 163.941 75.9631 165.016 74.042C159.781 72.2082 154.551 68.698 150.664 64.3197C150.014 65.8635 148.977 67.1688 147.52 68.0537C143.846 70.2931 138.943 69.0517 136.547 65.286C136.514 65.2368 136.476 65.2046 136.443 65.156C132.731 59.2977 126.884 55.4807 120.082 54.2971C116.102 53.5978 111.707 54.3741 107.957 55.7111C104.146 57.0693 100.232 59.3299 97.344 62.1573C96.3068 63.1727 95.3896 64.3027 94.5762 65.4988C93.7628 66.6889 93.0586 67.9495 92.4307 69.2439C92.2669 69.5873 91.1369 72.7498 90.9676 72.7542C97.142 72.5128 102.967 74.2554 107.76 77.9125C108.093 76.1934 109.185 74.8286 110.626 73.692" fill="#000000" fill-rule="evenodd" opacity="1" stroke="none"/>
<path d="M83.0245 102.129C83.2047 100.477 83.9307 98.8219 85.1645 97.4674C88.2818 94.0407 93.4188 93.8059 96.5306 96.9494L96.5361 96.9559L96.5361 96.9559C101.482 101.856 108.082 104.511 114.371 105.019C117.527 105.268 120.628 104.974 123.499 104.095C126.387 103.238 128.942 101.656 131.546 99.8962C134.98 97.3522 137.447 93.8698 138.9 89.6007C133.522 88.6792 128.019 86.2438 123.406 82.3351C122.942 83.9024 122.058 85.2781 120.688 86.2995C117.139 88.7436 112.422 88.6241 109.431 85.1842C109.414 85.1629 109.387 85.146 109.371 85.1247C104.823 79.8468 98.5286 77.0167 91.7265 77.002C88.3199 76.985 84.8042 77.6674 81.4086 79.0279C78.0184 80.3927 75.125 82.8045 72.4391 85.6532C68.8415 89.6285 66.3302 94.2902 65.3203 99.2313C71.5165 98.1946 77.6964 99.1882 83.0245 102.129" fill="#3d85c6" fill-rule="evenodd" opacity="1" stroke="none"/>
<path d="M61.9247 129.557C61.6572 129.453 62.0884 127.192 62.1539 126.932C62.2686 126.472 62.4051 125.949 62.6562 125.54C65.0364 121.674 70.4029 119.556 74.6119 122.526C74.6665 122.569 74.732 122.591 74.7866 122.629C80.4477 126.783 87.2445 128.333 93.397 127.787C99.3748 127.051 105.593 124.956 109.742 120.281C112.586 117.093 114.339 113.113 115.414 108.949C109.72 108.588 104.004 107.087 98.9381 103.976C98.7579 105.642 98.1356 107.174 96.9837 108.442C94.0958 111.623 89.0133 111.854 85.5358 108.894C80.3386 104.418 73.3235 102.251 66.7725 103.374C60.1941 104.462 53.6049 108.48 48.9318 114.79C45.9401 119.227 44.488 124.437 44.275 129.508C50.1437 127.489 56.2526 127.461 61.9247 129.557" fill="#000000" fill-rule="evenodd" opacity="1" stroke="none"/>
<path d="M45.2905 159.922C44.9848 158.288 45.2031 156.504 46.0002 154.849C48.0092 150.69 52.857 148.976 56.7439 151.027C56.7602 151.038 56.7712 151.038 56.7876 151.045C62.9947 154.303 69.7532 154.725 76.0749 153.446C82.353 152.115 87.5666 148.735 90.9567 143.496C93.539 140.084 94.9092 136.063 95.0839 131.577C89.6356 132.249 83.6305 131.51 78.0621 129.12C78.073 130.747 77.6144 132.315 76.5881 133.679C74.1806 137.232 69.4529 138.384 65.6261 136C65.5823 135.972 65.5332 135.961 65.4896 135.934C59.61 132.249 52.7587 131.385 46.2295 133.334C42.9757 134.328 39.6839 135.94 36.9543 138.303C34.3393 140.727 32.0683 143.779 30.365 147.311C28.1322 152.186 26.7892 157.246 27.6245 162.417C32.8926 159.446 39.4055 158.709 45.2905 159.922" fill="#3d85c6" fill-rule="evenodd" opacity="1" stroke="none"/>
<path d="M33.3075 192.387C32.7015 190.805 32.576 188.986 33.04 187.212C34.4922 182.872 39.2144 180.552 43.3197 181.91C43.3689 181.927 43.4234 181.934 43.478 181.949C50.1164 184.241 57.0878 183.723 62.8418 181.403C65.7679 180.251 68.2028 178.554 70.512 176.572C72.8977 174.617 74.8466 172.244 76.206 169.42C78.1604 165.631 78.4115 161.182 78.2095 156.892C72.6357 158.201 67.04 158.606 61.1222 157.039C61.4279 158.677 61.2695 160.325 60.5326 161.858C58.6656 165.729 53.845 167.433 49.7452 165.665C49.7288 165.658 49.7125 165.658 49.6961 165.648C43.3143 162.848 36.1026 162.897 30.2176 165.942C24.2398 168.924 18.9935 174.673 16.4495 182.096C15.0847 187.288 15.0574 192.643 16.373 197.563C21.4119 193.899 27.2587 192.065 33.3075 192.387" fill="#000000" fill-rule="evenodd" opacity="1" stroke="none"/>
<path d="M26.3634 226.305C25.5936 224.842 25.2825 223.074 25.5555 221.262C26.2543 216.702 30.3705 213.633 34.6832 214.427C34.7051 214.431 34.7324 214.427 34.7597 214.431C41.7583 215.725 48.0965 214.066 53.8178 210.991C59.3971 207.852 63.5679 203.141 65.0855 197.088L65.0855 197.083C66.4667 193.053 66.707 188.85 65.5551 184.52C60.5162 186.747 54.5384 187.813 48.4951 187.169C49.0027 188.724 48.9318 190.323 48.4568 191.961C47.3923 196.128 43.0413 198.571 38.7285 197.441C38.663 197.427 38.5975 197.43 38.532 197.409C31.839 195.652 25.0368 196.848 19.3593 200.636C13.4033 204.37 9.5327 210.917 8.38621 218.69C7.70928 224.006 7.83483 229.23 10.2533 233.92C14.3204 229.527 20.4019 226.895 26.3634 226.305" fill="#3d85c6" fill-rule="evenodd" opacity="1" stroke="none"/>
<path d="M24.4963 260.851C23.4482 259.519 22.7931 257.821 22.7003 255.987C22.9241 251.424 26.6528 247.819 30.9928 247.896C31.0583 247.896 31.1129 247.879 31.1784 247.886C38.1935 248.12 44.7063 245.559 49.5159 241.635C51.9452 239.669 53.8286 237.327 55.3682 234.734C57.0824 232.159 58.2507 229.314 58.7201 226.217C59.4353 222.014 58.5291 217.717 56.864 213.64C52.1254 216.582 46.7371 218.602 40.6665 218.871C41.4363 220.338 41.7693 221.959 41.5127 223.648C40.863 227.893 36.7468 230.945 32.3085 230.472C32.2976 230.472 32.2812 230.472 32.2702 230.472C25.3043 229.678 18.4967 231.873 13.7744 236.519C8.91581 241.128 5.69486 248.152 5.34 255.987C5.58564 261.338 7.14703 266.453 9.87117 270.759C13.5943 265.786 18.6332 262.321 24.4963 260.851" fill="#000000" fill-rule="evenodd" opacity="1" stroke="none"/>
<path d="M27.8319 295.304C26.6582 294.131 25.8339 292.532 25.5555 290.713C24.8621 286.149 27.8974 282 32.2702 281.509C32.2812 281.509 32.2976 281.502 32.3085 281.502C39.2581 280.701 45.1048 277.24 49.6251 272.621C54.0143 267.98 56.591 262.237 56.2362 255.987C56.4819 251.711 55.3846 247.617 53.0262 243.812C48.8717 247.444 43.478 250.227 37.5165 251.389C38.4282 252.733 38.9251 254.283 38.8322 255.987C39.0615 260.284 35.6386 263.903 31.1784 264.088C31.1129 264.095 31.0583 264.11 30.9928 264.116C24.076 264.4 17.9344 267.539 13.6325 272.817C11.498 275.465 9.69644 278.647 8.74108 282.136C7.94952 285.608 7.79664 289.408 8.38621 293.284C9.25974 298.573 11.1322 303.489 14.5715 307.32C17.4212 301.872 22.2526 297.624 27.8319 295.304" fill="#3d85c6" fill-rule="evenodd" opacity="1" stroke="none"/>
<path d="M36.1409 328.9C34.7651 327.929 33.5532 326.519 33.04 324.763C31.8936 320.34 34.3775 315.808 38.5429 314.603C38.603 314.58 38.663 314.548 38.7285 314.53C45.5034 312.692 50.9626 308.34 54.391 303.188C57.5737 298.055 59.6318 291.937 58.7201 285.757C58.2015 281.52 55.8541 277.709 53.321 274.265C49.4067 278.496 45.0557 281.978 39.2799 284.015C40.4536 285.194 41.2561 286.64 41.5127 288.326C42.1623 292.581 39.138 296.696 34.7597 297.543C34.7324 297.547 34.7106 297.558 34.6832 297.564C27.9247 298.831 21.8105 302.964 18.7096 308.777C15.4395 314.603 14.4514 322.272 16.4495 329.878C18.1527 334.96 21.2427 339.366 25.0968 342.69C27.1768 336.832 30.9655 332.034 36.1409 328.9" fill="#000000" fill-rule="evenodd" opacity="1" stroke="none"/>
<path d="M49.5214 360.836C48.0528 360.062 46.7972 358.778 46.0002 357.123C43.9967 352.958 45.6726 348.101 49.7452 346.309C56.1816 343.471 60.669 338.459 63.6225 332.717C66.4722 326.978 67.1601 320.77 65.0855 314.891C64.0483 310.748 61.7773 307.167 58.398 304.235C55.5047 308.91 51.1755 313.151 45.8255 316.017C47.1029 317.026 48.031 318.358 48.4568 320.013C49.8271 324.08 47.7089 328.524 43.478 330.025C43.4234 330.041 43.3798 330.074 43.3306 330.096C36.7905 332.405 31.8445 337.225 29.3005 343.548C28.0612 346.708 27.2314 350.306 27.4279 353.899C27.5317 355.869 27.9411 357.861 28.4871 359.754C29.4369 363.058 30.7144 365.685 32.6087 368.566C33.6242 370.112 34.7706 371.575 36.0862 372.88C36.4684 373.262 40.4973 376.156 40.4864 376.209C41.409 370.253 44.9138 364.685 49.5214 360.836" fill="#3d85c6" fill-rule="evenodd" opacity="1" stroke="none"/>
<path d="M63.2676 387.396C60.6964 383.607 61.8919 378.414 65.5059 376.068C65.5496 376.04 65.5823 376.002 65.6261 375.974C71.5493 372.213 75.4908 366.427 77.2651 360.476C78.1768 357.473 78.4005 354.487 78.2477 351.464C78.204 348.377 77.5599 345.371 76.206 342.554C74.4481 338.666 71.1562 335.685 67.6405 333.186C65.2275 338.345 62.0339 342.995 57.1315 346.648C58.6001 347.429 59.7901 348.576 60.5326 350.114C62.3942 353.986 60.7182 358.817 56.7876 360.93C56.7712 360.934 56.7657 360.947 56.7494 360.951C50.5641 364.216 46.153 369.867 44.8592 376.379C43.478 382.897 44.6354 390.622 48.9318 397.184C52.1254 401.496 56.2744 404.859 60.9256 406.902C61.2204 400.673 63.4424 394.952 67.4658 390.42C65.8553 389.906 64.3649 388.864 63.2676 387.396" fill="#000000" fill-rule="evenodd" opacity="1" stroke="none"/>
<path d="M85.1645 414.507C82.0692 411.105 82.2602 405.972 85.6177 403.014C91.0004 398.353 93.6863 392.337 94.7618 386.021C95.799 379.687 94.729 373.465 90.9567 368.479C88.582 364.936 85.5084 362.081 81.3922 360.296C79.9947 365.636 77.0958 370.98 72.8267 375.303C74.3771 375.866 75.5236 376.958 76.5881 378.294C79.1703 381.734 78.3624 386.669 74.7866 389.345C74.732 389.384 74.6938 389.437 74.6391 389.481C69.0926 393.619 65.7789 399.684 65.1838 406.486C64.8617 410.154 65.3094 413.703 66.6578 417.142C67.362 418.944 68.2683 420.659 69.3273 422.28C71.1398 425.054 72.9905 427.199 75.5618 429.334C77.0085 430.535 78.5753 431.588 80.2567 432.435C80.748 432.68 85.5522 434.234 85.563 434.3C84.7223 428.312 86.1908 422.213 89.5811 417.055C87.9651 416.733 86.3983 415.865 85.1645 414.507" fill="#3d85c6" fill-rule="evenodd" opacity="1" stroke="none"/>
<path d="M109.431 426.79C113.995 421.45 116.085 414.741 116.064 408.491C116.042 405.362 115.485 402.336 114.349 399.581C113.219 396.828 111.887 393.968 109.742 391.691C106.876 388.52 103.12 386.407 98.7306 385.3C98.2339 390.704 96.2958 396.306 92.7528 401.185C94.3742 401.513 95.8373 402.266 96.9837 403.533C99.8716 406.717 99.6697 411.841 96.5361 415.014L96.5361 415.019L96.5361 415.019C91.519 419.998 89.2262 426.444 89.7721 433.194C90.0451 436.557 91.0222 439.969 92.6764 443.206C94.3415 446.426 96.5743 449.597 99.7897 451.847C104.075 455.073 108.999 457.11 114.022 457.737C112.499 451.655 112.968 445.509 115.496 439.984C113.814 439.952 112.095 439.378 110.626 438.28C106.838 435.644 106.597 430.136 109.382 426.86C109.403 426.839 109.414 426.811 109.431 426.79" fill="#000000" fill-rule="evenodd" opacity="1" stroke="none"/>
<path d="M144.386 459.063C142.754 459.223 141.007 458.835 139.44 457.884C135.526 455.51 134.221 450.548 136.476 446.835C136.503 446.786 136.514 446.737 136.547 446.688C140.264 440.732 141.269 433.891 140.215 427.882C139.369 421.493 136.574 415.795 131.546 412.076C127.976 409.696 124.433 407.585 119.94 407.126C120.142 412.677 118.919 418.661 116.096 424.06C117.658 424.25 119.35 424.617 120.688 425.674C124.138 428.242 124.787 433.23 122.156 436.834C122.112 436.894 122.085 436.96 122.041 437.02C117.963 442.604 116.56 449.396 117.953 456.11C119.323 462.88 124.083 468.76 130.749 472.909C133.064 474.257 135.406 475.447 137.955 476.01C140.515 476.55 143.114 476.752 145.685 476.605C143.218 470.937 142.612 465.068 144.386 459.063" fill="#3d85c6" fill-rule="evenodd" opacity="1" stroke="none"/>
<path d="M175.968 473.246C174.352 473.705 172.545 473.652 170.819 473.018C168.658 472.227 167.025 470.653 166.179 468.787C165.382 466.804 165.36 464.567 166.239 462.514C169.023 456.071 169.056 449.013 167.222 443.007C165.42 436.855 161.424 432.375 156.232 428.858C152.586 426.625 148.426 425.643 143.895 425.877C145.014 431.183 144.768 437.167 142.808 442.877C143.087 442.075 146.717 443.374 147.197 443.609C149.152 444.547 150.528 446.829 151.117 448.872C151.674 450.821 151.559 452.956 150.495 454.964C147.208 461.134 146.881 468.018 149.376 474.334C151.909 480.48 156.98 486.737 164.476 489.176C169.509 491.038 174.81 491.573 179.778 490.716C176.541 485.323 175.176 479.279 175.968 473.246" fill="#000000" fill-rule="evenodd" opacity="1" stroke="none"/>
<path d="M204.126 483.303C199.71 482.173 197.007 477.833 198.023 473.628C198.045 473.558 198.039 473.487 198.061 473.421C199.846 466.631 198.782 459.78 196.008 454.325C193.23 448.767 188.971 443.854 183.081 441.807C178.997 440.519 174.854 439.903 170.514 440.579C172.337 445.821 172.861 452.064 171.829 457.873C171.895 457.519 174.433 457.523 174.756 457.573C179.745 458.381 183.168 463.219 181.388 468.301C181.367 468.361 181.367 468.416 181.345 468.476C179.079 475.021 179.74 481.966 183.054 488.02C186.46 493.795 192.667 498.271 200.283 500.231C205.442 501.756 210.841 501.024 215.656 499.282C211.611 494.635 209.329 489.04 209.192 482.996C207.686 483.625 205.906 483.762 204.126 483.303" fill="#3d85c6" fill-rule="evenodd" opacity="1" stroke="none"/>
<path d="M238.585 488.419C233.961 488.266 230.592 484.286 231.1 479.804C231.1 479.793 231.1 479.783 231.1 479.776C231.853 472.794 229.795 466.034 226.258 460.827C224.484 458.223 222.322 456.007 219.843 454.331C218.598 453.491 217.277 452.791 215.88 452.245C214.51 451.591 213.079 450.989 211.562 450.608C207.434 449.527 203.176 449.789 198.929 451.333C201.555 456.095 203.089 461.904 202.909 467.947C204.421 467.318 206.053 467.15 207.702 467.574C211.835 468.792 214.641 472.76 213.838 477.14C213.833 477.162 213.838 477.183 213.833 477.2C212.533 484.056 214.258 490.727 218.506 496.024C222.737 501.197 229.446 505.62 237.302 505.729C242.657 506.012 247.865 504.959 252.358 502.673C247.68 498.474 244.595 493.106 243.569 487.114C242.16 488.025 240.419 488.511 238.585 488.419" fill="#000000" fill-rule="evenodd" opacity="1" stroke="none"/>
<path d="M278.169 486.617C276.914 487.664 275.254 488.325 273.42 488.419C268.867 488.654 265.007 485.301 264.751 480.983C264.745 480.913 264.729 480.851 264.723 480.781C264.439 473.765 261.41 467.542 257.146 463.158C252.844 458.562 247.314 455.216 241.063 454.975C238.929 454.839 236.799 455.188 234.736 455.574C232.678 455.903 230.658 456.557 228.682 457.541C231.974 462.023 234.326 467.847 235.069 473.652C236.483 472.739 238.071 472.242 239.78 472.329C244.077 472.543 247.429 476.321 247.287 480.781C247.281 480.851 247.303 480.913 247.297 480.983C247.074 487.899 249.749 494.33 254.684 499.124C259.635 503.748 266.869 506.089 274.703 505.729C277.378 505.554 279.976 505.2 282.4 504.262C284.819 503.257 287.079 501.956 289.12 500.385C283.891 497.116 280.091 492.584 278.169 486.617" fill="#3d85c6" fill-rule="evenodd" opacity="1" stroke="none"/>
<path d="M312.257 480.578C311.181 481.866 309.658 482.849 307.878 483.303C303.44 484.591 299.018 481.529 298.172 477.14C296.845 470.244 292.904 464.403 288.007 460.483C283.055 456.432 277.23 454.982 270.947 454.975C266.672 455.178 262.671 456.7 259.057 459.434C262.976 463.196 266.148 468.29 267.753 474.11C267.649 473.75 269.991 472.784 270.292 472.69C275.134 471.161 280.337 474.869 280.915 479.797C281.669 486.747 285.277 492.622 290.889 496.42C293.69 498.327 296.976 499.713 300.541 500.461C302.326 500.837 304.177 501.056 306.066 501.099C309.522 501.182 313.512 499.92 316.646 498.551C318.278 497.834 319.85 496.979 321.33 495.985C321.739 495.712 325.102 492.769 325.233 492.829C319.523 490.208 315.003 485.999 312.257 480.578" fill="#000000" fill-rule="evenodd" opacity="1" stroke="none"/>
<path d="M345.197 469.89C344.302 471.265 342.91 472.389 341.19 473.018C336.894 474.596 332.21 472.532 330.698 468.465C330.676 468.406 330.643 468.361 330.621 468.301C328.279 461.684 323.552 456.63 318.191 453.702C312.704 450.471 306.481 449.002 300.448 450.608C296.359 451.885 292.543 453.523 289.361 456.617C293.821 459.955 297.746 464.682 300.197 470.24C301.278 468.952 302.654 468 304.303 467.574C308.468 466.499 312.775 469.114 313.949 473.421C313.971 473.487 314.009 473.547 314.025 473.617C315.843 480.29 320.287 485.634 326.412 488.745C332.543 491.808 340.137 491.825 347.534 489.176C352.644 487.485 356.771 484.018 359.73 479.783C353.757 478.194 348.779 474.978 345.197 469.89" fill="#3d85c6" fill-rule="evenodd" opacity="1" stroke="none"/>
<path d="M372.57 457.884C370.599 459.076 368.35 459.374 366.363 458.867C364.337 458.3 362.552 456.89 361.515 454.958C361.515 454.954 361.504 454.943 361.499 454.937C358.19 448.746 352.688 444.323 346.841 442.02C340.901 439.57 334.912 439.962 328.929 441.807C324.917 443.259 321.554 445.897 318.917 449.582C323.765 452.015 328.296 455.941 331.544 461.029C332.439 459.654 333.689 458.59 335.289 458.005C337.32 457.263 339.498 457.432 341.409 458.283C343.265 459.014 344.875 460.466 345.771 462.514C345.776 462.524 345.782 462.537 345.787 462.548C348.571 468.952 353.757 473.498 360.248 475.479C366.652 477.351 374.683 477.232 381.261 472.909C385.852 470.135 389.57 466.331 392.005 461.919C385.759 461.085 380.186 458.381 375.955 454.009C375.305 455.549 374.137 456.929 372.57 457.884" fill="#000000" fill-rule="evenodd" opacity="1" stroke="none"/>
<path d="M401.384 438.28L401.384 438.28C397.737 441.009 392.649 440.41 390.001 436.998C389.958 436.938 389.897 436.894 389.854 436.834C385.661 431.206 379.634 427.756 373.624 426.511C367.591 425.304 361.051 425.512 355.777 428.858C353.932 429.933 352.382 431.434 350.88 432.893C349.368 434.324 348.069 436.011 346.994 437.932C352.223 439.766 357.459 443.276 361.34 447.654C361.995 446.11 363.033 444.805 364.49 443.92C368.164 441.681 373.067 442.92 375.463 446.688C375.491 446.737 375.534 446.769 375.562 446.818C379.274 452.676 385.126 456.493 391.928 457.677C398.518 458.541 405.942 456.564 412.215 451.847C416.642 448.789 419.317 443.963 421.042 439.22C414.868 439.459 409.043 437.719 404.244 434.062C403.917 435.78 402.825 437.145 401.384 438.28" fill="#3d85c6" fill-rule="evenodd" opacity="1" stroke="none"/>
<path d="M428.985 409.843C428.805 411.498 428.079 413.153 426.845 414.507C423.728 417.934 418.591 418.168 415.479 415.025C415.479 415.025 415.468 415.019 415.468 415.014C410.528 410.116 403.928 407.463 397.639 406.955C394.483 406.704 391.382 407 388.511 407.879C385.617 408.736 383.068 410.318 380.458 412.076C377.03 414.62 374.563 418.104 373.11 422.373C378.488 423.295 383.991 425.73 388.604 429.639C389.062 428.072 389.952 426.692 391.317 425.674C394.871 423.231 399.588 423.35 402.579 426.79C402.596 426.811 402.623 426.828 402.639 426.85C407.187 432.128 413.481 434.955 420.283 434.973C423.69 434.989 427.206 434.307 430.601 432.947C433.991 431.582 436.885 429.17 439.571 426.321C443.168 422.346 445.674 417.684 446.69 412.743C440.493 413.779 434.314 412.786 428.985 409.843" fill="#000000" fill-rule="evenodd" opacity="1" stroke="none"/>
<path d="M450.085 382.417C450.162 384.087 449.883 385.954 448.742 387.396C446.013 391.053 440.936 391.943 437.398 389.443C437.338 389.405 437.278 389.384 437.223 389.345C431.562 385.191 424.76 383.639 418.607 384.184C412.635 384.923 406.417 387.019 402.268 391.691C399.418 394.879 397.671 398.86 396.596 403.019C402.29 403.386 408.006 404.887 413.072 407.998C413.252 406.333 413.874 404.799 415.021 403.533C417.914 400.351 422.997 400.121 426.392 403.014C426.414 403.036 426.447 403.057 426.469 403.081C431.671 407.557 438.681 409.724 445.237 408.6C451.816 407.512 458.405 403.494 463.078 397.184C466.07 392.744 467.522 387.537 467.735 382.466C461.866 384.485 455.752 384.513 450.085 382.417" fill="#3d85c6" fill-rule="evenodd" opacity="1" stroke="none"/>
<path d="M466.719 352.052C467.025 353.685 466.801 355.471 466.01 357.123C464.001 361.284 459.153 362.998 455.266 360.947C455.25 360.934 455.233 360.934 455.222 360.923C449.015 357.671 442.257 357.249 435.929 358.526C429.657 359.859 424.443 363.239 421.053 368.479C418.471 371.891 417.095 375.908 416.921 380.397C422.374 379.725 428.379 380.457 433.948 382.854C433.937 381.227 434.395 379.659 435.422 378.294C437.829 374.742 442.557 373.59 446.384 375.974C446.428 376.002 446.477 376.013 446.52 376.04C452.4 379.725 459.251 380.587 465.78 378.638C469.034 377.646 472.326 376.034 475.056 373.671C477.671 371.247 479.942 368.195 481.645 364.663C483.878 359.789 485.221 354.728 484.385 349.557C479.112 352.528 472.604 353.266 466.719 352.052" fill="#000000" fill-rule="evenodd" opacity="1" stroke="none"/>
<path d="M478.702 319.587C479.308 321.169 479.428 322.988 478.97 324.763C477.518 329.102 472.796 331.422 468.69 330.064C468.636 330.047 468.581 330.041 468.532 330.025C461.894 327.731 454.917 328.251 449.168 330.571C446.242 331.723 443.807 333.414 441.498 335.401C439.112 337.357 437.163 339.737 435.804 342.554C433.85 346.341 433.598 350.792 433.8 355.082C439.374 353.773 444.97 353.368 450.882 354.935C450.582 353.297 450.735 351.649 451.477 350.114C453.344 346.239 458.165 344.541 462.265 346.309C462.281 346.316 462.297 346.316 462.314 346.326C468.696 349.126 475.907 349.077 481.792 346.032C487.77 343.051 493.016 337.301 495.56 329.878C496.925 324.686 496.953 319.331 495.631 314.411C490.593 318.075 484.746 319.909 478.702 319.587" fill="#3d85c6" fill-rule="evenodd" opacity="1" stroke="none"/>
<path d="M485.647 285.669C486.416 287.132 486.727 288.9 486.449 290.713C485.756 295.272 481.639 298.338 477.25 297.543C470.252 296.249 463.913 297.908 458.192 300.981C452.613 304.12 448.442 308.833 446.924 314.891C445.543 318.921 445.298 323.125 446.449 327.453C451.494 325.225 457.471 324.161 463.509 324.805C463.127 324.763 463.165 322.229 463.193 321.924C463.613 316.889 468.204 313.2 473.281 314.53C473.347 314.548 473.412 314.544 473.478 314.565C480.171 316.322 486.973 315.125 492.645 311.338C498.607 307.598 502.472 301.058 503.618 293.284C504.301 287.966 504.175 282.741 501.757 278.054C497.69 282.447 491.608 285.079 485.647 285.669" fill="#000000" fill-rule="evenodd" opacity="1" stroke="none"/>
<path d="M200.143 81.2624C170.869 81.2624 151.673 114.375 151.673 129.732C151.673 134.531 153.113 135.491 156.472 135.491C159.831 135.491 177.108 116.775 189.585 116.775C227.977 116.775 245.733 181.561 251.972 224.272C252.931 231.951 252.452 231.951 249.572 241.069C234.695 287.139 186.226 362.003 161.751 398.475C156.952 405.674 156.952 404.234 156.952 410.953C156.952 419.591 172.788 425.35 179.507 425.35C183.346 425.35 189.105 410.953 190.545 408.073C212.62 368.722 246.213 304.895 256.771 275.621C257.73 273.222 259.17 273.702 259.65 276.101C263.969 309.214 274.047 362.003 283.645 393.676C290.843 417.671 299.962 423.91 315.798 423.91C336.434 423.91 362.828 409.513 362.828 373.521C362.828 371.121 359.949 369.202 357.549 369.202C353.71 369.202 340.273 385.998 322.997 385.518C315.318 385.518 300.441 378.32 294.683 358.164C274.047 285.699 261.57 190.679 255.811 159.006C249.572 125.413 232.776 81.2624 200.143 81.2624Z" fill="#3d85c6" fill-rule="evenodd" opacity="1" stroke="#3d85c6" stroke-linecap="butt" stroke-linejoin="miter" stroke-width="5"/>
</g>
</svg>
