<?xml version="1.0" encoding="UTF-8" standalone="no"?>
<!DOCTYPE svg PUBLIC "-//W3C//DTD SVG 1.1//EN" "http://www.w3.org/Graphics/SVG/1.1/DTD/svg11.dtd">

<!-- Created with Vectornator (http://vectornator.io/) -->
<svg height="100%" stroke-miterlimit="10" style="fill-rule:nonzero;clip-rule:evenodd;stroke-linecap:round;stroke-linejoin:round;" version="1.1" viewBox="0 0 512 512" width="100%" xml:space="preserve" xmlns="http://www.w3.org/2000/svg" xmlns:vectornator="http://vectornator.io" xmlns:xlink="http://www.w3.org/1999/xlink">
<metadata>
<vectornator:setting key="IsTimeLapseWatermarkDisabled" value="false"/>
<vectornator:setting key="UndoHistoryDisabled" value="true"/>
<vectornator:setting key="VNDimensionsVisible" value="true"/>
<vectornator:setting key="VNSnapToGuides" value="true"/>
<vectornator:setting key="WDCMYKEnabledKey" value="false"/>
<vectornator:setting key="WDDisplayWhiteBackground" value="false"/>
<vectornator:setting key="WDDynamicGuides" value="false"/>
<vectornator:setting key="WDGuidesVisible" value="true"/>
<vectornator:setting key="WDIsolateActiveLayer" value="false"/>
<vectornator:setting key="WDOutlineMode" value="false"/>
<vectornator:setting key="WDRulersVisible" value="true"/>
<vectornator:setting key="WDSnapToEdges" value="false"/>
<vectornator:setting key="WDSnapToGrid" value="false"/>
<vectornator:setting key="WDSnapToPoints" value="false"/>
<vectornator:setting key="WDUnits" value="Pixels"/>
</metadata>
<defs/>
<g id="Layer-1" vectornator:layerName="Layer 1">
<path d="M492.436 251.321C493.512 252.683 494.181 254.418 494.27 256.293C494.047 260.957 490.233 264.64 485.806 264.561C485.74 264.561 485.678 264.579 485.617 264.573C478.452 264.333 471.801 266.951 466.889 270.961C464.402 272.97 462.484 275.363 460.912 278.014C459.161 280.647 457.968 283.554 457.483 286.718C456.758 291.015 457.684 295.406 459.384 299.573C464.218 296.566 469.727 294.502 475.927 294.227C475.141 292.727 474.8 291.069 475.063 289.345C475.726 285.005 479.924 281.886 484.457 282.37C484.474 282.37 484.491 282.37 484.502 282.37C491.616 283.181 498.569 280.938 503.392 276.189C508.348 271.48 511.643 264.3 512 256.293C511.755 250.824 510.16 245.595 507.378 241.195C503.575 246.278 498.429 249.82 492.436 251.321" fill="#197d6d" fill-rule="evenodd" opacity="1" stroke="none"/>
<path d="M489.035 216.109C490.233 217.308 491.075 218.943 491.354 220.802C492.068 225.466 488.968 229.707 484.457 230.215C477.365 231.035 471.388 234.571 466.777 239.292C462.289 244.035 459.658 249.905 460.026 256.293C459.775 260.66 460.895 264.845 463.298 268.735C467.547 265.024 473.055 262.18 479.144 260.989C478.207 259.619 477.705 258.034 477.795 256.293C477.566 251.901 481.062 248.202 485.617 248.013C485.678 248.006 485.74 247.991 485.806 247.985C492.871 247.695 499.143 244.486 503.536 239.092C505.716 236.385 507.556 233.131 508.532 229.568C509.842 224.797 509.402 219.511 508.186 214.814C507.83 213.437 507.389 212.075 506.848 210.752C506.313 209.457 505.683 208.198 504.947 207.003C504.741 206.674 502.527 203.917 502.577 203.828C499.667 209.396 494.733 213.738 489.035 216.109" fill="#000000" fill-rule="evenodd" opacity="1" stroke="none"/>
<path d="M480.549 181.773C481.954 182.765 483.192 184.199 483.716 186.002C484.887 190.522 482.35 195.153 478.096 196.385C478.029 196.406 477.973 196.441 477.906 196.457C470.987 198.337 465.411 202.786 461.91 208.051C458.66 213.298 456.558 219.551 457.483 225.867C458.013 230.198 460.41 234.092 463.003 237.612C467 233.288 471.444 229.729 477.343 227.647C476.144 226.442 475.325 224.965 475.063 223.241C474.399 218.892 477.482 214.686 481.959 213.821C481.987 213.816 482.01 213.806 482.037 213.799C488.94 212.504 495.184 208.28 498.351 202.339C501.691 196.385 502.7 188.545 500.659 180.773C498.92 175.579 495.764 171.076 491.828 167.678C489.704 173.665 485.834 178.569 480.549 181.773" fill="#197d6d" fill-rule="evenodd" opacity="1" stroke="none"/>
<path d="M466.883 149.133C468.383 149.924 469.666 151.236 470.48 152.925C472.526 157.184 470.814 162.149 466.655 163.98C460.081 166.881 455.498 172.003 452.482 177.872C450.988 180.784 450.051 184.055 449.817 187.313C449.555 190.962 450.135 194.02 451.361 197.411C452.025 199.231 452.789 200.955 453.876 202.568C454.166 202.997 457.74 207.097 457.818 206.981C460.773 202.204 465.194 197.869 470.652 194.939C469.353 193.909 468.4 192.546 467.971 190.855C466.571 186.699 468.734 182.157 473.055 180.622C473.106 180.607 473.15 180.572 473.206 180.55C479.885 178.19 484.937 173.265 487.535 166.802C488.8 163.572 489.642 159.896 489.447 156.223C489.174 152.592 488.187 148.83 486.448 145.221C483.961 140.332 480.805 136.021 476.105 133.421C475.163 139.508 471.583 145.199 466.883 149.133" fill="#000000" fill-rule="evenodd" opacity="1" stroke="none"/>
<path d="M452.844 121.987L452.844 121.987C455.465 125.86 454.249 131.165 450.553 133.565C450.514 133.593 450.48 133.632 450.436 133.661C444.381 137.505 440.361 143.418 438.549 149.501C437.612 152.57 437.384 155.621 437.545 158.712C437.59 161.866 438.242 164.939 439.631 167.818C441.42 171.791 444.782 174.836 448.378 177.392C450.843 172.12 454.104 167.367 459.111 163.633C457.611 162.835 456.396 161.663 455.638 160.089C453.731 156.133 455.443 151.197 459.462 149.037C459.474 149.031 459.485 149.019 459.501 149.015C465.818 145.678 470.323 139.903 471.645 133.247C473.055 126.586 471.873 118.69 467.485 111.984C464.224 107.576 459.987 104.139 455.236 102.051C454.935 108.418 452.666 114.265 448.557 118.897C450.202 119.422 451.724 120.488 452.844 121.987" fill="#197d6d" fill-rule="evenodd" opacity="1" stroke="none"/>
<path d="M430.481 94.2791C433.642 97.7557 433.447 102.999 430.085 105.946C430.063 105.968 430.046 105.996 430.018 106.025C424.521 110.789 421.772 116.937 420.68 123.393C419.62 129.866 420.713 136.226 424.566 141.322C426.991 144.942 430.13 147.86 434.334 149.684C435.761 144.227 438.722 138.765 443.076 134.347C441.498 133.772 440.327 132.656 439.24 131.289C436.603 127.774 437.428 122.73 441.08 119.995C441.136 119.956 441.175 119.901 441.231 119.856C446.895 115.627 450.28 109.429 450.887 102.476C451.729 95.3163 448.824 88.1806 443.478 82.2044C439.809 78.1336 435.326 75.1586 430.074 74.0488C430.933 80.169 429.433 86.4002 425.971 91.6745C427.621 92.0037 429.221 92.8909 430.481 94.2791" fill="#000000" fill-rule="evenodd" opacity="1" stroke="none"/>
<path d="M405.698 81.7251C401.037 87.1825 398.902 94.0392 398.924 100.428C398.941 103.625 399.515 106.715 400.669 109.534C401.829 112.347 403.184 115.27 405.38 117.595C408.302 120.839 412.143 122.999 416.626 124.13C417.128 118.607 419.107 112.881 422.731 107.894C421.075 107.559 419.581 106.783 418.405 105.495C415.461 102.241 415.667 97.0036 418.862 93.7602C418.868 93.7563 418.868 93.7563 418.873 93.7496C423.986 88.6666 426.333 82.0761 425.776 75.1803C425.497 71.7428 424.499 68.2556 422.809 64.9475C421.103 61.6561 418.828 58.4155 415.539 56.1162C411.168 52.8181 406.139 50.7369 401.009 50.0964C402.565 56.3098 402.085 62.6002 399.504 68.2405C401.221 68.2734 402.977 68.8593 404.477 69.9796C408.347 72.6757 408.592 78.3054 405.748 81.6531C405.726 81.6749 405.715 81.7034 405.698 81.7251" fill="#197d6d" fill-rule="evenodd" opacity="1" stroke="none"/>
<path d="M369.999 48.7384C371.666 48.5771 373.444 48.9738 375.05 49.9435C379.048 52.3717 380.38 57.4436 378.077 61.2376C378.05 61.2878 378.038 61.3381 378.005 61.3883C374.208 67.4755 373.182 74.4673 374.258 80.6092C375.117 87.1367 377.977 92.9629 383.107 96.7614C386.758 99.1963 390.377 101.354 394.966 101.823C394.759 96.1493 396.008 90.0336 398.885 84.5149C397.296 84.3207 395.568 83.9463 394.196 82.865C390.678 80.241 390.015 75.1407 392.702 71.4599C392.747 71.3985 392.769 71.331 392.813 71.2702C396.984 65.5618 398.417 58.6203 396.995 51.7569C395.596 44.8394 390.734 38.8235 383.926 34.5892C381.562 33.2116 379.17 31.9953 376.567 31.42C373.952 30.8688 371.298 30.6618 368.672 30.8119C371.192 36.6051 371.805 42.6031 369.999 48.7384" fill="#000000" fill-rule="evenodd" opacity="1" stroke="none"/>
<path d="M337.014 49.7538C336.05 49.4207 334.873 48.9805 334.187 48.3221C333.39 47.5616 332.844 46.5635 332.465 45.5429C331.751 43.6163 331.522 41.269 332.208 39.2989C332.23 39.2381 332.23 39.1767 332.253 39.1203C334.567 32.431 333.892 25.3328 330.508 19.1451C327.029 13.243 320.684 8.66836 312.911 6.66533C307.637 5.10695 302.123 5.85462 297.211 7.63504C301.342 12.3843 303.673 18.1034 303.807 24.2799C305.351 23.6371 307.169 23.4976 308.981 23.9663C313.497 25.1213 316.257 29.5565 315.214 33.8521C315.197 33.9263 315.203 33.9983 315.181 34.0658C313.358 41.0057 314.439 48.008 317.277 53.5836C320.115 59.263 324.464 64.2846 330.48 66.3769C334.65 67.6937 338.882 68.3236 343.314 67.6323C341.452 62.2754 340.917 55.8913 341.971 49.9502C341.826 50.7587 337.917 50.0724 337.449 49.9112C337.31 49.8609 337.165 49.8108 337.014 49.7538" fill="#000000" fill-rule="evenodd" opacity="1" stroke="none"/>
<path d="M337.745 34.2444C339.395 33.7763 341.24 33.8304 343.002 34.4776C345.21 35.2867 346.877 36.8947 347.741 38.8018C348.55 40.8266 348.578 43.1153 347.68 45.2143C344.831 51.7959 344.798 59.0103 346.676 65.1478C348.511 71.4381 352.598 76.0173 357.9 79.611C361.619 81.8931 365.873 82.8979 370.5 82.658C369.357 77.233 369.608 71.1195 371.61 65.2828C369.937 65.444 368.287 65.126 366.798 64.2171C364.914 63.0688 363.659 61.227 363.124 59.1565C362.55 57.1646 362.672 54.9824 363.754 52.9297C367.11 46.6243 367.451 39.589 364.903 33.1396C361.624 24.8356 354.716 19.0948 346.175 16.9372C344.786 16.5841 343.376 16.3268 341.949 16.1656C340.549 16.0155 339.138 15.9541 337.733 15.9976C337.349 16.011 333.92 16.5054 333.847 16.3899C337.159 21.9019 338.547 28.079 337.745 34.2444" fill="#197d6d" fill-rule="evenodd" opacity="1" stroke="none"/>
<path d="M273.789 18.7484C278.199 19.0296 281.979 22.7606 281.438 27.5707C280.669 34.7069 282.771 41.6133 286.378 46.9378C288.195 49.5993 290.403 51.8701 292.935 53.5769C294.206 54.4356 295.549 55.1503 296.977 55.7083C300.4 57.053 304.03 58.2364 307.721 57.8118C308.245 57.7504 314.333 56.7132 314.294 56.639C311.612 51.7742 310.046 45.8375 310.23 39.6605C308.68 40.3038 307.018 40.4756 305.329 40.0399C301.114 38.7978 298.248 34.7415 299.073 30.2037C300.395 23.1969 298.638 16.3793 294.301 10.9655C289.98 5.67549 283.127 1.15775 275.099 1.04615C269.635 0.756584 264.316 1.83343 259.727 4.16959C264.505 8.4608 267.656 13.9449 268.704 20.0713C268.648 19.7315 271.034 19.0296 271.319 18.9621C272.149 18.7656 272.98 18.7004 273.789 18.7484" fill="#197d6d" fill-rule="evenodd" opacity="1" stroke="none"/>
<path d="M233.361 20.579C234.649 19.5088 236.344 18.8332 238.211 18.7372C242.867 18.4978 246.809 21.9237 247.071 26.3376C247.071 26.4091 247.093 26.4727 247.099 26.5446C247.389 33.7127 250.483 40.075 254.837 44.5537C257.123 46.9033 259.61 49.0062 262.537 50.53C264.026 51.3016 265.593 51.9203 267.221 52.3321C270.9 53.265 273.961 52.9013 277.725 52.3042C279.827 51.9706 281.89 51.3016 283.902 50.2967C280.54 45.7154 278.143 39.7609 277.385 33.8304C275.941 34.7633 274.318 35.271 272.573 35.1817C268.185 34.9636 264.762 31.102 264.907 26.5446C264.912 26.4727 264.89 26.4051 264.896 26.3376C265.124 19.2695 262.392 12.6957 257.352 7.79629C252.295 3.07098 244.902 0.677917 236.901 1.04615C234.175 1.22528 231.521 1.58681 229.045 2.54596C226.576 3.57257 224.267 4.90217 222.176 6.50796C227.518 9.84955 231.404 14.4811 233.361 20.579" fill="#000000" fill-rule="evenodd" opacity="1" stroke="none"/>
<path d="M198.553 26.7517C199.652 25.4326 201.207 24.4305 203.019 23.9663C207.558 22.6495 212.074 25.7797 212.921 30.2037C212.927 30.2254 212.932 30.2433 212.938 30.2651C214.293 37.3131 218.318 43.2832 223.319 47.2888C228.376 51.4277 234.325 52.9118 240.743 52.9185C245.108 52.7115 249.195 51.1554 252.886 48.3589C248.883 44.5169 245.644 39.3101 244.004 33.3617C242.711 34.4341 241.172 35.0969 239.432 35.1817C235.033 35.3106 231.086 31.9998 230.568 27.5752C230.568 27.5646 230.562 27.5534 230.562 27.5489C229.787 20.4462 226.107 14.4415 220.376 10.5576C217.515 8.61145 214.159 7.19481 210.518 6.42987C208.695 6.04376 206.805 5.82169 204.87 5.77817C202.963 5.83899 201.034 6.18325 199.094 6.66533C193.775 8.01444 189.002 10.6318 185.3 14.23C191.132 16.9088 195.749 21.2089 198.553 26.7517" fill="#197d6d" fill-rule="evenodd" opacity="1" stroke="none"/>
<path d="M164.911 37.6753C165.825 36.2692 167.241 35.121 169.003 34.4776C173.386 32.8651 178.175 34.9748 179.719 39.1309C179.742 39.1923 179.775 39.2381 179.797 39.2989C182.189 46.0618 187.018 51.2274 192.487 54.2174C198.096 57.5216 204.452 59.0237 210.613 57.3822C214.789 56.0766 218.686 54.4027 221.937 51.238C217.382 47.8294 213.373 42.9976 210.869 37.3176C209.765 38.6344 208.36 39.6063 206.671 40.0399C202.423 41.1407 198.024 38.4687 196.825 34.0658C196.803 33.9983 196.764 33.9375 196.747 33.8656C194.885 27.0457 190.352 21.5839 184.091 18.4041C177.835 15.274 170.079 15.2567 162.525 17.9639C157.306 19.6919 153.091 23.236 150.063 27.5646C156.169 29.1882 161.253 32.4751 164.911 37.6753" fill="#000000" fill-rule="evenodd" opacity="1" stroke="none"/>
<path d="M136.956 49.9435C138.968 48.7272 141.26 48.4225 143.295 48.9409C145.358 49.5206 147.187 50.959 148.24 52.9358C148.246 52.9403 148.257 52.9515 148.257 52.9576C151.641 59.2848 157.261 63.8053 163.227 66.1593C169.299 68.6634 175.41 68.2622 181.526 66.3769C185.618 64.8928 189.058 62.1967 191.751 58.4306C186.8 55.9415 182.173 51.9315 178.855 46.7308C177.935 48.1369 176.664 49.2243 175.025 49.8213C172.951 50.5802 170.732 50.4077 168.78 49.5385C166.885 48.7908 165.234 47.3066 164.325 45.2143C164.32 45.2031 164.314 45.1903 164.309 45.1792C161.465 38.6344 156.169 33.9872 149.539 31.9629C142.999 30.0491 134.798 30.1713 128.079 34.5892C123.391 37.4247 119.588 41.3126 117.107 45.8219C123.48 46.6745 129.178 49.4358 133.499 53.9061C134.157 52.3321 135.355 50.92 136.956 49.9435" fill="#197d6d" fill-rule="evenodd" opacity="1" stroke="none"/>
<path d="M107.528 69.9796C111.253 67.1899 116.443 67.8048 119.153 71.292C119.198 71.3527 119.259 71.3985 119.304 71.4599C123.586 77.2113 129.741 80.7381 135.879 82.0108C142.04 83.2444 148.72 83.0307 154.106 79.611C155.985 78.5124 157.574 76.9781 159.107 75.4872C160.651 74.0248 161.978 72.3007 163.077 70.3373C157.73 68.4631 152.388 64.8755 148.419 60.4007C147.755 61.9786 146.696 63.3127 145.207 64.2171C141.455 66.5058 136.448 65.237 134.001 61.3883C133.967 61.3381 133.928 61.3051 133.895 61.2555C130.103 55.2681 124.132 51.3669 117.185 50.1572C113.12 49.4425 108.632 50.2359 104.802 51.6023C100.91 52.9905 96.9126 55.301 93.9632 58.1906C92.9039 59.2284 91.9672 60.3834 91.1364 61.6059C90.3057 62.8222 89.5865 64.1105 88.9453 65.4334C88.778 65.7844 87.6239 69.0166 87.4511 69.0211C93.7569 68.7745 99.7059 70.5555 104.601 74.2932C104.941 72.5362 106.056 71.1413 107.528 69.9796" fill="#000000" fill-rule="evenodd" opacity="1" stroke="none"/>
<path d="M79.3388 99.0434C79.5228 97.3545 80.2643 95.6634 81.5243 94.2791C84.708 90.7768 89.9544 90.5369 93.1325 93.7496L93.1381 93.7563L93.1381 93.7563C98.1894 98.7645 104.93 101.478 111.353 101.997C114.576 102.252 117.743 101.951 120.675 101.053C123.625 100.177 126.234 98.5597 128.893 96.7614C132.4 94.1613 134.921 90.6021 136.404 86.239C130.912 85.2971 125.292 82.8081 120.58 78.8132C120.107 80.415 119.203 81.8211 117.804 82.865C114.18 85.363 109.363 85.2408 106.307 81.7251C106.291 81.7034 106.263 81.6861 106.246 81.6643C101.602 76.27 95.1731 73.3776 88.2261 73.3625C84.747 73.3452 81.1564 74.0427 77.6884 75.4331C74.2261 76.828 71.2711 79.293 68.528 82.2044C64.8537 86.2674 62.289 91.0318 61.2576 96.0818C67.5857 95.0222 73.8972 96.0377 79.3388 99.0434" fill="#197d6d" fill-rule="evenodd" opacity="1" stroke="none"/>
<path d="M57.7896 127.076C57.5165 126.97 57.9569 124.659 58.0238 124.394C58.1409 123.923 58.2803 123.389 58.5367 122.97C60.9676 119.019 66.4483 116.854 70.747 119.89C70.8027 119.934 70.8697 119.956 70.9254 119.995C76.7071 124.241 83.6486 125.825 89.9322 125.267C96.0373 124.515 102.388 122.373 106.625 117.595C109.53 114.337 111.32 110.27 112.418 106.013C106.603 105.645 100.765 104.111 95.5912 100.931C95.4073 102.633 94.7716 104.2 93.5952 105.495C90.6458 108.747 85.4551 108.982 81.9035 105.957C76.5957 101.382 69.4312 99.1679 62.7407 100.316C56.0222 101.428 49.2927 105.534 44.52 111.984C41.4647 116.519 39.9816 121.843 39.7641 127.026C45.7578 124.962 51.9967 124.934 57.7896 127.076" fill="#000000" fill-rule="evenodd" opacity="1" stroke="none"/>
<path d="M40.8012 158.11C40.489 156.441 40.712 154.617 41.526 152.925C43.5778 148.675 48.5288 146.923 52.4985 149.019C52.5152 149.031 52.5264 149.031 52.5431 149.037C58.8824 152.367 65.7848 152.799 72.2412 151.491C78.653 150.131 83.9776 146.676 87.4399 141.322C90.0771 137.835 91.4765 133.726 91.655 129.141C86.0907 129.827 79.9577 129.072 74.2707 126.63C74.2818 128.292 73.8135 129.894 72.7653 131.289C70.3065 134.92 65.4782 136.097 61.5698 133.661C61.5252 133.632 61.475 133.621 61.4304 133.593C55.4257 129.827 48.4284 128.944 41.7602 130.936C38.4372 131.952 35.0752 133.6 32.2875 136.015C29.6168 138.492 27.2974 141.611 25.5579 145.221C23.2775 150.203 21.906 155.375 22.759 160.66C28.1393 157.624 34.7909 156.87 40.8012 158.11" fill="#197d6d" fill-rule="evenodd" opacity="1" stroke="none"/>
<path d="M28.5631 191.291C27.9442 189.674 27.816 187.815 28.2899 186.002C29.773 181.566 34.5957 179.195 38.7884 180.583C38.8387 180.601 38.8944 180.607 38.9501 180.622C45.7299 182.965 52.8498 182.436 58.7263 180.064C61.7147 178.888 64.2014 177.152 66.5598 175.128C68.9963 173.129 70.9867 170.704 72.3751 167.818C74.3711 163.945 74.6275 159.398 74.4212 155.013C68.7287 156.351 63.0138 156.765 56.9701 155.163C57.2823 156.837 57.1205 158.522 56.3679 160.089C54.4611 164.045 49.5379 165.786 45.3508 163.98C45.3341 163.973 45.3173 163.973 45.3006 163.962C38.7829 161.101 31.4177 161.151 25.4073 164.263C19.3022 167.31 13.9442 173.186 11.346 180.773C9.95218 186.08 9.92434 191.553 11.268 196.581C16.4141 192.837 22.3855 190.962 28.5631 191.291" fill="#000000" fill-rule="evenodd" opacity="1" stroke="none"/>
<path d="M21.4711 225.956C20.6849 224.461 20.3672 222.654 20.6459 220.802C21.3596 216.142 25.5635 213.005 29.9681 213.816C29.9904 213.821 30.0183 213.816 30.0462 213.821C37.1939 215.143 43.667 213.448 49.5101 210.305C55.2082 207.097 59.4679 202.282 61.0178 196.095L61.0178 196.091C62.4284 191.971 62.6738 187.675 61.4973 183.251C56.3511 185.526 50.246 186.616 44.074 185.958C44.5925 187.547 44.52 189.181 44.035 190.855C42.9478 195.114 38.5042 197.611 34.0995 196.457C34.0326 196.441 33.9657 196.445 33.8988 196.424C27.0633 194.628 20.1162 195.851 14.3178 199.722C8.23496 203.538 4.28198 210.229 3.11108 218.173C2.41973 223.607 2.54795 228.946 5.01791 233.739C9.1716 229.249 15.3827 226.56 21.4711 225.956" fill="#197d6d" fill-rule="evenodd" opacity="1" stroke="none"/>
<path d="M19.5643 261.264C18.4938 259.902 17.8247 258.167 17.73 256.293C17.9585 251.629 21.7666 247.945 26.1991 248.024C26.266 248.024 26.3217 248.006 26.3886 248.013C33.5531 248.252 40.2046 245.635 45.1166 241.625C47.5977 239.615 49.5212 237.222 51.0935 234.571C52.8442 231.939 54.0374 229.032 54.5169 225.867C55.2472 221.571 54.3217 217.179 52.6212 213.012C47.7817 216.019 42.2787 218.084 36.0788 218.358C36.8649 219.858 37.205 221.514 36.943 223.241C36.2795 227.58 32.0756 230.699 27.5428 230.215C27.5316 230.215 27.5149 230.215 27.5037 230.215C20.3894 229.404 13.4368 231.647 8.61406 236.396C3.65195 241.106 0.362418 248.285 0 256.293C0.250868 261.761 1.84551 266.99 4.62766 271.39C8.43009 266.307 13.5762 262.766 19.5643 261.264" fill="#000000" fill-rule="evenodd" opacity="1" stroke="none"/>
<path d="M22.9709 296.476C21.7722 295.277 20.9303 293.643 20.6459 291.784C19.9378 287.12 23.0378 282.878 27.5037 282.377C27.5149 282.377 27.5316 282.37 27.5428 282.37C34.6403 281.551 40.6116 278.014 45.2281 273.293C49.7108 268.55 52.3424 262.681 51.98 256.293C52.2309 251.923 51.1103 247.738 48.7016 243.85C44.4587 247.562 38.9501 250.406 32.8617 251.593C33.7928 252.967 34.3002 254.551 34.2054 256.293C34.4396 260.684 30.9438 264.383 26.3886 264.573C26.3217 264.579 26.266 264.594 26.1991 264.601C19.1349 264.891 12.8626 268.099 8.46909 273.493C6.28913 276.2 4.44921 279.452 3.4735 283.018C2.66509 286.566 2.50896 290.45 3.11108 294.412C4.00321 299.817 5.91555 304.841 9.42812 308.758C12.3385 303.189 17.2728 298.848 22.9709 296.476" fill="#197d6d" fill-rule="evenodd" opacity="1" stroke="none"/>
<path d="M31.4568 330.812C30.0517 329.82 28.814 328.38 28.2899 326.584C27.119 322.064 29.6558 317.432 33.9099 316.201C33.9713 316.177 34.0326 316.144 34.0995 316.126C41.0186 314.248 46.5941 309.8 50.0955 304.534C53.346 299.288 55.4479 293.035 54.5169 286.718C53.9871 282.388 51.5897 278.493 49.0027 274.973C45.0051 279.298 40.5615 282.857 34.6627 284.938C35.8613 286.143 36.681 287.621 36.943 289.345C37.6064 293.693 34.5177 297.899 30.0462 298.765C30.0183 298.769 29.996 298.78 29.9681 298.786C23.0657 300.081 16.8212 304.305 13.6543 310.246C10.3146 316.201 9.30541 324.038 11.346 331.813C13.0856 337.006 16.2413 341.509 20.1776 344.907C22.3018 338.92 26.1712 334.016 31.4568 330.812" fill="#000000" fill-rule="evenodd" opacity="1" stroke="none"/>
<path d="M45.1222 363.453C43.6224 362.661 42.34 361.349 41.526 359.658C39.4799 355.401 41.1915 350.437 45.3508 348.605C51.9243 345.705 56.5073 340.583 59.5236 334.713C62.434 328.848 63.1365 322.504 61.0178 316.495C59.9585 312.26 57.6391 308.601 54.1879 305.604C51.2329 310.382 46.8115 314.716 41.3476 317.646C42.6523 318.677 43.6001 320.039 44.035 321.73C45.4344 325.887 43.2711 330.428 38.9501 331.963C38.8944 331.978 38.8498 332.013 38.7996 332.035C32.1202 334.395 27.0689 339.321 24.4707 345.783C23.2051 349.013 22.3576 352.69 22.5583 356.363C22.6643 358.376 23.0824 360.412 23.64 362.347C24.6101 365.723 25.9147 368.409 27.8494 371.353C28.8865 372.933 30.0573 374.429 31.401 375.762C31.7913 376.152 35.906 379.11 35.8948 379.165C36.837 373.077 40.4165 367.387 45.1222 363.453" fill="#197d6d" fill-rule="evenodd" opacity="1" stroke="none"/>
<path d="M59.1612 390.598C56.5352 386.725 57.7562 381.418 61.4471 379.021C61.4918 378.992 61.5252 378.953 61.5698 378.925C67.6192 375.08 71.6446 369.167 73.4567 363.084C74.3878 360.016 74.6163 356.964 74.4603 353.874C74.4156 350.72 73.7578 347.647 72.3751 344.767C70.5797 340.794 67.2178 337.747 63.6271 335.193C61.1628 340.465 57.9011 345.219 52.8944 348.952C54.3942 349.75 55.6096 350.923 56.3679 352.494C58.2691 356.452 56.5574 361.389 52.5431 363.549C52.5264 363.552 52.5208 363.566 52.5041 363.57C46.1871 366.907 41.6821 372.683 40.3608 379.339C38.9501 385.999 40.1321 393.896 44.52 400.602C47.7817 405.009 52.0191 408.446 56.7693 410.534C57.0704 404.168 59.3396 398.32 63.4487 393.689C61.8039 393.164 60.2819 392.098 59.1612 390.598" fill="#000000" fill-rule="evenodd" opacity="1" stroke="none"/>
<path d="M81.5243 418.306C78.3631 414.83 78.5582 409.584 81.9872 406.561C87.4845 401.796 90.2276 395.648 91.326 389.193C92.3853 382.719 91.2926 376.36 87.4399 371.264C85.0146 367.643 81.8756 364.725 77.6718 362.901C76.2444 368.359 73.2838 373.82 68.9238 378.238C70.5072 378.814 71.6781 379.929 72.7653 381.296C75.4025 384.812 74.5773 389.855 70.9254 392.59C70.8697 392.63 70.8307 392.684 70.7748 392.729C65.1102 396.958 61.7259 403.157 61.1182 410.109C60.7892 413.858 61.2464 417.485 62.6235 421C63.3428 422.842 64.2683 424.594 65.3499 426.251C67.201 429.086 69.0911 431.278 71.7171 433.46C73.1946 434.688 74.7948 435.764 76.512 436.629C77.0138 436.88 81.9202 438.469 81.9313 438.536C81.0728 432.416 82.5725 426.183 86.0349 420.911C84.3846 420.581 82.7844 419.695 81.5243 418.306" fill="#197d6d" fill-rule="evenodd" opacity="1" stroke="none"/>
<path d="M106.307 430.86C110.968 425.403 113.104 418.546 113.081 412.158C113.059 408.96 112.49 405.868 111.331 403.052C110.177 400.238 108.816 397.315 106.625 394.988C103.698 391.747 99.862 389.587 95.3793 388.456C94.872 393.979 92.8927 399.704 89.2742 404.691C90.9301 405.026 92.4244 405.796 93.5952 407.091C96.5447 410.345 96.3384 415.582 93.1381 418.825L93.1381 418.829L93.1381 418.829C88.0142 423.919 85.6725 430.507 86.2301 437.405C86.5088 440.842 87.5068 444.33 89.1962 447.638C90.8967 450.929 93.1771 454.17 96.461 456.47C100.838 459.767 105.867 461.848 110.996 462.489C109.441 456.273 109.92 449.992 112.502 444.345C110.784 444.312 109.028 443.726 107.528 442.603C103.659 439.909 103.414 434.28 106.257 430.932C106.279 430.91 106.291 430.882 106.307 430.86" fill="#000000" fill-rule="evenodd" opacity="1" stroke="none"/>
<path d="M142.007 463.845C140.34 464.008 138.556 463.612 136.956 462.64C132.958 460.214 131.625 455.142 133.928 451.348C133.956 451.297 133.967 451.247 134.001 451.197C137.797 445.11 138.823 438.118 137.747 431.976C136.883 425.446 134.028 419.623 128.893 415.822C125.247 413.389 121.629 411.232 117.04 410.763C117.246 416.436 115.997 422.552 113.115 428.07C114.709 428.264 116.438 428.639 117.804 429.72C121.328 432.344 121.991 437.442 119.304 441.126C119.259 441.187 119.231 441.254 119.187 441.316C115.022 447.023 113.589 453.965 115.011 460.826C116.41 467.746 121.272 473.755 128.079 477.996C130.443 479.374 132.835 480.59 135.439 481.165C138.054 481.717 140.708 481.924 143.334 481.773C140.814 475.98 140.195 469.982 142.007 463.845" fill="#197d6d" fill-rule="evenodd" opacity="1" stroke="none"/>
<path d="M174.261 478.341C172.611 478.809 170.765 478.755 169.003 478.107C166.795 477.299 165.128 475.69 164.264 473.783C163.45 471.756 163.428 469.47 164.325 467.371C167.169 460.787 167.202 453.573 165.329 447.435C163.489 441.148 159.408 436.568 154.106 432.974C150.381 430.692 146.133 429.688 141.505 429.927C142.648 435.35 142.397 441.466 140.396 447.302C140.68 446.483 144.388 447.81 144.878 448.05C146.874 449.009 148.279 451.341 148.881 453.429C149.45 455.421 149.333 457.603 148.246 459.656C144.889 465.961 144.555 472.997 147.103 479.452C149.69 485.734 154.87 492.128 162.525 494.622C167.665 496.524 173.079 497.071 178.153 496.195C174.846 490.683 173.453 484.507 174.261 478.341" fill="#000000" fill-rule="evenodd" opacity="1" stroke="none"/>
<path d="M203.019 488.619C198.509 487.464 195.749 483.029 196.786 478.731C196.808 478.659 196.803 478.587 196.825 478.519C198.648 471.58 197.561 464.577 194.728 459.002C191.891 453.322 187.542 448.301 181.526 446.208C177.355 444.892 173.124 444.262 168.691 444.953C170.553 450.31 171.089 456.692 170.035 462.629C170.102 462.267 172.694 462.271 173.023 462.321C178.119 463.147 181.615 468.093 179.797 473.286C179.775 473.347 179.775 473.404 179.753 473.465C177.439 480.154 178.114 487.253 181.498 493.44C184.977 499.342 191.316 503.917 199.094 505.92C204.363 507.479 209.877 506.731 214.795 504.95C210.663 500.201 208.333 494.482 208.193 488.305C206.654 488.948 204.837 489.088 203.019 488.619" fill="#197d6d" fill-rule="evenodd" opacity="1" stroke="none"/>
<path d="M238.211 493.848C233.489 493.691 230.049 489.624 230.568 485.043C230.568 485.032 230.568 485.021 230.568 485.014C231.337 477.879 229.235 470.97 225.622 465.647C223.81 462.986 221.602 460.722 219.071 459.009C217.8 458.15 216.45 457.435 215.023 456.877C213.624 456.208 212.163 455.593 210.613 455.203C206.398 454.098 202.049 454.366 197.711 455.944C200.393 460.811 201.96 466.748 201.776 472.925C203.32 472.282 204.987 472.109 206.671 472.543C210.892 473.788 213.758 477.844 212.938 482.32C212.932 482.342 212.938 482.364 212.932 482.382C211.605 489.389 213.367 496.206 217.705 501.62C222.026 506.907 228.878 511.428 236.901 511.539C242.371 511.829 247.69 510.752 252.278 508.416C247.5 504.124 244.35 498.638 243.302 492.514C241.863 493.445 240.085 493.942 238.211 493.848" fill="#000000" fill-rule="evenodd" opacity="1" stroke="none"/>
<path d="M278.639 492.006C277.357 493.076 275.662 493.752 273.789 493.848C269.139 494.088 265.197 490.661 264.935 486.248C264.929 486.176 264.912 486.113 264.907 486.041C264.617 478.87 261.523 472.511 257.168 468.029C252.775 463.333 247.127 459.913 240.743 459.667C238.563 459.527 236.388 459.885 234.281 460.279C232.179 460.615 230.116 461.284 228.098 462.289C231.46 466.87 233.863 472.822 234.621 478.755C236.065 477.822 237.687 477.314 239.432 477.404C243.82 477.621 247.244 481.484 247.099 486.041C247.093 486.113 247.115 486.176 247.11 486.248C246.881 493.316 249.613 499.889 254.654 504.789C259.71 509.514 267.098 511.907 275.099 511.539C277.831 511.36 280.485 510.998 282.96 510.039C285.43 509.013 287.738 507.683 289.823 506.077C284.482 502.736 280.602 498.104 278.639 492.006" fill="#197d6d" fill-rule="evenodd" opacity="1" stroke="none"/>
<path d="M313.452 485.834C312.354 487.15 310.798 488.155 308.981 488.619C304.448 489.936 299.932 486.806 299.068 482.32C297.713 475.272 293.687 469.302 288.686 465.296C283.629 461.155 277.68 459.673 271.263 459.667C266.897 459.874 262.81 461.43 259.119 464.224C263.123 468.069 266.362 473.276 268.001 479.223C267.895 478.855 270.287 477.868 270.594 477.772C275.539 476.209 280.853 479.999 281.444 485.036C282.213 492.139 285.898 498.144 291.63 502.025C294.49 503.974 297.847 505.391 301.487 506.156C303.311 506.539 305.201 506.764 307.13 506.807C310.659 506.892 314.735 505.602 317.935 504.203C319.602 503.47 321.208 502.596 322.719 501.581C323.137 501.302 326.571 498.294 326.705 498.355C320.873 495.676 316.257 491.374 313.452 485.834" fill="#000000" fill-rule="evenodd" opacity="1" stroke="none"/>
<path d="M347.095 474.91C346.18 476.316 344.758 477.465 343.002 478.107C338.614 479.72 333.831 477.611 332.286 473.454C332.264 473.393 332.23 473.347 332.208 473.286C329.816 466.523 324.988 461.358 319.513 458.365C313.909 455.063 307.553 453.562 301.393 455.203C297.217 456.509 293.319 458.182 290.069 461.345C294.624 464.756 298.633 469.588 301.136 475.268C302.24 473.951 303.645 472.979 305.329 472.543C309.583 471.445 313.982 474.117 315.181 478.519C315.203 478.587 315.242 478.648 315.259 478.72C317.115 485.54 321.654 491.001 327.909 494.181C334.171 497.311 341.926 497.329 349.481 494.622C354.7 492.893 358.915 489.349 361.937 485.021C355.837 483.397 350.752 480.11 347.095 474.91" fill="#197d6d" fill-rule="evenodd" opacity="1" stroke="none"/>
<path d="M375.05 462.64C373.037 463.858 370.74 464.163 368.711 463.644C366.642 463.065 364.819 461.624 363.76 459.649C363.76 459.645 363.749 459.634 363.743 459.627C360.364 453.3 354.744 448.78 348.773 446.426C342.707 443.922 336.59 444.323 330.48 446.208C326.382 447.692 322.947 450.388 320.254 454.155C325.205 456.641 329.833 460.654 333.15 465.854C334.065 464.449 335.342 463.361 336.975 462.764C339.049 462.005 341.274 462.178 343.225 463.047C345.121 463.795 346.766 465.279 347.68 467.371C347.686 467.382 347.691 467.395 347.697 467.406C350.54 473.951 355.837 478.598 362.466 480.623C369.006 482.536 377.208 482.414 383.926 477.996C388.615 475.161 392.412 471.273 394.899 466.763C388.52 465.911 382.828 463.147 378.507 458.679C377.843 460.253 376.65 461.663 375.05 462.64" fill="#000000" fill-rule="evenodd" opacity="1" stroke="none"/>
<path d="M404.477 442.603L404.477 442.603C400.753 445.393 395.556 444.78 392.852 441.293C392.808 441.232 392.747 441.187 392.702 441.126C388.42 435.374 382.265 431.848 376.126 430.575C369.965 429.341 363.286 429.554 357.9 432.974C356.015 434.073 354.432 435.607 352.899 437.098C351.354 438.56 350.027 440.284 348.929 442.248C354.27 444.123 359.617 447.71 363.581 452.184C364.25 450.607 365.31 449.272 366.798 448.368C370.551 446.08 375.557 447.346 378.005 451.197C378.033 451.247 378.077 451.28 378.105 451.33C381.897 457.317 387.874 461.219 394.821 462.428C401.55 463.311 409.133 461.29 415.539 456.47C420.061 453.344 422.793 448.412 424.554 443.565C418.249 443.808 412.3 442.03 407.399 438.293C407.064 440.049 405.949 441.444 404.477 442.603" fill="#197d6d" fill-rule="evenodd" opacity="1" stroke="none"/>
<path d="M432.667 413.539C432.483 415.231 431.741 416.922 430.481 418.306C427.298 421.809 422.051 422.048 418.873 418.836C418.873 418.836 418.862 418.829 418.862 418.825C413.816 413.818 407.075 411.107 400.652 410.588C397.43 410.331 394.263 410.634 391.33 411.533C388.375 412.409 385.772 414.025 383.107 415.822C379.605 418.422 377.085 421.983 375.602 426.346C381.094 427.288 386.714 429.777 391.425 433.772C391.893 432.17 392.802 430.76 394.196 429.72C397.826 427.223 402.643 427.344 405.698 430.86C405.715 430.882 405.743 430.9 405.76 430.921C410.404 436.316 416.832 439.205 423.779 439.223C427.259 439.24 430.849 438.543 434.317 437.153C437.779 435.758 440.734 433.293 443.478 430.381C447.152 426.318 449.711 421.554 450.748 416.504C444.42 417.563 438.108 416.547 432.667 413.539" fill="#000000" fill-rule="evenodd" opacity="1" stroke="none"/>
<path d="M454.216 385.509C454.294 387.216 454.01 389.125 452.844 390.598C450.057 394.336 444.871 395.245 441.259 392.69C441.197 392.651 441.136 392.63 441.08 392.59C435.298 388.345 428.351 386.758 422.068 387.316C415.968 388.07 409.618 390.213 405.38 394.988C402.47 398.246 400.686 402.315 399.588 406.565C405.403 406.94 411.24 408.474 416.414 411.654C416.598 409.952 417.234 408.385 418.405 407.091C421.36 403.839 426.551 403.603 430.018 406.561C430.041 406.583 430.074 406.605 430.096 406.629C435.41 411.203 442.569 413.418 449.265 412.269C455.983 411.158 462.713 407.051 467.485 400.602C470.541 396.064 472.024 390.742 472.241 385.559C466.248 387.623 460.003 387.652 454.216 385.509" fill="#197d6d" fill-rule="evenodd" opacity="1" stroke="none"/>
<path d="M471.204 354.475C471.517 356.144 471.288 357.969 470.48 359.658C468.428 363.91 463.477 365.663 459.507 363.566C459.49 363.552 459.474 363.552 459.462 363.542C453.123 360.218 446.221 359.786 439.759 361.092C433.353 362.454 428.028 365.909 424.566 371.264C421.928 374.751 420.523 378.857 420.345 383.445C425.915 382.758 432.048 383.506 437.735 385.956C437.724 384.293 438.192 382.691 439.24 381.296C441.699 377.665 446.527 376.488 450.436 378.925C450.48 378.953 450.531 378.964 450.575 378.992C456.58 382.758 463.577 383.639 470.245 381.647C473.568 380.634 476.93 378.986 479.718 376.571C482.389 374.093 484.708 370.974 486.448 367.364C488.728 362.382 490.1 357.21 489.247 351.925C483.861 354.961 477.215 355.715 471.204 354.475" fill="#000000" fill-rule="evenodd" opacity="1" stroke="none"/>
<path d="M483.442 321.294C484.061 322.912 484.184 324.771 483.716 326.584C482.233 331.019 477.41 333.391 473.217 332.002C473.161 331.985 473.106 331.978 473.055 331.963C466.276 329.618 459.15 330.149 453.279 332.521C450.291 333.698 447.804 335.426 445.446 337.458C443.009 339.456 441.019 341.888 439.631 344.767C437.635 348.638 437.378 353.187 437.584 357.572C443.277 356.234 448.992 355.82 455.03 357.422C454.723 355.748 454.879 354.063 455.638 352.494C457.544 348.533 462.468 346.799 466.655 348.605C466.671 348.612 466.688 348.612 466.705 348.623C473.223 351.485 480.588 351.435 486.598 348.323C492.703 345.276 498.061 339.399 500.659 331.813C502.053 326.505 502.081 321.032 500.732 316.005C495.586 319.749 489.615 321.623 483.442 321.294" fill="#197d6d" fill-rule="evenodd" opacity="1" stroke="none"/>
<path d="M490.534 286.629C491.321 288.124 491.638 289.931 491.354 291.784C490.646 296.443 486.442 299.577 481.959 298.765C474.812 297.442 468.339 299.137 462.495 302.278C456.797 305.486 452.538 310.303 450.988 316.495C449.577 320.614 449.326 324.91 450.503 329.334C455.654 327.057 461.759 325.969 467.926 326.628C467.536 326.584 467.575 323.995 467.603 323.683C468.032 318.537 472.721 314.767 477.906 316.126C477.973 316.144 478.04 316.14 478.107 316.162C484.942 317.958 491.889 316.735 497.682 312.864C503.771 309.041 507.718 302.357 508.889 294.412C509.586 288.976 509.458 283.637 506.988 278.846C502.834 283.336 496.623 286.025 490.534 286.629" fill="#000000" fill-rule="evenodd" opacity="1" stroke="none"/>
<path d="M198.951 77.7169C169.054 77.7169 149.449 111.56 149.449 127.255C149.449 132.16 150.919 133.141 154.35 133.141C157.781 133.141 175.425 114.012 188.168 114.012C227.378 114.012 245.512 180.226 251.884 223.879C252.864 231.726 252.374 231.726 249.433 241.045C234.239 288.131 184.738 364.645 159.741 401.922C154.84 409.279 154.84 407.807 154.84 414.674C154.84 423.502 171.014 429.388 177.876 429.388C181.797 429.388 187.678 414.674 189.149 411.731C211.694 371.512 246.002 306.279 256.785 276.36C257.765 273.907 259.235 274.398 259.726 276.85C264.137 310.693 274.429 364.645 284.231 397.017C291.583 421.541 300.895 427.917 317.069 427.917C338.144 427.917 365.101 413.202 365.101 376.417C365.101 373.964 362.16 372.003 359.71 372.003C355.789 372.003 342.065 389.169 324.421 388.679C316.579 388.679 301.386 381.322 295.504 360.722C274.429 286.66 261.686 189.545 255.805 157.174C249.433 122.841 232.279 77.7169 198.951 77.7169Z" fill="#197d6d" fill-rule="evenodd" opacity="1" stroke="#197d6d" stroke-linecap="butt" stroke-linejoin="miter" stroke-width="5"/>
</g>
</svg>
