<?xml version="1.0" encoding="UTF-8"?>
<!DOCTYPE svg PUBLIC "-//W3C//DTD SVG 1.1//EN" "http://www.w3.org/Graphics/SVG/1.1/DTD/svg11.dtd">
<svg version="1.1" xmlns="http://www.w3.org/2000/svg" xmlns:xlink="http://www.w3.org/1999/xlink" x="0" y="0" width="400" height="59" viewBox="0, 0, 400, 59">
  <g id="Layer_1">
    <g>
      <text transform="matrix(1, 0, 0, 1, 20.327, 27.5)">
        <tspan x="-18.327" y="22.5" font-family="Palatino-Roman" font-size="60" kerning="0" fill="#3D85C6">λ </tspan>
      </text>
      <text transform="matrix(1, 0, 0, 1, 77.384, 29)">
        <tspan x="-26.75" y="21" font-family="EBGaramond12-AllSC" font-size="60" kerning="0" fill="#000000">ai</tspan>
      </text>
      <text transform="matrix(1, 0, 0, 1, 111.134, 27.5)">
        <tspan x="-8" y="22.5" font-family="Palatino-Roman" font-size="60" kerning="0" fill="#000000">: </tspan>
      </text>
    </g>
    <text transform="matrix(1, 0, 0, 1, 144.739, 26.503)">
      <tspan x="-15.017" y="22.5" font-family="Palatino-Roman" font-size="60" kerning="0" fill="#3D85C6">τ</tspan>
    </text>
    <g>
      <text transform="matrix(1, 0, 0, 1, 172.255, 27.5)">
        <tspan x="-15.5" y="22.5" font-family="Palatino-Roman" font-size="60" kerning="0" fill="#000000"> . </tspan>
      </text>
      <text transform="matrix(1, 0, 0, 1, 218.94, 27.5)">
        <tspan x="-17.185" y="22.5" font-family="Palatino-Roman" font-size="60" kerning="-4" fill="#000000">F</tspan>
      </text>
      <text transform="matrix(1, 0, 0, 1, 316.345, 29)">
        <tspan x="-85.22" y="21" font-family="EBGaramond12-AllSC" font-size="60" kerning="0" fill="#000000">aun ai</tspan>
      </text>
    </g>
  </g>
</svg>
