<?xml version="1.0" encoding="UTF-8" standalone="no"?>
<!DOCTYPE svg PUBLIC "-//W3C//DTD SVG 1.1//EN" "http://www.w3.org/Graphics/SVG/1.1/DTD/svg11.dtd">

<!-- Created with Vectornator (http://vectornator.io/) -->
<svg height="100%" stroke-miterlimit="10" style="fill-rule:nonzero;clip-rule:evenodd;stroke-linecap:round;stroke-linejoin:round;" version="1.1" viewBox="0 0 512 512" width="100%" xml:space="preserve" xmlns="http://www.w3.org/2000/svg" xmlns:vectornator="http://vectornator.io" xmlns:xlink="http://www.w3.org/1999/xlink">
<metadata>
<vectornator:setting key="IsTimeLapseWatermarkDisabled" value="false"/>
<vectornator:setting key="UndoHistoryDisabled" value="true"/>
<vectornator:setting key="VNDimensionsVisible" value="true"/>
<vectornator:setting key="VNSnapToGuides" value="true"/>
<vectornator:setting key="WDCMYKEnabledKey" value="false"/>
<vectornator:setting key="WDDisplayWhiteBackground" value="false"/>
<vectornator:setting key="WDDynamicGuides" value="false"/>
<vectornator:setting key="WDGuidesVisible" value="true"/>
<vectornator:setting key="WDIsolateActiveLayer" value="false"/>
<vectornator:setting key="WDOutlineMode" value="false"/>
<vectornator:setting key="WDRulersVisible" value="true"/>
<vectornator:setting key="WDSnapToEdges" value="false"/>
<vectornator:setting key="WDSnapToGrid" value="false"/>
<vectornator:setting key="WDSnapToPoints" value="false"/>
<vectornator:setting key="WDUnits" value="Pixels"/>
</metadata>
<defs/>
<g id="Layer-1" vectornator:layerName="Layer 1">
<path d="M443.141 199.972C443.993 201.049 444.523 202.421 444.593 203.904C444.417 207.593 441.398 210.506 437.894 210.444C437.841 210.444 437.793 210.458 437.744 210.453C432.074 210.263 426.809 212.333 422.921 215.505C420.953 217.095 419.435 218.987 418.19 221.084C416.805 223.166 415.86 225.466 415.476 227.968C414.903 231.366 415.635 234.84 416.981 238.135C420.807 235.757 425.167 234.124 430.075 233.907C429.452 232.721 429.183 231.409 429.391 230.046C429.916 226.613 433.239 224.147 436.826 224.529C436.84 224.529 436.853 224.529 436.862 224.529C442.493 225.171 447.996 223.397 451.813 219.64C455.736 215.915 458.344 210.237 458.627 203.904C458.433 199.578 457.17 195.443 454.968 191.963C451.959 195.983 447.885 198.784 443.141 199.972" fill="#3d85c6" fill-rule="evenodd" opacity="1" stroke="none"/>
<path d="M440.45 172.122C441.398 173.069 442.065 174.362 442.285 175.833C442.85 179.522 440.397 182.877 436.826 183.278C431.213 183.926 426.482 186.724 422.833 190.458C419.28 194.209 417.197 198.851 417.489 203.904C417.29 207.358 418.177 210.668 420.079 213.745C423.442 210.81 427.802 208.56 432.621 207.619C431.879 206.534 431.482 205.281 431.553 203.904C431.372 200.43 434.139 197.505 437.744 197.355C437.793 197.35 437.841 197.338 437.894 197.333C443.486 197.103 448.45 194.566 451.928 190.299C453.653 188.158 455.11 185.584 455.882 182.766C456.919 178.993 456.57 174.812 455.608 171.097C455.326 170.008 454.977 168.93 454.549 167.884C454.126 166.86 453.627 165.864 453.044 164.919C452.881 164.659 451.129 162.478 451.169 162.408C448.865 166.812 444.96 170.246 440.45 172.122" fill="#000000" fill-rule="evenodd" opacity="1" stroke="none"/>
<path d="M433.733 144.964C434.845 145.749 435.825 146.883 436.24 148.308C437.166 151.883 435.158 155.547 431.791 156.521C431.738 156.538 431.694 156.566 431.641 156.578C426.165 158.065 421.752 161.584 418.98 165.748C416.407 169.898 414.744 174.844 415.476 179.839C415.896 183.264 417.793 186.345 419.845 189.129C423.009 185.709 426.526 182.894 431.195 181.247C430.247 180.294 429.598 179.125 429.391 177.762C428.865 174.323 431.306 170.996 434.849 170.311C434.871 170.308 434.889 170.299 434.911 170.294C440.374 169.27 445.317 165.929 447.824 161.23C450.467 156.521 451.266 150.32 449.651 144.173C448.274 140.065 445.776 136.504 442.66 133.816C440.979 138.551 437.916 142.43 433.733 144.964" fill="#3d85c6" fill-rule="evenodd" opacity="1" stroke="none"/>
<path d="M422.917 119.148C424.104 119.774 425.119 120.811 425.763 122.147C427.383 125.516 426.028 129.443 422.736 130.891C417.533 133.185 413.905 137.236 411.518 141.878C410.335 144.181 409.594 146.769 409.408 149.346C409.201 152.232 409.66 154.65 410.631 157.333C411.156 158.772 411.761 160.135 412.621 161.411C412.851 161.751 415.679 164.993 415.741 164.902C418.08 161.123 421.579 157.695 425.9 155.378C424.872 154.563 424.117 153.485 423.777 152.147C422.669 148.86 424.382 145.267 427.802 144.054C427.842 144.042 427.877 144.014 427.921 143.997C433.208 142.13 437.206 138.234 439.262 133.123C440.264 130.568 440.931 127.66 440.776 124.756C440.56 121.884 439.779 118.909 438.402 116.054C436.434 112.187 433.936 108.778 430.216 106.721C429.47 111.536 426.637 116.037 422.917 119.148" fill="#000000" fill-rule="evenodd" opacity="1" stroke="none"/>
<path d="M411.805 97.6775L411.805 97.6775C413.879 100.741 412.917 104.936 409.991 106.834C409.96 106.857 409.934 106.888 409.898 106.91C405.106 109.951 401.924 114.628 400.49 119.439C399.748 121.867 399.567 124.28 399.695 126.724C399.731 129.219 400.247 131.649 401.346 133.926C402.762 137.069 405.423 139.477 408.27 141.499C410.22 137.329 412.802 133.569 416.765 130.617C415.578 129.986 414.616 129.058 414.016 127.814C412.506 124.685 413.861 120.781 417.043 119.072C417.052 119.067 417.061 119.058 417.074 119.055C422.074 116.416 425.639 111.848 426.685 106.583C427.802 101.315 426.866 95.0694 423.393 89.7654C420.812 86.2795 417.458 83.5611 413.698 81.9098C413.46 86.9451 411.663 91.5699 408.411 95.2331C409.713 95.6488 410.918 96.4917 411.805 97.6775" fill="#3d85c6" fill-rule="evenodd" opacity="1" stroke="none"/>
<path d="M394.104 75.7625C396.606 78.5122 396.452 82.6596 393.791 84.9901C393.773 85.0073 393.76 85.0298 393.738 85.0523C389.387 88.8206 387.211 93.6833 386.346 98.7896C385.507 103.909 386.372 108.94 389.422 112.97C391.341 115.833 393.826 118.141 397.153 119.584C398.283 115.268 400.626 110.948 404.073 107.454C402.824 106.998 401.897 106.116 401.037 105.035C398.95 102.254 399.603 98.2653 402.493 96.1021C402.537 96.0712 402.568 96.0279 402.612 95.9917C407.096 92.6476 409.775 87.7447 410.256 82.2456C410.922 76.5828 408.623 70.939 404.391 66.2123C401.487 62.9925 397.939 60.6395 393.782 59.7617C394.462 64.6024 393.274 69.5308 390.534 73.7024C391.84 73.9628 393.107 74.6645 394.104 75.7625" fill="#000000" fill-rule="evenodd" opacity="1" stroke="none"/>
<path d="M374.488 65.8332C370.799 70.1495 369.109 75.5727 369.126 80.6256C369.14 83.1543 369.594 85.5986 370.508 87.8277C371.426 90.0531 372.498 92.3647 374.237 94.204C376.549 96.7693 379.59 98.4776 383.138 99.3721C383.535 95.0041 385.101 90.4755 387.97 86.5311C386.659 86.2659 385.477 85.652 384.545 84.6335C382.215 82.0598 382.379 77.9173 384.907 75.352C384.912 75.349 384.912 75.349 384.916 75.3437C388.963 71.3234 390.821 66.1108 390.379 60.6567C390.159 57.9378 389.369 55.1797 388.032 52.5632C386.681 49.96 384.881 47.3969 382.277 45.5783C378.817 42.9698 374.837 41.3237 370.777 40.8171C372.008 45.7314 371.629 50.7067 369.585 55.1678C370.945 55.1938 372.335 55.6572 373.522 56.5433C376.584 58.6757 376.779 63.1284 374.528 65.7762C374.51 65.7934 374.501 65.816 374.488 65.8332" fill="#3d85c6" fill-rule="evenodd" opacity="1" stroke="none"/>
<path d="M346.232 39.743C347.551 39.6154 348.959 39.9292 350.23 40.6962C353.394 42.6167 354.449 46.6282 352.626 49.629C352.604 49.6687 352.595 49.7084 352.569 49.7482C349.563 54.5628 348.751 60.0927 349.603 64.9506C350.283 70.1133 352.547 74.7214 356.607 77.7258C359.497 79.6516 362.361 81.3582 365.993 81.7289C365.83 77.2417 366.818 72.4046 369.095 68.0397C367.838 67.8861 366.47 67.59 365.384 66.7347C362.599 64.6593 362.074 60.6254 364.201 57.7141C364.237 57.6656 364.254 57.6121 364.29 57.5641C367.591 53.0491 368.725 47.5589 367.599 42.1304C366.492 36.6592 362.644 31.901 357.255 28.552C355.384 27.4624 353.491 26.5004 351.43 26.0454C349.36 25.6094 347.26 25.4457 345.181 25.5644C347.176 30.1464 347.661 34.8904 346.232 39.743" fill="#000000" fill-rule="evenodd" opacity="1" stroke="none"/>
<path d="M320.124 40.5461C319.361 40.2827 318.43 39.9345 317.887 39.4138C317.256 38.8123 316.823 38.0228 316.523 37.2156C315.958 35.6918 315.777 33.8353 316.32 32.277C316.338 32.2289 316.338 32.1804 316.356 32.1358C318.187 26.845 317.653 21.2308 314.974 16.3368C312.221 11.6687 307.199 8.05044 301.047 6.46619C296.872 5.23362 292.508 5.82497 288.62 7.23316C291.89 10.9895 293.734 15.5129 293.84 20.3981C295.063 19.8897 296.501 19.7794 297.936 20.1501C301.51 21.0636 303.695 24.5715 302.869 27.969C302.856 28.0277 302.86 28.0847 302.843 28.138C301.4 33.627 302.256 39.1653 304.502 43.5752C306.748 48.0672 310.19 52.039 314.952 53.6938C318.253 54.7353 321.603 55.2336 325.111 54.6868C323.637 50.4498 323.213 45.4004 324.047 40.7015C323.933 41.3409 320.839 40.7981 320.468 40.6706C320.358 40.6309 320.243 40.5912 320.124 40.5461" fill="#000000" fill-rule="evenodd" opacity="1" stroke="none"/>
<path d="M320.702 28.2793C322.009 27.909 323.469 27.9518 324.864 28.4637C326.611 29.1036 327.931 30.3754 328.615 31.8838C329.255 33.4853 329.277 35.2955 328.566 36.9557C326.311 42.1613 326.285 47.8673 327.772 52.7217C329.224 57.6969 332.459 61.3187 336.655 64.1611C339.599 65.966 342.966 66.7608 346.629 66.571C345.724 62.2802 345.923 57.4449 347.507 52.8285C346.183 52.956 344.877 52.7044 343.699 51.9855C342.207 51.0774 341.214 49.6206 340.79 47.983C340.336 46.4075 340.433 44.6816 341.289 43.058C343.946 38.0709 344.215 32.5065 342.198 27.4055C339.603 20.8376 334.136 16.2971 327.375 14.5905C326.276 14.3112 325.159 14.1078 324.03 13.9802C322.922 13.8615 321.806 13.813 320.693 13.8474C320.389 13.858 317.675 14.249 317.618 14.1576C320.239 18.5172 321.338 23.4029 320.702 28.2793" fill="#3d85c6" fill-rule="evenodd" opacity="1" stroke="none"/>
<path d="M270.081 16.023C273.571 16.2454 276.563 19.1964 276.135 23.0009C275.526 28.6451 277.19 34.1076 280.045 38.3189C281.484 40.4239 283.231 42.22 285.235 43.57C286.241 44.2491 287.305 44.8144 288.434 45.2557C291.144 46.3193 294.017 47.2552 296.938 46.9194C297.353 46.8709 302.172 46.0505 302.141 45.9918C300.019 42.1441 298.778 37.4486 298.924 32.563C297.697 33.0718 296.382 33.2077 295.045 32.8631C291.709 31.8807 289.441 28.6725 290.094 25.0834C291.14 19.5415 289.749 14.1492 286.316 9.86728C282.896 5.68329 277.472 2.11008 271.118 2.02182C266.793 1.79279 262.583 2.6445 258.951 4.49223C262.733 7.88627 265.226 12.2238 266.056 17.0693C266.012 16.8006 267.901 16.2454 268.126 16.192C268.783 16.0367 269.441 15.985 270.081 16.023" fill="#3d85c6" fill-rule="evenodd" opacity="1" stroke="none"/>
<path d="M238.082 17.4709C239.101 16.6245 240.443 16.0901 241.921 16.0142C245.606 15.8249 248.726 18.5345 248.933 22.0256C248.933 22.0821 248.951 22.1324 248.955 22.1893C249.185 27.8587 251.634 32.8909 255.081 36.4332C256.89 38.2915 258.858 39.9548 261.175 41.16C262.353 41.7703 263.593 42.2597 264.882 42.5854C267.795 43.3233 270.217 43.0355 273.196 42.5633C274.86 42.2994 276.493 41.7703 278.086 40.9755C275.425 37.352 273.527 32.6424 272.927 27.9518C271.784 28.6897 270.5 29.0913 269.119 29.0207C265.646 28.8481 262.936 25.7939 263.051 22.1893C263.055 22.1324 263.037 22.079 263.042 22.0256C263.223 16.4352 261.06 11.2358 257.071 7.36069C253.068 3.62331 247.217 1.73057 240.884 2.02182C238.726 2.16349 236.626 2.44943 234.666 3.20806C232.711 4.02004 230.884 5.07166 229.229 6.34172C233.457 8.98468 236.533 12.6479 238.082 17.4709" fill="#000000" fill-rule="evenodd" opacity="1" stroke="none"/>
<path d="M210.531 22.353C211.401 21.3098 212.632 20.5172 214.066 20.1501C217.658 19.1086 221.233 21.5843 221.904 25.0834C221.908 25.1006 221.913 25.1147 221.917 25.1319C222.989 30.7064 226.175 35.4284 230.134 38.5965C234.137 41.87 238.845 43.0439 243.925 43.0492C247.38 42.8855 250.615 41.6547 253.536 39.4429C250.368 36.4041 247.804 32.2859 246.506 27.5811C245.482 28.4293 244.264 28.9536 242.888 29.0207C239.406 29.1226 236.281 26.5039 235.871 23.0044C235.871 22.996 235.867 22.9872 235.867 22.9836C235.253 17.3659 232.341 12.6166 227.804 9.54468C225.54 8.00544 222.883 6.88497 220.002 6.27996C218.559 5.97457 217.063 5.79893 215.531 5.7645C214.022 5.81261 212.495 6.08489 210.959 6.46619C206.749 7.53324 202.972 9.60338 200.042 12.4493C204.658 14.568 208.312 17.9691 210.531 22.353" fill="#3d85c6" fill-rule="evenodd" opacity="1" stroke="none"/>
<path d="M183.903 30.9929C184.627 29.8808 185.748 28.9726 187.142 28.4637C190.611 27.1884 194.402 28.8569 195.624 32.1442C195.642 32.1927 195.668 32.2289 195.686 32.277C197.579 37.626 201.401 41.7116 205.73 44.0765C210.17 46.6899 215.2 47.8779 220.077 46.5796C223.382 45.547 226.467 44.2231 229.04 41.72C225.434 39.0241 222.261 35.2024 220.28 30.71C219.406 31.7514 218.294 32.5202 216.957 32.8631C213.594 33.7338 210.112 31.6204 209.163 28.138C209.146 28.0847 209.115 28.0366 209.102 27.9796C207.628 22.5856 204.04 18.2657 199.084 15.7507C194.133 13.275 187.994 13.2613 182.014 15.4025C177.884 16.7692 174.548 19.5724 172.151 22.996C176.984 24.2802 181.008 26.8799 183.903 30.9929" fill="#000000" fill-rule="evenodd" opacity="1" stroke="none"/>
<path d="M161.776 40.6962C163.369 39.7341 165.183 39.4932 166.794 39.9032C168.427 40.3617 169.874 41.4994 170.708 43.0629C170.713 43.0664 170.722 43.0752 170.722 43.0801C173.4 48.0845 177.849 51.6599 182.57 53.5217C187.376 55.5023 192.213 55.185 197.054 53.6938C200.293 52.52 203.016 50.3876 205.147 47.4088C201.229 45.4402 197.566 42.2685 194.94 38.1552C194.212 39.2673 193.206 40.1273 191.908 40.5995C190.267 41.1997 188.51 41.0633 186.966 40.3758C185.465 39.7845 184.159 38.6106 183.44 36.9557C183.435 36.9469 183.431 36.9367 183.427 36.9279C181.176 31.7514 176.984 28.0758 171.737 26.4748C166.56 24.9611 160.069 25.0578 154.751 28.552C151.04 30.7947 148.03 33.8697 146.066 37.4363C151.11 38.1106 155.62 40.2946 159.04 43.8303C159.561 42.5854 160.51 41.4685 161.776 40.6962" fill="#3d85c6" fill-rule="evenodd" opacity="1" stroke="none"/>
<path d="M138.484 56.5433C141.432 54.3368 145.541 54.8231 147.686 57.5813C147.721 57.6294 147.769 57.6656 147.805 57.7141C151.194 62.263 156.066 65.0525 160.925 66.0591C165.801 67.0348 171.088 66.8658 175.351 64.1611C176.838 63.2922 178.096 62.0786 179.309 60.8994C180.532 59.7428 181.582 58.3791 182.451 56.8262C178.219 55.3439 173.992 52.5063 170.849 48.9671C170.324 50.2151 169.486 51.2702 168.308 51.9855C165.338 53.7958 161.375 52.7923 159.437 49.7482C159.411 49.7084 159.38 49.6824 159.354 49.6431C156.353 44.9075 151.626 41.822 146.128 40.8652C142.911 40.2999 139.358 40.9274 136.326 42.0082C133.246 43.1061 130.082 44.9336 127.748 47.2191C126.909 48.0399 126.168 48.9534 125.51 49.9203C124.853 50.8823 124.283 51.9013 123.776 52.9476C123.643 53.2252 122.73 55.7816 122.593 55.7852C127.584 55.5901 132.293 56.9988 136.168 59.955C136.437 58.5654 137.319 57.4621 138.484 56.5433" fill="#000000" fill-rule="evenodd" opacity="1" stroke="none"/>
<path d="M116.172 79.5307C116.318 78.1949 116.905 76.8573 117.902 75.7625C120.422 72.9924 124.575 72.8026 127.09 75.3437L127.094 75.349L127.094 75.349C131.093 79.3101 136.428 81.4561 141.512 81.8665C144.062 82.0682 146.569 81.8304 148.89 81.1203C151.225 80.427 153.29 79.1481 155.395 77.7258C158.171 75.6693 160.166 72.8543 161.339 69.4033C156.993 68.6584 152.544 66.6897 148.815 63.53C148.44 64.797 147.725 65.9091 146.618 66.7347C143.749 68.7105 139.936 68.6138 137.518 65.8332C137.505 65.816 137.483 65.8023 137.469 65.7851C133.793 61.5186 128.705 59.2309 123.207 59.2189C120.453 59.2053 117.611 59.7569 114.866 60.8566C112.125 61.9599 109.787 63.9095 107.615 66.2123C104.707 69.4258 102.677 73.1941 101.861 77.1883C106.87 76.3503 111.865 77.1534 116.172 79.5307" fill="#3d85c6" fill-rule="evenodd" opacity="1" stroke="none"/>
<path d="M99.1159 101.703C98.8997 101.618 99.2483 99.7909 99.3012 99.5808C99.394 99.2084 99.5043 98.786 99.7073 98.4551C101.631 95.3298 105.969 93.618 109.372 96.0191C109.416 96.054 109.469 96.0712 109.513 96.1021C114.089 99.4599 119.584 100.713 124.557 100.272C129.389 99.677 134.416 97.9829 137.77 94.204C140.069 91.6268 141.485 88.4102 142.355 85.0435C137.752 84.7522 133.131 83.5386 129.036 81.0237C128.891 82.3701 128.387 83.6092 127.456 84.6335C125.122 87.2054 121.013 87.3916 118.202 84.9989C114.001 81.3807 108.33 79.6292 103.035 80.5373C97.717 81.4168 92.3905 84.6644 88.6129 89.7654C86.1946 93.3523 85.0207 97.5636 84.8486 101.663C89.5926 100.031 94.5308 100.008 99.1159 101.703" fill="#000000" fill-rule="evenodd" opacity="1" stroke="none"/>
<path d="M85.6695 126.248C85.4223 124.928 85.5989 123.485 86.2431 122.147C87.8672 118.786 91.7859 117.4 94.928 119.058C94.9412 119.067 94.95 119.067 94.9633 119.072C99.9809 121.706 105.444 122.047 110.554 121.013C115.629 119.938 119.844 117.205 122.584 112.97C124.672 110.212 125.779 106.962 125.921 103.335C121.516 103.878 116.662 103.282 112.161 101.35C112.17 102.665 111.799 103.932 110.969 105.035C109.023 107.907 105.201 108.838 102.108 106.91C102.073 106.888 102.033 106.88 101.998 106.857C97.2448 103.878 91.7065 103.18 86.4285 104.756C83.7983 105.559 81.1373 106.862 78.9308 108.772C76.8169 110.732 74.9811 113.199 73.6043 116.054C71.7993 119.995 70.7138 124.085 71.3889 128.265C75.6475 125.864 80.9122 125.268 85.6695 126.248" fill="#3d85c6" fill-rule="evenodd" opacity="1" stroke="none"/>
<path d="M75.9829 152.492C75.493 151.213 75.3915 149.743 75.7666 148.308C76.9405 144.8 80.7578 142.925 84.0763 144.023C84.1161 144.037 84.1602 144.042 84.2043 144.054C89.5706 145.907 95.206 145.488 99.8573 143.613C102.223 142.682 104.191 141.309 106.058 139.708C107.986 138.127 109.562 136.209 110.66 133.926C112.24 130.863 112.443 127.267 112.28 123.799C107.774 124.857 103.251 125.185 98.4672 123.918C98.7143 125.242 98.5863 126.574 97.9906 127.814C96.4814 130.942 92.5846 132.32 89.2705 130.891C89.2573 130.885 89.244 130.885 89.2308 130.877C84.072 128.614 78.2423 128.653 73.4851 131.115C68.6529 133.525 64.412 138.172 62.3555 144.173C61.2522 148.37 61.2302 152.699 62.2937 156.676C66.3669 153.714 71.0933 152.232 75.9829 152.492" fill="#000000" fill-rule="evenodd" opacity="1" stroke="none"/>
<path d="M70.3695 179.91C69.7473 178.727 69.4958 177.298 69.7164 175.833C70.2813 172.147 73.6087 169.667 77.095 170.308C77.1126 170.311 77.1347 170.308 77.1568 170.311C82.8142 171.358 87.9377 170.017 92.5626 167.531C97.0727 164.993 100.444 161.185 101.671 156.292L101.671 156.288C102.788 153.03 102.982 149.632 102.051 146.133C97.9773 147.932 93.1451 148.794 88.2599 148.274C88.6703 149.53 88.6129 150.823 88.229 152.147C87.3685 155.516 83.8513 157.491 80.365 156.578C80.3121 156.566 80.2591 156.569 80.2062 156.552C74.7958 155.131 69.2971 156.098 64.7077 159.16C59.893 162.178 56.7642 167.471 55.8374 173.754C55.2902 178.051 55.3917 182.275 57.3467 186.065C60.6344 182.514 65.5505 180.387 70.3695 179.91" fill="#3d85c6" fill-rule="evenodd" opacity="1" stroke="none"/>
<path d="M68.8603 207.836C68.013 206.758 67.4834 205.386 67.4084 203.904C67.5893 200.215 70.6034 197.301 74.1118 197.364C74.1647 197.364 74.2088 197.35 74.2618 197.355C79.9326 197.545 85.1973 195.474 89.0852 192.302C91.0489 190.713 92.5714 188.82 93.8159 186.724C95.2016 184.642 96.146 182.342 96.5255 179.839C97.1036 176.441 96.371 172.968 95.0251 169.672C91.1945 172.051 86.8389 173.683 81.9316 173.9C82.5539 175.086 82.8231 176.396 82.6157 177.762C82.0905 181.194 78.7631 183.661 75.1753 183.278C75.1665 183.278 75.1532 183.278 75.1444 183.278C69.5134 182.637 64.0104 184.41 60.1931 188.167C56.2655 191.892 53.6619 197.571 53.375 203.904C53.5736 208.229 54.8357 212.364 57.0378 215.845C60.0475 211.825 64.1207 209.024 68.8603 207.836" fill="#000000" fill-rule="evenodd" opacity="1" stroke="none"/>
<path d="M71.5566 235.686C70.6079 234.738 69.9415 233.445 69.7164 231.975C69.156 228.286 71.6096 224.931 75.1444 224.535C75.1532 224.535 75.1665 224.529 75.1753 224.529C80.7931 223.881 85.5194 221.084 89.1734 217.35C92.7215 213.599 94.8044 208.956 94.5175 203.904C94.7162 200.447 93.8291 197.138 91.9227 194.062C88.5644 196.998 84.2043 199.247 79.3853 200.187C80.1223 201.273 80.5239 202.526 80.4488 203.904C80.6342 207.377 77.8672 210.303 74.2618 210.453C74.2088 210.458 74.1647 210.47 74.1118 210.475C68.5205 210.704 63.5558 213.242 60.0783 217.508C58.3529 219.649 56.8966 222.221 56.1243 225.042C55.4844 227.848 55.3609 230.92 55.8374 234.053C56.5436 238.329 58.0572 242.302 60.8374 245.4C63.141 240.996 67.0465 237.562 71.5566 235.686" fill="#3d85c6" fill-rule="evenodd" opacity="1" stroke="none"/>
<path d="M78.2733 262.843C77.1612 262.059 76.1815 260.919 75.7666 259.499C74.8399 255.924 76.8478 252.261 80.2149 251.287C80.2635 251.268 80.3121 251.242 80.365 251.228C85.8415 249.742 90.2546 246.224 93.0259 242.059C95.5988 237.91 97.2624 232.964 96.5255 227.968C96.1062 224.543 94.2087 221.463 92.161 218.679C88.9969 222.099 85.4797 224.914 80.8107 226.56C81.7595 227.513 82.4083 228.682 82.6157 230.046C83.1408 233.485 80.696 236.812 77.1568 237.496C77.1347 237.5 77.1171 237.508 77.095 237.513C71.6316 238.537 66.6891 241.878 64.1825 246.577C61.5391 251.287 60.7403 257.486 62.3555 263.635C63.7323 267.742 66.2301 271.304 69.3457 273.991C71.0271 269.256 74.0897 265.377 78.2733 262.843" fill="#000000" fill-rule="evenodd" opacity="1" stroke="none"/>
<path d="M89.0896 288.66C87.9024 288.034 86.8874 286.996 86.2431 285.658C84.6236 282.292 85.9784 278.365 89.2705 276.917C94.4734 274.622 98.1009 270.571 100.488 265.929C102.792 261.29 103.348 256.272 101.671 251.52C100.833 248.17 98.9968 245.276 96.2651 242.905C93.9262 246.684 90.4267 250.113 86.1019 252.43C87.1346 253.245 87.8848 254.322 88.229 255.66C89.3367 258.948 87.6244 262.54 84.2043 263.753C84.1602 263.766 84.1249 263.793 84.0852 263.81C78.7984 265.678 74.8002 269.573 72.7437 274.684C71.742 277.239 71.0712 280.147 71.23 283.052C71.3139 284.645 71.6449 286.255 72.0862 287.785C72.8541 290.456 73.8867 292.58 75.418 294.908C76.2389 296.158 77.1656 297.341 78.2291 298.396C78.538 298.704 81.7948 301.043 81.786 301.087C82.5318 296.272 85.365 291.771 89.0896 288.66" fill="#3d85c6" fill-rule="evenodd" opacity="1" stroke="none"/>
<path d="M100.202 310.13C98.123 307.067 99.0894 302.869 102.011 300.973C102.046 300.95 102.073 300.919 102.108 300.897C106.896 297.856 110.082 293.179 111.516 288.368C112.253 285.941 112.434 283.528 112.311 281.083C112.276 278.589 111.755 276.158 110.66 273.881C109.239 270.738 106.578 268.328 103.736 266.308C101.786 270.478 99.2042 274.238 95.2413 277.191C96.4284 277.822 97.3904 278.749 97.9906 279.992C99.4954 283.123 98.1406 287.027 94.9633 288.736C94.95 288.739 94.9456 288.749 94.9324 288.753C89.9324 291.392 86.3667 295.96 85.3208 301.224C84.2043 306.493 85.1399 312.738 88.6129 318.042C91.1945 321.528 94.5485 324.246 98.3083 325.898C98.5466 320.862 100.343 316.237 103.595 312.574C102.293 312.159 101.089 311.316 100.202 310.13" fill="#000000" fill-rule="evenodd" opacity="1" stroke="none"/>
<path d="M117.902 332.045C115.4 329.296 115.554 325.146 118.268 322.755C122.62 318.987 124.791 314.124 125.66 309.018C126.499 303.898 125.634 298.868 122.584 294.838C120.665 291.974 118.18 289.666 114.853 288.223C113.723 292.54 111.38 296.86 107.929 300.354C109.182 300.809 110.109 301.692 110.969 302.772C113.057 305.553 112.404 309.542 109.513 311.705C109.469 311.737 109.438 311.779 109.394 311.816C104.91 315.16 102.231 320.063 101.75 325.562C101.49 328.527 101.852 331.395 102.942 334.175C103.511 335.632 104.244 337.018 105.1 338.329C106.565 340.571 108.061 342.305 110.14 344.031C111.309 345.002 112.576 345.853 113.935 346.537C114.332 346.735 118.215 347.992 118.224 348.046C117.545 343.205 118.732 338.275 121.472 334.105C120.166 333.845 118.899 333.143 117.902 332.045" fill="#3d85c6" fill-rule="evenodd" opacity="1" stroke="none"/>
<path d="M137.518 341.974C141.207 337.658 142.897 332.235 142.88 327.182C142.862 324.653 142.412 322.207 141.494 319.98C140.581 317.754 139.504 315.443 137.77 313.602C135.453 311.038 132.417 309.33 128.868 308.435C128.467 312.804 126.9 317.332 124.036 321.276C125.347 321.541 126.53 322.15 127.456 323.174C129.791 325.748 129.628 329.89 127.094 332.455L127.094 332.459L127.094 332.459C123.039 336.484 121.185 341.695 121.627 347.151C121.847 349.869 122.637 352.628 123.974 355.245C125.32 357.847 127.125 360.411 129.725 362.229C133.189 364.837 137.169 366.484 141.229 366.991C139.998 362.074 140.378 357.106 142.421 352.64C141.062 352.614 139.672 352.15 138.484 351.262C135.422 349.132 135.228 344.679 137.478 342.031C137.496 342.014 137.505 341.991 137.518 341.974" fill="#000000" fill-rule="evenodd" opacity="1" stroke="none"/>
<path d="M165.775 368.063C164.455 368.192 163.043 367.878 161.776 367.11C158.612 365.191 157.557 361.18 159.38 358.178C159.402 358.139 159.411 358.099 159.437 358.059C162.443 353.245 163.255 347.715 162.403 342.857C161.719 337.692 159.46 333.086 155.395 330.08C152.509 328.156 149.645 326.45 146.013 326.079C146.176 330.566 145.188 335.403 142.906 339.768C144.168 339.921 145.536 340.218 146.618 341.073C149.407 343.148 149.932 347.18 147.805 350.094C147.769 350.142 147.747 350.195 147.712 350.244C144.416 354.758 143.281 360.248 144.407 365.675C145.514 371.148 149.363 375.901 154.751 379.256C156.622 380.345 158.515 381.307 160.576 381.762C162.646 382.198 164.746 382.362 166.825 382.243C164.83 377.661 164.34 372.917 165.775 368.063" fill="#3d85c6" fill-rule="evenodd" opacity="1" stroke="none"/>
<path d="M191.304 379.528C189.998 379.899 188.537 379.856 187.142 379.344C185.395 378.704 184.075 377.432 183.391 375.923C182.747 374.32 182.729 372.512 183.44 370.852C185.69 365.644 185.717 359.938 184.234 355.084C182.778 350.111 179.548 346.489 175.351 343.646C172.403 341.841 169.04 341.047 165.377 341.236C166.282 345.525 166.083 350.362 164.499 354.979C164.724 354.331 167.659 355.38 168.047 355.57C169.627 356.329 170.739 358.173 171.216 359.824C171.666 361.4 171.573 363.126 170.713 364.75C168.056 369.737 167.791 375.301 169.808 380.407C171.856 385.375 175.955 390.433 182.014 392.405C186.083 393.91 190.368 394.343 194.384 393.65C191.767 389.29 190.664 384.405 191.304 379.528" fill="#000000" fill-rule="evenodd" opacity="1" stroke="none"/>
<path d="M214.066 387.658C210.496 386.744 208.312 383.236 209.132 379.837C209.15 379.78 209.146 379.723 209.163 379.669C210.606 374.181 209.746 368.642 207.504 364.232C205.258 359.74 201.816 355.768 197.054 354.113C193.753 353.072 190.404 352.574 186.895 353.121C188.369 357.358 188.793 362.405 187.959 367.101C188.012 366.815 190.064 366.818 190.324 366.858C194.358 367.511 197.125 371.423 195.686 375.53C195.668 375.579 195.668 375.624 195.651 375.672C193.819 380.962 194.353 386.577 197.032 391.471C199.786 396.139 204.803 399.757 210.959 401.341C215.13 402.574 219.494 401.983 223.386 400.574C220.116 396.818 218.272 392.295 218.161 387.409C216.943 387.918 215.505 388.028 214.066 387.658" fill="#3d85c6" fill-rule="evenodd" opacity="1" stroke="none"/>
<path d="M241.921 391.793C238.183 391.669 235.46 388.452 235.871 384.829C235.871 384.82 235.871 384.812 235.871 384.806C236.48 379.163 234.816 373.698 231.957 369.488C230.522 367.384 228.775 365.593 226.771 364.238C225.765 363.558 224.697 362.993 223.567 362.552C222.46 362.023 221.304 361.536 220.077 361.228C216.74 360.354 213.298 360.566 209.865 361.814C211.988 365.663 213.228 370.359 213.082 375.244C214.305 374.736 215.624 374.6 216.957 374.943C220.297 375.927 222.566 379.135 221.917 382.676C221.913 382.693 221.917 382.71 221.913 382.724C220.862 388.266 222.257 393.658 225.69 397.94C229.11 402.122 234.534 405.698 240.884 405.785C245.213 406.015 249.423 405.163 253.055 403.315C249.273 399.921 246.78 395.582 245.95 390.738C244.812 391.474 243.404 391.867 241.921 391.793" fill="#000000" fill-rule="evenodd" opacity="1" stroke="none"/>
<path d="M273.92 390.336C272.905 391.183 271.563 391.717 270.081 391.793C266.4 391.983 263.28 389.273 263.073 385.782C263.068 385.725 263.055 385.675 263.051 385.618C262.821 379.947 260.372 374.917 256.925 371.373C253.448 367.658 248.978 364.953 243.925 364.758C242.199 364.648 240.478 364.931 238.81 365.243C237.146 365.508 235.513 366.037 233.916 366.832C236.577 370.455 238.479 375.163 239.079 379.856C240.222 379.118 241.506 378.716 242.888 378.787C246.361 378.959 249.07 382.014 248.955 385.618C248.951 385.675 248.969 385.725 248.964 385.782C248.783 391.372 250.946 396.572 254.935 400.447C258.938 404.184 264.785 406.077 271.118 405.785C273.28 405.644 275.381 405.358 277.34 404.599C279.295 403.788 281.122 402.736 282.772 401.466C278.545 398.823 275.473 395.16 273.92 390.336" fill="#3d85c6" fill-rule="evenodd" opacity="1" stroke="none"/>
<path d="M301.475 385.455C300.605 386.496 299.374 387.29 297.936 387.658C294.348 388.699 290.773 386.223 290.089 382.676C289.017 377.101 285.831 372.379 281.872 369.211C277.87 365.936 273.161 364.763 268.082 364.758C264.626 364.922 261.391 366.153 258.47 368.363C261.639 371.404 264.202 375.522 265.5 380.226C265.416 379.935 267.309 379.154 267.552 379.078C271.466 377.842 275.672 380.84 276.14 384.824C276.749 390.442 279.666 395.191 284.202 398.261C286.466 399.802 289.123 400.923 292.004 401.528C293.448 401.831 294.944 402.009 296.47 402.043C299.264 402.11 302.49 401.09 305.023 399.983C306.342 399.404 307.613 398.713 308.809 397.909C309.14 397.689 311.859 395.31 311.965 395.358C307.349 393.239 303.695 389.837 301.475 385.455" fill="#000000" fill-rule="evenodd" opacity="1" stroke="none"/>
<path d="M328.103 376.815C327.379 377.927 326.254 378.835 324.864 379.344C321.391 380.619 317.604 378.951 316.382 375.663C316.364 375.615 316.338 375.579 316.32 375.53C314.427 370.181 310.605 366.096 306.272 363.729C301.837 361.117 296.806 359.93 291.929 361.228C288.624 362.26 285.539 363.584 282.967 366.086C286.572 368.783 289.745 372.605 291.726 377.097C292.6 376.056 293.712 375.287 295.045 374.943C298.412 374.074 301.894 376.187 302.843 379.669C302.86 379.723 302.891 379.771 302.905 379.828C304.374 385.222 307.966 389.542 312.918 392.057C317.874 394.532 324.012 394.546 329.992 392.405C334.122 391.038 337.459 388.235 339.85 384.812C335.023 383.527 330.998 380.928 328.103 376.815" fill="#3d85c6" fill-rule="evenodd" opacity="1" stroke="none"/>
<path d="M350.23 367.11C348.637 368.073 346.819 368.314 345.212 367.904C343.575 367.446 342.132 366.306 341.293 364.744C341.293 364.741 341.285 364.732 341.28 364.727C338.606 359.723 334.158 356.147 329.431 354.286C324.63 352.305 319.789 352.622 314.952 354.113C311.709 355.287 308.99 357.42 306.859 360.399C310.777 362.365 314.44 365.539 317.066 369.652C317.79 368.54 318.8 367.68 320.093 367.208C321.735 366.608 323.496 366.744 325.04 367.432C326.541 368.023 327.843 369.197 328.566 370.852C328.571 370.861 328.575 370.871 328.58 370.88C330.83 376.056 335.023 379.731 340.27 381.333C345.446 382.846 351.938 382.75 357.255 379.256C360.967 377.013 363.972 373.938 365.94 370.371C360.892 369.697 356.386 367.511 352.966 363.977C352.441 365.222 351.496 366.337 350.23 367.11" fill="#000000" fill-rule="evenodd" opacity="1" stroke="none"/>
<path d="M373.522 351.262L373.522 351.262C370.574 353.469 366.461 352.984 364.321 350.226C364.285 350.178 364.237 350.142 364.201 350.094C360.812 345.544 355.94 342.755 351.082 341.749C346.205 340.773 340.918 340.942 336.655 343.646C335.164 344.515 333.91 345.729 332.697 346.908C331.475 348.065 330.424 349.428 329.555 350.981C333.783 352.464 338.015 355.301 341.152 358.84C341.682 357.592 342.52 356.537 343.699 355.822C346.669 354.012 350.631 355.013 352.569 358.059C352.591 358.099 352.626 358.125 352.648 358.165C355.649 362.9 360.38 365.986 365.878 366.942C371.205 367.64 377.207 366.042 382.277 362.229C385.856 359.757 388.019 355.856 389.413 352.023C384.422 352.215 379.713 350.809 375.834 347.853C375.569 349.242 374.687 350.345 373.522 351.262" fill="#3d85c6" fill-rule="evenodd" opacity="1" stroke="none"/>
<path d="M395.834 328.275C395.688 329.613 395.101 330.95 394.104 332.045C391.584 334.815 387.432 335.005 384.916 332.464C384.916 332.464 384.907 332.459 384.907 332.455C380.914 328.495 375.578 326.351 370.494 325.941C367.944 325.737 365.437 325.977 363.116 326.687C360.777 327.38 358.716 328.659 356.607 330.08C353.835 332.136 351.841 334.953 350.667 338.404C355.014 339.149 359.462 341.118 363.191 344.277C363.562 343.01 364.281 341.895 365.384 341.073C368.257 339.097 372.07 339.194 374.488 341.974C374.501 341.991 374.523 342.006 374.537 342.023C378.213 346.289 383.301 348.575 388.8 348.589C391.553 348.603 394.395 348.051 397.14 346.951C399.881 345.848 402.22 343.898 404.391 341.595C407.299 338.382 409.325 334.614 410.145 330.619C405.137 331.457 400.141 330.654 395.834 328.275" fill="#000000" fill-rule="evenodd" opacity="1" stroke="none"/>
<path d="M412.89 306.105C412.952 307.455 412.727 308.964 411.805 310.13C409.598 313.086 405.494 313.805 402.634 311.785C402.586 311.754 402.537 311.737 402.493 311.705C397.917 308.347 392.418 307.092 387.445 307.534C382.617 308.13 377.591 309.825 374.237 313.602C371.933 316.179 370.521 319.397 369.651 322.759C374.254 323.055 378.875 324.269 382.97 326.784C383.116 325.438 383.619 324.198 384.545 323.174C386.884 320.602 390.993 320.416 393.738 322.755C393.755 322.773 393.782 322.79 393.8 322.809C398.005 326.427 403.671 328.179 408.972 327.27C414.289 326.391 419.616 323.143 423.393 318.042C425.812 314.453 426.985 310.244 427.158 306.144C422.414 307.777 417.471 307.799 412.89 306.105" fill="#3d85c6" fill-rule="evenodd" opacity="1" stroke="none"/>
<path d="M426.337 281.559C426.584 282.879 426.403 284.323 425.763 285.658C424.139 289.021 420.22 290.408 417.078 288.749C417.065 288.739 417.052 288.739 417.043 288.73C412.025 286.101 406.562 285.76 401.447 286.792C396.377 287.87 392.162 290.602 389.422 294.838C387.334 297.596 386.222 300.844 386.081 304.472C390.49 303.929 395.344 304.52 399.845 306.458C399.837 305.143 400.207 303.876 401.037 302.772C402.983 299.9 406.805 298.97 409.898 300.897C409.934 300.919 409.973 300.928 410.009 300.95C414.761 303.929 420.3 304.625 425.578 303.05C428.208 302.249 430.869 300.945 433.075 299.035C435.189 297.075 437.025 294.608 438.402 291.754C440.207 287.813 441.292 283.722 440.617 279.542C436.354 281.943 431.094 282.54 426.337 281.559" fill="#000000" fill-rule="evenodd" opacity="1" stroke="none"/>
<path d="M436.023 255.315C436.513 256.595 436.61 258.065 436.24 259.499C435.066 263.007 431.248 264.883 427.93 263.785C427.886 263.771 427.842 263.766 427.802 263.753C422.436 261.899 416.796 262.319 412.149 264.195C409.783 265.126 407.815 266.493 405.949 268.099C404.02 269.68 402.445 271.604 401.346 273.881C399.766 276.943 399.563 280.54 399.726 284.009C404.232 282.95 408.755 282.623 413.535 283.89C413.292 282.566 413.415 281.233 414.016 279.992C415.525 276.86 419.422 275.488 422.736 276.917C422.749 276.922 422.762 276.922 422.775 276.931C427.934 279.194 433.764 279.154 438.521 276.693C443.353 274.283 447.594 269.635 449.651 263.635C450.754 259.437 450.776 255.108 449.708 251.132C445.635 254.093 440.909 255.576 436.023 255.315" fill="#3d85c6" fill-rule="evenodd" opacity="1" stroke="none"/>
<path d="M441.637 227.898C442.259 229.08 442.51 230.509 442.285 231.975C441.725 235.66 438.397 238.139 434.849 237.496C429.192 236.45 424.068 237.791 419.444 240.275C414.933 242.812 411.562 246.622 410.335 251.52C409.219 254.777 409.02 258.175 409.951 261.674C414.029 259.873 418.861 259.013 423.742 259.534C423.433 259.499 423.464 257.451 423.486 257.205C423.826 253.135 427.537 250.153 431.641 251.228C431.694 251.242 431.747 251.239 431.8 251.256C437.21 252.676 442.709 251.709 447.294 248.648C452.113 245.624 455.238 240.337 456.164 234.053C456.716 229.754 456.614 225.531 454.659 221.742C451.372 225.293 446.456 227.42 441.637 227.898" fill="#000000" fill-rule="evenodd" opacity="1" stroke="none"/>
<path d="M210.846 62.663C187.182 62.663 171.665 89.4302 171.665 101.844C171.665 105.723 172.829 106.499 175.544 106.499C178.26 106.499 192.225 91.3699 202.312 91.3699C233.346 91.3699 247.7 143.741 252.743 178.267C253.519 184.474 253.131 184.474 250.803 191.844C238.777 229.086 199.596 289.603 179.812 319.086C175.932 324.905 175.932 323.741 175.932 329.172C175.932 336.155 188.734 340.81 194.165 340.81C197.269 340.81 201.924 329.172 203.087 326.845C220.932 295.034 248.088 243.439 256.622 219.775C257.398 217.836 258.562 218.224 258.95 220.163C262.441 246.931 270.588 289.603 278.346 315.207C284.165 334.603 291.536 339.646 304.338 339.646C321.019 339.646 342.355 328.008 342.355 298.913C342.355 296.974 340.027 295.422 338.088 295.422C334.984 295.422 324.122 309 310.157 308.612C303.95 308.612 291.924 302.793 287.269 286.5C270.588 227.922 260.501 151.111 255.846 125.508C250.803 98.3527 237.225 62.663 210.846 62.663Z" fill="#3d85c6" fill-rule="evenodd" opacity="1" stroke="#3d85c6" stroke-linecap="butt" stroke-linejoin="miter" stroke-width="5"/>
<path d="M80.3 414.963L80.3 487.868L97.2522 487.868L97.2522 441.692L114.204 480.588L126.684 480.588L143.637 441.692L143.741 487.868L160.589 487.868L160.589 414.963L139.789 414.963L120.444 457.5L101.1 414.963L80.3 414.963Z" fill="#3d85c6" fill-rule="evenodd" opacity="1" stroke="#3d85c6" stroke-linecap="butt" stroke-linejoin="miter" stroke-width="0.1"/>
<path d="M183.989 405.707C178.269 405.707 174.213 409.763 174.213 415.587C174.213 421.411 178.269 425.467 183.989 425.467C189.709 425.467 193.765 421.411 193.765 415.587C193.765 409.763 189.709 405.707 183.989 405.707ZM174.733 431.603L174.733 487.868L193.141 487.868L193.141 431.603L174.733 431.603Z" fill="#3d85c6" fill-rule="evenodd" opacity="1" stroke="#3d85c6" stroke-linecap="butt" stroke-linejoin="miter" stroke-width="0.1"/>
<path d="M244.414 430.875C236.198 430.875 229.75 434.308 225.798 440.756L225.798 431.603L207.285 431.603L207.285 487.868L225.798 487.868L225.798 458.124C226.526 451.78 230.582 447.516 236.822 447.412C242.646 447.412 246.39 451.364 246.39 457.708L246.39 487.868L264.798 487.868L264.798 452.404C264.798 439.196 256.686 430.875 244.414 430.875Z" fill="#3d85c6" fill-rule="evenodd" opacity="1" stroke="#3d85c6" stroke-linecap="butt" stroke-linejoin="miter" stroke-width="0.1"/>
<path d="M312.846 431.603L312.846 438.468C309.102 433.684 303.486 430.979 296.414 430.979C282.478 430.979 272.806 441.588 272.806 457.604C272.806 473.932 282.79 484.748 296.83 484.748C303.798 484.748 309.206 482.148 312.846 477.364L312.846 483.396C312.846 489.948 307.75 494.212 299.326 494.212C293.294 494.212 287.054 492.236 281.958 488.7L275.51 501.492C281.854 505.652 290.798 508.772 300.678 508.772C318.879 508.772 331.255 498.788 331.255 482.876L331.255 431.603L312.846 431.603ZM301.51 471.228C294.646 471.228 290.07 465.82 290.07 458.124C290.07 450.324 294.646 444.916 301.51 444.916C308.27 444.916 312.846 450.22 312.846 458.124C312.846 465.82 308.27 471.228 301.51 471.228Z" fill="#3d85c6" fill-rule="evenodd" opacity="1" stroke="#3d85c6" stroke-linecap="butt" stroke-linejoin="miter" stroke-width="0.1"/>
<path d="M345.295 410.699L345.295 487.868L363.807 487.868L363.807 410.699L345.295 410.699Z" fill="#3d85c6" fill-rule="evenodd" opacity="1" stroke="#3d85c6" stroke-linecap="butt" stroke-linejoin="miter" stroke-width="0.1"/>
<path d="M403.223 430.979C385.647 430.979 373.895 442.524 373.895 459.996C373.895 477.156 385.231 488.492 403.639 488.492C414.04 488.492 422.464 484.956 428.184 478.508L418.512 468.836C414.768 472.58 410.088 474.556 405.303 474.556C398.959 474.556 394.279 471.02 392.511 464.676L431.616 464.676C432.864 444.188 422.88 430.979 403.223 430.979ZM392.095 454.796C393.343 448.348 397.295 443.98 403.327 443.98C409.567 443.98 413.728 448.348 413.728 454.796L392.095 454.796Z" fill="#3d85c6" fill-rule="evenodd" opacity="1" stroke="#3d85c6" stroke-linecap="butt" stroke-linejoin="miter" stroke-width="0.1"/>
</g>
</svg>
