<?xml version="1.0" encoding="UTF-8" standalone="no"?>
<!-- Created with Inkscape (http://www.inkscape.org/) -->

<svg
   width="285mm"
   height="115mm"
   viewBox="0 0 285 115"
   version="1.1"
   id="svg5"
   inkscape:version="1.2.2 (732a01da63, 2022-12-09)"
   sodipodi:docname="logo-lambda-préludes.svg"
   inkscape:export-filename="logo-lambda-préudes-450.png"
   inkscape:export-xdpi="40.105232"
   inkscape:export-ydpi="40.105232"
   xmlns:inkscape="http://www.inkscape.org/namespaces/inkscape"
   xmlns:sodipodi="http://sodipodi.sourceforge.net/DTD/sodipodi-0.dtd"
   xmlns="http://www.w3.org/2000/svg"
   xmlns:svg="http://www.w3.org/2000/svg">
  <sodipodi:namedview
     id="namedview7"
     pagecolor="#ffffff"
     bordercolor="#000000"
     borderopacity="0.25"
     inkscape:showpageshadow="2"
     inkscape:pageopacity="0.0"
     inkscape:pagecheckerboard="0"
     inkscape:deskcolor="#d1d1d1"
     inkscape:document-units="mm"
     showgrid="false"
     inkscape:zoom="0.71624579"
     inkscape:cx="377.66365"
     inkscape:cy="359.51346"
     inkscape:window-width="1920"
     inkscape:window-height="991"
     inkscape:window-x="-9"
     inkscape:window-y="-9"
     inkscape:window-maximized="1"
     inkscape:current-layer="layer1" />
  <defs
     id="defs2">
    <inkscape:path-effect
       effect="fill_between_many"
       method="originald"
       linkedpaths="#path436,0,1"
       id="path-effect1387"
       is_visible="true"
       lpeversion="0"
       join="true"
       close="true"
       autoreverse="true" />
  </defs>
  <g
     inkscape:label="Layer 1"
     inkscape:groupmode="layer"
     id="layer1">
    <path
       inkscape:original-d="M 0,0"
       inkscape:path-effect="#path-effect1387"
       d="m 139.56415,29.083076 -0.006,0.0037 c -0.0726,0.01078 -0.11463,0.04049 -0.13951,0.05972 -0.61586,0.449008 -3.88031,2.812533 -7.71852,5.292409 0,0 -0.61705,0.397467 -0.70759,0.456051 -0.49905,-0.277 -0.84961,-0.452035 -1.09706,-0.549058 -0.24607,-0.09748 -0.48323,-0.193676 -0.7134,-0.286947 -1.83099,-0.743823 -3.41309,-1.385922 -7.58377,-1.587458 -0.20874,-0.0098 -0.41935,-0.01533 -0.62462,-0.01533 -1.64851,0 -3.2341,0.341693 -4.59645,0.99084 -1.25313,-0.445262 -2.63036,-0.726869 -4.09705,-0.840761 -0.28686,-0.02205 -0.58212,-0.0333 -0.87934,-0.0333 -2.27055,0 -4.79001,0.652213 -6.93271,1.793024 -1.45842,-0.389957 -3.03459,-0.68164 -4.692095,-0.867712 -1.033306,-0.117644 -2.068735,-0.175974 -3.079266,-0.175974 -4.690457,0 -8.918191,1.241431 -11.920736,3.497272 -0.157586,-0.02625 -0.315098,-0.05237 -0.476132,-0.07768 -1.270424,-0.188415 -2.672031,-0.289061 -4.053726,-0.289061 -5.936692,0 -10.2026,1.672619 -11.412896,4.475428 -0.268869,0.652428 -0.887132,2.149754 -0.389466,3.837063 H 14.492076 v 2.566145 c -0.01041,0.850737 -0.445959,8.313018 -12.2446736,8.313018 h -3.8005996 v 59.060977 h 3.7937298 c 1.2545064,0.007 12.2515434,0.29765 12.2515434,8.30298 v 2.57724 h 3.921086 v 0.005 h 50.033477 c -0.502492,1.692 0.114824,3.1929 0.385767,3.84816 1.210296,2.80186 5.476732,4.47384 11.413425,4.47384 1.381695,0 2.783303,-0.0992 4.053726,-0.28853 0.161034,-0.0254 0.318545,-0.0506 0.476132,-0.0782 3.002546,2.25585 7.22975,3.49779 11.920207,3.49779 1.01053,0 2.045956,-0.0591 3.079273,-0.17544 1.657501,-0.18746 3.234211,-0.47862 4.692611,-0.86718 2.14272,1.13987 4.66216,1.79144 6.93271,1.79144 0.29722,0 0.59249,-0.0112 0.87934,-0.0327 1.4667,-0.11388 2.84341,-0.39603 4.09654,-0.84129 1.36235,0.64916 2.94792,0.99137 4.59643,0.99137 0.20527,0 0.41641,-0.006 0.62516,-0.0153 4.17068,-0.202 5.75279,-0.84363 7.58376,-1.58745 0.23016,-0.0938 0.46732,-0.18992 0.71341,-0.28695 0.24745,-0.0975 0.59801,-0.27213 1.09705,-0.54958 0.0905,0.059 0.7076,0.45711 0.7076,0.45711 3.83822,2.47892 7.10264,4.84391 7.71851,5.29293 0.0248,0.0178 0.067,0.0493 0.13952,0.0587 l 0.006,0.004 h 0.14321 l 0.002,-0.002 c 0.0671,-0.006 0.10485,-0.0306 0.23411,-0.1168 2.06669,-1.39576 3.94532,-2.59653 5.15977,-3.35722 1.06303,-0.66229 2.15277,-1.32849 3.23727,-1.97904 l -0.007,-0.007 c 0.0995,-0.059 0.19584,-0.11727 0.29328,-0.17492 0.31656,0.17764 0.56489,0.29963 0.75568,0.37415 0.24606,0.097 0.48181,0.1932 0.7113,0.28695 1.83166,0.74381 3.4136,1.38545 7.58428,1.58746 0.20874,0.009 0.41883,0.0153 0.6241,0.0153 1.64921,0 3.23653,-0.34169 4.5975,-0.99084 1.25313,0.44527 2.6293,0.7274 4.096,0.84129 0.28685,0.0215 0.58265,0.0322 0.87987,0.0322 2.26988,0 4.78998,-0.65156 6.93271,-1.79143 1.45772,0.38855 3.03657,0.68024 4.69474,0.86771 1.03126,0.11624 2.06624,0.17492 3.07609,0.17492 4.69117,0 8.91872,-1.24195 11.92127,-3.49781 0.1576,0.0276 0.3151,0.0528 0.47612,0.0782 1.27043,0.18937 2.67186,0.28906 4.05426,0.28906 5.93667,0 10.20261,-1.67231 11.4129,-4.47278 0.27025,-0.65665 0.88963,-2.15916 0.38576,-3.84975 h 51.53533 v -0.005 h 3.31126 c 0.338,0 0.60983,-0.18619 0.60983,-0.41535 v -2.15766 c 0.0104,-0.85069 0.43558,-8.30774 12.24467,-8.30774 h 3.18866 c 0.33796,0 0.61247,-0.18564 0.61247,-0.41483 V 56.059829 c 0,-0.229194 -0.27451,-0.41536 -0.61247,-0.41536 H 278.537 c -1.25453,-0.0071 -12.25102,-0.299855 -12.25102,-8.301921 V 45.17908 c 0,-0.228254 -0.27236,-0.413775 -0.61035,-0.413775 h -54.84341 c 0.49696,-1.687309 -0.11869,-3.183001 -0.38894,-3.839176 -1.21029,-2.800466 -5.47623,-4.473315 -11.4129,-4.473315 -1.3824,0 -2.78383,0.100646 -4.05426,0.289061 -0.16103,0.0253 -0.31852,0.05145 -0.47612,0.07768 -3.00256,-2.255841 -7.22958,-3.497271 -11.92074,-3.497271 -1.00983,0 -2.04536,0.05834 -3.07662,0.175973 -1.65817,0.186074 -3.237,0.477755 -4.69474,0.867712 -2.14274,-1.140812 -4.66283,-1.792496 -6.93271,-1.792496 -0.29722,0 -0.59302,0.01073 -0.87987,0.03276 -1.46669,0.113893 -2.84287,0.395496 -4.096,0.840761 -1.36097,-0.649148 -2.94778,-0.99084 -4.59698,-0.99084 -0.20525,0 -0.41533,0.0055 -0.62408,0.01533 -4.17069,0.201539 -5.75315,0.843639 -7.58482,1.587458 -0.22948,0.09327 -0.46524,0.189458 -0.7113,0.286948 -0.19079,0.07405 -0.43858,0.196157 -0.75515,0.375197 -0.0975,-0.05907 -0.19428,-0.117384 -0.29381,-0.175973 l 0.007,-0.0074 c -1.0845,-0.650084 -2.17423,-1.315183 -3.23727,-1.977454 -1.21445,-0.761632 -3.0931,-1.962976 -5.15977,-3.358288 -0.12926,-0.08625 -0.16653,-0.111753 -0.23358,-0.117844 l -0.002,-0.001 z"
       id="path1389"
       class="UnoptimicedTransforms"
       transform="matrix(1.0004063,0,0,0.9999982,2.0539293,-27.524624)" />
    <path
       id="path436"
       style="fill:#ffffff;fill-opacity:1;fill-rule:nonzero;stroke:#fdfcfc;stroke-width:0.97789;stroke-dasharray:none;stroke-opacity:1"
       d="m 140.60564,28.735938 -0.006,0.0036 c -0.071,0.01054 -0.1121,0.0396 -0.13643,0.0584 -0.60224,0.43908 -3.79451,2.750348 -7.54786,5.175394 0,0 -0.60341,0.388679 -0.69195,0.445968 -0.48801,-0.270875 -0.83082,-0.44204 -1.0728,-0.536918 -0.24063,-0.09533 -0.47255,-0.189394 -0.69763,-0.280603 -1.7905,-0.727377 -3.33762,-1.355279 -7.41609,-1.55236 -0.20413,-0.0096 -0.41008,-0.01499 -0.61081,-0.01499 -1.61206,0 -3.1626,0.334139 -4.49482,0.968933 -1.22543,-0.435417 -2.57221,-0.710798 -4.00647,-0.822172 -0.28052,-0.02156 -0.56925,-0.03256 -0.8599,-0.03256 -2.22035,0 -4.6841,0.637793 -6.77943,1.753381 -1.42617,-0.381335 -2.96749,-0.666569 -4.58835,-0.848527 -1.01046,-0.115043 -2.022995,-0.172083 -3.011184,-0.172083 -4.586752,0 -8.721011,1.213983 -11.65717,3.419947 -0.154102,-0.02567 -0.308132,-0.05121 -0.465605,-0.07596 -1.242335,-0.184249 -2.612953,-0.28267 -3.964099,-0.28267 -5.805433,0 -9.977022,1.635638 -11.160559,4.376477 -0.262924,0.638003 -0.867518,2.102223 -0.380855,3.752226 H 18.298891 v 2.509408 c -0.01018,0.831927 -0.436099,8.129219 -11.9739462,8.129219 H 2.6083758 V 112.4652 h 3.7098511 c 1.2267695,0.007 11.9806641,0.29106 11.9806641,8.1194 v 2.52026 h 3.834391 v 0.005 h 48.927246 c -0.491382,1.65459 0.112286,3.12231 0.377238,3.76308 1.183537,2.73991 5.355643,4.37492 11.161076,4.37492 1.351146,0 2.721765,-0.097 3.964099,-0.28215 0.157474,-0.0248 0.311502,-0.0495 0.465605,-0.0765 2.93616,2.20598 7.069902,3.42046 11.656653,3.42046 0.988188,0 2.000721,-0.0578 3.011191,-0.17156 1.62085,-0.18332 3.1627,-0.46804 4.58886,-0.84801 2.09534,1.11467 4.55908,1.75183 6.77943,1.75183 0.29065,0 0.57939,-0.011 0.8599,-0.032 1.43427,-0.11137 2.78054,-0.38728 4.00596,-0.82269 1.33223,0.6348 2.88274,0.96945 4.49481,0.96945 0.20073,0 0.4072,-0.006 0.61133,-0.015 4.07847,-0.19754 5.6256,-0.82498 7.41609,-1.55236 0.22507,-0.0917 0.45699,-0.18572 0.69763,-0.2806 0.24198,-0.0953 0.58479,-0.26611 1.0728,-0.53743 0.0885,0.0577 0.69195,0.447 0.69195,0.447 3.75336,2.42411 6.94561,4.73682 7.54786,5.17591 0.0243,0.0174 0.0655,0.0482 0.13643,0.0574 l 0.006,0.004 h 0.14004 l 0.002,-0.002 c 0.0656,-0.006 0.10253,-0.0299 0.22893,-0.11421 2.021,-1.3649 3.85809,-2.53912 5.04569,-3.283 1.03953,-0.64764 2.10517,-1.29911 3.16569,-1.93528 l -0.007,-0.007 c 0.0973,-0.0577 0.19151,-0.11468 0.2868,-0.17105 0.30956,0.17371 0.5524,0.293 0.73897,0.36587 0.24062,0.0949 0.47116,0.18893 0.69557,0.28061 1.79117,0.72736 3.33813,1.35482 7.4166,1.55236 0.20412,0.009 0.40957,0.015 0.6103,0.015 1.61274,0 3.16497,-0.33413 4.49585,-0.96893 1.22542,0.43542 2.57116,0.71132 4.00544,0.82269 0.2805,0.021 0.56976,0.0315 0.86041,0.0315 2.2197,0 4.68408,-0.63716 6.77943,-1.75183 1.42549,0.37996 2.96943,0.6652 4.59094,0.84853 1.00846,0.11367 2.02056,0.17105 3.00808,0.17105 4.58745,0 8.72153,-1.21449 11.65769,-3.42047 0.15412,0.027 0.30814,0.0516 0.4656,0.0765 1.24234,0.18518 2.61278,0.28267 3.96462,0.28267 5.80541,0 9.97703,-1.63534 11.16056,-4.37389 0.26427,-0.64213 0.86996,-2.11142 0.37723,-3.76463 h 50.39589 v -0.005 h 3.23805 c 0.33053,0 0.59635,-0.18207 0.59635,-0.40617 v -2.10995 c 0.0102,-0.83188 0.42595,-8.12406 11.97394,-8.12406 h 3.11816 c 0.33049,0 0.59893,-0.18153 0.59893,-0.40566 V 55.11624 c 0,-0.224127 -0.26844,-0.406177 -0.59893,-0.406177 h -3.11144 c -1.22679,-0.0069 -11.98015,-0.293225 -11.98015,-8.118367 v -2.115634 c 0,-0.223207 -0.26634,-0.404626 -0.59686,-0.404626 h -53.63083 c 0.48597,-1.650003 -0.11607,-3.112626 -0.38034,-3.754293 -1.18353,-2.738548 -5.35515,-4.37441 -11.16056,-4.37441 -1.35184,0 -2.72228,0.09842 -3.96462,0.28267 -0.15747,0.02474 -0.31148,0.05031 -0.4656,0.07596 -2.93617,-2.205965 -7.06973,-3.419947 -11.65717,-3.419947 -0.9875,0 -2.00014,0.05705 -3.0086,0.172083 -1.62151,0.181959 -3.16543,0.467191 -4.59094,0.848527 -2.09536,-1.115589 -4.55973,-1.752865 -6.77943,-1.752865 -0.29065,0 -0.57991,0.01049 -0.86041,0.03204 -1.43427,0.111375 -2.78002,0.386752 -4.00544,0.822172 -1.33088,-0.634796 -2.88261,-0.968933 -4.49534,-0.968933 -0.20072,0 -0.40615,0.0054 -0.61029,0.01499 -4.07847,0.197083 -5.62594,0.824987 -7.41712,1.55236 -0.2244,0.09121 -0.45495,0.185269 -0.69557,0.280603 -0.18657,0.07241 -0.42888,0.19182 -0.73845,0.366902 -0.0953,-0.05776 -0.18999,-0.114789 -0.28732,-0.172082 l 0.007,-0.0072 c -1.06052,-0.63571 -2.12615,-1.286104 -3.16569,-1.933732 -1.1876,-0.744793 -3.02471,-1.919575 -5.04569,-3.284037 -0.1264,-0.08434 -0.16285,-0.109282 -0.22841,-0.115239 l -0.002,-0.001 z m 0.0796,1.243852 c 0.77867,0.504626 4.08297,2.626828 7.86877,4.812626 -0.98955,0.616 -2.29277,1.475238 -3.66489,2.382283 -1.25787,0.830503 -2.55663,1.688295 -3.83749,2.507341 -1.64181,-0.958837 -3.35899,-1.996799 -4.87981,-2.917135 -1.11794,-0.675581 -2.1763,-1.317369 -3.03134,-1.821077 3.64925,-2.264172 6.80734,-4.450246 7.54476,-4.964038 z m -18.11879,2.744535 c 0.14666,0 0.296,0.0044 0.44132,0.01137 2.80438,0.139791 5.23927,0.857891 8.09769,2.394686 -3.95206,2.501587 -7.95225,4.740471 -8.8992,5.139221 -0.5671,0.242 -1.17247,0.497774 -1.81797,0.737939 -1.51269,-0.744792 -3.66183,-1.631823 -5.60845,-1.813326 -1.15244,-2.057006 -3.73777,-3.804532 -7.31945,-4.948535 1.76482,-0.843335 3.70255,-1.30483 5.49373,-1.30483 0.26633,0 0.5347,0.0099 0.79426,0.03101 1.18353,0.09167 2.25181,0.290921 3.17914,0.594796 -1.01792,0.673292 -1.72572,1.506626 -1.8278,2.169376 -0.1034,0.664129 0.13733,1.261243 0.6997,1.725993 0.57587,0.477586 1.45089,0.774421 2.46342,0.837675 0.11219,0.0059 0.22504,0.0093 0.33589,0.0093 1.73169,0 2.99399,-0.868029 3.13728,-2.160075 0.0932,-0.815374 -1.02639,-1.909104 -2.75539,-2.717147 1.12879,-0.457874 2.39013,-0.706532 3.58583,-0.70745 z m 36.22311,0 c 1.19706,0 2.4567,0.249575 3.5848,0.70745 -1.7283,0.808044 -2.84831,1.90177 -2.75436,2.717147 0.14329,1.292045 1.40493,2.160075 3.13728,2.160075 0.11086,0 0.22302,-0.0034 0.33589,-0.0093 1.01184,-0.06325 1.88755,-0.359915 2.46342,-0.836124 0.56236,-0.464751 0.80462,-1.062043 0.69918,-1.727544 -0.1034,-0.673294 -0.79563,-1.488752 -1.82573,-2.169376 0.92804,-0.303876 1.99405,-0.503128 3.17759,-0.594796 0.25956,-0.02108 0.52727,-0.03101 0.79426,-0.03101 1.79255,0 3.72825,0.461495 5.49373,1.30483 -3.6567,1.168754 -6.26779,2.958195 -7.38508,5.067908 -1.61274,0.366208 -3.2221,1.070522 -4.33669,1.62419 -0.64211,-0.23696 -1.25116,-0.49077 -1.82366,-0.732772 -0.99835,-0.415251 -5.44061,-2.73008 -9.80095,-5.312337 2.55428,-1.349335 4.96966,-2.015806 7.80107,-2.156974 0.1453,-0.0069 0.29192,-0.01137 0.43925,-0.01137 z m -59.851127,0.858862 c 0.858414,0 1.730297,0.04912 2.592087,0.146761 1.31666,0.147582 2.5955,0.391584 3.81011,0.727088 -1.17337,0.759002 -2.04536,1.61361 -2.54352,2.491321 -0.5414,-0.142085 -1.11753,-0.247456 -1.71772,-0.315743 -0.40014,-0.04446 -0.7998,-0.06718 -1.191144,-0.06718 -2.853033,0 -4.851635,1.165123 -6.064229,2.201416 -1.497145,-0.963417 -3.4022,-1.723917 -5.542814,-2.214335 2.796244,-1.890171 6.658522,-2.969328 10.65723,-2.969328 z m 83.479147,0 c 4.00005,0 7.86231,1.079161 10.65723,2.969328 -2.14063,0.490419 -4.04634,1.250918 -5.54282,2.214335 -1.21327,-1.036293 -3.21103,-2.201416 -6.06474,-2.201416 -0.39068,0 -0.79096,0.02271 -1.18908,0.06718 -0.60155,0.06829 -1.17785,0.17366 -1.71927,0.315743 -0.49815,-0.877711 -1.37081,-1.732316 -2.54352,-2.491321 1.21459,-0.335499 2.49481,-0.579508 3.81011,-0.727088 0.86181,-0.09762 1.73369,-0.146761 2.59209,-0.146761 z m -64.50408,0.369487 c 1.68167,0.782836 2.23049,1.751596 2.17506,2.191597 -0.0885,0.725087 -0.63184,1.505852 -1.61798,1.505852 -0.0398,0 -0.079,-0.0014 -0.12093,-0.0036 -0.46908,-0.02934 -1.18579,-0.201839 -1.66501,-0.597379 -0.4015,-0.329543 -0.56349,-0.755658 -0.48576,-1.263489 0.0886,-0.577503 0.72508,-1.256838 1.71462,-1.832963 z m 45.52901,0 c 0.99155,0.576128 1.6281,1.254946 1.71462,1.832446 0.0777,0.507834 -0.0847,0.934464 -0.48627,1.264006 -0.47923,0.39554 -1.19607,0.567531 -1.6645,0.596862 -0.0398,0.0023 -0.0816,0.0036 -0.12144,0.0036 -0.98413,0 -1.5296,-0.780248 -1.61747,-1.505335 -0.0541,-0.439998 0.49473,-1.410136 2.17506,-2.191597 z m -57.00272,0.839225 c 3.09905,1.034461 5.37427,2.582284 6.4456,4.382161 -1.6837,0.131542 -2.80851,0.693488 -2.96261,1.496033 -0.0657,0.340542 0.10011,0.695552 0.48265,1.027844 0.63198,0.54771 1.75275,0.951452 2.9559,1.069703 -0.5502,2.090004 -2.1394,3.632711 -4.60851,4.478796 -0.46165,-0.519751 -1.09144,-1.152414 -2.01745,-2.024166 -0.22642,-0.213584 -0.42917,-0.410495 -0.61908,-0.598413 0.65901,-0.803459 1.0825,-1.670352 1.26297,-2.579687 0.31293,-1.602795 -0.84049,-3.742271 -3.64215,-4.799191 0.49272,-0.843794 1.44412,-1.70691 2.70268,-2.45308 z m 68.47644,0 c 1.25788,0.746166 2.20927,1.60929 2.70267,2.45308 -2.80165,1.05692 -3.95509,3.196396 -3.64215,4.799191 0.17979,0.909335 0.60327,1.776228 1.26297,2.579687 -0.1906,0.189292 -0.39453,0.386204 -0.6196,0.598413 -0.92193,0.869459 -1.5538,1.502124 -2.01745,2.024166 -2.48467,-0.850669 -4.07468,-2.406857 -4.61677,-4.512903 0.35689,-0.0023 0.71669,-0.01707 1.06815,-0.04548 1.26126,-0.100833 2.45322,-0.519757 3.10886,-1.094507 0.38054,-0.333211 0.54488,-0.688972 0.47594,-1.030428 -0.1852,-0.917585 -1.6471,-1.511019 -3.72691,-1.511019 -0.12099,0 -0.24411,8.85e-4 -0.37052,0.0057 1.1004,-1.749462 3.34671,-3.255724 6.37481,-4.26589 z m -25.29407,0.615983 c 4.09401,2.34988 8.73471,4.730373 10.04125,5.289083 0.59683,0.259418 1.14493,0.483612 1.66605,0.681612 -0.6955,0.376748 -1.3553,0.775769 -1.92443,1.161686 -2.09534,1.418543 -3.89778,2.195559 -5.21312,2.246892 -0.17641,0.0059 -0.35171,0.0093 -0.51935,0.0093 -2.11967,0 -3.74226,-0.529346 -6.17688,-1.572514 -0.73203,-0.313042 -2.88479,-1.483064 -5.27617,-2.864941 1.14904,-0.742959 2.21329,-1.485565 3.2427,-2.206067 1.42414,-0.995045 2.77229,-1.937006 4.15995,-2.745051 z M 132.016,35.638876 c 0.95373,0.549084 1.89319,1.139464 2.88406,1.763716 1.58167,0.993666 3.21324,2.01881 5.06119,2.973979 -2.30284,1.457506 -4.2045,2.5766 -4.87774,2.868559 -2.44002,1.056002 -4.07132,1.593701 -6.20788,1.593701 -0.15613,0 -0.31506,-0.0036 -0.47594,-0.0083 -1.31734,-0.04675 -3.12554,-0.817652 -5.22966,-2.229322 -0.57249,-0.383624 -1.23533,-0.780167 -1.93218,-1.156001 0.52046,-0.200292 1.06723,-0.425928 1.65933,-0.686263 1.13691,-0.492709 5.13364,-2.668929 9.11882,-5.120101 z m -49.210949,0.95498 c 1.174738,0 2.363827,0.09112 3.535185,0.270785 -0.978043,0.862585 -1.686989,1.795222 -2.109432,2.776058 h -0.09663 c -3.422813,0 -5.014509,1.846911 -5.414657,2.937288 -0.300766,0.79796 0.05525,1.919155 0.906922,2.85874 0.766482,0.84517 2.266279,1.93977 5.069975,2.360063 1.311263,0.193418 2.572395,0.291972 3.751192,0.291972 2.673236,0 4.876218,-0.498472 6.38824,-1.44539 1.612734,1.007877 3.689164,1.649511 6.175854,1.908927 0.0723,0.0083 0.14521,0.01535 0.21755,0.02222 -0.007,0.974877 0.44479,1.761083 1.34307,2.336292 0.96386,0.616001 2.21314,0.838939 3.09387,0.917773 0.22507,0.01971 0.44776,0.02997 0.66404,0.02997 2.16496,0 3.47533,-1.031761 3.64836,-2.051555 0.0845,-0.4895 -0.0777,-1.019954 -0.50902,-1.65933 3.23222,-0.875417 5.17852,-2.669578 5.79087,-5.336625 1.37753,-0.05866 2.78619,-0.313153 4.29482,-0.779281 0.46775,0.287835 0.96242,0.607788 1.47071,0.952914 1.63166,1.106419 4.2261,2.449816 7.31842,2.557983 0.1264,0.0045 0.25192,0.0072 0.38034,0.0072 4.23394,0 9.091,-2.449263 12.47056,-4.543392 3.88109,2.006129 8.70885,4.499467 12.68863,4.499467 0.12504,0 0.2459,-0.0021 0.3669,-0.0067 3.09231,-0.118251 5.67678,-1.470353 7.30033,-2.582272 0.50489,-0.3465 0.99845,-0.667897 1.46348,-0.957564 1.06253,0.322668 2.06074,0.539541 3.04012,0.661459 0.56101,2.771547 2.52127,4.630294 5.83324,5.526794 -0.43258,0.639377 -0.59522,1.169828 -0.51005,1.65933 0.17304,1.019792 1.48251,2.051555 3.64681,2.051555 0.21628,0 0.44014,-0.01025 0.66456,-0.02997 0.88069,-0.07883 2.13052,-0.301772 3.09438,-0.917773 0.8976,-0.57521 1.34932,-1.361416 1.34255,-2.336292 0.073,-0.0069 0.1451,-0.01397 0.21808,-0.02222 2.48602,-0.259416 4.56261,-0.90105 6.17533,-1.908927 1.5127,0.946918 3.71552,1.44539 6.38876,1.44539 1.17812,0 2.43993,-0.09855 3.75119,-0.291972 2.80302,-0.420292 4.30348,-1.514894 5.06998,-2.360063 0.85097,-0.939585 1.20785,-2.060664 0.9064,-2.857706 -0.39947,-1.091293 -1.9913,-2.938322 -5.41414,-2.938322 h -0.0966 c -0.42245,-0.980836 -1.132,-1.913591 -2.10737,-2.777092 1.16933,-0.178751 2.35838,-0.269751 3.53312,-0.269751 4.9335,0 9.2051,1.615438 10.15545,3.841109 0.7178,1.750837 0.74924,2.817644 -0.96893,4.489649 l -0.51573,0.270784 h 1.73012 c 0.0345,0.0045 0.0731,0.0067 0.10956,0.0067 h 53.71093 c 0.0474,0 0.0847,0.02626 0.0847,0.05788 v 1.331735 c 0,3.685466 2.18225,6.44036 6.31073,7.967989 3.24099,1.199461 6.67367,1.279459 7.33133,1.283125 h 1.96422 c 0.0467,0 0.0827,0.02522 0.0827,0.05685 v 55.37698 c 0,0.0303 -0.036,0.0563 -0.0827,0.0563 h -1.96422 c -5.43838,0 -9.50301,1.48085 -11.7538,4.28036 -1.7682,2.1968 -1.88286,4.5253 -1.88826,4.97127 v 1.33067 c 0,0.0317 -0.0376,0.0579 -0.0847,0.0579 H 207.5091 l 0.0382,0.0217 h -0.32556 l 0.51573,0.2713 c 1.71818,1.67201 1.68673,2.73894 0.96893,4.49069 -0.95035,2.22475 -5.22195,3.84007 -10.15545,3.84007 -1.17474,0 -2.36379,-0.0915 -3.53312,-0.26975 0.97536,-0.86351 1.68492,-1.79632 2.10737,-2.77761 0.0323,0 0.0655,0.002 0.0966,0.002 3.42284,0 5.01467,-1.84806 5.41414,-2.93936 0.30145,-0.79658 -0.0555,-1.91801 -0.9064,-2.85667 -0.7665,-0.84519 -2.26695,-1.94128 -5.06998,-2.3611 -1.31126,-0.1939 -2.57307,-0.29248 -3.75119,-0.29248 -2.67324,0 -4.87606,0.50036 -6.38876,1.4459 -1.61272,-1.0065 -3.68931,-1.64952 -6.17533,-1.90893 -0.073,-0.007 -0.14507,-0.0145 -0.21808,-0.0222 0.007,-0.97534 -0.44495,-1.76154 -1.34255,-2.33629 -0.96386,-0.616 -2.21369,-0.83888 -3.09438,-0.91725 -0.22442,-0.0202 -0.44828,-0.031 -0.66456,-0.031 -2.1643,0 -3.47377,1.0328 -3.64681,2.05259 -0.0851,0.48904 0.0774,1.01943 0.51005,1.65881 -3.31197,0.8965 -5.27223,2.7549 -5.83324,5.52783 -0.97938,0.12053 -1.97759,0.33775 -3.04012,0.66042 -0.46503,-0.29013 -0.95859,-0.6114 -1.46348,-0.95653 -1.62355,-1.11328 -4.20802,-2.46459 -7.30033,-2.5833 -0.121,-0.005 -0.24186,-0.007 -0.3669,-0.007 -3.97978,0 -8.80754,2.49351 -12.68863,4.50102 -3.37956,-2.09551 -8.23662,-4.54442 -12.47056,-4.54442 -0.12842,0 -0.25394,0.002 -0.38034,0.007 -3.09232,0.10771 -5.68676,1.45123 -7.31842,2.55902 -0.50829,0.34375 -1.00296,0.66399 -1.47071,0.95136 -1.50863,-0.46475 -2.9173,-0.7201 -4.29482,-0.77876 -0.61236,-2.66706 -2.55865,-4.46121 -5.79087,-5.33663 0.43123,-0.63937 0.593,-1.16976 0.5085,-1.65881 -0.17302,-1.0198 -1.48288,-2.05207 -3.64784,-2.05207 -0.21628,0 -0.43896,0.0104 -0.66404,0.0305 -0.88072,0.0783 -2.13001,0.30177 -3.09387,0.91777 -0.89829,0.57474 -1.34986,1.36043 -1.34307,2.33578 -0.0723,0.008 -0.14524,0.0154 -0.21755,0.0222 -2.486689,0.25942 -4.56312,0.90243 -6.175854,1.90893 -1.512022,-0.94554 -3.714999,-1.44591 -6.38824,-1.44591 -1.178797,0 -2.439929,0.0986 -3.751192,0.29249 -2.803696,0.41983 -4.303494,1.5159 -5.069975,2.36109 -0.851637,0.93868 -1.207688,2.06027 -0.906922,2.85823 0.400148,1.08991 1.991844,2.9378 5.414657,2.9378 0.03106,0 0.0635,-0.002 0.09663,-0.002 0.422443,0.9813 1.131388,1.91411 2.109432,2.77761 -1.171359,0.1783 -2.360447,0.26975 -3.535185,0.26975 -4.9335,0 -9.205793,-1.61561 -10.155452,-3.84266 -0.721881,-1.75679 -0.749802,-2.82549 0.992704,-4.51031 l 0.258382,-0.27079 H 19.967523 v -1.38854 c 0,-1.38554 -0.308535,-2.63972 -0.914156,-3.74706 -0.425143,-0.78971 -1.0048,-1.50104 -1.734778,-2.13217 -0.965876,-0.8438 -2.18914,-1.54531 -3.661275,-2.0898 -3.240994,-1.19947 -6.6741904,-1.2794 -7.3318524,-1.28261 H 4.2785581 V 55.84281 h 2.0469035 c 2.0419327,0 3.8899714,-0.209334 5.5216264,-0.619083 1.169999,-0.290585 2.221596,-0.686155 3.156397,-1.183907 1.238267,-0.654502 2.271725,-1.482617 3.072681,-2.479952 1.770229,-2.199088 1.885939,-4.528356 1.891357,-4.973857 v -1.383895 h 19.047933 l 34.885209,0.01654 -0.258382,-0.272335 c -1.742507,-1.683459 -1.714585,-2.752091 -0.992704,-4.509802 0.949659,-2.227048 5.221952,-3.84266 10.155452,-3.84266 z m 4.742863,0.498678 c 2.155485,0.488125 4.005671,1.376328 5.367631,2.57762 -0.533297,0.620588 -0.911736,1.257921 -1.071252,1.806092 -0.297393,1.033542 0.12078,2.718057 1.712557,4.196643 -1.344391,1.077086 -3.427425,1.667598 -5.891114,1.667598 -0.865174,0 -1.78788,-0.07065 -2.740918,-0.211357 -1.735738,-0.258042 -3.203382,-0.961996 -4.134114,-1.981791 -0.742835,-0.811709 -1.043523,-1.747335 -0.785999,-2.441711 0.317022,-0.874044 1.256463,-2.341976 3.968233,-2.341976 h 0.01034 c -0.297397,1.365835 0.565715,2.859771 2.868559,3.196187 0.199403,0.02934 0.398427,0.04496 0.593762,0.04496 1.026715,0 1.738936,-0.407743 1.953886,-1.117245 0.319718,-1.064252 -1.418564,-2.384045 -3.580144,-2.714046 -0.152072,-0.02339 -0.304296,-0.04311 -0.460437,-0.06098 0.415696,-0.90475 1.167698,-1.804617 2.189014,-2.619995 z m 106.262246,0 c 1.01927,0.815377 1.77127,1.715241 2.18695,2.619995 -0.15613,0.01786 -0.30784,0.03761 -0.45992,0.06098 -2.16158,0.330002 -3.90104,1.64991 -3.58066,2.71508 0.21426,0.708585 0.92737,1.116211 1.95544,1.116211 0.19332,0 0.39432,-0.01563 0.59169,-0.04496 2.30353,-0.336416 3.16667,-1.830351 2.87063,-3.196187 h 0.0108 c 2.71111,0 3.6488,1.468049 3.96513,2.343009 0.2582,0.69346 -0.0431,1.627592 -0.78393,2.440678 -0.93074,1.019793 -2.39936,1.723749 -4.13308,1.981791 -0.95507,0.140707 -1.87782,0.211357 -2.74299,0.211357 -2.46368,0 -4.54723,-0.590512 -5.89163,-1.667598 1.59178,-1.477212 2.01251,-3.1631 1.71308,-4.196643 -0.15952,-0.546793 -0.53662,-1.185507 -1.07126,-1.806092 1.36197,-1.201295 3.21149,-2.089495 5.3697,-2.57762 z m -93.63046,0.176733 c 0.25212,0 0.50682,0.01441 0.75758,0.04237 0.54678,0.06141 1.06948,0.16315 1.55546,0.303857 -0.0366,0.11046 -0.0692,0.219461 -0.0935,0.327629 -0.68334,2.929673 0.67704,4.84465 1.97818,6.19032 -0.0379,0.04216 -0.0769,0.08577 -0.11472,0.130224 -0.23317,0.26171 -0.54468,0.498658 -0.87385,0.749825 -0.81651,0.621961 -1.74039,1.32742 -2.06551,2.76934 -0.008,0.02566 -0.0122,0.05185 -0.0176,0.07751 -0.0277,-0.0023 -0.0564,-0.0046 -0.0842,-0.0083 -1.903365,-0.197084 -3.893585,-0.952884 -5.356264,-2.030884 0.521129,-0.537627 0.876236,-1.156022 1.052649,-1.841231 0.370391,-1.44192 -0.330737,-2.996344 -1.974557,-4.387846 v -5.17e-4 c 1.295714,-1.456124 3.242421,-2.322339 5.236372,-2.322339 z m 80.99661,0 c 1.99329,0 3.93997,0.866728 5.23637,2.322856 -1.64248,1.39242 -2.3431,2.946843 -1.97404,4.387846 0.17639,0.683835 0.53116,1.302688 1.05162,1.841231 -1.46201,1.078002 -3.44983,1.833801 -5.35523,2.030884 -0.0278,0.0036 -0.0558,0.0059 -0.0848,0.0083 -0.006,-0.02566 -0.0107,-0.05185 -0.0155,-0.07751 -0.32713,-1.441918 -1.25092,-2.14738 -2.06809,-2.76934 -0.3285,-0.251167 -0.63812,-0.488233 -0.87334,-0.750858 -0.0386,-0.04354 -0.0763,-0.08702 -0.1142,-0.129191 1.30114,-1.34567 2.66236,-3.260648 1.97766,-6.19032 -0.0243,-0.109082 -0.0577,-0.218087 -0.0941,-0.327629 0.48803,-0.140709 1.01053,-0.242438 1.55598,-0.303857 0.25077,-0.02797 0.50481,-0.04237 0.75758,-0.04237 z m -77.74409,0.68678 c 1.87765,0.8305 2.66647,2.204657 2.4691,3.178617 -0.18451,0.902461 -0.46185,1.578201 -0.93431,2.25516 -1.50526,-1.806755 -1.9829,-3.474309 -1.5503,-5.368148 0.006,-0.02108 0.0107,-0.04316 0.0155,-0.06563 z m 74.49106,0 c 0.006,0.02244 0.0121,0.04455 0.0155,0.06563 0.4346,1.893839 -0.0445,3.560021 -1.54978,5.368148 -0.47245,-0.676959 -0.74962,-1.352699 -0.93482,-2.25516 -0.19736,-0.973961 0.59207,-2.348116 2.4691,-3.178618 z m -9.12193,1.839681 c 1.35115,0 2.29462,0.352203 2.40141,0.89762 0.0432,0.220918 -0.1399,0.434275 -0.30076,0.573608 -0.44138,0.385004 -1.23242,0.682773 -1.96577,0.740523 -0.36027,0.02934 -0.7272,0.04341 -1.08882,0.04341 -0.1068,-0.752127 -0.007,-1.500685 0.2961,-2.230354 0.2271,-0.01649 0.44696,-0.02481 0.65784,-0.02481 z m -55.55423,0.112655 c 0.27983,0.713168 0.36648,1.445975 0.25632,2.180228 -0.69622,-0.07838 -1.42115,-0.361154 -1.8402,-0.721403 -0.16087,-0.139794 -0.34405,-0.352116 -0.30282,-0.572575 0.0865,-0.464748 0.81874,-0.805584 1.8867,-0.88625 z m 1.9079,0.111621 c 0.98276,0.211293 2.16498,0.715912 3.59047,1.532206 -1.15242,0.326334 -2.25739,0.514074 -3.35845,0.569991 0.092,-0.704917 0.014,-1.410112 -0.23202,-2.102197 z m 50.94314,0.323494 c -0.14328,0.520209 -0.19344,1.049163 -0.14883,1.577165 -0.69889,-0.09488 -1.40128,-0.241377 -2.12855,-0.444417 0.84083,-0.487212 1.59269,-0.860498 2.27738,-1.132748 z m -80.993508,0.0956 c 0.100037,0.01284 0.197139,0.02558 0.290422,0.03979 1.304506,0.200755 2.549301,1.37169 2.403988,1.851567 -0.08656,0.274542 -0.27547,0.601514 -0.685747,0.601514 -0.210891,0 -0.398019,-0.08083 -0.430464,-0.102836 0.02699,0.01879 -0.112655,-0.07286 -0.112655,-0.07286 -0.485983,-0.0715 -1.720367,-0.99625 -1.465544,-2.317171 z m 111.146708,0 c 0.25618,1.320918 -1.60591,2.408825 -1.5782,2.390035 -0.0311,0.022 -0.21958,0.102836 -0.43047,0.102836 -0.41028,0 -0.59902,-0.326973 -0.68419,-0.601514 -0.14666,-0.479878 1.09793,-1.650817 2.40244,-1.851567 0.0932,-0.0142 0.18972,-0.02697 0.29042,-0.03979 z M 94.059125,40.914006 c 0.735403,1.006502 1.085154,2.065115 0.896586,2.771407 -0.08313,0.307544 -0.218572,0.610487 -0.405144,0.903821 -0.778646,-0.962502 -1.050478,-1.956181 -0.787548,-2.890263 0.07439,-0.264002 0.173079,-0.526924 0.296106,-0.784965 z m 93.237725,0 c 0.12302,0.258041 0.2231,0.521999 0.2961,0.785999 0.26293,0.934086 -0.009,1.926727 -0.786,2.889229 -0.18857,-0.293334 -0.32304,-0.596277 -0.40617,-0.903821 -0.18858,-0.706292 0.16066,-1.764905 0.89607,-2.771407 z m -81.75884,4.341337 c 0.13316,0.125583 0.26125,0.247619 0.38292,0.365869 0.49139,0.483545 1.18469,1.197917 1.68827,1.952336 -1.16596,0.273626 -2.47116,0.412894 -3.88245,0.412894 -0.33933,0 -0.6888,-0.0083 -1.04231,-0.02429 0.40151,-0.839212 1.08542,-1.319671 1.6924,-1.748214 0.20616,-0.144374 0.40184,-0.281488 0.56948,-0.422197 0.21291,-0.178751 0.40784,-0.355817 0.59169,-0.536401 z m 70.27995,0 c 0.18317,0.179208 0.37831,0.356736 0.59324,0.536401 0.16762,0.14071 0.36177,0.276905 0.56793,0.422197 0.60696,0.428542 1.2904,0.909002 1.69189,1.748214 -0.35283,0.01604 -0.70248,0.02429 -1.0418,0.02429 -1.41198,0 -2.71634,-0.139269 -3.88297,-0.412894 0.50357,-0.755335 1.19741,-1.469709 1.68879,-1.952336 0.12101,-0.11825 0.24978,-0.240286 0.38292,-0.365869 z m -67.73643,3.196187 c 0.17304,0.434043 0.2265,0.831565 0.16433,1.184941 -0.24739,1.385546 -1.95306,1.456242 -2.29237,1.456242 -0.10005,0 -0.19874,-0.0051 -0.29404,-0.01344 -0.55018,-0.04767 -1.93802,-0.371316 -2.7187,-1.070736 -0.43936,-0.394167 -0.60697,-0.843526 -0.49816,-1.335319 0.67864,0.04354 1.3412,0.06563 1.97249,0.06563 1.32413,0 2.55594,-0.0962 3.66645,-0.287321 z m 65.19292,0 c 1.11051,0.191125 2.34247,0.287321 3.66592,0.287321 0.63198,0 1.2944,-0.02209 1.97301,-0.06563 0.10883,0.491793 -0.0587,0.941151 -0.49868,1.335319 -0.78,0.699419 -2.16749,1.023587 -2.71973,1.071253 -0.0932,0.0083 -0.19229,0.01292 -0.29301,0.01292 -0.33864,0 -2.04496,-0.0707 -2.2903,-1.456242 -0.0642,-0.353375 -0.0104,-0.750897 0.16279,-1.184941 z m -67.32148,67.64601 c 0.3393,0 2.0455,0.0703 2.29289,1.45624 0.0622,0.35292 0.009,0.75227 -0.16433,1.18494 -1.11052,-0.19114 -2.34285,-0.28732 -3.66696,-0.28732 -0.6313,0 -1.29336,0.0225 -1.97198,0.0656 -0.10881,-0.49132 0.0588,-0.94115 0.49816,-1.33531 0.78066,-0.69943 2.168,-1.02312 2.71818,-1.07125 0.0953,-0.008 0.19399,-0.0129 0.29404,-0.0129 z m 69.44899,0 c 0.10072,0 0.19975,0.005 0.29301,0.0129 0.55224,0.0481 1.93973,0.37183 2.71973,1.07125 0.44004,0.39416 0.60751,0.84347 0.49868,1.3348 -0.67861,-0.0431 -1.34103,-0.0651 -1.97301,-0.0651 -1.32345,0 -2.55541,0.0961 -3.66592,0.28732 -0.17303,-0.43404 -0.22701,-0.83202 -0.16279,-1.18494 0.24534,-1.38602 1.95166,-1.45624 2.2903,-1.45624 z m -71.67521,3.1073 c 1.4113,0 2.71651,0.13818 3.88245,0.41135 -0.50355,0.75441 -1.19688,1.4693 -1.68827,1.95285 -0.12167,0.1187 -0.24976,0.24029 -0.38292,0.36587 -0.18384,-0.18057 -0.37879,-0.35671 -0.59169,-0.5364 -0.16764,-0.1407 -0.36332,-0.27646 -0.56948,-0.4222 -0.60697,-0.4281 -1.29089,-0.90945 -1.6924,-1.74821 0.35352,-0.0151 0.70299,-0.0233 1.04231,-0.0233 z m 73.90247,0 c 0.33932,0 0.68897,0.008 1.0418,0.0233 -0.40149,0.83875 -1.08493,1.32011 -1.69189,1.74821 -0.20616,0.14575 -0.40031,0.2815 -0.56793,0.4222 -0.21493,0.17967 -0.41006,0.35673 -0.59324,0.5364 -0.13314,-0.12558 -0.26191,-0.24767 -0.38292,-0.36639 -0.49138,-0.48216 -1.18522,-1.19653 -1.68879,-1.95233 1.16663,-0.27315 2.47099,-0.41135 3.88297,-0.41135 z m -76.32351,0.12506 c 0.006,0.0257 0.0102,0.0513 0.0176,0.0775 0.32512,1.44283 1.24899,2.14703 2.06551,2.77038 0.32916,0.24979 0.64065,0.48672 0.87385,0.74982 0.0379,0.0431 0.0763,0.0867 0.1142,0.13023 -1.30112,1.34428 -2.661,3.25927 -1.97766,6.19032 0.0243,0.10678 0.0565,0.21698 0.093,0.32607 -0.48598,0.1407 -1.00814,0.24288 -1.55494,0.30386 -0.25076,0.0279 -0.50546,0.0424 -0.75758,0.0424 -1.993949,0 -3.940668,-0.86571 -5.236372,-2.32183 1.64363,-1.39134 2.344143,-2.94613 1.97404,-4.38836 -0.176402,-0.68384 -0.531003,-1.30353 -1.052132,-1.84071 1.462669,-1.07709 3.452384,-1.83385 5.355744,-2.0314 0.0277,-0.002 0.057,-0.006 0.0847,-0.008 z m 78.74455,5.2e-4 c 0.0291,0.002 0.0571,0.005 0.0848,0.008 1.9054,0.19755 3.89322,0.95432 5.35523,2.0314 -0.52046,0.53856 -0.87524,1.15687 -1.05162,1.84071 -0.36907,1.44238 0.33157,2.99687 1.97404,4.38836 -1.29639,1.45612 -3.24309,2.32183 -5.23637,2.32183 -0.25278,0 -0.50681,-0.0139 -0.75758,-0.0419 -0.54545,-0.0609 -1.06796,-0.16367 -1.55598,-0.30438 0.0366,-0.10908 0.0698,-0.21802 0.0941,-0.32711 0.68469,-2.93012 -0.67653,-4.84499 -1.97766,-6.18928 0.0379,-0.0435 0.0756,-0.0872 0.1142,-0.13023 0.23522,-0.2631 0.54484,-0.49968 0.87334,-0.75086 0.81716,-0.62196 1.74095,-1.32639 2.06809,-2.7683 0.005,-0.0269 0.0101,-0.0523 0.0155,-0.078 z m 13.63999,0.51934 c 0.86516,0 1.78791,0.0717 2.74299,0.21239 1.7337,0.25805 3.20234,0.96108 4.13308,1.98179 0.74081,0.81172 1.04264,1.74566 0.78445,2.43913 -0.31634,0.87542 -1.25455,2.34301 -3.96565,2.34301 h -0.0108 c 0.29605,-1.36538 -0.5671,-2.85879 -2.87063,-3.19567 -0.19737,-0.0293 -0.39837,-0.0444 -0.59169,-0.0444 -1.02806,0 -1.74118,0.40676 -1.95544,1.11673 -0.32039,1.06425 1.41908,2.3845 3.58066,2.71404 0.15208,0.0234 0.30376,0.0436 0.45992,0.061 -0.41569,0.90477 -1.16768,1.80552 -2.18695,2.62 -2.1582,-0.48813 -4.00771,-1.37639 -5.3697,-2.57814 0.53465,-0.6206 0.91174,-1.25735 1.07126,-1.80506 0.29945,-1.034 -0.1213,-2.71909 -1.71308,-4.19768 1.34439,-1.07708 3.42794,-1.66708 5.89163,-1.66708 z m -106.024534,5.2e-4 c 2.46368,0 4.546732,0.59137 5.891114,1.66708 -1.591767,1.47858 -2.00995,3.16368 -1.712557,4.19768 0.159517,0.5477 0.537965,1.18585 1.071252,1.80506 -1.361961,1.20174 -3.212146,2.08999 -5.367631,2.57813 -1.021325,-0.81449 -1.77331,-1.71575 -2.189014,-2.62051 0.156151,-0.0174 0.307847,-0.0372 0.459921,-0.0605 2.161579,-0.32954 3.900379,-1.64979 3.58066,-2.71405 -0.214942,-0.70996 -0.927688,-1.11621 -1.954403,-1.11621 -0.195336,0 -0.393842,0.0146 -0.593245,0.0439 -2.302845,0.33688 -3.165946,1.8303 -2.868559,3.19567 h -0.01034 c -2.71177,0 -3.651212,-1.46741 -3.968233,-2.34146 -0.257525,-0.69483 0.04314,-1.63005 0.785999,-2.44223 0.930733,-1.01933 2.398376,-1.72219 4.134114,-1.98024 0.953038,-0.14071 1.875745,-0.21239 2.740918,-0.21239 z m 84.936934,0.0925 c 0.46366,0.52251 1.0955,1.15435 2.01745,2.0252 0.22508,0.2122 0.429,0.40856 0.6196,0.59738 -0.6597,0.80393 -1.08319,1.67036 -1.26297,2.57969 -0.31296,1.60281 0.8405,3.74192 3.64215,4.80022 -0.4934,0.84286 -1.4448,1.70652 -2.70267,2.4536 v 0.001 c -3.02811,-1.01108 -5.2744,-2.51708 -6.37481,-4.26744 0.12641,0.005 0.24953,0.006 0.37052,0.006 2.0798,0 3.5417,-0.5936 3.72691,-1.51257 0.0689,-0.34144 -0.0954,-0.69671 -0.47594,-1.02991 -0.65564,-0.57521 -1.84759,-0.99418 -3.10886,-1.09502 -0.35147,-0.0278 -0.71127,-0.0432 -1.06815,-0.0455 0.5421,-2.10603 2.13211,-3.66086 4.61677,-4.5129 z m -63.84985,5.2e-4 c 2.46911,0.84609 4.05832,2.39068 4.60851,4.47931 -1.20316,0.11871 -2.3239,0.52341 -2.9559,1.07022 -0.38257,0.33182 -0.54822,0.68742 -0.48265,1.02888 0.15409,0.80117 1.27891,1.3634 2.96261,1.49448 -1.07131,1.79988 -3.34655,3.34788 -6.4456,4.38371 -1.25857,-0.74707 -2.20995,-1.61073 -2.70268,-2.4536 2.80165,-1.05829 3.95508,-3.19741 3.64215,-4.80022 -0.18047,-0.90933 -0.60396,-1.77576 -1.26297,-2.57969 0.18991,-0.18789 0.39266,-0.38517 0.61908,-0.59738 0.92601,-0.87313 1.55579,-1.50549 2.01745,-2.02571 z m 20.12281,2.40967 c 2.13655,0 3.76785,0.53616 6.20788,1.59215 0.67323,0.29197 2.5749,1.41152 4.87774,2.86856 -1.84794,0.95517 -3.47952,1.98187 -5.06119,2.97553 -0.99087,0.62334 -1.93034,1.21464 -2.88406,1.76371 -3.98518,-2.45209 -7.98192,-4.62895 -9.11882,-5.12165 -0.5921,-0.2608 -1.13887,-0.48603 -1.65933,-0.68678 0.69686,-0.37537 1.35967,-0.77048 1.93218,-1.15548 2.1041,-1.41121 3.9123,-2.18244 5.22966,-2.22829 0.16087,-0.006 0.3198,-0.008 0.47594,-0.008 z m 24.79693,0.0408 c 0.16765,0 0.34296,0.003 0.51935,0.0109 1.31535,0.0504 3.11778,0.82679 5.21312,2.24534 0.56912,0.38592 1.22892,0.78512 1.92443,1.16323 -0.52113,0.1971 -1.06922,0.42204 -1.66605,0.68007 -1.30655,0.55871 -5.94723,2.94065 -10.04125,5.2896 -1.38765,-0.80849 -2.7358,-1.75104 -4.15995,-2.74609 -1.02942,-0.72004 -2.09364,-1.46306 -3.2427,-2.20555 2.39139,-1.38235 4.54415,-2.55104 5.27617,-2.86546 2.43463,-1.04317 4.05721,-1.572 6.17688,-1.572 z m -59.121973,0.20774 c 0.186562,0.29333 0.321486,0.59594 0.404627,0.90486 0.188568,0.70491 -0.160678,1.76437 -0.896069,2.77089 -0.123028,-0.25897 -0.221747,-0.522 -0.296106,-0.786 -0.26292,-0.93408 0.009,-1.92771 0.787548,-2.88975 z m 92.256383,0 c 0.77731,0.96204 1.04892,1.95475 0.786,2.88975 -0.073,0.264 -0.17308,0.52693 -0.2961,0.78496 -0.7354,-1.00557 -1.08465,-2.06492 -0.89607,-2.76985 0.0832,-0.30754 0.2176,-0.61153 0.40617,-0.90486 z m -81.83996,1.1989 c 0.47246,0.67833 0.74978,1.35316 0.93431,2.25516 0.19737,0.97396 -0.59143,2.34765 -2.4691,3.17861 -0.005,-0.0225 -0.0106,-0.0431 -0.016,-0.0656 -0.43259,-1.89382 0.0456,-3.56002 1.55081,-5.36814 z m 71.42199,0 c 1.50527,1.80812 1.98439,3.47568 1.54978,5.36814 -0.004,0.0225 -0.0102,0.0432 -0.0155,0.0656 -1.87703,-0.83096 -2.66645,-2.20464 -2.4691,-3.17861 0.1852,-0.90201 0.46236,-1.5782 0.93482,-2.25516 z m 17.85369,0.45785 c 0.21089,0 0.39938,0.0804 0.43047,0.10284 -0.0277,-0.0188 1.83437,1.06918 1.5782,2.39055 -0.10071,-0.0134 -0.19715,-0.026 -0.29042,-0.0398 -1.30451,-0.20076 -2.5491,-1.37221 -2.40244,-1.85209 0.0851,-0.27454 0.27391,-0.60151 0.68419,-0.60151 z m -107.129375,5.4e-4 c 0.410276,0 0.598716,0.32708 0.68523,0.60254 0.145315,0.47896 -1.098966,1.64979 -2.403471,1.85054 -0.09327,0.0138 -0.190391,0.0269 -0.290422,0.0403 -0.254825,-1.32137 0.979561,-2.24618 1.465544,-2.31768 0,0 0.13968,-0.0917 0.112655,-0.0729 0.03248,-0.0224 0.219572,-0.10283 0.430464,-0.10283 z m 28.273725,0.80873 c 1.10106,0.0564 2.20602,0.24383 3.35845,0.57154 -1.4255,0.81537 -2.60771,1.32001 -3.59047,1.53221 0.24602,-0.69345 0.32393,-1.39837 0.23202,-2.10375 z m -1.88412,0.0341 c 0.11017,0.73471 0.0241,1.46795 -0.2558,2.18023 -1.06796,-0.0811 -1.80018,-0.42099 -1.8867,-0.88574 -0.0412,-0.22045 0.14196,-0.43325 0.30282,-0.57257 0.41907,-0.36025 1.14347,-0.64308 1.83968,-0.72192 z m 54.34449,0.0377 c 0.3616,0 0.72855,0.0141 1.08882,0.0434 0.73334,0.0587 1.52439,0.35548 1.96577,0.74001 0.16086,0.14071 0.34402,0.35366 0.30076,0.57412 -0.1068,0.54542 -1.05026,0.89711 -2.40141,0.89711 -0.21088,0 -0.43073,-0.008 -0.65784,-0.0243 -0.3028,-0.73014 -0.40291,-1.47822 -0.2961,-2.23036 z m -1.89808,0.13023 c -0.0447,0.52937 0.006,1.05741 0.14883,1.57716 -0.68468,-0.27088 -1.43655,-0.64549 -2.27738,-1.13223 0.72728,-0.20305 1.42966,-0.34959 2.12855,-0.44493 z m -45.56156,0.9126 c 0.64551,0.24062 1.2514,0.4964 1.81849,0.73794 0.94696,0.39922 4.94714,2.63815 8.8992,5.13974 -2.85842,1.53726 -5.29333,2.2549 -8.09769,2.39469 -0.14533,0.008 -0.29466,0.0119 -0.44132,0.0119 -1.19569,0 -2.45705,-0.25056 -3.58583,-0.70796 1.72899,-0.80713 2.84868,-1.90177 2.75539,-2.71715 -0.14329,-1.29203 -1.40559,-2.16008 -3.13728,-2.16008 -0.11085,0 -0.2237,0.004 -0.33589,0.0103 -1.01252,0.0624 -1.88755,0.35906 -2.46342,0.83664 -0.56236,0.46475 -0.8031,1.06187 -0.6997,1.72599 0.10208,0.66275 0.80988,1.49609 1.8278,2.16938 -0.92732,0.30433 -1.9956,0.50468 -3.17914,0.59635 -0.25955,0.0198 -0.52793,0.0289 -0.79426,0.0289 -1.79117,0 -3.72891,-0.46104 -5.49373,-1.30483 3.58168,-1.14398 6.16701,-2.89097 7.31945,-4.9475 1.94662,-0.18197 4.09524,-1.06911 5.60793,-1.81436 z m 41.78608,0.0708 c 1.11458,0.55367 2.72396,1.25747 4.33669,1.62367 1.11729,2.10924 3.72838,3.89864 7.38508,5.06739 -1.76548,0.84379 -3.70171,1.30483 -5.49424,1.30483 -0.26699,0 -0.5342,-0.01 -0.79375,-0.0289 -1.18354,-0.0917 -2.24956,-0.29235 -3.17759,-0.59532 1.03009,-0.68154 1.72231,-1.49711 1.82573,-2.17041 0.10544,-0.66412 -0.13682,-1.26137 -0.69918,-1.72702 -0.57587,-0.47667 -1.45156,-0.77327 -2.46342,-0.83561 -0.11285,-0.007 -0.22504,-0.0103 -0.33589,-0.0103 -1.73236,0 -2.99401,0.86803 -3.13728,2.16008 -0.0939,0.81675 1.02604,1.91003 2.75436,2.71715 -1.12812,0.45741 -2.38774,0.70796 -3.5848,0.70796 -0.14734,0 -0.29394,-0.004 -0.43925,-0.0119 -2.83142,-0.14073 -5.24679,-0.80764 -7.80107,-2.15698 4.36033,-2.58134 8.8026,-4.89759 9.80095,-5.31285 0.57248,-0.24155 1.18154,-0.49478 1.82366,-0.73174 z m -21.12222,1.25522 c 1.28086,0.81996 2.57962,1.67685 3.83749,2.50734 1.37211,0.90706 2.67534,1.76577 3.66489,2.38177 -3.78581,2.18626 -7.09012,4.30899 -7.86877,4.81314 -0.73742,-0.51379 -3.89551,-2.69993 -7.54476,-4.96455 0.85502,-0.50325 1.91339,-1.14361 3.03134,-1.82056 1.52082,-0.91987 3.23801,-1.95876 4.87981,-2.91714 z m -47.227613,0.91519 c 1.212594,1.03583 3.211196,2.20142 6.064229,2.20142 0.391344,0 0.791004,-0.0228 1.191144,-0.0672 0.6002,-0.0669 1.17632,-0.1736 1.71772,-0.31523 0.49816,0.87725 1.37014,1.73128 2.54352,2.49029 -1.21462,0.33596 -2.49344,0.58019 -3.81011,0.72915 -0.86178,0.0963 -1.733673,0.14573 -2.592087,0.14573 -3.998708,0 -7.860988,-1.08018 -10.65723,-2.97036 2.140613,-0.48906 4.045669,-1.25085 5.542814,-2.21382 z m 93.707973,0 c 1.49649,0.96297 3.4022,1.72477 5.54282,2.21382 -2.79491,1.89018 -6.65717,2.97036 -10.65723,2.97036 -0.8584,0 -1.73029,-0.0495 -2.59209,-0.14573 -1.31531,-0.14897 -2.59551,-0.39318 -3.81011,-0.72915 1.17272,-0.759 2.04536,-1.61303 2.54352,-2.49029 0.54141,0.14163 1.11771,0.24831 1.71927,0.31523 0.39811,0.0444 0.79841,0.0667 1.18908,0.0667 2.85371,0 4.85148,-1.16506 6.06474,-2.2009 z m -69.06141,1.11673 c 0.98613,0 1.52944,0.78024 1.61798,1.50533 0.0555,0.44 -0.49338,1.41013 -2.17506,2.1916 v 5.2e-4 c -0.98954,-0.57613 -1.62607,-1.25393 -1.71462,-1.83142 -0.0776,-0.50923 0.0843,-0.93505 0.48576,-1.26504 0.47923,-0.39507 1.19593,-0.56787 1.66501,-0.59582 0.0419,-0.004 0.081,-0.005 0.12093,-0.005 z m 44.41434,5.1e-4 c 0.0398,0 0.0816,0.002 0.12144,0.005 0.46844,0.0279 1.18476,0.20076 1.66398,0.59583 0.40149,0.33002 0.56452,0.75571 0.48679,1.26401 -0.0866,0.57704 -0.72307,1.25631 -1.71462,1.83244 v -5.1e-4 c -1.68034,-0.78145 -2.22915,-1.75161 -2.17506,-2.1916 0.0879,-0.7251 0.63335,-1.50534 1.61747,-1.50534 z"
       class="UnoptimicedTransforms"
       transform="matrix(1.0230252,0,0,1.0226079,-2.1683331,-27.827198)" />
    <text
       xml:space="preserve"
       style="font-size:38.8134px;font-family:'EB Garamond';-inkscape-font-specification:'EB Garamond';fill:#ffffff;stroke:#fcfcfc;stroke-width:0.264636"
       x="21.351692"
       y="69.591408"
       id="text265"
       transform="scale(1.000204,0.99979604)"><tspan
         sodipodi:role="line"
         id="tspan263"
         style="fill:#ffffff;stroke-width:0.264636"
         x="21.351692"
         y="69.591408"><tspan
           style="font-size:38.8056px"
           id="tspan400">L. 86, </tspan><tspan
           style="font-size:50.8103px;fill:#ffffff;stroke-width:0.264636"
           id="tspan342">λ<tspan
   style="font-size:38.8056px"
   id="tspan398"> préludes</tspan></tspan></tspan></text>
  </g>
</svg>
