<?xml version="1.0" encoding="UTF-8" standalone="no"?>
<!-- Created with Inkscape (http://www.inkscape.org/) -->

<svg
   width="60mm"
   height="45mm"
   viewBox="0 0 60 45"
   version="1.1"
   id="svg5"
   inkscape:version="1.2.2 (732a01da63, 2022-12-09)"
   sodipodi:docname="logo-lambda-polaris-dm.svg"
   inkscape:export-filename="logo-lambda-polaris-dm-400.png"
   inkscape:export-xdpi="169.33333"
   inkscape:export-ydpi="169.33333"
   xmlns:inkscape="http://www.inkscape.org/namespaces/inkscape"
   xmlns:sodipodi="http://sodipodi.sourceforge.net/DTD/sodipodi-0.dtd"
   xmlns="http://www.w3.org/2000/svg"
   xmlns:svg="http://www.w3.org/2000/svg">
  <sodipodi:namedview
     id="namedview7"
     pagecolor="#ffffff"
     bordercolor="#000000"
     borderopacity="0.25"
     inkscape:showpageshadow="2"
     inkscape:pageopacity="0.0"
     inkscape:pagecheckerboard="0"
     inkscape:deskcolor="#d1d1d1"
     inkscape:document-units="mm"
     showgrid="false"
     inkscape:zoom="2.8649832"
     inkscape:cx="180.97837"
     inkscape:cy="128.273"
     inkscape:window-width="1920"
     inkscape:window-height="991"
     inkscape:window-x="-9"
     inkscape:window-y="-9"
     inkscape:window-maximized="1"
     inkscape:current-layer="layer1"
     showguides="false" />
  <defs
     id="defs2">
    <inkscape:path-effect
       effect="fill_between_many"
       method="originald"
       linkedpaths="#path436,0,1"
       id="path-effect1387"
       is_visible="true"
       lpeversion="0"
       join="true"
       close="true"
       autoreverse="true" />
  </defs>
  <g
     inkscape:label="Layer 1"
     inkscape:groupmode="layer"
     id="layer1">
    <text
       xml:space="preserve"
       style="font-size:50.8px;font-family:'EB Garamond';-inkscape-font-specification:'EB Garamond';fill:#ffffff;stroke:#ffffff;stroke-width:0.5;fill-opacity:1;stroke-opacity:1;stroke-dasharray:none"
       x="2.9398212"
       y="40.486618"
       id="text265"
       transform="scale(1.0002043,0.99979574)"><tspan
         sodipodi:role="line"
         id="tspan263"
         style="font-size:50.8px;fill:#ffffff;stroke-width:0.5;fill-opacity:1;stroke:#ffffff;stroke-opacity:1;stroke-dasharray:none"
         x="2.9398212"
         y="40.486618">λ</tspan></text>
    <path
       style="fill:#5599ff;fill-opacity:1;fill-rule:nonzero;stroke:none;stroke-width:0.294951"
       d="m 45.527142,18.976999 c 0.65443,-1.708642 1.75473,-3.648868 3.30322,-6.125996 0.11752,-0.186648 -0.0795,-0.423992 -0.22582,-0.275363 -1.92755,1.96442 -3.44724,3.372348 -4.7918,4.231856 -1.62339,-2.937989 -2.20638,-7.58577 -2.84006,-15.307496 -0.64175,7.825419 -1.23165,12.495091 -2.90573,15.426166 -1.373363,-0.813418 -2.933374,-2.183327 -4.924293,-4.109725 -0.149784,-0.145172 -0.341038,0.09908 -0.221219,0.281124 1.578447,2.398779 2.711011,4.288309 3.402308,5.961235 -2.361913,2.020875 -6.098345,2.745578 -12.304987,3.533652 6.290752,0.799594 10.043312,1.532362 12.399464,3.615453 -0.654426,1.708642 -1.754726,3.648864 -3.303224,6.125992 -0.116365,0.186648 0.07951,0.423992 0.22698,0.274213 1.927544,-1.963267 3.446085,-3.371198 4.790641,-4.230702 1.62338,2.937988 2.20638,7.585769 2.84006,15.307494 0.6429,-7.825417 1.23165,-12.49509 2.90572,-15.426165 1.37453,0.813418 2.9334,2.183327 4.92431,4.109726 0.14978,0.145172 0.34103,-0.09909 0.22122,-0.282277 -1.57846,-2.39878 -2.71102,-4.28716 -3.40116,-5.960083 2.36076,-2.020877 6.09719,-2.745581 12.30383,-3.533651 -6.28959,-0.799595 -10.04331,-1.532362 -12.39946,-3.615453"
       id="path150" />
    <path
       style="fill:#5599ff;fill-opacity:1;fill-rule:nonzero;stroke:none;stroke-width:0.294951"
       d="m 56.228332,7.5925819 c 0.13941,-0.366386 0.37215,-0.780007 0.70396,-1.309999 0.0242,-0.04032 -0.0173,-0.09102 -0.0484,-0.05876 -0.41247,0.420538 -0.73738,0.717792 -1.02542,0.900984 -0.34564,-0.627922 -0.47008,-1.619927 -0.60488,-3.267502 -0.13711,1.669467 -0.26384,2.667232 -0.61985,3.294003 -0.29495,-0.173977 -0.62678,-0.463167 -1.05307,-0.876789 -0.0323,-0.03111 -0.0737,0.02189 -0.0472,0.05991 0.33758,0.515014 0.57722,0.917115 0.7247,1.275433 -0.50464,0.430906 -1.30308,0.585296 -2.62806,0.753508 1.34341,0.170521 2.14415,0.327213 2.64765,0.7719441 -0.13941,0.365232 -0.37215,0.778853 -0.70396,1.309995 -0.0242,0.03918 0.0173,0.09102 0.0484,0.05876 0.41362,-0.420534 0.73738,-0.717789 1.02542,-0.902133 0.34565,0.627924 0.47007,1.621077 0.60603,3.268655 0.13711,-1.67062 0.26269,-2.667232 0.61985,-3.294003 0.29381,0.173976 0.62678,0.463164 1.05307,0.875635 0.0311,0.03111 0.0726,-0.02074 0.0472,-0.05991 -0.33873,-0.513861 -0.57723,-0.917115 -0.7247,-1.274283 0.50465,-0.4309021 1.30193,-0.5864451 2.6269,-0.7546591 -1.3434,-0.170516 -2.14415,-0.32721 -2.64764,-0.770789"
       id="path152" />
  </g>
</svg>
