<?xml version="1.0" encoding="UTF-8" standalone="no"?>
<!-- Created with Vectornator (http://vectornator.io/) -->

<svg
   height="205"
   stroke-miterlimit="10"
   style="clip-rule:evenodd;fill-rule:nonzero;stroke-linecap:round;stroke-linejoin:round"
   version="1.1"
   viewBox="0 0 430 205"
   width="430"
   xml:space="preserve"
   id="svg36"
   sodipodi:docname="logo-akarui-plot.svg"
   inkscape:version="1.1.2 (0a00cf5339, 2022-02-04)"
   inkscape:export-filename="/home/phdp/Documents/akarui-logos/SVG/logo-akarui-graph.png"
   inkscape:export-xdpi="77.132446"
   inkscape:export-ydpi="77.132446"
   xmlns:inkscape="http://www.inkscape.org/namespaces/inkscape"
   xmlns:sodipodi="http://sodipodi.sourceforge.net/DTD/sodipodi-0.dtd"
   xmlns="http://www.w3.org/2000/svg"
   xmlns:svg="http://www.w3.org/2000/svg"
   xmlns:vectornator="http://vectornator.io"><sodipodi:namedview
   id="namedview38"
   pagecolor="#ffffff"
   bordercolor="#666666"
   borderopacity="1.0"
   inkscape:pageshadow="2"
   inkscape:pageopacity="0.0"
   inkscape:pagecheckerboard="0"
   showgrid="false"
   height="269px"
   inkscape:zoom="2.6132812"
   inkscape:cx="228.06577"
   inkscape:cy="134.88789"
   inkscape:window-width="1920"
   inkscape:window-height="1016"
   inkscape:window-x="0"
   inkscape:window-y="27"
   inkscape:window-maximized="1"
   inkscape:current-layer="Layer-1"
   width="511px" />
<defs
   id="defs5"><marker
   style="overflow:visible"
   id="Arrow1Mend"
   refX="0"
   refY="0"
   orient="auto"
   inkscape:stockid="Arrow1Mend"
   inkscape:isstock="true"><path
     transform="matrix(-0.4,0,0,-0.4,-4,0)"
     style="fill:context-stroke;fill-rule:evenodd;stroke:context-stroke;stroke-width:1pt"
     d="M 0,0 5,-5 -12.5,0 5,5 Z"
     id="path1620" /></marker><marker
   style="overflow:visible"
   id="Arrow1Send"
   refX="0"
   refY="0"
   orient="auto"
   inkscape:stockid="Arrow1Send"
   inkscape:isstock="true"><path
     transform="matrix(-0.2,0,0,-0.2,-1.2,0)"
     style="fill:context-stroke;fill-rule:evenodd;stroke:context-stroke;stroke-width:1pt"
     d="M 0,0 5,-5 -12.5,0 5,5 Z"
     id="path1626" /></marker><marker
   style="overflow:visible"
   id="Arrow1Lstart"
   refX="0"
   refY="0"
   orient="auto"
   inkscape:stockid="Arrow1Lstart"
   inkscape:isstock="true"><path
     transform="matrix(0.8,0,0,0.8,10,0)"
     style="fill:context-stroke;fill-rule:evenodd;stroke:context-stroke;stroke-width:1pt"
     d="M 0,0 5,-5 -12.5,0 5,5 Z"
     id="path1611" /></marker><marker
   style="overflow:visible"
   id="Arrow1Lend"
   refX="0"
   refY="0"
   orient="auto"
   inkscape:stockid="Arrow1Lend"
   inkscape:isstock="true"><path
     transform="matrix(-0.8,0,0,-0.8,-10,0)"
     style="fill:context-stroke;fill-rule:evenodd;stroke:context-stroke;stroke-width:1pt"
     d="M 0,0 5,-5 -12.5,0 5,5 Z"
     id="path1614" /></marker>
<clipPath
   id="TextBounds">
<rect
   height="145.65401"
   width="532"
   x="-5.00001"
   y="161.444"
   id="rect2" />
</clipPath>
<marker
   style="overflow:visible"
   id="Arrow1Mend-9"
   refX="0"
   refY="0"
   orient="auto"
   inkscape:stockid="Arrow1Mend"
   inkscape:isstock="true"><path
     transform="matrix(-0.4,0,0,-0.4,-4,0)"
     style="fill:context-stroke;fill-rule:evenodd;stroke:context-stroke;stroke-width:1pt"
     d="M 0,0 5,-5 -12.5,0 5,5 Z"
     id="path1620-1" /></marker><marker
   style="overflow:visible"
   id="Arrow1Mend-9-7"
   refX="0"
   refY="0"
   orient="auto"
   inkscape:stockid="Arrow1Mend"
   inkscape:isstock="true"><path
     transform="matrix(-0.4,0,0,-0.4,-4,0)"
     style="fill:context-stroke;fill-rule:evenodd;stroke:context-stroke;stroke-width:1pt"
     d="M 0,0 5,-5 -12.5,0 5,5 Z"
     id="path1620-1-0" /></marker><marker
   style="overflow:visible"
   id="Arrow1Mend-3"
   refX="0"
   refY="0"
   orient="auto"
   inkscape:stockid="Arrow1Mend"
   inkscape:isstock="true"><path
     transform="matrix(-0.4,0,0,-0.4,-4,0)"
     style="fill:context-stroke;fill-rule:evenodd;stroke:context-stroke;stroke-width:1pt"
     d="M 0,0 5,-5 -12.5,0 5,5 Z"
     id="path1620-6" /></marker><marker
   style="overflow:visible"
   id="Arrow1Mend-9-6"
   refX="0"
   refY="0"
   orient="auto"
   inkscape:stockid="Arrow1Mend"
   inkscape:isstock="true"><path
     transform="matrix(-0.4,0,0,-0.4,-4,0)"
     style="fill:context-stroke;fill-rule:evenodd;stroke:context-stroke;stroke-width:1pt"
     d="M 0,0 5,-5 -12.5,0 5,5 Z"
     id="path1620-1-2" /></marker><marker
   style="overflow:visible"
   id="Arrow1Mend-1"
   refX="0"
   refY="0"
   orient="auto"
   inkscape:stockid="Arrow1Mend"
   inkscape:isstock="true"><path
     transform="matrix(-0.4,0,0,-0.4,-4,0)"
     style="fill:context-stroke;fill-rule:evenodd;stroke:context-stroke;stroke-width:1pt"
     d="M 0,0 5,-5 -12.5,0 5,5 Z"
     id="path1620-8" /></marker></defs>
<g
   id="Layer-1"
   vectornator:layerName="Layer 1">
<path
   d="m 111.782,109.22 c 7.981,1.565 21.049,0.235 39.204,-3.991 0,-0.156 0.156,-0.235 0.469,-0.235 1.096,-1.095 1.409,-2.269 0.939,-3.521 -1.095,-1.5651 -3.678,-2.9736 -7.747,-4.2256 -2.817,-0.4696 -10.172,0.7042 -22.067,3.5216 -3.286,0.156 -6.573,0.626 -9.859,1.408 1.095,-3.9124 2.504,-15.8067 4.225,-35.6827 13.147,0 24.18,-1.4867 33.101,-4.4603 0.156,-0.1565 0.313,-0.2348 0.469,-0.2348 1.409,-1.0955 1.722,-2.2693 0.939,-3.5213 -1.095,-1.565 -3.756,-2.8953 -7.981,-3.9909 -2.348,-0.4695 -9.391,0.7043 -21.128,3.5214 -1.565,0.1565 -3.209,0.4695 -4.93,0.939 0.939,-21.754 1.643,-33.5701 2.113,-35.4481 0.156,0 10.094,-2.0346 29.813,-6.1037 3.287,-0.626 5.713,0 7.278,1.8781 2.034,1.878 2.973,6.2601 2.817,13.1463 1.878,53.6808 1.643,96.641 -0.704,128.881 -0.157,4.852 -1.018,8.373 -2.583,10.564 -0.939,1.095 -3.208,1.252 -6.808,0.469 l -14.085,-3.286 c -3.756,-1.096 -5.477,-0.783 -5.164,0.939 10.016,9.39 17.763,17.372 23.24,23.945 2.504,3.443 5.165,5.712 7.982,6.808 1.878,0.626 3.6,0 5.165,-1.878 7.668,-8.608 11.424,-18.233 11.268,-28.875 -1.878,-31.457 -2.895,-72.6961 -3.052,-123.7164 -0.156,-10.9553 1.096,-18.8587 3.756,-23.7103 2.348,-3.7561 2.348,-6.5732 0,-8.4512 -3.912,-3.7561 -9.39,-6.96446 -16.433,-9.62503 -3.443,-1.56504 -6.495,-1.72154 -9.155,-0.46951 -9.39,5.16463 -21.754,8.84244 -37.092,11.03354 -7.981,-3.9126 -13.224,-5.71241 -15.728,-5.3994 -3.4433,0.626 -3.8346,2.8171 -1.174,6.5732 3.756,6.2601 5.634,13.694 5.634,22.3018 0.939,11.4247 0.313,28.8749 -1.878,52.3505 -1.408,16.1198 -6.2601,33.6488 -14.5548,52.5848 -6.5731,15.964 -19.1717,32.006 -37.7956,48.125 -2.5041,2.035 -3.9909,3.678 -4.4604,4.93 -0.1565,1.096 0.7043,1.644 2.5823,1.644 2.8171,0 5.8689,-1.252 9.1555,-3.757 10.0162,-6.729 17.9979,-13.459 23.9451,-20.189 8.9207,-10.016 15.9634,-20.58 21.1279,-31.692 3.756,-9.546 6.808,-20.58 9.156,-33.1 z"
   fill="#3d85c6"
   fill-rule="evenodd"
   opacity="1"
   stroke="#000000"
   stroke-linecap="butt"
   stroke-linejoin="miter"
   stroke-width="0.1"
   id="path7" />


<path
   d="m 55.7815,21.0657 c -1.1738,0 -2.2886,0.286 -3.3841,0.8337 -6.5732,3.2866 -17.6999,6.5714 -33.3503,9.858 l -0.4659,-0.4659 c -4.3821,-3.2866 -7.9085,-4.3174 -10.56911,-3.0653 -1.09553,0.626 -1.15973,1.9625 -0.2207,3.9971 0.1565,1.4085 0.61525,2.8093 1.39777,4.2178 4.38214,7.5122 4.92954,29.0408 1.64294,64.5669 -3.75604,13.773 -2.81403,24.416 2.8201,31.928 l 0.4659,0.466 c 1.5651,2.035 3.2075,2.035 4.929,0 1.0955,-1.878 2.1905,-6.41 3.286,-13.61 0.939,0 2.0339,-0.088 3.286,-0.245 5.3211,-1.095 13.3802,-1.949 24.1789,-2.575 3.7561,4.852 6.9767,9.537 9.6373,14.076 1.0955,2.504 2.4963,3.688 4.2178,3.531 2.3476,-0.156 4.6261,-2.499 6.8172,-7.038 2.5041,-5.321 3.5103,-11.279 3.0408,-17.852 -1.0956,-14.7112 -1.9488,-35.6924 -2.5749,-62.924 -0.1565,-4.3821 0.9385,-8.0614 3.286,-11.035 1.0955,-1.5651 1.0955,-3.1187 0,-4.6838 -2.5041,-2.817 -7.4312,-5.8602 -14.7869,-9.1468 -1.252,-0.5477 -2.4801,-0.8337 -3.6538,-0.8337 z m -1.3978,12.0894 c 1.1738,-0.0391 1.9185,0.0496 2.2315,0.2453 3.4431,2.9735 4.4493,21.9819 3.0408,57.0388 0,10.3288 -0.7646,17.2048 -2.3296,20.6478 -1.0956,-1.096 -2.6738,-2.255 -4.7083,-3.507 -2.5041,-1.565 -6.1834,-1.654 -11.035,-0.245 -6.7297,1.565 -13.0576,2.99 -19.0048,4.242 0,-10.485 0.0642,-21.0647 0.2207,-31.7069 9.5467,-1.4086 17.7833,-2.8093 24.6694,-4.2179 3.4431,-0.626 4.538,-1.9625 3.286,-3.9971 -1.878,-2.3476 -4.857,-3.6841 -8.9261,-3.9971 -6.2602,-0.4695 -12.5239,1.1728 -18.7841,4.929 0.1565,-18.311 0.4624,-28.2296 0.9319,-29.7946 0.1565,-1.878 0.1565,-3.3675 0,-4.4631 2.3475,-0.1565 5.0849,-0.7039 8.2149,-1.6429 11.2683,-2.2302 18.6714,-3.4139 22.1927,-3.5313 z"
   fill="#3d85c6"
   fill-rule="evenodd"
   opacity="1"
   stroke="#000000"
   stroke-linecap="butt"
   stroke-linejoin="miter"
   stroke-width="0.1"
   id="path13" />

<path
   style="fill:none;stroke:#000000;stroke-width:3;stroke-linecap:butt;stroke-linejoin:miter;stroke-miterlimit:10;stroke-dasharray:none;stroke-opacity:1"
   d="M 220,15 V 170 H 420"
   id="path1261"
   sodipodi:nodetypes="ccc" /><path
   style="fill:none;stroke:#000000;stroke-width:4.961;stroke-linecap:butt;stroke-linejoin:miter;stroke-miterlimit:10;stroke-dasharray:none;stroke-opacity:1"
   d="m 220.45394,68.734085 c 82.82918,48.918575 58.72094,127.523215 102.14336,49.382405 43.42243,-78.140826 28.61005,-129.133675 60.34358,-76.372301 31.73351,52.761374 33.00048,61.939871 33.00048,61.939871"
   id="path2193" /></g>
</svg>
