<?xml version="1.0" encoding="UTF-8" standalone="no"?>
<!DOCTYPE svg PUBLIC "-//W3C//DTD SVG 1.1//EN" "http://www.w3.org/Graphics/SVG/1.1/DTD/svg11.dtd">

<!-- Created with Vectornator (http://vectornator.io/) -->
<svg height="100%" stroke-miterlimit="10" style="fill-rule:nonzero;clip-rule:evenodd;stroke-linecap:round;stroke-linejoin:round;" version="1.1" viewBox="0 0 512 512" width="100%" xml:space="preserve" xmlns="http://www.w3.org/2000/svg" xmlns:vectornator="http://vectornator.io" xmlns:xlink="http://www.w3.org/1999/xlink">
<metadata>
<vectornator:setting key="IsTimeLapseWatermarkDisabled" value="false"/>
<vectornator:setting key="UndoHistoryDisabled" value="true"/>
<vectornator:setting key="VNDimensionsVisible" value="true"/>
<vectornator:setting key="VNSnapToGuides" value="true"/>
<vectornator:setting key="WDCMYKEnabledKey" value="false"/>
<vectornator:setting key="WDDisplayWhiteBackground" value="false"/>
<vectornator:setting key="WDDynamicGuides" value="false"/>
<vectornator:setting key="WDGuidesVisible" value="true"/>
<vectornator:setting key="WDIsolateActiveLayer" value="false"/>
<vectornator:setting key="WDOutlineMode" value="false"/>
<vectornator:setting key="WDRulersVisible" value="true"/>
<vectornator:setting key="WDSnapToEdges" value="false"/>
<vectornator:setting key="WDSnapToGrid" value="false"/>
<vectornator:setting key="WDSnapToPoints" value="false"/>
<vectornator:setting key="WDUnits" value="Pixels"/>
</metadata>
<defs>
<clipPath id="TextBounds">
<rect height="145.654" width="510.194" x="-1.86914" y="246.856"/>
</clipPath>
</defs>
<g id="Layer-1" vectornator:layerName="Layer 1">
<path d="M110.933 194.632C118.914 196.197 131.983 194.867 150.137 190.641C150.137 190.485 150.293 190.407 150.606 190.407C151.702 189.311 152.015 188.137 151.545 186.885C150.45 185.32 147.868 183.912 143.799 182.66C140.981 182.19 133.626 183.364 121.732 186.181C118.445 186.338 115.158 186.807 111.872 187.59C112.967 183.677 114.376 171.783 116.097 151.907C129.244 151.907 140.277 150.42 149.198 147.446C149.354 147.29 149.511 147.212 149.667 147.212C151.076 146.116 151.389 144.942 150.606 143.69C149.511 142.125 146.85 140.795 142.625 139.699C140.277 139.23 133.235 140.404 121.497 143.221C119.932 143.377 118.288 143.69 116.567 144.16C117.506 122.406 118.21 110.59 118.68 108.712C118.836 108.712 128.774 106.677 148.494 102.608C151.78 101.982 154.206 102.608 155.771 104.486C157.806 106.364 158.745 110.746 158.588 117.632C160.466 171.313 160.231 214.273 157.884 246.513C157.727 251.365 156.867 254.886 155.302 257.077C154.363 258.173 152.093 258.329 148.494 257.547L134.408 254.26C130.652 253.165 128.931 253.478 129.244 255.199C139.26 264.589 147.007 272.571 152.485 279.144C154.989 282.587 157.649 284.857 160.466 285.952C162.344 286.578 164.066 285.952 165.631 284.074C173.3 275.466 177.056 265.841 176.899 255.199C175.021 223.742 174.004 182.503 173.847 131.483C173.691 120.528 174.943 112.624 177.603 107.773C179.951 104.016 179.951 101.199 177.603 99.3214C173.691 95.5653 168.213 92.357 161.17 89.6964C157.727 88.1314 154.676 87.9749 152.015 89.2269C142.625 94.3915 130.261 98.0694 114.924 100.26C106.942 96.3478 101.699 94.548 99.195 94.861C95.7519 95.487 95.3606 97.6781 98.0212 101.434C101.777 107.694 103.655 115.128 103.655 123.736C104.594 135.161 103.968 152.611 101.777 176.087C100.369 192.206 95.5171 209.735 87.2224 228.672C80.6493 244.635 68.0507 260.677 49.4267 276.797C46.9227 278.831 45.4359 280.475 44.9664 281.727C44.8099 282.822 45.6706 283.37 47.5487 283.37C50.3658 283.37 53.4176 282.118 56.7042 279.614C66.7204 272.884 74.7021 266.154 80.6493 259.425C89.57 249.409 96.6126 238.845 101.777 227.733C105.533 218.186 108.585 207.153 110.933 194.632Z" fill="#3d85c6" fill-rule="evenodd" opacity="1" stroke="#000000" stroke-linecap="butt" stroke-linejoin="miter" stroke-width="0.1"/>
<path d="M264.738 222.65C258.617 222.53 253.216 224.21 248.535 227.691C244.455 230.931 242.414 235.252 242.414 240.653C242.414 246.894 245.115 251.935 250.516 255.776C256.037 259.856 263.058 261.897 271.579 261.897C282.861 261.897 292.463 259.916 300.384 255.956C309.146 251.515 315.207 245.934 318.567 239.213C322.168 232.972 323.968 226.011 323.968 218.329C323.968 208.248 321.628 200.086 316.947 193.845C310.706 184.724 301.284 180.163 288.682 180.163C280.401 180.163 267.739 184.424 250.696 192.945C260.177 181.783 269.119 172.302 277.52 164.5C290.122 152.978 298.524 146.437 302.725 144.877C306.805 143.437 309.086 142.057 309.566 140.736C310.046 139.296 309.626 137.676 308.306 135.875C307.105 133.955 304.345 131.435 300.024 128.314C297.144 126.394 294.083 126.514 290.843 128.674C274.88 135.635 261.198 139.236 249.796 139.476C245.715 138.756 241.814 136.116 238.094 131.555L235.033 133.895C238.034 141.216 241.094 146.497 244.215 149.738C246.135 151.658 247.935 152.618 249.616 152.618C251.536 152.618 252.916 152.078 253.756 150.998C255.557 146.917 267.199 142.957 288.682 139.116C267.679 159.399 245.835 182.863 223.151 209.508C221.711 210.948 220.991 213.348 220.991 216.709C220.991 219.71 221.531 222.05 222.611 223.73C223.691 225.29 225.552 224.69 228.192 221.93C250.996 198.886 271.159 187.424 288.682 187.544C296.364 187.424 302.905 190.905 308.306 197.986C311.546 203.027 313.166 209.808 313.166 218.329C313.166 224.45 311.426 230.511 307.945 236.512C304.345 241.673 299.544 245.814 293.543 248.934C293.183 243.534 291.623 238.733 288.862 234.532C283.701 226.491 275.66 222.53 264.738 222.65ZM277.87 257.747C271.029 257.747 265.808 256.487 262.207 253.966C258.847 251.446 257.166 248.445 257.166 244.965C257.166 241.364 258.426 238.604 260.947 236.683C263.107 235.123 266.468 234.343 271.029 234.343C275.829 234.223 280.33 236.683 284.531 241.724C287.771 245.685 289.212 250.726 288.852 256.847C285.491 257.327 281.83 257.627 277.87 257.747Z" fill="#000000" fill-rule="evenodd" opacity="1" stroke="#000000" stroke-linecap="butt" stroke-linejoin="miter" stroke-width="4"/>
<path d="M387.398 215.444C381.517 191.68 382.897 171.037 391.538 153.514C392.258 148.113 389.018 143.252 381.817 138.932C377.736 136.411 373.175 134.251 368.134 132.45L366.154 135.871C371.675 140.312 375.696 144.092 378.216 147.213C379.776 149.493 380.136 152.374 379.296 155.854C374.976 168.817 373.535 183.279 374.976 199.242C375.696 217.365 380.616 231.707 389.738 242.269C392.378 245.269 395.079 246.89 397.839 247.13C399.4 247.13 401.08 245.929 402.88 243.529C404.32 241.369 404.14 239.628 402.34 238.308C400.9 237.228 400.18 234.768 400.18 230.927C400.3 227.326 401.98 222.706 405.221 217.065L414.582 198.522L411.522 196.541L395.859 217.065C394.299 218.625 392.739 219.465 391.178 219.585C389.018 219.585 387.758 218.205 387.398 215.444ZM455.989 141.452L454.549 145.593C474.832 157.835 486.234 174.037 488.755 194.201C489.115 197.441 488.515 199.902 486.954 201.582C485.394 203.142 482.274 204.042 477.593 204.282L456.709 204.282L456.709 208.063L477.593 210.584C482.994 211.064 486.894 213.044 489.295 216.525C491.215 219.885 493.255 221.625 495.416 221.745C497.696 221.745 499.436 220.005 500.637 216.525C504.597 197.681 499.616 179.798 485.694 162.876C478.013 153.394 468.111 146.253 455.989 141.452Z" fill="#000000" fill-rule="evenodd" opacity="1" stroke="#000000" stroke-linecap="butt" stroke-linejoin="miter" stroke-width="4"/>
<path d="M54.9326 106.478C53.7589 106.478 52.6441 106.764 51.5486 107.312C44.9754 110.598 33.8487 113.883 18.1983 117.17L17.7324 116.704C13.3503 113.417 9.82383 112.386 7.16327 113.638C6.06774 114.265 6.00354 115.601 6.94257 117.636C7.09907 119.044 7.55782 120.445 8.34034 121.853C12.7224 129.366 13.2699 150.894 9.98333 186.421C6.22723 200.193 7.16925 210.836 12.8034 218.349L13.2693 218.815C14.8343 220.849 16.4767 220.849 18.1983 218.815C19.2938 216.936 20.3887 212.404 21.4843 205.205C22.4233 205.205 23.5182 205.116 24.7703 204.959C30.0914 203.864 38.1504 203.011 48.9492 202.385C52.7053 207.236 55.9259 211.922 58.5865 216.46C59.682 218.964 61.0827 220.148 62.8043 219.992C65.1518 219.835 67.4304 217.492 69.6215 212.954C72.1255 207.633 73.1317 201.675 72.6622 195.101C71.5667 180.39 70.7134 159.409 70.0874 132.177C69.9309 127.795 71.0258 124.116 73.3734 121.142C74.4689 119.577 74.4689 118.024 73.3734 116.459C70.8693 113.641 65.9421 110.598 58.5865 107.312C57.3344 106.764 56.1064 106.478 54.9326 106.478ZM53.5349 118.567C54.7087 118.528 55.4534 118.617 55.7664 118.813C59.2095 121.786 60.2157 140.795 58.8072 175.851C58.8072 186.181 58.0426 193.056 56.4775 196.499C55.382 195.404 53.8038 194.245 51.7693 192.993C49.2652 191.428 45.5859 191.339 40.7343 192.747C34.0046 194.312 27.6766 195.738 21.7295 196.99C21.7295 186.504 21.7937 175.925 21.9502 165.282C31.4969 163.874 39.7334 162.473 46.6196 161.065C50.0627 160.439 51.1576 159.102 49.9056 157.067C48.0275 154.72 45.0486 153.383 40.9795 153.07C34.7193 152.601 28.4556 154.243 22.1954 157.999C22.3519 139.688 22.6577 129.77 23.1273 128.205C23.2838 126.327 23.2838 124.837 23.1273 123.742C25.4748 123.585 28.2121 123.038 31.3422 122.099C42.6105 119.869 50.0135 118.685 53.5349 118.567Z" fill="#3d85c6" fill-rule="evenodd" opacity="1" stroke="#000000" stroke-linecap="butt" stroke-linejoin="miter" stroke-width="0.1"/>
<g fill="#000000" opacity="1" stroke="#000000" stroke-linecap="butt" stroke-linejoin="miter" stroke-width="1">
<path clip-path="url(#TextBounds)" d="M47.4781 352.156C50.1781 352.156 51.8022 351.656 54.5781 351.656C58.444 351.656 60.4781 352.156 64.4781 352.156C65.3781 352.156 65.3781 349.956 64.4781 349.756C63.1781 349.456 61.3781 348.456 60.2781 346.756C59.8781 346.056 59.9288 344.719 60.1781 343.456C60.5246 341.7 60.5781 342.256 61.7781 339.156C62.1781 338.256 62.3163 337.956 62.9781 337.956L77.1781 337.956C78.5781 337.956 78.8781 338.056 79.0781 338.656C80.0781 341.356 79.9781 340.456 80.4781 342.956C80.7781 344.256 81.1194 345.694 80.2781 347.056C79.2891 348.657 77.8781 349.456 76.2781 349.756C75.6781 349.856 75.2413 352.156 76.1781 352.156C79.4781 352.156 82.5175 351.656 86.5781 351.656C90.3781 351.656 92.429 352.156 96.1781 352.156C97.3781 352.156 96.8781 349.956 96.1781 349.756C94.4781 349.356 92.8781 348.156 91.6781 346.856C89.8781 344.956 88.9781 343.456 88.1781 341.156C83.4781 328.656 80.4781 319.556 75.6781 306.456C75.4781 305.856 75.3781 305.556 74.9781 305.556C74.6781 305.556 74.3781 306.056 73.5781 306.956C72.9781 307.656 69.9781 309.856 69.0781 310.056C68.9781 310.156 68.8341 312.019 68.5781 313.256C68.3653 314.284 68.0781 315.256 67.8781 315.856C63.0781 327.556 61.1579 332.365 56.2781 342.656C55.4058 344.495 54.7626 345.578 53.1781 346.856C51.237 348.422 49.5781 349.056 47.4781 349.756C46.8781 349.956 46.6781 352.156 47.4781 352.156ZM70.7781 318.156C71.3781 316.656 71.3781 316.656 71.9781 318.156C73.0781 321.256 76.7781 331.556 77.4781 334.256C77.7781 335.256 77.6781 335.256 76.6781 335.256L64.9781 335.256C63.7781 335.256 63.2781 335.156 63.6781 334.256C65.8781 329.456 69.0781 322.356 70.7781 318.156Z" fill-rule="evenodd"/>
<path clip-path="url(#TextBounds)" d="M140.978 345.256C134.478 337.856 131.778 334.056 125.078 326.456C124.678 325.956 124.452 325.612 124.778 325.256C129.248 320.373 132.178 317.656 136.978 313.456C140.078 310.656 141.478 309.856 145.778 309.356C146.178 309.256 146.478 306.456 145.778 306.456C141.978 306.856 138.078 307.056 136.978 307.056C134.478 307.056 132.578 307.156 129.478 306.856C128.678 306.856 128.478 309.856 129.278 310.056C131.578 310.556 132.578 312.356 131.578 313.456C131.578 313.456 121.278 324.056 118.378 326.656C117.878 327.156 117.378 327.356 116.878 327.356C116.578 327.356 116.578 326.856 116.578 326.556C116.578 322.256 116.678 319.856 116.878 314.356C116.927 313 117.278 311.656 117.978 311.056C119.378 309.856 120.178 309.556 121.878 309.356C122.578 309.256 122.678 306.856 121.878 306.856C118.078 306.856 116.634 307.156 113.278 307.156C109.454 307.156 107.478 306.856 103.478 306.856C102.878 306.856 102.878 309.156 103.478 309.356C105.178 309.756 106.211 310.435 107.578 311.656C108.477 312.458 109.078 313.156 109.078 314.356L109.078 343.556C109.078 345.056 108.916 346.101 107.878 347.156C106.324 348.735 104.778 349.356 102.878 349.856C101.678 350.056 102.078 352.256 102.878 352.256C106.378 352.256 109.219 351.856 113.278 351.856C116.636 351.856 118.178 352.256 121.878 352.256C122.978 352.256 122.978 350.056 121.878 349.856C119.878 349.356 119.078 348.756 117.778 347.456C117.278 346.956 116.934 345.116 116.878 343.556C116.678 337.956 116.578 335.256 116.578 330.856C116.578 330.356 116.478 329.356 116.878 329.356C117.178 329.356 117.879 329.997 118.378 330.556C123.737 336.558 128.278 342.256 131.878 346.156C132.878 347.156 132.978 347.556 132.978 348.256C132.978 349.156 130.578 349.356 128.878 349.856C128.278 349.956 128.278 352.256 129.078 352.256C130.578 352.256 136.579 351.856 141.378 351.856C144.678 351.856 147.178 352.556 149.178 352.556C150.178 352.556 149.778 350.256 149.178 350.056C145.278 348.956 143.878 348.556 140.978 345.256Z" fill-rule="evenodd"/>
<path clip-path="url(#TextBounds)" d="M155.378 352.156C158.078 352.156 159.702 351.656 162.478 351.656C166.344 351.656 168.378 352.156 172.378 352.156C173.278 352.156 173.278 349.956 172.378 349.756C171.078 349.456 169.278 348.456 168.178 346.756C167.778 346.056 167.829 344.719 168.078 343.456C168.425 341.7 168.478 342.256 169.678 339.156C170.078 338.256 170.216 337.956 170.878 337.956L185.078 337.956C186.478 337.956 186.778 338.056 186.978 338.656C187.978 341.356 187.878 340.456 188.378 342.956C188.678 344.256 189.019 345.694 188.178 347.056C187.189 348.657 185.778 349.456 184.178 349.756C183.578 349.856 183.141 352.156 184.078 352.156C187.378 352.156 190.418 351.656 194.478 351.656C198.278 351.656 200.329 352.156 204.078 352.156C205.278 352.156 204.778 349.956 204.078 349.756C202.378 349.356 200.778 348.156 199.578 346.856C197.778 344.956 196.878 343.456 196.078 341.156C191.378 328.656 188.378 319.556 183.578 306.456C183.378 305.856 183.278 305.556 182.878 305.556C182.578 305.556 182.278 306.056 181.478 306.956C180.878 307.656 177.878 309.856 176.978 310.056C176.878 310.156 176.734 312.019 176.478 313.256C176.265 314.284 175.978 315.256 175.778 315.856C170.978 327.556 169.058 332.365 164.178 342.656C163.306 344.495 162.663 345.578 161.078 346.856C159.137 348.422 157.478 349.056 155.378 349.756C154.778 349.956 154.578 352.156 155.378 352.156ZM178.678 318.156C179.278 316.656 179.278 316.656 179.878 318.156C180.978 321.256 184.678 331.556 185.378 334.256C185.678 335.256 185.578 335.256 184.578 335.256L172.878 335.256C171.678 335.256 171.178 335.156 171.578 334.256C173.778 329.456 176.978 322.356 178.678 318.156Z" fill-rule="evenodd"/>
<path clip-path="url(#TextBounds)" d="M222.878 332.956C222.878 332.056 223.178 331.456 223.878 331.556C225.178 331.656 227.385 332.071 229.378 333.056C230.789 333.753 231.578 334.556 232.378 335.756C237.078 343.456 237.878 345.356 241.178 349.456C243.678 352.456 248.278 353.256 252.278 353.256C253.978 353.256 256.278 352.356 257.178 351.756C257.778 351.356 258.078 349.756 257.378 349.756C254.078 349.656 252.678 350.556 249.878 347.756C243.578 341.656 241.778 336.756 237.478 330.256C237.178 329.856 237.178 329.756 237.478 329.656C238.378 329.256 240.078 328.156 241.478 326.756C242.578 325.756 244.978 321.456 244.978 318.356C244.978 310.856 237.678 306.556 227.578 306.556C223.578 306.556 221.778 307.156 219.178 307.156C215.627 307.156 212.978 306.856 210.078 306.856C209.102 306.856 209.578 309.156 210.178 309.356C212.878 310.056 213.078 310.156 214.478 311.656C215.178 312.456 215.378 314.756 215.378 316.656L215.378 343.356C215.378 345.056 214.646 346.208 213.378 347.456C211.974 348.839 210.878 349.256 208.878 349.756C208.278 349.956 208.278 352.256 208.878 352.256C210.778 352.256 215.704 351.656 220.078 351.656C223.829 351.656 228.278 352.256 229.678 352.256C230.378 352.256 230.278 349.556 229.678 349.356C225.278 348.256 223.278 346.556 223.178 343.756C223.078 340.056 222.978 336.956 222.878 332.956ZM222.878 326.056C222.778 320.556 222.978 318.256 223.178 313.256C223.278 311.156 223.778 309.456 227.578 309.456C235.378 309.456 236.578 314.556 236.578 318.456C236.578 322.556 235.778 325.156 233.478 326.556C231.678 327.756 230.278 328.556 226.178 328.556C224.078 328.556 222.978 328.756 222.878 326.056Z" fill-rule="evenodd"/>
<path clip-path="url(#TextBounds)" d="M261.878 331.456C261.878 343.342 269.378 353.156 283.278 353.156C297.778 353.156 301.378 341.57 301.378 330.156C301.378 323.956 301.878 316.556 302.078 314.356C302.278 310.656 304.821 309.467 307.878 308.856C308.378 308.756 308.736 306.656 307.878 306.656C304.678 306.656 302.878 306.756 299.778 306.756L292.578 306.756C291.563 306.756 291.578 309.056 292.478 309.356C295.778 310.156 297.078 310.756 296.978 316.856L296.978 332.556C296.978 344.856 292.978 349.656 284.578 349.656C275.378 349.656 269.378 342.048 269.378 333.356C269.378 329.856 269.178 321.356 269.378 315.356C269.478 311.456 270.478 309.656 273.378 309.256C274.178 309.056 274.178 306.856 273.378 306.856C269.478 306.856 269.17 307.056 266.478 307.056C263.084 307.056 260.978 306.856 257.778 306.856C256.8 306.856 257.178 309.156 257.978 309.356C260.278 310.056 261.878 310.356 261.878 314.656L261.878 331.456Z" fill-rule="evenodd"/>
<path clip-path="url(#TextBounds)" d="M330.478 314.156C330.478 312.956 331.078 312.056 331.878 311.456C333.278 310.156 334.778 309.656 336.478 308.956C337.178 308.656 337.378 306.656 336.478 306.656C332.378 306.656 330.684 306.856 326.978 306.856C323.077 306.856 321.278 306.656 316.978 306.656C316.378 306.656 316.278 308.656 316.978 308.956C318.678 309.656 319.901 310.076 321.378 311.356C322.329 312.18 322.978 312.856 322.978 314.156L322.978 343.656C322.978 345.156 322.809 346.326 321.678 347.356C319.974 348.907 318.378 349.356 316.278 349.756C315.078 350.056 315.478 352.156 316.278 352.156C320.078 352.156 322.801 351.656 326.978 351.656C330.961 351.656 333.178 352.156 337.178 352.156C338.378 352.156 338.378 350.056 337.178 349.756C335.078 349.356 333.556 348.883 331.878 347.356C330.737 346.317 330.478 345.156 330.478 343.656L330.478 314.156Z" fill-rule="evenodd"/>
<path clip-path="url(#TextBounds)" d="M353.678 342.256C350.645 342.256 348.178 344.722 348.178 347.756C348.178 350.789 350.645 353.256 353.678 353.256C356.712 353.256 359.178 350.789 359.178 347.756C359.178 344.722 356.712 342.256 353.678 342.256Z" fill-rule="evenodd"/>
<path clip-path="url(#TextBounds)" d="M368.878 352.156C371.578 352.156 373.202 351.656 375.978 351.656C379.844 351.656 381.878 352.156 385.878 352.156C386.778 352.156 386.778 349.956 385.878 349.756C384.578 349.456 382.778 348.456 381.678 346.756C381.278 346.056 381.329 344.719 381.578 343.456C381.925 341.7 381.978 342.256 383.178 339.156C383.578 338.256 383.716 337.956 384.378 337.956L398.578 337.956C399.978 337.956 400.278 338.056 400.478 338.656C401.478 341.356 401.378 340.456 401.878 342.956C402.178 344.256 402.519 345.694 401.678 347.056C400.689 348.657 399.278 349.456 397.678 349.756C397.078 349.856 396.641 352.156 397.578 352.156C400.878 352.156 403.918 351.656 407.978 351.656C411.778 351.656 413.829 352.156 417.578 352.156C418.778 352.156 418.278 349.956 417.578 349.756C415.878 349.356 414.278 348.156 413.078 346.856C411.278 344.956 410.378 343.456 409.578 341.156C404.878 328.656 401.878 319.556 397.078 306.456C396.878 305.856 396.778 305.556 396.378 305.556C396.078 305.556 395.778 306.056 394.978 306.956C394.378 307.656 391.378 309.856 390.478 310.056C390.378 310.156 390.234 312.019 389.978 313.256C389.765 314.284 389.478 315.256 389.278 315.856C384.478 327.556 382.558 332.365 377.678 342.656C376.806 344.495 376.163 345.578 374.578 346.856C372.637 348.422 370.978 349.056 368.878 349.756C368.278 349.956 368.078 352.156 368.878 352.156ZM392.178 318.156C392.778 316.656 392.778 316.656 393.378 318.156C394.478 321.256 398.178 331.556 398.878 334.256C399.178 335.256 399.078 335.256 398.078 335.256L386.378 335.256C385.178 335.256 384.678 335.156 385.078 334.256C387.278 329.456 390.478 322.356 392.178 318.156Z" fill-rule="evenodd"/>
<path clip-path="url(#TextBounds)" d="M440.978 314.156C440.978 312.956 441.578 312.056 442.378 311.456C443.778 310.156 445.278 309.656 446.978 308.956C447.678 308.656 447.878 306.656 446.978 306.656C442.878 306.656 441.184 306.856 437.478 306.856C433.577 306.856 431.778 306.656 427.478 306.656C426.878 306.656 426.778 308.656 427.478 308.956C429.178 309.656 430.401 310.076 431.878 311.356C432.829 312.18 433.478 312.856 433.478 314.156L433.478 343.656C433.478 345.156 433.309 346.326 432.178 347.356C430.474 348.907 428.878 349.356 426.778 349.756C425.578 350.056 425.978 352.156 426.778 352.156C430.578 352.156 433.301 351.656 437.478 351.656C441.461 351.656 443.678 352.156 447.678 352.156C448.878 352.156 448.878 350.056 447.678 349.756C445.578 349.356 444.056 348.883 442.378 347.356C441.237 346.317 440.978 345.156 440.978 343.656L440.978 314.156Z" fill-rule="evenodd"/>
</g>
</g>
</svg>
