<?xml version="1.0" encoding="UTF-8" standalone="no"?>
<!DOCTYPE svg PUBLIC "-//W3C//DTD SVG 1.1//EN" "http://www.w3.org/Graphics/SVG/1.1/DTD/svg11.dtd">

<!-- Created with Vectornator (http://vectornator.io/) -->
<svg height="100%" stroke-miterlimit="10" style="fill-rule:nonzero;clip-rule:evenodd;stroke-linecap:round;stroke-linejoin:round;" version="1.1" viewBox="0 0 512 512" width="100%" xml:space="preserve" xmlns="http://www.w3.org/2000/svg" xmlns:vectornator="http://vectornator.io" xmlns:xlink="http://www.w3.org/1999/xlink">
<metadata>
<vectornator:setting key="IsTimeLapseWatermarkDisabled" value="false"/>
<vectornator:setting key="UndoHistoryDisabled" value="true"/>
<vectornator:setting key="VNDimensionsVisible" value="true"/>
<vectornator:setting key="VNSnapToGuides" value="true"/>
<vectornator:setting key="WDCMYKEnabledKey" value="false"/>
<vectornator:setting key="WDDisplayWhiteBackground" value="false"/>
<vectornator:setting key="WDDynamicGuides" value="false"/>
<vectornator:setting key="WDGuidesVisible" value="true"/>
<vectornator:setting key="WDIsolateActiveLayer" value="false"/>
<vectornator:setting key="WDOutlineMode" value="false"/>
<vectornator:setting key="WDRulersVisible" value="true"/>
<vectornator:setting key="WDSnapToEdges" value="false"/>
<vectornator:setting key="WDSnapToGrid" value="false"/>
<vectornator:setting key="WDSnapToPoints" value="false"/>
<vectornator:setting key="WDUnits" value="Pixels"/>
</metadata>
<defs/>
<g id="Layer-1" vectornator:layerName="Layer 1">
<path d="M487.262 251.185C488.314 252.516 488.968 254.21 489.055 256.04C488.837 260.596 485.11 264.193 480.783 264.116C480.718 264.116 480.658 264.133 480.598 264.127C473.596 263.892 467.095 266.449 462.295 270.365C459.865 272.328 457.99 274.665 456.454 277.253C454.743 279.825 453.577 282.664 453.103 285.754C452.394 289.95 453.299 294.239 454.961 298.308C459.685 295.371 465.068 293.355 471.128 293.087C470.359 291.623 470.027 290.003 470.283 288.319C470.931 284.081 475.035 281.035 479.465 281.508C479.481 281.508 479.497 281.508 479.508 281.508C486.461 282.3 493.256 280.11 497.969 275.471C502.813 270.872 506.034 263.861 506.382 256.04C506.143 250.7 504.584 245.594 501.865 241.297C498.149 246.26 493.12 249.719 487.262 251.185" fill="#3d85c6" fill-rule="evenodd" opacity="1" stroke="none"/>
<path d="M483.938 216.798C485.11 217.968 485.932 219.565 486.205 221.38C486.902 225.935 483.873 230.077 479.465 230.573C472.533 231.374 466.692 234.828 462.186 239.438C457.8 244.07 455.228 249.802 455.587 256.04C455.342 260.306 456.437 264.393 458.786 268.192C462.938 264.567 468.321 261.79 474.272 260.627C473.356 259.289 472.866 257.741 472.953 256.04C472.73 251.752 476.146 248.139 480.598 247.954C480.658 247.948 480.718 247.933 480.783 247.927C487.687 247.644 493.817 244.51 498.111 239.242C500.241 236.599 502.04 233.421 502.993 229.941C504.274 225.282 503.843 220.12 502.655 215.533C502.307 214.188 501.876 212.857 501.348 211.566C500.824 210.301 500.209 209.071 499.489 207.904C499.288 207.583 497.125 204.891 497.174 204.803C494.329 210.241 489.507 214.482 483.938 216.798" fill="#231f20" fill-rule="evenodd" opacity="1" stroke="none"/>
<path d="M475.645 183.265C477.018 184.234 478.228 185.634 478.74 187.395C479.884 191.809 477.405 196.332 473.247 197.534C473.182 197.556 473.127 197.59 473.062 197.605C466.3 199.442 460.851 203.786 457.429 208.928C454.252 214.052 452.198 220.159 453.103 226.327C453.62 230.556 455.963 234.36 458.497 237.797C462.404 233.574 466.747 230.099 472.512 228.066C471.34 226.889 470.539 225.446 470.283 223.762C469.635 219.516 472.648 215.408 477.023 214.562C477.051 214.558 477.072 214.548 477.1 214.541C483.845 213.277 489.948 209.152 493.043 203.35C496.307 197.534 497.293 189.878 495.299 182.288C493.599 177.216 490.515 172.819 486.668 169.5C484.592 175.347 480.81 180.136 475.645 183.265" fill="#3d85c6" fill-rule="evenodd" opacity="1" stroke="none"/>
<path d="M462.289 151.389C463.755 152.162 465.008 153.443 465.804 155.092C467.804 159.251 466.131 164.1 462.066 165.888C455.642 168.721 451.163 173.723 448.215 179.455C446.754 182.299 445.839 185.493 445.61 188.676C445.354 192.239 445.921 195.225 447.12 198.537C447.768 200.315 448.514 201.998 449.577 203.573C449.86 203.993 453.353 207.996 453.429 207.883C456.317 203.218 460.638 198.984 465.973 196.123C464.703 195.117 463.772 193.786 463.352 192.135C461.984 188.076 464.098 183.64 468.321 182.141C468.371 182.126 468.414 182.092 468.469 182.071C474.996 179.766 479.933 174.956 482.472 168.645C483.709 165.49 484.532 161.899 484.341 158.313C484.074 154.767 483.11 151.093 481.41 147.568C478.98 142.794 475.895 138.584 471.302 136.044C470.381 141.989 466.883 147.547 462.289 151.389" fill="#231f20" fill-rule="evenodd" opacity="1" stroke="none"/>
<path d="M448.569 124.878L448.569 124.878C451.13 128.661 449.942 133.841 446.329 136.185C446.291 136.213 446.259 136.251 446.215 136.278C440.297 140.033 436.369 145.808 434.598 151.749C433.682 154.746 433.459 157.725 433.617 160.744C433.661 163.823 434.298 166.825 435.655 169.636C437.404 173.517 440.69 176.49 444.204 178.987C446.613 173.838 449.8 169.196 454.694 165.55C453.228 164.77 452.04 163.626 451.299 162.088C449.435 158.225 451.108 153.405 455.037 151.295C455.048 151.289 455.059 151.278 455.075 151.274C461.249 148.015 465.651 142.375 466.943 135.874C468.321 129.369 467.166 121.658 462.878 115.109C459.69 110.805 455.549 107.448 450.907 105.409C450.612 111.626 448.395 117.337 444.379 121.86C445.986 122.373 447.474 123.414 448.569 124.878" fill="#3d85c6" fill-rule="evenodd" opacity="1" stroke="none"/>
<path d="M426.713 97.8187C429.803 101.214 429.612 106.335 426.326 109.212C426.305 109.234 426.288 109.261 426.261 109.289C420.888 113.942 418.202 119.946 417.134 126.251C416.099 132.573 417.167 138.784 420.932 143.76C423.302 147.296 426.37 150.145 430.478 151.927C431.873 146.598 434.767 141.264 439.022 136.949C437.48 136.387 436.336 135.297 435.274 133.963C432.696 130.529 433.503 125.604 437.072 122.933C437.126 122.895 437.164 122.841 437.219 122.797C442.755 118.667 446.062 112.614 446.656 105.824C447.479 98.8316 444.64 91.863 439.415 86.0266C435.829 82.051 431.448 79.1456 426.315 78.0618C427.155 84.0388 425.689 90.1242 422.305 95.2751C423.918 95.5966 425.482 96.463 426.713 97.8187" fill="#231f20" fill-rule="evenodd" opacity="1" stroke="none"/>
<path d="M402.493 85.5585C397.937 90.8881 395.85 97.5844 395.872 103.823C395.889 106.946 396.45 109.964 397.578 112.716C398.711 115.464 400.035 118.318 402.182 120.589C405.037 123.757 408.792 125.866 413.173 126.971C413.663 121.577 415.597 115.985 419.139 111.115C417.521 110.788 416.061 110.03 414.911 108.772C412.034 105.594 412.235 100.479 415.358 97.3119C415.363 97.3081 415.363 97.3081 415.369 97.3016C420.365 92.3375 422.659 85.9013 422.114 79.1669C421.842 75.8098 420.867 72.4042 419.215 69.1735C417.548 65.9592 415.325 62.7944 412.11 60.5489C407.838 57.328 402.923 55.2956 397.91 54.67C399.43 60.738 398.962 66.8811 396.439 72.3895C398.117 72.4216 399.834 72.9938 401.299 74.0879C405.081 76.7209 405.321 82.2188 402.542 85.4882C402.52 85.5095 402.509 85.5373 402.493 85.5585" fill="#3d85c6" fill-rule="evenodd" opacity="1" stroke="none"/>
<path d="M367.603 53.3438C369.232 53.1863 370.97 53.5737 372.54 54.5207C376.447 56.8921 377.749 61.8452 375.499 65.5505C375.471 65.5995 375.46 65.6486 375.428 65.6976C371.717 71.6424 370.714 78.4705 371.766 84.4687C372.605 90.8434 375.4 96.5332 380.413 100.243C383.983 102.621 387.519 104.728 392.003 105.186C391.802 99.6451 393.022 93.6725 395.834 88.283C394.281 88.0933 392.592 87.7277 391.251 86.6717C387.813 84.1091 387.165 79.1282 389.791 75.5335C389.835 75.4736 389.857 75.4076 389.9 75.3483C393.976 69.7734 395.376 62.9944 393.987 56.2916C392.619 49.536 387.868 43.661 381.214 39.5258C378.904 38.1804 376.566 36.9925 374.022 36.4308C371.466 35.8924 368.873 35.6903 366.306 35.8368C368.769 41.4945 369.368 47.3521 367.603 53.3438" fill="#231f20" fill-rule="evenodd" opacity="1" stroke="none"/>
<path d="M335.367 54.3355C334.424 54.0102 333.275 53.5802 332.604 52.9373C331.825 52.1946 331.291 51.2198 330.921 50.2231C330.223 48.3416 330 46.0492 330.67 44.1252C330.692 44.0658 330.692 44.0059 330.714 43.9508C332.975 37.4181 332.316 30.4859 329.008 24.4431C325.608 18.6792 319.407 14.2116 311.811 12.2554C306.656 10.7335 301.267 11.4637 296.467 13.2024C300.505 17.8406 302.782 23.4258 302.913 29.4577C304.422 28.83 306.199 28.6938 307.97 29.1515C312.383 30.2794 315.081 34.6108 314.062 38.8059C314.045 38.8784 314.051 38.9487 314.029 39.0146C312.247 45.7921 313.304 52.6305 316.078 58.0756C318.851 63.6221 323.101 68.5262 328.981 70.5695C333.057 71.8555 337.192 72.4707 341.524 71.7955C339.704 66.564 339.181 60.3293 340.211 54.5273C340.069 55.3168 336.25 54.6466 335.792 54.4891C335.656 54.4401 335.514 54.3911 335.367 54.3355" fill="#231f20" fill-rule="evenodd" opacity="1" stroke="none"/>
<path d="M336.081 39.189C337.694 38.7318 339.497 38.7847 341.219 39.4168C343.377 40.2069 345.006 41.7773 345.851 43.6397C346.641 45.6171 346.668 47.8523 345.791 49.9022C343.006 56.3298 342.974 63.3753 344.81 69.3691C346.603 75.5123 350.597 79.9842 355.779 83.4939C359.413 85.7225 363.571 86.7039 368.093 86.4696C366.976 81.1715 367.222 75.2011 369.178 69.501C367.543 69.6585 365.93 69.3479 364.475 68.4602C362.634 67.3388 361.408 65.5402 360.884 63.5181C360.323 61.5728 360.443 59.4417 361.5 57.437C364.78 51.2792 365.113 44.4086 362.623 38.1101C359.419 30.0004 352.667 24.394 344.32 22.2869C342.963 21.942 341.584 21.6908 340.189 21.5333C338.822 21.3868 337.443 21.3268 336.07 21.3693C335.694 21.3824 332.343 21.8652 332.272 21.7524C335.509 27.1354 336.865 33.1679 336.081 39.189" fill="#3d85c6" fill-rule="evenodd" opacity="1" stroke="none"/>
<path d="M273.576 24.0557C277.886 24.3303 281.58 27.974 281.052 32.6715C280.3 39.6407 282.354 46.3855 285.88 51.5854C287.656 54.1845 289.814 56.4023 292.288 58.0691C293.53 58.9077 294.843 59.6057 296.238 60.1506C299.584 61.4638 303.131 62.6195 306.738 62.2048C307.25 62.1449 313.201 61.1319 313.162 61.0595C310.542 56.3085 309.01 50.5108 309.19 44.4783C307.675 45.1066 306.052 45.2744 304.401 44.8488C300.281 43.6359 297.48 39.6745 298.287 35.2429C299.578 28.4001 297.862 21.742 293.623 16.4549C289.4 11.2887 282.703 6.87672 274.856 6.76774C269.516 6.48495 264.318 7.53659 259.834 9.81807C264.503 14.0089 267.582 19.3646 268.606 25.3476C268.552 25.0157 270.884 24.3303 271.162 24.2643C271.974 24.0725 272.786 24.0088 273.576 24.0557" fill="#3d85c6" fill-rule="evenodd" opacity="1" stroke="none"/>
<path d="M234.066 25.8434C235.324 24.7983 236.981 24.1385 238.806 24.0447C243.356 23.811 247.208 27.1566 247.465 31.4673C247.465 31.5371 247.486 31.5992 247.492 31.6695C247.775 38.6697 250.799 44.8832 255.055 49.2571C257.289 51.5516 259.719 53.6053 262.58 55.0934C264.035 55.847 265.566 56.4513 267.157 56.8534C270.753 57.7645 273.745 57.4092 277.423 56.8262C279.477 56.5003 281.493 55.847 283.46 54.8656C280.175 50.3915 277.832 44.5764 277.09 38.7847C275.679 39.6958 274.094 40.1916 272.388 40.1044C268.1 39.8914 264.754 36.1202 264.896 31.6695C264.901 31.5992 264.879 31.5332 264.885 31.4673C265.108 24.5646 262.438 18.1446 257.512 13.3599C252.57 8.74518 245.345 6.40812 237.526 6.76774C234.861 6.94267 232.267 7.29574 229.848 8.23244C227.434 9.23503 225.178 10.5335 223.135 12.1017C228.355 15.3651 232.153 19.8883 234.066 25.8434" fill="#231f20" fill-rule="evenodd" opacity="1" stroke="none"/>
<path d="M200.048 31.8716C201.121 30.5835 202.641 29.6048 204.412 29.1515C208.848 27.8655 213.261 30.9224 214.09 35.2429C214.095 35.2641 214.101 35.2816 214.106 35.3028C215.43 42.1859 219.364 48.0163 224.252 51.9281C229.194 55.9701 235.008 57.4196 241.28 57.4261C245.546 57.224 249.541 55.7042 253.148 52.9732C249.235 49.2211 246.07 44.1361 244.468 38.327C243.203 39.3743 241.7 40.0216 239.999 40.1044C235.7 40.2303 231.842 36.9969 231.336 32.6759C231.336 32.6655 231.33 32.6546 231.33 32.6503C230.573 25.7138 226.976 19.8496 221.375 16.0566C218.58 14.156 215.299 12.7725 211.741 12.0255C209.959 11.6484 208.112 11.4315 206.221 11.389C204.358 11.4484 202.472 11.7846 200.576 12.2554C195.378 13.5729 190.714 16.129 187.096 19.6431C192.795 22.2591 197.307 26.4586 200.048 31.8716" fill="#3d85c6" fill-rule="evenodd" opacity="1" stroke="none"/>
<path d="M167.169 42.5396C168.062 41.1664 169.446 40.0451 171.168 39.4168C175.451 37.842 180.132 39.9023 181.641 43.9612C181.663 44.0212 181.696 44.0658 181.717 44.1252C184.055 50.7299 188.774 55.7746 194.119 58.6946C199.601 61.9215 205.813 63.3884 211.834 61.7853C215.915 60.5102 219.724 58.8755 222.901 55.7849C218.449 52.4561 214.531 47.7373 212.084 42.1903C211.006 43.4763 209.632 44.4255 207.981 44.8488C203.829 45.9239 199.53 43.3144 198.359 39.0146C198.337 38.9487 198.299 38.8893 198.282 38.819C196.462 32.1588 192.032 26.8248 185.913 23.7195C179.799 20.6626 172.22 20.6457 164.837 23.2895C159.736 24.9771 155.617 28.4382 152.658 32.6655C158.625 34.2512 163.594 37.4612 167.169 42.5396" fill="#231f20" fill-rule="evenodd" opacity="1" stroke="none"/>
<path d="M139.848 54.5207C141.815 53.3329 144.054 53.0353 146.043 53.5416C148.059 54.1077 149.847 55.5124 150.876 57.443C150.882 57.4473 150.893 57.4583 150.893 57.4642C154.2 63.6434 159.693 68.0581 165.523 70.357C171.457 72.8025 177.429 72.4107 183.407 70.5695C187.406 69.1201 190.768 66.4872 193.4 62.8091C188.561 60.3784 184.039 56.4622 180.797 51.3832C179.898 52.7564 178.655 53.8184 177.053 54.4014C175.026 55.1425 172.857 54.9741 170.95 54.1251C169.098 53.395 167.485 51.9456 166.597 49.9022C166.591 49.8913 166.586 49.8788 166.58 49.8679C163.801 43.4763 158.625 38.9378 152.146 36.9609C145.754 35.0919 137.739 35.2113 131.173 39.5258C126.59 42.2949 122.874 46.0918 120.449 50.4956C126.678 51.3282 132.246 54.0249 136.469 58.3906C137.112 56.8534 138.284 55.4743 139.848 54.5207" fill="#3d85c6" fill-rule="evenodd" opacity="1" stroke="none"/>
<path d="M111.088 74.0879C114.728 71.3634 119.801 71.9639 122.449 75.3695C122.493 75.4289 122.553 75.4736 122.596 75.5335C126.781 81.1503 132.797 84.5946 138.796 85.8375C144.817 87.0423 151.345 86.8336 156.609 83.4939C158.445 82.421 159.998 80.9225 161.496 79.4666C163.006 78.0384 164.303 76.3547 165.376 74.4372C160.151 72.6069 154.93 69.1032 151.051 64.7332C150.402 66.2741 149.367 67.577 147.912 68.4602C144.245 70.6954 139.352 69.4563 136.96 65.6976C136.927 65.6486 136.889 65.6164 136.856 65.5679C133.151 59.7207 127.315 55.9108 120.526 54.7294C116.553 54.0314 112.167 54.8063 108.424 56.1407C104.62 57.4964 100.713 59.7528 97.8308 62.5748C96.7955 63.5883 95.8801 64.7163 95.0682 65.9101C94.2563 67.098 93.5534 68.3562 92.9268 69.6481C92.7633 69.9908 91.6354 73.1474 91.4664 73.1518C97.6292 72.9109 103.443 74.6503 108.227 78.3005C108.56 76.5846 109.65 75.2224 111.088 74.0879" fill="#231f20" fill-rule="evenodd" opacity="1" stroke="none"/>
<path d="M83.5382 102.472C83.718 100.822 84.4427 99.1705 85.6742 97.8187C88.7856 94.3984 93.913 94.164 97.019 97.3016L97.0244 97.3081L97.0244 97.3081C101.961 102.199 108.549 104.849 114.826 105.356C117.976 105.605 121.071 105.311 123.937 104.434C126.819 103.578 129.369 101.999 131.969 100.243C135.396 97.7037 137.859 94.2278 139.308 89.9667C133.941 89.0469 128.448 86.6161 123.844 82.7147C123.381 84.2791 122.498 85.6522 121.131 86.6717C117.589 89.1112 112.881 88.9919 109.895 85.5585C109.878 85.5373 109.851 85.5204 109.835 85.4991C105.296 80.2311 99.0132 77.4063 92.2238 77.3916C88.8237 77.3747 85.3146 78.0559 81.9253 79.4137C78.5415 80.776 75.6536 83.1833 72.9727 86.0266C69.3818 89.9945 66.8753 94.6474 65.8673 99.5792C72.0518 98.5444 78.2201 99.5361 83.5382 102.472" fill="#3d85c6" fill-rule="evenodd" opacity="1" stroke="none"/>
<path d="M62.478 129.848C62.211 129.744 62.6415 127.488 62.7068 127.228C62.8213 126.768 62.9575 126.247 63.2082 125.838C65.5839 121.979 70.9403 119.866 75.1414 122.83C75.1959 122.873 75.2613 122.895 75.3157 122.933C80.9663 127.079 87.7503 128.626 93.8913 128.082C99.8578 127.347 106.064 125.255 110.205 120.589C113.044 117.407 114.793 113.435 115.867 109.278C110.184 108.919 104.479 107.42 99.4219 104.315C99.2421 105.977 98.6209 107.507 97.4712 108.772C94.5887 111.948 89.5157 112.178 86.0448 109.223C80.8573 104.756 73.8554 102.593 67.3167 103.714C60.7507 104.8 54.1738 108.81 49.5095 115.109C46.5235 119.538 45.074 124.738 44.8615 129.799C50.7192 127.784 56.8166 127.756 62.478 129.848" fill="#231f20" fill-rule="evenodd" opacity="1" stroke="none"/>
<path d="M45.8751 160.156C45.5699 158.525 45.7879 156.744 46.5834 155.092C48.5887 150.942 53.4273 149.231 57.307 151.278C57.3233 151.289 57.3342 151.289 57.3506 151.295C63.546 154.547 70.2918 154.969 76.6017 153.692C82.868 152.364 88.0717 148.99 91.4555 143.76C94.0329 140.355 95.4006 136.342 95.575 131.864C90.1369 132.534 84.1431 131.798 78.5851 129.412C78.596 131.036 78.1383 132.6 77.1139 133.963C74.7109 137.509 69.9921 138.658 66.1724 136.278C66.1288 136.251 66.0798 136.24 66.0362 136.213C60.1677 132.534 53.3292 131.672 46.8123 133.618C43.5647 134.61 40.279 136.219 37.5545 138.577C34.9445 140.997 32.6777 144.043 30.9776 147.568C28.749 152.434 27.4086 157.485 28.2422 162.646C33.5005 159.681 40.0011 158.945 45.8751 160.156" fill="#3d85c6" fill-rule="evenodd" opacity="1" stroke="none"/>
<path d="M33.9146 192.56C33.3098 190.981 33.1845 189.165 33.6476 187.395C35.097 183.063 39.8104 180.747 43.908 182.103C43.9571 182.12 44.0115 182.126 44.066 182.141C50.6919 184.429 57.6503 183.912 63.3934 181.596C66.3141 180.447 68.7443 178.752 71.0492 176.775C73.4304 174.823 75.3757 172.455 76.7325 169.636C78.6832 165.854 78.9338 161.414 78.7322 157.132C73.1689 158.438 67.5837 158.843 61.6771 157.278C61.9822 158.913 61.8241 160.558 61.0885 162.088C59.225 165.952 54.4136 167.652 50.3214 165.888C50.3051 165.881 50.2887 165.881 50.2724 165.871C43.9026 163.076 36.7045 163.125 30.8305 166.165C24.8639 169.141 19.6275 174.879 17.0882 182.288C15.726 187.471 15.6988 192.816 17.0119 197.726C22.0413 194.069 27.8772 192.239 33.9146 192.56" fill="#231f20" fill-rule="evenodd" opacity="1" stroke="none"/>
<path d="M26.9836 226.414C26.2152 224.954 25.9047 223.189 26.1771 221.38C26.8746 216.829 30.9831 213.766 35.2877 214.558C35.3096 214.562 35.3368 214.558 35.364 214.562C42.3496 215.854 48.6758 214.198 54.3864 211.129C59.9552 207.996 64.1182 203.294 65.6329 197.252L65.6329 197.247C67.0115 193.224 67.2513 189.029 66.1016 184.708C61.0722 186.93 55.1056 187.994 49.0736 187.352C49.5803 188.903 49.5095 190.5 49.0354 192.135C47.9729 196.294 43.6301 198.733 39.3254 197.605C39.2601 197.59 39.1947 197.594 39.1293 197.573C32.4489 195.819 25.6594 197.013 19.9926 200.794C14.0477 204.52 10.1845 211.055 9.04012 218.813C8.36446 224.119 8.48977 229.334 10.9037 234.015C14.9631 229.63 21.0333 227.003 26.9836 226.414" fill="#3d85c6" fill-rule="evenodd" opacity="1" stroke="none"/>
<path d="M25.12 260.895C24.0738 259.565 23.4199 257.871 23.3273 256.04C23.5507 251.486 27.2724 247.888 31.6043 247.965C31.6696 247.965 31.7241 247.948 31.7895 247.954C38.7915 248.188 45.292 245.632 50.0926 241.716C52.5173 239.753 54.3972 237.416 55.9338 234.828C57.6448 232.257 58.8109 229.417 59.2795 226.327C59.9933 222.132 59.0888 217.843 57.4268 213.773C52.6971 216.71 47.319 218.726 41.2598 218.994C42.0281 220.458 42.3605 222.076 42.1044 223.762C41.4559 228 37.3475 231.046 32.9175 230.573C32.9066 230.573 32.8902 230.573 32.8793 230.573C25.9264 229.781 19.1316 231.971 14.4182 236.609C9.56872 241.209 6.35383 248.221 5.99963 256.04C6.24481 261.381 7.80327 266.487 10.5223 270.785C14.2384 265.821 19.2678 262.362 25.12 260.895" fill="#231f20" fill-rule="evenodd" opacity="1" stroke="none"/>
<path d="M28.4493 295.284C27.2778 294.113 26.455 292.517 26.1771 290.701C25.4851 286.146 28.5147 282.004 32.8793 281.514C32.8902 281.514 32.9066 281.508 32.9175 281.508C39.854 280.708 45.6898 277.253 50.2015 272.643C54.5825 268.011 57.1544 262.279 56.8002 256.04C57.0454 251.773 55.9502 247.686 53.5962 243.889C49.4496 247.514 44.066 250.291 38.1157 251.451C39.0257 252.792 39.5216 254.34 39.4289 256.04C39.6578 260.329 36.2413 263.941 31.7895 264.127C31.7241 264.133 31.6696 264.148 31.6043 264.154C24.7004 264.437 18.5703 267.57 14.2766 272.838C12.1461 275.482 10.3479 278.658 9.39432 282.14C8.60425 285.605 8.45166 289.398 9.04012 293.268C9.91201 298.547 11.781 303.453 15.2138 307.277C18.0582 301.839 22.8805 297.6 28.4493 295.284" fill="#3d85c6" fill-rule="evenodd" opacity="1" stroke="none"/>
<path d="M36.7426 328.816C35.3695 327.847 34.1598 326.44 33.6476 324.687C32.5033 320.272 34.9826 315.749 39.1401 314.546C39.2001 314.523 39.2601 314.491 39.3254 314.474C46.0875 312.639 51.5365 308.295 54.9585 303.153C58.1352 298.03 60.1894 291.923 59.2795 285.754C58.7618 281.525 56.4188 277.721 53.8905 274.284C49.9836 278.507 45.6408 281.983 39.8758 284.015C41.0473 285.192 41.8483 286.636 42.1044 288.319C42.7528 292.565 39.7341 296.673 35.364 297.518C35.3368 297.523 35.315 297.534 35.2877 297.54C28.5419 298.804 22.4391 302.929 19.3441 308.731C16.0802 314.546 15.0939 322.201 17.0882 329.793C18.7883 334.865 21.8724 339.263 25.7194 342.581C27.7954 336.734 31.577 331.945 36.7426 328.816" fill="#231f20" fill-rule="evenodd" opacity="1" stroke="none"/>
<path d="M50.098 360.692C48.6322 359.92 47.3789 358.638 46.5834 356.987C44.5837 352.83 46.2565 347.981 50.3214 346.193C56.7457 343.36 61.2247 338.358 64.1727 332.626C67.017 326.898 67.7036 320.702 65.6329 314.834C64.5977 310.698 62.3309 307.124 58.958 304.198C56.0701 308.864 51.749 313.097 46.4091 315.958C47.6841 316.965 48.6104 318.295 49.0354 319.946C50.4031 324.006 48.2889 328.441 44.066 329.94C44.0115 329.955 43.968 329.989 43.9189 330.01C37.391 332.315 32.4543 337.126 29.9151 343.437C28.6782 346.591 27.8499 350.182 28.0461 353.768C28.1496 355.735 28.5583 357.723 29.1032 359.613C30.0513 362.91 31.3264 365.533 33.2171 368.408C34.2307 369.951 35.375 371.412 36.6881 372.714C37.0696 373.095 41.0909 375.983 41.08 376.037C42.0008 370.092 45.4991 364.535 50.098 360.692" fill="#3d85c6" fill-rule="evenodd" opacity="1" stroke="none"/>
<path d="M63.8185 387.203C61.252 383.421 62.4453 378.238 66.0525 375.896C66.0961 375.868 66.1288 375.83 66.1724 375.802C72.0845 372.048 76.0187 366.273 77.7896 360.333C78.6996 357.336 78.9229 354.356 78.7704 351.338C78.7268 348.257 78.0838 345.257 76.7325 342.444C74.9779 338.564 71.6922 335.589 68.1831 333.094C65.7746 338.243 62.587 342.885 57.6938 346.531C59.1596 347.31 60.3475 348.456 61.0885 349.99C62.9466 353.856 61.2738 358.677 57.3506 360.786C57.3342 360.79 57.3287 360.803 57.3124 360.807C51.1387 364.066 46.736 369.707 45.4446 376.207C44.066 382.712 45.2212 390.423 49.5095 396.973C52.6971 401.276 56.8384 404.633 61.4808 406.672C61.7751 400.455 63.9929 394.744 68.0087 390.221C66.4013 389.708 64.9137 388.667 63.8185 387.203" fill="#231f20" fill-rule="evenodd" opacity="1" stroke="none"/>
<path d="M85.6742 414.262C82.5847 410.867 82.7754 405.744 86.1265 402.792C91.4992 398.139 94.18 392.135 95.2535 385.83C96.2887 379.508 95.2208 373.298 91.4555 368.321C89.0852 364.785 86.0175 361.935 81.909 360.154C80.5141 365.484 77.6206 370.818 73.3596 375.132C74.9071 375.694 76.0514 376.784 77.1139 378.118C79.6913 381.552 78.8848 386.477 75.3157 389.148C75.2613 389.187 75.2231 389.24 75.1686 389.284C69.6325 393.414 66.325 399.467 65.731 406.257C65.4096 409.918 65.8564 413.46 67.2022 416.893C67.9052 418.692 68.8097 420.403 69.8668 422.021C71.6759 424.79 73.5231 426.931 76.0895 429.062C77.5335 430.26 79.0973 431.311 80.7756 432.157C81.266 432.401 86.0611 433.953 86.072 434.019C85.2329 428.042 86.6986 421.954 90.0824 416.806C88.4695 416.484 86.9057 415.618 85.6742 414.262" fill="#3d85c6" fill-rule="evenodd" opacity="1" stroke="none"/>
<path d="M109.895 426.522C114.45 421.193 116.537 414.496 116.515 408.258C116.494 405.135 115.938 402.115 114.804 399.365C113.676 396.617 112.347 393.763 110.205 391.489C107.345 388.325 103.596 386.215 99.2148 385.11C98.719 390.504 96.7846 396.095 93.2483 400.966C94.8666 401.293 96.3269 402.045 97.4712 403.309C100.354 406.487 100.152 411.601 97.0244 414.769L97.0244 414.773L97.0244 414.773C92.0168 419.743 89.7282 426.177 90.2731 432.914C90.5456 436.271 91.5209 439.677 93.172 442.908C94.8339 446.122 97.0625 449.287 100.272 451.532C104.549 454.753 109.464 456.785 114.477 457.411C112.957 451.341 113.426 445.206 115.949 439.691C114.27 439.66 112.554 439.087 111.088 437.991C107.307 435.36 107.067 429.862 109.846 426.593C109.868 426.571 109.878 426.544 109.895 426.522" fill="#231f20" fill-rule="evenodd" opacity="1" stroke="none"/>
<path d="M144.784 458.735C143.155 458.895 141.412 458.507 139.848 457.558C135.941 455.189 134.638 450.236 136.889 446.53C136.916 446.481 136.927 446.432 136.96 446.383C140.67 440.438 141.673 433.61 140.621 427.612C139.777 421.235 136.987 415.548 131.969 411.836C128.405 409.461 124.869 407.353 120.384 406.896C120.586 412.436 119.365 418.409 116.548 423.798C118.106 423.987 119.796 424.354 121.131 425.409C124.574 427.972 125.223 432.95 122.596 436.548C122.553 436.607 122.525 436.673 122.482 436.733C118.412 442.307 117.011 449.086 118.401 455.787C119.768 462.545 124.52 468.413 131.173 472.555C133.483 473.901 135.821 475.088 138.366 475.65C140.921 476.189 143.515 476.391 146.081 476.244C143.618 470.587 143.014 464.729 144.784 458.735" fill="#3d85c6" fill-rule="evenodd" opacity="1" stroke="none"/>
<path d="M176.307 472.892C174.694 473.349 172.89 473.296 171.168 472.664C169.011 471.874 167.381 470.304 166.537 468.441C165.741 466.462 165.719 464.229 166.597 462.179C169.376 455.749 169.408 448.703 167.577 442.71C165.779 436.569 161.791 432.097 156.609 428.587C152.969 426.358 148.817 425.378 144.294 425.611C145.411 430.907 145.166 436.88 143.21 442.58C143.488 441.779 147.111 443.076 147.591 443.31C149.541 444.247 150.914 446.524 151.503 448.563C152.059 450.509 151.944 452.639 150.882 454.644C147.602 460.802 147.275 467.673 149.765 473.977C152.293 480.112 157.355 486.357 164.837 488.792C169.861 490.65 175.151 491.184 180.11 490.328C176.879 484.945 175.517 478.913 176.307 472.892" fill="#231f20" fill-rule="evenodd" opacity="1" stroke="none"/>
<path d="M204.412 482.93C200.004 481.802 197.307 477.47 198.32 473.273C198.342 473.203 198.337 473.132 198.359 473.066C200.14 466.289 199.078 459.45 196.31 454.006C193.536 448.459 189.286 443.555 183.407 441.511C179.331 440.226 175.195 439.611 170.863 440.285C172.683 445.517 173.206 451.749 172.176 457.547C172.242 457.194 174.775 457.198 175.097 457.247C180.077 458.054 183.494 462.884 181.717 467.956C181.696 468.015 181.696 468.071 181.674 468.13C179.413 474.663 180.072 481.595 183.379 487.638C186.78 493.402 192.975 497.87 200.576 499.826C205.726 501.348 211.115 500.618 215.921 498.879C211.883 494.241 209.605 488.655 209.469 482.623C207.965 483.251 206.189 483.387 204.412 482.93" fill="#3d85c6" fill-rule="evenodd" opacity="1" stroke="none"/>
<path d="M238.806 488.036C234.191 487.883 230.829 483.911 231.336 479.437C231.336 479.426 231.336 479.416 231.336 479.409C232.088 472.441 230.033 465.693 226.502 460.495C224.731 457.897 222.574 455.685 220.1 454.012C218.858 453.173 217.539 452.475 216.144 451.93C214.776 451.277 213.349 450.676 211.834 450.296C207.714 449.217 203.464 449.478 199.225 451.019C201.846 455.772 203.377 461.57 203.197 467.602C204.707 466.975 206.336 466.806 207.981 467.23C212.106 468.445 214.907 472.406 214.106 476.778C214.101 476.8 214.106 476.821 214.101 476.838C212.804 483.681 214.526 490.339 218.765 495.626C222.988 500.79 229.685 505.204 237.526 505.313C242.871 505.596 248.069 504.545 252.554 502.263C247.884 498.072 244.805 492.714 243.781 486.733C242.375 487.642 240.637 488.128 238.806 488.036" fill="#231f20" fill-rule="evenodd" opacity="1" stroke="none"/>
<path d="M278.316 486.237C277.063 487.283 275.407 487.942 273.576 488.036C269.031 488.27 265.179 484.924 264.923 480.614C264.918 480.544 264.901 480.482 264.896 480.412C264.612 473.409 261.588 467.198 257.333 462.822C253.039 458.235 247.519 454.895 241.28 454.655C239.149 454.519 237.024 454.868 234.965 455.253C232.91 455.581 230.894 456.234 228.922 457.215C232.207 461.689 234.556 467.502 235.297 473.296C236.708 472.385 238.294 471.889 239.999 471.977C244.288 472.189 247.633 475.961 247.492 480.412C247.486 480.482 247.508 480.544 247.503 480.614C247.279 487.517 249.949 493.936 254.875 498.721C259.817 503.336 267.037 505.673 274.856 505.313C277.526 505.139 280.12 504.785 282.539 503.849C284.953 502.846 287.209 501.548 289.247 499.979C284.027 496.716 280.235 492.193 278.316 486.237" fill="#3d85c6" fill-rule="evenodd" opacity="1" stroke="none"/>
<path d="M312.34 480.21C311.266 481.495 309.746 482.476 307.97 482.93C303.54 484.215 299.126 481.159 298.281 476.778C296.957 469.895 293.023 464.065 288.135 460.153C283.193 456.109 277.379 454.661 271.108 454.655C266.841 454.857 262.847 456.377 259.24 459.105C263.152 462.86 266.318 467.945 267.92 473.754C267.816 473.394 270.154 472.43 270.454 472.336C275.287 470.81 280.48 474.512 281.057 479.431C281.809 486.367 285.411 492.231 291.013 496.022C293.808 497.925 297.088 499.309 300.646 500.056C302.428 500.43 304.275 500.65 306.161 500.692C309.61 500.775 313.593 499.515 316.721 498.149C318.35 497.433 319.919 496.58 321.396 495.588C321.805 495.315 325.161 492.378 325.292 492.438C319.592 489.822 315.081 485.62 312.34 480.21" fill="#231f20" fill-rule="evenodd" opacity="1" stroke="none"/>
<path d="M345.219 469.542C344.325 470.914 342.936 472.036 341.219 472.664C336.931 474.239 332.256 472.179 330.746 468.12C330.724 468.06 330.692 468.015 330.67 467.956C328.332 461.351 323.614 456.307 318.263 453.384C312.787 450.159 306.575 448.693 300.554 450.296C296.472 451.571 292.664 453.205 289.487 456.294C293.939 459.625 297.856 464.344 300.303 469.891C301.382 468.605 302.755 467.656 304.401 467.23C308.558 466.157 312.857 468.767 314.029 473.066C314.051 473.132 314.089 473.192 314.105 473.262C315.92 479.922 320.355 485.256 326.469 488.362C332.588 491.418 340.168 491.435 347.551 488.792C352.651 487.104 356.77 483.643 359.724 479.416C353.763 477.83 348.793 474.62 345.219 469.542" fill="#3d85c6" fill-rule="evenodd" opacity="1" stroke="none"/>
<path d="M372.54 457.558C370.573 458.748 368.328 459.046 366.344 458.539C364.323 457.973 362.541 456.566 361.506 454.638C361.506 454.634 361.495 454.623 361.489 454.616C358.187 448.437 352.695 444.023 346.859 441.724C340.93 439.278 334.953 439.67 328.981 441.511C324.976 442.961 321.619 445.594 318.987 449.272C323.826 451.7 328.349 455.619 331.591 460.698C332.485 459.325 333.732 458.263 335.329 457.679C337.356 456.939 339.53 457.107 341.437 457.956C343.29 458.686 344.897 460.136 345.791 462.179C345.796 462.19 345.802 462.202 345.807 462.213C348.586 468.605 353.763 473.143 360.241 475.12C366.633 476.989 374.649 476.87 381.214 472.555C385.797 469.786 389.508 465.989 391.938 461.585C385.704 460.753 380.141 458.054 375.918 453.691C375.27 455.227 374.104 456.605 372.54 457.558" fill="#231f20" fill-rule="evenodd" opacity="1" stroke="none"/>
<path d="M401.299 437.991L401.299 437.991C397.659 440.715 392.581 440.117 389.938 436.711C389.895 436.652 389.835 436.607 389.791 436.548C385.606 430.931 379.591 427.487 373.591 426.244C367.57 425.039 361.042 425.247 355.779 428.587C353.937 429.66 352.389 431.158 350.891 432.614C349.382 434.042 348.085 435.726 347.011 437.644C352.232 439.474 357.457 442.978 361.331 447.348C361.985 445.807 363.02 444.504 364.475 443.621C368.142 441.386 373.036 442.622 375.428 446.383C375.455 446.432 375.499 446.464 375.526 446.513C379.231 452.36 385.072 456.17 391.862 457.352C398.439 458.214 405.849 456.241 412.11 451.532C416.529 448.48 419.199 443.663 420.921 438.93C414.758 439.168 408.944 437.431 404.155 433.781C403.828 435.496 402.738 436.858 401.299 437.991" fill="#3d85c6" fill-rule="evenodd" opacity="1" stroke="none"/>
<path d="M428.849 409.607C428.669 411.259 427.945 412.911 426.713 414.262C423.602 417.683 418.474 417.917 415.369 414.779C415.369 414.779 415.358 414.773 415.358 414.769C410.426 409.88 403.839 407.232 397.561 406.725C394.412 406.474 391.317 406.77 388.451 407.647C385.563 408.503 383.018 410.082 380.413 411.836C376.992 414.375 374.529 417.853 373.079 422.114C378.446 423.034 383.939 425.465 388.543 429.366C389.001 427.802 389.889 426.425 391.251 425.409C394.799 422.97 399.507 423.089 402.493 426.522C402.509 426.544 402.536 426.561 402.553 426.582C407.092 431.85 413.374 434.672 420.164 434.69C423.564 434.707 427.073 434.026 430.462 432.668C433.846 431.305 436.734 428.898 439.415 426.054C443.006 422.087 445.507 417.434 446.52 412.502C440.336 413.536 434.167 412.545 428.849 409.607" fill="#231f20" fill-rule="evenodd" opacity="1" stroke="none"/>
<path d="M449.909 382.233C449.986 383.9 449.708 385.764 448.569 387.203C445.844 390.853 440.777 391.741 437.246 389.246C437.186 389.208 437.126 389.187 437.072 389.148C431.421 385.002 424.632 383.452 418.491 383.997C412.53 384.734 406.323 386.826 402.182 391.489C399.338 394.672 397.594 398.645 396.521 402.796C402.204 403.162 407.909 404.661 412.966 407.766C413.145 406.104 413.767 404.573 414.911 403.309C417.799 400.134 422.872 399.904 426.261 402.792C426.283 402.813 426.315 402.835 426.337 402.858C431.53 407.326 438.527 409.488 445.071 408.366C451.637 407.281 458.214 403.271 462.878 396.973C465.864 392.541 467.313 387.343 467.526 382.282C461.668 384.297 455.565 384.325 449.909 382.233" fill="#3d85c6" fill-rule="evenodd" opacity="1" stroke="none"/>
<path d="M466.512 351.925C466.817 353.555 466.594 355.337 465.804 356.987C463.799 361.139 458.96 362.851 455.08 360.803C455.064 360.79 455.048 360.79 455.037 360.78C448.841 357.534 442.096 357.112 435.78 358.387C429.519 359.718 424.316 363.091 420.932 368.321C418.355 371.727 416.981 375.736 416.807 380.217C422.251 379.546 428.244 380.277 433.802 382.669C433.791 381.045 434.249 379.48 435.274 378.118C437.677 374.572 442.395 373.423 446.215 375.802C446.259 375.83 446.308 375.841 446.351 375.868C452.22 379.546 459.058 380.406 465.575 378.461C468.823 377.471 472.108 375.862 474.833 373.503C477.443 371.084 479.71 368.038 481.41 364.513C483.638 359.647 484.979 354.596 484.145 349.435C478.881 352.4 472.386 353.136 466.512 351.925" fill="#231f20" fill-rule="evenodd" opacity="1" stroke="none"/>
<path d="M478.473 319.521C479.078 321.1 479.198 322.916 478.74 324.687C477.29 329.018 472.577 331.334 468.479 329.978C468.425 329.961 468.371 329.955 468.321 329.94C461.696 327.649 454.732 328.169 448.994 330.485C446.073 331.634 443.643 333.322 441.338 335.306C438.957 337.258 437.012 339.633 435.655 342.444C433.704 346.225 433.454 350.667 433.655 354.95C439.219 353.643 444.804 353.238 450.705 354.803C450.405 353.168 450.558 351.523 451.299 349.99C453.162 346.123 457.974 344.428 462.066 346.193C462.082 346.199 462.099 346.199 462.115 346.21C468.485 349.005 475.683 348.956 481.557 345.917C487.524 342.941 492.76 337.202 495.299 329.793C496.661 324.61 496.689 319.265 495.37 314.355C490.341 318.012 484.505 319.842 478.473 319.521" fill="#3d85c6" fill-rule="evenodd" opacity="1" stroke="none"/>
<path d="M485.404 285.667C486.172 287.127 486.483 288.892 486.205 290.701C485.513 295.252 481.404 298.312 477.023 297.518C470.038 296.226 463.712 297.882 458.001 300.95C452.432 304.083 448.269 308.787 446.754 314.834C445.376 318.856 445.131 323.052 446.28 327.373C451.315 325.148 457.282 324.086 463.308 324.729C462.927 324.687 462.965 322.158 462.992 321.853C463.412 316.828 467.994 313.146 473.062 314.474C473.127 314.491 473.193 314.487 473.258 314.508C479.939 316.262 486.728 315.068 492.389 311.288C498.34 307.554 502.198 301.026 503.342 293.268C504.023 287.959 503.898 282.745 501.484 278.066C497.424 282.451 491.354 285.077 485.404 285.667" fill="#231f20" fill-rule="evenodd" opacity="1" stroke="none"/>
<path d="M207.636 94.8988C181.388 94.8988 164.176 124.589 164.176 138.359C164.176 142.662 165.466 143.523 168.479 143.523C171.491 143.523 186.981 126.741 198.169 126.741C232.593 126.741 248.514 184.831 254.108 223.128C254.969 230.013 254.538 230.013 251.957 238.189C238.617 279.497 195.157 346.624 173.212 379.327C168.909 385.781 168.909 384.49 168.909 390.515C168.909 398.26 183.109 403.424 189.133 403.424C192.575 403.424 197.739 390.515 199.03 387.933C218.824 352.648 248.945 295.418 258.411 269.17C259.272 267.019 260.563 267.449 260.993 269.6C264.866 299.291 273.902 346.624 282.508 375.024C288.962 396.539 297.138 402.133 311.338 402.133C329.841 402.133 353.507 389.224 353.507 356.951C353.507 354.8 350.926 353.078 348.774 353.078C345.332 353.078 333.283 368.139 317.792 367.709C310.908 367.709 297.568 361.254 292.405 343.182C273.902 278.206 262.714 193.007 257.551 164.607C251.957 134.486 236.896 94.8988 207.636 94.8988Z" fill="#000000" fill-rule="evenodd" opacity="1" stroke="none"/>
</g>
</svg>
