<?xml version="1.0" encoding="UTF-8" standalone="no"?>
<!DOCTYPE svg PUBLIC "-//W3C//DTD SVG 1.1//EN" "http://www.w3.org/Graphics/SVG/1.1/DTD/svg11.dtd">

<!-- Created with Vectornator (http://vectornator.io/) -->
<svg height="100%" stroke-miterlimit="10" style="fill-rule:nonzero;clip-rule:evenodd;stroke-linecap:round;stroke-linejoin:round;" version="1.1" viewBox="0 0 512 512" width="100%" xml:space="preserve" xmlns="http://www.w3.org/2000/svg" xmlns:vectornator="http://vectornator.io" xmlns:xlink="http://www.w3.org/1999/xlink">
<metadata>
<vectornator:setting key="IsTimeLapseWatermarkDisabled" value="false"/>
<vectornator:setting key="UndoHistoryDisabled" value="true"/>
<vectornator:setting key="VNDimensionsVisible" value="true"/>
<vectornator:setting key="VNSnapToGuides" value="true"/>
<vectornator:setting key="WDCMYKEnabledKey" value="false"/>
<vectornator:setting key="WDDisplayWhiteBackground" value="false"/>
<vectornator:setting key="WDDynamicGuides" value="false"/>
<vectornator:setting key="WDGuidesVisible" value="true"/>
<vectornator:setting key="WDIsolateActiveLayer" value="false"/>
<vectornator:setting key="WDOutlineMode" value="false"/>
<vectornator:setting key="WDRulersVisible" value="true"/>
<vectornator:setting key="WDSnapToEdges" value="false"/>
<vectornator:setting key="WDSnapToGrid" value="false"/>
<vectornator:setting key="WDSnapToPoints" value="false"/>
<vectornator:setting key="WDUnits" value="Pixels"/>
</metadata>
<defs>
<clipPath id="TextBounds">
<rect height="120.281" width="512.359" x="0" y="391.123"/>
</clipPath>
</defs>
<g id="Layer-1" vectornator:layerName="Layer 1">
<path d="M442.141 199.972C442.993 201.049 443.523 202.421 443.593 203.904C443.417 207.593 440.398 210.506 436.894 210.444C436.841 210.444 436.793 210.458 436.744 210.453C431.074 210.263 425.809 212.333 421.921 215.505C419.953 217.095 418.435 218.987 417.19 221.084C415.805 223.166 414.86 225.466 414.476 227.968C413.903 231.366 414.635 234.84 415.981 238.135C419.807 235.757 424.167 234.124 429.075 233.907C428.452 232.721 428.183 231.409 428.391 230.046C428.916 226.613 432.239 224.147 435.826 224.529C435.84 224.529 435.853 224.529 435.862 224.529C441.493 225.171 446.996 223.397 450.813 219.64C454.736 215.915 457.344 210.237 457.627 203.904C457.433 199.578 456.17 195.443 453.968 191.963C450.959 195.983 446.885 198.784 442.141 199.972" fill="#197d6d" fill-rule="evenodd" opacity="1" stroke="none"/>
<path d="M439.45 172.122C440.398 173.069 441.065 174.362 441.285 175.833C441.85 179.522 439.397 182.877 435.826 183.278C430.213 183.926 425.482 186.724 421.833 190.458C418.28 194.209 416.197 198.851 416.489 203.904C416.29 207.358 417.177 210.668 419.079 213.745C422.442 210.81 426.802 208.56 431.621 207.619C430.879 206.534 430.482 205.281 430.553 203.904C430.372 200.43 433.139 197.505 436.744 197.355C436.793 197.35 436.841 197.338 436.894 197.333C442.486 197.103 447.45 194.566 450.928 190.299C452.653 188.158 454.11 185.584 454.882 182.766C455.919 178.993 455.57 174.812 454.608 171.097C454.326 170.008 453.977 168.93 453.549 167.884C453.126 166.86 452.627 165.864 452.044 164.919C451.881 164.659 450.129 162.478 450.169 162.408C447.865 166.812 443.96 170.246 439.45 172.122" fill="#000000" fill-rule="evenodd" opacity="1" stroke="none"/>
<path d="M432.733 144.964C433.845 145.749 434.825 146.883 435.24 148.308C436.166 151.883 434.158 155.547 430.791 156.521C430.738 156.538 430.694 156.566 430.641 156.578C425.165 158.065 420.752 161.584 417.98 165.748C415.407 169.898 413.744 174.844 414.476 179.839C414.896 183.264 416.793 186.345 418.845 189.129C422.009 185.709 425.526 182.894 430.195 181.247C429.247 180.294 428.598 179.125 428.391 177.762C427.865 174.323 430.306 170.996 433.849 170.311C433.871 170.308 433.889 170.299 433.911 170.294C439.374 169.27 444.317 165.929 446.824 161.23C449.467 156.521 450.266 150.32 448.651 144.173C447.274 140.065 444.776 136.504 441.66 133.816C439.979 138.551 436.916 142.43 432.733 144.964" fill="#197d6d" fill-rule="evenodd" opacity="1" stroke="none"/>
<path d="M421.917 119.148C423.104 119.774 424.119 120.811 424.763 122.147C426.383 125.516 425.028 129.443 421.736 130.891C416.533 133.185 412.905 137.236 410.518 141.878C409.335 144.181 408.594 146.769 408.408 149.346C408.201 152.232 408.66 154.65 409.631 157.333C410.156 158.772 410.761 160.135 411.621 161.411C411.851 161.751 414.679 164.993 414.741 164.902C417.08 161.123 420.579 157.695 424.9 155.378C423.872 154.563 423.117 153.485 422.777 152.147C421.669 148.86 423.382 145.267 426.802 144.054C426.842 144.042 426.877 144.014 426.921 143.997C432.208 142.13 436.206 138.234 438.262 133.123C439.264 130.568 439.931 127.66 439.776 124.756C439.56 121.884 438.779 118.909 437.402 116.054C435.434 112.187 432.936 108.778 429.216 106.721C428.47 111.536 425.637 116.037 421.917 119.148" fill="#000000" fill-rule="evenodd" opacity="1" stroke="none"/>
<path d="M410.805 97.6775L410.805 97.6775C412.879 100.741 411.917 104.936 408.991 106.834C408.96 106.857 408.934 106.888 408.898 106.91C404.106 109.951 400.924 114.628 399.49 119.439C398.748 121.867 398.567 124.28 398.695 126.724C398.731 129.219 399.247 131.649 400.346 133.926C401.762 137.069 404.423 139.477 407.27 141.499C409.22 137.329 411.802 133.569 415.765 130.617C414.578 129.986 413.616 129.058 413.016 127.814C411.506 124.685 412.861 120.781 416.043 119.072C416.052 119.067 416.061 119.058 416.074 119.055C421.074 116.416 424.639 111.848 425.685 106.583C426.802 101.315 425.866 95.0694 422.393 89.7654C419.812 86.2795 416.458 83.5611 412.698 81.9098C412.46 86.9451 410.663 91.5699 407.411 95.2331C408.713 95.6488 409.918 96.4917 410.805 97.6775" fill="#197d6d" fill-rule="evenodd" opacity="1" stroke="none"/>
<path d="M393.104 75.7625C395.606 78.5122 395.452 82.6596 392.791 84.9901C392.773 85.0073 392.76 85.0298 392.738 85.0523C388.387 88.8206 386.211 93.6833 385.346 98.7896C384.507 103.909 385.372 108.94 388.422 112.97C390.341 115.833 392.826 118.141 396.153 119.584C397.283 115.268 399.626 110.948 403.073 107.454C401.824 106.998 400.897 106.116 400.037 105.035C397.95 102.254 398.603 98.2653 401.493 96.1021C401.537 96.0712 401.568 96.0279 401.612 95.9917C406.096 92.6476 408.775 87.7447 409.256 82.2456C409.922 76.5828 407.623 70.939 403.391 66.2123C400.487 62.9925 396.939 60.6395 392.782 59.7617C393.462 64.6024 392.274 69.5308 389.534 73.7024C390.84 73.9628 392.107 74.6645 393.104 75.7625" fill="#000000" fill-rule="evenodd" opacity="1" stroke="none"/>
<path d="M373.488 65.8332C369.799 70.1495 368.109 75.5727 368.126 80.6256C368.14 83.1543 368.594 85.5986 369.508 87.8277C370.426 90.0531 371.498 92.3647 373.237 94.204C375.549 96.7693 378.59 98.4776 382.138 99.3721C382.535 95.0041 384.101 90.4755 386.97 86.5311C385.659 86.2659 384.477 85.652 383.545 84.6335C381.215 82.0598 381.379 77.9173 383.907 75.352C383.912 75.349 383.912 75.349 383.916 75.3437C387.963 71.3234 389.821 66.1108 389.379 60.6567C389.159 57.9378 388.369 55.1797 387.032 52.5632C385.681 49.96 383.881 47.3969 381.277 45.5783C377.817 42.9698 373.837 41.3237 369.777 40.8171C371.008 45.7314 370.629 50.7067 368.585 55.1678C369.945 55.1938 371.335 55.6572 372.522 56.5433C375.584 58.6757 375.779 63.1284 373.528 65.7762C373.51 65.7934 373.501 65.816 373.488 65.8332" fill="#197d6d" fill-rule="evenodd" opacity="1" stroke="none"/>
<path d="M345.232 39.743C346.551 39.6154 347.959 39.9292 349.23 40.6962C352.394 42.6167 353.449 46.6282 351.626 49.629C351.604 49.6687 351.595 49.7084 351.569 49.7482C348.563 54.5628 347.751 60.0927 348.603 64.9506C349.283 70.1133 351.547 74.7214 355.607 77.7258C358.497 79.6516 361.361 81.3582 364.993 81.7289C364.83 77.2417 365.818 72.4046 368.095 68.0397C366.838 67.8861 365.47 67.59 364.384 66.7347C361.599 64.6593 361.074 60.6254 363.201 57.7141C363.237 57.6656 363.254 57.6121 363.29 57.5641C366.591 53.0491 367.725 47.5589 366.599 42.1304C365.492 36.6592 361.644 31.901 356.255 28.552C354.384 27.4624 352.491 26.5004 350.43 26.0454C348.36 25.6094 346.26 25.4457 344.181 25.5644C346.176 30.1464 346.661 34.8904 345.232 39.743" fill="#000000" fill-rule="evenodd" opacity="1" stroke="none"/>
<path d="M319.124 40.5461C318.361 40.2827 317.43 39.9345 316.887 39.4138C316.256 38.8123 315.823 38.0228 315.523 37.2156C314.958 35.6918 314.777 33.8353 315.32 32.277C315.338 32.2289 315.338 32.1804 315.356 32.1358C317.187 26.845 316.653 21.2308 313.974 16.3368C311.221 11.6687 306.199 8.05044 300.047 6.46619C295.872 5.23362 291.508 5.82497 287.62 7.23316C290.89 10.9895 292.734 15.5129 292.84 20.3981C294.063 19.8897 295.501 19.7794 296.936 20.1501C300.51 21.0636 302.695 24.5715 301.869 27.969C301.856 28.0277 301.86 28.0847 301.843 28.138C300.4 33.627 301.256 39.1653 303.502 43.5752C305.748 48.0672 309.19 52.039 313.952 53.6938C317.253 54.7353 320.603 55.2336 324.111 54.6868C322.637 50.4498 322.213 45.4004 323.047 40.7015C322.933 41.3409 319.839 40.7981 319.468 40.6706C319.358 40.6309 319.243 40.5912 319.124 40.5461" fill="#000000" fill-rule="evenodd" opacity="1" stroke="none"/>
<path d="M319.702 28.2793C321.009 27.909 322.469 27.9518 323.864 28.4637C325.611 29.1036 326.931 30.3754 327.615 31.8838C328.255 33.4853 328.277 35.2955 327.566 36.9557C325.311 42.1613 325.285 47.8673 326.772 52.7217C328.224 57.6969 331.459 61.3187 335.655 64.1611C338.599 65.966 341.966 66.7608 345.629 66.571C344.724 62.2802 344.923 57.4449 346.507 52.8285C345.183 52.956 343.877 52.7044 342.699 51.9855C341.207 51.0774 340.214 49.6206 339.79 47.983C339.336 46.4075 339.433 44.6816 340.289 43.058C342.946 38.0709 343.215 32.5065 341.198 27.4055C338.603 20.8376 333.136 16.2971 326.375 14.5905C325.276 14.3112 324.159 14.1078 323.03 13.9802C321.922 13.8615 320.806 13.813 319.693 13.8474C319.389 13.858 316.675 14.249 316.618 14.1576C319.239 18.5172 320.338 23.4029 319.702 28.2793" fill="#197d6d" fill-rule="evenodd" opacity="1" stroke="none"/>
<path d="M269.081 16.023C272.571 16.2454 275.563 19.1964 275.135 23.0009C274.526 28.6451 276.19 34.1076 279.045 38.3189C280.484 40.4239 282.231 42.22 284.235 43.57C285.241 44.2491 286.305 44.8144 287.434 45.2557C290.144 46.3193 293.017 47.2552 295.938 46.9194C296.353 46.8709 301.172 46.0505 301.141 45.9918C299.019 42.1441 297.778 37.4486 297.924 32.563C296.697 33.0718 295.382 33.2077 294.045 32.8631C290.709 31.8807 288.441 28.6725 289.094 25.0834C290.14 19.5415 288.749 14.1492 285.316 9.86728C281.896 5.68329 276.472 2.11008 270.118 2.02182C265.793 1.79279 261.583 2.6445 257.951 4.49223C261.733 7.88627 264.226 12.2238 265.056 17.0693C265.012 16.8006 266.901 16.2454 267.126 16.192C267.783 16.0367 268.441 15.985 269.081 16.023" fill="#197d6d" fill-rule="evenodd" opacity="1" stroke="none"/>
<path d="M237.082 17.4709C238.101 16.6245 239.443 16.0901 240.921 16.0142C244.606 15.8249 247.726 18.5345 247.933 22.0256C247.933 22.0821 247.951 22.1324 247.955 22.1893C248.185 27.8587 250.634 32.8909 254.081 36.4332C255.89 38.2915 257.858 39.9548 260.175 41.16C261.353 41.7703 262.593 42.2597 263.882 42.5854C266.795 43.3233 269.217 43.0355 272.196 42.5633C273.86 42.2994 275.493 41.7703 277.086 40.9755C274.425 37.352 272.527 32.6424 271.927 27.9518C270.784 28.6897 269.5 29.0913 268.119 29.0207C264.646 28.8481 261.936 25.7939 262.051 22.1893C262.055 22.1324 262.037 22.079 262.042 22.0256C262.223 16.4352 260.06 11.2358 256.071 7.36069C252.068 3.62331 246.217 1.73057 239.884 2.02182C237.726 2.16349 235.626 2.44943 233.666 3.20806C231.711 4.02004 229.884 5.07166 228.229 6.34172C232.457 8.98468 235.533 12.6479 237.082 17.4709" fill="#000000" fill-rule="evenodd" opacity="1" stroke="none"/>
<path d="M209.531 22.353C210.401 21.3098 211.632 20.5172 213.066 20.1501C216.658 19.1086 220.233 21.5843 220.904 25.0834C220.908 25.1006 220.913 25.1147 220.917 25.1319C221.989 30.7064 225.175 35.4284 229.134 38.5965C233.137 41.87 237.845 43.0439 242.925 43.0492C246.38 42.8855 249.615 41.6547 252.536 39.4429C249.368 36.4041 246.804 32.2859 245.506 27.5811C244.482 28.4293 243.264 28.9536 241.888 29.0207C238.406 29.1226 235.281 26.5039 234.871 23.0044C234.871 22.996 234.867 22.9872 234.867 22.9836C234.253 17.3659 231.341 12.6166 226.804 9.54468C224.54 8.00544 221.883 6.88497 219.002 6.27996C217.559 5.97457 216.063 5.79893 214.531 5.7645C213.022 5.81261 211.495 6.08489 209.959 6.46619C205.749 7.53324 201.972 9.60338 199.042 12.4493C203.658 14.568 207.312 17.9691 209.531 22.353" fill="#197d6d" fill-rule="evenodd" opacity="1" stroke="none"/>
<path d="M182.903 30.9929C183.627 29.8808 184.748 28.9726 186.142 28.4637C189.611 27.1884 193.402 28.8569 194.624 32.1442C194.642 32.1927 194.668 32.2289 194.686 32.277C196.579 37.626 200.401 41.7116 204.73 44.0765C209.17 46.6899 214.2 47.8779 219.077 46.5796C222.382 45.547 225.467 44.2231 228.04 41.72C224.434 39.0241 221.261 35.2024 219.28 30.71C218.406 31.7514 217.294 32.5202 215.957 32.8631C212.594 33.7338 209.112 31.6204 208.163 28.138C208.146 28.0847 208.115 28.0366 208.102 27.9796C206.628 22.5856 203.04 18.2657 198.084 15.7507C193.133 13.275 186.994 13.2613 181.014 15.4025C176.884 16.7692 173.548 19.5724 171.151 22.996C175.984 24.2802 180.008 26.8799 182.903 30.9929" fill="#000000" fill-rule="evenodd" opacity="1" stroke="none"/>
<path d="M160.776 40.6962C162.369 39.7341 164.183 39.4932 165.794 39.9032C167.427 40.3617 168.874 41.4994 169.708 43.0629C169.713 43.0664 169.722 43.0752 169.722 43.0801C172.4 48.0845 176.849 51.6599 181.57 53.5217C186.376 55.5023 191.213 55.185 196.054 53.6938C199.293 52.52 202.016 50.3876 204.147 47.4088C200.229 45.4402 196.566 42.2685 193.94 38.1552C193.212 39.2673 192.206 40.1273 190.908 40.5995C189.267 41.1997 187.51 41.0633 185.966 40.3758C184.465 39.7845 183.159 38.6106 182.44 36.9557C182.435 36.9469 182.431 36.9367 182.427 36.9279C180.176 31.7514 175.984 28.0758 170.737 26.4748C165.56 24.9611 159.069 25.0578 153.751 28.552C150.04 30.7947 147.03 33.8697 145.066 37.4363C150.11 38.1106 154.62 40.2946 158.04 43.8303C158.561 42.5854 159.51 41.4685 160.776 40.6962" fill="#197d6d" fill-rule="evenodd" opacity="1" stroke="none"/>
<path d="M137.484 56.5433C140.432 54.3368 144.541 54.8231 146.686 57.5813C146.721 57.6294 146.769 57.6656 146.805 57.7141C150.194 62.263 155.066 65.0525 159.925 66.0591C164.801 67.0348 170.088 66.8658 174.351 64.1611C175.838 63.2922 177.096 62.0786 178.309 60.8994C179.532 59.7428 180.582 58.3791 181.451 56.8262C177.219 55.3439 172.992 52.5063 169.849 48.9671C169.324 50.2151 168.486 51.2702 167.308 51.9855C164.338 53.7958 160.375 52.7923 158.437 49.7482C158.411 49.7084 158.38 49.6824 158.354 49.6431C155.353 44.9075 150.626 41.822 145.128 40.8652C141.911 40.2999 138.358 40.9274 135.326 42.0082C132.246 43.1061 129.082 44.9336 126.748 47.2191C125.909 48.0399 125.168 48.9534 124.51 49.9203C123.853 50.8823 123.283 51.9013 122.776 52.9476C122.643 53.2252 121.73 55.7816 121.593 55.7852C126.584 55.5901 131.293 56.9988 135.168 59.955C135.437 58.5654 136.319 57.4621 137.484 56.5433" fill="#000000" fill-rule="evenodd" opacity="1" stroke="none"/>
<path d="M115.172 79.5307C115.318 78.1949 115.905 76.8573 116.902 75.7625C119.422 72.9924 123.575 72.8026 126.09 75.3437L126.094 75.349L126.094 75.349C130.093 79.3101 135.428 81.4561 140.512 81.8665C143.062 82.0682 145.569 81.8304 147.89 81.1203C150.225 80.427 152.29 79.1481 154.395 77.7258C157.171 75.6693 159.166 72.8543 160.339 69.4033C155.993 68.6584 151.544 66.6897 147.815 63.53C147.44 64.797 146.725 65.9091 145.618 66.7347C142.749 68.7105 138.936 68.6138 136.518 65.8332C136.505 65.816 136.483 65.8023 136.469 65.7851C132.793 61.5186 127.705 59.2309 122.207 59.2189C119.453 59.2053 116.611 59.7569 113.866 60.8566C111.125 61.9599 108.787 63.9095 106.615 66.2123C103.707 69.4258 101.677 73.1941 100.861 77.1883C105.87 76.3503 110.865 77.1534 115.172 79.5307" fill="#197d6d" fill-rule="evenodd" opacity="1" stroke="none"/>
<path d="M98.1159 101.703C97.8997 101.618 98.2483 99.7909 98.3012 99.5808C98.394 99.2084 98.5043 98.786 98.7073 98.4551C100.631 95.3298 104.969 93.618 108.372 96.0191C108.416 96.054 108.469 96.0712 108.513 96.1021C113.089 99.4599 118.584 100.713 123.557 100.272C128.389 99.677 133.416 97.9829 136.77 94.204C139.069 91.6268 140.485 88.4102 141.355 85.0435C136.752 84.7522 132.131 83.5386 128.036 81.0237C127.891 82.3701 127.387 83.6092 126.456 84.6335C124.122 87.2054 120.013 87.3916 117.202 84.9989C113.001 81.3807 107.33 79.6292 102.035 80.5373C96.717 81.4168 91.3905 84.6644 87.6129 89.7654C85.1946 93.3523 84.0207 97.5636 83.8486 101.663C88.5926 100.031 93.5308 100.008 98.1159 101.703" fill="#000000" fill-rule="evenodd" opacity="1" stroke="none"/>
<path d="M84.6695 126.248C84.4223 124.928 84.5989 123.485 85.2431 122.147C86.8672 118.786 90.7859 117.4 93.928 119.058C93.9412 119.067 93.95 119.067 93.9633 119.072C98.9809 121.706 104.444 122.047 109.554 121.013C114.629 119.938 118.844 117.205 121.584 112.97C123.672 110.212 124.779 106.962 124.921 103.335C120.516 103.878 115.662 103.282 111.161 101.35C111.17 102.665 110.799 103.932 109.969 105.035C108.023 107.907 104.201 108.838 101.108 106.91C101.073 106.888 101.033 106.88 100.998 106.857C96.2448 103.878 90.7065 103.18 85.4285 104.756C82.7983 105.559 80.1373 106.862 77.9308 108.772C75.8169 110.732 73.9811 113.199 72.6043 116.054C70.7993 119.995 69.7138 124.085 70.3889 128.265C74.6475 125.864 79.9122 125.268 84.6695 126.248" fill="#197d6d" fill-rule="evenodd" opacity="1" stroke="none"/>
<path d="M74.9829 152.492C74.493 151.213 74.3915 149.743 74.7666 148.308C75.9405 144.8 79.7578 142.925 83.0763 144.023C83.1161 144.037 83.1602 144.042 83.2043 144.054C88.5706 145.907 94.206 145.488 98.8573 143.613C101.223 142.682 103.191 141.309 105.058 139.708C106.986 138.127 108.562 136.209 109.66 133.926C111.24 130.863 111.443 127.267 111.28 123.799C106.774 124.857 102.251 125.185 97.4672 123.918C97.7143 125.242 97.5863 126.574 96.9906 127.814C95.4814 130.942 91.5846 132.32 88.2705 130.891C88.2573 130.885 88.244 130.885 88.2308 130.877C83.072 128.614 77.2423 128.653 72.4851 131.115C67.6529 133.525 63.412 138.172 61.3555 144.173C60.2522 148.37 60.2302 152.699 61.2937 156.676C65.3669 153.714 70.0933 152.232 74.9829 152.492" fill="#000000" fill-rule="evenodd" opacity="1" stroke="none"/>
<path d="M69.3695 179.91C68.7473 178.727 68.4958 177.298 68.7164 175.833C69.2813 172.147 72.6087 169.667 76.095 170.308C76.1126 170.311 76.1347 170.308 76.1568 170.311C81.8142 171.358 86.9377 170.017 91.5626 167.531C96.0727 164.993 99.4443 161.185 100.671 156.292L100.671 156.288C101.788 153.03 101.982 149.632 101.051 146.133C96.9773 147.932 92.1451 148.794 87.2599 148.274C87.6703 149.53 87.6129 150.823 87.229 152.147C86.3685 155.516 82.8513 157.491 79.365 156.578C79.3121 156.566 79.2591 156.569 79.2062 156.552C73.7958 155.131 68.2971 156.098 63.7077 159.16C58.893 162.178 55.7642 167.471 54.8374 173.754C54.2902 178.051 54.3917 182.275 56.3467 186.065C59.6344 182.514 64.5505 180.387 69.3695 179.91" fill="#197d6d" fill-rule="evenodd" opacity="1" stroke="none"/>
<path d="M67.8603 207.836C67.013 206.758 66.4834 205.386 66.4084 203.904C66.5893 200.215 69.6034 197.301 73.1118 197.364C73.1647 197.364 73.2088 197.35 73.2618 197.355C78.9326 197.545 84.1973 195.474 88.0852 192.302C90.0489 190.713 91.5714 188.82 92.8159 186.724C94.2016 184.642 95.146 182.342 95.5255 179.839C96.1036 176.441 95.371 172.968 94.0251 169.672C90.1945 172.051 85.8389 173.683 80.9316 173.9C81.5539 175.086 81.8231 176.396 81.6157 177.762C81.0905 181.194 77.7631 183.661 74.1753 183.278C74.1665 183.278 74.1532 183.278 74.1444 183.278C68.5134 182.637 63.0104 184.41 59.1931 188.167C55.2655 191.892 52.6619 197.571 52.375 203.904C52.5736 208.229 53.8357 212.364 56.0378 215.845C59.0475 211.825 63.1207 209.024 67.8603 207.836" fill="#000000" fill-rule="evenodd" opacity="1" stroke="none"/>
<path d="M70.5566 235.686C69.6079 234.738 68.9415 233.445 68.7164 231.975C68.156 228.286 70.6096 224.931 74.1444 224.535C74.1532 224.535 74.1665 224.529 74.1753 224.529C79.7931 223.881 84.5194 221.084 88.1734 217.35C91.7215 213.599 93.8044 208.956 93.5175 203.904C93.7162 200.447 92.8291 197.138 90.9227 194.062C87.5644 196.998 83.2043 199.247 78.3853 200.187C79.1223 201.273 79.5239 202.526 79.4488 203.904C79.6342 207.377 76.8672 210.303 73.2618 210.453C73.2088 210.458 73.1647 210.47 73.1118 210.475C67.5205 210.704 62.5558 213.242 59.0783 217.508C57.3529 219.649 55.8966 222.221 55.1243 225.042C54.4844 227.848 54.3609 230.92 54.8374 234.053C55.5436 238.329 57.0572 242.302 59.8374 245.4C62.141 240.996 66.0465 237.562 70.5566 235.686" fill="#197d6d" fill-rule="evenodd" opacity="1" stroke="none"/>
<path d="M77.2733 262.843C76.1612 262.059 75.1815 260.919 74.7666 259.499C73.8399 255.924 75.8478 252.261 79.2149 251.287C79.2635 251.268 79.3121 251.242 79.365 251.228C84.8415 249.742 89.2546 246.224 92.0259 242.059C94.5988 237.91 96.2624 232.964 95.5255 227.968C95.1062 224.543 93.2087 221.463 91.161 218.679C87.9969 222.099 84.4797 224.914 79.8107 226.56C80.7595 227.513 81.4083 228.682 81.6157 230.046C82.1408 233.485 79.696 236.812 76.1568 237.496C76.1347 237.5 76.1171 237.508 76.095 237.513C70.6316 238.537 65.6891 241.878 63.1825 246.577C60.5391 251.287 59.7403 257.486 61.3555 263.635C62.7323 267.742 65.2301 271.304 68.3457 273.991C70.0271 269.256 73.0897 265.377 77.2733 262.843" fill="#000000" fill-rule="evenodd" opacity="1" stroke="none"/>
<path d="M88.0896 288.66C86.9024 288.034 85.8874 286.996 85.2431 285.658C83.6236 282.292 84.9784 278.365 88.2705 276.917C93.4734 274.622 97.1009 270.571 99.4884 265.929C101.792 261.29 102.348 256.272 100.671 251.52C99.8326 248.17 97.9968 245.276 95.2651 242.905C92.9262 246.684 89.4267 250.113 85.1019 252.43C86.1346 253.245 86.8848 254.322 87.229 255.66C88.3367 258.948 86.6244 262.54 83.2043 263.753C83.1602 263.766 83.1249 263.793 83.0852 263.81C77.7984 265.678 73.8002 269.573 71.7437 274.684C70.742 277.239 70.0712 280.147 70.23 283.052C70.3139 284.645 70.6449 286.255 71.0862 287.785C71.8541 290.456 72.8867 292.58 74.418 294.908C75.2389 296.158 76.1656 297.341 77.2291 298.396C77.538 298.704 80.7948 301.043 80.786 301.087C81.5318 296.272 84.365 291.771 88.0896 288.66" fill="#197d6d" fill-rule="evenodd" opacity="1" stroke="none"/>
<path d="M99.2015 310.13C97.123 307.067 98.0894 302.869 101.011 300.973C101.046 300.95 101.073 300.919 101.108 300.897C105.896 297.856 109.082 293.179 110.516 288.368C111.253 285.941 111.434 283.528 111.311 281.083C111.276 278.589 110.755 276.158 109.66 273.881C108.239 270.738 105.578 268.328 102.736 266.308C100.786 270.478 98.2042 274.238 94.2413 277.191C95.4284 277.822 96.3904 278.749 96.9906 279.992C98.4954 283.123 97.1406 287.027 93.9633 288.736C93.95 288.739 93.9456 288.749 93.9324 288.753C88.9324 291.392 85.3667 295.96 84.3208 301.224C83.2043 306.493 84.1399 312.738 87.6129 318.042C90.1945 321.528 93.5485 324.246 97.3083 325.898C97.5466 320.862 99.3428 316.237 102.595 312.574C101.293 312.159 100.089 311.316 99.2015 310.13" fill="#000000" fill-rule="evenodd" opacity="1" stroke="none"/>
<path d="M116.902 332.045C114.4 329.296 114.554 325.146 117.268 322.755C121.62 318.987 123.791 314.124 124.66 309.018C125.499 303.898 124.634 298.868 121.584 294.838C119.665 291.974 117.18 289.666 113.853 288.223C112.723 292.54 110.38 296.86 106.929 300.354C108.182 300.809 109.109 301.692 109.969 302.772C112.057 305.553 111.404 309.542 108.513 311.705C108.469 311.737 108.438 311.779 108.394 311.816C103.91 315.16 101.231 320.063 100.75 325.562C100.49 328.527 100.852 331.395 101.942 334.175C102.511 335.632 103.244 337.018 104.1 338.329C105.565 340.571 107.061 342.305 109.14 344.031C110.309 345.002 111.576 345.853 112.935 346.537C113.332 346.735 117.215 347.992 117.224 348.046C116.545 343.205 117.732 338.275 120.472 334.105C119.166 333.845 117.899 333.143 116.902 332.045" fill="#197d6d" fill-rule="evenodd" opacity="1" stroke="none"/>
<path d="M136.518 341.974C140.207 337.658 141.897 332.235 141.88 327.182C141.862 324.653 141.412 322.207 140.494 319.98C139.581 317.754 138.504 315.443 136.77 313.602C134.453 311.038 131.417 309.33 127.868 308.435C127.467 312.804 125.9 317.332 123.036 321.276C124.347 321.541 125.53 322.15 126.456 323.174C128.791 325.748 128.628 329.89 126.094 332.455L126.094 332.459L126.094 332.459C122.039 336.484 120.185 341.695 120.627 347.151C120.847 349.869 121.637 352.628 122.974 355.245C124.32 357.847 126.125 360.411 128.725 362.229C132.189 364.837 136.169 366.484 140.229 366.991C138.998 362.074 139.378 357.106 141.421 352.64C140.062 352.614 138.672 352.15 137.484 351.262C134.422 349.132 134.228 344.679 136.478 342.031C136.496 342.014 136.505 341.991 136.518 341.974" fill="#000000" fill-rule="evenodd" opacity="1" stroke="none"/>
<path d="M164.775 368.063C163.455 368.192 162.043 367.878 160.776 367.11C157.612 365.191 156.557 361.18 158.38 358.178C158.402 358.139 158.411 358.099 158.437 358.059C161.443 353.245 162.255 347.715 161.403 342.857C160.719 337.692 158.46 333.086 154.395 330.08C151.509 328.156 148.645 326.45 145.013 326.079C145.176 330.566 144.188 335.403 141.906 339.768C143.168 339.921 144.536 340.218 145.618 341.073C148.407 343.148 148.932 347.18 146.805 350.094C146.769 350.142 146.747 350.195 146.712 350.244C143.416 354.758 142.281 360.248 143.407 365.675C144.514 371.148 148.363 375.901 153.751 379.256C155.622 380.345 157.515 381.307 159.576 381.762C161.646 382.198 163.746 382.362 165.825 382.243C163.83 377.661 163.34 372.917 164.775 368.063" fill="#197d6d" fill-rule="evenodd" opacity="1" stroke="none"/>
<path d="M190.304 379.528C188.998 379.899 187.537 379.856 186.142 379.344C184.395 378.704 183.075 377.432 182.391 375.923C181.747 374.32 181.729 372.512 182.44 370.852C184.69 365.644 184.717 359.938 183.234 355.084C181.778 350.111 178.548 346.489 174.351 343.646C171.403 341.841 168.04 341.047 164.377 341.236C165.282 345.525 165.083 350.362 163.499 354.979C163.724 354.331 166.659 355.38 167.047 355.57C168.627 356.329 169.739 358.173 170.216 359.824C170.666 361.4 170.573 363.126 169.713 364.75C167.056 369.737 166.791 375.301 168.808 380.407C170.856 385.375 174.955 390.433 181.014 392.405C185.083 393.91 189.368 394.343 193.384 393.65C190.767 389.29 189.664 384.405 190.304 379.528" fill="#000000" fill-rule="evenodd" opacity="1" stroke="none"/>
<path d="M213.066 387.658C209.496 386.744 207.312 383.236 208.132 379.837C208.15 379.78 208.146 379.723 208.163 379.669C209.606 374.181 208.746 368.642 206.504 364.232C204.258 359.74 200.816 355.768 196.054 354.113C192.753 353.072 189.404 352.574 185.895 353.121C187.369 357.358 187.793 362.405 186.959 367.101C187.012 366.815 189.064 366.818 189.324 366.858C193.358 367.511 196.125 371.423 194.686 375.53C194.668 375.579 194.668 375.624 194.651 375.672C192.819 380.962 193.353 386.577 196.032 391.471C198.786 396.139 203.803 399.757 209.959 401.341C214.13 402.574 218.494 401.983 222.386 400.574C219.116 396.818 217.272 392.295 217.161 387.409C215.943 387.918 214.505 388.028 213.066 387.658" fill="#197d6d" fill-rule="evenodd" opacity="1" stroke="none"/>
<path d="M240.921 391.793C237.183 391.669 234.46 388.452 234.871 384.829C234.871 384.82 234.871 384.812 234.871 384.806C235.48 379.163 233.816 373.698 230.957 369.488C229.522 367.384 227.775 365.593 225.771 364.238C224.765 363.558 223.697 362.993 222.567 362.552C221.46 362.023 220.304 361.536 219.077 361.228C215.74 360.354 212.298 360.566 208.865 361.814C210.988 365.663 212.228 370.359 212.082 375.244C213.305 374.736 214.624 374.6 215.957 374.943C219.297 375.927 221.566 379.135 220.917 382.676C220.913 382.693 220.917 382.71 220.913 382.724C219.862 388.266 221.257 393.658 224.69 397.94C228.11 402.122 233.534 405.698 239.884 405.785C244.213 406.015 248.423 405.163 252.055 403.315C248.273 399.921 245.78 395.582 244.95 390.738C243.812 391.474 242.404 391.867 240.921 391.793" fill="#000000" fill-rule="evenodd" opacity="1" stroke="none"/>
<path d="M272.92 390.336C271.905 391.183 270.563 391.717 269.081 391.793C265.4 391.983 262.28 389.273 262.073 385.782C262.068 385.725 262.055 385.675 262.051 385.618C261.821 379.947 259.372 374.917 255.925 371.373C252.448 367.658 247.978 364.953 242.925 364.758C241.199 364.648 239.478 364.931 237.81 365.243C236.146 365.508 234.513 366.037 232.916 366.832C235.577 370.455 237.479 375.163 238.079 379.856C239.222 379.118 240.506 378.716 241.888 378.787C245.361 378.959 248.07 382.014 247.955 385.618C247.951 385.675 247.969 385.725 247.964 385.782C247.783 391.372 249.946 396.572 253.935 400.447C257.938 404.184 263.785 406.077 270.118 405.785C272.28 405.644 274.381 405.358 276.34 404.599C278.295 403.788 280.122 402.736 281.772 401.466C277.545 398.823 274.473 395.16 272.92 390.336" fill="#197d6d" fill-rule="evenodd" opacity="1" stroke="none"/>
<path d="M300.475 385.455C299.605 386.496 298.374 387.29 296.936 387.658C293.348 388.699 289.773 386.223 289.089 382.676C288.017 377.101 284.831 372.379 280.872 369.211C276.87 365.936 272.161 364.763 267.082 364.758C263.626 364.922 260.391 366.153 257.47 368.363C260.639 371.404 263.202 375.522 264.5 380.226C264.416 379.935 266.309 379.154 266.552 379.078C270.466 377.842 274.672 380.84 275.14 384.824C275.749 390.442 278.666 395.191 283.202 398.261C285.466 399.802 288.123 400.923 291.004 401.528C292.448 401.831 293.944 402.009 295.47 402.043C298.264 402.11 301.49 401.09 304.023 399.983C305.342 399.404 306.613 398.713 307.809 397.909C308.14 397.689 310.859 395.31 310.965 395.358C306.349 393.239 302.695 389.837 300.475 385.455" fill="#000000" fill-rule="evenodd" opacity="1" stroke="none"/>
<path d="M327.103 376.815C326.379 377.927 325.254 378.835 323.864 379.344C320.391 380.619 316.604 378.951 315.382 375.663C315.364 375.615 315.338 375.579 315.32 375.53C313.427 370.181 309.605 366.096 305.272 363.729C300.837 361.117 295.806 359.93 290.929 361.228C287.624 362.26 284.539 363.584 281.967 366.086C285.572 368.783 288.745 372.605 290.726 377.097C291.6 376.056 292.712 375.287 294.045 374.943C297.412 374.074 300.894 376.187 301.843 379.669C301.86 379.723 301.891 379.771 301.905 379.828C303.374 385.222 306.966 389.542 311.918 392.057C316.874 394.532 323.012 394.546 328.992 392.405C333.122 391.038 336.459 388.235 338.85 384.812C334.023 383.527 329.998 380.928 327.103 376.815" fill="#197d6d" fill-rule="evenodd" opacity="1" stroke="none"/>
<path d="M349.23 367.11C347.637 368.073 345.819 368.314 344.212 367.904C342.575 367.446 341.132 366.306 340.293 364.744C340.293 364.741 340.285 364.732 340.28 364.727C337.606 359.723 333.158 356.147 328.431 354.286C323.63 352.305 318.789 352.622 313.952 354.113C310.709 355.287 307.99 357.42 305.859 360.399C309.777 362.365 313.44 365.539 316.066 369.652C316.79 368.54 317.8 367.68 319.093 367.208C320.735 366.608 322.496 366.744 324.04 367.432C325.541 368.023 326.843 369.197 327.566 370.852C327.571 370.861 327.575 370.871 327.58 370.88C329.83 376.056 334.023 379.731 339.27 381.333C344.446 382.846 350.938 382.75 356.255 379.256C359.967 377.013 362.972 373.938 364.94 370.371C359.892 369.697 355.386 367.511 351.966 363.977C351.441 365.222 350.496 366.337 349.23 367.11" fill="#000000" fill-rule="evenodd" opacity="1" stroke="none"/>
<path d="M372.522 351.262L372.522 351.262C369.574 353.469 365.461 352.984 363.321 350.226C363.285 350.178 363.237 350.142 363.201 350.094C359.812 345.544 354.94 342.755 350.082 341.749C345.205 340.773 339.918 340.942 335.655 343.646C334.164 344.515 332.91 345.729 331.697 346.908C330.475 348.065 329.424 349.428 328.555 350.981C332.783 352.464 337.015 355.301 340.152 358.84C340.682 357.592 341.52 356.537 342.699 355.822C345.669 354.012 349.631 355.013 351.569 358.059C351.591 358.099 351.626 358.125 351.648 358.165C354.649 362.9 359.38 365.986 364.878 366.942C370.205 367.64 376.207 366.042 381.277 362.229C384.856 359.757 387.019 355.856 388.413 352.023C383.422 352.215 378.713 350.809 374.834 347.853C374.569 349.242 373.687 350.345 372.522 351.262" fill="#197d6d" fill-rule="evenodd" opacity="1" stroke="none"/>
<path d="M394.834 328.275C394.688 329.613 394.101 330.95 393.104 332.045C390.584 334.815 386.432 335.005 383.916 332.464C383.916 332.464 383.907 332.459 383.907 332.455C379.914 328.495 374.578 326.351 369.494 325.941C366.944 325.737 364.437 325.977 362.116 326.687C359.777 327.38 357.716 328.659 355.607 330.08C352.835 332.136 350.841 334.953 349.667 338.404C354.014 339.149 358.462 341.118 362.191 344.277C362.562 343.01 363.281 341.895 364.384 341.073C367.257 339.097 371.07 339.194 373.488 341.974C373.501 341.991 373.523 342.006 373.537 342.023C377.213 346.289 382.301 348.575 387.8 348.589C390.553 348.603 393.395 348.051 396.14 346.951C398.881 345.848 401.22 343.898 403.391 341.595C406.299 338.382 408.325 334.614 409.145 330.619C404.137 331.457 399.141 330.654 394.834 328.275" fill="#000000" fill-rule="evenodd" opacity="1" stroke="none"/>
<path d="M411.89 306.105C411.952 307.455 411.727 308.964 410.805 310.13C408.598 313.086 404.494 313.805 401.634 311.785C401.586 311.754 401.537 311.737 401.493 311.705C396.917 308.347 391.418 307.092 386.445 307.534C381.617 308.13 376.591 309.825 373.237 313.602C370.933 316.179 369.521 319.397 368.651 322.759C373.254 323.055 377.875 324.269 381.97 326.784C382.116 325.438 382.619 324.198 383.545 323.174C385.884 320.602 389.993 320.416 392.738 322.755C392.755 322.773 392.782 322.79 392.8 322.809C397.005 326.427 402.671 328.179 407.972 327.27C413.289 326.391 418.616 323.143 422.393 318.042C424.812 314.453 425.985 310.244 426.158 306.144C421.414 307.777 416.471 307.799 411.89 306.105" fill="#197d6d" fill-rule="evenodd" opacity="1" stroke="none"/>
<path d="M425.337 281.559C425.584 282.879 425.403 284.323 424.763 285.658C423.139 289.021 419.22 290.408 416.078 288.749C416.065 288.739 416.052 288.739 416.043 288.73C411.025 286.101 405.562 285.76 400.447 286.792C395.377 287.87 391.162 290.602 388.422 294.838C386.334 297.596 385.222 300.844 385.081 304.472C389.49 303.929 394.344 304.52 398.845 306.458C398.837 305.143 399.207 303.876 400.037 302.772C401.983 299.9 405.805 298.97 408.898 300.897C408.934 300.919 408.973 300.928 409.009 300.95C413.761 303.929 419.3 304.625 424.578 303.05C427.208 302.249 429.869 300.945 432.075 299.035C434.189 297.075 436.025 294.608 437.402 291.754C439.207 287.813 440.292 283.722 439.617 279.542C435.354 281.943 430.094 282.54 425.337 281.559" fill="#000000" fill-rule="evenodd" opacity="1" stroke="none"/>
<path d="M435.023 255.315C435.513 256.595 435.61 258.065 435.24 259.499C434.066 263.007 430.248 264.883 426.93 263.785C426.886 263.771 426.842 263.766 426.802 263.753C421.436 261.899 415.796 262.319 411.149 264.195C408.783 265.126 406.815 266.493 404.949 268.099C403.02 269.68 401.445 271.604 400.346 273.881C398.766 276.943 398.563 280.54 398.726 284.009C403.232 282.95 407.755 282.623 412.535 283.89C412.292 282.566 412.415 281.233 413.016 279.992C414.525 276.86 418.422 275.488 421.736 276.917C421.749 276.922 421.762 276.922 421.775 276.931C426.934 279.194 432.764 279.154 437.521 276.693C442.353 274.283 446.594 269.635 448.651 263.635C449.754 259.437 449.776 255.108 448.708 251.132C444.635 254.093 439.909 255.576 435.023 255.315" fill="#197d6d" fill-rule="evenodd" opacity="1" stroke="none"/>
<path d="M440.637 227.898C441.259 229.08 441.51 230.509 441.285 231.975C440.725 235.66 437.397 238.139 433.849 237.496C428.192 236.45 423.068 237.791 418.444 240.275C413.933 242.812 410.562 246.622 409.335 251.52C408.219 254.777 408.02 258.175 408.951 261.674C413.029 259.873 417.861 259.013 422.742 259.534C422.433 259.499 422.464 257.451 422.486 257.205C422.826 253.135 426.537 250.153 430.641 251.228C430.694 251.242 430.747 251.239 430.8 251.256C436.21 252.676 441.709 251.709 446.294 248.648C451.113 245.624 454.238 240.337 455.164 234.053C455.716 229.754 455.614 225.531 453.659 221.742C450.372 225.293 445.456 227.42 440.637 227.898" fill="#000000" fill-rule="evenodd" opacity="1" stroke="none"/>
<path d="M209.846 62.663C186.182 62.663 170.665 89.4302 170.665 101.844C170.665 105.723 171.829 106.499 174.544 106.499C177.26 106.499 191.225 91.3699 201.312 91.3699C232.346 91.3699 246.7 143.741 251.743 178.267C252.519 184.474 252.131 184.474 249.803 191.844C237.777 229.086 198.596 289.603 178.812 319.086C174.932 324.905 174.932 323.741 174.932 329.172C174.932 336.155 187.734 340.81 193.165 340.81C196.269 340.81 200.924 329.172 202.087 326.845C219.932 295.034 247.088 243.439 255.622 219.775C256.398 217.836 257.562 218.224 257.95 220.163C261.441 246.931 269.588 289.603 277.346 315.207C283.165 334.603 290.536 339.646 303.338 339.646C320.019 339.646 341.355 328.008 341.355 298.913C341.355 296.974 339.027 295.422 337.088 295.422C333.984 295.422 323.122 309 309.157 308.612C302.95 308.612 290.924 302.793 286.269 286.5C269.588 227.922 259.501 151.111 254.846 125.508C249.803 98.3527 236.225 62.663 209.846 62.663Z" fill="#197d6d" fill-rule="evenodd" opacity="1" stroke="#197d6d" stroke-linecap="butt" stroke-linejoin="miter" stroke-width="5"/>
<g fill="#197d6d" opacity="1" stroke="none">
<path clip-path="url(#TextBounds)" d="M68.8753 420.219L68.8753 493.123L87.9073 493.123L87.9073 466.811L120.563 466.811L120.563 451.627L87.9073 451.627L87.9073 435.403L123.267 435.403L123.371 420.219L68.8753 420.219Z" fill-rule="evenodd"/>
<path clip-path="url(#TextBounds)" d="M157.379 436.131C148.123 436.131 140.011 438.315 131.171 442.267L136.267 454.747C142.299 451.835 148.435 450.275 153.115 450.275C160.187 450.275 163.827 453.395 163.827 458.699L163.827 459.323L149.163 459.323C135.227 459.531 127.635 465.667 127.635 476.379C127.635 486.675 134.811 493.955 146.875 493.955C154.467 493.955 160.187 491.459 163.827 486.779L163.827 493.123L182.027 493.123L182.027 456.515C181.923 443.619 172.875 436.131 157.379 436.131ZM152.595 481.371C147.811 481.371 145.003 478.875 145.003 475.027C145.003 471.075 147.603 469.203 152.803 469.203L163.827 469.203L163.827 474.091C162.683 478.355 158.107 481.371 152.595 481.371Z" fill-rule="evenodd"/>
<path clip-path="url(#TextBounds)" d="M230.907 436.859L230.907 464.627C230.907 472.011 226.955 477.211 220.403 477.315C214.891 477.315 211.355 473.467 211.355 467.123L211.355 436.859L192.843 436.859L192.843 472.427C192.843 485.531 200.747 493.955 212.915 493.955C220.923 493.851 227.059 490.523 230.907 483.971L230.907 493.123L249.419 493.123L249.419 436.859L230.907 436.859Z" fill-rule="evenodd"/>
<path clip-path="url(#TextBounds)" d="M300.691 436.131C292.475 436.131 286.027 439.563 282.075 446.011L282.075 436.859L263.563 436.859L263.563 493.123L282.075 493.123L282.075 463.379C282.803 457.035 286.859 452.771 293.099 452.667C298.923 452.667 302.667 456.619 302.667 462.963L302.667 493.123L321.075 493.123L321.075 457.659C321.075 444.451 312.963 436.131 300.691 436.131Z" fill-rule="evenodd"/>
<path clip-path="url(#TextBounds)" d="M387.219 493.123L407.499 493.123L376.923 420.219L357.371 420.219L326.067 493.123L345.619 493.123L350.715 480.227L382.227 480.227L387.219 493.123ZM356.435 465.667L366.627 439.667L376.611 465.667L356.435 465.667Z" fill-rule="evenodd"/>
<path clip-path="url(#TextBounds)" d="M414.051 420.219L414.051 493.123L433.083 493.123L433.083 420.219L414.051 420.219Z" fill-rule="evenodd"/>
</g>
</g>
</svg>
