<?xml version="1.0" encoding="UTF-8" standalone="no"?>
<!DOCTYPE svg PUBLIC "-//W3C//DTD SVG 1.1//EN" "http://www.w3.org/Graphics/SVG/1.1/DTD/svg11.dtd">
<!-- Created with Vectornator (http://vectornator.io/) -->
<svg height="100%" stroke-miterlimit="10" style="fill-rule:nonzero;clip-rule:evenodd;stroke-linecap:round;stroke-linejoin:round;" version="1.1" viewBox="0 0 512 120" width="100%" xml:space="preserve" xmlns="http://www.w3.org/2000/svg" xmlns:vectornator="http://vectornator.io" xmlns:xlink="http://www.w3.org/1999/xlink">
<defs>
<clipPath id="TextBounds">
<rect height="143.675" width="54.3266" x="311.84" y="-13.9387"/>
</clipPath>
</defs>
<g id="Layer-1" vectornator:layerName="Layer 1">
<path d="M14.8315 5.16495L14.8315 93.2107L37.8163 93.2107L37.8163 61.4338L77.2548 61.4338L77.2548 43.0962L37.8163 43.0962L37.8163 23.5026L80.5204 23.5026L80.646 5.16495L14.8315 5.16495Z" fill="#0f5d77" fill-rule="nonzero" opacity="1" stroke="none"/>
<path d="M146.153 31.2534L153.285 31.2534L128.101 87.1796L122.543 87.1796L97.1623 31.3518L104.54 31.3026L111.279 46.2556L139.267 46.1572L146.153 31.2534ZM134.927 50.3556L111.337 50.5125L123.106 76.6136L134.927 50.3556Z" fill="#0f5d77" fill-rule="nonzero" opacity="1" stroke="#0f5d77" stroke-linecap="butt" stroke-linejoin="miter" stroke-width="11"/>
<path d="M215.635 25.261L215.635 58.7962C215.635 67.7138 210.863 73.9938 202.95 74.1194C196.293 74.1194 192.023 69.4722 192.023 61.8106L192.023 25.261L169.666 25.261L169.666 117.577L192.023 117.577L192.023 94.2155L193.907 94.2155C203.578 94.0899 210.988 90.0707 215.635 82.1579L215.635 93.2107L237.992 93.2107L237.992 25.261L215.635 25.261Z" fill="#0f5d77" fill-rule="nonzero" opacity="1" stroke="none"/>
<path d="M299.913 24.3818C289.991 24.3818 282.204 28.5266 277.431 36.3138L277.431 25.261L255.074 25.261L255.074 93.2107L277.431 93.2107L277.431 57.289C278.31 49.6274 283.208 44.4778 290.744 44.3522C297.778 44.3522 302.3 49.125 302.3 56.7866L302.3 93.2107L324.531 93.2107L324.531 50.381C324.531 34.4298 314.734 24.3818 299.913 24.3818Z" fill="#0f5d77" fill-rule="nonzero" opacity="1" stroke="none"/>
<path d="M440.74 93.2107L465.232 93.2107L428.305 5.16495L404.693 5.16495L366.887 93.2107L390.5 93.2107L396.654 77.6363L434.711 77.6363L440.74 93.2107ZM403.562 60.0522L415.871 28.6522L427.929 60.0522L403.562 60.0522Z" fill="#0f5d77" fill-rule="nonzero" opacity="1" stroke="none"/>
<path d="M476.46 5.16495L476.46 93.2107L499.445 93.2107L499.445 5.16495L476.46 5.16495Z" fill="#0f5d77" fill-rule="nonzero" opacity="1" stroke="none"/>
<path clip-path="url(#TextBounds)" d="M339.003 85.7957C340.628 85.7957 341.999 85.2371 343.116 84.1199C344.233 83.0027 344.792 81.6316 344.792 80.0066C344.792 78.3816 344.233 77.0105 343.116 75.8933C341.999 74.7761 340.628 74.2175 339.003 74.2175C337.378 74.2175 336.007 74.7761 334.89 75.8933C333.772 77.0105 333.214 78.3816 333.214 80.0066C333.214 81.6316 333.772 83.0027 334.89 84.1199C336.007 85.2371 337.378 85.7957 339.003 85.7957ZM339.003 46.491C340.628 46.491 341.999 45.9324 343.116 44.8152C344.233 43.698 344.792 42.3269 344.792 40.7019C344.792 39.0769 344.233 37.7058 343.116 36.5886C341.999 35.4714 340.628 34.9129 339.003 34.9129C337.378 34.9129 336.007 35.4714 334.89 36.5886C333.772 37.7058 333.214 39.0769 333.214 40.7019C333.214 42.3269 333.772 43.698 334.89 44.8152C336.007 45.9324 337.378 46.491 339.003 46.491Z" fill="#0f5d77" opacity="1" stroke="#0f5d77" stroke-linecap="butt" stroke-linejoin="miter" stroke-width="7"/>
</g>
</svg>
