<?xml version="1.0" encoding="UTF-8" standalone="no"?>
<!-- Created with Inkscape (http://www.inkscape.org/) -->

<svg
   width="60mm"
   height="80mm"
   viewBox="0 0 60 80"
   version="1.1"
   id="svg5"
   inkscape:version="1.4.2 (ebf0e940d0, 2025-05-08)"
   sodipodi:docname="logo-faun-lambda.svg"
   inkscape:export-filename="logo-faun-lambda-100.png"
   inkscape:export-xdpi="42.333332"
   inkscape:export-ydpi="42.333332"
   xmlns:inkscape="http://www.inkscape.org/namespaces/inkscape"
   xmlns:sodipodi="http://sodipodi.sourceforge.net/DTD/sodipodi-0.dtd"
   xmlns="http://www.w3.org/2000/svg"
   xmlns:svg="http://www.w3.org/2000/svg">
  <sodipodi:namedview
     id="namedview7"
     pagecolor="#ffffff"
     bordercolor="#000000"
     borderopacity="0.25"
     inkscape:showpageshadow="2"
     inkscape:pageopacity="0.0"
     inkscape:pagecheckerboard="0"
     inkscape:deskcolor="#d1d1d1"
     inkscape:document-units="mm"
     showgrid="false"
     inkscape:zoom="1.07"
     inkscape:cx="298.59813"
     inkscape:cy="263.08411"
     inkscape:window-width="1870"
     inkscape:window-height="1131"
     inkscape:window-x="0"
     inkscape:window-y="0"
     inkscape:window-maximized="1"
     inkscape:current-layer="layer1"
     inkscape:export-bgcolor="#00000000" />
  <defs
     id="defs2">
    <inkscape:path-effect
       effect="skeletal"
       id="path-effect12"
       is_visible="true"
       lpeversion="1"
       pattern="m 79.389751,228.12589 a 14.279433,14.279433 0 0 0 -9.427331,3.56826 l -6.434749,0.57206 h 5.820833 13.160437 l -11.95896,1.0635 a 14.279433,14.279433 0 0 0 8.83977,3.07733 14.279433,14.279433 0 0 0 10.046932,-4.14703 14.279433,14.279433 0 0 0 -10.046932,-4.13412 z"
       copytype="single_stretched"
       prop_scale="1.9492353"
       scale_y_rel="false"
       spacing="0"
       normal_offset="0"
       tang_offset="0"
       prop_units="false"
       vertical_pattern="false"
       hide_knot="false"
       fuse_tolerance="0" />
    <inkscape:path-effect
       effect="skeletal"
       id="path-effect9"
       is_visible="true"
       lpeversion="1"
       pattern="m 79.389751,228.12589 a 14.279433,14.279433 0 0 0 -9.427331,3.56826 l -6.434749,0.57206 h 5.820833 13.160437 l -11.95896,1.0635 a 14.279433,14.279433 0 0 0 8.83977,3.07733 14.279433,14.279433 0 0 0 10.046932,-4.14703 14.279433,14.279433 0 0 0 -10.046932,-4.13412 z"
       copytype="single_stretched"
       prop_scale="1.9492353"
       scale_y_rel="false"
       spacing="0"
       normal_offset="0"
       tang_offset="0"
       prop_units="false"
       vertical_pattern="false"
       hide_knot="false"
       fuse_tolerance="0" />
    <inkscape:path-effect
       effect="skeletal"
       id="path-effect8"
       is_visible="true"
       lpeversion="1"
       pattern="m 79.389751,228.12589 a 14.279433,14.279433 0 0 0 -9.427331,3.56826 l -6.434749,0.57206 h 5.820833 13.160437 l -11.95896,1.0635 a 14.279433,14.279433 0 0 0 8.83977,3.07733 14.279433,14.279433 0 0 0 10.046932,-4.14703 14.279433,14.279433 0 0 0 -10.046932,-4.13412 z"
       copytype="single_stretched"
       prop_scale="1.9492353"
       scale_y_rel="false"
       spacing="0"
       normal_offset="0"
       tang_offset="0"
       prop_units="false"
       vertical_pattern="false"
       hide_knot="false"
       fuse_tolerance="0" />
    <inkscape:path-effect
       effect="skeletal"
       id="path-effect7"
       is_visible="true"
       lpeversion="1"
       pattern="m 79.389751,228.12589 a 14.279433,14.279433 0 0 0 -9.427331,3.56826 l -6.434749,0.57206 h 5.820833 13.160437 l -11.95896,1.0635 a 14.279433,14.279433 0 0 0 8.83977,3.07733 14.279433,14.279433 0 0 0 10.046932,-4.14703 14.279433,14.279433 0 0 0 -10.046932,-4.13412 z"
       copytype="single_stretched"
       prop_scale="1.9492353"
       scale_y_rel="false"
       spacing="0"
       normal_offset="0"
       tang_offset="0"
       prop_units="false"
       vertical_pattern="false"
       hide_knot="false"
       fuse_tolerance="0" />
    <inkscape:path-effect
       effect="fill_between_many"
       method="originald"
       linkedpaths="#path436,0,1"
       id="path-effect1387-3"
       is_visible="true"
       lpeversion="0"
       join="true"
       close="true"
       autoreverse="true" />
  </defs>
  <g
     inkscape:label="Layer 1"
     inkscape:groupmode="layer"
     id="layer1">
    <g
       id="g12"
       transform="matrix(0.81374214,0,0,0.81374214,-8.7180515,-47.853828)">
      <text
         xml:space="preserve"
         style="font-size:122.631px;fill:#006241;fill-opacity:1;stroke:#006241;stroke-width:2.41399;stroke-dasharray:none;stroke-opacity:1"
         x="19.393639"
         y="149.59148"
         id="text113"><tspan
           sodipodi:role="line"
           style="font-style:normal;font-variant:normal;font-weight:bold;font-stretch:normal;font-size:122.631px;font-family:'EB Garamond';-inkscape-font-specification:'EB Garamond';fill:#006241;fill-opacity:1;stroke:#006241;stroke-width:2.41399;stroke-dasharray:none;stroke-opacity:1"
           x="19.393639"
           y="149.59148"
           id="tspan273">λ</tspan></text>
      <path
         style="opacity:1;fill:none;stroke-width:0.264583"
         d="m 15.784801,137.2526 c 0.521847,-0.1982 1.072121,-0.36503 1.57848,-0.60133 0.18305,-0.0854 0.341094,-0.21969 0.52616,-0.30066 0.435531,-0.19054 0.909917,-0.27869 1.352982,-0.451 1.11187,-0.43239 2.225693,-0.92597 3.307292,-1.42814 1.079266,-0.50109 2.144042,-1.01972 3.232127,-1.50332 0.93748,-0.41666 1.848107,-0.89483 2.856296,-1.12748 0.321112,-0.0741 0.651743,-0.0983 0.977154,-0.15034 1.097767,-0.17564 2.193915,-0.39532 3.307292,-0.45099 0.50048,-0.025 1.002903,0.0264 1.503315,0 1.021175,-0.0537 0.343963,-0.12937 1.428149,-0.0752 0.502976,0.0252 1.000337,0.12519 1.503315,0.15034 0.250238,0.0125 0.502481,-0.0262 0.751655,0 0.483811,0.0509 0.950256,0.20963 1.428149,0.30066 0.27518,0.0524 0.557475,0.0734 0.826823,0.15033 0.518941,0.14827 0.996884,0.41475 1.503315,0.60133 1.430247,0.52693 2.814693,1.18416 4.20928,1.80397 0.958839,0.42615 1.965862,0.72092 2.931464,1.12749 1.819418,0.76607 3.604866,1.61471 5.41193,2.4053 0.589243,0.2578 1.199677,0.39989 1.803977,0.60133 0.80204,0.26734 1.621713,0.57933 2.405303,0.90199 1.077079,0.4435 2.175881,0.86006 3.232127,1.35298 0.893484,0.41696 0.144719,0.21905 1.127487,0.52616 1.511996,0.4725 3.446359,0.85313 5.036103,0.67649 1.171112,-0.13012 2.519931,-0.94624 3.532788,-1.50331 0.512045,-0.28163 0.975696,-0.65075 1.503315,-0.90199 0.264776,-0.12609 0.562258,-0.17414 0.826823,-0.30066 1.50233,-0.71851 2.820842,-1.77505 4.284445,-2.55564 0.511723,-0.27292 1.074513,-0.45768 1.578481,-0.75166 0.787148,-0.45917 0.106775,-0.15914 0.901988,-0.52616 0.31686,-0.14624 0.670787,-0.20872 0.977154,-0.37582 0.140843,-0.0768 0.23826,-0.21813 0.37583,-0.30067 0.115697,-0.0694 0.260128,-0.0809 0.375827,-0.15033 0.201473,-0.12088 0.460021,-0.4059 0.676492,-0.52616 0.117946,-0.0655 0.257882,-0.0848 0.375828,-0.15033 0.337801,-0.18767 0.252727,-0.22313 0.526161,-0.451 0.32019,-0.26682 0.688482,-0.4194 1.052319,-0.60132 0.115501,-0.0577 0.37583,-0.115 0.37583,-0.2255"
         id="path1" />
      <path
         style="opacity:1;fill:#33bc00;fill-opacity:1;stroke:none;stroke-width:0.264583;stroke-opacity:1"
         d="m 132.78872,150.5855 c -2.93706,-0.57957 -5.95701,-0.75817 -8.94661,-0.509 -8.56914,0.9985 -15.25442,5.05884 -19.36557,10.11431 -5.733451,2.51874 -11.109095,5.81343 -16.105973,9.40668 4.699599,-2.96609 9.67553,-5.65445 14.850673,-7.72567 6.5825,-2.63449 13.4873,-4.27056 20.55571,-4.20985 5.49591,0.0472 10.87062,1.26803 15.93979,3.34895 -5.1951,-1.77413 -10.59165,-2.65117 -15.94836,-2.3511 -5.79066,0.2946 -11.34543,1.76084 -16.64556,3.97119 5.61499,0.99276 11.24808,1.62427 16.58895,2.61756 2.0042,0.29218 3.96639,0.64079 5.97315,1.03844 8.40342,1.64971 17.66797,4.11322 26.69229,5.41826 -2.22422,-9.09093 -10.58302,-18.54388 -23.58849,-21.11977 z"
         id="path6"
         transform="matrix(-0.22954826,0.11765031,0.13252976,0.20377631,50.197833,95.486674)"
         inkscape:original-d="m 88.370832,169.59791 c 24.711518,-15.59634 47.038808,-16.93706 67.997918,2.11667"
         inkscape:path-effect="#path-effect7" />
      <path
         style="opacity:1;fill:#33bc00;fill-opacity:1;stroke:none;stroke-width:0.264583;stroke-opacity:1"
         d="m 158.31043,240.55528 c -1.51403,1.14347 -2.92848,2.30178 -4.26682,3.42606 -2.21732,1.8357 -4.14111,3.63641 -6.06918,5.24524 -2.0071,1.6786 -3.95656,3.26344 -6.26766,4.55653 -1.05211,0.60706 -2.19854,1.13955 -3.40033,1.60989 -1.87783,-0.2262 -3.75264,-0.73579 -5.54483,-1.4756 -3.8573,-1.59031 -7.35272,-4.16434 -10.52375,-7.0615 2.98931,3.07388 6.33621,5.86692 10.19064,7.74511 1.25822,0.61311 2.57401,1.11599 3.92404,1.48627 1.75249,0.48066 3.56267,0.73787 5.37951,0.7227 2.95195,-0.0247 5.87089,-0.74692 8.5996,-1.87339 l 0,0 c 2.85447,-1.17839 5.52113,-2.77136 8.07875,-4.50208 l 0,0 c 4.1423,-2.80304 8.00206,-6.01208 12.08306,-8.89811 -3.91033,3.12737 -7.56122,6.55157 -11.58577,9.633 -2.48165,1.90285 -5.11515,3.6884 -8.02838,5.09379 0,0 0,0 0,0 -2.7931,1.3495 -5.87179,2.29182 -9.1309,2.50566 -0.71193,0.0417 -1.42487,0.0469 -2.13615,0.0173 0.66118,0.39456 1.3765,0.74882 2.14508,1.05214 3.23369,1.2491 7.09854,1.5434 10.93202,0.80943 3.61447,-0.6725 7.04103,-2.03423 10.08844,-3.75916 1.87694,-1.0508 3.62309,-2.21344 5.24372,-3.42897 3.64226,-2.73958 6.62791,-5.73092 9.27625,-8.45537 0,0 0,0 0,0 1.88713,-1.9134 3.46745,-3.77281 5.23291,-5.39425 1.85825,-1.75345 3.97853,-3.32313 6.64889,-4.40775 -2.04357,-2.01911 -5.29504,-3.37131 -9.01112,-3.43896 -3.38503,-0.0804 -6.85121,0.68861 -9.99544,1.94465 0,0 0,0 0,0 -4.47647,1.74853 -8.42755,4.25757 -11.86258,6.84734 z"
         id="path7"
         transform="matrix(0.46658078,0,0,0.46658078,-6.1630798,7.2538242)"
         inkscape:original-d="m 122.2375,246.85625 c 28.5208,29.32771 45.62782,-15.90402 66.93958,-11.64167"
         inkscape:path-effect="#path-effect8" />
      <path
         style="opacity:1;fill:#33bc00;fill-opacity:1;stroke:none;stroke-width:0.264583;stroke-opacity:1"
         d="m 172.92255,119.56484 c -0.96201,-1.57513 -2.06701,-3.03964 -3.29132,-4.37569 -2.90123,-3.22314 -6.54877,-5.71462 -10.55711,-7.17774 -4.30597,-1.59778 -8.83387,-1.66245 -12.62681,-0.43661 -2.42859,0.82065 -4.36133,2.1262 -5.80657,3.62752 -1.73291,0.69558 -3.35448,1.62642 -4.82074,2.7258 -4.15739,3.12312 -7.19122,7.33888 -9.61417,11.7487 2.65649,-4.26433 5.89563,-8.27078 10.07283,-11.06238 0.92719,-0.61964 1.90528,-1.16957 2.92074,-1.63515 2.28946,-1.04968 4.76887,-1.67051 7.28306,-1.69433 3.27692,-0.031 6.52495,0.92325 9.39247,2.50955 l 0,0 c 2.9339,1.62303 5.50192,3.87093 7.63893,6.45455 2.09986,2.5387 3.80355,5.41438 4.94331,8.50556 0.49875,1.35266 0.89369,2.75483 1.13187,4.17759 -0.31612,-1.40971 -0.78675,-2.78166 -1.35418,-4.09562 -1.29877,-3.0017 -3.13496,-5.73014 -5.32082,-8.0914 -2.22659,-2.39983 -4.82503,-4.42177 -7.68266,-5.78735 0,0 0,0 -1e-5,0 -2.78348,-1.3263 -5.83045,-2.02644 -8.73122,-1.80491 -1.0997,0.0716 -2.185,0.27965 -3.24033,0.60057 1.16412,0.32249 2.26457,0.73145 3.25779,1.24305 2.37799,1.15236 4.37821,2.82083 6.15753,4.58214 1.70822,1.68598 3.24848,3.67079 4.72054,5.73096 0.61373,0.88553 1.20331,1.78384 1.7535,2.6807 0.70609,1.14638 1.35967,2.30964 1.93563,3.48256 0.87539,1.9405 1.74403,3.67605 2.09748,5.27304 0.35764,1.30066 0.66648,2.91533 0.28208,4.32115 -0.44297,2.26664 -3.09621,4.67282 -5.77182,6.58295 2.9193,1.50648 7.1312,2.40678 11.82867,-0.021 3.30135,-1.97326 5.91107,-5.40836 6.82944,-9.53964 0.94859,-4.12285 0.68872,-8.34361 -0.51911,-12.05383 -0.69736,-2.27928 -1.67897,-4.45408 -2.909,-6.47075 z"
         id="path8"
         transform="matrix(0.37559654,0,0,0.38553887,0.23012405,54.153716)"
         inkscape:original-d="m 126.20625,125.67708 c 25.8486,-41.493237 63.14221,19.69922 31.48541,21.96042"
         inkscape:path-effect="#path-effect9" />
      <path
         style="opacity:1;fill:#33bc00;fill-opacity:1;stroke:none;stroke-width:0.264583;stroke-opacity:1"
         d="m 32.803855,111.60147 c 2.40248,0.62349 4.96514,0.94316 7.53297,1.17554 -2.30456,0.12552 -4.62439,0.18408 -6.92199,-0.001 -0.76069,-0.0613 -1.51894,-0.14927 -2.27339,-0.27038 h -10e-6 c -2.2123,-0.35513 -4.4314,-1.03093 -6.20202,-2.40387 -1.64808,-1.2779 -2.75707,-3.16231 -3.33185,-5.16706 -0.0352,-0.12282 -0.0689,-0.24597 -0.10098,-0.36943 0.0141,0.12814 0.0299,0.25641 0.0473,0.38482 0.28477,2.09805 1.14317,4.23152 2.79261,5.91636 v 1e-5 c 1.77126,1.76009 4.14,2.8882 6.48634,3.56178 v 0 c 0.29863,0.0894 0.5984,0.17416 0.89908,0.2545 -0.34503,0.32273 -0.7066,0.62446 -1.085,0.90372 -2.63443,1.95502 -6.23786,2.64414 -10.39452,0.56003 v 0 c -1.63144,-0.9882 -3.00104,-2.28405 -4.00562,-3.76024 -1.14327,-1.68692 -1.76618,-3.53829 -1.87426,-5.37722 -0.20514,-5.16684 2.66342,-8.554656 6.66232,-10.634766 5.02509,3.2348 8.25737,8.570306 11.76902,15.227206 z"
         id="path9"
         sodipodi:nodetypes="ccsssssccssssccsscccc" />
      <path
         style="opacity:1;fill:#33bc00;fill-opacity:1;stroke:none;stroke-width:0.264583;stroke-opacity:1"
         d="m 188.50538,172.0265 c -1.72041,0.1569 -3.43368,0.59382 -5.04494,1.30448 -4.51346,2.04668 -7.32118,5.9913 -7.86616,10.31558 -2.50295,2.18779 -4.54561,4.7995 -5.99678,7.64691 1.5925,-2.38927 3.60102,-4.48824 5.89555,-6.20325 2.84079,-2.12331 6.11999,-3.65807 9.59088,-4.42655 2.86751,-0.63488 5.79667,-0.84437 8.73139,-0.75462 -2.94523,0.25401 -5.8148,0.80596 -8.50829,1.76228 -2.69363,0.94822 -5.14146,2.38076 -7.23687,4.14461 3.38166,0.9524 6.37996,1.80542 8.63752,2.18153 1.08619,0.11254 2.14213,0.13325 3.21802,0.0421 4.07694,-0.36037 9.08587,-2.55459 14.0707,-6.81225 -2.79655,-5.89509 -8.42594,-9.83573 -15.49102,-9.20078 z"
         id="path11"
         transform="translate(-124.79789,-105.18819)"
         inkscape:original-d="m 169.59791,191.29375 c 8.14286,-12.21696 21.68821,-12.77723 34.39584,-10.05417"
         inkscape:path-effect="#path-effect12" />
    </g>
    <g
       id="svg108"
       transform="matrix(0.26458333,0,0,0.26458333,-57.564437,173.86091)"
       style="fill:#006241;fill-opacity:1;stroke:#006241;stroke-opacity:1" />
  </g>
</svg>
