<?xml version="1.0" encoding="UTF-8" standalone="no"?>
<!DOCTYPE svg PUBLIC "-//W3C//DTD SVG 1.1//EN" "http://www.w3.org/Graphics/SVG/1.1/DTD/svg11.dtd">

<!-- Created with Vectornator (http://vectornator.io/) -->
<svg height="100%" stroke-miterlimit="10" style="fill-rule:nonzero;clip-rule:evenodd;stroke-linecap:round;stroke-linejoin:round;" version="1.1" viewBox="0 0 512 512" width="100%" xml:space="preserve" xmlns="http://www.w3.org/2000/svg" xmlns:vectornator="http://vectornator.io" xmlns:xlink="http://www.w3.org/1999/xlink">
<metadata>
<vectornator:setting key="IsTimeLapseWatermarkDisabled" value="false"/>
<vectornator:setting key="UndoHistoryDisabled" value="true"/>
<vectornator:setting key="VNDimensionsVisible" value="true"/>
<vectornator:setting key="VNSnapToGuides" value="true"/>
<vectornator:setting key="WDCMYKEnabledKey" value="false"/>
<vectornator:setting key="WDDisplayWhiteBackground" value="false"/>
<vectornator:setting key="WDDynamicGuides" value="false"/>
<vectornator:setting key="WDGuidesVisible" value="true"/>
<vectornator:setting key="WDIsolateActiveLayer" value="false"/>
<vectornator:setting key="WDOutlineMode" value="false"/>
<vectornator:setting key="WDRulersVisible" value="true"/>
<vectornator:setting key="WDSnapToEdges" value="false"/>
<vectornator:setting key="WDSnapToGrid" value="false"/>
<vectornator:setting key="WDSnapToPoints" value="false"/>
<vectornator:setting key="WDUnits" value="Pixels"/>
</metadata>
<defs/>
<g id="Layer-1" vectornator:layerName="Layer 1">
<path d="M441.304 199.972C442.155 201.049 442.685 202.421 442.756 203.904C442.579 207.593 439.561 210.506 436.057 210.444C436.004 210.444 435.955 210.458 435.907 210.453C430.236 210.263 424.971 212.333 421.083 215.505C419.115 217.095 417.597 218.987 416.352 221.084C414.967 223.166 414.022 225.466 413.638 227.968C413.065 231.366 413.797 234.84 415.143 238.135C418.969 235.757 423.329 234.124 428.237 233.907C427.614 232.721 427.345 231.409 427.553 230.046C428.078 226.613 431.401 224.147 434.989 224.529C435.002 224.529 435.015 224.529 435.024 224.529C440.655 225.171 446.158 223.397 449.975 219.64C453.898 215.915 456.506 210.237 456.789 203.904C456.595 199.578 455.333 195.443 453.131 191.963C450.121 195.983 446.048 198.784 441.304 199.972" fill="#3d85c6" fill-rule="evenodd" opacity="1" stroke="none"/>
<path d="M438.612 172.122C439.561 173.069 440.227 174.362 440.448 175.833C441.012 179.522 438.559 182.877 434.989 183.278C429.375 183.926 424.644 186.724 420.995 190.458C417.442 194.209 415.36 198.851 415.651 203.904C415.452 207.358 416.339 210.668 418.241 213.745C421.604 210.81 425.964 208.56 430.783 207.619C430.042 206.534 429.644 205.281 429.715 203.904C429.534 200.43 432.301 197.505 435.907 197.355C435.955 197.35 436.004 197.338 436.057 197.333C441.648 197.103 446.613 194.566 450.09 190.299C451.815 188.158 453.272 185.584 454.044 182.766C455.081 178.993 454.732 174.812 453.77 171.097C453.488 170.008 453.139 168.93 452.711 167.884C452.288 166.86 451.789 165.864 451.206 164.919C451.043 164.659 449.291 162.478 449.331 162.408C447.027 166.812 443.122 170.246 438.612 172.122" fill="#000000" fill-rule="evenodd" opacity="1" stroke="none"/>
<path d="M431.895 144.964C433.007 145.749 433.987 146.883 434.402 148.308C435.328 151.883 433.321 155.547 429.953 156.521C429.9 156.538 429.856 156.566 429.803 156.578C424.327 158.065 419.914 161.584 417.142 165.748C414.57 169.898 412.906 174.844 413.638 179.839C414.058 183.264 415.955 186.345 418.007 189.129C421.171 185.709 424.689 182.894 429.358 181.247C428.409 180.294 427.76 179.125 427.553 177.762C427.028 174.323 429.468 170.996 433.012 170.311C433.034 170.308 433.051 170.299 433.073 170.294C438.537 169.27 443.479 165.929 445.986 161.23C448.629 156.521 449.428 150.32 447.813 144.173C446.436 140.065 443.938 136.504 440.823 133.816C439.141 138.551 436.079 142.43 431.895 144.964" fill="#3d85c6" fill-rule="evenodd" opacity="1" stroke="none"/>
<path d="M421.079 119.148C422.266 119.774 423.281 120.811 423.925 122.147C425.545 125.516 424.19 129.443 420.898 130.891C415.695 133.185 412.067 137.236 409.68 141.878C408.497 144.181 407.756 146.769 407.571 149.346C407.363 152.232 407.822 154.65 408.793 157.333C409.318 158.772 409.923 160.135 410.783 161.411C411.013 161.751 413.841 164.993 413.903 164.902C416.242 161.123 419.742 157.695 424.062 155.378C423.034 154.563 422.279 153.485 421.939 152.147C420.832 148.86 422.544 145.267 425.964 144.054C426.004 144.042 426.039 144.014 426.083 143.997C431.37 142.13 435.368 138.234 437.425 133.123C438.426 130.568 439.093 127.66 438.938 124.756C438.722 121.884 437.941 118.909 436.564 116.054C434.596 112.187 432.098 108.778 428.378 106.721C427.632 111.536 424.799 116.037 421.079 119.148" fill="#000000" fill-rule="evenodd" opacity="1" stroke="none"/>
<path d="M409.967 97.6775L409.967 97.6775C412.041 100.741 411.079 104.936 408.153 106.834C408.122 106.857 408.096 106.888 408.06 106.91C403.268 109.951 400.086 114.628 398.652 119.439C397.91 121.867 397.73 124.28 397.858 126.724C397.893 129.219 398.409 131.649 399.508 133.926C400.925 137.069 403.586 139.477 406.432 141.499C408.383 137.329 410.964 133.569 414.927 130.617C413.74 129.986 412.778 129.058 412.178 127.814C410.669 124.685 412.023 120.781 415.205 119.072C415.214 119.067 415.223 119.058 415.236 119.055C420.236 116.416 423.802 111.848 424.848 106.583C425.964 101.315 425.028 95.0694 421.555 89.7654C418.974 86.2795 415.62 83.5611 411.86 81.9098C411.622 86.9451 409.826 91.5699 406.573 95.2331C407.875 95.6488 409.08 96.4917 409.967 97.6775" fill="#3d85c6" fill-rule="evenodd" opacity="1" stroke="none"/>
<path d="M392.266 75.7625C394.768 78.5122 394.614 82.6596 391.953 84.9901C391.935 85.0073 391.922 85.0298 391.9 85.0523C387.549 88.8206 385.373 93.6833 384.508 98.7896C383.67 103.909 384.535 108.94 387.584 112.97C389.504 115.833 391.988 118.141 395.316 119.584C396.445 115.268 398.789 110.948 402.235 107.454C400.986 106.998 400.06 106.116 399.199 105.035C397.112 102.254 397.765 98.2653 400.655 96.1021C400.699 96.0712 400.73 96.0279 400.775 95.9917C405.258 92.6476 407.937 87.7447 408.418 82.2456C409.084 76.5828 406.785 70.939 402.553 66.2123C399.649 62.9925 396.101 60.6395 391.944 59.7617C392.624 64.6024 391.437 69.5308 388.696 73.7024C390.002 73.9628 391.269 74.6645 392.266 75.7625" fill="#000000" fill-rule="evenodd" opacity="1" stroke="none"/>
<path d="M372.65 65.8332C368.961 70.1495 367.271 75.5727 367.289 80.6256C367.302 83.1543 367.756 85.5986 368.67 87.8277C369.588 90.0531 370.66 92.3647 372.399 94.204C374.711 96.7693 377.752 98.4776 381.3 99.3721C381.697 95.0041 383.264 90.4755 386.132 86.5311C384.821 86.2659 383.639 85.652 382.708 84.6335C380.378 82.0598 380.541 77.9173 383.069 75.352C383.074 75.349 383.074 75.349 383.078 75.3437C387.125 71.3234 388.983 66.1108 388.542 60.6567C388.321 57.9378 387.531 55.1797 386.194 52.5632C384.844 49.96 383.043 47.3969 380.439 45.5783C376.979 42.9698 372.999 41.3237 368.939 40.8171C370.17 45.7314 369.791 50.7067 367.747 55.1678C369.107 55.1938 370.497 55.6572 371.684 56.5433C374.747 58.6757 374.941 63.1284 372.69 65.7762C372.672 65.7934 372.664 65.816 372.65 65.8332" fill="#3d85c6" fill-rule="evenodd" opacity="1" stroke="none"/>
<path d="M344.394 39.743C345.713 39.6154 347.121 39.9292 348.392 40.6962C351.556 42.6167 352.611 46.6282 350.788 49.629C350.766 49.6687 350.757 49.7084 350.731 49.7482C347.726 54.5628 346.914 60.0927 347.765 64.9506C348.445 70.1133 350.709 74.7214 354.769 77.7258C357.659 79.6516 360.523 81.3582 364.155 81.7289C363.992 77.2417 364.981 72.4046 367.258 68.0397C366 67.8861 364.632 67.59 363.546 66.7347C360.762 64.6593 360.237 60.6254 362.364 57.7141C362.399 57.6656 362.417 57.6121 362.452 57.5641C365.753 53.0491 366.887 47.5589 365.762 42.1304C364.654 36.6592 360.806 31.901 355.417 28.552C353.546 27.4624 351.653 26.5004 349.592 26.0454C347.523 25.6094 345.422 25.4457 343.343 25.5644C345.338 30.1464 345.824 34.8904 344.394 39.743" fill="#000000" fill-rule="evenodd" opacity="1" stroke="none"/>
<path d="M318.286 40.5461C317.523 40.2827 316.592 39.9345 316.049 39.4138C315.418 38.8123 314.985 38.0228 314.685 37.2156C314.121 35.6918 313.94 33.8353 314.482 32.277C314.5 32.2289 314.5 32.1804 314.518 32.1358C316.349 26.845 315.815 21.2308 313.136 16.3368C310.383 11.6687 305.361 8.05044 299.209 6.46619C295.034 5.23362 290.67 5.82497 286.782 7.23316C290.052 10.9895 291.897 15.5129 292.002 20.3981C293.225 19.8897 294.664 19.7794 296.098 20.1501C299.672 21.0636 301.857 24.5715 301.031 27.969C301.018 28.0277 301.023 28.0847 301.005 28.138C299.562 33.627 300.418 39.1653 302.664 43.5752C304.911 48.0672 308.353 52.039 313.114 53.6938C316.415 54.7353 319.765 55.2336 323.273 54.6868C321.799 50.4498 321.375 45.4004 322.21 40.7015C322.095 41.3409 319.001 40.7981 318.631 40.6706C318.52 40.6309 318.406 40.5912 318.286 40.5461" fill="#000000" fill-rule="evenodd" opacity="1" stroke="none"/>
<path d="M318.865 28.2793C320.171 27.909 321.631 27.9518 323.026 28.4637C324.774 29.1036 326.093 30.3754 326.777 31.8838C327.417 33.4853 327.439 35.2955 326.728 36.9557C324.473 42.1613 324.447 47.8673 325.934 52.7217C327.386 57.6969 330.621 61.3187 334.818 64.1611C337.761 65.966 341.128 66.7608 344.791 66.571C343.886 62.2802 344.085 57.4449 345.669 52.8285C344.345 52.956 343.039 52.7044 341.861 51.9855C340.369 51.0774 339.376 49.6206 338.953 47.983C338.498 46.4075 338.595 44.6816 339.451 43.058C342.108 38.0709 342.377 32.5065 340.36 27.4055C337.765 20.8376 332.298 16.2971 325.537 14.5905C324.438 14.3112 323.322 14.1078 322.192 13.9802C321.084 13.8615 319.968 13.813 318.856 13.8474C318.551 13.858 315.837 14.249 315.78 14.1576C318.401 18.5172 319.5 23.4029 318.865 28.2793" fill="#3d85c6" fill-rule="evenodd" opacity="1" stroke="none"/>
<path d="M268.243 16.023C271.733 16.2454 274.725 19.1964 274.297 23.0009C273.688 28.6451 275.352 34.1076 278.207 38.3189C279.646 40.4239 281.394 42.22 283.397 43.57C284.403 44.2491 285.467 44.8144 286.597 45.2557C289.306 46.3193 292.179 47.2552 295.1 46.9194C295.515 46.8709 300.334 46.0505 300.303 45.9918C298.181 42.1441 296.941 37.4486 297.086 32.563C295.859 33.0718 294.544 33.2077 293.207 32.8631C289.871 31.8807 287.603 28.6725 288.256 25.0834C289.302 19.5415 287.912 14.1492 284.478 9.86728C281.058 5.68329 275.635 2.11008 269.28 2.02182C264.955 1.79279 260.745 2.6445 257.113 4.49223C260.895 7.88627 263.388 12.2238 264.218 17.0693C264.174 16.8006 266.063 16.2454 266.288 16.192C266.945 16.0367 267.603 15.985 268.243 16.023" fill="#3d85c6" fill-rule="evenodd" opacity="1" stroke="none"/>
<path d="M236.244 17.4709C237.263 16.6245 238.605 16.0901 240.083 16.0142C243.768 15.8249 246.888 18.5345 247.096 22.0256C247.096 22.0821 247.113 22.1324 247.118 22.1893C247.347 27.8587 249.796 32.8909 253.243 36.4332C255.052 38.2915 257.02 39.9548 259.337 41.16C260.516 41.7703 261.756 42.2597 263.044 42.5854C265.957 43.3233 268.38 43.0355 271.358 42.5633C273.022 42.2994 274.655 41.7703 276.248 40.9755C273.587 37.352 271.689 32.6424 271.089 27.9518C269.946 28.6897 268.662 29.0913 267.281 29.0207C263.808 28.8481 261.098 25.7939 261.213 22.1893C261.217 22.1324 261.2 22.079 261.204 22.0256C261.385 16.4352 259.223 11.2358 255.233 7.36069C251.231 3.62331 245.379 1.73057 239.046 2.02182C236.888 2.16349 234.788 2.44943 232.828 3.20806C230.873 4.02004 229.046 5.07166 227.391 6.34172C231.619 8.98468 234.695 12.6479 236.244 17.4709" fill="#000000" fill-rule="evenodd" opacity="1" stroke="none"/>
<path d="M208.694 22.353C209.563 21.3098 210.794 20.5172 212.228 20.1501C215.821 19.1086 219.395 21.5843 220.066 25.0834C220.07 25.1006 220.075 25.1147 220.079 25.1319C221.151 30.7064 224.338 35.4284 228.296 38.5965C232.299 41.87 237.007 43.0439 242.087 43.0492C245.542 42.8855 248.777 41.6547 251.698 39.4429C248.53 36.4041 245.966 32.2859 244.668 27.5811C243.645 28.4293 242.427 28.9536 241.05 29.0207C237.568 29.1226 234.443 26.5039 234.033 23.0044C234.033 22.996 234.029 22.9872 234.029 22.9836C233.415 17.3659 230.503 12.6166 225.966 9.54468C223.702 8.00544 221.046 6.88497 218.164 6.27996C216.721 5.97457 215.225 5.79893 213.693 5.7645C212.184 5.81261 210.657 6.08489 209.122 6.46619C204.912 7.53324 201.134 9.60338 198.204 12.4493C202.82 14.568 206.474 17.9691 208.694 22.353" fill="#3d85c6" fill-rule="evenodd" opacity="1" stroke="none"/>
<path d="M182.065 30.9929C182.789 29.8808 183.91 28.9726 185.305 28.4637C188.773 27.1884 192.564 28.8569 193.786 32.1442C193.804 32.1927 193.83 32.2289 193.848 32.277C195.741 37.626 199.563 41.7116 203.892 44.0765C208.332 46.6899 213.362 47.8779 218.239 46.5796C221.544 45.547 224.629 44.2231 227.202 41.72C223.596 39.0241 220.423 35.2024 218.442 30.71C217.568 31.7514 216.456 32.5202 215.119 32.8631C211.756 33.7338 208.274 31.6204 207.325 28.138C207.308 28.0847 207.277 28.0366 207.264 27.9796C205.79 22.5856 202.202 18.2657 197.246 15.7507C192.295 13.275 186.156 13.2613 180.177 15.4025C176.046 16.7692 172.71 19.5724 170.314 22.996C175.146 24.2802 179.17 26.8799 182.065 30.9929" fill="#000000" fill-rule="evenodd" opacity="1" stroke="none"/>
<path d="M159.939 40.6962C161.532 39.7341 163.345 39.4932 164.956 39.9032C166.589 40.3617 168.036 41.4994 168.87 43.0629C168.875 43.0664 168.884 43.0752 168.884 43.0801C171.562 48.0845 176.011 51.6599 180.733 53.5217C185.538 55.5023 190.375 55.185 195.216 53.6938C198.455 52.52 201.178 50.3876 203.31 47.4088C199.391 45.4402 195.728 42.2685 193.102 38.1552C192.374 39.2673 191.368 40.1273 190.071 40.5995C188.429 41.1997 186.673 41.0633 185.128 40.3758C183.628 39.7845 182.321 38.6106 181.602 36.9557C181.598 36.9469 181.593 36.9367 181.589 36.9279C179.338 31.7514 175.146 28.0758 169.899 26.4748C164.722 24.9611 158.231 25.0578 152.913 28.552C149.202 30.7947 146.192 33.8697 144.228 37.4363C149.272 38.1106 153.782 40.2946 157.202 43.8303C157.723 42.5854 158.672 41.4685 159.939 40.6962" fill="#3d85c6" fill-rule="evenodd" opacity="1" stroke="none"/>
<path d="M136.647 56.5433C139.595 54.3368 143.703 54.8231 145.848 57.5813C145.883 57.6294 145.932 57.6656 145.967 57.7141C149.356 62.263 154.228 65.0525 159.087 66.0591C163.963 67.0348 169.25 66.8658 173.513 64.1611C175 63.2922 176.258 62.0786 177.471 60.8994C178.694 59.7428 179.744 58.3791 180.613 56.8262C176.381 55.3439 172.154 52.5063 169.012 48.9671C168.487 50.2151 167.648 51.2702 166.47 51.9855C163.5 53.7958 159.537 52.7923 157.6 49.7482C157.573 49.7084 157.542 49.6824 157.516 49.6431C154.515 44.9075 149.789 41.822 144.29 40.8652C141.073 40.2999 137.52 40.9274 134.489 42.0082C131.408 43.1061 128.244 44.9336 125.91 47.2191C125.071 48.0399 124.33 48.9534 123.672 49.9203C123.015 50.8823 122.446 51.9013 121.938 52.9476C121.806 53.2252 120.892 55.7816 120.755 55.7852C125.746 55.5901 130.455 56.9988 134.33 59.955C134.599 58.5654 135.482 57.4621 136.647 56.5433" fill="#000000" fill-rule="evenodd" opacity="1" stroke="none"/>
<path d="M114.334 79.5307C114.48 78.1949 115.067 76.8573 116.064 75.7625C118.584 72.9924 122.737 72.8026 125.252 75.3437L125.257 75.349L125.257 75.349C129.255 79.3101 134.59 81.4561 139.674 81.8665C142.225 82.0682 144.731 81.8304 147.052 81.1203C149.387 80.427 151.452 79.1481 153.557 77.7258C156.333 75.6693 158.328 72.8543 159.502 69.4033C155.155 68.6584 150.706 66.6897 146.977 63.53C146.602 64.797 145.887 65.9091 144.78 66.7347C141.911 68.7105 138.099 68.6138 135.68 65.8332C135.667 65.816 135.645 65.8023 135.632 65.7851C131.956 61.5186 126.867 59.2309 121.369 59.2189C118.615 59.2053 115.773 59.7569 113.028 60.8566C110.288 61.9599 107.949 63.9095 105.778 66.2123C102.869 69.4258 100.839 73.1941 100.023 77.1883C105.032 76.3503 110.027 77.1534 114.334 79.5307" fill="#3d85c6" fill-rule="evenodd" opacity="1" stroke="none"/>
<path d="M97.2781 101.703C97.0619 101.618 97.4105 99.7909 97.4634 99.5808C97.5561 99.2084 97.6664 98.786 97.8694 98.4551C99.7935 95.3298 104.132 93.618 107.534 96.0191C107.578 96.054 107.631 96.0712 107.675 96.1021C112.251 99.4599 117.746 100.713 122.719 100.272C127.551 99.677 132.578 97.9829 135.932 94.204C138.231 91.6268 139.647 88.4102 140.517 85.0435C135.914 84.7522 131.294 83.5386 127.198 81.0237C127.053 82.3701 126.55 83.6092 125.618 84.6335C123.284 87.2054 119.175 87.3916 116.364 84.9989C112.163 81.3807 106.492 79.6292 101.197 80.5373C95.8792 81.4168 90.5527 84.6644 86.7751 89.7654C84.3568 93.3523 83.1829 97.5636 83.0108 101.663C87.7548 100.031 92.693 100.008 97.2781 101.703" fill="#000000" fill-rule="evenodd" opacity="1" stroke="none"/>
<path d="M83.8316 126.248C83.5845 124.928 83.761 123.485 84.4053 122.147C86.0293 118.786 89.9481 117.4 93.0901 119.058C93.1033 119.067 93.1122 119.067 93.1254 119.072C98.143 121.706 103.606 122.047 108.717 121.013C113.792 119.938 118.006 117.205 120.746 112.97C122.834 110.212 123.942 106.962 124.083 103.335C119.679 103.878 114.824 103.282 110.323 101.35C110.332 102.665 109.961 103.932 109.131 105.035C107.185 107.907 103.364 108.838 100.27 106.91C100.235 106.888 100.195 106.88 100.16 106.857C95.407 103.878 89.8686 103.18 84.5907 104.756C81.9605 105.559 79.2995 106.862 77.093 108.772C74.9791 110.732 73.1433 113.199 71.7664 116.054C69.9615 119.995 68.8759 124.085 69.5511 128.265C73.8096 125.864 79.0744 125.268 83.8316 126.248" fill="#3d85c6" fill-rule="evenodd" opacity="1" stroke="none"/>
<path d="M74.145 152.492C73.6552 151.213 73.5537 149.743 73.9288 148.308C75.1027 144.8 78.92 142.925 82.2385 144.023C82.2783 144.037 82.3224 144.042 82.3665 144.054C87.7327 145.907 93.3682 145.488 98.0195 143.613C100.385 142.682 102.353 141.309 104.22 139.708C106.148 138.127 107.724 136.209 108.823 133.926C110.402 130.863 110.605 127.267 110.442 123.799C105.936 124.857 101.413 125.185 96.6294 123.918C96.8765 125.242 96.7485 126.574 96.1528 127.814C94.6435 130.942 90.7468 132.32 87.4326 130.891C87.4194 130.885 87.4062 130.885 87.3929 130.877C82.2341 128.614 76.4045 128.653 71.6473 131.115C66.815 133.525 62.5741 138.172 60.5176 144.173C59.4144 148.37 59.3924 152.699 60.4559 156.676C64.5291 153.714 69.2554 152.232 74.145 152.492" fill="#000000" fill-rule="evenodd" opacity="1" stroke="none"/>
<path d="M68.5317 179.91C67.9094 178.727 67.6579 177.298 67.8786 175.833C68.4435 172.147 71.7708 169.667 75.2571 170.308C75.2748 170.311 75.2968 170.308 75.3189 170.311C80.9764 171.358 86.0999 170.017 90.7248 167.531C95.2349 164.993 98.6064 161.185 99.8332 156.292L99.8332 156.288C100.95 153.03 101.144 149.632 100.213 146.133C96.1395 147.932 91.3073 148.794 86.4221 148.274C86.8325 149.53 86.7751 150.823 86.3912 152.147C85.5306 155.516 82.0135 157.491 78.5272 156.578C78.4742 156.566 78.4213 156.569 78.3683 156.552C72.958 155.131 67.4593 156.098 62.8698 159.16C58.0552 162.178 54.9264 167.471 53.9996 173.754C53.4524 178.051 53.5539 182.275 55.5089 186.065C58.7966 182.514 63.7127 180.387 68.5317 179.91" fill="#3d85c6" fill-rule="evenodd" opacity="1" stroke="none"/>
<path d="M67.0224 207.836C66.1752 206.758 65.6456 205.386 65.5706 203.904C65.7515 200.215 68.7656 197.301 72.2739 197.364C72.3269 197.364 72.371 197.35 72.424 197.355C78.0947 197.545 83.3594 195.474 87.2473 192.302C89.2111 190.713 90.7336 188.82 91.9781 186.724C93.3638 184.642 94.3081 182.342 94.6877 179.839C95.2657 176.441 94.5332 172.968 93.1872 169.672C89.3567 172.051 85.0011 173.683 80.0938 173.9C80.716 175.086 80.9852 176.396 80.7778 177.762C80.2526 181.194 76.9253 183.661 73.3375 183.278C73.3286 183.278 73.3154 183.278 73.3066 183.278C67.6755 182.637 62.1725 184.41 58.3553 188.167C54.4277 191.892 51.824 197.571 51.5372 203.904C51.7357 208.229 52.9979 212.364 55.2 215.845C58.2096 211.825 62.2829 209.024 67.0224 207.836" fill="#000000" fill-rule="evenodd" opacity="1" stroke="none"/>
<path d="M69.7188 235.686C68.77 234.738 68.1036 233.445 67.8786 231.975C67.3181 228.286 69.7717 224.931 73.3066 224.535C73.3154 224.535 73.3286 224.529 73.3375 224.529C78.9552 223.881 83.6816 221.084 87.3356 217.35C90.8836 213.599 92.9666 208.956 92.6797 203.904C92.8783 200.447 91.9913 197.138 90.0849 194.062C86.7266 196.998 82.3665 199.247 77.5475 200.187C78.2845 201.273 78.6861 202.526 78.611 203.904C78.7964 207.377 76.0294 210.303 72.424 210.453C72.371 210.458 72.3269 210.47 72.2739 210.475C66.6826 210.704 61.718 213.242 58.2405 217.508C56.5151 219.649 55.0587 222.221 54.2865 225.042C53.6466 227.848 53.523 230.92 53.9996 234.053C54.7057 238.329 56.2194 242.302 58.9996 245.4C61.3032 240.996 65.2087 237.562 69.7188 235.686" fill="#3d85c6" fill-rule="evenodd" opacity="1" stroke="none"/>
<path d="M76.4354 262.843C75.3233 262.059 74.3437 260.919 73.9288 259.499C73.0021 255.924 75.01 252.261 78.3771 251.287C78.4257 251.268 78.4742 251.242 78.5272 251.228C84.0037 249.742 88.4167 246.224 91.1881 242.059C93.7609 237.91 95.4246 232.964 94.6877 227.968C94.2684 224.543 92.3708 221.463 90.3232 218.679C87.159 222.099 83.6419 224.914 78.9729 226.56C79.9217 227.513 80.5704 228.682 80.7778 230.046C81.3029 233.485 78.8582 236.812 75.3189 237.496C75.2968 237.5 75.2792 237.508 75.2571 237.513C69.7938 238.537 64.8513 241.878 62.3446 246.577C59.7012 251.287 58.9025 257.486 60.5176 263.635C61.8945 267.742 64.3923 271.304 67.5078 273.991C69.1892 269.256 72.2518 265.377 76.4354 262.843" fill="#000000" fill-rule="evenodd" opacity="1" stroke="none"/>
<path d="M87.2517 288.66C86.0646 288.034 85.0496 286.996 84.4053 285.658C82.7858 282.292 84.1405 278.365 87.4326 276.917C92.6356 274.622 96.2631 270.571 98.6505 265.929C100.954 261.29 101.51 256.272 99.8332 251.52C98.9948 248.17 97.1589 245.276 94.4273 242.905C92.0884 246.684 88.5888 250.113 84.2641 252.43C85.2967 253.245 86.0469 254.322 86.3912 255.66C87.4988 258.948 85.7866 262.54 82.3665 263.753C82.3224 263.766 82.2871 263.793 82.2473 263.81C76.9606 265.678 72.9624 269.573 70.9059 274.684C69.9041 277.239 69.2334 280.147 69.3922 283.052C69.4761 284.645 69.8071 286.255 70.2484 287.785C71.0162 290.456 72.0489 292.58 73.5802 294.908C74.401 296.158 75.3278 297.341 76.3913 298.396C76.7002 298.704 79.957 301.043 79.9482 301.087C80.6939 296.272 83.5271 291.771 87.2517 288.66" fill="#3d85c6" fill-rule="evenodd" opacity="1" stroke="none"/>
<path d="M98.3637 310.13C96.2852 307.067 97.2516 302.869 100.173 300.973C100.208 300.95 100.235 300.919 100.27 300.897C105.058 297.856 108.244 293.179 109.679 288.368C110.416 285.941 110.597 283.528 110.473 281.083C110.438 278.589 109.917 276.158 108.823 273.881C107.402 270.738 104.741 268.328 101.899 266.308C99.9479 270.478 97.3663 274.238 93.4035 277.191C94.5906 277.822 95.5526 278.749 96.1528 279.992C97.6576 283.123 96.3028 287.027 93.1254 288.736C93.1122 288.739 93.1078 288.749 93.0946 288.753C88.0946 291.392 84.5289 295.96 83.483 301.224C82.3665 306.493 83.3021 312.738 86.7751 318.042C89.3567 321.528 92.7106 324.246 96.4705 325.898C96.7088 320.862 98.5049 316.237 101.757 312.574C100.455 312.159 99.2507 311.316 98.3637 310.13" fill="#000000" fill-rule="evenodd" opacity="1" stroke="none"/>
<path d="M116.064 332.045C113.562 329.296 113.717 325.146 116.431 322.755C120.782 318.987 122.953 314.124 123.822 309.018C124.661 303.898 123.796 298.868 120.746 294.838C118.827 291.974 116.342 289.666 113.015 288.223C111.885 292.54 109.542 296.86 106.091 300.354C107.344 300.809 108.271 301.692 109.131 302.772C111.219 305.553 110.566 309.542 107.675 311.705C107.631 311.737 107.6 311.779 107.556 311.816C103.072 315.16 100.394 320.063 99.9127 325.562C99.6523 328.527 100.014 331.395 101.104 334.175C101.673 335.632 102.406 337.018 103.262 338.329C104.727 340.571 106.223 342.305 108.302 344.031C109.471 345.002 110.738 345.853 112.097 346.537C112.494 346.735 116.378 347.992 116.386 348.046C115.707 343.205 116.894 338.275 119.634 334.105C118.328 333.845 117.062 333.143 116.064 332.045" fill="#3d85c6" fill-rule="evenodd" opacity="1" stroke="none"/>
<path d="M135.68 341.974C139.369 337.658 141.06 332.235 141.042 327.182C141.024 324.653 140.574 322.207 139.656 319.98C138.743 317.754 137.666 315.443 135.932 313.602C133.615 311.038 130.579 309.33 127.031 308.435C126.629 312.804 125.062 317.332 122.198 321.276C123.509 321.541 124.692 322.15 125.618 323.174C127.953 325.748 127.79 329.89 125.257 332.455L125.257 332.459L125.257 332.459C121.201 336.484 119.348 341.695 119.789 347.151C120.01 349.869 120.799 352.628 122.137 355.245C123.483 357.847 125.288 360.411 127.887 362.229C131.351 364.837 135.332 366.484 139.391 366.991C138.16 362.074 138.54 357.106 140.583 352.64C139.224 352.614 137.834 352.15 136.647 351.262C133.584 349.132 133.39 344.679 135.64 342.031C135.658 342.014 135.667 341.991 135.68 341.974" fill="#000000" fill-rule="evenodd" opacity="1" stroke="none"/>
<path d="M163.937 368.063C162.617 368.192 161.205 367.878 159.939 367.11C156.774 365.191 155.72 361.18 157.542 358.178C157.564 358.139 157.573 358.099 157.6 358.059C160.605 353.245 161.417 347.715 160.565 342.857C159.881 337.692 157.622 333.086 153.557 330.08C150.671 328.156 147.807 326.45 144.175 326.079C144.339 330.566 143.35 335.403 141.068 339.768C142.331 339.921 143.699 340.218 144.78 341.073C147.569 343.148 148.094 347.18 145.967 350.094C145.932 350.142 145.91 350.195 145.874 350.244C142.578 354.758 141.444 360.248 142.569 365.675C143.677 371.148 147.525 375.901 152.913 379.256C154.784 380.345 156.677 381.307 158.738 381.762C160.808 382.198 162.908 382.362 164.987 382.243C162.992 377.661 162.502 372.917 163.937 368.063" fill="#3d85c6" fill-rule="evenodd" opacity="1" stroke="none"/>
<path d="M189.466 379.528C188.16 379.899 186.699 379.856 185.305 379.344C183.557 378.704 182.238 377.432 181.553 375.923C180.909 374.32 180.892 372.512 181.602 370.852C183.853 365.644 183.879 359.938 182.396 355.084C180.94 350.111 177.71 346.489 173.513 343.646C170.565 341.841 167.202 341.047 163.54 341.236C164.444 345.525 164.246 350.362 162.661 354.979C162.886 354.331 165.821 355.38 166.209 355.57C167.789 356.329 168.901 358.173 169.378 359.824C169.828 361.4 169.735 363.126 168.875 364.75C166.218 369.737 165.953 375.301 167.97 380.407C170.018 385.375 174.118 390.433 180.177 392.405C184.245 393.91 188.53 394.343 192.546 393.65C189.929 389.29 188.826 384.405 189.466 379.528" fill="#000000" fill-rule="evenodd" opacity="1" stroke="none"/>
<path d="M212.228 387.658C208.658 386.744 206.474 383.236 207.295 379.837C207.312 379.78 207.308 379.723 207.325 379.669C208.769 374.181 207.908 368.642 205.666 364.232C203.42 359.74 199.978 355.768 195.216 354.113C191.915 353.072 188.566 352.574 185.057 353.121C186.531 357.358 186.955 362.405 186.121 367.101C186.174 366.815 188.226 366.818 188.486 366.858C192.52 367.511 195.287 371.423 193.848 375.53C193.83 375.579 193.83 375.624 193.813 375.672C191.981 380.962 192.515 386.577 195.194 391.471C197.948 396.139 202.965 399.757 209.122 401.341C213.292 402.574 217.656 401.983 221.549 400.574C218.279 396.818 216.434 392.295 216.324 387.409C215.106 387.918 213.667 388.028 212.228 387.658" fill="#3d85c6" fill-rule="evenodd" opacity="1" stroke="none"/>
<path d="M240.083 391.793C236.346 391.669 233.623 388.452 234.033 384.829C234.033 384.82 234.033 384.812 234.033 384.806C234.642 379.163 232.978 373.698 230.119 369.488C228.685 367.384 226.937 365.593 224.933 364.238C223.927 363.558 222.859 362.993 221.73 362.552C220.622 362.023 219.466 361.536 218.239 361.228C214.903 360.354 211.46 360.566 208.027 361.814C210.15 365.663 211.39 370.359 211.244 375.244C212.467 374.736 213.786 374.6 215.119 374.943C218.46 375.927 220.728 379.135 220.079 382.676C220.075 382.693 220.079 382.71 220.075 382.724C219.024 388.266 220.419 393.658 223.852 397.94C227.272 402.122 232.696 405.698 239.046 405.785C243.375 406.015 247.585 405.163 251.217 403.315C247.435 399.921 244.942 395.582 244.112 390.738C242.974 391.474 241.566 391.867 240.083 391.793" fill="#000000" fill-rule="evenodd" opacity="1" stroke="none"/>
<path d="M272.082 390.336C271.067 391.183 269.726 391.717 268.243 391.793C264.562 391.983 261.442 389.273 261.235 385.782C261.231 385.725 261.217 385.675 261.213 385.618C260.983 379.947 258.534 374.917 255.088 371.373C251.61 367.658 247.14 364.953 242.087 364.758C240.361 364.648 238.64 364.931 236.972 365.243C235.308 365.508 233.676 366.037 232.078 366.832C234.739 370.455 236.641 375.163 237.241 379.856C238.384 379.118 239.669 378.716 241.05 378.787C244.523 378.959 247.232 382.014 247.118 385.618C247.113 385.675 247.131 385.725 247.126 385.782C246.946 391.372 249.108 396.572 253.097 400.447C257.1 404.184 262.947 406.077 269.28 405.785C271.442 405.644 273.543 405.358 275.502 404.599C277.457 403.788 279.284 402.736 280.935 401.466C276.707 398.823 273.635 395.16 272.082 390.336" fill="#3d85c6" fill-rule="evenodd" opacity="1" stroke="none"/>
<path d="M299.637 385.455C298.768 386.496 297.536 387.29 296.098 387.658C292.51 388.699 288.935 386.223 288.251 382.676C287.179 377.101 283.993 372.379 280.034 369.211C276.032 365.936 271.323 364.763 266.244 364.758C262.788 364.922 259.554 366.153 256.632 368.363C259.801 371.404 262.365 375.522 263.662 380.226C263.578 379.935 265.471 379.154 265.714 379.078C269.628 377.842 273.834 380.84 274.302 384.824C274.911 390.442 277.828 395.191 282.364 398.261C284.628 399.802 287.285 400.923 290.167 401.528C291.61 401.831 293.106 402.009 294.633 402.043C297.426 402.11 300.652 401.09 303.185 399.983C304.505 399.404 305.775 398.713 306.971 397.909C307.302 397.689 310.021 395.31 310.127 395.358C305.511 393.239 301.857 389.837 299.637 385.455" fill="#000000" fill-rule="evenodd" opacity="1" stroke="none"/>
<path d="M326.265 376.815C325.541 377.927 324.416 378.835 323.026 379.344C319.553 380.619 315.767 378.951 314.544 375.663C314.526 375.615 314.5 375.579 314.482 375.53C312.589 370.181 308.768 366.096 304.434 363.729C299.999 361.117 294.968 359.93 290.092 361.228C286.786 362.26 283.702 363.584 281.129 366.086C284.734 368.783 287.907 372.605 289.889 377.097C290.762 376.056 291.874 375.287 293.207 374.943C296.574 374.074 300.056 376.187 301.005 379.669C301.023 379.723 301.054 379.771 301.067 379.828C302.536 385.222 306.129 389.542 311.08 392.057C316.036 394.532 322.174 394.546 328.154 392.405C332.284 391.038 335.621 388.235 338.013 384.812C333.185 383.527 329.16 380.928 326.265 376.815" fill="#3d85c6" fill-rule="evenodd" opacity="1" stroke="none"/>
<path d="M348.392 367.11C346.799 368.073 344.981 368.314 343.374 367.904C341.737 367.446 340.294 366.306 339.456 364.744C339.456 364.741 339.447 364.732 339.442 364.727C336.768 359.723 332.32 356.147 327.593 354.286C322.792 352.305 317.951 352.622 313.114 354.113C309.871 355.287 307.152 357.42 305.021 360.399C308.94 362.365 312.602 365.539 315.228 369.652C315.952 368.54 316.962 367.68 318.256 367.208C319.897 366.608 321.658 366.744 323.202 367.432C324.703 368.023 326.005 369.197 326.728 370.852C326.733 370.861 326.737 370.871 326.742 370.88C328.992 376.056 333.185 379.731 338.432 381.333C343.608 382.846 350.1 382.75 355.417 379.256C359.129 377.013 362.134 373.938 364.102 370.371C359.054 369.697 354.548 367.511 351.128 363.977C350.603 365.222 349.659 366.337 348.392 367.11" fill="#000000" fill-rule="evenodd" opacity="1" stroke="none"/>
<path d="M371.684 351.262L371.684 351.262C368.736 353.469 364.623 352.984 362.483 350.226C362.447 350.178 362.399 350.142 362.364 350.094C358.974 345.544 354.102 342.755 349.244 341.749C344.367 340.773 339.081 340.942 334.818 343.646C333.326 344.515 332.073 345.729 330.859 346.908C329.637 348.065 328.586 349.428 327.717 350.981C331.945 352.464 336.177 355.301 339.314 358.84C339.844 357.592 340.682 356.537 341.861 355.822C344.831 354.012 348.794 355.013 350.731 358.059C350.753 358.099 350.788 358.125 350.81 358.165C353.811 362.9 358.542 365.986 364.041 366.942C369.367 367.64 375.369 366.042 380.439 362.229C384.018 359.757 386.181 355.856 387.575 352.023C382.584 352.215 377.875 350.809 373.996 347.853C373.732 349.242 372.849 350.345 371.684 351.262" fill="#3d85c6" fill-rule="evenodd" opacity="1" stroke="none"/>
<path d="M393.996 328.275C393.85 329.613 393.264 330.95 392.266 332.045C389.746 334.815 385.594 335.005 383.078 332.464C383.078 332.464 383.069 332.459 383.069 332.455C379.076 328.495 373.74 326.351 368.657 325.941C366.106 325.737 363.599 325.977 361.278 326.687C358.939 327.38 356.878 328.659 354.769 330.08C351.997 332.136 350.003 334.953 348.829 338.404C353.176 339.149 357.624 341.118 361.353 344.277C361.724 343.01 362.443 341.895 363.546 341.073C366.419 339.097 370.232 339.194 372.65 341.974C372.664 341.991 372.686 342.006 372.699 342.023C376.375 346.289 381.463 348.575 386.962 348.589C389.715 348.603 392.557 348.051 395.302 346.951C398.043 345.848 400.382 343.898 402.553 341.595C405.461 338.382 407.487 334.614 408.307 330.619C403.299 331.457 398.303 330.654 393.996 328.275" fill="#000000" fill-rule="evenodd" opacity="1" stroke="none"/>
<path d="M411.052 306.105C411.114 307.455 410.889 308.964 409.967 310.13C407.76 313.086 403.656 313.805 400.797 311.785C400.748 311.754 400.699 311.737 400.655 311.705C396.079 308.347 390.58 307.092 385.607 307.534C380.779 308.13 375.753 309.825 372.399 313.602C370.095 316.179 368.683 319.397 367.814 322.759C372.416 323.055 377.037 324.269 381.132 326.784C381.278 325.438 381.781 324.198 382.708 323.174C385.047 320.602 389.155 320.416 391.9 322.755C391.918 322.773 391.944 322.79 391.962 322.809C396.167 326.427 401.834 328.179 407.134 327.27C412.451 326.391 417.778 323.143 421.555 318.042C423.974 314.453 425.148 310.244 425.32 306.144C420.576 307.777 415.633 307.799 411.052 306.105" fill="#3d85c6" fill-rule="evenodd" opacity="1" stroke="none"/>
<path d="M424.499 281.559C424.746 282.879 424.565 284.323 423.925 285.658C422.301 289.021 418.382 290.408 415.24 288.749C415.227 288.739 415.214 288.739 415.205 288.73C410.187 286.101 404.724 285.76 399.609 286.792C394.539 287.87 390.324 290.602 387.584 294.838C385.497 297.596 384.385 300.844 384.243 304.472C388.652 303.929 393.506 304.52 398.008 306.458C397.999 305.143 398.369 303.876 399.199 302.772C401.145 299.9 404.967 298.97 408.06 300.897C408.096 300.919 408.135 300.928 408.171 300.95C412.924 303.929 418.462 304.625 423.74 303.05C426.37 302.249 429.031 300.945 431.238 299.035C433.351 297.075 435.187 294.608 436.564 291.754C438.369 287.813 439.455 283.722 438.779 279.542C434.516 281.943 429.256 282.54 424.499 281.559" fill="#000000" fill-rule="evenodd" opacity="1" stroke="none"/>
<path d="M434.185 255.315C434.675 256.595 434.772 258.065 434.402 259.499C433.228 263.007 429.411 264.883 426.092 263.785C426.048 263.771 426.004 263.766 425.964 263.753C420.598 261.899 414.958 262.319 410.311 264.195C407.946 265.126 405.977 266.493 404.111 268.099C402.182 269.68 400.607 271.604 399.508 273.881C397.928 276.943 397.725 280.54 397.888 284.009C402.394 282.95 406.917 282.623 411.697 283.89C411.454 282.566 411.578 281.233 412.178 279.992C413.687 276.86 417.584 275.488 420.898 276.917C420.911 276.922 420.924 276.922 420.938 276.931C426.096 279.194 431.926 279.154 436.683 276.693C441.515 274.283 445.756 269.635 447.813 263.635C448.916 259.437 448.938 255.108 447.87 251.132C443.797 254.093 439.071 255.576 434.185 255.315" fill="#3d85c6" fill-rule="evenodd" opacity="1" stroke="none"/>
<path d="M439.799 227.898C440.421 229.08 440.673 230.509 440.448 231.975C439.887 235.66 436.56 238.139 433.012 237.496C427.354 236.45 422.231 237.791 417.606 240.275C413.096 242.812 409.724 246.622 408.497 251.52C407.381 254.777 407.182 258.175 408.113 261.674C412.191 259.873 417.023 259.013 421.904 259.534C421.595 259.499 421.626 257.451 421.648 257.205C421.988 253.135 425.699 250.153 429.803 251.228C429.856 251.242 429.909 251.239 429.962 251.256C435.373 252.676 440.871 251.709 445.456 248.648C450.275 245.624 453.4 240.337 454.326 234.053C454.878 229.754 454.777 225.531 452.822 221.742C449.534 225.293 444.618 227.42 439.799 227.898" fill="#000000" fill-rule="evenodd" opacity="1" stroke="none"/>
<path d="M209.625 68.1784C186.43 68.1784 171.22 94.4152 171.22 106.583C171.22 110.385 172.361 111.146 175.023 111.146C177.684 111.146 191.373 96.3165 201.259 96.3165C231.679 96.3165 245.748 147.649 250.691 181.491C251.452 187.575 251.071 187.575 248.79 194.799C237.002 231.303 198.598 290.621 179.205 319.519C175.403 325.223 175.403 324.082 175.403 329.406C175.403 336.25 187.951 340.813 193.274 340.813C196.316 340.813 200.879 329.406 202.02 327.124C219.511 295.944 246.128 245.372 254.494 222.177C255.254 220.276 256.395 220.656 256.775 222.557C260.197 248.794 268.182 290.621 275.787 315.717C281.491 334.729 288.715 339.672 301.263 339.672C317.614 339.672 338.527 328.265 338.527 299.747C338.527 297.845 336.246 296.324 334.345 296.324C331.303 296.324 320.656 309.633 306.967 309.253C300.883 309.253 289.096 303.549 284.533 287.579C268.182 230.162 258.296 154.874 253.733 129.778C248.79 103.161 235.481 68.1784 209.625 68.1784Z" fill="#3d85c6" fill-rule="evenodd" opacity="1" stroke="#000000" stroke-linecap="butt" stroke-linejoin="miter" stroke-width="5"/>
<path d="M80.447 414.963L80.447 487.867L97.399 487.867L97.399 441.691L114.351 480.587L126.831 480.587L143.783 441.691L143.887 487.867L160.735 487.867L160.735 414.963L139.935 414.963L120.591 457.499L101.247 414.963L80.447 414.963Z" fill="#000000" fill-rule="evenodd" opacity="1" stroke="#3d85c6" stroke-linecap="butt" stroke-linejoin="miter" stroke-width="3"/>
<path d="M184.135 405.707C178.415 405.707 174.359 409.763 174.359 415.587C174.359 421.411 178.415 425.467 184.135 425.467C189.855 425.467 193.911 421.411 193.911 415.587C193.911 409.763 189.855 405.707 184.135 405.707ZM174.879 431.603L174.879 487.867L193.287 487.867L193.287 431.603L174.879 431.603Z" fill="#000000" fill-rule="evenodd" opacity="1" stroke="#3d85c6" stroke-linecap="butt" stroke-linejoin="miter" stroke-width="3"/>
<path d="M244.559 430.875C236.343 430.875 229.895 434.307 225.943 440.755L225.943 431.603L207.431 431.603L207.431 487.867L225.943 487.867L225.943 458.123C226.671 451.779 230.727 447.515 236.967 447.411C242.791 447.411 246.535 451.363 246.535 457.707L246.535 487.867L264.943 487.867L264.943 452.403C264.943 439.195 256.831 430.875 244.559 430.875Z" fill="#000000" fill-rule="evenodd" opacity="1" stroke="#3d85c6" stroke-linecap="butt" stroke-linejoin="miter" stroke-width="3"/>
<path d="M312.991 431.603L312.991 438.467C309.247 433.683 303.631 430.979 296.559 430.979C282.623 430.979 272.951 441.587 272.951 457.603C272.951 473.931 282.935 484.747 296.975 484.747C303.943 484.747 309.351 482.147 312.991 477.363L312.991 483.395C312.991 489.947 307.895 494.211 299.471 494.211C293.439 494.211 287.199 492.235 282.103 488.699L275.655 501.491C281.999 505.651 290.943 508.771 300.823 508.771C319.023 508.771 331.399 498.787 331.399 482.875L331.399 431.603L312.991 431.603ZM301.655 471.227C294.791 471.227 290.215 465.819 290.215 458.123C290.215 450.323 294.791 444.915 301.655 444.915C308.415 444.915 312.991 450.219 312.991 458.123C312.991 465.819 308.415 471.227 301.655 471.227Z" fill="#000000" fill-rule="evenodd" opacity="1" stroke="#3d85c6" stroke-linecap="butt" stroke-linejoin="miter" stroke-width="3"/>
<path d="M345.439 410.699L345.439 487.867L363.951 487.867L363.951 410.699L345.439 410.699Z" fill="#000000" fill-rule="evenodd" opacity="1" stroke="#3d85c6" stroke-linecap="butt" stroke-linejoin="miter" stroke-width="3"/>
<path d="M403.367 430.979C385.791 430.979 374.039 442.523 374.039 459.995C374.039 477.155 385.375 488.491 403.783 488.491C414.183 488.491 422.607 484.955 428.327 478.507L418.655 468.835C414.911 472.579 410.231 474.555 405.447 474.555C399.103 474.555 394.423 471.019 392.655 464.675L431.759 464.675C433.007 444.187 423.023 430.979 403.367 430.979ZM392.239 454.795C393.487 448.347 397.439 443.979 403.471 443.979C409.711 443.979 413.871 448.347 413.871 454.795L392.239 454.795Z" fill="#000000" fill-rule="evenodd" opacity="1" stroke="#3d85c6" stroke-linecap="butt" stroke-linejoin="miter" stroke-width="3"/>
</g>
</svg>
