<?xml version="1.0" encoding="UTF-8" standalone="no"?>
<!DOCTYPE svg PUBLIC "-//W3C//DTD SVG 1.1//EN" "http://www.w3.org/Graphics/SVG/1.1/DTD/svg11.dtd">

<!-- Created with Vectornator (http://vectornator.io/) -->
<svg height="100%" stroke-miterlimit="10" style="fill-rule:nonzero;clip-rule:evenodd;stroke-linecap:round;stroke-linejoin:round;" version="1.1" viewBox="0 0 512 512" width="100%" xml:space="preserve" xmlns="http://www.w3.org/2000/svg" xmlns:vectornator="http://vectornator.io" xmlns:xlink="http://www.w3.org/1999/xlink">
<metadata>
<vectornator:setting key="IsTimeLapseWatermarkDisabled" value="false"/>
<vectornator:setting key="UndoHistoryDisabled" value="true"/>
<vectornator:setting key="VNDimensionsVisible" value="true"/>
<vectornator:setting key="VNSnapToGuides" value="true"/>
<vectornator:setting key="WDCMYKEnabledKey" value="false"/>
<vectornator:setting key="WDDisplayWhiteBackground" value="false"/>
<vectornator:setting key="WDDynamicGuides" value="false"/>
<vectornator:setting key="WDGuidesVisible" value="true"/>
<vectornator:setting key="WDIsolateActiveLayer" value="false"/>
<vectornator:setting key="WDOutlineMode" value="false"/>
<vectornator:setting key="WDRulersVisible" value="true"/>
<vectornator:setting key="WDSnapToEdges" value="false"/>
<vectornator:setting key="WDSnapToGrid" value="false"/>
<vectornator:setting key="WDSnapToPoints" value="false"/>
<vectornator:setting key="WDUnits" value="Pixels"/>
</metadata>
<defs>
<clipPath id="TextBounds">
<rect height="118.278" width="514.996" x="2.91701" y="392.867"/>
</clipPath>
</defs>
<g id="Layer-1" vectornator:layerName="Layer 1">
<path d="M441.304 202.972C442.155 204.049 442.685 205.421 442.756 206.904C442.579 210.593 439.561 213.506 436.057 213.444C436.004 213.444 435.955 213.458 435.907 213.453C430.236 213.263 424.971 215.333 421.083 218.505C419.115 220.095 417.597 221.987 416.352 224.084C414.967 226.166 414.022 228.466 413.638 230.968C413.065 234.366 413.797 237.84 415.143 241.135C418.969 238.757 423.329 237.124 428.237 236.907C427.614 235.721 427.345 234.409 427.553 233.046C428.078 229.613 431.401 227.147 434.989 227.529C435.002 227.529 435.015 227.529 435.024 227.529C440.655 228.171 446.158 226.397 449.975 222.64C453.898 218.915 456.506 213.237 456.789 206.904C456.595 202.578 455.333 198.443 453.131 194.963C450.121 198.983 446.048 201.784 441.304 202.972" fill="#3d85c6" fill-rule="evenodd" opacity="1" stroke="none"/>
<path d="M438.612 175.122C439.561 176.069 440.227 177.362 440.448 178.833C441.012 182.522 438.559 185.877 434.989 186.278C429.375 186.926 424.644 189.724 420.995 193.458C417.442 197.209 415.36 201.851 415.651 206.904C415.452 210.358 416.339 213.668 418.241 216.745C421.604 213.81 425.964 211.56 430.783 210.619C430.042 209.534 429.644 208.281 429.715 206.904C429.534 203.43 432.301 200.505 435.907 200.355C435.955 200.35 436.004 200.338 436.057 200.333C441.648 200.103 446.613 197.566 450.09 193.299C451.815 191.158 453.272 188.584 454.044 185.766C455.081 181.993 454.732 177.812 453.77 174.097C453.488 173.008 453.139 171.93 452.711 170.884C452.288 169.86 451.789 168.864 451.206 167.919C451.043 167.659 449.291 165.478 449.331 165.408C447.027 169.812 443.122 173.246 438.612 175.122" fill="#231f20" fill-rule="evenodd" opacity="1" stroke="none"/>
<path d="M431.895 147.964C433.007 148.749 433.987 149.883 434.402 151.308C435.328 154.883 433.321 158.547 429.953 159.521C429.9 159.538 429.856 159.566 429.803 159.578C424.327 161.065 419.914 164.584 417.142 168.748C414.57 172.898 412.906 177.844 413.638 182.839C414.058 186.264 415.955 189.345 418.007 192.129C421.171 188.709 424.689 185.894 429.358 184.247C428.409 183.294 427.76 182.125 427.553 180.762C427.028 177.323 429.468 173.996 433.012 173.311C433.034 173.308 433.051 173.299 433.073 173.294C438.537 172.27 443.479 168.929 445.986 164.23C448.629 159.521 449.428 153.32 447.813 147.173C446.436 143.065 443.938 139.504 440.823 136.816C439.141 141.551 436.079 145.43 431.895 147.964" fill="#3d85c6" fill-rule="evenodd" opacity="1" stroke="none"/>
<path d="M421.079 122.148C422.266 122.774 423.281 123.811 423.925 125.147C425.545 128.516 424.19 132.443 420.898 133.891C415.695 136.185 412.067 140.236 409.68 144.878C408.497 147.181 407.756 149.769 407.571 152.346C407.363 155.232 407.822 157.65 408.793 160.333C409.318 161.772 409.923 163.135 410.783 164.411C411.013 164.751 413.841 167.993 413.903 167.902C416.242 164.123 419.742 160.695 424.062 158.378C423.034 157.563 422.279 156.485 421.939 155.147C420.832 151.86 422.544 148.267 425.964 147.054C426.004 147.042 426.039 147.014 426.083 146.997C431.37 145.13 435.368 141.234 437.425 136.123C438.426 133.568 439.093 130.66 438.938 127.756C438.722 124.884 437.941 121.909 436.564 119.054C434.596 115.187 432.098 111.778 428.378 109.721C427.632 114.536 424.799 119.037 421.079 122.148" fill="#231f20" fill-rule="evenodd" opacity="1" stroke="none"/>
<path d="M409.967 100.677L409.967 100.677C412.041 103.741 411.079 107.936 408.153 109.834C408.122 109.857 408.096 109.888 408.06 109.91C403.268 112.951 400.086 117.628 398.652 122.439C397.91 124.867 397.73 127.28 397.858 129.724C397.893 132.219 398.409 134.649 399.508 136.926C400.925 140.069 403.586 142.477 406.432 144.499C408.383 140.329 410.964 136.569 414.927 133.617C413.74 132.986 412.778 132.058 412.178 130.814C410.669 127.685 412.023 123.781 415.205 122.072C415.214 122.067 415.223 122.058 415.236 122.055C420.236 119.416 423.802 114.848 424.848 109.583C425.964 104.315 425.028 98.0694 421.555 92.7654C418.974 89.2795 415.62 86.5611 411.86 84.9098C411.622 89.9451 409.826 94.5699 406.573 98.2331C407.875 98.6488 409.08 99.4917 409.967 100.677" fill="#3d85c6" fill-rule="evenodd" opacity="1" stroke="none"/>
<path d="M392.266 78.7625C394.768 81.5122 394.614 85.6596 391.953 87.9901C391.935 88.0073 391.922 88.0298 391.9 88.0523C387.549 91.8206 385.373 96.6833 384.508 101.79C383.67 106.909 384.535 111.94 387.584 115.97C389.504 118.833 391.988 121.141 395.316 122.584C396.445 118.268 398.789 113.948 402.235 110.454C400.986 109.998 400.06 109.116 399.199 108.035C397.112 105.254 397.765 101.265 400.655 99.1021C400.699 99.0712 400.73 99.0279 400.775 98.9917C405.258 95.6476 407.937 90.7447 408.418 85.2456C409.084 79.5828 406.785 73.939 402.553 69.2123C399.649 65.9925 396.101 63.6395 391.944 62.7617C392.624 67.6024 391.437 72.5308 388.696 76.7024C390.002 76.9628 391.269 77.6645 392.266 78.7625" fill="#231f20" fill-rule="evenodd" opacity="1" stroke="none"/>
<path d="M372.65 68.8332C368.961 73.1495 367.271 78.5727 367.289 83.6256C367.302 86.1543 367.756 88.5986 368.67 90.8277C369.588 93.0531 370.66 95.3647 372.399 97.204C374.711 99.7693 377.752 101.478 381.3 102.372C381.697 98.0041 383.264 93.4755 386.132 89.5311C384.821 89.2659 383.639 88.652 382.708 87.6335C380.378 85.0598 380.541 80.9173 383.069 78.352C383.074 78.349 383.074 78.349 383.078 78.3437C387.125 74.3234 388.983 69.1108 388.542 63.6567C388.321 60.9378 387.531 58.1797 386.194 55.5632C384.844 52.96 383.043 50.3969 380.439 48.5783C376.979 45.9698 372.999 44.3237 368.939 43.8171C370.17 48.7314 369.791 53.7067 367.747 58.1678C369.107 58.1938 370.497 58.6572 371.684 59.5433C374.747 61.6757 374.941 66.1284 372.69 68.7762C372.672 68.7934 372.664 68.816 372.65 68.8332" fill="#3d85c6" fill-rule="evenodd" opacity="1" stroke="none"/>
<path d="M344.394 42.743C345.713 42.6154 347.121 42.9292 348.392 43.6962C351.556 45.6167 352.611 49.6282 350.788 52.629C350.766 52.6687 350.757 52.7084 350.731 52.7482C347.726 57.5628 346.914 63.0927 347.765 67.9506C348.445 73.1133 350.709 77.7214 354.769 80.7258C357.659 82.6516 360.523 84.3582 364.155 84.7289C363.992 80.2417 364.981 75.4046 367.258 71.0397C366 70.8861 364.632 70.59 363.546 69.7347C360.762 67.6593 360.237 63.6254 362.364 60.7141C362.399 60.6656 362.417 60.6121 362.452 60.5641C365.753 56.0491 366.887 50.5589 365.762 45.1304C364.654 39.6592 360.806 34.901 355.417 31.552C353.546 30.4624 351.653 29.5004 349.592 29.0454C347.523 28.6094 345.422 28.4457 343.343 28.5644C345.338 33.1464 345.824 37.8904 344.394 42.743" fill="#231f20" fill-rule="evenodd" opacity="1" stroke="none"/>
<path d="M318.286 43.5461C317.523 43.2827 316.592 42.9345 316.049 42.4138C315.418 41.8123 314.985 41.0228 314.685 40.2156C314.121 38.6918 313.94 36.8353 314.482 35.277C314.5 35.2289 314.5 35.1804 314.518 35.1358C316.349 29.845 315.815 24.2308 313.136 19.3368C310.383 14.6687 305.361 11.0504 299.209 9.46619C295.034 8.23362 290.67 8.82497 286.782 10.2332C290.052 13.9895 291.897 18.5129 292.002 23.3981C293.225 22.8897 294.664 22.7794 296.098 23.1501C299.672 24.0636 301.857 27.5715 301.031 30.969C301.018 31.0277 301.023 31.0847 301.005 31.138C299.562 36.627 300.418 42.1653 302.664 46.5752C304.911 51.0672 308.353 55.039 313.114 56.6938C316.415 57.7353 319.765 58.2336 323.273 57.6868C321.799 53.4498 321.375 48.4004 322.21 43.7015C322.095 44.3409 319.001 43.7981 318.631 43.6706C318.52 43.6309 318.406 43.5912 318.286 43.5461" fill="#231f20" fill-rule="evenodd" opacity="1" stroke="none"/>
<path d="M318.865 31.2793C320.171 30.909 321.631 30.9518 323.026 31.4637C324.774 32.1036 326.093 33.3754 326.777 34.8838C327.417 36.4853 327.439 38.2955 326.728 39.9557C324.473 45.1613 324.447 50.8673 325.934 55.7217C327.386 60.6969 330.621 64.3187 334.818 67.1611C337.761 68.966 341.128 69.7608 344.791 69.571C343.886 65.2802 344.085 60.4449 345.669 55.8285C344.345 55.956 343.039 55.7044 341.861 54.9855C340.369 54.0774 339.376 52.6206 338.953 50.983C338.498 49.4075 338.595 47.6816 339.451 46.058C342.108 41.0709 342.377 35.5065 340.36 30.4055C337.765 23.8376 332.298 19.2971 325.537 17.5905C324.438 17.3112 323.322 17.1078 322.192 16.9802C321.084 16.8615 319.968 16.813 318.856 16.8474C318.551 16.858 315.837 17.249 315.78 17.1576C318.401 21.5172 319.5 26.4029 318.865 31.2793" fill="#3d85c6" fill-rule="evenodd" opacity="1" stroke="none"/>
<path d="M268.243 19.023C271.733 19.2454 274.725 22.1964 274.297 26.0009C273.688 31.6451 275.352 37.1076 278.207 41.3189C279.646 43.4239 281.394 45.22 283.397 46.57C284.403 47.2491 285.467 47.8144 286.597 48.2557C289.306 49.3193 292.179 50.2552 295.1 49.9194C295.515 49.8709 300.334 49.0505 300.303 48.9918C298.181 45.1441 296.941 40.4486 297.086 35.563C295.859 36.0718 294.544 36.2077 293.207 35.8631C289.871 34.8807 287.603 31.6725 288.256 28.0834C289.302 22.5415 287.912 17.1492 284.478 12.8673C281.058 8.68329 275.635 5.11008 269.28 5.02182C264.955 4.79279 260.745 5.6445 257.113 7.49223C260.895 10.8863 263.388 15.2238 264.218 20.0693C264.174 19.8006 266.063 19.2454 266.288 19.192C266.945 19.0367 267.603 18.985 268.243 19.023" fill="#3d85c6" fill-rule="evenodd" opacity="1" stroke="none"/>
<path d="M236.244 20.4709C237.263 19.6245 238.605 19.0901 240.083 19.0142C243.768 18.8249 246.888 21.5345 247.096 25.0256C247.096 25.0821 247.113 25.1324 247.118 25.1893C247.347 30.8587 249.796 35.8909 253.243 39.4332C255.052 41.2915 257.02 42.9548 259.337 44.16C260.516 44.7703 261.756 45.2597 263.044 45.5854C265.957 46.3233 268.38 46.0355 271.358 45.5633C273.022 45.2994 274.655 44.7703 276.248 43.9755C273.587 40.352 271.689 35.6424 271.089 30.9518C269.946 31.6897 268.662 32.0913 267.281 32.0207C263.808 31.8481 261.098 28.7939 261.213 25.1893C261.217 25.1324 261.2 25.079 261.204 25.0256C261.385 19.4352 259.223 14.2358 255.233 10.3607C251.231 6.62331 245.379 4.73057 239.046 5.02182C236.888 5.16349 234.788 5.44943 232.828 6.20806C230.873 7.02004 229.046 8.07166 227.391 9.34172C231.619 11.9847 234.695 15.6479 236.244 20.4709" fill="#231f20" fill-rule="evenodd" opacity="1" stroke="none"/>
<path d="M208.694 25.353C209.563 24.3098 210.794 23.5172 212.228 23.1501C215.821 22.1086 219.395 24.5843 220.066 28.0834C220.07 28.1006 220.075 28.1147 220.079 28.1319C221.151 33.7064 224.338 38.4284 228.296 41.5965C232.299 44.87 237.007 46.0439 242.087 46.0492C245.542 45.8855 248.777 44.6547 251.698 42.4429C248.53 39.4041 245.966 35.2859 244.668 30.5811C243.645 31.4293 242.427 31.9536 241.05 32.0207C237.568 32.1226 234.443 29.5039 234.033 26.0044C234.033 25.996 234.029 25.9872 234.029 25.9836C233.415 20.3659 230.503 15.6166 225.966 12.5447C223.702 11.0054 221.046 9.88497 218.164 9.27996C216.721 8.97457 215.225 8.79893 213.693 8.7645C212.184 8.81261 210.657 9.08489 209.122 9.46619C204.912 10.5332 201.134 12.6034 198.204 15.4493C202.82 17.568 206.474 20.9691 208.694 25.353" fill="#3d85c6" fill-rule="evenodd" opacity="1" stroke="none"/>
<path d="M182.065 33.9929C182.789 32.8808 183.91 31.9726 185.305 31.4637C188.773 30.1884 192.564 31.8569 193.786 35.1442C193.804 35.1927 193.83 35.2289 193.848 35.277C195.741 40.626 199.563 44.7116 203.892 47.0765C208.332 49.6899 213.362 50.8779 218.239 49.5796C221.544 48.547 224.629 47.2231 227.202 44.72C223.596 42.0241 220.423 38.2024 218.442 33.71C217.568 34.7514 216.456 35.5202 215.119 35.8631C211.756 36.7338 208.274 34.6204 207.325 31.138C207.308 31.0847 207.277 31.0366 207.264 30.9796C205.79 25.5856 202.202 21.2657 197.246 18.7507C192.295 16.275 186.156 16.2613 180.177 18.4025C176.046 19.7692 172.71 22.5724 170.314 25.996C175.146 27.2802 179.17 29.8799 182.065 33.9929" fill="#231f20" fill-rule="evenodd" opacity="1" stroke="none"/>
<path d="M159.939 43.6962C161.532 42.7341 163.345 42.4932 164.956 42.9032C166.589 43.3617 168.036 44.4994 168.87 46.0629C168.875 46.0664 168.884 46.0752 168.884 46.0801C171.562 51.0845 176.011 54.6599 180.733 56.5217C185.538 58.5023 190.375 58.185 195.216 56.6938C198.455 55.52 201.178 53.3876 203.31 50.4088C199.391 48.4402 195.728 45.2685 193.102 41.1552C192.374 42.2673 191.368 43.1273 190.071 43.5995C188.429 44.1997 186.673 44.0633 185.128 43.3758C183.628 42.7845 182.321 41.6106 181.602 39.9557C181.598 39.9469 181.593 39.9367 181.589 39.9279C179.338 34.7514 175.146 31.0758 169.899 29.4748C164.722 27.9611 158.231 28.0578 152.913 31.552C149.202 33.7947 146.192 36.8697 144.228 40.4363C149.272 41.1106 153.782 43.2946 157.202 46.8303C157.723 45.5854 158.672 44.4685 159.939 43.6962" fill="#3d85c6" fill-rule="evenodd" opacity="1" stroke="none"/>
<path d="M136.647 59.5433C139.595 57.3368 143.703 57.8231 145.848 60.5813C145.883 60.6294 145.932 60.6656 145.967 60.7141C149.356 65.263 154.228 68.0525 159.087 69.0591C163.963 70.0348 169.25 69.8658 173.513 67.1611C175 66.2922 176.258 65.0786 177.471 63.8994C178.694 62.7428 179.744 61.3791 180.613 59.8262C176.381 58.3439 172.154 55.5063 169.012 51.9671C168.487 53.2151 167.648 54.2702 166.47 54.9855C163.5 56.7958 159.537 55.7923 157.6 52.7482C157.573 52.7084 157.542 52.6824 157.516 52.6431C154.515 47.9075 149.789 44.822 144.29 43.8652C141.073 43.2999 137.52 43.9274 134.489 45.0082C131.408 46.1061 128.244 47.9336 125.91 50.2191C125.071 51.0399 124.33 51.9534 123.672 52.9203C123.015 53.8823 122.446 54.9013 121.938 55.9476C121.806 56.2252 120.892 58.7816 120.755 58.7852C125.746 58.5901 130.455 59.9988 134.33 62.955C134.599 61.5654 135.482 60.4621 136.647 59.5433" fill="#231f20" fill-rule="evenodd" opacity="1" stroke="none"/>
<path d="M114.334 82.5307C114.48 81.1949 115.067 79.8573 116.064 78.7625C118.584 75.9924 122.737 75.8026 125.252 78.3437L125.257 78.349L125.257 78.349C129.255 82.3101 134.59 84.4561 139.674 84.8665C142.225 85.0682 144.731 84.8304 147.052 84.1203C149.387 83.427 151.452 82.1481 153.557 80.7258C156.333 78.6693 158.328 75.8543 159.502 72.4033C155.155 71.6584 150.706 69.6897 146.977 66.53C146.602 67.797 145.887 68.9091 144.78 69.7347C141.911 71.7105 138.099 71.6138 135.68 68.8332C135.667 68.816 135.645 68.8023 135.632 68.7851C131.956 64.5186 126.867 62.2309 121.369 62.2189C118.615 62.2053 115.773 62.7569 113.028 63.8566C110.288 64.9599 107.949 66.9095 105.778 69.2123C102.869 72.4258 100.839 76.1941 100.023 80.1883C105.032 79.3503 110.027 80.1534 114.334 82.5307" fill="#3d85c6" fill-rule="evenodd" opacity="1" stroke="none"/>
<path d="M97.2781 104.703C97.0619 104.618 97.4105 102.791 97.4634 102.581C97.5561 102.208 97.6664 101.786 97.8694 101.455C99.7935 98.3298 104.132 96.618 107.534 99.0191C107.578 99.054 107.631 99.0712 107.675 99.1021C112.251 102.46 117.746 103.713 122.719 103.272C127.551 102.677 132.578 100.983 135.932 97.204C138.231 94.6268 139.647 91.4102 140.517 88.0435C135.914 87.7522 131.294 86.5386 127.198 84.0237C127.053 85.3701 126.55 86.6092 125.618 87.6335C123.284 90.2054 119.175 90.3916 116.364 87.9989C112.163 84.3807 106.492 82.6292 101.197 83.5373C95.8792 84.4168 90.5527 87.6644 86.7751 92.7654C84.3568 96.3523 83.1829 100.564 83.0108 104.663C87.7548 103.031 92.693 103.008 97.2781 104.703" fill="#231f20" fill-rule="evenodd" opacity="1" stroke="none"/>
<path d="M83.8316 129.248C83.5845 127.928 83.761 126.485 84.4053 125.147C86.0293 121.786 89.9481 120.4 93.0901 122.058C93.1033 122.067 93.1122 122.067 93.1254 122.072C98.143 124.706 103.606 125.047 108.717 124.013C113.792 122.938 118.006 120.205 120.746 115.97C122.834 113.212 123.942 109.962 124.083 106.335C119.679 106.878 114.824 106.282 110.323 104.35C110.332 105.665 109.961 106.932 109.131 108.035C107.185 110.907 103.364 111.838 100.27 109.91C100.235 109.888 100.195 109.88 100.16 109.857C95.407 106.878 89.8686 106.18 84.5907 107.756C81.9605 108.559 79.2995 109.862 77.093 111.772C74.9791 113.732 73.1433 116.199 71.7664 119.054C69.9615 122.995 68.8759 127.085 69.5511 131.265C73.8096 128.864 79.0744 128.268 83.8316 129.248" fill="#3d85c6" fill-rule="evenodd" opacity="1" stroke="none"/>
<path d="M74.145 155.492C73.6552 154.213 73.5537 152.743 73.9288 151.308C75.1027 147.8 78.92 145.925 82.2385 147.023C82.2783 147.037 82.3224 147.042 82.3665 147.054C87.7327 148.907 93.3682 148.488 98.0195 146.613C100.385 145.682 102.353 144.309 104.22 142.708C106.148 141.127 107.724 139.209 108.823 136.926C110.402 133.863 110.605 130.267 110.442 126.799C105.936 127.857 101.413 128.185 96.6294 126.918C96.8765 128.242 96.7485 129.574 96.1528 130.814C94.6435 133.942 90.7468 135.32 87.4326 133.891C87.4194 133.885 87.4062 133.885 87.3929 133.877C82.2341 131.614 76.4045 131.653 71.6473 134.115C66.815 136.525 62.5741 141.172 60.5176 147.173C59.4144 151.37 59.3924 155.699 60.4559 159.676C64.5291 156.714 69.2554 155.232 74.145 155.492" fill="#231f20" fill-rule="evenodd" opacity="1" stroke="none"/>
<path d="M68.5317 182.91C67.9094 181.727 67.6579 180.298 67.8786 178.833C68.4435 175.147 71.7708 172.667 75.2571 173.308C75.2748 173.311 75.2968 173.308 75.3189 173.311C80.9764 174.358 86.0999 173.017 90.7248 170.531C95.2349 167.993 98.6064 164.185 99.8332 159.292L99.8332 159.288C100.95 156.03 101.144 152.632 100.213 149.133C96.1395 150.932 91.3073 151.794 86.4221 151.274C86.8325 152.53 86.7751 153.823 86.3912 155.147C85.5306 158.516 82.0135 160.491 78.5272 159.578C78.4742 159.566 78.4213 159.569 78.3683 159.552C72.958 158.131 67.4593 159.098 62.8698 162.16C58.0552 165.178 54.9264 170.471 53.9996 176.754C53.4524 181.051 53.5539 185.275 55.5089 189.065C58.7966 185.514 63.7127 183.387 68.5317 182.91" fill="#3d85c6" fill-rule="evenodd" opacity="1" stroke="none"/>
<path d="M67.0224 210.836C66.1752 209.758 65.6456 208.386 65.5706 206.904C65.7515 203.215 68.7656 200.301 72.2739 200.364C72.3269 200.364 72.371 200.35 72.424 200.355C78.0947 200.545 83.3594 198.474 87.2473 195.302C89.2111 193.713 90.7336 191.82 91.9781 189.724C93.3638 187.642 94.3081 185.342 94.6877 182.839C95.2657 179.441 94.5332 175.968 93.1872 172.672C89.3567 175.051 85.0011 176.683 80.0938 176.9C80.716 178.086 80.9852 179.396 80.7778 180.762C80.2526 184.194 76.9253 186.661 73.3375 186.278C73.3286 186.278 73.3154 186.278 73.3066 186.278C67.6755 185.637 62.1725 187.41 58.3553 191.167C54.4277 194.892 51.824 200.571 51.5372 206.904C51.7357 211.229 52.9979 215.364 55.2 218.845C58.2096 214.825 62.2829 212.024 67.0224 210.836" fill="#231f20" fill-rule="evenodd" opacity="1" stroke="none"/>
<path d="M69.7188 238.686C68.77 237.738 68.1036 236.445 67.8786 234.975C67.3181 231.286 69.7717 227.931 73.3066 227.535C73.3154 227.535 73.3286 227.529 73.3375 227.529C78.9552 226.881 83.6816 224.084 87.3356 220.35C90.8836 216.599 92.9666 211.956 92.6797 206.904C92.8783 203.447 91.9913 200.138 90.0849 197.062C86.7266 199.998 82.3665 202.247 77.5475 203.187C78.2845 204.273 78.6861 205.526 78.611 206.904C78.7964 210.377 76.0294 213.303 72.424 213.453C72.371 213.458 72.3269 213.47 72.2739 213.475C66.6826 213.704 61.718 216.242 58.2405 220.508C56.5151 222.649 55.0587 225.221 54.2865 228.042C53.6466 230.848 53.523 233.92 53.9996 237.053C54.7057 241.329 56.2194 245.302 58.9996 248.4C61.3032 243.996 65.2087 240.562 69.7188 238.686" fill="#3d85c6" fill-rule="evenodd" opacity="1" stroke="none"/>
<path d="M76.4354 265.843C75.3233 265.059 74.3437 263.919 73.9288 262.499C73.0021 258.924 75.01 255.261 78.3771 254.287C78.4257 254.268 78.4742 254.242 78.5272 254.228C84.0037 252.742 88.4167 249.224 91.1881 245.059C93.7609 240.91 95.4246 235.964 94.6877 230.968C94.2684 227.543 92.3708 224.463 90.3232 221.679C87.159 225.099 83.6419 227.914 78.9729 229.56C79.9217 230.513 80.5704 231.682 80.7778 233.046C81.3029 236.485 78.8582 239.812 75.3189 240.496C75.2968 240.5 75.2792 240.508 75.2571 240.513C69.7938 241.537 64.8513 244.878 62.3446 249.577C59.7012 254.287 58.9025 260.486 60.5176 266.635C61.8945 270.742 64.3923 274.304 67.5078 276.991C69.1892 272.256 72.2518 268.377 76.4354 265.843" fill="#231f20" fill-rule="evenodd" opacity="1" stroke="none"/>
<path d="M87.2517 291.66C86.0646 291.034 85.0496 289.996 84.4053 288.658C82.7858 285.292 84.1405 281.365 87.4326 279.917C92.6356 277.622 96.2631 273.571 98.6505 268.929C100.954 264.29 101.51 259.272 99.8332 254.52C98.9948 251.17 97.1589 248.276 94.4273 245.905C92.0884 249.684 88.5888 253.113 84.2641 255.43C85.2967 256.245 86.0469 257.322 86.3912 258.66C87.4988 261.948 85.7866 265.54 82.3665 266.753C82.3224 266.766 82.2871 266.793 82.2473 266.81C76.9606 268.678 72.9624 272.573 70.9059 277.684C69.9041 280.239 69.2334 283.147 69.3922 286.052C69.4761 287.645 69.8071 289.255 70.2484 290.785C71.0162 293.456 72.0489 295.58 73.5802 297.908C74.401 299.158 75.3278 300.341 76.3913 301.396C76.7002 301.704 79.957 304.043 79.9482 304.087C80.6939 299.272 83.5271 294.771 87.2517 291.66" fill="#3d85c6" fill-rule="evenodd" opacity="1" stroke="none"/>
<path d="M98.3637 313.13C96.2852 310.067 97.2516 305.869 100.173 303.973C100.208 303.95 100.235 303.919 100.27 303.897C105.058 300.856 108.244 296.179 109.679 291.368C110.416 288.941 110.597 286.528 110.473 284.083C110.438 281.589 109.917 279.158 108.823 276.881C107.402 273.738 104.741 271.328 101.899 269.308C99.9479 273.478 97.3663 277.238 93.4035 280.191C94.5906 280.822 95.5526 281.749 96.1528 282.992C97.6576 286.123 96.3028 290.027 93.1254 291.736C93.1122 291.739 93.1078 291.749 93.0946 291.753C88.0946 294.392 84.5289 298.96 83.483 304.224C82.3665 309.493 83.3021 315.738 86.7751 321.042C89.3567 324.528 92.7106 327.246 96.4705 328.898C96.7088 323.862 98.5049 319.237 101.757 315.574C100.455 315.159 99.2507 314.316 98.3637 313.13" fill="#231f20" fill-rule="evenodd" opacity="1" stroke="none"/>
<path d="M116.064 335.045C113.562 332.296 113.717 328.146 116.431 325.755C120.782 321.987 122.953 317.124 123.822 312.018C124.661 306.898 123.796 301.868 120.746 297.838C118.827 294.974 116.342 292.666 113.015 291.223C111.885 295.54 109.542 299.86 106.091 303.354C107.344 303.809 108.271 304.692 109.131 305.772C111.219 308.553 110.566 312.542 107.675 314.705C107.631 314.737 107.6 314.779 107.556 314.816C103.072 318.16 100.394 323.063 99.9127 328.562C99.6523 331.527 100.014 334.395 101.104 337.175C101.673 338.632 102.406 340.018 103.262 341.329C104.727 343.571 106.223 345.305 108.302 347.031C109.471 348.002 110.738 348.853 112.097 349.537C112.494 349.735 116.378 350.992 116.386 351.046C115.707 346.205 116.894 341.275 119.634 337.105C118.328 336.845 117.062 336.143 116.064 335.045" fill="#3d85c6" fill-rule="evenodd" opacity="1" stroke="none"/>
<path d="M135.68 344.974C139.369 340.658 141.06 335.235 141.042 330.182C141.024 327.653 140.574 325.207 139.656 322.98C138.743 320.754 137.666 318.443 135.932 316.602C133.615 314.038 130.579 312.33 127.031 311.435C126.629 315.804 125.062 320.332 122.198 324.276C123.509 324.541 124.692 325.15 125.618 326.174C127.953 328.748 127.79 332.89 125.257 335.455L125.257 335.459L125.257 335.459C121.201 339.484 119.348 344.695 119.789 350.151C120.01 352.869 120.799 355.628 122.137 358.245C123.483 360.847 125.288 363.411 127.887 365.229C131.351 367.837 135.332 369.484 139.391 369.991C138.16 365.074 138.54 360.106 140.583 355.64C139.224 355.614 137.834 355.15 136.647 354.262C133.584 352.132 133.39 347.679 135.64 345.031C135.658 345.014 135.667 344.991 135.68 344.974" fill="#231f20" fill-rule="evenodd" opacity="1" stroke="none"/>
<path d="M163.937 371.063C162.617 371.192 161.205 370.878 159.939 370.11C156.774 368.191 155.72 364.18 157.542 361.178C157.564 361.139 157.573 361.099 157.6 361.059C160.605 356.245 161.417 350.715 160.565 345.857C159.881 340.692 157.622 336.086 153.557 333.08C150.671 331.156 147.807 329.45 144.175 329.079C144.339 333.566 143.35 338.403 141.068 342.768C142.331 342.921 143.699 343.218 144.78 344.073C147.569 346.148 148.094 350.18 145.967 353.094C145.932 353.142 145.91 353.195 145.874 353.244C142.578 357.758 141.444 363.248 142.569 368.675C143.677 374.148 147.525 378.901 152.913 382.256C154.784 383.345 156.677 384.307 158.738 384.762C160.808 385.198 162.908 385.362 164.987 385.243C162.992 380.661 162.502 375.917 163.937 371.063" fill="#3d85c6" fill-rule="evenodd" opacity="1" stroke="none"/>
<path d="M189.466 382.528C188.16 382.899 186.699 382.856 185.305 382.344C183.557 381.704 182.238 380.432 181.553 378.923C180.909 377.32 180.892 375.512 181.602 373.852C183.853 368.644 183.879 362.938 182.396 358.084C180.94 353.111 177.71 349.489 173.513 346.646C170.565 344.841 167.202 344.047 163.54 344.236C164.444 348.525 164.246 353.362 162.661 357.979C162.886 357.331 165.821 358.38 166.209 358.57C167.789 359.329 168.901 361.173 169.378 362.824C169.828 364.4 169.735 366.126 168.875 367.75C166.218 372.737 165.953 378.301 167.97 383.407C170.018 388.375 174.118 393.433 180.177 395.405C184.245 396.91 188.53 397.343 192.546 396.65C189.929 392.29 188.826 387.405 189.466 382.528" fill="#231f20" fill-rule="evenodd" opacity="1" stroke="none"/>
<path d="M212.228 390.658C208.658 389.744 206.474 386.236 207.295 382.837C207.312 382.78 207.308 382.723 207.325 382.669C208.769 377.181 207.908 371.642 205.666 367.232C203.42 362.74 199.978 358.768 195.216 357.113C191.915 356.072 188.566 355.574 185.057 356.121C186.531 360.358 186.955 365.405 186.121 370.101C186.174 369.815 188.226 369.818 188.486 369.858C192.52 370.511 195.287 374.423 193.848 378.53C193.83 378.579 193.83 378.624 193.813 378.672C191.981 383.962 192.515 389.577 195.194 394.471C197.948 399.139 202.965 402.757 209.122 404.341C213.292 405.574 217.656 404.983 221.549 403.574C218.279 399.818 216.434 395.295 216.324 390.409C215.106 390.918 213.667 391.028 212.228 390.658" fill="#3d85c6" fill-rule="evenodd" opacity="1" stroke="none"/>
<path d="M240.083 394.793C236.346 394.669 233.623 391.452 234.033 387.829C234.033 387.82 234.033 387.812 234.033 387.806C234.642 382.163 232.978 376.698 230.119 372.488C228.685 370.384 226.937 368.593 224.933 367.238C223.927 366.558 222.859 365.993 221.73 365.552C220.622 365.023 219.466 364.536 218.239 364.228C214.903 363.354 211.46 363.566 208.027 364.814C210.15 368.663 211.39 373.359 211.244 378.244C212.467 377.736 213.786 377.6 215.119 377.943C218.46 378.927 220.728 382.135 220.079 385.676C220.075 385.693 220.079 385.71 220.075 385.724C219.024 391.266 220.419 396.658 223.852 400.94C227.272 405.122 232.696 408.698 239.046 408.785C243.375 409.015 247.585 408.163 251.217 406.315C247.435 402.921 244.942 398.582 244.112 393.738C242.974 394.474 241.566 394.867 240.083 394.793" fill="#231f20" fill-rule="evenodd" opacity="1" stroke="none"/>
<path d="M272.082 393.336C271.067 394.183 269.726 394.717 268.243 394.793C264.562 394.983 261.442 392.273 261.235 388.782C261.231 388.725 261.217 388.675 261.213 388.618C260.983 382.947 258.534 377.917 255.088 374.373C251.61 370.658 247.14 367.953 242.087 367.758C240.361 367.648 238.64 367.931 236.972 368.243C235.308 368.508 233.676 369.037 232.078 369.832C234.739 373.455 236.641 378.163 237.241 382.856C238.384 382.118 239.669 381.716 241.05 381.787C244.523 381.959 247.232 385.014 247.118 388.618C247.113 388.675 247.131 388.725 247.126 388.782C246.946 394.372 249.108 399.572 253.097 403.447C257.1 407.184 262.947 409.077 269.28 408.785C271.442 408.644 273.543 408.358 275.502 407.599C277.457 406.788 279.284 405.736 280.935 404.466C276.707 401.823 273.635 398.16 272.082 393.336" fill="#3d85c6" fill-rule="evenodd" opacity="1" stroke="none"/>
<path d="M299.637 388.455C298.768 389.496 297.536 390.29 296.098 390.658C292.51 391.699 288.935 389.223 288.251 385.676C287.179 380.101 283.993 375.379 280.034 372.211C276.032 368.936 271.323 367.763 266.244 367.758C262.788 367.922 259.554 369.153 256.632 371.363C259.801 374.404 262.365 378.522 263.662 383.226C263.578 382.935 265.471 382.154 265.714 382.078C269.628 380.842 273.834 383.84 274.302 387.824C274.911 393.442 277.828 398.191 282.364 401.261C284.628 402.802 287.285 403.923 290.167 404.528C291.61 404.831 293.106 405.009 294.633 405.043C297.426 405.11 300.652 404.09 303.185 402.983C304.505 402.404 305.775 401.713 306.971 400.909C307.302 400.689 310.021 398.31 310.127 398.358C305.511 396.239 301.857 392.837 299.637 388.455" fill="#231f20" fill-rule="evenodd" opacity="1" stroke="none"/>
<path d="M326.265 379.815C325.541 380.927 324.416 381.835 323.026 382.344C319.553 383.619 315.767 381.951 314.544 378.663C314.526 378.615 314.5 378.579 314.482 378.53C312.589 373.181 308.768 369.096 304.434 366.729C299.999 364.117 294.968 362.93 290.092 364.228C286.786 365.26 283.702 366.584 281.129 369.086C284.734 371.783 287.907 375.605 289.889 380.097C290.762 379.056 291.874 378.287 293.207 377.943C296.574 377.074 300.056 379.187 301.005 382.669C301.023 382.723 301.054 382.771 301.067 382.828C302.536 388.222 306.129 392.542 311.08 395.057C316.036 397.532 322.174 397.546 328.154 395.405C332.284 394.038 335.621 391.235 338.013 387.812C333.185 386.527 329.16 383.928 326.265 379.815" fill="#3d85c6" fill-rule="evenodd" opacity="1" stroke="none"/>
<path d="M348.392 370.11C346.799 371.073 344.981 371.314 343.374 370.904C341.737 370.446 340.294 369.306 339.456 367.744C339.456 367.741 339.447 367.732 339.442 367.727C336.768 362.723 332.32 359.147 327.593 357.286C322.792 355.305 317.951 355.622 313.114 357.113C309.871 358.287 307.152 360.42 305.021 363.399C308.94 365.365 312.602 368.539 315.228 372.652C315.952 371.54 316.962 370.68 318.256 370.208C319.897 369.608 321.658 369.744 323.202 370.432C324.703 371.023 326.005 372.197 326.728 373.852C326.733 373.861 326.737 373.871 326.742 373.88C328.992 379.056 333.185 382.731 338.432 384.333C343.608 385.846 350.1 385.75 355.417 382.256C359.129 380.013 362.134 376.938 364.102 373.371C359.054 372.697 354.548 370.511 351.128 366.977C350.603 368.222 349.659 369.337 348.392 370.11" fill="#231f20" fill-rule="evenodd" opacity="1" stroke="none"/>
<path d="M371.684 354.262L371.684 354.262C368.736 356.469 364.623 355.984 362.483 353.226C362.447 353.178 362.399 353.142 362.364 353.094C358.974 348.544 354.102 345.755 349.244 344.749C344.367 343.773 339.081 343.942 334.818 346.646C333.326 347.515 332.073 348.729 330.859 349.908C329.637 351.065 328.586 352.428 327.717 353.981C331.945 355.464 336.177 358.301 339.314 361.84C339.844 360.592 340.682 359.537 341.861 358.822C344.831 357.012 348.794 358.013 350.731 361.059C350.753 361.099 350.788 361.125 350.81 361.165C353.811 365.9 358.542 368.986 364.041 369.942C369.367 370.64 375.369 369.042 380.439 365.229C384.018 362.757 386.181 358.856 387.575 355.023C382.584 355.215 377.875 353.809 373.996 350.853C373.732 352.242 372.849 353.345 371.684 354.262" fill="#3d85c6" fill-rule="evenodd" opacity="1" stroke="none"/>
<path d="M393.996 331.275C393.85 332.613 393.264 333.95 392.266 335.045C389.746 337.815 385.594 338.005 383.078 335.464C383.078 335.464 383.069 335.459 383.069 335.455C379.076 331.495 373.74 329.351 368.657 328.941C366.106 328.737 363.599 328.977 361.278 329.687C358.939 330.38 356.878 331.659 354.769 333.08C351.997 335.136 350.003 337.953 348.829 341.404C353.176 342.149 357.624 344.118 361.353 347.277C361.724 346.01 362.443 344.895 363.546 344.073C366.419 342.097 370.232 342.194 372.65 344.974C372.664 344.991 372.686 345.006 372.699 345.023C376.375 349.289 381.463 351.575 386.962 351.589C389.715 351.603 392.557 351.051 395.302 349.951C398.043 348.848 400.382 346.898 402.553 344.595C405.461 341.382 407.487 337.614 408.307 333.619C403.299 334.457 398.303 333.654 393.996 331.275" fill="#231f20" fill-rule="evenodd" opacity="1" stroke="none"/>
<path d="M411.052 309.105C411.114 310.455 410.889 311.964 409.967 313.13C407.76 316.086 403.656 316.805 400.797 314.785C400.748 314.754 400.699 314.737 400.655 314.705C396.079 311.347 390.58 310.092 385.607 310.534C380.779 311.13 375.753 312.825 372.399 316.602C370.095 319.179 368.683 322.397 367.814 325.759C372.416 326.055 377.037 327.269 381.132 329.784C381.278 328.438 381.781 327.198 382.708 326.174C385.047 323.602 389.155 323.416 391.9 325.755C391.918 325.773 391.944 325.79 391.962 325.809C396.167 329.427 401.834 331.179 407.134 330.27C412.451 329.391 417.778 326.143 421.555 321.042C423.974 317.453 425.148 313.244 425.32 309.144C420.576 310.777 415.633 310.799 411.052 309.105" fill="#3d85c6" fill-rule="evenodd" opacity="1" stroke="none"/>
<path d="M424.499 284.559C424.746 285.879 424.565 287.323 423.925 288.658C422.301 292.021 418.382 293.408 415.24 291.749C415.227 291.739 415.214 291.739 415.205 291.73C410.187 289.101 404.724 288.76 399.609 289.792C394.539 290.87 390.324 293.602 387.584 297.838C385.497 300.596 384.385 303.844 384.243 307.472C388.652 306.929 393.506 307.52 398.008 309.458C397.999 308.143 398.369 306.876 399.199 305.772C401.145 302.9 404.967 301.97 408.06 303.897C408.096 303.919 408.135 303.928 408.171 303.95C412.924 306.929 418.462 307.625 423.74 306.05C426.37 305.249 429.031 303.945 431.238 302.035C433.351 300.075 435.187 297.608 436.564 294.754C438.369 290.813 439.455 286.722 438.779 282.542C434.516 284.943 429.256 285.54 424.499 284.559" fill="#231f20" fill-rule="evenodd" opacity="1" stroke="none"/>
<path d="M434.185 258.315C434.675 259.595 434.772 261.065 434.402 262.499C433.228 266.007 429.411 267.883 426.092 266.785C426.048 266.771 426.004 266.766 425.964 266.753C420.598 264.899 414.958 265.319 410.311 267.195C407.946 268.126 405.977 269.493 404.111 271.099C402.182 272.68 400.607 274.604 399.508 276.881C397.928 279.943 397.725 283.54 397.888 287.009C402.394 285.95 406.917 285.623 411.697 286.89C411.454 285.566 411.578 284.233 412.178 282.992C413.687 279.86 417.584 278.488 420.898 279.917C420.911 279.922 420.924 279.922 420.938 279.931C426.096 282.194 431.926 282.154 436.683 279.693C441.515 277.283 445.756 272.635 447.813 266.635C448.916 262.437 448.938 258.108 447.87 254.132C443.797 257.093 439.071 258.576 434.185 258.315" fill="#3d85c6" fill-rule="evenodd" opacity="1" stroke="none"/>
<path d="M439.799 230.898C440.421 232.08 440.673 233.509 440.448 234.975C439.887 238.66 436.56 241.139 433.012 240.496C427.354 239.45 422.231 240.791 417.606 243.275C413.096 245.812 409.724 249.622 408.497 254.52C407.381 257.777 407.182 261.175 408.113 264.674C412.191 262.873 417.023 262.013 421.904 262.534C421.595 262.499 421.626 260.451 421.648 260.205C421.988 256.135 425.699 253.153 429.803 254.228C429.856 254.242 429.909 254.239 429.962 254.256C435.373 255.676 440.871 254.709 445.456 251.648C450.275 248.624 453.4 243.337 454.326 237.053C454.878 232.754 454.777 228.531 452.822 224.742C449.534 228.293 444.618 230.42 439.799 230.898" fill="#231f20" fill-rule="evenodd" opacity="1" stroke="none"/>
<path d="M214.839 76.3977C193.581 76.3977 179.641 100.444 179.641 111.595C179.641 115.08 180.687 115.777 183.126 115.777C185.566 115.777 198.111 102.186 207.172 102.186C235.052 102.186 247.946 149.233 252.476 180.248C253.173 185.824 252.825 185.824 250.734 192.446C239.93 225.901 204.733 280.266 186.96 306.751C183.475 311.979 183.475 310.933 183.475 315.812C183.475 322.085 194.975 326.267 199.854 326.267C202.642 326.267 206.824 315.812 207.869 313.721C223.9 285.145 248.294 238.795 255.961 217.537C256.658 215.795 257.704 216.143 258.052 217.886C261.189 241.932 268.507 280.266 275.477 303.266C280.704 320.691 287.325 325.221 298.826 325.221C313.811 325.221 332.978 314.767 332.978 288.63C332.978 286.887 330.887 285.493 329.145 285.493C326.357 285.493 316.599 297.69 304.053 297.342C298.477 297.342 287.674 292.115 283.492 277.478C268.507 224.856 259.446 155.854 255.264 132.854C250.734 108.459 238.537 76.3977 214.839 76.3977Z" fill="#000000" fill-rule="evenodd" opacity="1" stroke="none"/>
<g fill="#000000" opacity="1" stroke="none">
<path clip-path="url(#TextBounds)" d="M106.863 424.355L106.863 502.867L125.119 502.867L125.119 453.139L143.375 495.027L156.815 495.027L175.071 453.139L175.183 502.867L193.327 502.867L193.327 424.355L170.927 424.355L150.095 470.163L129.263 424.355L106.863 424.355Z" fill-rule="evenodd"/>
<path clip-path="url(#TextBounds)" d="M235.215 441.603C216.287 441.603 203.631 454.035 203.631 472.851C203.631 491.331 215.839 503.539 235.663 503.539C246.863 503.539 255.935 499.731 262.095 492.787L251.679 482.371C247.647 486.403 242.607 488.531 237.455 488.531C230.623 488.531 225.583 484.723 223.679 477.891L265.791 477.891C267.135 455.827 256.383 441.603 235.215 441.603ZM223.231 467.251C224.575 460.307 228.831 455.603 235.327 455.603C242.047 455.603 246.527 460.307 246.527 467.251L223.231 467.251Z" fill-rule="evenodd"/>
<path clip-path="url(#TextBounds)" d="M311.711 485.619C308.799 486.851 306.223 487.635 304.207 487.635C300.735 487.747 298.719 485.731 298.719 481.251L298.719 458.403L314.399 458.403L314.399 445.187L298.719 445.187L298.719 428.387L278.895 428.387L278.895 445.187L270.495 445.187L270.495 458.403L278.895 458.403L278.895 484.387C278.895 496.931 287.407 503.875 299.167 503.763C305.103 503.763 311.151 502.307 315.519 499.731L311.711 485.619Z" fill-rule="evenodd"/>
<path clip-path="url(#TextBounds)" d="M335.007 414.387C328.847 414.387 324.479 418.755 324.479 425.027C324.479 431.299 328.847 435.667 335.007 435.667C341.167 435.667 345.535 431.299 345.535 425.027C345.535 418.755 341.167 414.387 335.007 414.387ZM325.039 442.275L325.039 502.867L344.863 502.867L344.863 442.275L325.039 442.275Z" fill-rule="evenodd"/>
<path clip-path="url(#TextBounds)" d="M400.527 461.427L407.247 448.435C399.631 443.843 390.783 441.379 382.047 441.379C367.823 441.379 357.183 448.323 357.183 460.979C357.183 481.923 388.431 477.779 388.431 486.067C388.431 488.531 385.743 489.763 382.047 489.763C375.327 489.763 367.487 487.075 360.543 482.259L354.271 495.139C361.663 500.851 371.407 503.763 381.599 503.763C396.383 503.763 407.247 496.707 407.247 484.275C407.359 463.219 375.551 467.027 375.551 459.075C375.551 456.499 377.903 455.267 381.263 455.267C386.191 455.267 393.023 457.507 400.527 461.427Z" fill-rule="evenodd"/>
</g>
</g>
</svg>
