<?xml version="1.0" encoding="UTF-8" standalone="no"?>
<svg
   version="1.1"
   x="0px"
   y="0px"
   width="155"
   height="145"
   viewBox="0.21 -0.077 155 145"
   enable-background="new 0.21 -0.077 110 110"
   xml:space="preserve"
   id="svg16"
   sodipodi:docname="Python-logo-faun.svg"
   inkscape:version="1.2.2 (b0a8486541, 2022-12-01)"
   xmlns:inkscape="http://www.inkscape.org/namespaces/inkscape"
   xmlns:sodipodi="http://sodipodi.sourceforge.net/DTD/sodipodi-0.dtd"
   xmlns="http://www.w3.org/2000/svg"
   xmlns:svg="http://www.w3.org/2000/svg"><defs
     id="defs20"><inkscape:path-effect
       effect="skeletal"
       id="path-effect7"
       is_visible="true"
       lpeversion="1"
       pattern="m 79.389751,228.12589 a 14.279433,14.279433 0 0 0 -9.427331,3.56826 l -6.434749,0.57206 h 5.820833 13.160437 l -11.95896,1.0635 a 14.279433,14.279433 0 0 0 8.83977,3.07733 14.279433,14.279433 0 0 0 10.046932,-4.14703 14.279433,14.279433 0 0 0 -10.046932,-4.13412 z"
       copytype="single_stretched"
       prop_scale="1.9492353"
       scale_y_rel="false"
       spacing="0"
       normal_offset="0"
       tang_offset="0"
       prop_units="false"
       vertical_pattern="false"
       hide_knot="false"
       fuse_tolerance="0" /><inkscape:path-effect
       effect="skeletal"
       id="path-effect8"
       is_visible="true"
       lpeversion="1"
       pattern="m 79.389751,228.12589 a 14.279433,14.279433 0 0 0 -9.427331,3.56826 l -6.434749,0.57206 h 5.820833 13.160437 l -11.95896,1.0635 a 14.279433,14.279433 0 0 0 8.83977,3.07733 14.279433,14.279433 0 0 0 10.046932,-4.14703 14.279433,14.279433 0 0 0 -10.046932,-4.13412 z"
       copytype="single_stretched"
       prop_scale="1.9492353"
       scale_y_rel="false"
       spacing="0"
       normal_offset="0"
       tang_offset="0"
       prop_units="false"
       vertical_pattern="false"
       hide_knot="false"
       fuse_tolerance="0" /><inkscape:path-effect
       effect="skeletal"
       id="path-effect9"
       is_visible="true"
       lpeversion="1"
       pattern="m 79.389751,228.12589 a 14.279433,14.279433 0 0 0 -9.427331,3.56826 l -6.434749,0.57206 h 5.820833 13.160437 l -11.95896,1.0635 a 14.279433,14.279433 0 0 0 8.83977,3.07733 14.279433,14.279433 0 0 0 10.046932,-4.14703 14.279433,14.279433 0 0 0 -10.046932,-4.13412 z"
       copytype="single_stretched"
       prop_scale="1.9492353"
       scale_y_rel="false"
       spacing="0"
       normal_offset="0"
       tang_offset="0"
       prop_units="false"
       vertical_pattern="false"
       hide_knot="false"
       fuse_tolerance="0" /><inkscape:path-effect
       effect="skeletal"
       id="path-effect12"
       is_visible="true"
       lpeversion="1"
       pattern="m 79.389751,228.12589 a 14.279433,14.279433 0 0 0 -9.427331,3.56826 l -6.434749,0.57206 h 5.820833 13.160437 l -11.95896,1.0635 a 14.279433,14.279433 0 0 0 8.83977,3.07733 14.279433,14.279433 0 0 0 10.046932,-4.14703 14.279433,14.279433 0 0 0 -10.046932,-4.13412 z"
       copytype="single_stretched"
       prop_scale="1.9492353"
       scale_y_rel="false"
       spacing="0"
       normal_offset="0"
       tang_offset="0"
       prop_units="false"
       vertical_pattern="false"
       hide_knot="false"
       fuse_tolerance="0" /><inkscape:path-effect
       effect="skeletal"
       id="path-effect440"
       is_visible="true"
       lpeversion="1"
       pattern="m 72.061414,241.95149 a 14.279433,14.279433 0 0 0 -9.42734,3.56826 l -6.43474,0.57206 h 5.82083 13.16044 l -11.95896,1.0635 a 14.279433,14.279433 0 0 0 8.83977,3.07733 14.279433,14.279433 0 0 0 10.046926,-4.14703 14.279433,14.279433 0 0 0 -10.046926,-4.13412 z"
       copytype="single_stretched"
       prop_scale="0.92414729"
       scale_y_rel="false"
       spacing="0"
       normal_offset="0"
       tang_offset="0"
       prop_units="false"
       vertical_pattern="false"
       hide_knot="false"
       fuse_tolerance="0" /><inkscape:path-effect
       effect="skeletal"
       id="path-effect491"
       is_visible="true"
       lpeversion="1"
       pattern="m 72.061414,241.95149 a 14.279433,14.279433 0 0 0 -9.42734,3.56826 l -6.43474,0.57206 h 5.82083 13.16044 l -11.95896,1.0635 a 14.279433,14.279433 0 0 0 8.83977,3.07733 14.279433,14.279433 0 0 0 10.046926,-4.14703 14.279433,14.279433 0 0 0 -10.046926,-4.13412 z"
       copytype="single_stretched"
       prop_scale="1"
       scale_y_rel="false"
       spacing="0"
       normal_offset="0"
       tang_offset="0"
       prop_units="false"
       vertical_pattern="false"
       hide_knot="false"
       fuse_tolerance="0" /><inkscape:path-effect
       effect="skeletal"
       id="path-effect542"
       is_visible="true"
       lpeversion="1"
       pattern="m 72.061414,241.95149 a 14.279433,14.279433 0 0 0 -9.42734,3.56826 l -6.43474,0.57206 h 5.82083 13.16044 l -11.95896,1.0635 a 14.279433,14.279433 0 0 0 8.83977,3.07733 14.279433,14.279433 0 0 0 10.046926,-4.14703 14.279433,14.279433 0 0 0 -10.046926,-4.13412 z"
       copytype="single_stretched"
       prop_scale="1"
       scale_y_rel="false"
       spacing="0"
       normal_offset="0"
       tang_offset="0"
       prop_units="false"
       vertical_pattern="false"
       hide_knot="false"
       fuse_tolerance="0" /><inkscape:path-effect
       effect="skeletal"
       id="path-effect559"
       is_visible="true"
       lpeversion="1"
       pattern="m 72.061414,241.95149 a 14.279433,14.279433 0 0 0 -9.42734,3.56826 l -6.43474,0.57206 h 5.82083 13.16044 l -11.95896,1.0635 a 14.279433,14.279433 0 0 0 8.83977,3.07733 14.279433,14.279433 0 0 0 10.046926,-4.14703 14.279433,14.279433 0 0 0 -10.046926,-4.13412 z"
       copytype="single_stretched"
       prop_scale="1"
       scale_y_rel="false"
       spacing="0"
       normal_offset="0"
       tang_offset="0"
       prop_units="false"
       vertical_pattern="false"
       hide_knot="false"
       fuse_tolerance="0" /><inkscape:path-effect
       effect="skeletal"
       id="path-effect12-6"
       is_visible="true"
       lpeversion="1"
       pattern="m 79.389751,228.12589 a 14.279433,14.279433 0 0 0 -9.427331,3.56826 l -6.434749,0.57206 h 5.820833 13.160437 l -11.95896,1.0635 a 14.279433,14.279433 0 0 0 8.83977,3.07733 14.279433,14.279433 0 0 0 10.046932,-4.14703 14.279433,14.279433 0 0 0 -10.046932,-4.13412 z"
       copytype="single_stretched"
       prop_scale="1.9492353"
       scale_y_rel="false"
       spacing="0"
       normal_offset="0"
       tang_offset="0"
       prop_units="false"
       vertical_pattern="false"
       hide_knot="false"
       fuse_tolerance="0" /></defs><sodipodi:namedview
     id="namedview18"
     pagecolor="#ffffff"
     bordercolor="#000000"
     borderopacity="0.25"
     inkscape:showpageshadow="2"
     inkscape:pageopacity="0.0"
     inkscape:pagecheckerboard="0"
     inkscape:deskcolor="#d1d1d1"
     showgrid="false"
     inkscape:zoom="4.2763761"
     inkscape:cx="15.901314"
     inkscape:cy="59.513007"
     inkscape:window-width="2494"
     inkscape:window-height="1529"
     inkscape:window-x="66"
     inkscape:window-y="32"
     inkscape:window-maximized="1"
     inkscape:current-layer="svg16" /><linearGradient
     id="SVGID_1_"
     gradientUnits="userSpaceOnUse"
     x1="63.815899"
     y1="56.682899"
     x2="118.4934"
     y2="1.8225"
     gradientTransform="matrix(1,0,0,-1,-28.50643,86.4321)"> <stop
   offset="0"
   style="stop-color:#006241;stop-opacity:1;"
   id="stop2" /> <stop
   offset="1"
   style="stop-color:#366994"
   id="stop4" /></linearGradient><path
     fill="url(#SVGID_1_)"
     d="m 79.81397,19.923 c -25.971,0 -26.25,10.081 -26.25,12.156 0,3.148 0,12.594 0,12.594 h 26.75 v 3.781 c 0,0 -27.852,0 -37.375,0 -7.949,0 -17.938,4.833 -17.938,26.25 0,19.673 7.792,27.281 15.656,27.281 2.335,0 9.344,0 9.344,0 0,0 0,-9.765 0,-13.125 0,-5.491 2.721,-15.656 15.406,-15.656 15.91,0 19.971,0 26.531,0 3.902,0 14.906,-1.696 14.906,-14.406 0,-13.452 0,-17.89 0,-24.219 0.001,-3.153 -0.538,-14.656 -27.03,-14.656 z m -14.75,8.469 c 2.662,0 4.813,2.15 4.813,4.813 0,2.661 -2.151,4.813 -4.813,4.813 -2.662,0 -4.813,-2.151 -4.813,-4.813 0,-2.663 2.151,-4.813 4.813,-4.813 z"
     id="path7"
     style="fill:url(#SVGID_1_)" /><linearGradient
     id="SVGID_2_"
     gradientUnits="userSpaceOnUse"
     x1="97.044403"
     y1="21.632099"
     x2="155.6665"
     y2="-34.5308"
     gradientTransform="matrix(1,0,0,-1,-53.2974,66.4321)"> <stop
   offset="0"
   style="stop-color:#33bc00;stop-opacity:1;"
   id="stop9" /> <stop
   offset="1"
   style="stop-color:#FFC331"
   id="stop11" /></linearGradient><path
     style="opacity:1;fill:#006241;fill-opacity:1;stroke-width:0.7;stroke-linecap:round"
     d="m 89.254584,159.32956 c -1.259826,-0.15179 -2.49061,-0.008 -3.624923,0.38721 -1.507445,0.5201 -2.846515,1.45212 -3.905786,2.70936 -1.612558,0.25423 -3.205261,0.58256 -4.771151,0.98179 1.438798,-0.2033 2.886384,-0.34665 4.33741,-0.42945 1.418405,-0.0809 2.840097,-0.10403 4.26008,-0.0687 1.864322,0.0464 3.733702,0.19975 5.553276,0.60592 -1.864145,-0.2065 -3.722613,-0.14925 -5.568547,0.008 -1.109923,0.0954 -2.212981,0.22702 -3.306814,0.39365 1.021652,0.93794 2.114853,1.67669 3.242624,2.18616 0.971555,0.44587 1.93853,0.71442 2.87905,0.82462 0.731578,0.0835 1.446678,0.0726 2.172858,-0.0123 1.641736,-0.10582 3.111196,-0.97414 5.253103,-1.276 0.133641,-2.23821 -1.621779,-4.44817 -3.681536,-5.4328 -0.897763,-0.46507 -1.866094,-0.75873 -2.839644,-0.87733 z"
     id="path425"
     inkscape:original-d="m 76.952757,163.40815 c 2.167513,-0.30626 14.486039,-1.76743 18.818955,2.23592"
     inkscape:path-effect="#path-effect440"
     class="UnoptimicedTransforms"
     sodipodi:nodetypes="cc"
     transform="matrix(1.627484,0,0,1.627484,-20.485141,-152.09424)" /><path
     style="opacity:1;fill:#33bc00;stroke-width:0.7;stroke-linecap:round"
     d="m 160.60476,168.27424 c 2.35171,0.43649 4.78065,0.83936 7.29496,1.03304 0,0 0,0 0,0 2.50687,0.20683 5.01545,0.21252 7.43279,-0.16685 2.00681,-0.30169 3.89125,-0.90128 5.41309,-1.84095 0.31923,-0.067 0.6366,-0.1449 0.95148,-0.2348 1.85691,-0.53195 3.56237,-1.57435 4.77787,-3.0389 0,0 0,0 0,0 1.51051,-1.83703 2.25395,-4.12407 2.64648,-6.39369 -0.48892,2.24866 -1.32767,4.48476 -2.8665,6.19581 -1.15222,1.28115 -2.70138,2.17198 -4.36205,2.63595 -0.10689,0.0299 -0.21424,0.058 -0.32198,0.0843 -1.96298,0.47949 -4.01596,0.46312 -6.02834,0.28028 l 0,0 c -2.32184,-0.21094 -4.61624,-0.65285 -6.89954,-1.12392 l 0,0 c -4.53983,-0.93662 -9.07753,-2.07987 -13.70144,-2.29045 4.63294,0.0123 9.25965,0.9647 13.82192,1.70648 0,0 0,0 0,0 2.29852,0.37128 4.58845,0.71104 6.86015,0.81541 0,0 0,0 0,0 1.26895,0.0544 2.52864,0.0464 3.73289,-0.10743 -1.21644,-0.38434 -2.32585,-0.82908 -3.60386,-1.3128 -1.88577,-0.73163 -4.17413,-1.66871 -6.36624,-2.41458 0,0 0,0 0,0 -2.25578,-0.78769 -4.69362,-1.51177 -7.2957,-1.97834 -2.55482,-0.45553 -5.21721,-0.65236 -7.89104,-0.43304 0,0 0,0 0,0 -2.68187,0.21318 -5.3016,0.96382 -7.51552,2.27551 -2.60361,1.55718 -4.21546,3.79355 -4.88518,5.91917 2.07259,-0.81134 4.26612,-1.28805 6.41484,-1.315 1.88479,-0.0516 3.75438,0.20487 5.83165,0.51713 0,0 0,0 0,0 2.16488,0.32586 4.1994,0.74816 6.55927,1.18769 z"
     id="path476"
     inkscape:path-effect="#path-effect491"
     inkscape:original-d="m 189.12118,157.63204 c -4.80004,22.07648 -34.03263,-3.96659 -47.32688,10.24795"
     class="UnoptimicedTransforms"
     sodipodi:nodetypes="cc"
     transform="matrix(0.67238919,0,0,0.67238919,-70.704389,-76.05018)" /><path
     style="opacity:1;fill:#006241;fill-opacity:1;stroke-width:0.7;stroke-linecap:round"
     d="m 90.177869,173.11813 c -2.833265,0.98551 -5.366267,2.3253 -7.631034,3.7308 -4.232927,2.51174 -7.497563,5.24706 -10.814656,7.35005 -0.258347,0.0587 -0.517946,0.11304 -0.778896,0.16264 -2.050388,0.39249 -4.182307,0.45507 -6.23742,0.0146 0,0 0,0 -10e-7,0 -2.306407,-0.49026 -4.487051,-1.61103 -6.395569,-3.08097 1.847536,1.54296 3.992936,2.76029 6.324763,3.35746 1.896093,0.48558 3.883511,0.55331 5.828374,0.31871 0.187205,-0.0226 0.374016,-0.048 0.560313,-0.076 4.587205,-0.69144 8.831394,-2.77114 13.046912,-4.70775 l 1e-6,0 c 4.35722,-2.00172 8.787429,-4.04426 13.535645,-4.71297 l 10e-7,0 c 0.242766,-0.0342 0.4862,-0.0644 0.730122,-0.0904 -0.242892,0.0357 -0.48497,0.0755 -0.726067,0.11919 0,0 0,0 -10e-7,0 -4.716224,0.85514 -9.008674,3.05947 -13.290148,5.22738 0,0 -10e-7,1e-5 -10e-7,1e-5 -3.492896,1.78234 -7.045351,3.67849 -10.95812,4.78245 3.927088,0.35092 8.091683,-0.5973 12.24264,-1.98639 2.603055,-0.82251 4.944844,-1.74782 7.324147,-2.60746 1.806377,-0.65476 3.50324,-1.22095 5.216045,-1.62029 1.961001,-0.48449 3.903151,-0.79217 5.826651,-0.81225 2.40145,-0.10619 4.99735,0.3456 7.46781,0.97955 0.71043,0.19726 0.76347,0.10389 0.32825,0.002 0,0 0,0 0,0 0.0201,-0.1209 0.1634,0.0125 0.3484,0.13939 0.15785,0.14546 0.3413,0.20002 0.42151,0.38346 0.0796,-0.1849 0.0157,-0.45183 -0.0157,-0.62432 1.8e-4,-0.18464 -0.023,-0.43645 -0.33996,-0.72659 0,0 0,0 0,0 -0.55913,-0.16229 -0.67938,-0.10577 -0.0422,0.004 -1.37693,-2.14544 -3.65136,-4.3108 -6.89813,-5.71434 -2.48574,-1.0295 -5.303745,-1.47754 -8.174095,-1.28143 -2.399813,0.18106 -4.716457,0.71187 -6.899526,1.47001 z"
     id="path527"
     inkscape:path-effect="#path-effect542"
     inkscape:original-d="m 58.32013,181.29548 c 16.79832,14.02899 34.071487,-16.23726 53.47564,-2.23591 0.0439,0.0439 0.13078,-0.0278 0.18633,0 0.16541,0.0827 0.55898,0.75578 0.55898,0.93163"
     class="UnoptimicedTransforms"
     transform="matrix(0.5704904,-0.15286243,0.25212911,0.9409586,38.228494,-115.06968)"
     sodipodi:nodetypes="cccc" /><path
     style="opacity:1;fill:#006241;fill-opacity:1;stroke-width:0.7;stroke-linecap:round"
     d="m 180.42581,180.34606 c -0.94229,-0.25747 -1.90981,-0.46836 -2.89647,-0.62218 -2.18432,-0.34848 -4.51338,-0.37179 -6.77714,0.10719 -2.19157,0.42381 -4.25374,1.51092 -5.61657,3.04954 -0.63452,0.74173 -1.04254,1.53536 -1.27175,2.31118 -0.71,0.85686 -1.23784,1.84595 -1.58027,2.87618 -0.83871,2.53376 -0.81169,5.19574 -0.55264,7.76097 -0.1233,-2.57174 -0.007,-5.21494 0.93226,-7.61222 0.25288,-0.64539 0.58063,-1.26551 0.97813,-1.83406 0.60612,-0.86696 1.37442,-1.61399 2.28669,-2.14778 1.46906,-0.85958 3.2,-1.18125 4.90153,-1.22263 l 0,0 c 1.96402,-0.0478 3.92246,0.24885 5.84243,0.6652 l 0,0 c 2.60425,0.56473 5.1446,1.37164 7.67915,2.20072 -2.57833,-0.69525 -5.16011,-1.36772 -7.76861,-1.7882 0,0 0,0 0,0 -1.9248,-0.30946 -3.85934,-0.49749 -5.73514,-0.34463 0,0 0,0 0,0 -1.61884,0.13967 -3.20049,0.52091 -4.41286,1.35517 -0.27107,0.17761 -0.52421,0.38039 -0.75925,0.60379 0.35448,-0.0696 0.70466,-0.10966 1.04554,-0.1145 1.40626,-0.0843 2.71821,0.26794 4.18613,0.60426 1.54441,0.38187 3.13595,0.9291 4.90758,1.43749 0.78889,0.23091 1.60088,0.46629 2.42057,0.69262 2.94634,0.80925 6.07209,1.52156 9.27976,1.70053 0,0 1e-5,0 1e-5,0 1.71337,0.10227 3.51535,0.0821 5.20331,-0.34356 0.64078,-0.15352 1.31366,-0.38778 1.87691,-0.75079 0.46003,-0.27672 0.83899,-0.7109 0.93633,-1.1445 -0.42679,0.12327 -0.81027,-0.004 -1.15749,-0.14178 -0.46418,-0.18809 -0.84808,-0.47122 -1.31627,-0.76064 -1.19959,-0.76311 -2.34183,-1.67316 -3.77772,-2.54099 0,0 0,-1e-5 0,-1e-5 -2.5396,-1.58924 -5.49226,-3.07529 -8.85415,-3.99637 z"
     id="path544"
     inkscape:path-effect="#path-effect559"
     inkscape:original-d="m 161.73122,195.82893 c -1.24237,-25.91404 29.81602,-3.8097 33.80491,-8.03865"
     class="UnoptimicedTransforms"
     transform="matrix(-0.86394056,0.23149217,-0.23149217,-0.86394056,273.01771,257.66672)"
     sodipodi:nodetypes="cc" /><path
     style="opacity:1;fill:#33bc00;fill-opacity:1;stroke:none;stroke-width:0.264583;stroke-opacity:1"
     d="m 132.78872,150.5855 c -2.93706,-0.57957 -5.95701,-0.75817 -8.94661,-0.509 -8.56914,0.9985 -15.25442,5.05884 -19.36557,10.11431 -5.733451,2.51874 -11.109095,5.81343 -16.105973,9.40668 4.699599,-2.96609 9.67553,-5.65445 14.850673,-7.72567 6.5825,-2.63449 13.4873,-4.27056 20.55571,-4.20985 5.49591,0.0472 10.87062,1.26803 15.93979,3.34895 -5.1951,-1.77413 -10.59165,-2.65117 -15.94836,-2.3511 -5.79066,0.2946 -11.34543,1.76084 -16.64556,3.97119 5.61499,0.99276 11.24808,1.62427 16.58895,2.61756 2.0042,0.29218 3.96639,0.64079 5.97315,1.03844 8.40342,1.64971 17.66797,4.11322 26.69229,5.41826 -2.22422,-9.09093 -10.58302,-18.54388 -23.58849,-21.11977 z"
     id="path6"
     inkscape:path-effect="#path-effect7"
     inkscape:original-d="m 88.370832,169.59791 c 24.711518,-15.59634 47.038808,-16.93706 67.997918,2.11667"
     transform="matrix(-0.34218135,0.17537809,0.19755852,0.30376381,29.649579,27.302288)"
     class="UnoptimicedTransforms" /><path
     style="opacity:1;fill:#33bc00;fill-opacity:1;stroke:none;stroke-width:0.264583;stroke-opacity:1"
     d="m 158.31043,240.55528 c -1.51403,1.14347 -2.92848,2.30178 -4.26682,3.42606 -2.21732,1.8357 -4.14111,3.63641 -6.06918,5.24524 -2.0071,1.6786 -3.95656,3.26344 -6.26766,4.55653 -1.05211,0.60706 -2.19854,1.13955 -3.40033,1.60989 -1.87783,-0.2262 -3.75264,-0.73579 -5.54483,-1.4756 -3.8573,-1.59031 -7.35272,-4.16434 -10.52375,-7.0615 2.98931,3.07388 6.33621,5.86692 10.19064,7.74511 1.25822,0.61311 2.57401,1.11599 3.92404,1.48627 1.75249,0.48066 3.56267,0.73787 5.37951,0.7227 2.95195,-0.0247 5.87089,-0.74692 8.5996,-1.87339 l 0,0 c 2.85447,-1.17839 5.52113,-2.77136 8.07875,-4.50208 l 0,0 c 4.1423,-2.80304 8.00206,-6.01208 12.08306,-8.89811 -3.91033,3.12737 -7.56122,6.55157 -11.58577,9.633 -2.48165,1.90285 -5.11515,3.6884 -8.02838,5.09379 0,0 0,0 0,0 -2.7931,1.3495 -5.87179,2.29182 -9.1309,2.50566 -0.71193,0.0417 -1.42487,0.0469 -2.13615,0.0173 0.66118,0.39456 1.3765,0.74882 2.14508,1.05214 3.23369,1.2491 7.09854,1.5434 10.93202,0.80943 3.61447,-0.6725 7.04103,-2.03423 10.08844,-3.75916 1.87694,-1.0508 3.62309,-2.21344 5.24372,-3.42897 3.64226,-2.73958 6.62791,-5.73092 9.27625,-8.45537 0,0 0,0 0,0 1.88713,-1.9134 3.46745,-3.77281 5.23291,-5.39425 1.85825,-1.75345 3.97853,-3.32313 6.64889,-4.40775 -2.04357,-2.01911 -5.29504,-3.37131 -9.01112,-3.43896 -3.38503,-0.0804 -6.85121,0.68861 -9.99544,1.94465 0,0 0,0 0,0 -4.47647,1.74853 -8.42755,4.25757 -11.86258,6.84734 z"
     id="path7-3"
     inkscape:path-effect="#path-effect8"
     inkscape:original-d="m 122.2375,246.85625 c 28.5208,29.32771 45.62782,-15.90402 66.93958,-11.64167"
     transform="matrix(0.53273175,0,0,0.53273175,32.794289,-109.45689)"
     class="UnoptimicedTransforms" /><path
     style="opacity:1;fill:#006241;fill-opacity:1;stroke:none;stroke-width:0.264583;stroke-opacity:1"
     d="m 172.92255,119.56484 c -0.96201,-1.57513 -2.06701,-3.03964 -3.29132,-4.37569 -2.90123,-3.22314 -6.54877,-5.71462 -10.55711,-7.17774 -4.30597,-1.59778 -8.83387,-1.66245 -12.62681,-0.43661 -2.42859,0.82065 -4.36133,2.1262 -5.80657,3.62752 -1.73291,0.69558 -3.35448,1.62642 -4.82074,2.7258 -4.15739,3.12312 -7.19122,7.33888 -9.61417,11.7487 2.65649,-4.26433 5.89563,-8.27078 10.07283,-11.06238 0.92719,-0.61964 1.90528,-1.16957 2.92074,-1.63515 2.28946,-1.04968 4.76887,-1.67051 7.28306,-1.69433 3.27692,-0.031 6.52495,0.92325 9.39247,2.50955 l 0,0 c 2.9339,1.62303 5.50192,3.87093 7.63893,6.45455 2.09986,2.5387 3.80355,5.41438 4.94331,8.50556 0.49875,1.35266 0.89369,2.75483 1.13187,4.17759 -0.31612,-1.40971 -0.78675,-2.78166 -1.35418,-4.09562 -1.29877,-3.0017 -3.13496,-5.73014 -5.32082,-8.0914 -2.22659,-2.39983 -4.82503,-4.42177 -7.68266,-5.78735 0,0 0,0 -1e-5,0 -2.78348,-1.3263 -5.83045,-2.02644 -8.73122,-1.80491 -1.0997,0.0716 -2.185,0.27965 -3.24033,0.60057 1.16412,0.32249 2.26457,0.73145 3.25779,1.24305 2.37799,1.15236 4.37821,2.82083 6.15753,4.58214 1.70822,1.68598 3.24848,3.67079 4.72054,5.73096 0.61373,0.88553 1.20331,1.78384 1.7535,2.6807 0.70609,1.14638 1.35967,2.30964 1.93563,3.48256 0.87539,1.9405 1.74403,3.67605 2.09748,5.27304 0.35764,1.30066 0.66648,2.91533 0.28208,4.32115 -0.44297,2.26664 -3.09621,4.67282 -5.77182,6.58295 2.9193,1.50648 7.1312,2.40678 11.82867,-0.021 3.30135,-1.97326 5.91107,-5.40836 6.82944,-9.53964 0.94859,-4.12285 0.68872,-8.34361 -0.51911,-12.05383 -0.69736,-2.27928 -1.67897,-4.45408 -2.909,-6.47075 z"
     id="path8"
     inkscape:path-effect="#path-effect9"
     inkscape:original-d="m 126.20625,125.67708 c 25.8486,-41.493237 63.14221,19.69922 31.48541,21.96042"
     transform="matrix(0.44605947,0,0,0.45786702,74.98835,17.387566)"
     class="UnoptimicedTransforms" /><path
     style="opacity:1;fill:#33bc00;fill-opacity:1;stroke:none;stroke-width:0.258742;stroke-opacity:1"
     d="m 20.244553,72.311359 c 2.349445,0.609751 4.855529,0.922356 7.366673,1.149581 -2.253686,0.122835 -4.522303,0.179906 -6.769179,-9.82e-4 -0.743902,-0.05972 -1.485407,-0.14589 -2.223201,-0.264567 h -8e-6 C 16.455376,72.848052 14.285266,72.187239 12.553732,70.8446 10.942036,69.594899 9.857531,67.752115 9.295439,65.791636 c -0.03439,-0.120189 -0.06739,-0.240378 -0.09876,-0.361323 0.01398,0.125481 0.0291,0.250961 0.04626,0.376441 0.278513,2.051717 1.117935,4.138092 2.730961,5.785739 v 0 c 1.732158,1.721235 4.048604,2.824441 6.343148,3.483175 v 0 c 0.292044,0.08769 0.585184,0.170079 0.879227,0.248693 -0.337398,0.31559 -0.690999,0.610658 -1.061045,0.883767 -2.57627,1.911836 -6.10015,2.585763 -10.1650472,0.547653 v 0 C 6.3747637,75.789394 5.0353936,74.522156 4.0529923,73.078565 2.9349627,71.428877 2.3258049,69.61837 2.2201104,67.820033 2.0195309,62.767296 4.8247341,59.454238 8.7353548,57.420058 13.649504,60.583447 16.810429,65.801161 20.244557,72.311095 Z"
     id="path9"
     sodipodi:nodetypes="ccsssssccssssccsscccc" /><path
     style="opacity:1;fill:#006241;fill-opacity:1;stroke:none;stroke-width:0.264583;stroke-opacity:1"
     d="m 188.50538,172.0265 c -1.72041,0.1569 -3.43368,0.59382 -5.04494,1.30448 -4.51346,2.04668 -7.32118,5.9913 -7.86616,10.31558 -2.50295,2.18779 -4.54561,4.7995 -5.99678,7.64691 1.5925,-2.38927 3.60102,-4.48824 5.89555,-6.20325 2.84079,-2.12331 6.11999,-3.65807 9.59088,-4.42655 2.86751,-0.63488 5.79667,-0.84437 8.73139,-0.75462 -2.94523,0.25401 -5.8148,0.80596 -8.50829,1.76228 -2.69363,0.94822 -5.14146,2.38076 -7.23687,4.14461 3.38166,0.9524 6.37996,1.80542 8.63752,2.18153 1.08619,0.11254 2.14213,0.13325 3.21802,0.0421 4.07694,-0.36037 9.08587,-2.55459 14.0707,-6.81225 -2.79655,-5.89509 -8.42594,-9.83573 -15.49102,-9.20078 z"
     id="path11"
     inkscape:path-effect="#path-effect12"
     inkscape:original-d="m 169.59791,191.29375 c 8.14286,-12.21696 21.68821,-12.77723 34.39584,-10.05417"
     transform="matrix(-0.65548196,0,0,-0.65548196,166.90397,236.92506)"
     class="UnoptimicedTransforms" /><path
     style="fill:#33bc00;fill-opacity:1;stroke:none;stroke-width:0.264583;stroke-opacity:1"
     d="m 188.50538,172.0265 c -1.72041,0.1569 -3.43368,0.59382 -5.04494,1.30448 -4.51346,2.04668 -7.32118,5.9913 -7.86616,10.31558 -2.50295,2.18779 -4.54561,4.7995 -5.99678,7.64691 1.5925,-2.38927 3.60102,-4.48824 5.89555,-6.20325 2.84079,-2.12331 6.11999,-3.65807 9.59088,-4.42655 2.86751,-0.63488 5.79667,-0.84437 8.73139,-0.75462 -2.94523,0.25401 -5.8148,0.80596 -8.50829,1.76228 -2.69363,0.94822 -5.14146,2.38076 -7.23687,4.14461 3.38166,0.9524 6.37996,1.80542 8.63752,2.18153 1.08619,0.11254 2.14213,0.13325 3.21802,0.0421 4.07694,-0.36037 9.08587,-2.55459 14.0707,-6.81225 -2.79655,-5.89509 -8.42594,-9.83573 -15.49102,-9.20078 z"
     id="path11-7"
     inkscape:path-effect="#path-effect12-6"
     inkscape:original-d="m 169.59791,191.29375 c 8.14286,-12.21696 21.68821,-12.77723 34.39584,-10.05417"
     transform="matrix(0,-0.58070423,-0.58070423,0,192.24746,119.7258)"
     class="UnoptimicedTransforms" /><path
     fill="url(#SVGID_2_)"
     d="m 80.18797,129.923 c 25.959,0 26.282,-10.271 26.282,-12.156 0,-3.148 0,-12.594 0,-12.594 h -26.782 v -3.781 c 0,0 28.032,0 37.375,0 8.009,0 17.938,-4.954 17.938,-26.25 0,-23.322 -10.538,-27.281 -15.656,-27.281 -2.336,0 -9.344,0 -9.344,0 0,0 0,10.216 0,13.125 0,5.491 -2.631,15.656 -15.406,15.656 -15.91,0 -19.476,0 -26.532,0 -3.892,0 -14.906,1.896 -14.906,14.406 0,14.475 0,18.265 0,24.219 0,5.23 3.196,14.656 27.031,14.656 z m 14.751,-8.469 c -2.662,0 -4.813,-2.151 -4.813,-4.813 0,-2.662 2.15,-4.813 4.813,-4.813 2.661,0 4.813,2.151 4.813,4.813 0,2.662 -2.152,4.813 -4.813,4.813 z"
     id="path14"
     style="fill:#33bc00;fill-opacity:1" /></svg>
