<?xml version="1.0" encoding="UTF-8" standalone="no"?>
<!-- Created with Inkscape (http://www.inkscape.org/) -->

<svg
   xmlns:dc="http://purl.org/dc/elements/1.1/"
   xmlns:cc="http://creativecommons.org/ns#"
   xmlns:rdf="http://www.w3.org/1999/02/22-rdf-syntax-ns#"
   xmlns:svg="http://www.w3.org/2000/svg"
   xmlns="http://www.w3.org/2000/svg"
   xmlns:sodipodi="http://sodipodi.sourceforge.net/DTD/sodipodi-0.dtd"
   xmlns:inkscape="http://www.inkscape.org/namespaces/inkscape"
   width="400"
   height="400"
   id="svg2"
   version="1.1"
   inkscape:version="0.48.4 r9939"
   sodipodi:docname="svm.svg">
  <defs
     id="defs4" />
  <sodipodi:namedview
     id="base"
     pagecolor="#ffffff"
     bordercolor="#666666"
     borderopacity="1.0"
     inkscape:pageopacity="0.0"
     inkscape:pageshadow="2"
     inkscape:zoom="1.4"
     inkscape:cx="105.81981"
     inkscape:cy="175.32513"
     inkscape:document-units="px"
     inkscape:current-layer="layer1"
     showgrid="false"
     inkscape:window-width="1855"
     inkscape:window-height="1056"
     inkscape:window-x="65"
     inkscape:window-y="24"
     inkscape:window-maximized="1" />
  <metadata
     id="metadata7">
    <rdf:RDF>
      <cc:Work
         rdf:about="">
        <dc:format>image/svg+xml</dc:format>
        <dc:type
           rdf:resource="http://purl.org/dc/dcmitype/StillImage" />
        <dc:title />
      </cc:Work>
    </rdf:RDF>
  </metadata>
  <g
     inkscape:label="Layer 1"
     inkscape:groupmode="layer"
     id="layer1"
     transform="translate(0,-652.36218)">
    <path
       sodipodi:type="star"
       style="fill:#ffff00;fill-rule:evenodd;stroke:#000000;stroke-width:1px;stroke-linecap:butt;stroke-linejoin:miter;stroke-opacity:1"
       id="path2985"
       sodipodi:sides="5"
       sodipodi:cx="95.714287"
       sodipodi:cy="959.50507"
       sodipodi:r1="10.738069"
       sodipodi:r2="5.3690343"
       sodipodi:arg1="0.066568164"
       sodipodi:arg2="0.69488669"
       inkscape:flatsided="false"
       inkscape:rounded="0"
       inkscape:randomized="0"
       d="m 106.42857,960.21935 -6.590187,2.7235 -1.492526,6.97283 -4.626681,-5.42603 -7.092775,0.73525 3.730743,-6.07698 -2.89105,-6.51842 6.932408,1.67026 5.306007,-4.76386 0.553721,7.10925 z"
       inkscape:transform-center-x="-1.1251099"
       inkscape:transform-center-y="0.29261195"
       transform="matrix(1.3835637,0,0,1.3260065,159.00062,-474.94756)" />
    <path
       sodipodi:type="arc"
       style="fill:#0000ff;fill-opacity:1;fill-rule:evenodd;stroke:#000000;stroke-width:1px;stroke-linecap:butt;stroke-linejoin:miter;stroke-opacity:1"
       id="path2987"
       sodipodi:cx="112.5"
       sodipodi:cy="877.7193"
       sodipodi:rx="11.071428"
       sodipodi:ry="11.071428"
       d="m 123.57143,877.7193 c 0,6.11458 -4.95685,11.07143 -11.07143,11.07143 -6.11458,0 -11.07143,-4.95685 -11.07143,-11.07143 0,-6.11458 4.95685,-11.07143 11.07143,-11.07143 6.11458,0 11.07143,4.95685 11.07143,11.07143 z"
       transform="translate(-25.714286,10)" />
    <rect
       style="fill:none;stroke:#000000;stroke-opacity:1"
       id="rect3757"
       width="387.14285"
       height="387.14285"
       x="7.1428576"
       y="658.79077" />
    <path
       sodipodi:type="star"
       style="fill:#ffff00;fill-rule:evenodd;stroke:#000000;stroke-width:1px;stroke-linecap:butt;stroke-linejoin:miter;stroke-opacity:1"
       id="path2985-6"
       sodipodi:sides="5"
       sodipodi:cx="95.714287"
       sodipodi:cy="959.50507"
       sodipodi:r1="10.738069"
       sodipodi:r2="5.3690343"
       sodipodi:arg1="0.066568164"
       sodipodi:arg2="0.69488669"
       inkscape:flatsided="false"
       inkscape:rounded="0"
       inkscape:randomized="0"
       d="m 106.42857,960.21935 -6.590187,2.7235 -1.492526,6.97283 -4.626681,-5.42603 -7.092775,0.73525 3.730743,-6.07698 -2.89105,-6.51842 6.932408,1.67026 5.306007,-4.76386 0.553721,7.10925 z"
       inkscape:transform-center-x="-1.1251099"
       inkscape:transform-center-y="0.29261195"
       transform="matrix(1.3835637,0,0,1.3260065,205.73379,-480.24046)" />
    <path
       sodipodi:type="star"
       style="fill:#ffff00;fill-rule:evenodd;stroke:#000000;stroke-width:1px;stroke-linecap:butt;stroke-linejoin:miter;stroke-opacity:1"
       id="path2985-1"
       sodipodi:sides="5"
       sodipodi:cx="95.714287"
       sodipodi:cy="959.50507"
       sodipodi:r1="10.738069"
       sodipodi:r2="5.3690343"
       sodipodi:arg1="0.066568164"
       sodipodi:arg2="0.69488669"
       inkscape:flatsided="false"
       inkscape:rounded="0"
       inkscape:randomized="0"
       d="m 106.42857,960.21935 -6.590187,2.7235 -1.492526,6.97283 -4.626681,-5.42603 -7.092775,0.73525 3.730743,-6.07698 -2.89105,-6.51842 6.932408,1.67026 5.306007,-4.76386 0.553721,7.10925 z"
       inkscape:transform-center-x="-1.1251099"
       inkscape:transform-center-y="0.29261195"
       transform="matrix(1.3835637,0,0,1.3260065,162.87665,-430.95474)" />
    <path
       sodipodi:type="star"
       style="fill:#ffff00;fill-rule:evenodd;stroke:#000000;stroke-width:1px;stroke-linecap:butt;stroke-linejoin:miter;stroke-opacity:1"
       id="path2985-8"
       sodipodi:sides="5"
       sodipodi:cx="95.714287"
       sodipodi:cy="959.50507"
       sodipodi:r1="10.738069"
       sodipodi:r2="5.3690343"
       sodipodi:arg1="0.066568164"
       sodipodi:arg2="0.69488669"
       inkscape:flatsided="false"
       inkscape:rounded="0"
       inkscape:randomized="0"
       d="m 106.42857,960.21935 -6.590187,2.7235 -1.492526,6.97283 -4.626681,-5.42603 -7.092775,0.73525 3.730743,-6.07698 -2.89105,-6.51842 6.932408,1.67026 5.306007,-4.76386 0.553721,7.10925 z"
       inkscape:transform-center-x="-1.1251099"
       inkscape:transform-center-y="0.29261195"
       transform="matrix(1.3835637,0,0,1.3260065,55.019502,-471.66903)" />
    <path
       sodipodi:type="star"
       style="fill:#ffff00;fill-rule:evenodd;stroke:#000000;stroke-width:1px;stroke-linecap:butt;stroke-linejoin:miter;stroke-opacity:1"
       id="path2985-9"
       sodipodi:sides="5"
       sodipodi:cx="95.714287"
       sodipodi:cy="959.50507"
       sodipodi:r1="10.738069"
       sodipodi:r2="5.3690343"
       sodipodi:arg1="0.066568164"
       sodipodi:arg2="0.69488669"
       inkscape:flatsided="false"
       inkscape:rounded="0"
       inkscape:randomized="0"
       d="m 106.42857,960.21935 -6.590187,2.7235 -1.492526,6.97283 -4.626681,-5.42603 -7.092775,0.73525 3.730743,-6.07698 -2.89105,-6.51842 6.932408,1.67026 5.306007,-4.76386 0.553721,7.10925 z"
       inkscape:transform-center-x="-1.1251099"
       inkscape:transform-center-y="0.29261195"
       transform="matrix(1.3835637,0,0,1.3260065,85.019502,-419.52617)" />
    <path
       sodipodi:type="star"
       style="fill:#ffff00;fill-rule:evenodd;stroke:#000000;stroke-width:1px;stroke-linecap:butt;stroke-linejoin:miter;stroke-opacity:1"
       id="path2985-95"
       sodipodi:sides="5"
       sodipodi:cx="95.714287"
       sodipodi:cy="959.50507"
       sodipodi:r1="10.738069"
       sodipodi:r2="5.3690343"
       sodipodi:arg1="0.066568164"
       sodipodi:arg2="0.69488669"
       inkscape:flatsided="false"
       inkscape:rounded="0"
       inkscape:randomized="0"
       d="m 106.42857,960.21935 -6.590187,2.7235 -1.492526,6.97283 -4.626681,-5.42603 -7.092775,0.73525 3.730743,-6.07698 -2.89105,-6.51842 6.932408,1.67026 5.306007,-4.76386 0.553721,7.10925 z"
       inkscape:transform-center-x="-1.1251099"
       inkscape:transform-center-y="0.29261195"
       transform="matrix(1.3835637,0,0,1.3260065,122.87664,-480.24045)" />
    <path
       sodipodi:type="star"
       style="fill:#ffff00;fill-rule:evenodd;stroke:#000000;stroke-width:1px;stroke-linecap:butt;stroke-linejoin:miter;stroke-opacity:1"
       id="path2985-94"
       sodipodi:sides="5"
       sodipodi:cx="95.714287"
       sodipodi:cy="959.50507"
       sodipodi:r1="10.738069"
       sodipodi:r2="5.3690343"
       sodipodi:arg1="0.066568164"
       sodipodi:arg2="0.69488669"
       inkscape:flatsided="false"
       inkscape:rounded="0"
       inkscape:randomized="0"
       d="m 106.42857,960.21935 -6.590187,2.7235 -1.492526,6.97283 -4.626681,-5.42603 -7.092775,0.73525 3.730743,-6.07698 -2.89105,-6.51842 6.932408,1.67026 5.306007,-4.76386 0.553721,7.10925 z"
       inkscape:transform-center-x="-1.1251099"
       inkscape:transform-center-y="0.29261195"
       transform="matrix(1.3835637,0,0,1.3260065,115.0195,-344.52617)" />
    <path
       sodipodi:type="star"
       style="fill:#ffff00;fill-rule:evenodd;stroke:#000000;stroke-width:1px;stroke-linecap:butt;stroke-linejoin:miter;stroke-opacity:1"
       id="path2985-18"
       sodipodi:sides="5"
       sodipodi:cx="95.714287"
       sodipodi:cy="959.50507"
       sodipodi:r1="10.738069"
       sodipodi:r2="5.3690343"
       sodipodi:arg1="0.066568164"
       sodipodi:arg2="0.69488669"
       inkscape:flatsided="false"
       inkscape:rounded="0"
       inkscape:randomized="0"
       d="m 106.42857,960.21935 -6.590187,2.7235 -1.492526,6.97283 -4.626681,-5.42603 -7.092775,0.73525 3.730743,-6.07698 -2.89105,-6.51842 6.932408,1.67026 5.306007,-4.76386 0.553721,7.10925 z"
       inkscape:transform-center-x="-1.1251099"
       inkscape:transform-center-y="0.29261195"
       transform="matrix(1.3835637,0,0,1.3260065,167.16236,-384.52617)" />
    <path
       sodipodi:type="star"
       style="fill:#ffff00;fill-rule:evenodd;stroke:#000000;stroke-width:1px;stroke-linecap:butt;stroke-linejoin:miter;stroke-opacity:1"
       id="path2985-88"
       sodipodi:sides="5"
       sodipodi:cx="95.714287"
       sodipodi:cy="959.50507"
       sodipodi:r1="10.738069"
       sodipodi:r2="5.3690343"
       sodipodi:arg1="0.066568164"
       sodipodi:arg2="0.69488669"
       inkscape:flatsided="false"
       inkscape:rounded="0"
       inkscape:randomized="0"
       d="m 106.42857,960.21935 -6.590187,2.7235 -1.492526,6.97283 -4.626681,-5.42603 -7.092775,0.73525 3.730743,-6.07698 -2.89105,-6.51842 6.932408,1.67026 5.306007,-4.76386 0.553721,7.10925 z"
       inkscape:transform-center-x="-1.1251099"
       inkscape:transform-center-y="0.29261195"
       transform="matrix(1.3835637,0,0,1.3260065,207.16236,-293.81189)" />
    <path
       sodipodi:type="star"
       style="fill:#ffff00;fill-rule:evenodd;stroke:#000000;stroke-width:1px;stroke-linecap:butt;stroke-linejoin:miter;stroke-opacity:1"
       id="path2985-4"
       sodipodi:sides="5"
       sodipodi:cx="95.714287"
       sodipodi:cy="959.50507"
       sodipodi:r1="10.738069"
       sodipodi:r2="5.3690343"
       sodipodi:arg1="0.066568164"
       sodipodi:arg2="0.69488669"
       inkscape:flatsided="false"
       inkscape:rounded="0"
       inkscape:randomized="0"
       d="m 106.42857,960.21935 -6.590187,2.7235 -1.492526,6.97283 -4.626681,-5.42603 -7.092775,0.73525 3.730743,-6.07698 -2.89105,-6.51842 6.932408,1.67026 5.306007,-4.76386 0.553721,7.10925 z"
       inkscape:transform-center-x="-1.1251099"
       inkscape:transform-center-y="0.29261195"
       transform="matrix(1.3835637,0,0,1.3260065,216.44807,-408.81189)" />
    <path
       sodipodi:type="arc"
       style="fill:#0000ff;fill-opacity:1;fill-rule:evenodd;stroke:#000000;stroke-width:1px;stroke-linecap:butt;stroke-linejoin:miter;stroke-opacity:1"
       id="path2987-1"
       sodipodi:cx="112.5"
       sodipodi:cy="877.7193"
       sodipodi:rx="11.071428"
       sodipodi:ry="11.071428"
       d="m 123.57143,877.7193 c 0,6.11458 -4.95685,11.07143 -11.07143,11.07143 -6.11458,0 -11.07143,-4.95685 -11.07143,-11.07143 0,-6.11458 4.95685,-11.07143 11.07143,-11.07143 6.11458,0 11.07143,4.95685 11.07143,11.07143 z"
       transform="translate(3.9285715,83.928594)" />
    <path
       sodipodi:type="arc"
       style="fill:#0000ff;fill-opacity:1;fill-rule:evenodd;stroke:#000000;stroke-width:1px;stroke-linecap:butt;stroke-linejoin:miter;stroke-opacity:1"
       id="path2987-7"
       sodipodi:cx="112.5"
       sodipodi:cy="877.7193"
       sodipodi:rx="11.071428"
       sodipodi:ry="11.071428"
       d="m 123.57143,877.7193 c 0,6.11458 -4.95685,11.07143 -11.07143,11.07143 -6.11458,0 -11.07143,-4.95685 -11.07143,-11.07143 0,-6.11458 4.95685,-11.07143 11.07143,-11.07143 6.11458,0 11.07143,4.95685 11.07143,11.07143 z"
       transform="translate(78.214286,126.07145)" />
    <path
       sodipodi:type="arc"
       style="fill:#0000ff;fill-opacity:1;fill-rule:evenodd;stroke:#000000;stroke-width:1px;stroke-linecap:butt;stroke-linejoin:miter;stroke-opacity:1"
       id="path2987-0"
       sodipodi:cx="112.5"
       sodipodi:cy="877.7193"
       sodipodi:rx="11.071428"
       sodipodi:ry="11.071428"
       d="m 123.57143,877.7193 c 0,6.11458 -4.95685,11.07143 -11.07143,11.07143 -6.11458,0 -11.07143,-4.95685 -11.07143,-11.07143 0,-6.11458 4.95685,-11.07143 11.07143,-11.07143 6.11458,0 11.07143,4.95685 11.07143,11.07143 z"
       transform="translate(77.5,-178.92855)" />
    <path
       sodipodi:type="arc"
       style="fill:#0000ff;fill-opacity:1;fill-rule:evenodd;stroke:#000000;stroke-width:1px;stroke-linecap:butt;stroke-linejoin:miter;stroke-opacity:1"
       id="path2987-09"
       sodipodi:cx="112.5"
       sodipodi:cy="877.7193"
       sodipodi:rx="11.071428"
       sodipodi:ry="11.071428"
       d="m 123.57143,877.7193 c 0,6.11458 -4.95685,11.07143 -11.07143,11.07143 -6.11458,0 -11.07143,-4.95685 -11.07143,-11.07143 0,-6.11458 4.95685,-11.07143 11.07143,-11.07143 6.11458,0 11.07143,4.95685 11.07143,11.07143 z"
       transform="translate(-21.785714,-61.785691)" />
    <path
       sodipodi:type="arc"
       style="fill:#0000ff;fill-opacity:1;fill-rule:evenodd;stroke:#000000;stroke-width:1px;stroke-linecap:butt;stroke-linejoin:miter;stroke-opacity:1"
       id="path2987-4"
       sodipodi:cx="112.5"
       sodipodi:cy="877.7193"
       sodipodi:rx="11.071428"
       sodipodi:ry="11.071428"
       d="m 123.57143,877.7193 c 0,6.11458 -4.95685,11.07143 -11.07143,11.07143 -6.11458,0 -11.07143,-4.95685 -11.07143,-11.07143 0,-6.11458 4.95685,-11.07143 11.07143,-11.07143 6.11458,0 11.07143,4.95685 11.07143,11.07143 z"
       transform="translate(-58.928571,108.21431)" />
    <path
       sodipodi:type="arc"
       style="fill:#0000ff;fill-opacity:1;fill-rule:evenodd;stroke:#000000;stroke-width:1px;stroke-linecap:butt;stroke-linejoin:miter;stroke-opacity:1"
       id="path2987-6"
       sodipodi:cx="112.5"
       sodipodi:cy="877.7193"
       sodipodi:rx="11.071428"
       sodipodi:ry="11.071428"
       d="m 123.57143,877.7193 c 0,6.11458 -4.95685,11.07143 -11.07143,11.07143 -6.11458,0 -11.07143,-4.95685 -11.07143,-11.07143 0,-6.11458 4.95685,-11.07143 11.07143,-11.07143 6.11458,0 11.07143,4.95685 11.07143,11.07143 z"
       transform="translate(-75.357142,-26.785687)" />
    <path
       sodipodi:type="arc"
       style="fill:#0000ff;fill-opacity:1;fill-rule:evenodd;stroke:#000000;stroke-width:1px;stroke-linecap:butt;stroke-linejoin:miter;stroke-opacity:1"
       id="path2987-73"
       sodipodi:cx="112.5"
       sodipodi:cy="877.7193"
       sodipodi:rx="11.071428"
       sodipodi:ry="11.071428"
       d="m 123.57143,877.7193 c 0,6.11458 -4.95685,11.07143 -11.07143,11.07143 -6.11458,0 -11.07143,-4.95685 -11.07143,-11.07143 0,-6.11458 4.95685,-11.07143 11.07143,-11.07143 6.11458,0 11.07143,4.95685 11.07143,11.07143 z"
       transform="translate(-11.071428,-121.07141)" />
    <path
       sodipodi:type="arc"
       style="fill:#0000ff;fill-opacity:1;fill-rule:evenodd;stroke:#000000;stroke-width:1px;stroke-linecap:butt;stroke-linejoin:miter;stroke-opacity:1"
       id="path2987-8"
       sodipodi:cx="112.5"
       sodipodi:cy="877.7193"
       sodipodi:rx="11.071428"
       sodipodi:ry="11.071428"
       d="m 123.57143,877.7193 c 0,6.11458 -4.95685,11.07143 -11.07143,11.07143 -6.11458,0 -11.07143,-4.95685 -11.07143,-11.07143 0,-6.11458 4.95685,-11.07143 11.07143,-11.07143 6.11458,0 11.07143,4.95685 11.07143,11.07143 z"
       transform="translate(-68.214286,-128.92855)" />
    <path
       style="fill:none;stroke:#ff0000;stroke-width:2;stroke-linecap:butt;stroke-linejoin:miter;stroke-miterlimit:4;stroke-opacity:1;stroke-dasharray:none"
       d="M 285.49998,1045.7912 C -108.78574,635.79075 393.71426,749.00503 393.71426,749.00503"
       id="path3030"
       inkscape:connector-curvature="0"
       sodipodi:nodetypes="cc" />
    <path
       style="fill:none;stroke:#00ff00;stroke-width:1px;stroke-linecap:butt;stroke-linejoin:miter;stroke-opacity:1"
       d="M 245.3463,1045.7912 C -141.79657,612.93363 394.33245,727.57649 394.33245,727.57649"
       id="path3030-0"
       inkscape:connector-curvature="0"
       sodipodi:nodetypes="cc" />
    <path
       style="fill:none;stroke:#00ff00;stroke-width:1px;stroke-linecap:butt;stroke-linejoin:miter;stroke-opacity:1"
       d="M 315.79663,1045.3886 C -62.060524,666.81675 392.58234,775.03103 392.58234,775.03103"
       id="path3030-3"
       inkscape:connector-curvature="0"
       sodipodi:nodetypes="cc" />
  </g>
</svg>
