<?xml version="1.0" encoding="UTF-8" standalone="no"?>
<!-- Created with Inkscape (http://www.inkscape.org/) -->

<svg
   xmlns:dc="http://purl.org/dc/elements/1.1/"
   xmlns:cc="http://creativecommons.org/ns#"
   xmlns:rdf="http://www.w3.org/1999/02/22-rdf-syntax-ns#"
   xmlns:svg="http://www.w3.org/2000/svg"
   xmlns="http://www.w3.org/2000/svg"
   xmlns:sodipodi="http://sodipodi.sourceforge.net/DTD/sodipodi-0.dtd"
   xmlns:inkscape="http://www.inkscape.org/namespaces/inkscape"
   width="900"
   height="650"
   id="svg2"
   version="1.1"
   inkscape:version="0.48.3.1 r9886"
   sodipodi:docname="traits.svg">
  <defs
     id="defs4">
    <marker
       inkscape:stockid="Arrow1Lend"
       orient="auto"
       refY="0"
       refX="0"
       id="Arrow1Lend"
       style="overflow:visible">
      <path
         id="path3838"
         d="M 0,0 5,-5 -12.5,0 5,5 0,0 z"
         style="fill-rule:evenodd;stroke:#000000;stroke-width:1pt"
         transform="matrix(-0.8,0,0,-0.8,-10,0)"
         inkscape:connector-curvature="0" />
    </marker>
    <marker
       inkscape:stockid="Arrow1Lstart"
       orient="auto"
       refY="0"
       refX="0"
       id="Arrow1Lstart"
       style="overflow:visible">
      <path
         id="path3835"
         d="M 0,0 5,-5 -12.5,0 5,5 0,0 z"
         style="fill-rule:evenodd;stroke:#000000;stroke-width:1pt"
         transform="matrix(0.8,0,0,0.8,10,0)"
         inkscape:connector-curvature="0" />
    </marker>
    <marker
       inkscape:stockid="Arrow1Lend"
       orient="auto"
       refY="0"
       refX="0"
       id="Arrow1Lend-6"
       style="overflow:visible">
      <path
         inkscape:connector-curvature="0"
         id="path3838-2"
         d="M 0,0 5,-5 -12.5,0 5,5 0,0 z"
         style="fill-rule:evenodd;stroke:#000000;stroke-width:1pt"
         transform="matrix(-0.8,0,0,-0.8,-10,0)" />
    </marker>
    <marker
       inkscape:stockid="Arrow1Lend"
       orient="auto"
       refY="0"
       refX="0"
       id="Arrow1Lend-3"
       style="overflow:visible">
      <path
         inkscape:connector-curvature="0"
         id="path3838-20"
         d="M 0,0 5,-5 -12.5,0 5,5 0,0 z"
         style="fill-rule:evenodd;stroke:#000000;stroke-width:1pt"
         transform="matrix(-0.8,0,0,-0.8,-10,0)" />
    </marker>
    <marker
       inkscape:stockid="Arrow1Lend"
       orient="auto"
       refY="0"
       refX="0"
       id="Arrow1Lend-8"
       style="overflow:visible">
      <path
         inkscape:connector-curvature="0"
         id="path3838-5"
         d="M 0,0 5,-5 -12.5,0 5,5 0,0 z"
         style="fill-rule:evenodd;stroke:#000000;stroke-width:1pt"
         transform="matrix(-0.8,0,0,-0.8,-10,0)" />
    </marker>
    <marker
       inkscape:stockid="Arrow1Lend"
       orient="auto"
       refY="0"
       refX="0"
       id="Arrow1Lend-1"
       style="overflow:visible">
      <path
         inkscape:connector-curvature="0"
         id="path3838-1"
         d="M 0,0 5,-5 -12.5,0 5,5 0,0 z"
         style="fill-rule:evenodd;stroke:#000000;stroke-width:1pt"
         transform="matrix(-0.8,0,0,-0.8,-10,0)" />
    </marker>
    <marker
       inkscape:stockid="Arrow1Lend"
       orient="auto"
       refY="0"
       refX="0"
       id="Arrow1Lend-7"
       style="overflow:visible">
      <path
         inkscape:connector-curvature="0"
         id="path3838-59"
         d="M 0,0 5,-5 -12.5,0 5,5 0,0 z"
         style="fill-rule:evenodd;stroke:#000000;stroke-width:1pt"
         transform="matrix(-0.8,0,0,-0.8,-10,0)" />
    </marker>
    <marker
       inkscape:stockid="Arrow1Lend"
       orient="auto"
       refY="0"
       refX="0"
       id="Arrow1Lend-72"
       style="overflow:visible">
      <path
         inkscape:connector-curvature="0"
         id="path3838-6"
         d="M 0,0 5,-5 -12.5,0 5,5 0,0 z"
         style="fill-rule:evenodd;stroke:#000000;stroke-width:1pt"
         transform="matrix(-0.8,0,0,-0.8,-10,0)" />
    </marker>
    <marker
       inkscape:stockid="Arrow1Lend"
       orient="auto"
       refY="0"
       refX="0"
       id="Arrow1Lend-4"
       style="overflow:visible">
      <path
         inkscape:connector-curvature="0"
         id="path3838-7"
         d="M 0,0 5,-5 -12.5,0 5,5 0,0 z"
         style="fill-rule:evenodd;stroke:#000000;stroke-width:1pt"
         transform="matrix(-0.8,0,0,-0.8,-10,0)" />
    </marker>
    <marker
       inkscape:stockid="Arrow1Lend"
       orient="auto"
       refY="0"
       refX="0"
       id="Arrow1Lend-5"
       style="overflow:visible">
      <path
         inkscape:connector-curvature="0"
         id="path3838-70"
         d="M 0,0 5,-5 -12.5,0 5,5 0,0 z"
         style="fill-rule:evenodd;stroke:#000000;stroke-width:1pt"
         transform="matrix(-0.8,0,0,-0.8,-10,0)" />
    </marker>
    <marker
       inkscape:stockid="Arrow1Lend"
       orient="auto"
       refY="0"
       refX="0"
       id="Arrow1Lend-44"
       style="overflow:visible">
      <path
         inkscape:connector-curvature="0"
         id="path3838-12"
         d="M 0,0 5,-5 -12.5,0 5,5 0,0 z"
         style="fill-rule:evenodd;stroke:#000000;stroke-width:1pt"
         transform="matrix(-0.8,0,0,-0.8,-10,0)" />
    </marker>
    <marker
       inkscape:stockid="Arrow1Lend"
       orient="auto"
       refY="0"
       refX="0"
       id="Arrow1Lend-0"
       style="overflow:visible">
      <path
         inkscape:connector-curvature="0"
         id="path3838-62"
         d="M 0,0 5,-5 -12.5,0 5,5 0,0 z"
         style="fill-rule:evenodd;stroke:#000000;stroke-width:1pt"
         transform="matrix(-0.8,0,0,-0.8,-10,0)" />
    </marker>
    <marker
       inkscape:stockid="Arrow1Lend"
       orient="auto"
       refY="0"
       refX="0"
       id="Arrow1Lend-46"
       style="overflow:visible">
      <path
         id="path3838-8"
         d="M 0,0 5,-5 -12.5,0 5,5 0,0 z"
         style="fill-rule:evenodd;stroke:#000000;stroke-width:1pt"
         transform="matrix(-0.8,0,0,-0.8,-10,0)"
         inkscape:connector-curvature="0" />
    </marker>
    <marker
       inkscape:stockid="Arrow1Lend"
       orient="auto"
       refY="0"
       refX="0"
       id="Arrow1Lend-00"
       style="overflow:visible">
      <path
         id="path3838-87"
         d="M 0,0 5,-5 -12.5,0 5,5 0,0 z"
         style="fill-rule:evenodd;stroke:#000000;stroke-width:1pt"
         transform="matrix(-0.8,0,0,-0.8,-10,0)"
         inkscape:connector-curvature="0" />
    </marker>
    <marker
       inkscape:stockid="Arrow1Lend"
       orient="auto"
       refY="0"
       refX="0"
       id="Arrow1Lend-77"
       style="overflow:visible">
      <path
         id="path3838-3"
         d="M 0,0 5,-5 -12.5,0 5,5 0,0 z"
         style="fill-rule:evenodd;stroke:#000000;stroke-width:1pt"
         transform="matrix(-0.8,0,0,-0.8,-10,0)"
         inkscape:connector-curvature="0" />
    </marker>
    <marker
       inkscape:stockid="Arrow1Lend"
       orient="auto"
       refY="0"
       refX="0"
       id="Arrow1Lend-64"
       style="overflow:visible">
      <path
         id="path3838-9"
         d="M 0,0 5,-5 -12.5,0 5,5 0,0 z"
         style="fill-rule:evenodd;stroke:#000000;stroke-width:1pt"
         transform="matrix(-0.8,0,0,-0.8,-10,0)"
         inkscape:connector-curvature="0" />
    </marker>
  </defs>
  <sodipodi:namedview
     id="base"
     pagecolor="#ffffff"
     bordercolor="#666666"
     borderopacity="1.0"
     inkscape:pageopacity="0.0"
     inkscape:pageshadow="2"
     inkscape:zoom="0.98994949"
     inkscape:cx="421.41559"
     inkscape:cy="341.01894"
     inkscape:document-units="px"
     inkscape:current-layer="layer1"
     showgrid="false"
     inkscape:window-width="1215"
     inkscape:window-height="1000"
     inkscape:window-x="65"
     inkscape:window-y="24"
     inkscape:window-maximized="1" />
  <metadata
     id="metadata7">
    <rdf:RDF>
      <cc:Work
         rdf:about="">
        <dc:format>image/svg+xml</dc:format>
        <dc:type
           rdf:resource="http://purl.org/dc/dcmitype/StillImage" />
        <dc:title />
      </cc:Work>
    </rdf:RDF>
  </metadata>
  <g
     inkscape:label="Layer 1"
     inkscape:groupmode="layer"
     id="layer1"
     transform="translate(0,-402.36218)">
    <path
       sodipodi:type="arc"
       style="fill:#00b7ff;fill-opacity:0.31372549;stroke:#0000ff;stroke-width:3;stroke-miterlimit:4;stroke-opacity:1;stroke-dasharray:none"
       id="path2985"
       sodipodi:cx="135.36044"
       sodipodi:cy="426.0676"
       sodipodi:rx="39.39595"
       sodipodi:ry="39.39595"
       d="m 174.75639,426.0676 c 0,21.75778 -17.63816,39.39595 -39.39595,39.39595 -21.75778,0 -39.395947,-17.63817 -39.395947,-39.39595 0,-21.75779 17.638167,-39.39595 39.395947,-39.39595 21.75779,0 39.39595,17.63816 39.39595,39.39595 z"
       transform="translate(15.129406,295.49505)" />
    <path
       sodipodi:type="arc"
       style="fill:#00b7ff;fill-opacity:0.31372549;stroke:#0000ff;stroke-width:3;stroke-miterlimit:4;stroke-opacity:1;stroke-dasharray:none"
       id="path2985-0"
       sodipodi:cx="135.36044"
       sodipodi:cy="426.0676"
       sodipodi:rx="39.39595"
       sodipodi:ry="39.39595"
       d="m 174.75639,426.0676 c 0,21.75778 -17.63816,39.39595 -39.39595,39.39595 -21.75778,0 -39.395947,-17.63817 -39.395947,-39.39595 0,-21.75779 17.638167,-39.39595 39.395947,-39.39595 21.75779,0 39.39595,17.63816 39.39595,39.39595 z"
       transform="translate(15.129405,385.39864)" />
    <path
       sodipodi:type="arc"
       style="fill:#00b7ff;fill-opacity:0.31372549;stroke:#0000ff;stroke-width:3;stroke-miterlimit:4;stroke-opacity:1;stroke-dasharray:none"
       id="path2985-2"
       sodipodi:cx="135.36044"
       sodipodi:cy="426.0676"
       sodipodi:rx="39.39595"
       sodipodi:ry="39.39595"
       d="m 174.75639,426.0676 c 0,21.75778 -17.63816,39.39595 -39.39595,39.39595 -21.75778,0 -39.395947,-17.63817 -39.395947,-39.39595 0,-21.75779 17.638167,-39.39595 39.395947,-39.39595 21.75779,0 39.39595,17.63816 39.39595,39.39595 z"
       transform="translate(165.12941,395.49505)" />
    <path
       sodipodi:type="arc"
       style="fill:#00b7ff;fill-opacity:0.31372549;stroke:#0000ff;stroke-width:3;stroke-miterlimit:4;stroke-opacity:1;stroke-dasharray:none"
       id="path2985-0-2"
       sodipodi:cx="135.36044"
       sodipodi:cy="426.0676"
       sodipodi:rx="39.39595"
       sodipodi:ry="39.39595"
       d="m 174.75639,426.0676 c 0,21.75778 -17.63816,39.39595 -39.39595,39.39595 -21.75778,0 -39.395947,-17.63817 -39.395947,-39.39595 0,-21.75779 17.638167,-39.39595 39.395947,-39.39595 21.75779,0 39.39595,17.63816 39.39595,39.39595 z"
       transform="translate(165.12941,485.39864)" />
    <path
       sodipodi:type="arc"
       style="fill:#00b7ff;fill-opacity:0.31372549;stroke:#0000ff;stroke-width:3;stroke-miterlimit:4;stroke-opacity:1;stroke-dasharray:none"
       id="path2985-6"
       sodipodi:cx="135.36044"
       sodipodi:cy="426.0676"
       sodipodi:rx="39.39595"
       sodipodi:ry="39.39595"
       d="m 174.75639,426.0676 c 0,21.75778 -17.63816,39.39595 -39.39595,39.39595 -21.75778,0 -39.395947,-17.63817 -39.395947,-39.39595 0,-21.75779 17.638167,-39.39595 39.395947,-39.39595 21.75779,0 39.39595,17.63816 39.39595,39.39595 z"
       transform="translate(315.12941,445.49504)" />
    <path
       sodipodi:type="arc"
       style="fill:#646464;fill-opacity:0.31372549;stroke:#000000;stroke-width:3;stroke-miterlimit:4;stroke-opacity:1;stroke-dasharray:none"
       id="path2985-0-6"
       sodipodi:cx="135.36044"
       sodipodi:cy="426.0676"
       sodipodi:rx="39.39595"
       sodipodi:ry="39.39595"
       d="m 174.75639,426.0676 c 0,21.75778 -17.63816,39.39595 -39.39595,39.39595 -21.75778,0 -39.395947,-17.63817 -39.395947,-39.39595 0,-21.75779 17.638167,-39.39595 39.395947,-39.39595 21.75779,0 39.39595,17.63816 39.39595,39.39595 z"
       transform="translate(315.12941,535.39864)" />
    <path
       sodipodi:type="arc"
       style="fill:#00b7ff;fill-opacity:0.31372549;stroke:#0000ff;stroke-width:3;stroke-miterlimit:4;stroke-opacity:1;stroke-dasharray:none"
       id="path2985-5"
       sodipodi:cx="135.36044"
       sodipodi:cy="426.0676"
       sodipodi:rx="39.39595"
       sodipodi:ry="39.39595"
       d="m 174.75639,426.0676 c 0,21.75778 -17.63816,39.39595 -39.39595,39.39595 -21.75778,0 -39.395947,-17.63817 -39.395947,-39.39595 0,-21.75779 17.638167,-39.39595 39.395947,-39.39595 21.75779,0 39.39595,17.63816 39.39595,39.39595 z"
       transform="translate(465.12941,395.49505)" />
    <path
       sodipodi:type="arc"
       style="fill:#00b7ff;fill-opacity:0.31372549;stroke:#0000ff;stroke-width:3;stroke-miterlimit:4;stroke-opacity:1;stroke-dasharray:none"
       id="path2985-0-5"
       sodipodi:cx="135.36044"
       sodipodi:cy="426.0676"
       sodipodi:rx="39.39595"
       sodipodi:ry="39.39595"
       d="m 174.75639,426.0676 c 0,21.75778 -17.63816,39.39595 -39.39595,39.39595 -21.75778,0 -39.395947,-17.63817 -39.395947,-39.39595 0,-21.75779 17.638167,-39.39595 39.395947,-39.39595 21.75779,0 39.39595,17.63816 39.39595,39.39595 z"
       transform="translate(465.12941,485.39864)" />
    <path
       sodipodi:type="arc"
       style="fill:#00b7ff;fill-opacity:0.31372549;stroke:#0000ff;stroke-width:3;stroke-miterlimit:4;stroke-opacity:1;stroke-dasharray:none"
       id="path2985-9"
       sodipodi:cx="135.36044"
       sodipodi:cy="426.0676"
       sodipodi:rx="39.39595"
       sodipodi:ry="39.39595"
       d="m 174.75639,426.0676 c 0,21.75778 -17.63816,39.39595 -39.39595,39.39595 -21.75778,0 -39.395947,-17.63817 -39.395947,-39.39595 0,-21.75779 17.638167,-39.39595 39.395947,-39.39595 21.75779,0 39.39595,17.63816 39.39595,39.39595 z"
       transform="translate(615.12941,295.49505)" />
    <path
       sodipodi:type="arc"
       style="fill:#00b7ff;fill-opacity:0.31372549;stroke:#0000ff;stroke-width:3;stroke-miterlimit:4;stroke-opacity:1;stroke-dasharray:none"
       id="path2985-0-51"
       sodipodi:cx="135.36044"
       sodipodi:cy="426.0676"
       sodipodi:rx="39.39595"
       sodipodi:ry="39.39595"
       d="m 174.75639,426.0676 c 0,21.75778 -17.63816,39.39595 -39.39595,39.39595 -21.75778,0 -39.395947,-17.63817 -39.395947,-39.39595 0,-21.75779 17.638167,-39.39595 39.395947,-39.39595 21.75779,0 39.39595,17.63816 39.39595,39.39595 z"
       transform="translate(615.12941,385.39864)" />
    <path
       sodipodi:type="arc"
       style="fill:#ff0000;fill-opacity:0.69803922;stroke:none"
       id="path3821"
       sodipodi:cx="362.64478"
       sodipodi:cy="592.7428"
       sodipodi:rx="107.07617"
       sodipodi:ry="107.07617"
       d="m 469.72095,592.7428 c 0,59.13653 -47.93964,107.07617 -107.07617,107.07617 -59.13654,0 -107.07618,-47.93964 -107.07618,-107.07617 0,-59.13654 47.93964,-107.07617 107.07618,-107.07617 59.13653,0 107.07617,47.93963 107.07617,107.07617 z"
       transform="translate(89.025294,0)" />
    <text
       xml:space="preserve"
       style="font-size:72px;font-style:normal;font-weight:normal;line-height:125%;letter-spacing:0px;word-spacing:0px;fill:#000000;fill-opacity:1;stroke:none;font-family:Sans"
       x="404.48438"
       y="620.36218"
       id="text3823"
       sodipodi:linespacing="125%"><tspan
         sodipodi:role="line"
         id="tspan3825"
         x="404.48438"
         y="620.36218">42</tspan></text>
    <path
       sodipodi:type="arc"
       style="fill:#00a400;fill-opacity:0.69803922;stroke:none"
       id="path3827"
       sodipodi:cx="55.558392"
       sodipodi:cy="404.8544"
       sodipodi:rx="107.07617"
       sodipodi:ry="106.06602"
       d="m 162.63456,404.8544 c 0,58.57864 -47.93963,106.06602 -107.076168,106.06602 -59.1365372,0 -107.076172,-47.48738 -107.076172,-106.06602 0,-58.57864 47.9396348,-106.06602 107.076172,-106.06602 59.136538,0 107.076168,47.48738 107.076168,106.06602 z"
       transform="translate(151.51778,117.1777)" />
    <path
       style="fill:none;stroke:#000000;stroke-width:2;stroke-linecap:butt;stroke-linejoin:miter;stroke-miterlimit:4;stroke-opacity:1;stroke-dasharray:none;marker-end:url(#Arrow1Lend)"
       d="m 187.88327,708.91032 c 17.1726,-52.52793 158.59395,-100.0051 158.59395,-100.0051"
       id="path3829"
       inkscape:connector-curvature="0"
       sodipodi:nodetypes="cc" />
    <path
       style="fill:none;stroke:#000000;stroke-width:2;stroke-linecap:butt;stroke-linejoin:miter;stroke-miterlimit:4;stroke-opacity:1;stroke-dasharray:none;marker-end:url(#Arrow1Lend)"
       d="M 175.25636,779.11592 C 192.42896,726.58799 359.10412,647.79609 359.10412,647.79609"
       id="path3829-7"
       inkscape:connector-curvature="0"
       sodipodi:nodetypes="cc" />
    <path
       style="fill:none;stroke:#000000;stroke-width:2;stroke-linecap:butt;stroke-linejoin:miter;stroke-miterlimit:4;stroke-opacity:1;stroke-dasharray:none;marker-end:url(#Arrow1Lend)"
       d="m 304.55589,782.14638 c 17.1726,-52.52793 91.92388,-94.95434 91.92388,-94.95434"
       id="path3829-78"
       inkscape:connector-curvature="0"
       sodipodi:nodetypes="cc" />
    <path
       style="fill:none;stroke:#000000;stroke-width:2;stroke-linecap:butt;stroke-linejoin:miter;stroke-miterlimit:4;stroke-opacity:1;stroke-dasharray:none;marker-end:url(#Arrow1Lend)"
       d="M 324.75894,880.13118 C 401.53054,809.4205 427.7945,701.33417 427.7945,701.33417"
       id="path3829-0"
       inkscape:connector-curvature="0"
       sodipodi:nodetypes="cc" />
    <path
       style="fill:none;stroke:#000000;stroke-width:2;stroke-linecap:butt;stroke-linejoin:miter;stroke-miterlimit:4;stroke-opacity:1;stroke-dasharray:none;marker-end:url(#Arrow1Lend)"
       d="m 453.5534,834.16923 c 17.1726,-52.52793 4.04061,-133.34014 4.04061,-133.34014"
       id="path3829-7-8"
       inkscape:connector-curvature="0"
       sodipodi:nodetypes="cc" />
    <path
       style="fill:none;stroke:#000000;stroke-width:2;stroke-linecap:butt;stroke-linejoin:miter;stroke-miterlimit:4;stroke-opacity:1;stroke-dasharray:none;marker-end:url(#Arrow1Lend)"
       d="m 412.00429,871.54488 c -25.2538,37.37564 5.05077,68.69036 5.05077,68.69036"
       id="path3829-7-8-5"
       inkscape:connector-curvature="0"
       sodipodi:nodetypes="cc" />
    <path
       style="fill:none;stroke:#000000;stroke-width:2;stroke-linecap:butt;stroke-linejoin:miter;stroke-miterlimit:4;stroke-opacity:1;stroke-dasharray:none;marker-end:url(#Arrow1Lend)"
       d="M 601.4079,782.65145 C 603.17567,695.77834 525.14138,672.54482 525.14138,672.54482"
       id="path3829-7-8-9"
       inkscape:connector-curvature="0"
       sodipodi:nodetypes="cc" />
    <path
       style="fill:none;stroke:#000000;stroke-width:2;stroke-linecap:butt;stroke-linejoin:miter;stroke-miterlimit:4;stroke-opacity:1;stroke-dasharray:none;marker-end:url(#Arrow1Lend)"
       d="M 565.62155,894.77839 C 511.07332,862.45351 483.79919,697.79864 483.79919,697.79864"
       id="path3829-7-8-9-5"
       inkscape:connector-curvature="0"
       sodipodi:nodetypes="cc" />
    <path
       style="fill:none;stroke:#000000;stroke-width:2;stroke-linecap:butt;stroke-linejoin:miter;stroke-miterlimit:4;stroke-opacity:1;stroke-dasharray:none;marker-end:url(#Arrow1Lend)"
       d="m 639.90993,825.07787 c 33.33505,21.2132 -4.0406,72.73097 -4.0406,72.73097"
       id="path3829-7-8-5-5"
       inkscape:connector-curvature="0"
       sodipodi:nodetypes="cc" />
    <text
       xml:space="preserve"
       style="font-size:40px;font-style:normal;font-weight:normal;line-height:125%;letter-spacing:0px;word-spacing:0px;fill:#000000;fill-opacity:1;stroke:none;font-family:Sans"
       x="134.3452"
       y="892.75806"
       id="text4644"
       sodipodi:linespacing="125%"><tspan
         sodipodi:role="line"
         id="tspan4646"
         x="134.3452"
         y="892.75806">A</tspan></text>
    <text
       xml:space="preserve"
       style="font-size:40px;font-style:normal;font-weight:normal;line-height:125%;letter-spacing:0px;word-spacing:0px;fill:#000000;fill-opacity:1;stroke:none;font-family:Sans"
       x="286.87823"
       y="991.75305"
       id="text4652"
       sodipodi:linespacing="125%"><tspan
         sodipodi:role="line"
         id="tspan4654"
         x="286.87823"
         y="991.75305">B</tspan></text>
    <text
       xml:space="preserve"
       style="font-size:40px;font-style:normal;font-weight:normal;line-height:125%;letter-spacing:0px;word-spacing:0px;fill:#000000;fill-opacity:1;stroke:none;font-family:Sans"
       x="436.3808"
       y="1041.7958"
       id="text4660"
       sodipodi:linespacing="125%"><tspan
         sodipodi:role="line"
         id="tspan4662"
         x="436.3808"
         y="1041.7958">C</tspan></text>
    <text
       xml:space="preserve"
       style="font-size:40px;font-style:normal;font-weight:normal;line-height:125%;letter-spacing:0px;word-spacing:0px;fill:#000000;fill-opacity:1;stroke:none;font-family:Sans"
       x="588.91382"
       y="990.74286"
       id="text4668"
       sodipodi:linespacing="125%"><tspan
         sodipodi:role="line"
         id="tspan4670"
         x="588.91382"
         y="990.74286">D</tspan></text>
    <text
       xml:space="preserve"
       style="font-size:40px;font-style:normal;font-weight:normal;line-height:125%;letter-spacing:0px;word-spacing:0px;fill:#000000;fill-opacity:1;stroke:none;font-family:Sans"
       x="739.42657"
       y="891.74799"
       id="text4676"
       sodipodi:linespacing="125%"><tspan
         sodipodi:role="line"
         id="tspan4678"
         x="739.42657"
         y="891.74799">E</tspan></text>
    <path
       style="fill:none;stroke:#000000;stroke-width:2;stroke-linecap:butt;stroke-linejoin:miter;stroke-miterlimit:4;stroke-opacity:1;stroke-dasharray:none;marker-end:url(#Arrow1Lend)"
       d="m 712.09368,733.15398 c -48.48732,21.21321 -78.7919,60.60915 -78.7919,60.60915"
       id="path3829-7-8-9-4"
       inkscape:connector-curvature="0"
       sodipodi:nodetypes="cc" />
    <path
       style="fill:none;stroke:#000000;stroke-width:2;stroke-linecap:butt;stroke-linejoin:miter;stroke-miterlimit:4;stroke-opacity:1;stroke-dasharray:none;marker-end:url(#Arrow1Lend)"
       d="m 720.23366,784.67176 c -29.29442,-12.12182 -78.7919,24.24366 -78.7919,24.24366"
       id="path3829-7-8-9-4-7"
       inkscape:connector-curvature="0"
       sodipodi:nodetypes="cc" />
    <text
       xml:space="preserve"
       style="font-size:40px;font-style:normal;font-weight:normal;line-height:125%;letter-spacing:0px;word-spacing:0px;fill:#000000;fill-opacity:1;stroke:none;font-family:Sans"
       x="655.58392"
       y="878.61597"
       id="text4744"
       sodipodi:linespacing="125%"><tspan
         sodipodi:role="line"
         id="tspan4746"
         x="655.58392"
         y="878.61597">-2</tspan></text>
    <text
       xml:space="preserve"
       style="font-size:40px;font-style:normal;font-weight:normal;line-height:125%;letter-spacing:0px;word-spacing:0px;fill:#000000;fill-opacity:1;stroke:none;font-family:Sans"
       x="648.51282"
       y="830.12866"
       id="text4756"
       sodipodi:linespacing="125%"><tspan
         sodipodi:role="line"
         id="tspan4758"
         x="648.51282"
         y="830.12866">+4</tspan></text>
    <text
       xml:space="preserve"
       style="font-size:40px;font-style:normal;font-weight:normal;line-height:125%;letter-spacing:0px;word-spacing:0px;fill:#000000;fill-opacity:1;stroke:none;font-family:Sans"
       x="633.36053"
       y="739.21484"
       id="text4760"
       sodipodi:linespacing="125%"><tspan
         sodipodi:role="line"
         id="tspan4762"
         x="633.36053"
         y="739.21484">+4</tspan></text>
    <text
       xml:space="preserve"
       style="font-size:40px;font-style:normal;font-weight:normal;line-height:125%;letter-spacing:0px;word-spacing:0px;fill:#000000;fill-opacity:1;stroke:none;font-family:Sans"
       x="589.92395"
       y="924.07281"
       id="text4768"
       sodipodi:linespacing="125%"><tspan
         sodipodi:role="line"
         id="tspan4770"
         x="589.92395"
         y="924.07281">2</tspan></text>
    <text
       xml:space="preserve"
       style="font-size:40px;font-style:normal;font-weight:normal;line-height:125%;letter-spacing:0px;word-spacing:0px;fill:#000000;fill-opacity:1;stroke:none;font-family:Sans"
       x="574.77167"
       y="835.17938"
       id="text4772"
       sodipodi:linespacing="125%"><tspan
         sodipodi:role="line"
         id="tspan4774"
         x="574.77167"
         y="835.17938">28</tspan></text>
    <text
       xml:space="preserve"
       style="font-size:40px;font-style:normal;font-weight:normal;line-height:125%;letter-spacing:0px;word-spacing:0px;fill:#000000;fill-opacity:1;stroke:none;font-family:Sans"
       x="425.26913"
       y="885.68701"
       id="text4776"
       sodipodi:linespacing="125%"><tspan
         sodipodi:role="line"
         id="tspan4778"
         x="425.26913"
         y="885.68701">12</tspan></text>
    <text
       xml:space="preserve"
       style="font-size:40px;font-style:normal;font-weight:normal;line-height:125%;letter-spacing:0px;word-spacing:0px;fill:#000000;fill-opacity:1;stroke:none;font-family:Sans"
       x="610.12701"
       y="437.17929"
       id="text4780"
       sodipodi:linespacing="125%"><tspan
         sodipodi:role="line"
         id="tspan4782"
         x="610.12701"
         y="437.17929" /></text>
    <text
       xml:space="preserve"
       style="font-size:40px;font-style:normal;font-weight:normal;line-height:125%;letter-spacing:0px;word-spacing:0px;fill:#000000;fill-opacity:1;stroke:none;font-family:Sans"
       x="137.07031"
       y="735.17432"
       id="text4784"
       sodipodi:linespacing="125%"><tspan
         sodipodi:role="line"
         id="tspan4786"
         x="137.07031"
         y="735.17432">2</tspan></text>
    <text
       xml:space="preserve"
       style="font-size:40px;font-style:normal;font-weight:normal;line-height:125%;letter-spacing:0px;word-spacing:0px;fill:#000000;fill-opacity:1;stroke:none;font-family:Sans"
       x="137.07031"
       y="826.08801"
       id="text4788"
       sodipodi:linespacing="125%"><tspan
         sodipodi:role="line"
         id="tspan4790"
         x="137.07031"
         y="826.08801">2</tspan></text>
    <text
       xml:space="preserve"
       style="font-size:40px;font-style:normal;font-weight:normal;line-height:125%;letter-spacing:0px;word-spacing:0px;fill:#000000;fill-opacity:1;stroke:none;font-family:Sans"
       x="287.8884"
       y="834.16925"
       id="text4792"
       sodipodi:linespacing="125%"><tspan
         sodipodi:role="line"
         id="tspan4794"
         x="287.8884"
         y="834.16925">2</tspan></text>
    <text
       xml:space="preserve"
       style="font-size:40px;font-style:normal;font-weight:normal;line-height:125%;letter-spacing:0px;word-spacing:0px;fill:#000000;fill-opacity:1;stroke:none;font-family:Sans"
       x="287.88834"
       y="926.09314"
       id="text4796"
       sodipodi:linespacing="125%"><tspan
         sodipodi:role="line"
         id="tspan4798"
         x="287.88834"
         y="926.09314">1</tspan></text>
    <text
       xml:space="preserve"
       style="font-size:56px;font-style:normal;font-weight:normal;line-height:125%;letter-spacing:0px;word-spacing:0px;fill:#000000;fill-opacity:1;stroke:none;font-family:Sans"
       x="174.75131"
       y="540.21484"
       id="text4800"
       sodipodi:linespacing="125%"><tspan
         sodipodi:role="line"
         id="tspan4802"
         x="174.75131"
         y="540.21484">-7</tspan></text>
    <path
       style="fill:none;stroke:#000000;stroke-width:2;stroke-linecap:butt;stroke-linejoin:miter;stroke-miterlimit:4;stroke-opacity:1;stroke-dasharray:none;marker-end:url(#Arrow1Lend)"
       d="m 107.58124,561.93313 c -28.284267,95.96449 3.03046,152.53303 3.03046,152.53303"
       id="path3829-8-6"
       inkscape:connector-curvature="0"
       sodipodi:nodetypes="cc" />
    <path
       style="fill:none;stroke:#000000;stroke-width:2;stroke-linecap:butt;stroke-linejoin:miter;stroke-miterlimit:4;stroke-opacity:1;stroke-dasharray:none;marker-end:url(#Arrow1Lend)"
       d="M 101.52033,521.52701 C 8.5863029,691.23264 109.60155,800.3291 109.60155,800.3291"
       id="path3829-8-2"
       inkscape:connector-curvature="0"
       sodipodi:nodetypes="cc" />
    <text
       xml:space="preserve"
       style="font-size:40px;font-style:normal;font-weight:normal;line-height:125%;letter-spacing:0px;word-spacing:0px;fill:#000000;fill-opacity:1;stroke:none;font-family:Sans"
       x="15.152285"
       y="658.40271"
       id="text4886"
       sodipodi:linespacing="125%"><tspan
         sodipodi:role="line"
         id="tspan4888"
         x="15.152285"
         y="658.40271">-6</tspan></text>
    <text
       xml:space="preserve"
       style="font-size:40px;font-style:normal;font-weight:normal;line-height:125%;letter-spacing:0px;word-spacing:0px;fill:#000000;fill-opacity:1;stroke:none;font-family:Sans"
       x="100.0051"
       y="656.38239"
       id="text4890"
       sodipodi:linespacing="125%"><tspan
         sodipodi:role="line"
         id="tspan4892"
         x="100.0051"
         y="656.38239">-6</tspan></text>
    <path
       style="fill:none;stroke:#000000;stroke-width:2;stroke-linecap:butt;stroke-linejoin:miter;stroke-miterlimit:4;stroke-opacity:1;stroke-dasharray:none;marker-end:url(#Arrow1Lend)"
       d="m 287.34452,452.33158 c 73.74114,-4.04061 140.4112,38.38578 140.4112,38.38578"
       id="path3829-8-2-9"
       inkscape:connector-curvature="0"
       sodipodi:nodetypes="cc" />
  </g>
</svg>
