<?xml version="1.0" encoding="UTF-8" standalone="no"?>
<!DOCTYPE svg PUBLIC "-//W3C//DTD SVG 1.1//EN" "http://www.w3.org/Graphics/SVG/1.1/DTD/svg11.dtd">
<!-- Created with Vectornator (http://vectornator.io/) -->
<svg height="100%" stroke-miterlimit="10" style="fill-rule:nonzero;clip-rule:evenodd;stroke-linecap:round;stroke-linejoin:round;" version="1.1" viewBox="0 0 280 70" width="100%" xml:space="preserve" xmlns="http://www.w3.org/2000/svg" xmlns:vectornator="http://vectornator.io" xmlns:xlink="http://www.w3.org/1999/xlink">
<defs/>
<g id="Layer-1" vectornator:layerName="Layer 1">
<path d="M26.749 45.3335C25.677 45.3335 23.6 44.3285 22.796 41.5145C19.915 31.3975 18.173 18.1315 17.369 13.7095C16.498 9.01945 14.153 2.85545 9.597 2.85545C5.51 2.85545 2.83 7.47845 2.83 9.62245C2.83 10.2925 3.031 10.4265 3.5 10.4265C3.969 10.4265 6.381 7.81345 8.123 7.81345C13.483 7.81345 15.962 16.8585 16.833 22.8215C16.967 23.8935 16.9 23.8935 16.498 25.1665C14.421 31.5985 7.654 42.0505 4.237 47.1425C3.567 48.1475 3.567 47.9465 3.567 48.8845C3.567 50.0905 5.778 50.8945 6.716 50.8945C7.252 50.8945 8.056 48.8845 8.257 48.4825C11.339 42.9885 16.029 34.0775 17.503 29.9905C17.637 29.6555 17.838 29.7225 17.905 30.0575C18.508 34.6805 19.915 42.0505 21.255 46.4725C22.26 49.8225 23.533 50.6935 25.744 50.6935C28.625 50.6935 32.31 48.6835 32.31 43.6585C32.31 43.3235 31.908 43.0555 31.573 43.0555C31.037 43.0555 29.161 45.4005 26.749 45.3335Z" fill="#316d8e" fill-rule="evenodd" opacity="1" stroke="#2e537c" stroke-linecap="butt" stroke-linejoin="miter" stroke-width="0"/>
<path d="M48.132 15.8535L48.132 41.8495C48.132 44.3285 47.261 45.6685 44.983 46.6735C43.509 47.3435 41.298 47.6785 41.298 48.6835C41.298 49.3535 42.772 49.7555 43.509 49.8225C43.978 49.8225 47.931 49.4205 51.08 49.4205C54.296 49.4205 58.718 49.8225 59.187 49.8225C59.924 49.7555 61.331 49.3535 61.331 48.6835C61.331 47.6785 59.12 47.3435 57.646 46.6735C55.368 45.6685 54.497 44.3285 54.497 41.8495L54.497 15.8535C54.497 15.1835 54.631 13.7765 55.301 13.7765L65.686 13.7765C66.624 13.7765 67.5009 14.6211 68.098 15.6525C68.835 16.9255 69.84 18.6675 70.51 18.6675C71.314 18.6675 71.448 18.1315 71.448 17.1265C71.448 16.3895 71.314 14.1115 71.314 12.5035C71.314 11.0295 71.582 10.2255 71.582 9.62245C71.582 9.08645 71.18 8.41645 70.376 8.41645C69.572 8.41645 69.237 8.95245 68.433 9.42145C67.227 10.0915 66.155 10.5605 63.743 10.5605L40.36 10.5605C36.675 10.5605 35 8.55045 33.995 8.55045C33.325 8.55045 32.856 9.35445 32.856 10.2255C32.856 10.8955 32.99 12.1685 32.99 13.2405C32.99 15.3845 32.655 15.9205 32.655 17.4615C32.655 18.0645 32.99 19.0025 33.861 19.0025C34.799 19.0025 35.2729 17.1041 36.005 15.7865C36.675 14.5805 37.144 13.7765 38.886 13.7765L47.06 13.7765C47.73 13.7765 48.132 14.5135 48.132 15.8535Z" fill="#000000" fill-rule="evenodd" opacity="1" stroke="#2e537c" stroke-linecap="butt" stroke-linejoin="miter" stroke-width="0"/>
<path d="M81.833 47.3435C82.034 47.8125 82.168 48.4155 82.168 49.0185C82.168 50.4925 80.962 53.4405 79.421 56.7235C78.684 58.2645 77.21 59.6045 74.664 59.6045C72.654 59.6045 70.644 61.3465 70.644 63.3565C70.644 65.2325 71.917 67.1755 74.061 67.1755C77.143 67.1755 79.4054 63.7789 80.024 62.1505L92.955 28.0475C93.8115 25.7927 95.099 24.4965 95.836 24.2285C96.841 23.8935 98.114 23.3575 98.114 22.6875C98.114 22.0175 97.578 21.3475 96.506 21.3475C95.501 21.3475 94.295 21.7495 93.29 21.7495C92.285 21.7495 90.61 21.3475 89.605 21.3475C88.533 21.3475 87.93 22.0175 87.93 22.6875C87.93 23.3575 88.801 24.0275 89.806 24.2285C90.208 24.2955 90.945 24.7645 90.945 25.4345C90.945 25.9035 90.811 26.8415 90.275 28.1815L85.853 39.8395C85.4723 40.8416 85.2095 40.8835 84.714 39.6385L79.287 25.9705C79.019 25.3005 79.287 24.4295 79.622 24.3625C81.096 23.8935 81.9 23.3575 81.9 22.6875C81.9 22.0175 81.297 21.3475 80.225 21.3475C79.22 21.3475 76.406 21.7495 75.401 21.7495C74.396 21.7495 72.118 21.3475 71.113 21.3475C70.041 21.3475 69.505 22.0175 69.505 22.6875C69.505 23.3575 70.711 23.8935 71.716 24.2285C72.721 24.5635 73.659 26.7075 74.329 28.4495L81.833 47.3435Z" fill="#000000" fill-rule="evenodd" opacity="1" stroke="#2e537c" stroke-linecap="butt" stroke-linejoin="miter" stroke-width="0"/>
<path d="M107.293 29.1195C107.293 26.7075 109.303 24.3625 112.318 24.3625C118.147 24.3625 119.688 29.9905 119.688 35.5515C119.688 41.0455 117.343 46.6735 112.117 46.6735C109.638 46.6735 107.293 45.6015 107.293 43.1225L107.293 29.1195ZM101.732 60.4755C101.732 62.1505 101.397 63.7585 100.526 64.0265C98.717 64.5625 97.578 65.0985 97.578 65.7685C97.578 66.4385 98.181 67.1085 99.923 67.1085C106.154 67.1085 110.174 67.9795 112.452 67.9795C114.194 67.9795 114.73 67.3095 114.73 66.6395C114.73 65.9695 113.658 65.4335 111.849 64.8975C108.231 63.8925 107.293 63.3565 107.293 61.0115L107.293 50.2245C107.293 49.6215 107.36 49.2865 107.963 49.2865C108.231 49.2865 109.236 50.0905 110.576 50.0905C119.487 50.0905 125.852 41.5815 125.852 32.4695C125.852 26.8415 121.363 20.8785 115.802 20.8785C112.787 20.8785 109.303 22.4865 108.231 23.5585C107.695 24.0945 107.36 23.7595 107.293 23.4245L107.293 22.2185C107.293 20.9455 107.293 20.3425 106.489 20.3425C105.819 20.3425 100.258 22.5535 99.521 22.9555C98.65 23.3575 97.578 23.8935 97.578 24.6305C97.578 25.3675 98.248 25.7695 98.985 26.0375C100.593 26.6405 101.732 28.3155 101.732 29.4545L101.732 60.4755Z" fill="#000000" fill-rule="evenodd" opacity="1" stroke="#2e537c" stroke-linecap="butt" stroke-linejoin="miter" stroke-width="0"/>
<path d="M135.701 28.5835C135.701 27.2435 138.448 23.9605 142.468 23.9605C144.411 23.9605 146.421 25.3005 146.421 27.2435C146.421 28.1815 146.086 29.3205 145.416 29.3205L136.572 29.3205C135.768 29.3205 135.701 29.0284 135.701 28.5835ZM152.25 27.8465C152.25 24.4295 147.962 20.8785 143.406 20.8785C135.232 20.8785 128.934 27.1765 128.934 35.4175C128.934 42.9885 133.088 50.2245 140.525 50.2245C147.091 50.2245 150.977 47.0085 150.977 45.0655C150.977 44.3955 150.642 44.1275 149.972 44.1275C149.302 44.1275 146.354 45.6685 143.004 45.6685C137.711 45.6685 134.562 40.1745 134.562 35.0825C134.562 33.9435 134.562 33.8095 134.83 33.0725C135.031 32.5365 135.165 32.4025 136.103 32.4025L150.24 32.4025C151.982 32.4025 152.25 29.6555 152.25 27.8465Z" fill="#000000" fill-rule="evenodd" opacity="1" stroke="#2e537c" stroke-linecap="butt" stroke-linejoin="miter" stroke-width="0"/>
<path d="M161.295 34.0775C161.295 29.3875 162.97 23.7595 167.66 23.7595C171.814 23.7595 175.164 27.3105 175.164 31.5315L175.164 41.7825C175.164 44.4625 172.551 45.9365 169.938 45.9365C164.176 45.9365 161.295 40.1075 161.295 34.0775ZM179.921 4.06145C179.251 4.06145 175.499 5.20045 172.819 5.66945C171.881 5.80345 170.876 6.33945 170.876 7.07645C170.876 7.81345 171.68 8.34945 172.417 8.61745C174.025 9.22045 175.164 10.5605 175.164 11.6995L175.164 21.5485C175.03 22.8215 174.896 23.1565 174.293 22.6205C173.355 21.6825 171.211 20.8785 169.067 20.8785C160.625 20.8785 155.131 29.1195 155.131 37.4945C155.131 44.3285 160.558 50.2245 167.392 50.2245C170.072 50.2245 172.685 49.1525 174.226 46.9415C174.695 46.2715 174.896 46.3385 175.03 47.0085C175.231 48.0135 175.432 48.8845 175.633 49.5545C175.7 49.8895 176.035 50.4925 176.571 50.4925C177.576 50.4925 184.209 48.8845 185.415 48.2815C185.951 48.0135 186.286 47.4775 186.286 46.6065C186.286 46.1375 185.75 45.5345 185.415 45.5345C184.879 45.5345 182.668 45.9365 181.797 45.9365C181.127 45.9365 180.725 45.6015 180.725 44.0605L180.725 5.87045C180.725 4.59745 180.725 4.06145 179.921 4.06145Z" fill="#000000" fill-rule="evenodd" opacity="1" stroke="#2e537c" stroke-linecap="butt" stroke-linejoin="miter" stroke-width="0"/>
<path d="M194.058 22.5535C191.579 22.5535 189.435 24.4295 189.435 26.9085C189.435 28.9855 191.11 30.6605 193.187 30.6605C195.532 30.6605 197.676 29.0525 197.676 26.7075C197.676 24.5635 196.202 22.5535 194.058 22.5535ZM194.058 41.9165C191.579 41.9165 189.435 43.7925 189.435 46.2715C189.435 48.3485 191.11 50.0235 193.187 50.0235C195.532 50.0235 197.676 48.4155 197.676 46.0705C197.676 43.9265 196.202 41.9165 194.058 41.9165Z" fill="#000000" fill-rule="evenodd" opacity="1" stroke="#2e537c" stroke-linecap="butt" stroke-linejoin="miter" stroke-width="0"/>
<path d="M226.702 31.4645L231.392 18.1315C231.66 17.4615 231.928 17.2605 232.129 17.9305L236.216 30.4595C236.886 32.6035 236.819 32.8715 235.479 32.8715L227.305 32.8715C226.099 32.8715 226.3 32.5365 226.702 31.4645ZM245.797 49.4205C248.008 49.4205 250.42 49.8225 251.961 49.8225C253.234 49.8225 253.904 49.4875 253.904 48.7505C253.904 48.0805 253.301 47.4105 251.224 46.6735C247.941 45.4675 247.204 43.6585 245.261 38.2315L236.417 13.2405C235.479 10.6275 235.077 8.41645 233.938 8.41645C233.536 8.41645 232.33 10.2925 231.057 10.4265C230.32 10.4935 230.32 11.3645 229.181 14.2455L218.93 42.5865C217.925 45.3335 217.992 45.6685 215.781 46.6735C214.307 47.3435 212.096 47.6785 212.096 48.6835C212.096 49.4205 213.034 49.8225 214.307 49.8225C215.312 49.8225 216.853 49.4205 218.528 49.4205C219.801 49.4205 222.749 49.8225 224.022 49.8225C225.697 49.8225 226.367 49.4205 226.367 48.6835C226.367 48.0135 225.63 47.2765 223.888 46.8075C221.945 46.2715 222.012 45.1995 222.414 43.9935L224.96 36.6905C225.228 36.0205 225.697 35.9535 226.032 35.9535L237.221 35.9535C237.757 35.9535 238.092 36.1545 238.293 36.7575L240.236 43.1225C240.571 44.2615 240.705 45.5345 238.293 46.6735C236.819 47.3435 234.675 47.6785 234.675 48.6835C234.675 49.4205 235.948 49.8225 236.819 49.8225C238.829 49.8225 241.375 49.4205 245.797 49.4205Z" fill="#316d8e" fill-rule="evenodd" opacity="1" stroke="#316d8e" stroke-linecap="butt" stroke-linejoin="miter" stroke-width="0"/>
<path d="M272.999 10.0915C270.721 10.0915 267.974 10.4265 265.629 10.4265C263.217 10.4265 260.805 10.0915 258.192 10.0915C257.187 10.0915 255.847 10.4935 255.847 11.2975C255.847 11.9005 256.316 12.2355 256.919 12.4365C260.738 13.5085 262.413 13.5755 262.413 17.3945L262.413 41.8495C262.413 44.3285 261.542 45.6685 259.264 46.6735C257.79 47.3435 255.579 47.6785 255.579 48.6835C255.579 49.3535 257.053 49.7555 257.79 49.8225C258.259 49.8225 262.212 49.4205 265.361 49.4205C268.577 49.4205 272.999 49.8225 273.468 49.8225C274.205 49.7555 275.612 49.3535 275.612 48.6835C275.612 47.6785 273.401 47.3435 271.927 46.6735C269.649 45.6685 268.778 44.3285 268.778 41.8495L268.778 17.3945C268.778 13.5755 270.52 13.5085 274.339 12.4365C274.942 12.2355 275.344 11.9005 275.344 11.2975C275.344 10.4935 274.004 10.0915 272.999 10.0915Z" fill="#316d8e" fill-rule="evenodd" opacity="1" stroke="#2e537c" stroke-linecap="butt" stroke-linejoin="miter" stroke-width="0"/>
</g>
</svg>
