<?xml version="1.0" encoding="UTF-8" standalone="no"?>
<!-- Created with Inkscape (http://www.inkscape.org/) -->

<svg
   xmlns:dc="http://purl.org/dc/elements/1.1/"
   xmlns:cc="http://creativecommons.org/ns#"
   xmlns:rdf="http://www.w3.org/1999/02/22-rdf-syntax-ns#"
   xmlns:svg="http://www.w3.org/2000/svg"
   xmlns="http://www.w3.org/2000/svg"
   xmlns:sodipodi="http://sodipodi.sourceforge.net/DTD/sodipodi-0.dtd"
   xmlns:inkscape="http://www.inkscape.org/namespaces/inkscape"
   version="1.1"
   width="421.91"
   height="433.32999"
   id="svg3058"
   xml:space="preserve"
   inkscape:version="0.48.4 r9939"
   sodipodi:docname="gryphus.svg"><sodipodi:namedview
     pagecolor="#ffffff"
     bordercolor="#666666"
     borderopacity="1"
     objecttolerance="10"
     gridtolerance="10"
     guidetolerance="10"
     inkscape:pageopacity="0"
     inkscape:pageshadow="2"
     inkscape:window-width="1920"
     inkscape:window-height="1010"
     id="namedview8"
     showgrid="false"
     inkscape:zoom="2.320416"
     inkscape:cx="283.67255"
     inkscape:cy="274.8173"
     inkscape:window-x="0"
     inkscape:window-y="30"
     inkscape:window-maximized="1"
     inkscape:current-layer="svg3058" /><metadata
     id="metadata3064"><rdf:RDF><cc:Work
         rdf:about=""><dc:format>image/svg+xml</dc:format><dc:type
           rdf:resource="http://purl.org/dc/dcmitype/StillImage" /><dc:title /></cc:Work></rdf:RDF></metadata><defs
     id="defs3062" /><path
     inkscape:connector-curvature="0"
     style="fill:#006699;fill-opacity:1;fill-rule:evenodd;stroke:none"
     id="path3068"
     d="m 336.73914,96.483735 c 1.68625,0.945375 4.80225,2.09825 6.17875,2.544375 3.54088,1.14625 6.85063,1.006 10.17675,4.3615 -2.83187,1.17987 -5.09987,1.75075 -8.72325,1.45387 -4.31537,-1.53712 -7.63437,-5.03512 -7.63225,-8.359745" /><path
     inkscape:connector-curvature="0"
     style="fill:#768295;fill-opacity:1;fill-rule:evenodd;stroke:none"
     id="path3070"
     d="m 329.33677,419.46886 c 1.21637,2.63975 1.21812,7.5965 -3.50262,8.86113 -0.26601,-2.10963 -1.61388,-5.00663 -3.63426,-5.81563 -2.32449,-0.9315 -4.99287,0.42125 -7.63162,0.3635 -3.28,-0.073 -7.9055,-2.13975 -10.90387,-3.63463 -1.0055,-0.49962 -1.828,-1.39187 -2.90763,-1.81887 -3.4395,-1.351 -8.18575,-1.525 -12.35937,-1.8155 -6.06088,-0.42313 -12.39588,0.789 -18.17363,0.72675 -1.07963,-0.0125 -2.43388,-0.0879 -3.63438,-0.36362 -1.02687,-0.23638 -1.93887,-0.97651 -2.90762,-1.09063 -3.256,-0.38163 -6.783,0.10875 -9.45,2.543 -1.31062,-6.267 3.48912,-10.5225 9.81312,-10.53875 0.21163,-0.7845 0.13288,-2.12388 2.18063,-2.908 4.636,-1.5435 9.34725,-3.01263 12.7215,-5.81563 1.05412,-2.65475 1.69475,-5.19275 1.45387,-9.45 -0.51175,-9.02662 -3.14537,-20.21637 -4.725,-29.07925 -0.8015,-4.50325 -1.49949,-10.74725 -1.81737,-15.26387 -0.93575,0.95388 -1.58562,1.32375 -2.941,1.7975 -0.48187,-9.27925 2.239,-21.172 4.03263,-31.967 -9.32663,0.63637 -19.46863,0.16162 -25.44376,-1.45375 -3.223,8.48125 -9.44712,16.263 -18.95387,21.57162 -4.87412,6.9165 -18.82763,12.44013 -20.23438,17.51775 -1.45412,1.316 9.181,25.5745 13.38201,36.51375 4.75724,3.0965 12.68399,6.38363 17.44649,9.0865 3.40875,1.93288 4.99788,9.33663 1.45426,13.44825 -1.15375,0.5495 -5.28351,0.90138 -7.84676,0.0832 -3.40012,0.9935 -8.1875,1.16713 -12.77324,0.72 -10.42901,-1.27387 -19.40238,-0.49112 -23.35988,-1.53 -1.88725,-4.95462 -1.91837,-11.26387 -0.69275,-15.31412 1.01125,-1.81 1.88438,-2.311 3.73388,-3.54088 -1.27626,-14.85212 -18.92338,-36.174 -15.795,-47.57275 13.69137,-17.464 13.781,-23.37062 14.208,-43.34 -2.95613,-1.04175 -7.06426,-3.48025 -8.8675,-4.79087 -2.09938,7.76087 -4.98188,16.066 -13.26225,22.37487 -6.64788,11.67625 -16.46251,20.40525 -25.34488,27.48613 -3.63825,5.82988 -6.18563,44.00437 -4.50538,51.15937 1.76001,1.63663 4.41426,3.73288 6.294,5.01413 2.81913,2.80375 2.69113,7.46888 2.04138,10.93287 -1.74687,0.58 -6.5655,2.525 -12.51638,-0.309 -1.83974,1.85525 -11.75249,2.02538 -16.54974,-0.34299 -5.48901,1.71749 -11.63126,0.11625 -13.79488,-0.66788 0.13075,-3.74887 -0.44113,-7.95762 1.1275,-11.08275 2.351,-1.41062 6.3915,-3.97562 8.3495,-4.84413 1.68025,-10.1515 3.871,-31.46487 4.33487,-45.49775 0.163,-3.61099 -1.54737,-6.52462 0,-10.541 2.982,-7.73612 6.419,-15.81375 7.9965,-23.98887 2.15825,-11.181 3.55538,-21.75775 4.36113,-34.1675 -12.69175,15.08637 -30.30313,37.86525 -53.065625,34.1675 -5.604125,-0.91138 -10.907375,-4.27325 -13.032,-7.63263 -7.176875,-11.34862 -0.16575,-22.21487 7.176,-27.8575 -5.47475,-10.6055 4.51625,-18.76575 7.626875,-24.73762 0.69175,0.5655 1.14875,1.46725 1.13675,2.43637 7.25425,-11.77125 26.1035,-14.21537 22.1715,-26.533 14.76787,2.4605 8.246,30.48663 1.817,35.98338 2.09062,-0.18538 3.6365,-0.86925 5.08925,-2.18088 1.53075,9.40425 -10.947,20.22838 -19.26425,22.535 -3.446125,0.956 -7.993625,1.00738 -11.630875,-1.45412 -3.6655,1.5845 -8.52725,10.9055 -7.2695,14.53887 1.57725,4.557 10.102,5.27175 15.26575,3.99788 7.026625,-1.73225 12.810375,-5.7575 17.809625,-10.54025 17.12312,-16.054 21.29287,-28.17525 25.07925,-37.4375 5.36025,-13.11163 12.98187,-24.52 26.8965,-31.6215 10.55087,-5.387 24.3825,-9.84863 36.71037,-10.17675 -1.63837,-2.519 -7.23787,-7.15288 -4.36137,-13.08513 -9.4965,-2.72512 -16.96038,-6.89387 -18.83725,-10.29262 -1.09525,-1.98275 -0.27213,-4.64838 0.66362,-6.4265 -5.57012,-1.78513 -12.49725,-4.72425 -15.68162,-8.27288 -2.55013,-2.85662 -3.87175,-6.95412 -1.03788,-10.62775 -6.114,-2.75112 -14.51975,-7.3485 -15.99262,-11.63062 -1.186,-2.88213 -0.748,-6.88638 1.45375,-8.35975 -4.72713,-2.93988 -29.15013,-11.87038 -25.44238,-19.26425 0.90425,-1.39075 2.43963,-1.67913 4.3615,-1.817 -3.72187,-2.59538 -15.68412,-7.26475 -21.08125,-10.90413 -9.603495,-6.47537 -8.932745,-12.25662 0.72738,-13.44825 -8.28425,-3.927745 -29.46325,-8.42387 -31.258625,-18.173245 -1.325625,-7.21275 8.07725,-6.622875 11.63125,-6.906625 -12.971,-5.805375 -29.6975,-10.978625 -33.43925,-18.17325 -1.680625,-4.927375 2.725125,-6.885375 7.269375,-7.633 -9.052375,-5.160875 -32.732625,-9.20025 -34.892625,-15.992 -0.848,-6.013375 12.089375,-6.504875 15.265875,-5.4525 C 33.31402,22.449485 1.85127,22.429235 5.256645,16.616485 23.75102,1.674735 62.48327,5.23536 84.12852,7.43361 c 22.81575,2.317375 45.5195,6.73975 67.24137,14.175 21.20675,7.249 47.96925,21.79275 65.65463,39.6185 -0.34688,-3.772875 -1.08425,-6.337875 -2.41113,-9.813625 5.37438,-1.137375 17.81675,16.277625 19.62738,20.35425 0.84262,-2.8765 0.3345,-5.486125 -0.0744,-8.664875 8.50388,1.856375 13.19775,17.720875 12.43238,30.47325 1.60725,-0.692375 3.25275,-3.770125 3.36362,-5.62825 2.72838,3.848375 1.27813,11.668875 -0.0925,14.71462 -10.39525,18.93938 -16.41362,30.71238 -15.62912,53.06675 0.63775,18.02475 11.08312,39.72325 30.16775,43.9795 6.21525,-3.88137 11.79525,-8.325 16.72087,-12.35762 -5.378,-4.26125 -10.89325,-12.91613 -6.54412,-21.08125 -3.949,-3.274 -9.07625,-14.495 -1.0885,-17.81013 -9.80513,-4.535 -14.518,-21.57375 -4.36188,-24.419 -3.57912,-4.44512 -6.149,-8.87425 -6.84812,-14.568 -0.38763,-3.15425 1.24187,-4.95212 4.30262,-5.8535 -6.96937,-4.502495 -17.51,-21.38737 -6.542,-26.76262 -3.56312,-5.099125 -7.78325,-9.98075 -11.63125,-14.902375 -2.30062,-2.943875 -7.46262,-10.677125 -1.45387,-13.0855 -2.13688,-3.608125 -21.87663,-17.6535 -11.63125,-23.26175 -3.89188,-6.71075 -15.08525,-9.99575 -17.08263,-13.811875 -5.35425,-10.2285 22.55925,-6.02675 26.1695,-5.451375 27.33088,4.344125 56.11963,19.499875 74.874,40.34475 8.32738,9.2435 16.08725,20.730875 21.29063,30.7765 -23.60025,-1.655125 -48.10613,-10.761375 -51.5505,-11.63725 0.33375,10.772 10.21812,18.716125 15.72125,25.931 -8.1765,19.377245 -6.76625,45.289745 -8.35825,69.422625 2.83562,-14.59563 3.00787,-27.66163 4.7235,-42.16263 1.14662,-9.67287 3.61037,-19.077495 6.90637,-27.623245 -3.89275,-3.843375 -15.60087,-16.8105 -15.99312,-22.535375 13.741,3.803375 29.6125,9.782625 48.34137,9.8135 10.06863,0.017 22.36425,-0.11625 28.71563,-5.452375 0.37237,2.530625 0.11262,5.807125 -0.7285,9.0875 5.64875,3.692125 18.26575,12.56525 19.26387,19.990625 8.42775,0.56012 17.28713,3.7785 22.53513,8.72325 3.20912,3.98125 3.56312,9.83725 2.90725,16.71937 -1.44288,-1.11187 -6.08775,-4.12475 -8.35938,-4.725 -8.0465,-0.778 -12.37787,2.15938 -18.90075,2.90775 -1.5515,6.79713 -5.59875,12.02625 -4.36137,18.90063 3.89262,21.50225 18.8585,40.08725 20.7195,61.78887 -2.379,-3.5695 -5.26038,-8.00112 -7.633,-10.90375 4.97125,8.5645 8.81075,28.06438 8.7215,41.79863 -0.0425,6.941 -1.271,12.9065 -3.63438,19.2625 -0.96737,-2.10475 -1.92512,-3.63088 -2.908,-5.08713 0.39713,11.1235 1.10863,18.1165 -2.90762,27.98675 -0.87238,2.14438 -3.50113,6.74075 -5.45213,8.35975 -0.0425,-3.533 -1.21925,-9.4195 -2.1805,-11.632 -1.35537,8.36863 -4.27862,16.283 -9.45037,22.173 -1.96125,2.23513 -5.1385,3.51313 -5.45175,6.54063 -1.27813,5.963 -1.85675,11.35337 -3.63513,17.08437 -2.334,7.55925 -5.31312,16.64288 -3.93725,24.43175 0.3415,1.9365 0.91738,4.38913 1.3935,6.09988 -2.3935,-0.6545 -3.81287,-1.692 -5.45237,-3.27125 0.288,12.18375 4.37987,26.87112 7.26937,37.43537 0.444,1.03963 1.9135,1.89075 3.63625,2.9095 8.0985,3.55638 37.04238,6.64513 36.709,11.26763 4.25188,1.32062 6.52988,2.514 8.35938,5.81575 0.80287,1.44562 1.71425,3.0015 1.09062,4.72462 -3.61275,-1.99525 -5.68525,-3.52387 -9.8125,-3.998 1.98,1.2565 2.77763,2.9605 2.543,4.36188 -2.18437,-0.80963 -7.13937,-1.04563 -9.18037,-0.61413 -0.27638,0.61025 -1.1785,1.3285 -2.087,1.33938 -4.08925,0.53762 -6.93488,-0.4935 -10.17738,-1.08913 -3.40125,-0.62575 -5.02087,-1.75187 -7.99587,-2.54375 -7.90613,-2.11037 -24.65925,-0.98725 -32.3475,1.09025 -1.83375,-1.07225 -1.8535,-3.47737 -3.27263,-5.09 -2.21987,-2.52175 -6.176,-3.38662 -9.45037,-2.54337 1.38537,0.0602 5.13675,0.24562 6.90737,1.45425 3.89363,2.65675 3.23363,6.7 6.90438,7.9965 1.451,3.01637 3.18512,7.12062 1.81775,10.90375 -1.9725,-1.72338 -4.01175,-4.14563 -6.90625,-4.36138 -0.1045,0.85713 -7.93313,3.26125 -13.17963,1.31738 1.862,-2.25888 -0.8805,-10.34825 -3.53975,-10.40425 2.06213,0.78387 5.39175,9.67825 2.41188,10.03925 z M 312.82639,312.12623 c -4.43125,13.35751 -14.72925,21.91463 -13.85499,37.86938 -1.65226,-0.68 -2.38151,-1.39713 -2.94101,-1.95875 0.74413,12.21588 0.12301,33.71713 6.9055,44.673 1.53425,2.476 3.16388,3.86962 5.81563,5.45213 5.10812,0.30712 9.44687,2.17162 14.175,2.90787 2.13987,0.33062 6.38187,0.98513 8.15925,1.09463 0.44187,-2.79713 5.41337,-4.87313 8.92562,-4.72925 1.345,-0.8965 3.87388,-2.28826 5.08713,-4.36288 -1.6115,-11.64262 -6.48188,-32.911 -8.36013,-44.342 -1.46087,0.75075 -3.26275,0.901 -5.0885,0.36212 2.44125,-6.6335 2.97425,-12.76262 1.45413,-19.98924 -1.33125,-6.33225 -3.21663,-12.95788 -4.72538,-18.90075 -0.0209,-0.2225 -0.0531,-0.43113 -0.36175,-0.36463 -4.15137,1.0815 -10.2225,2.23275 -15.1905,2.28838 z m -208.34362,-64.0765 c -3.27825,2.11963 -8.601375,5.49388 -10.903875,8.35938 -2.36975,2.94913 -5.457375,6.91088 -3.634375,10.90275 6.971875,-11.44175 26.90187,-14.608 24.94213,-31.634 -0.0784,2.64375 -4.57625,8.60287 -10.40388,12.37187 z m 70.876,51.97575 c 1.57225,-1.97299 5.3115,-7.7355 5.45213,-10.17674 -5.29863,-6.95238 -6.89888,-21.0345 -0.72675,-30.1695 0.7345,20.1405 8.22724,26.90212 21.31087,33.0555 18.03613,8.482 53.02663,15.59225 70.6475,4.74662 -4.91138,-0.6665 -13.95913,-7.5955 -16.05438,-11.9565 9.6555,-1.46875 23.332,-7.0895 30.22838,-13.84975 4.5025,-4.41 10.81525,-16.46575 9.81387,-22.5365 -6.3205,4.31188 -20.28475,9.44325 -29.07775,9.08637 7.066,-7.49799 10.66601,-14.46375 14.17675,-23.26037 -2.46187,1.8705 -4.63862,3.48775 -9.45175,2.90763 3.40788,-3.09363 5.42725,-5.31063 7.63301,-9.45001 -3.69888,2.22238 -9.02801,4.00963 -14.90213,3.27125 5.2845,-3.72649 10.8315,-11.45874 13.81288,-17.44649 -3.59188,1.98987 -7.38113,3.96349 -11.63201,5.452 -18.15375,6.3645 -37.03712,3.46925 -55.61037,4.36187 -8.30062,0.40075 -16.34887,1.18125 -24.3525,3.63475 -10.39288,3.185 -20.8885,6.925 -28.35038,15.26563 -4.92474,5.4985 -7.6485,12.78525 -8.72325,19.98912 -2.32337,15.60188 0.30613,31.12125 -4.36175,46.52538 -0.54825,2.36837 0.872,2.71525 2.18088,3.26987 5.816,1.71 12.88987,-0.81887 18.776,-4.62125 3.77288,-2.43712 7.05787,-5.39787 9.21075,-8.09887 z m 134.84662,-72.6935 c 6.008,-5.37512 13.09963,-13.18037 18.17325,-17.44649 6.17063,7.44874 12.69038,22.428 15.99275,36.34512 9.29438,-8.99925 12.44338,-16.53062 17.76538,-24.63625 4.13612,4.16862 8.64888,14.04275 10.585,22.82025 6.12775,-12.97238 10.8375,-29.99938 7.633,-46.52325 -0.0241,3.08412 -4.01037,22.75512 -7.633,26.89625 -2.8145,-8.70525 -6.87975,-19.40113 -13.448,-26.1695 -0.34475,5.21675 -7.48975,23.82062 -11.62975,27.25975 -1.46837,-10.86375 -11.50375,-30.33425 -20.35562,-37.8 -0.15663,2.97137 -4.56588,18.59275 -9.45001,21.80762 0.15663,-7.87575 -1.53774,-27.0875 -6.17924,-33.07537 0.32112,16.83175 0.0227,36.46025 -1.45376,50.52187 z m 63.60663,-64.69725 c -0.28062,-0.0263 -1.21787,-9.64737 -1.4535,-13.81137 -0.50275,-8.86713 2.6865,-14.97163 5.0885,-21.4445 -3.25662,0.326 -15.61638,-2.717 -17.81,-6.90625 9.94175,-0.9245 11.81413,-13.22013 21.08125,-17.08263 -3.91787,-11.77837 -26.482,-15.84362 -37.43575,-15.629495 -7.66275,0.148 -15.37862,1.603625 -23.26325,0 -1.61462,5.9105 -4.889,10.812 -5.451,17.446495 -0.0904,1.0615 -0.106,2.15075 0,3.27113 0.88188,9.52025 4.53725,20.27875 2.1795,30.53162 2.77338,-1.7355 7.9455,-11.4845 8.3615,-14.902 4.87625,4.94288 4.96163,22.05638 5.08675,27.62325 3.27475,-1.349 7.15113,-7.84425 8.36113,-10.54062 8.15675,10.25675 7.71062,26.63325 9.8125,38.891 1.48887,-4.65313 4.49037,-23.55138 4.3615,-28.35038 6.59375,8.8395 9.98925,18.00213 12.35762,27.98713 2.27938,-10.9435 0.23875,-21.43838 -2.54375,-31.98538 3.92138,1.27088 9.40138,11.01888 11.267,14.902 z M 129.55589,36.28111 c 0.0546,14.714 8.4635,20.389625 19.91763,23.980125 -0.906,11.66875 8.94975,17.904625 17.3115,22.411 -3.6045,15.964 11.76662,21.551875 19.02162,25.333255 -3.6875,13.92162 6.222,38.89662 14.99525,47.36012 -3.38175,-8.51588 -9.16837,-18.096 -9.8135,-29.44087 -0.482,-8.46851 -0.13962,-16.01088 2.544,-23.26225 -9.65762,-3.224005 -22.16262,-11.670255 -17.81,-26.53263 -11.23587,-0.839375 -21.19462,-9.36675 -18.53687,-22.898625 -12.12088,0.1875 -22.42663,-8.3735 -20.3535,-21.081625 -11.66275,-1.145875 -19.947,-5.10625 -25.8065,-12.7215 -1.18138,6.3305 7.80225,15.34825 18.53037,16.853 z m 74.15363,26.76375 c -9.85788,-8.880625 -19.40675,-16.976 -31.25838,-23.262625 -10.30675,-5.46875 -41.87512,-22.331625 -53.23812,-19.64825 21.90862,3.03725 57.026,25.078375 74.68262,40.729875 7.49263,6.642375 26.34275,26.955 30.27825,35.327875 -1.81025,7.608505 -5.93225,22.441125 -4.1085,33.004125 1.72063,-11.82787 3.96813,-24.16925 9.81363,-32.348625 C 225.47752,83.70336 213.69877,72.03561 203.70952,63.04486" /></svg>