<?xml version="1.0" encoding="UTF-8" standalone="no"?>
<!-- Created with Inkscape (http://www.inkscape.org/) -->

<svg
   xmlns:dc="http://purl.org/dc/elements/1.1/"
   xmlns:cc="http://creativecommons.org/ns#"
   xmlns:rdf="http://www.w3.org/1999/02/22-rdf-syntax-ns#"
   xmlns:svg="http://www.w3.org/2000/svg"
   xmlns="http://www.w3.org/2000/svg"
   xmlns:sodipodi="http://sodipodi.sourceforge.net/DTD/sodipodi-0.dtd"
   xmlns:inkscape="http://www.inkscape.org/namespaces/inkscape"
   sodipodi:docname="New document 1"
   inkscape:version="0.48.4 r9939"
   version="1.1"
   id="svg2"
   height="255.02"
   width="306.51999">
  <sodipodi:namedview
     id="base"
     pagecolor="#ffffff"
     bordercolor="#666666"
     borderopacity="1.0"
     inkscape:pageopacity="0.0"
     inkscape:pageshadow="2"
     inkscape:zoom="1.979899"
     inkscape:cx="233.21312"
     inkscape:cy="103.55357"
     inkscape:document-units="px"
     inkscape:current-layer="svg2"
     showgrid="false"
     inkscape:window-width="1855"
     inkscape:window-height="1056"
     inkscape:window-x="65"
     inkscape:window-y="24"
     inkscape:window-maximized="1" />
  <defs
     id="defs4" />
  <metadata
     id="metadata7">
    <rdf:RDF>
      <cc:Work
         rdf:about="">
        <dc:format>image/svg+xml</dc:format>
        <dc:type
           rdf:resource="http://purl.org/dc/dcmitype/StillImage" />
        <dc:title></dc:title>
      </cc:Work>
    </rdf:RDF>
  </metadata>
  <path
     style="fill:none;stroke:#000000;stroke-width:1px;stroke-linecap:butt;stroke-linejoin:miter;stroke-opacity:1"
     d="M 91.368032,160.60571 C 180.76653,115.14884 217.13203,141.41281 217.13203,141.41281"
     id="path3987-3-6"
     inkscape:connector-curvature="0"
     sodipodi:nodetypes="cc" />
  <path
     style="fill:none;stroke:#000000;stroke-width:1px;stroke-linecap:butt;stroke-linejoin:miter;stroke-opacity:1"
     d="M 48.184011,121.62454 C 116.87438,96.370725 215.86934,142.33267 215.86934,142.33267"
     id="path3987-3-3-3"
     inkscape:connector-curvature="0"
     sodipodi:nodetypes="cc" />
  <path
     style="fill:none;stroke:#000000;stroke-width:1px;stroke-linecap:butt;stroke-linejoin:miter;stroke-opacity:1"
     d="m 67.88199,225.01873 c 51.47648,-2.0061 60.203,9.5205 153.03811,4.5456"
     id="path3987-3-0-3-7-5"
     inkscape:connector-curvature="0"
     sodipodi:nodetypes="cc" />
  <path
     style="fill:none;stroke:#000000;stroke-width:1px;stroke-linecap:butt;stroke-linejoin:miter;stroke-opacity:1"
     d="M 67.881996,225.01351 C 102.72175,217.64731 154.61625,193.08872 239.10285,179.5566"
     id="path3987-3-0-3-7-5-1"
     inkscape:connector-curvature="0"
     sodipodi:nodetypes="cc" />
  <path
     style="fill:none;stroke:#000000;stroke-width:1px;stroke-linecap:butt;stroke-linejoin:miter;stroke-opacity:1"
     d="M 49.951782,122.72499 C 118.64215,97.471175 240.36555,179.29353 240.36555,179.29353"
     id="path3987-3-3"
     inkscape:connector-curvature="0"
     sodipodi:nodetypes="cc" />
  <path
     style="fill:none;stroke:#000000;stroke-width:1px;stroke-linecap:butt;stroke-linejoin:miter;stroke-opacity:1"
     d="M 86.569817,153.38344 C 175.96831,107.92657 252.73992,116.51287 252.73992,116.51287"
     id="path3987-3"
     inkscape:connector-curvature="0"
     sodipodi:nodetypes="cc" />
  <path
     style="fill:none;stroke:#000000;stroke-width:1px;stroke-linecap:butt;stroke-linejoin:miter;stroke-opacity:1"
     d="M 46.921323,119.81858 C 132.0596,107.17566 161.67649,86.469915 212.08128,83.453085"
     id="path3987-3-3-3-7"
     inkscape:connector-curvature="0"
     sodipodi:nodetypes="cc" />
  <path
     style="fill:none;stroke:#000000;stroke-width:1px;stroke-linecap:butt;stroke-linejoin:miter;stroke-opacity:1"
     d="M 83.791899,69.707775 C 179.8104,28.664245 263.09397,67.182395 263.09397,67.182395"
     id="path3987"
     inkscape:connector-curvature="0"
     sodipodi:nodetypes="cc" />
  <path
     style="fill:none;stroke:#000000;stroke-width:1px;stroke-linecap:butt;stroke-linejoin:miter;stroke-opacity:1"
     d="m 41.870563,187.31888 c 105.183077,18.30833 79.513317,39.80343 179.302087,41.92133"
     id="path3987-3-0-3-7"
     inkscape:connector-curvature="0"
     sodipodi:nodetypes="cc" />
  <g
     inkscape:label="Layer 1"
     inkscape:groupmode="layer"
     id="layer1"
     transform="translate(0,-797.34214)">
    <path
       sodipodi:type="arc"
       style="fill:#53aa9a;fill-opacity:1;stroke:none"
       id="path2985"
       sodipodi:cx="70.710678"
       sodipodi:cy="773.56006"
       sodipodi:rx="18.687822"
       sodipodi:ry="18.687822"
       d="m 89.3985,773.56006 c 0,10.321 -8.366823,18.68782 -18.687822,18.68782 -10.320999,0 -18.687822,-8.36682 -18.687822,-18.68782 0,-10.321 8.366823,-18.68782 18.687822,-18.68782 10.320999,0 18.687822,8.36682 18.687822,18.68782 z"
       transform="translate(-37.931483,149.5533)" />
    <g
       id="g3761">
      <g
         id="content"
         transform="matrix(1.0629921,0,0,-1.0629921,-186.02362,789.27165)"
         xml:space="preserve"
         stroke-miterlimit="10.433"
         font-style="normal"
         font-variant="normal"
         font-weight="normal"
         font-stretch="normal"
         font-size-adjust="none"
         letter-spacing="normal"
         word-spacing="normal"
         style="font-style:normal;font-variant:normal;font-weight:normal;font-stretch:normal;letter-spacing:normal;word-spacing:normal;text-anchor:start;fill:none;stroke:#000000;stroke-linecap:butt;stroke-linejoin:miter;stroke-miterlimit:10.43299961;stroke-opacity:1;stroke-dasharray:none;stroke-dashoffset:0"><path
           d="m 464.14,426.12 h 7.13 v 1.55 h -7.13 v 9.17 h -1.25 c -0.04,-4.08 -1.54,-9.42 -6.42,-9.61 v -1.11 h 4.24 v -13.75 c 0,-6.12 4.62,-6.72 6.42,-6.72 3.53,0 4.94,3.53 4.94,6.72 v 2.84 h -1.25 v -2.73 c 0,-3.69 -1.5,-5.58 -3.35,-5.58 -3.33,0 -3.33,4.53 -3.33,5.38 z"
           id="path3764"
           inkscape:connector-curvature="0"
           style="fill:#000000;stroke-width:0" /></g>    </g>
    <g
       id="g3782">
      <g
         word-spacing="normal"
         letter-spacing="normal"
         font-size-adjust="none"
         font-stretch="normal"
         font-weight="normal"
         font-variant="normal"
         font-style="normal"
         stroke-miterlimit="10.433"
         xml:space="preserve"
         transform="matrix(1.0629921,0,0,-1.0629921,-186.02362,789.27165)"
         id="g3784"
         style="font-style:normal;font-variant:normal;font-weight:normal;font-stretch:normal;letter-spacing:normal;word-spacing:normal;text-anchor:start;fill:none;stroke:#000000;stroke-linecap:butt;stroke-linejoin:miter;stroke-miterlimit:10.43299961;stroke-opacity:1;stroke-dasharray:none;stroke-dashoffset:0"><path
           id="path3786"
           d="m 1241.3,366.36 h 4.7 c 1,0 1.5,0 1.5,1 0,0.55 -0.5,0.55 -1.4,0.55 h -4.4 c 1.8,7.08 2.1,8.08 2.1,8.38 0,0.84 -0.6,1.34 -1.5,1.34 -0.1,0 -1.5,-0.05 -2,-1.8 l -1.9,-7.92 h -4.7 c -1,0 -1.5,0 -1.5,-0.94 0,-0.61 0.4,-0.61 1.4,-0.61 h 4.4 c -3.6,-14.14 -3.8,-14.98 -3.8,-15.89 0,-2.68 1.9,-4.58 4.6,-4.58 5.1,0 7.9,7.27 7.9,7.68 0,0.5 -0.4,0.5 -0.6,0.5 -0.4,0 -0.5,-0.16 -0.7,-0.71 -2.2,-5.17 -4.8,-6.37 -6.5,-6.37 -1,0 -1.5,0.65 -1.5,2.3 0,1.18 0,1.54 0.3,2.39 z"
           inkscape:connector-curvature="0"
           style="fill:#000000;stroke-width:0" /></g>    </g>
    <path
       transform="translate(-47.022856,211.17262)"
       sodipodi:type="arc"
       style="fill:#53e29a;fill-opacity:1;stroke:none"
       id="path2985-1"
       sodipodi:cx="70.710678"
       sodipodi:cy="773.56006"
       sodipodi:rx="18.687822"
       sodipodi:ry="18.687822"
       d="m 89.3985,773.56006 c 0,10.321 -8.366823,18.68782 -18.687822,18.68782 -10.320999,0 -18.687822,-8.36682 -18.687822,-18.68782 0,-10.321 8.366823,-18.68782 18.687822,-18.68782 10.320999,0 18.687822,8.36682 18.687822,18.68782 z" />
    <path
       transform="translate(2.4746192,188.94927)"
       sodipodi:type="arc"
       style="fill:#89329a;fill-opacity:1;stroke:none"
       id="path2985-8"
       sodipodi:cx="70.710678"
       sodipodi:cy="773.56006"
       sodipodi:rx="18.687822"
       sodipodi:ry="18.687822"
       d="m 89.3985,773.56006 c 0,10.321 -8.366823,18.68782 -18.687822,18.68782 -10.320999,0 -18.687822,-8.36682 -18.687822,-18.68782 0,-10.321 8.366823,-18.68782 18.687822,-18.68782 10.320999,0 18.687822,8.36682 18.687822,18.68782 z" />
    <path
       transform="translate(0.95939024,105.10661)"
       sodipodi:type="arc"
       style="fill:#53719a;fill-opacity:1;stroke:none"
       id="path2985-40"
       sodipodi:cx="70.710678"
       sodipodi:cy="773.56006"
       sodipodi:rx="18.687822"
       sodipodi:ry="18.687822"
       d="m 89.3985,773.56006 c 0,10.321 -8.366823,18.68782 -18.687822,18.68782 -10.320999,0 -18.687822,-8.36682 -18.687822,-18.68782 0,-10.321 8.366823,-18.68782 18.687822,-18.68782 10.320999,0 18.687822,8.36682 18.687822,18.68782 z" />
    <path
       transform="translate(-21.263966,252.0838)"
       sodipodi:type="arc"
       style="fill:#53c9e3;fill-opacity:1;stroke:none"
       id="path2985-10"
       sodipodi:cx="70.710678"
       sodipodi:cy="773.56006"
       sodipodi:rx="18.687822"
       sodipodi:ry="18.687822"
       d="m 89.3985,773.56006 c 0,10.321 -8.366823,18.68782 -18.687822,18.68782 -10.320999,0 -18.687822,-8.36682 -18.687822,-18.68782 0,-10.321 8.366823,-18.68782 18.687822,-18.68782 10.320999,0 18.687822,8.36682 18.687822,18.68782 z" />
    <path
       transform="translate(169.14979,255.11427)"
       sodipodi:type="arc"
       style="fill:#53ffe3;fill-opacity:1;stroke:none"
       id="path2985-10-9"
       sodipodi:cx="70.710678"
       sodipodi:cy="773.56006"
       sodipodi:rx="18.687822"
       sodipodi:ry="18.687822"
       d="m 89.3985,773.56006 c 0,10.321 -8.366823,18.68782 -18.687822,18.68782 -10.320999,0 -18.687822,-8.36682 -18.687822,-18.68782 0,-10.321 8.366823,-18.68782 18.687822,-18.68782 10.320999,0 18.687822,8.36682 18.687822,18.68782 z" />
  </g>
  <text
     xml:space="preserve"
     style="font-size:40px;font-style:italic;font-weight:normal;line-height:125%;letter-spacing:0px;word-spacing:0px;fill:#000000;fill-opacity:1;stroke:none;font-family:Sans;-inkscape-font-specification:Sans Italic"
     x="43.385799"
     y="34.16209"
     id="text3839"
     sodipodi:linespacing="125%"><tspan
       sodipodi:role="line"
       id="tspan3841"
       x="43.385799"
       y="34.16209"
       style="font-style:italic;-inkscape-font-specification:Sans Italic">t</tspan></text>
  <text
     xml:space="preserve"
     style="font-size:40px;font-style:italic;font-weight:normal;line-height:125%;letter-spacing:0px;word-spacing:0px;fill:#000000;fill-opacity:1;stroke:none;font-family:Sans;-inkscape-font-specification:Sans Italic"
     x="208.04068"
     y="34.16209"
     id="text3843"
     sodipodi:linespacing="125%"><tspan
       sodipodi:role="line"
       id="tspan3845"
       x="208.04068"
       y="34.16209"
       style="font-style:italic;-inkscape-font-specification:Sans Italic">t+Δt</tspan></text>
  <path
     sodipodi:type="arc"
     style="fill:#536d9a;fill-opacity:1;stroke:none"
     id="path2985-5"
     sodipodi:cx="70.710678"
     sodipodi:cy="773.56006"
     sodipodi:rx="18.687822"
     sodipodi:ry="18.687822"
     d="m 89.3985,773.56006 a 18.687822,18.687822 0 1 1 -37.375644,0 18.687822,18.687822 0 1 1 37.375644,0 z"
     transform="translate(156.0178,-685.41703)" />
  <path
     transform="translate(160.05842,-628.84846)"
     sodipodi:type="arc"
     style="fill:#533d9a;fill-opacity:1;stroke:none"
     id="path2985-1-3"
     sodipodi:cx="70.710678"
     sodipodi:cy="773.56006"
     sodipodi:rx="18.687822"
     sodipodi:ry="18.687822"
     d="m 89.3985,773.56006 a 18.687822,18.687822 0 1 1 -37.375644,0 18.687822,18.687822 0 1 1 37.375644,0 z" />
  <path
     transform="translate(200.46451,-653.09212)"
     sodipodi:type="arc"
     style="fill:#89329a;fill-opacity:1;stroke:none"
     id="path2985-8-4"
     sodipodi:cx="70.710678"
     sodipodi:cy="773.56006"
     sodipodi:rx="18.687822"
     sodipodi:ry="18.687822"
     d="m 89.3985,773.56006 a 18.687822,18.687822 0 1 1 -37.375644,0 18.687822,18.687822 0 1 1 37.375644,0 z" />
  <path
     transform="translate(202.9899,-692.48806)"
     sodipodi:type="arc"
     style="fill:#53509a;fill-opacity:1;stroke:none"
     id="path2985-40-9"
     sodipodi:cx="70.710678"
     sodipodi:cy="773.56006"
     sodipodi:rx="18.687822"
     sodipodi:ry="18.687822"
     d="m 89.3985,773.56006 a 18.687822,18.687822 0 1 1 -37.375644,0 18.687822,18.687822 0 1 1 37.375644,0 z" />
  <path
     transform="translate(187.33253,-590.96774)"
     sodipodi:type="arc"
     style="fill:#532de3;fill-opacity:1;stroke:none"
     id="path2985-10-6"
     sodipodi:cx="70.710678"
     sodipodi:cy="773.56006"
     sodipodi:rx="18.687822"
     sodipodi:ry="18.687822"
     d="m 89.3985,773.56006 a 18.687822,18.687822 0 1 1 -37.375644,0 18.687822,18.687822 0 1 1 37.375644,0 z" />
  <path
     style="fill:none;stroke:#000000;stroke-width:1px;stroke-linecap:butt;stroke-linejoin:miter;stroke-opacity:1"
     d="m 89.852812,164.64632 c 73.363268,-7.45057 90.119918,13.0344 148.997508,15.15229"
     id="path3987-3-0"
     inkscape:connector-curvature="0"
     sodipodi:nodetypes="cc" />
  <path
     style="fill:none;stroke:#000000;stroke-width:1px;stroke-linecap:butt;stroke-linejoin:miter;stroke-opacity:1"
     d="m 41.618027,186.68722 c 105.183083,18.30829 98.201143,-9.18896 197.989913,-7.07107"
     id="path3987-3-0-3"
     inkscape:connector-curvature="0"
     sodipodi:nodetypes="cc" />
</svg>
